<svg width="1425" height="792" viewBox="0 0 1425 792" fill="none" xmlns="http://www.w3.org/2000/svg">
<path fill-rule="evenodd" clip-rule="evenodd" d="M292.848 789.736C295.332 787.919 295.878 785.965 295.055 781.844C294.214 777.641 296.441 770.203 304.614 749.922C310.473 735.38 315.268 722.384 315.268 721.042C315.268 719.701 309.302 715.883 302.009 712.559L288.749 706.515L286.496 696.438C284.487 687.461 283.493 685.98 277.398 682.869C273.635 680.949 270.557 679.776 270.557 680.263C270.557 680.749 272.971 682.397 275.922 683.923C278.873 685.449 281.288 687.379 281.288 688.211C281.288 689.042 278.269 693.032 274.581 697.076L267.874 704.431L253.077 694.627C244.304 688.817 237.587 683.003 236.578 680.348C234.407 674.638 226.651 674.096 224.925 679.536C223.354 684.484 227.266 688.876 232.15 687.649C234.902 686.958 240.414 689.558 251.061 696.57C259.324 702.014 275.341 710.985 286.653 716.506C297.965 722.026 307.553 726.813 307.961 727.143C308.368 727.472 304.414 738.611 299.174 751.897C292.353 769.191 288.815 776.051 286.719 776.051C282.686 776.051 279.499 779.606 279.499 784.101C279.499 791.491 286.442 794.421 292.848 789.736ZM329.696 768.672C331.232 765.801 331.2 763.881 329.569 760.833C327.73 757.395 328.394 754.114 334.056 738.695C338.212 727.379 341.655 720.595 343.243 720.595C344.638 720.595 354.269 722.722 364.642 725.323L383.505 730.049L393.985 726.701C399.749 724.858 404.254 723.141 403.997 722.883C403.739 722.626 393.718 720.747 381.73 718.711C369.741 716.674 353.326 713.087 345.255 710.74C337.184 708.393 330.259 706.794 329.867 707.186C329.474 707.577 331.26 708.427 333.836 709.075C336.411 709.72 338.518 711.044 338.518 712.016C338.518 712.989 335.136 723.051 331.001 734.38C325.84 748.522 322.197 755.822 319.376 757.67C314.937 760.579 313.961 766.872 317.414 770.327C320.83 773.743 327.46 772.851 329.696 768.672ZM563.505 761.382C566.713 758.173 566.098 753.312 562.133 750.532C560.198 749.178 555.886 740.903 552.554 732.144C546.852 717.164 546.643 715.86 549.042 710.119C551.293 704.731 551.275 704.137 548.897 705.051C547.414 705.62 542.789 707.005 538.618 708.128L531.035 710.171L536.599 713.695C540.847 716.384 543.51 720.69 547.847 731.876C550.971 739.939 553.457 749.293 553.373 752.663C553.137 761.958 558.4 766.488 563.505 761.382ZM752.544 726.533C772.651 715.796 786.367 695.187 790.13 670.059C790.915 664.815 790.727 661.561 789.641 661.561C788.672 661.561 787.358 666.191 786.717 671.848C784.423 692.127 769.845 713.42 750.755 724.375C741.489 729.692 743.065 731.593 752.544 726.533ZM472.17 722.933C470.43 722.479 468.016 722.509 466.805 722.999C465.594 723.49 467.018 723.86 469.969 723.824C472.92 723.788 473.911 723.388 472.17 722.933ZM674.746 721.338C674.746 720.627 670.679 715.744 665.707 710.486C654.335 698.457 647.757 684.352 646.558 669.413C646.054 663.127 644.843 657.984 643.867 657.984C641.168 657.984 643.997 678.44 648.154 688.989C652.48 699.967 662.363 713.808 669.513 718.899C672.391 720.951 674.746 722.048 674.746 721.338ZM751.782 715.529C767.145 705.783 778.224 687.769 779.844 669.896C780.401 663.749 780.127 659.635 779.197 660.193C778.308 660.728 773.114 662.082 767.656 663.204C757.882 665.212 757.694 665.37 755.561 673.348C754.069 678.933 750.759 684.084 744.921 689.912L736.448 698.37L738.039 709.482C738.948 715.835 740.522 720.595 741.713 720.595C742.857 720.595 747.389 718.316 751.782 715.529ZM505.178 717.584C503.889 717.067 502.345 717.132 501.751 717.726C501.158 718.32 502.213 718.742 504.098 718.665C506.181 718.579 506.605 718.155 505.178 717.584ZM514.12 715.796C512.831 715.279 511.287 715.343 510.694 715.937C510.1 716.531 511.155 716.953 513.04 716.876C515.124 716.79 515.547 716.366 514.12 715.796ZM416.188 714.207C417.734 712.66 418.998 710.704 418.998 709.862C418.998 707.921 413.851 702.706 411.936 702.706C411.143 702.706 409.466 703.944 408.21 705.457C405.617 708.583 400.819 708.187 371.604 702.431C356.2 699.397 330.658 691.864 328.519 689.722C328.138 689.341 329.171 685.601 330.817 681.411C333.242 675.237 334.51 673.953 337.506 674.64C339.537 675.105 350.456 677.964 361.768 680.991C373.08 684.017 390.76 687.531 401.06 688.799L419.783 691.105L427.751 702.529L435.718 713.953L457.344 712.931C470.477 712.311 488.093 709.962 502.191 706.953C514.963 704.227 529.032 702.15 533.459 702.341C539.926 702.618 542.21 701.867 545.084 698.518C547.051 696.225 553.489 692.474 559.391 690.178C565.293 687.885 575.704 683.239 582.527 679.855C594.218 674.057 595.065 673.887 597.267 676.899C599.232 679.59 599.109 680.651 596.487 683.611C593.468 687.017 593.497 687.06 597.396 685.014C599.61 683.853 601.42 682.044 601.42 680.994C601.42 677.998 577.451 634.758 575.781 634.742C574.958 634.735 578.444 642.443 583.526 651.876C588.609 661.307 592.501 669.263 592.175 669.556C590.483 671.08 561.834 684.713 554.679 687.4C540.525 692.713 538.447 690.552 523.551 655.028C513.117 630.143 510.307 624.932 507.432 625.136C496.35 625.925 462.999 632.993 459.478 635.302C454.687 638.442 443.046 655.799 444.653 657.407C446.317 659.071 482.527 654.645 499.172 650.742C507.365 648.823 514.396 647.25 514.798 647.25C515.465 647.25 518.869 654.629 522.832 664.672C524.846 669.774 520.096 672.441 500.246 677.352C479.777 682.415 470.861 683.465 468.066 681.144C466.748 680.05 463.974 679.694 461.903 680.35C456.457 682.078 457.623 690.849 463.407 691.669C465.7 691.994 468.517 691.125 469.667 689.737C470.817 688.348 478.02 686.214 485.677 684.994C493.331 683.774 505.4 680.801 512.496 678.386C524.751 674.218 525.513 674.157 527.716 677.171C531.32 682.098 532.307 688.255 530.227 692.822C528.678 696.221 525.439 697.652 512.564 700.618C494.277 704.831 476.325 707.448 454.426 709.098L438.884 710.268L432.964 701.754C422.427 686.599 423.063 686.98 404.691 684.864C387.804 682.917 349.487 674.717 347.113 672.54C345.303 670.878 351.5 645.461 353.716 645.461C354.746 645.461 363.218 647.39 372.54 649.746C390.66 654.329 427.824 659.098 432.229 657.407C436.189 655.887 451.19 632.703 451.19 628.102C451.19 622.935 457.094 619.62 461.803 622.143C463.706 623.161 467.764 623.994 470.82 623.994C478.274 623.994 503.536 618.749 505.568 616.782C506.525 615.853 504.819 609.782 501.392 601.921C498.205 594.61 495.867 586.799 496.196 584.562C497.005 579.073 518.164 569.946 530.776 569.646C539.466 569.438 539.734 569.272 540.269 563.737C541.246 553.653 528.532 551.549 525.443 561.283C524.713 563.581 519.736 566.542 510.799 569.993C499.457 574.374 496.434 574.909 492.155 573.293C487.664 571.597 486.444 571.939 482.084 576.113C477.7 580.309 474.767 581.118 456.867 583.057C399.756 589.245 340.877 568.1 300.011 526.728C246.012 472.061 228.527 392.922 254.708 321.67C260.075 307.063 271.551 285.783 280.433 273.965L288.279 263.53L270.475 245.611C260.683 235.756 252.672 227.101 252.672 226.38C252.672 225.659 256.983 225.069 262.251 225.069H271.83L290.312 242.611L308.794 260.153L298.836 271.893C279.873 294.255 265.649 323.403 259.935 351.623C257.873 361.807 255.734 367.501 253.023 370.027C248.348 374.385 248.264 375.142 251.88 380.305C258.725 390.081 269.428 380.285 263.056 370.077C261.33 367.314 261.833 362.934 265.676 347.294C278.399 295.512 312.941 252.607 359.979 230.158C370.308 225.228 379.965 220.575 381.441 219.817C384.016 218.493 390.079 191.243 390.292 180.037L390.383 175.255L377.846 178.804C362.208 183.23 342.798 191.18 330.642 198.137C324.606 201.591 319.968 203.092 317.405 202.423C309.989 200.482 304.754 210.259 310.26 215.767C314.639 220.146 320.667 218.271 323.423 211.67C325.704 206.21 328.56 204.21 346.135 195.763C365.928 186.248 382.33 180.64 384.374 182.684C386.01 184.321 381.085 214.212 378.914 215.824C377.844 216.618 371.796 219.534 365.47 222.307C349.043 229.507 334.73 238.223 322.195 248.656L311.307 257.72L292.142 238.609L272.977 219.498L259.095 219.865C245.386 220.228 245.136 220.153 238.876 213.892L232.538 207.552L234.797 196.182L237.057 184.81L184.949 133.053C156.289 104.588 132.938 80.4397 133.056 79.3914C133.853 72.3074 128.052 68.0462 122.012 71.2787C119.253 72.7564 118.467 74.6759 118.882 78.9442C119.351 83.7957 120.27 84.7724 125.077 85.5345C129.527 86.2393 141.393 96.8225 181.152 135.549L231.583 184.668L230.644 191.668C230.127 195.518 229.038 199.307 228.223 200.085C225.999 202.209 170.404 147.348 170.404 143.03C170.404 141.066 169.139 138.193 167.594 136.645C162.191 131.243 154.308 134.352 154.308 141.885C154.308 146.838 157.599 149.935 162.864 149.935C166.044 149.935 181.612 164.103 224.207 205.76C255.602 236.464 281.288 262.208 281.288 262.97C281.288 263.733 277.187 270.462 272.176 277.924C255.561 302.661 244.605 331.621 240.035 362.879C238.15 375.784 238.388 399.519 240.663 425.319C241.044 429.653 240.538 429.793 171.298 444.558C23.2522 476.131 16.0054 477.528 11.799 475.31C4.07291 471.235 -3.32956 478.957 1.58152 485.972C5.11549 491.018 10.1303 490.864 14.2133 485.587C16.9622 482.032 21.9752 480.419 45.2179 475.607L72.9424 469.868L83.6302 473.868C89.507 476.066 96.3245 480.156 98.7783 482.952C104.224 489.159 107.143 489.32 113.075 483.741C116.632 480.396 124.071 478.018 146.657 473.007C162.613 469.467 176.717 466.571 177.996 466.571C179.983 466.571 188.557 487.548 188.537 492.36C188.533 493.26 183.96 495.857 178.375 498.131C170.987 501.136 167.333 501.789 164.97 500.524C158.23 496.916 150.69 504.531 154.308 511.293C157.203 516.707 166.425 516.161 168.596 510.449C169.579 507.862 173.042 504.873 176.942 503.242C191.178 497.292 190.592 497.014 199.793 514.039C204.413 522.585 207.836 530.506 207.4 531.642C206.963 532.78 194.813 540.46 180.396 548.71C165.981 556.961 153.764 564.393 153.247 565.231C151.275 568.422 154.574 570.317 157.321 567.569C161.294 563.596 163.813 564.782 170.706 573.866C176.372 581.333 177.286 581.841 184.141 581.345C189.902 580.928 192.31 581.689 195.258 584.853C199.452 589.354 200.273 598.746 196.783 602.3C194.984 604.132 198.404 608.315 214.267 623.678C225.113 634.182 241.124 647.819 249.849 653.982L265.714 665.184L272.159 661.313C289.357 650.98 286.006 651.077 305.065 660.35C314.521 664.951 322.898 668.715 323.681 668.713C324.92 668.708 338.518 638.563 338.518 635.819C338.518 635.252 334.372 632.687 329.306 630.12L320.095 625.451L327.964 618.653C338.327 609.705 346.672 608.676 364.073 614.204C376.848 618.261 402.092 623.994 407.18 623.994C408.634 623.994 416.485 615.944 424.628 606.105L439.435 588.216H448.296C453.17 588.216 462.266 587.325 468.511 586.238C478.085 584.571 480.814 584.71 485.902 587.125C491.84 589.943 495.236 594.467 492.625 596.08C490.466 597.415 461.713 602.383 453.011 602.923C445.002 603.422 444.975 603.447 426.519 627.125C409.645 648.772 407.548 650.824 402.342 650.789C395.178 650.74 369.558 645.021 355.796 640.4L345.353 636.892L340.482 647.885C337.801 653.932 333.306 664.513 330.491 671.4C327.678 678.288 324.509 684.887 323.452 686.068C320.9 688.91 293.197 676.05 290.328 670.692C288.007 666.352 282.693 665.76 279.594 669.497C276.189 673.602 280.318 679.572 286.281 679.162C288.944 678.98 294.343 680.481 298.278 682.5C318.981 693.119 368.473 707.858 393.257 710.785C399.053 711.47 405.579 713.152 407.758 714.524C412.69 717.629 412.769 717.626 416.188 714.207ZM686.405 705.484C691.753 693.391 691.722 694.035 687.151 689.168C685.121 687.007 681.544 680.515 679.201 674.742C675.313 665.155 674.294 664.055 667.44 662.05C663.314 660.842 658.321 659.341 656.345 658.713C652.95 657.636 652.805 658.168 653.719 668.268C655.275 685.429 664.604 703.153 676.565 711.672L681.968 715.52L686.405 705.484ZM521.274 714.007C519.985 713.49 518.441 713.554 517.847 714.148C517.254 714.742 518.309 715.164 520.194 715.087C522.277 715.001 522.701 714.577 521.274 714.007ZM320.635 709.86C321.687 707.894 323.928 706.23 325.614 706.162C329.114 706.025 330.107 706.524 306.773 696.681C297.861 692.923 292.027 691.288 292.043 692.556C292.138 700.822 294.98 703.323 312.97 710.987C318.251 713.236 318.877 713.143 320.635 709.86ZM719.01 706.889C721.67 705.815 722.018 696.239 719.457 694.656C718.474 694.048 717.669 691.345 717.669 688.649C717.669 684.679 718.849 683.32 723.875 681.502C732.692 678.313 737.342 671.663 737.342 662.239C737.342 655.102 737.953 654.052 744.719 649.574C749.138 646.647 754.613 644.667 758.379 644.629C769.779 644.517 771.19 632.819 759.966 631.479C756.274 631.037 754.847 631.912 753.508 635.438C751.047 641.914 737.576 650.155 733.883 647.445C727.917 643.066 719.275 640.094 712.509 640.094C705.686 640.094 704.341 638.951 673.051 606.553L640.657 573.011L641.003 562.742C641.238 555.812 640.483 551.449 638.682 549.326C637.216 547.594 627.02 535.987 616.026 523.535C603.755 509.635 596.417 499.907 597.018 498.338C597.559 496.932 596.45 493.868 594.554 491.528C591.505 487.76 590.571 487.517 586.427 489.406C578.333 493.095 581.082 504.138 590.094 504.138C593.055 504.138 600.095 510.839 616.201 528.989L638.253 553.843L636.751 571.177L635.25 588.51L641.917 595.966C674.338 632.216 682.481 640.039 688.848 641.057C692.404 641.624 697.105 642.456 699.296 642.905L703.279 643.721L699.75 649.509C693.137 660.359 696.558 674.975 706.969 680.361C710.998 682.445 712.304 684.368 712.304 688.221C712.304 691.028 711.096 694.325 709.621 695.55C702.428 701.522 709.914 710.559 719.01 706.889ZM565.651 700.023C568.11 698.617 569.317 697.466 568.333 697.466C567.35 697.466 564.533 698.617 562.074 700.023C559.615 701.429 558.408 702.579 559.391 702.579C560.375 702.579 563.192 701.429 565.651 700.023ZM579.958 693.762C583.401 691.876 585.413 690.334 584.43 690.334C583.446 690.334 579.824 691.876 576.381 693.762C572.939 695.647 570.927 697.189 571.91 697.189C572.894 697.189 576.516 695.647 579.958 693.762ZM705.012 674.221C695.007 664.214 699.604 647.819 713.384 644.361C720.783 642.502 730.571 648.356 733.087 656.143C738.807 673.835 718.012 687.225 705.012 674.221ZM268.768 678.681C268.768 678.189 267.159 676.926 265.192 675.873C263.224 674.819 261.615 674.361 261.615 674.853C261.615 675.345 263.224 676.608 265.192 677.661C267.159 678.715 268.768 679.173 268.768 678.681ZM259.826 673.527C259.826 673.11 256.405 670.513 252.225 667.756C248.046 664.998 245.569 663.885 246.722 665.282C248.942 667.969 259.826 674.819 259.826 673.527ZM723.034 665.139C725.71 660.139 722.365 654.406 716.775 654.406C711.184 654.406 707.84 660.139 710.515 665.139C711.622 667.211 714.26 668.717 716.775 668.717C719.289 668.717 721.927 667.211 723.034 665.139ZM243.73 662.992C243.73 662.563 237.424 657.241 229.716 651.168C212.298 637.447 183.263 607.647 170.556 590.452C165.284 583.318 160.65 577.483 160.258 577.483C157.228 577.483 179.08 604.705 195.964 621.968C213.378 639.769 243.73 665.839 243.73 662.992ZM255.2 652.293C242.333 643.191 219.402 624.3 213.416 617.871C209.086 613.22 209.074 613.1 212.263 607.699C215.807 601.697 216.716 592.152 214.557 583.571C213.237 578.324 213.69 577.669 223.12 571.172L233.078 564.311L240.298 571.345C246.889 577.764 247.404 578.923 246.205 584.638C243.111 599.383 247.069 610.592 257.691 617.17C265.218 621.832 278.58 622.211 285.809 617.968C291.117 614.853 291.146 614.86 305.069 622.817C312.739 627.2 321.39 631.771 324.294 632.975C327.199 634.177 329.576 635.832 329.576 636.651C329.576 637.468 325.341 642.69 320.163 648.254L310.75 658.368L298.813 652.481L286.875 646.592L277.374 653.069C272.149 656.633 267.402 659.599 266.825 659.66C266.247 659.722 261.016 656.406 255.2 652.293ZM196.284 655.56C201.044 652.078 198.949 646.636 191.978 644.375C187.929 643.062 181.612 637.569 173.221 628.068C156.772 609.443 139.464 585.306 140.494 582.429C141.764 578.889 138.428 573.905 134.79 573.905C126.689 573.905 126.027 583.757 133.995 585.757C136.377 586.354 140.635 590.202 143.459 594.306C147.687 600.452 148.506 603.329 148.111 610.644C147.633 619.493 147.587 619.558 132.964 630.733C124.897 636.9 117.562 641.49 116.666 640.937C113.59 639.035 107.57 643.771 108.146 647.637C109.432 656.246 119.939 656.229 122.075 647.611C122.59 645.538 128.917 639.425 136.139 634.03C148.587 624.731 149.737 624.254 158.33 624.849C166.866 625.44 167.952 626.102 176.948 636.202C182.2 642.102 186.5 648.583 186.5 650.604C186.5 655.647 192.21 658.538 196.284 655.56ZM679.206 630.703C660.122 612.22 638.977 587.349 638.977 583.386C638.977 581.123 639.668 579.272 640.512 579.272C641.356 579.272 654.714 592.554 670.195 608.789C697.239 637.15 698.121 638.306 692.699 638.306C688.485 638.306 685.071 636.381 679.206 630.703ZM541.06 635.49C543.766 634.023 545.978 632.395 545.978 631.871C545.978 629.043 538.134 613.261 536.726 613.261C535.816 613.261 532.715 614.479 529.837 615.968L524.606 618.672L528.657 627.917C530.883 633.001 533.478 637.384 534.425 637.656C535.369 637.93 538.354 636.955 541.06 635.49ZM744.048 618.198C748.228 613.934 751.649 609.885 751.649 609.204C751.649 606.74 737.8 600.978 727.298 599.075C720.114 597.771 713.575 597.69 707.564 598.832C696.969 600.841 683.688 605.894 683.688 607.916C683.688 608.697 687.11 613.082 691.289 617.66C698.681 625.755 699.053 625.926 704.81 623.882C710.451 621.88 725.103 622.372 732.871 624.826C735.55 625.672 738.356 624.009 744.048 618.198ZM298.203 613.515C286.102 606.127 282.949 604.953 277.155 605.674C268.182 606.79 261.615 601.121 261.615 592.259C261.615 587.159 259.76 584.365 249.99 574.733C243.596 568.433 238.365 562.487 238.365 561.52C238.365 560.556 241.815 557.392 246.034 554.488C256.444 547.324 261.459 548.537 275.514 561.624C281.683 567.367 289.128 573.839 292.058 576.005C294.987 578.172 297.384 581.241 297.384 582.828C297.384 586.821 300.955 590.005 305.432 590.005C309.999 590.005 313.48 586.801 313.48 582.594C313.48 578.367 306.537 573.783 301.896 574.948C296.836 576.22 266.98 548.726 266.98 542.796C266.98 533.392 255.697 531.199 252.043 539.893C249.882 545.029 237.592 555.894 233.894 555.937C231.025 555.97 214.051 531.072 204.261 512.472C195.272 495.395 183.851 466.836 185.393 465.294C187.067 463.619 226.146 455.571 228.401 456.435C229.693 456.932 231.318 459.616 232.011 462.401C232.704 465.186 236.55 474.308 240.558 482.671C244.565 491.034 248.328 501.499 248.917 505.927C249.918 513.446 250.374 514.014 255.818 514.539C260.54 514.993 261.942 514.315 263.206 510.961C265.213 505.644 262.741 500.911 257.238 499.53C254.05 498.728 251.175 494.751 245.912 483.855C242.035 475.825 237.478 465.027 235.788 459.863C234.096 454.698 231.771 450.471 230.621 450.471C229.469 450.471 203.19 456.09 172.221 462.957C123.019 473.868 115.191 475.183 110.19 473.374C105.723 471.759 103.865 471.803 101.726 473.58C99.4848 475.438 97.4979 475.288 90.877 472.759C86.4184 471.056 82.777 469.168 82.786 468.564C82.7985 467.741 206.672 440.999 238.506 434.947C242.881 434.117 243.328 434.77 247.105 447.498C251.975 463.904 262.525 486.061 272.589 501.02C282.979 516.462 307.982 541.719 323.497 552.447C351.082 571.52 386.418 584.622 418.004 587.485C425.436 588.159 431.508 589.202 431.499 589.805C431.489 590.408 426.22 597.139 419.789 604.764C406.67 620.316 406.366 620.418 386.806 615.873C365.765 610.984 352.822 605.975 349.966 601.615C348.471 599.331 346.028 596.994 344.541 596.424C340.401 594.835 334.939 598.604 334.955 603.037C334.971 607.409 319.854 622.021 315.193 622.137C313.676 622.175 306.031 618.295 298.203 613.515ZM528.541 609.393C531.246 608.404 533.459 606.424 533.459 604.991C533.459 602.953 527.355 589.086 525.481 586.866C524.667 585.903 513.786 590.427 513.786 591.73C513.786 594.34 521.419 611.472 522.519 611.331C523.125 611.254 525.835 610.381 528.541 609.393ZM397.179 607.536C400.203 604.511 399.846 598.03 396.499 595.252C394.348 593.467 392.456 593.367 388.58 594.83C384.435 596.395 381.047 595.944 370.392 592.409C338.938 581.977 305.188 560.59 283.385 537.279C272.547 525.689 272.118 525.438 260.771 524.072C254.3 523.293 247.772 521.383 245.953 519.737C244.165 518.118 239.395 510.524 235.355 502.862C229.904 492.531 228.228 487.519 228.866 483.463C229.932 476.687 226.003 472.85 219.636 474.449C211.495 476.492 212.023 489.73 220.252 489.879C222.02 489.911 226.325 495.66 231.211 504.517C243.346 526.51 243.555 526.698 257.29 528.106C269.194 529.326 269.208 529.335 282.405 542.535C289.668 549.798 301.039 559.826 307.674 564.817C322.633 576.07 353.874 592.168 370.63 597.259C377.56 599.365 383.229 601.756 383.229 602.574C383.229 605.186 388.741 609.683 391.941 609.683C393.641 609.683 395.999 608.717 397.179 607.536ZM757.015 600.941C757.015 600.066 751.59 597.048 744.961 594.232C734.502 589.787 730.66 589.114 715.898 589.143C701.144 589.172 697.492 589.826 688.335 594.087C682.528 596.79 678.189 599.413 678.691 599.916C679.194 600.417 683.542 599.021 688.353 596.812C695.703 593.436 700.246 592.785 716.775 592.742C734.788 592.692 737.252 593.104 745.984 597.608C756.568 603.068 757.015 603.204 757.015 600.941ZM189.397 596.352C190.762 592.794 188.741 590.005 184.797 590.005C181.281 590.005 179.384 593.077 180.653 596.714C181.728 599.798 188.177 599.531 189.397 596.352ZM280 594.857C281.418 591.161 278.65 587.773 274.813 588.511C270.062 589.427 270.412 596.118 275.248 596.808C277.335 597.105 279.474 596.229 280 594.857ZM204.209 571.062C199.609 566.9 189.343 565.104 180.94 566.993C173.448 568.676 168.614 566.916 168.617 562.506C168.619 560.801 208.884 536.338 211.687 536.338C212.209 536.338 216.548 541.665 221.326 548.175C228.18 557.512 229.482 560.32 227.484 561.461C226.091 562.258 221.732 565.361 217.798 568.358C209.503 574.674 208.433 574.887 204.209 571.062ZM932.928 570.875C935.065 568.737 934.082 564.961 931.388 564.961C929.913 564.961 928.706 566.12 928.706 567.538C928.706 570.528 931.258 572.544 932.928 570.875ZM1040.73 567.655C1041.34 566.048 1040.94 562.733 1039.82 560.29C1038.61 557.626 1037.8 545.292 1037.8 529.485V503.122L1047.25 493.791L1056.69 484.46H1101.33H1145.97L1185.5 444.948L1225.04 405.435L1234.79 418.562C1240.15 425.78 1247.7 436.115 1251.55 441.526C1260.32 453.848 1260.54 453.988 1270.39 454.022C1274.86 454.036 1279.61 455.054 1280.94 456.285C1282.87 458.079 1283.08 458.066 1282.04 456.218C1281.01 454.394 1284.36 454.022 1298.15 454.43L1315.55 454.943L1330.04 477.854C1341.41 495.839 1344.52 502.184 1344.52 507.37C1344.52 513.728 1344.76 513.977 1350.78 513.977C1356.73 513.977 1357.04 513.667 1357.04 507.796C1357.04 502.676 1356.27 501.437 1352.57 500.567C1349.23 499.784 1344.22 493.446 1332.74 475.442L1317.38 451.365L1297.88 450.471L1278.38 449.576L1270.77 437.948C1265.75 430.279 1263.16 424.329 1263.15 420.473C1263.15 415.122 1262.76 414.72 1258.65 415.754C1253.97 416.927 1254.51 417.376 1240.09 400.381C1236.15 395.748 1234.24 394.641 1232.74 396.119C1229.6 399.215 1262.2 443.315 1267.63 443.315C1271.88 443.315 1276.44 447.306 1274.46 449.294C1272.88 450.873 1264.51 450.743 1262.15 449.102C1259.88 447.514 1223.9 397.353 1222.59 393.941C1221.82 391.945 1234.8 391.537 1298.29 391.564L1374.92 391.596L1350.78 414.732C1337.5 427.458 1327.47 437.888 1328.5 437.909C1329.52 437.931 1341.38 427.483 1354.84 414.693L1379.32 391.437H1395.48C1405.25 391.437 1413.04 392.315 1415.19 393.661C1419.17 396.144 1425 393.759 1425 389.648C1425 385.537 1419.17 383.153 1415.19 385.635C1413.24 386.859 1408.2 387.834 1404.01 387.802C1396.85 387.748 1395.13 386.596 1375.82 368.922C1345.93 341.573 1342.97 339.559 1332.63 339.559C1327.86 339.559 1323.95 340.183 1323.95 340.947C1323.95 341.711 1334.82 351.496 1348.11 362.695C1361.4 373.891 1373.17 384.135 1374.26 385.457C1375.92 387.458 1366.84 387.859 1319.7 387.859H1263.15L1263.23 379.362C1263.31 370.902 1263.37 370.809 1278.51 358.342C1286.87 351.455 1295.37 344.06 1297.41 341.909L1301.11 337.997L1296.88 339.07C1294.56 339.661 1282.23 349.069 1269.48 359.975L1246.31 379.809L1253.25 380.704C1260.3 381.614 1263.71 385.28 1259.14 387.034C1257.75 387.568 1249.03 387.768 1239.76 387.483L1222.91 386.965L1251.97 363.126L1281.03 339.289V309.527V279.765L1285.95 275.536C1290.19 271.886 1290.26 271.695 1286.44 274.128C1284.01 275.679 1280.79 276.945 1279.29 276.945C1277 276.944 1276.56 280.303 1276.56 297.965V318.986L1268.72 319.548C1261 320.101 1252.41 324.151 1252.41 327.242C1252.41 328.113 1258.05 328.825 1264.93 328.825C1277.01 328.825 1277.45 328.979 1277.45 333.185C1277.45 336.62 1272.42 341.621 1253.76 356.75C1240.72 367.315 1228.79 377.026 1227.24 378.33C1224.77 380.403 1221.3 376.786 1199.52 349.41C1183.38 329.137 1173.45 318.115 1171.3 318.106C1169.11 318.097 1168.32 318.988 1168.98 320.718C1169.54 322.162 1180.89 336.949 1194.21 353.578C1207.53 370.206 1218.43 384.321 1218.43 384.941C1218.43 388.569 1213.27 383.476 1194.16 361.026L1172.85 335.981H1145.98H1119.1L1102.6 319.4L1086.09 302.818V260.45C1086.09 231.759 1086.77 216.59 1088.19 213.459C1089.94 209.622 1089.79 208.327 1087.3 205.836C1084.49 203.028 1084.1 203.033 1081.21 205.931C1078.64 208.493 1078.49 209.634 1080.31 212.552C1081.9 215.094 1082.51 228.42 1082.51 260.409V304.743L1099.98 322.151L1117.45 339.559H1144.45H1171.44L1184.25 355.013C1196.84 370.197 1197.01 370.543 1194.17 374.882C1192.07 378.076 1191.82 379.838 1193.23 381.253C1199.73 387.754 1199.19 387.78 1056.92 387.838L918.665 387.893L912.622 379.825L906.579 371.759H875.465C851.366 371.759 844.52 372.263 845.099 373.995C845.652 375.648 853.473 376.299 875.067 376.491L904.288 376.752L910.385 384.093L916.483 391.437H970.663C1016.64 391.437 1025.18 391.843 1027.07 394.12C1028.58 395.936 1032.62 396.804 1039.59 396.804C1046.56 396.804 1050.6 395.936 1052.11 394.12C1054.39 391.371 1061.06 390.369 1061.04 392.779C1061.04 393.516 1058.58 396.737 1055.59 399.934L1050.14 405.748H1025.11C1000.7 405.748 999.968 405.635 995.93 401.276C993.53 398.686 989.803 396.804 987.072 396.804C981.197 396.804 981.211 397.344 987.277 404.949L992.196 411.115H1024.78H1057.36L1064.79 401.276C1068.87 395.864 1073 391.437 1073.98 391.437C1076.73 391.437 1074.25 396.201 1066 406.766L1058.41 416.482H1024.96H991.507L983.016 406.643L974.524 396.804H948.037C933.47 396.804 921.552 397.319 921.552 397.947C921.552 398.576 925.998 404.596 931.433 411.324L941.313 423.555L1010.85 424.043L1080.38 424.532L1088.75 416.947L1097.12 409.364L1089.84 401.741C1085.83 397.55 1082.54 393.516 1082.53 392.779C1082.48 389.238 1088.12 392.172 1094.1 398.793L1100.75 406.147L1108.24 398.793C1113.88 393.26 1117.16 391.437 1121.48 391.437C1124.64 391.437 1127.22 392.108 1127.22 392.929C1127.22 393.748 1121.12 400.993 1113.65 409.029L1100.09 423.637H1108.99H1117.89L1132.5 407.639L1147.1 391.643L1180.02 391.571C1198.12 391.532 1214.17 391.974 1215.69 392.553C1220.19 394.281 1218.81 396.804 1213.37 396.804C1206.03 396.804 1205.44 398.41 1210.56 404.496L1215.11 409.904L1197.39 427.95C1187.64 437.877 1172.16 453.846 1162.99 463.44L1146.31 480.882H1100.5H1054.68L1044.45 491.22L1034.22 501.558V529.324C1034.22 546.894 1033.51 557.801 1032.28 559.03C1031.22 560.097 1030.61 562.875 1030.94 565.202C1031.67 570.331 1039 572.17 1040.73 567.655ZM1022.7 568.383C1024.54 565.399 1020.39 561.978 1017.93 564.447C1015.86 566.512 1017.15 570.327 1019.92 570.327C1020.78 570.327 1022.03 569.452 1022.7 568.383ZM472.373 567.683C502.286 560.918 529.968 548.358 549.117 532.866C555.528 527.68 562.115 523.816 564.547 523.816C572.928 523.816 575.443 514.866 568.333 510.336C562.741 506.771 556.709 509.959 556.709 516.48C556.709 527.483 515.387 551.995 481.808 560.907C458.251 567.159 420.424 567.594 397.537 561.873C378.35 557.079 356.826 548.021 342.989 538.923L332.258 531.866L345.124 531.342C356.569 530.877 359.223 531.44 369.129 536.444C404.372 554.238 455.887 556.29 495.15 541.462C500.973 539.263 508.295 537.669 511.42 537.921C519.105 538.54 522.549 532.8 518.343 526.379C513.737 519.349 506.212 521.276 504.59 529.898C503.796 534.12 487.952 540.308 467.132 544.528C455.962 546.791 447.012 547.292 430.741 546.562C406.549 545.478 390.555 541.621 369.07 531.692C355.78 525.549 355.301 525.471 338.994 526.667C329.88 527.336 322.445 528.377 322.474 528.98C322.601 531.599 342.631 544.454 359.085 552.476C385.592 565.399 400.101 568.741 433.306 569.562C453.116 570.054 464.264 569.517 472.373 567.683ZM1104.87 556.554C1101.92 554.961 1098.49 552.377 1097.26 550.812C1095.26 548.274 1095.14 548.311 1096.14 551.163C1096.75 552.921 1099.53 555.537 1102.31 556.977C1109.23 560.554 1111.56 560.168 1104.87 556.554ZM1118.28 552.438C1119.33 550.47 1119.79 548.86 1119.3 548.86C1118.81 548.86 1117.55 550.47 1116.49 552.438C1115.44 554.406 1114.98 556.016 1115.47 556.016C1115.97 556.016 1117.23 554.406 1118.28 552.438ZM1112.32 547.826C1112.92 546.275 1112.09 543.687 1110.48 542.077C1107.77 539.367 1107.33 539.367 1104.62 542.077C1101.46 545.241 1102.43 550.667 1106.15 550.622C1107.87 550.601 1107.82 550.195 1105.95 549.014C1102.95 547.113 1104.76 541.059 1108 542.184C1109.23 542.612 1110.17 544.69 1110.09 546.805C1109.92 551.347 1110.81 551.757 1112.32 547.826ZM1096.61 544.529C1096.73 542.639 1098.2 539.419 1099.88 537.374C1102.84 533.789 1102.8 533.791 1098.82 537.456C1096.3 539.766 1095.02 542.574 1095.54 544.612C1096.37 547.825 1096.41 547.821 1096.61 544.529ZM1120.07 542.245C1120.07 539.85 1115.15 533.503 1114.11 534.553C1113.62 535.043 1114.76 537.343 1116.65 539.667C1118.53 541.989 1120.07 543.15 1120.07 542.245ZM1109.79 533.365C1108.56 532.868 1106.54 532.868 1105.31 533.365C1104.08 533.86 1105.09 534.267 1107.55 534.267C1110.01 534.267 1111.01 533.86 1109.79 533.365ZM1318.59 509.63C1318.59 507.592 1317.81 505.927 1316.87 505.927C1315.92 505.927 1313.39 504.116 1311.24 501.902C1309.09 499.687 1307.97 499.004 1308.76 500.379C1309.54 501.757 1310.27 504.977 1310.36 507.535C1310.59 513.564 1318.59 515.599 1318.59 509.63ZM310.797 512.204C311.781 511.853 317.23 511.043 322.905 510.403L333.226 509.238L322.352 497.369C302.821 476.048 287.894 447.523 282.951 422.074C281.087 412.485 281.134 410.437 283.248 409.192C284.628 408.378 293.404 402.641 302.749 396.444L319.739 385.176L321.149 373.739C323.066 358.163 328.453 342.723 336.814 328.825C344.211 316.532 351.704 307.273 354.081 307.487C354.866 307.559 359.652 312.403 364.719 318.251L373.929 328.886L366.437 340.06C355.639 356.167 351.908 369.011 352.035 389.648C352.116 402.752 353.065 409.101 356.182 417.376C369.794 453.508 401.069 475.562 438.6 475.494C460.351 475.455 471.818 470.768 508.421 446.954C520.716 438.956 538.164 428.716 547.192 424.201C574.643 410.473 584.925 412.467 621.325 438.583C643.157 454.247 655.841 458.802 671.779 456.702C696.9 453.39 715.254 437.657 722.335 413.367C726.37 399.521 728.528 398.593 756.653 398.593H780.536L791.526 390.133C799.773 383.786 804.539 381.442 810.616 380.741C818.181 379.87 818.752 379.433 819.267 374.113C820.279 363.668 806.934 362.008 804.339 372.258C803.772 374.498 797.625 380.33 790.253 385.623L777.174 395.015H753.992C732.075 395.015 730.599 394.789 726.922 390.875C724.783 388.598 723.034 385.505 723.034 384.004C723.034 378.534 711.967 359.312 705.595 353.716C696.773 345.968 683.071 339.938 671.089 338.53C656.635 336.831 641.946 341.281 614.885 355.562C585.882 370.868 582.525 371.578 566.947 365.714C551.901 360.049 545.332 356.228 506.632 330.614C469.999 306.371 461.358 302.892 437.777 302.892C417.977 302.892 404.819 306.849 388.727 317.645L377.188 325.383L373.269 321.29C355.512 302.74 347.632 292.46 347.122 287.172C346.634 282.124 345.852 281.351 340.741 280.858C335.061 280.31 333.514 281.648 332.496 287.988C332.285 289.294 328.238 295.596 323.5 301.992C309.08 321.457 300.707 340.689 296.684 363.573L294.508 375.959L277.251 386.829C267.762 392.807 259.084 398.612 257.97 399.73C256.459 401.244 256.484 405.349 258.065 415.83C262.65 446.219 276.371 478.197 294.417 500.551C303.212 511.444 306.455 513.751 310.797 512.204ZM354.256 503.78C356.98 501.056 357.043 494.011 354.357 492.351C353.232 491.655 349.985 491.152 347.144 491.233C342.876 491.354 340.258 489.302 332.074 479.422C315.894 459.893 301.685 431.142 306.05 426.775C307.186 425.639 308.114 423.02 308.114 420.954C308.114 412.328 297.005 409.641 293.465 417.41C291.688 421.315 292.009 422.567 295.889 426.802C298.349 429.489 302.134 436.086 304.298 441.46C310.892 457.836 320.292 473.152 330.547 484.233C335.914 490.032 340.306 496.32 340.306 498.206C340.306 502.698 343.672 505.927 348.354 505.927C350.42 505.927 353.076 504.961 354.256 503.78ZM461.542 499.358C463.936 494.709 462.302 491.616 457.45 491.616C455.155 491.616 452.939 492.621 452.528 493.852C451.217 497.771 420.023 496.435 407.536 491.925C394.053 487.056 385.477 481.17 384.148 475.873C382.761 470.342 375.435 471.05 374.618 476.794C374.181 479.87 375.181 481.023 379.089 481.954C381.857 482.612 385.331 484.158 386.806 485.387C397.344 494.163 422.849 501.038 442.137 500.297C448.591 500.05 455.219 500.472 456.865 501.238C458.925 502.193 460.383 501.608 461.542 499.358ZM1305.13 492.392C1303.47 489.376 1300.52 484.948 1298.57 482.553L1295.04 478.199L1298.06 483.684C1299.72 486.7 1302.68 491.127 1304.62 493.522L1308.16 497.877L1305.13 492.392ZM290.668 488.175C275.953 465.693 264.313 434.957 262.3 413.276L261.187 401.276L279.549 389.648L297.911 378.02L301.964 360.131C306.433 340.41 310.853 329.348 320.19 314.514C332.554 294.872 339.507 290.815 347.015 298.861L350.771 302.886L342.576 313.62C330.949 328.852 321.125 350.636 318.698 366.569C317.59 373.85 316.127 380.932 315.451 382.306C314.773 383.678 305.804 390.24 295.518 396.888C277.373 408.612 276.833 409.151 277.385 414.963C279.156 433.6 291.056 463.24 304.418 482.294C308.418 487.998 311.691 493.181 311.691 493.811C311.691 494.834 306.868 495.95 299.143 496.714C297.652 496.862 293.839 493.018 290.668 488.175ZM1292.61 472.714C1290.95 469.698 1288 465.27 1286.06 462.875L1282.52 458.521L1285.54 464.006C1287.21 467.022 1290.16 471.449 1292.1 473.845L1295.64 478.199L1292.61 472.714ZM416.378 469.195C401.106 465.217 390.047 458.549 378.132 446.138C361.863 429.19 354.593 411.546 354.636 389.113C354.745 331.911 412.919 291.078 466.002 310.943C471.686 313.07 490.999 324.521 508.921 336.389C567.303 375.049 579.265 378.625 604.453 364.945C632.147 349.906 644.287 344.614 655.395 342.745C708.237 333.847 742.081 396.025 706.087 435.877C695.92 447.133 682.184 452.963 665.804 452.97C649.985 452.979 639.827 449.086 624.67 437.21C608.076 424.208 594.91 416.603 584.125 413.795C565.849 409.033 552.261 414.387 504.844 445.027C491.564 453.608 478.688 461.707 476.228 463.023C460.116 471.655 435.543 474.188 416.378 469.195ZM461.027 456.261C465.945 454.481 482.443 445.022 497.69 435.242C512.936 425.462 532.65 413.82 541.5 409.369C557.041 401.551 558.139 401.276 573.785 401.276C588.72 401.276 590.932 401.759 602.176 407.467C608.883 410.873 621.549 419.095 630.323 425.739C650.926 441.344 661.898 444.449 678.668 439.422C687.852 436.671 701.233 424.757 705.368 415.657C709.723 406.067 709.701 389.233 705.323 379.809C698.227 364.534 681.546 353.87 664.747 353.87C653.793 353.87 642.706 357.977 621.093 370.04C598.374 382.721 585.964 386.389 573.549 384.093C559.828 381.557 538.874 370.551 504.593 347.877C462.447 319.999 460.106 318.986 437.777 318.986C421.497 318.986 418.85 319.482 408.267 324.509C376.607 339.546 360.908 373.306 369.669 407.514C374.942 428.097 388.017 443.759 408.153 453.614C421.175 459.986 447.145 461.286 461.027 456.261ZM58.1734 455.39C61.0975 450.938 55.2815 452.374 157.885 430.764C190.837 423.823 219.293 417.539 221.119 416.8C224.132 415.578 224.431 413.213 224.342 391.371C224.286 378.124 224.86 363.664 225.619 359.237C226.956 351.43 226.76 350.936 219.116 342.922L211.236 334.655L217.549 315.781C224.456 295.133 231.358 280.503 242.552 262.774L249.84 251.232L225.027 227.602C208.131 211.513 199.595 202.058 198.275 197.972C195.111 188.184 182.923 189.225 182.923 199.285C182.923 204.021 188.809 208.049 193.239 206.348C195.272 205.568 201.301 210.404 213.666 222.725C223.317 232.341 231.211 240.883 231.211 241.708C231.211 242.532 228.766 246.763 225.778 251.106C214.28 267.822 198.869 302.28 193.686 322.858C192.294 328.382 189.222 332.672 181.786 339.469L171.761 348.634L169.996 363.773C169.027 372.101 168.716 380.172 169.306 381.711C171.591 387.668 173.562 381.913 174.346 367.001L175.161 351.441L184.928 342.348C193.997 333.904 195.111 331.936 200.559 314.75C206.509 295.97 224.27 258.743 231.667 249.543L235.722 244.5L239.617 248.648L243.512 252.797L237.269 262.636C224.631 282.554 207.961 323.271 207.961 334.221C207.961 336.101 211.184 340.689 215.12 344.414L222.281 351.187L220.302 368.181C219.214 377.528 218.823 391.356 219.432 398.909C220.414 411.063 220.178 412.75 217.381 413.567C206.287 416.813 152.044 427.335 151.128 426.421C148.649 423.94 147.637 404.852 149.844 402.17C155.293 395.551 153.524 387.859 146.555 387.859C138.993 387.859 135.78 394.661 140.703 400.24C143.089 402.943 146.764 429.004 144.761 429.004C144.228 429.004 129.862 432.12 112.834 435.929C65.8261 446.442 58.7474 447.564 54.3246 445.195C51.8315 443.861 49.4869 443.748 47.491 444.866C45.2965 446.093 42.0666 445.36 35.8893 442.227C22.1701 435.274 22.5905 434.954 53.2606 428.977C64.0807 426.868 78.3774 423.932 85.0305 422.451L97.1293 419.761L96.0099 403.364C94.9117 387.242 97.7285 342.947 100.293 336.01C101.014 334.061 109.194 327.02 118.474 320.362L135.345 308.253L140.539 293.942C150.742 265.829 150.788 269.282 139.873 244.938C134.533 233.03 129.663 223.285 129.051 223.284C127.131 223.278 111.671 259.52 105.313 278.931C101.965 289.155 97.8072 304.664 96.0742 313.398L92.9212 329.278L82.0331 336.299C74.4591 341.183 70.8016 344.789 70.0147 348.147C69.3941 350.804 68.7896 368.367 68.6733 387.179L68.4623 421.383L47.8004 425.444C30.4757 428.85 26.4498 429.138 22.8819 427.229C17.9029 424.564 13.9808 425.655 11.4341 430.415C8.68163 435.56 13.5856 441.526 20.5659 441.526C27.8145 441.526 41.3728 449.544 43.4742 455.074C45.6955 460.918 54.4231 461.106 58.1734 455.39ZM413.284 440.054C402.58 434.804 391.755 423.984 386.472 413.253C383.072 406.349 382.338 401.988 382.351 388.754C382.365 374.797 383.002 371.448 387.132 363.596C392.524 353.339 402.686 343.435 413.999 337.412C425.22 331.439 450.376 331.498 461.921 337.525C472.898 343.256 482.758 352.997 488.42 363.709C492.511 371.442 493.154 374.832 493.185 388.754C493.213 402.043 492.491 406.331 489.053 413.313C483.379 424.838 470.427 437.154 459.415 441.496C446.706 446.508 425.063 445.832 413.284 440.054ZM1314.66 437.415C1319.25 432.682 1320.38 430.033 1320.38 423.999V416.482H1295.1H1269.83L1270.82 422.569C1271.36 425.916 1273.99 431.954 1276.66 435.986L1281.51 443.315H1295.22C1308.39 443.315 1309.17 443.079 1314.66 437.415ZM645.621 426.143C623.967 411.09 626.07 379.373 649.542 366.977C663.588 359.56 679.67 362.553 691.175 374.725C697.293 381.197 699.784 387.848 699.784 397.698C699.784 407.53 697.302 414.17 691.175 420.732C679.076 433.689 659.775 435.981 645.621 426.143ZM1309.98 424.084C1310.71 420.313 1313.89 420.551 1314.69 424.437C1315.03 426.058 1314.05 427.215 1312.33 427.215C1310.49 427.215 1309.61 426.043 1309.98 424.084ZM1343.18 410.82C1350.31 403.868 1356.14 397.87 1356.14 397.492C1356.14 397.113 1336.83 396.804 1313.22 396.804C1271.68 396.804 1270.3 396.916 1270.3 400.337C1270.3 403.684 1271.78 403.895 1298.47 404.362L1326.64 404.854L1327.2 412.904C1327.5 417.331 1328.31 421.517 1328.98 422.206C1329.66 422.895 1336.05 417.771 1343.18 410.82ZM72.8368 406.219C72.1232 398.605 72.0732 382.305 72.7242 369.993C73.799 349.696 74.282 347.324 77.8929 344.559C83.3405 340.387 89.7824 337.01 90.5639 337.917C90.918 338.328 90.5854 343.494 89.8235 349.398C89.0598 355.301 88.3695 373.154 88.2854 389.07C88.1227 420.401 88.4948 419.29 78.0037 419.852C74.4537 420.042 74.0243 418.911 72.8368 406.219ZM116.303 416L123.904 414.185L123.929 394.314C123.942 383.385 124.387 372.823 124.92 370.847C125.451 368.868 130.505 364.258 136.152 360.602L146.417 353.954L149.611 336.469C155.263 305.521 170.645 264.48 186.464 238.139L192.044 228.847L187.428 225.822C184.888 224.157 182.524 223.107 182.174 223.486C181.823 223.865 178.008 230.615 173.698 238.486C163.107 257.829 154.032 278.115 147.185 297.752L141.49 314.085L124.702 325.48C110.29 335.262 107.726 337.761 106.576 343.137C104.517 352.763 104.809 416.993 106.914 417.439C107.898 417.648 112.124 417 116.303 416ZM440.885 413.428C438.66 413 435.441 413.017 433.731 413.464C432.022 413.911 433.842 414.262 437.777 414.242C441.711 414.222 443.11 413.855 440.885 413.428ZM455.84 406.822C459.184 403.476 461.917 399.653 461.914 398.324C461.91 396.995 460.342 398.478 458.426 401.619C456.513 404.759 452.692 408.551 449.938 410.045C447.184 411.539 446.016 412.793 447.345 412.832C448.674 412.872 452.496 410.167 455.84 406.822ZM424.914 409.408C421.776 407.494 417.984 403.673 416.491 400.918C414.997 398.163 413.744 396.995 413.704 398.324C413.613 401.428 425.038 412.906 428.209 412.897C429.537 412.893 428.055 411.324 424.914 409.408ZM209.392 408.968C212.438 405.922 212.05 401.149 208.464 397.562C204.547 393.643 204.935 373.521 209.05 367.24C214.192 359.391 204.215 351.178 197.588 357.806C194.575 360.82 194.913 368.09 198.125 369.323C200.174 370.11 200.807 373.473 200.807 383.578C200.807 391.031 200.042 396.804 199.053 396.804C196.186 396.804 194.834 405.542 197.25 408.455C199.908 411.659 206.427 411.934 209.392 408.968ZM964.475 405.748C964.475 402.045 968.79 400.811 970.734 403.959C972.231 406.381 970.212 409.326 967.052 409.326C965.634 409.326 964.475 407.716 964.475 405.748ZM443.142 408.063C448.568 406.723 454.434 400.55 456.645 393.847C459.426 385.421 454.529 375.637 445.267 371.111C439.147 368.12 437.777 368.036 431.882 370.28C422.908 373.696 416.603 383.199 417.904 391.347C419.663 402.362 432.306 410.736 443.142 408.063ZM916.847 404.339C917.326 403.564 914.019 397.929 909.501 391.816C901.403 380.865 897.206 378.616 891.556 382.203C889.877 383.269 891.502 386.55 897.739 394.698C904.463 403.48 907.203 405.748 911.088 405.748C913.776 405.748 916.367 405.113 916.847 404.339ZM426.241 399.426C416.532 389.866 423.92 372.832 437.777 372.832C450.909 372.832 458.768 389.195 450.207 398.714C442.951 406.782 433.984 407.049 426.241 399.426ZM1263.15 399.317C1263.15 395.355 1262.45 395.015 1254.31 395.015C1239.94 395.015 1240.88 400.789 1255.54 402.653C1262.65 403.555 1263.15 403.337 1263.15 399.317ZM142.953 395.966C141.69 392.678 145.044 390.399 147.512 392.868C149.42 394.777 148.048 398.593 145.451 398.593C144.63 398.593 143.506 397.41 142.953 395.966ZM1098.61 395.015C1098.61 394.031 1099.41 393.226 1100.4 393.226C1101.38 393.226 1102.19 394.031 1102.19 395.015C1102.19 395.999 1101.38 396.804 1100.4 396.804C1099.41 396.804 1098.61 395.999 1098.61 395.015ZM462.947 387.256C462.606 382.498 461.311 377.668 460.072 376.523C458.339 374.922 458.122 374.977 459.136 376.768C459.862 378.047 461.155 382.877 462.012 387.501L463.57 395.909L462.947 387.256ZM413.35 391.437C413.35 388.977 412.944 387.97 412.449 389.201C411.952 390.43 411.952 392.442 412.449 393.673C412.944 394.902 413.35 393.897 413.35 391.437ZM789.207 368.183C804.559 355.34 806.936 353.965 813.853 353.92C818.958 353.886 821.846 354.743 822.515 356.485C825.144 363.34 837.495 359.777 837.495 352.162C837.495 345.426 827.608 342.281 823.187 347.609C821.821 349.255 817.899 350.292 813.038 350.292C805.784 350.292 803.64 351.5 787.633 364.603L770.151 378.915H755.008H739.867L736.773 368.868C730.263 347.722 712.815 328.745 694.008 322.358C681.517 318.117 660.775 318.153 647.919 322.435C642.509 324.239 629.164 330.435 618.262 336.205C587.828 352.31 572.914 353.485 560.573 340.75C543.014 322.63 549.746 289.872 572.191 284.219C578.733 282.571 584.903 282.58 599.606 284.258C622.237 286.843 629.867 285.711 638.011 278.559C649.25 268.688 650.486 254.956 640.959 245.826C630.668 235.965 615.497 238.552 609.502 251.189C606.61 257.285 606.588 258.244 609.208 263.743C612.379 270.393 619.505 273.337 623.799 269.772C627.721 266.516 627.046 262.022 621.912 257.199C612.964 248.79 621.424 239.697 633.53 244.713C645.902 249.838 647.302 265.249 636.277 274.933C628.136 282.085 621.103 283.155 598.181 280.734C569.453 277.702 559.862 281.119 551.504 297.367C540.491 318.772 550.862 345.716 572.622 352.239C583.038 355.358 595.307 351.861 623.775 337.657C650.895 324.124 663.778 320.611 679.01 322.587C704.488 325.893 724.177 343.035 733.144 369.712L737.14 381.598L754.677 381.997L772.217 382.396L789.207 368.183ZM416.882 376.235C418.006 373.768 421.557 370.145 424.775 368.183C427.99 366.222 429.725 364.614 428.629 364.611C424.034 364.594 411.724 377.602 414.092 379.97C414.504 380.381 415.759 378.702 416.882 376.235ZM1351.58 377.432C1350.65 376.616 1340.53 367.804 1329.1 357.847L1308.31 339.745L1304.55 343.743L1300.79 347.741L1319.48 363.328C1336.48 377.512 1338.84 378.915 1345.72 378.915C1349.9 378.915 1352.52 378.251 1351.58 377.432ZM1329.32 378.142C1329.32 377.716 1322.07 371.213 1313.2 363.691L1297.08 350.013L1283.69 361.28C1263.52 378.244 1264.14 378.915 1299.81 378.915C1316.04 378.915 1329.32 378.568 1329.32 378.142ZM1409.8 375.619C1409.8 374.791 1402.76 367.399 1394.15 359.192C1385.54 350.986 1367.61 333.566 1354.31 320.48L1330.12 296.689L1318.99 305.808C1312.87 310.822 1307.86 315.605 1307.86 316.437C1307.86 317.269 1311.28 314.79 1315.46 310.927C1330.5 297.031 1327.9 296.112 1357.57 325.791L1383.85 352.081L1374.02 352.167L1364.19 352.253L1377.61 364.687C1390.66 376.789 1391.27 377.12 1400.41 377.124C1405.57 377.124 1409.8 376.448 1409.8 375.619ZM1247.52 358.272C1259.06 348.856 1268.51 340.391 1268.51 339.46C1268.51 338.53 1263.18 337.77 1256.67 337.77C1244.96 337.77 1244.67 337.89 1229.84 348.872C1221.6 354.977 1214.89 360.41 1214.93 360.947C1214.96 361.482 1217.59 364.952 1220.76 368.657L1226.53 375.392L1247.52 358.272ZM1192.36 372.376C1193.06 370.564 1191.95 367.772 1189.52 365.183C1185.99 361.423 1185.25 361.249 1182.87 363.636C1180.48 366.02 1180.66 366.82 1184.42 370.827C1189.38 376.115 1190.82 376.394 1192.36 372.376ZM1176.65 372.666C1177.27 371.051 1176.92 368.872 1175.87 367.823C1173.14 365.097 1167.98 367.589 1168.69 371.285C1169.49 375.403 1175.22 376.398 1176.65 372.666ZM933.391 372.739C934.767 369.156 932.726 366.392 928.706 366.392C924.59 366.392 922.967 368.704 924.421 372.492C925.785 376.052 932.054 376.224 933.391 372.739ZM458.344 372.872C458.344 372.501 456.935 371.092 455.214 369.741C452.378 367.518 452.315 367.58 454.538 370.417C456.876 373.398 458.344 374.344 458.344 372.872ZM1025.28 369.5C1025.28 368.256 1022.46 363.051 1019.02 357.931C1014.77 351.62 1011.89 348.952 1010.07 349.648C1006.54 351.006 1006.44 350.688 1013.91 361.947C1020.01 371.14 1025.28 374.639 1025.28 369.5ZM1013.29 370.637C1013.91 370.02 1012.02 366.04 1009.1 361.795L1003.79 354.074L993.074 361.469C987.181 365.535 982.359 369.516 982.359 370.312C982.359 371.997 1011.62 372.305 1013.29 370.637ZM283.523 369.827C287.004 367.798 287.581 362.526 284.879 357.473C280.581 349.444 297.924 310.416 315.474 288.622C324.902 276.911 338.316 264.425 341.467 264.425C342.222 264.425 345.87 267.385 349.574 271.004C355.832 277.117 356.536 277.38 359.487 274.72C361.233 273.144 368.646 268.99 375.959 265.489C386.523 260.43 390.603 259.337 395.816 260.171C403.373 261.38 406.078 258.026 401.99 252.523C399.915 249.733 399.032 249.577 396.301 251.52C394.521 252.786 390.651 254.79 387.7 255.974C384.749 257.158 376.465 261.151 369.292 264.849L356.247 271.573L350.96 267.663C348.05 265.512 345.674 262.897 345.675 261.852C345.682 257.65 376.814 241.355 392.536 237.325C397.404 236.076 402.019 233.815 402.789 232.298C403.56 230.783 405.613 222.078 407.352 212.958C409.092 203.836 411.206 195.947 412.052 195.423C412.898 194.901 423.861 194.482 436.414 194.495C470.929 194.529 493.077 199.559 524.719 214.552C537.014 220.378 540.621 222.988 542.603 227.486C545.651 234.407 551.687 235.786 555.444 230.421C560.327 223.448 555.199 216.926 545.978 218.384C541.653 219.067 514.04 204.79 513.931 201.813C513.704 195.631 521.423 175.568 525.488 171.778C530.583 167.026 531.007 163.838 527.072 159.901C520.382 153.21 512.663 158.593 514.546 168.634C515.265 172.463 514.571 178.824 512.74 185.201C507.78 202.479 508.424 201.996 495.653 198.021C471.9 190.625 437.185 187.484 415.462 190.765L407.455 191.974L403.598 209.373C398.824 230.904 398.32 232.225 394.852 232.225C388.19 232.225 361.956 244.187 347.725 253.713C316.579 274.563 293.816 304.707 282.895 339.559C280.585 346.938 276.863 354.748 274.626 356.915C269.632 361.75 269.552 363.598 274.134 368.181C278.176 372.224 279.124 372.391 283.523 369.827ZM449.879 366.17C448.665 364.947 447.222 364.398 446.673 364.949C446.122 365.5 447.114 366.5 448.878 367.172C451.426 368.142 451.632 367.938 449.879 366.17ZM998.865 364.267C999.97 360.95 1003.82 360.401 1003.82 363.56C1003.82 365.119 1002.55 366.392 1000.99 366.392C999.432 366.392 998.475 365.437 998.865 364.267ZM1139.74 359.004C1133.55 353.605 1133.32 353.559 1116.91 354.357L1100.33 355.163L1080.45 336.181C1069.52 325.739 1059.66 316.972 1058.54 316.698C1057.42 316.425 1054.92 317.371 1052.97 318.8C1049.58 321.289 1050.14 322.133 1065.97 338.289C1078.38 350.956 1082.51 356.355 1082.51 359.89V364.603L1114.26 364.53L1146 364.459L1139.74 359.004ZM1078.94 361.881C1078.94 360.382 1075.52 355.362 1071.33 350.725C1046.22 322.861 1046.01 322.713 1040.76 328.519C1038.46 331.063 1037.8 335.441 1037.8 348.197V364.603H1058.37C1075.59 364.603 1078.94 364.162 1078.94 361.881ZM442.695 363.419C441.465 362.922 439.453 362.922 438.224 363.419C436.993 363.915 438 364.321 440.459 364.321C442.919 364.321 443.924 363.915 442.695 363.419ZM1212.17 342.283L1219.33 336.115L1207.17 336.049L1195 335.981L1199.78 342.242C1202.4 345.686 1204.66 348.491 1204.79 348.476C1204.92 348.462 1208.24 345.675 1212.17 342.283ZM1203.23 341.348C1202.62 340.364 1203.43 339.559 1205.02 339.559C1206.61 339.559 1207.42 340.364 1206.81 341.348C1206.2 342.332 1205.4 343.137 1205.02 343.137C1204.65 343.137 1203.84 342.332 1203.23 341.348ZM598.81 334.544C601.801 332.662 608.99 325.72 614.785 319.117C620.581 312.514 627.549 305.961 630.273 304.552C637.427 300.852 649.812 301.385 674.746 306.464C686.82 308.924 698.4 310.931 700.478 310.926C708.149 310.906 717.944 307.008 724.258 301.462C751.746 277.321 731.889 232.137 695.678 236.427C682.673 237.967 674.821 244.144 660.735 263.926C648.125 281.634 639.498 290.976 632.389 294.621C626.809 297.484 612.077 297.096 598.705 293.736C592.381 292.147 585.304 291.325 582.979 291.908C576.473 293.541 569.061 300.164 566.277 306.829C558.531 325.375 581.834 345.226 598.81 334.544ZM236.219 333.834C238.889 331.163 239.007 324.816 236.435 322.244C235.053 320.861 236.081 316.562 240.048 307.128C248.943 285.965 254.904 276.117 259.193 275.505C261.304 275.205 264.449 273.391 266.182 271.473C268.776 268.607 268.974 267.196 267.302 263.523C263.63 255.464 252.672 258.588 252.672 267.693C252.672 270.081 249.564 277.768 245.764 284.777C241.965 291.786 236.964 302.35 234.654 308.253C232.343 314.156 228.437 320.7 225.975 322.793C221.99 326.181 221.732 327.117 223.633 331.29C225.941 336.357 232.393 337.661 236.219 333.834ZM577.038 329.233C562.705 317.62 570.031 296.625 588.414 296.625C598.596 296.625 608.044 308.287 605.873 318.174C603.28 329.986 586.1 336.575 577.038 329.233ZM593.073 320.477C595.017 318.534 594.434 311.82 592.12 309.505C586.729 304.113 578.753 309.466 580.686 317.174C581.557 320.643 582.965 321.67 586.847 321.67C589.616 321.67 592.419 321.133 593.073 320.477ZM1303.39 312.346C1304.37 311.384 1310.41 305.791 1316.8 299.92L1328.42 289.248L1315.9 299.432C1300.25 312.165 1299.88 312.511 1300.82 313.382C1301.25 313.775 1302.4 313.308 1303.39 312.346ZM684.225 298.174C675.842 293.02 670.978 284.081 670.897 273.681C670.79 259.734 676.619 251.096 689.882 245.554C700.89 240.953 711.379 243.352 720.604 252.579C732.599 264.577 733.354 280.568 722.48 292.371C712.003 303.743 696.989 306.02 684.225 298.174ZM185.039 293.884C192.879 289.802 194.106 288.121 204.232 267.582L215.051 245.641L210.512 241.616C208.015 239.402 204.955 237.591 203.71 237.591C199.665 237.591 177.157 280.26 174.694 292.6C173.319 299.489 174.093 299.586 185.039 293.884ZM57.374 292.689C59.8939 290.169 60.1353 284.267 57.8658 280.681C56.8106 279.012 58.397 272.029 62.5372 260.131C72.2539 232.208 72.2396 232.228 83.2636 232.205C103.174 232.164 104.805 231.346 111.276 218.175C114.488 211.636 122.246 198.438 128.518 188.844C137.529 175.06 140.791 171.402 144.072 171.402C149.236 171.402 152.519 168.273 152.519 163.352C152.519 158.463 149.243 155.302 144.176 155.302C139.825 155.302 136.507 159.776 136.758 165.303C136.844 167.182 131.75 176.366 125.44 185.713C119.131 195.06 111.174 208.139 107.758 214.776L101.549 226.845L88.5824 226.851C81.4518 226.854 75.6161 226.343 75.6161 225.713C75.6161 225.081 80.0335 216.182 85.4311 205.935C101.286 175.836 134.209 129.597 140.074 129.193C146.131 128.776 147.12 128.295 148.942 124.89C152.069 119.05 148.188 113.824 141.224 114.5C136.293 114.978 135.456 115.803 134.984 120.658C134.678 123.819 131.856 129.282 128.518 133.184C101.62 164.616 73.4111 215.085 58.4096 258.618C53.7685 272.088 50.4366 279.085 48.3423 279.759C41.9808 281.806 45.4575 294.836 52.3663 294.836C53.9401 294.836 56.1936 293.87 57.374 292.689ZM714.228 286.339L718.563 281.419L713.198 285.892C710.247 288.351 707.496 290.566 707.087 290.811C706.677 291.056 707.14 291.258 708.117 291.258C709.093 291.258 711.842 289.044 714.228 286.339ZM691.3 288.516C689.147 287.006 686.151 284.01 684.642 281.856C683.134 279.702 681.9 278.806 681.9 279.865C681.9 282.638 690.256 291.258 692.944 291.258C694.192 291.258 693.453 290.024 691.3 288.516ZM1270.8 272.616C1267.31 267.942 1266.04 267.722 1267.71 272.081C1268.3 273.622 1269.96 275.332 1271.39 275.881C1273.35 276.632 1273.21 275.827 1270.8 272.616ZM681.617 273.369C681.617 270.91 681.211 269.902 680.716 271.133C680.219 272.362 680.219 274.375 680.716 275.605C681.211 276.834 681.617 275.829 681.617 273.369ZM1291.58 265.766C1291.77 260.704 1286.36 253.648 1282.37 253.745C1281.14 253.775 1281.75 254.699 1283.71 255.799C1288.69 258.577 1288.45 258.233 1290 264.781C1291.32 270.384 1291.4 270.434 1291.58 265.766ZM1281.85 266.337C1282.41 265.421 1282.06 264.167 1281.06 263.548C1278.92 262.23 1275.66 263.904 1275.66 266.319C1275.66 268.496 1280.51 268.511 1281.85 266.337ZM683.688 266.427C683.688 265.232 685.902 262.167 688.607 259.616C691.311 257.065 692.366 255.343 690.951 255.79C687.494 256.879 680.932 265.842 682.467 267.377C683.139 268.049 683.688 267.622 683.688 266.427ZM616.525 266.058C614.683 263.074 618.827 259.654 621.295 262.123C623.359 264.187 622.067 268.003 619.304 268.003C618.437 268.003 617.187 267.128 616.525 266.058ZM1246.33 263.727C1247.95 259.487 1244.25 255.779 1241.31 258.713C1239.63 260.4 1239.81 261.527 1242.14 263.861C1244.93 266.652 1245.21 266.643 1246.33 263.727ZM716.569 262.139C715.959 260.389 713.743 258.078 711.645 257.001C708.381 255.325 708.208 255.396 710.433 257.498C711.864 258.847 714.079 261.16 715.356 262.636C717.377 264.972 717.535 264.908 716.569 262.139ZM532.438 261.614C538.191 255.858 534.657 248.325 526.199 248.325C523.583 248.325 515.238 245.457 507.655 241.953C500.07 238.448 487.011 233.818 478.632 231.666L463.398 227.752L464.371 221.717C464.908 218.396 465.83 215.196 466.422 214.604C468.717 212.309 499.442 221.971 516.469 230.343C526.305 235.178 539.899 243.595 546.679 249.046C553.459 254.495 559.844 258.437 560.867 257.804C565.079 255.201 533.53 232.511 512.334 222.897C499.682 217.16 470.078 208.969 461.991 208.969C457.512 208.969 457.013 209.733 455.268 219.255C453.106 231.039 453.453 232.225 459.058 232.225C474.354 232.225 519.151 249.675 519.151 255.634C519.151 259.387 523.764 264.425 527.199 264.425C528.533 264.425 530.891 263.16 532.438 261.614ZM1269.85 259.11C1271.01 257.26 1273.79 255.394 1276.04 254.963C1279.8 254.244 1279.83 254.158 1276.39 253.935C1272.85 253.706 1265.23 259.951 1266.95 261.672C1267.39 262.112 1268.7 260.96 1269.85 259.11ZM157.849 251.987C159.053 249.081 163.577 240.491 167.904 232.899C172.23 225.305 175.769 218.525 175.769 217.831C175.769 215.564 147.209 194.413 145.541 195.443C143.205 196.887 134.635 211.874 134.635 214.514C134.635 217.89 152.752 257.269 154.306 257.269C155.052 257.269 156.647 254.892 157.849 251.987ZM705.484 254.258C704.195 253.741 702.651 253.806 702.058 254.4C701.464 254.994 702.519 255.416 704.404 255.339C706.488 255.253 706.911 254.829 705.484 254.258ZM698.33 254.258C697.041 253.741 695.498 253.806 694.904 254.4C694.31 254.994 695.365 255.416 697.25 255.339C699.334 255.253 699.758 254.829 698.33 254.258ZM1329.01 249.949C1331.67 245.675 1330.36 242.958 1325.64 242.958C1321.62 242.958 1320.87 248.597 1324.47 251.593C1326.19 253.017 1327.35 252.597 1329.01 249.949ZM322.554 231.72C333.317 223.618 341.077 219.026 358.549 210.42C366.713 206.398 372.391 202.751 371.168 202.314C367.797 201.114 344.847 212.028 327.948 222.869L312.909 232.516L274.658 194.357L236.407 156.196L243.197 150.223C274.261 122.903 330.854 96.6776 378.812 87.3788C397.294 83.7939 433.306 80.4146 433.306 82.2626C433.306 82.7277 428.86 102.774 423.424 126.808C417.989 150.842 413.361 171.482 413.141 172.672C412.844 174.268 420.488 175.049 442.248 175.649C460.821 176.16 475.996 177.527 483.194 179.337C489.484 180.921 494.846 181.996 495.111 181.727C495.377 181.459 497.218 174.896 499.201 167.141C501.186 159.388 503.526 152.327 504.402 151.45C505.276 150.575 511.971 147.602 519.278 144.842L532.565 139.824L552.345 80.0318C568.119 32.3468 573.098 19.32 576.936 15.6992C584.977 8.11251 581.736 -2.06456 572.053 0.36656C566.865 1.66888 564.696 7.06242 567.359 12.0392C568.902 14.9229 565.422 27.1125 549.127 75.8959L528.988 136.187L515.574 141.405C508.197 144.275 501.505 147.259 500.703 148.037C499.902 148.815 497.751 155.268 495.923 162.377C494.093 169.486 492.28 175.622 491.89 176.01C491.5 176.4 484.799 175.459 476.997 173.919C469.198 172.379 452.957 170.981 440.908 170.813C426.524 170.613 419 169.84 419 168.565C418.998 167.495 423.047 148.577 427.996 126.525C432.944 104.472 439.059 76.3664 441.584 64.0676C444.668 49.0516 447.345 40.4362 449.738 37.8405C454.431 32.7511 453.343 27.5454 447.445 26.8567C441.084 26.1161 437.199 30.887 440.222 35.7296C442.051 38.6598 441.749 42.599 438.528 57.6938L434.604 76.0873L412.941 78.1302C363.78 82.7635 323.531 95.2787 280.585 119.288C263.153 129.033 231.211 152.887 231.211 156.16C231.211 158.307 309.855 235.969 313.265 237.189C314.02 237.459 318.201 234.997 322.554 231.72ZM435.083 230.437C448.266 229.556 448.506 229.452 449.627 224.174C450.255 221.223 450.863 216.192 450.979 212.994L451.19 207.18H437.777C430.399 207.18 424.335 207.783 424.299 208.522C424.265 209.26 423.131 214.489 421.779 220.144C420.429 225.799 419.853 230.629 420.502 230.879C421.15 231.128 427.711 230.929 435.083 230.437ZM979.017 224.142C983.457 221.743 986.945 216.536 985.247 214.84C984.822 214.414 983.983 215.615 983.382 217.507C980.866 225.436 967.309 226.065 962.885 218.459C961.851 216.683 960.982 216.112 960.951 217.189C960.882 219.756 966.215 224.377 970.734 225.665C972.702 226.225 976.429 225.539 979.017 224.142ZM1106.75 223.124C1108.59 220.14 1104.45 216.72 1101.98 219.189C1099.92 221.253 1101.21 225.069 1103.97 225.069C1104.84 225.069 1106.09 224.194 1106.75 223.124ZM1067.18 222.087C1068.7 218.117 1065.34 214.699 1062.6 217.436C1060.41 219.625 1061.68 225.069 1064.38 225.069C1065.29 225.069 1066.55 223.727 1067.18 222.087ZM689.624 190.951C712.949 173.312 733.602 158.88 735.519 158.88C739.302 158.88 742.711 153.974 741.423 150.382C740.098 146.688 731.765 147.674 730.726 151.647C729.959 154.584 698.216 180.346 695.367 180.346C694.855 180.346 683.366 169.262 669.837 155.713C656.026 141.885 638.19 126.134 629.173 119.803C611.914 107.686 583.904 91.7259 582.45 93.1802C581.961 93.6686 587.035 97.1104 593.726 100.83C611.569 110.747 630.861 123.937 646.566 136.955C661.2 149.085 690.867 180.001 690.781 183.03C690.753 184.014 688.805 186.218 686.453 187.928C682.193 191.026 682.138 190.994 671.153 178.983C649.041 154.81 623.037 133.865 593.268 116.257C586.325 112.15 579.282 108.79 577.619 108.79C572.327 108.79 574.357 113.382 581.062 116.581C589.02 120.375 614.087 136.234 623.775 143.601C645.478 160.105 675.696 191.393 674.056 195.663C673.271 197.711 667.757 193.139 653.063 178.252L633.133 158.064L626.218 165.858C618.507 174.55 617.743 177.597 622.625 180.209C624.451 181.187 631.78 188.461 638.911 196.373C648.091 206.557 651.541 211.641 650.722 213.774C649.81 216.149 646.088 213.189 633.093 199.751C624.035 190.382 611.39 178.414 604.997 173.153C593.44 163.647 562.494 142.779 559.953 142.779C559.221 142.779 557.812 144.295 556.821 146.144C555.242 149.1 556.819 150.547 569.725 157.981C592.174 170.913 609.475 184.484 629.236 204.663L647.215 223.022L689.624 190.951ZM149.837 217.913C149.837 214.634 150.913 213.289 153.868 212.869C158.264 212.244 160.759 216.08 158.977 220.722C158.332 222.407 156.288 223.302 153.868 222.958C150.913 222.538 149.837 221.192 149.837 217.913ZM977.725 215.006C978.389 213.28 977.84 210.836 976.482 209.48C973.063 206.058 967.735 208.527 968.404 213.221C969.091 218.031 976.055 219.366 977.725 215.006ZM969.84 213.547C969.84 210.049 973.306 208.142 975.563 210.4C976.572 211.409 976.856 213.11 976.196 214.18C974.443 217.017 969.84 216.559 969.84 213.547ZM985.936 211.253C985.936 210.216 984.278 207.464 982.254 205.142L978.569 200.919L981.712 206.285C985.847 213.348 985.936 213.454 985.936 211.253ZM964.915 206.348C966.633 203.985 970.255 201.717 972.963 201.307C977.847 200.566 977.849 200.557 973.308 200.293C968.83 200.03 960.898 205.62 960.898 209.039C960.898 211.507 961.418 211.16 964.915 206.348ZM258.633 209.565C261.239 206.96 259.746 198.318 256.378 196.516C249.464 192.815 241.838 200.302 245.519 207.18C247.386 210.668 255.97 212.23 258.633 209.565ZM311.702 193.514C317.107 190.064 326.961 184.47 333.6 181.087L345.672 174.935L345.691 162.881C345.702 156.253 346.23 147.685 346.865 143.842L348.018 136.854L342.138 138.03C333.188 139.821 304.663 154.352 290.325 164.423L277.541 173.404L286.367 183.582C301.696 201.26 300.383 200.745 311.702 193.514ZM360.874 169.339C363.824 168.375 372.674 165.828 380.538 163.679L394.838 159.774L399.965 130.608C402.786 114.567 404.596 100.944 403.988 100.334C402.128 98.4736 363.753 106.794 344.52 113.228C323.781 120.166 299.106 132.121 279.215 144.871C260.924 156.592 260.531 157.171 266.814 163.193L271.947 168.11L282.783 160.132C295.697 150.622 323.931 135.987 340.816 130.051C355.043 125.05 356.587 126.005 355.435 139.103C353.437 161.856 353.08 171.388 354.235 171.248C354.934 171.164 357.923 170.305 360.874 169.339ZM615.656 158.701L621.549 151.366L617.296 147.177C611.496 141.459 576.156 119.547 572.713 119.534C571.177 119.529 568.13 123.252 565.881 127.88C562.006 135.858 561.97 136.318 565.079 138.05C566.869 139.048 577.05 145.753 587.706 152.949C598.36 160.146 607.681 166.035 608.42 166.035C609.158 166.035 612.415 162.735 615.656 158.701ZM477.675 155.858C479.82 151.747 492.324 108.019 492.324 104.631C492.324 102.801 488.799 101.749 479.632 100.846C472.652 100.159 466.648 99.8886 466.288 100.246C465.931 100.606 464.303 106.967 462.674 114.386L459.712 127.872L464.5 135.457C468.127 141.205 469.152 144.855 468.733 150.515C468.25 157.035 468.676 158.055 472.083 158.541C474.451 158.878 476.651 157.822 477.675 155.858ZM462.86 151.225C463.802 146.193 463.062 143.207 459.267 136.728L454.484 128.567L457.308 114.91C458.863 107.398 460.132 100.935 460.132 100.549C460.132 100.162 457.734 99.8457 454.801 99.8457C450.741 99.8457 449.248 100.805 448.54 103.871C440.408 139.033 437.167 154.393 437.755 154.982C438.149 155.375 443.691 156.117 450.071 156.629L461.67 157.561L462.86 151.225ZM229.423 130.917C234.833 126.438 246.502 117.944 255.355 112.044C272.383 100.697 275.978 97.9334 268.937 101.604C265.118 103.595 264.265 103.37 261.375 99.6113C259.583 97.2804 258.099 94.7706 258.077 94.0318C257.979 90.6901 251.283 93.3645 240.381 101.1C224.669 112.248 206.173 127.039 206.173 128.454C206.173 130.241 216.018 139.209 217.896 139.134C218.826 139.096 224.013 135.398 229.423 130.917ZM517.663 127.627C519.205 124.245 519.142 122.563 517.397 120.459C513.94 116.291 533.675 59.8029 541.011 52.8709C543.884 50.1572 545.974 46.6294 545.66 45.0337C544.73 40.3468 538.549 37.3342 533.706 39.209C529.884 40.6884 529.592 41.5829 530.642 48.5901C531.622 55.1321 530.266 60.751 521.904 84.7975C514.716 105.472 510.781 114.261 507.53 116.908C500.14 122.926 502.531 132.046 511.498 132.046C514.179 132.046 516.365 130.479 517.663 127.627ZM215.115 129.363C215.115 127.887 215.871 126.679 216.798 126.679C219.053 126.679 220.668 129.473 219.239 130.903C217.226 132.917 215.115 132.128 215.115 129.363ZM214.972 111.908L228.244 100.889L223.02 98.6597C214.056 94.8314 209.299 95.8493 199.881 103.604C194.981 107.64 190.628 111.271 190.207 111.674C189.333 112.513 199.167 123.146 200.695 123.014C201.249 122.965 207.673 117.967 214.972 111.908ZM199.019 113.262C199.019 111.787 199.776 110.579 200.702 110.579C202.957 110.579 204.572 113.373 203.143 114.803C201.129 116.817 199.019 116.028 199.019 113.262ZM287.547 93.1284C294.753 89.3627 302.722 86.5524 306.326 86.5076C311.353 86.445 312.585 85.7295 312.585 82.8762C312.585 78.4057 306.369 76.9584 304.156 80.9119C303.264 82.5094 296.143 87.0282 288.334 90.9549C280.524 94.8833 274.134 98.4897 274.134 98.9709C274.134 100.182 273.624 100.404 287.547 93.1284Z" fill="#FBFBFB"/>
</svg>
