<svg width="2382" height="2382" viewBox="0 0 2382 2382" fill="none" xmlns="http://www.w3.org/2000/svg">
<path d="M0 1534.72L0 1530.58L33.6457 1562.23C34.4397 1562.97 35.3628 1563.34 36.4148 1563.34C191.82 1563.14 347.176 1563.1 502.483 1563.22C509.42 1563.25 517.073 1565.72 522.789 1559.97C541.667 1540.92 560.643 1521.99 579.719 1503.19C580.692 1502.22 580.93 1501.09 580.434 1499.8L578.558 1494.94C578.201 1494.07 578.221 1493.21 578.618 1492.35C583.183 1482.43 589.337 1479.02 597.078 1482.14C603.301 1484.64 605.415 1492 613.335 1495C614.288 1495.36 615.151 1495.87 615.926 1496.52L622.982 1502.57C623.836 1503.28 624.818 1503.64 625.93 1503.64H899.324C900.455 1503.64 901.418 1504.04 902.212 1504.86L918.082 1521.15C918.777 1521.86 919.591 1522.42 920.524 1522.81C922.578 1523.71 924.007 1524.48 926.33 1524.48C986.535 1524.48 1046.79 1524.48 1107.09 1524.48C1108.6 1524.48 1110.04 1523.89 1111.11 1522.84C1118.2 1515.76 1147.65 1482.8 1155.81 1482.8C1181.13 1482.81 1206.46 1482.81 1231.79 1482.8C1232.82 1482.78 1233.76 1483.07 1234.59 1483.69C1243.58 1490.3 1247.24 1501.43 1259.63 1500.99C1268.4 1500.67 1277.18 1500.57 1285.95 1500.69C1287 1500.69 1287.91 1500.32 1288.66 1499.59C1292.89 1495.51 1297.48 1488.42 1304.65 1489.2C1317.63 1490.6 1321.47 1511.97 1311.68 1515.04C1302.29 1517.96 1295.27 1515.62 1290.63 1508.01C1290.09 1507.16 1289.32 1506.72 1288.3 1506.7C1275.78 1506.51 1263.46 1506.51 1251.35 1506.7C1246.65 1506.76 1233.46 1490.51 1229.44 1486.76C1228.7 1486.08 1227.84 1485.74 1226.85 1485.74C1205.39 1485.8 1184.02 1485.8 1162.74 1485.74C1159.89 1485.74 1158.22 1486.46 1155.48 1487.29C1154.64 1487.55 1153.92 1488 1153.3 1488.63L1116.95 1526.15C1116.08 1527.06 1115 1527.52 1113.73 1527.52C1048.82 1527.4 984.034 1527.39 919.363 1527.49C911.978 1527.49 904.058 1514.98 898.252 1510.43C897.438 1509.77 896.515 1509.44 895.483 1509.44C811.24 1509.62 727.026 1509.67 642.842 1509.59C635.011 1509.56 627.24 1506.76 620.422 1512.96C617.027 1516.03 613.395 1518.76 609.524 1521.15C608.626 1521.71 607.566 1521.96 606.507 1521.87C605.448 1521.77 604.447 1521.33 603.658 1520.61L590.825 1508.79C589.704 1507.75 588.227 1507.19 586.701 1507.22C585.176 1507.25 583.72 1507.86 582.637 1508.94L523.653 1567.8C522.795 1568.66 521.639 1569.14 520.437 1569.14H38.38C36.0316 1569.14 33.7848 1568.22 32.1272 1566.58L0 1534.72ZM585.376 1495.69C587.729 1505.19 597.048 1499.71 599.728 1495C599.991 1494.54 600.154 1494.03 600.207 1493.49C600.26 1492.96 600.202 1492.43 600.037 1491.92C599.872 1491.41 599.603 1490.95 599.247 1490.55C598.891 1490.15 598.457 1489.83 597.971 1489.61C594.359 1487.99 590.905 1488.19 587.61 1490.24C586.709 1490.79 586.008 1491.62 585.606 1492.6C585.205 1493.58 585.125 1494.66 585.376 1495.69ZM603.509 1512.66C608.948 1514.03 613.186 1512.44 616.223 1507.9C616.779 1507.06 616.779 1506.21 616.223 1505.33C610.655 1496.61 599.609 1500.9 601.753 1510.84C601.971 1511.82 602.557 1512.42 603.509 1512.66Z" fill="#FBFBFB"/>
<path d="M0 1422.83L0 1417.56L188.625 1417.35C189.617 1417.35 190.598 1417.54 191.513 1417.92C192.427 1418.3 193.257 1418.85 193.954 1419.55C214.261 1439.92 234.945 1460.52 256.005 1481.37C260.412 1485.74 434.507 1482.74 455.051 1482.79C476.281 1482.85 509.331 1481.72 536.694 1483.69C543.156 1484.16 546.907 1482.53 551.612 1477.73C568.623 1460.44 585.793 1443.31 603.122 1426.34C610.268 1419.34 605.504 1413.45 608.482 1406.72C618.516 1383.94 649.125 1414.1 626.585 1425.81C625.672 1426.28 624.709 1426.44 623.697 1426.28C616.412 1425.27 610.427 1427.16 605.743 1431.94C588.394 1449.65 570.846 1467.11 553.1 1484.34C549.825 1487.5 543.989 1488.69 539.642 1488.69C445.315 1488.81 350.065 1491.07 255.886 1488.33C254.814 1488.29 253.901 1487.91 253.147 1487.17C232.88 1467.14 212.782 1447.06 192.853 1426.94C186.362 1420.39 178.471 1423.19 171.206 1423.22C114.138 1423.45 57.0687 1423.32 0 1422.83Z" fill="#FBFBFB"/>
<path d="M0 1402.22L0 1396.72C94.8632 1396.22 159.812 1396.14 194.848 1396.48C202.113 1396.57 251.539 1449.77 259.936 1458.35C260.583 1459.01 261.363 1459.54 262.224 1459.88C263.086 1460.22 264.011 1460.38 264.938 1460.34C344.139 1457.55 423.758 1458.89 503.049 1459.03C504.2 1459.03 505.183 1458.63 505.996 1457.81L521.807 1442.24C522.601 1441.45 523.038 1440.5 523.117 1439.41C523.534 1432.51 523.564 1422.47 529.459 1418.09C541.339 1409.25 559.472 1426.73 546.371 1439.32C542.461 1443.1 537.26 1444.15 530.769 1442.48C528.943 1442.02 527.345 1442.44 525.975 1443.73C519.216 1450.07 509.152 1464.9 499.148 1464.9C421.495 1464.96 343.842 1464.96 266.189 1464.9C262.675 1464.9 258.179 1463.2 255.767 1460.67C237.148 1441.2 218.152 1422.1 198.778 1403.39C198.043 1402.67 197.16 1402.31 196.128 1402.31L0 1402.22ZM529.251 1430.87C532.943 1439.65 542.143 1438.58 544.704 1430.99C544.975 1430.16 545.024 1429.29 544.846 1428.44C544.669 1427.59 544.27 1426.81 543.692 1426.16C540.853 1422.97 537.349 1421.91 533.181 1422.98C532.369 1423.18 531.611 1423.56 530.958 1424.08C530.306 1424.61 529.775 1425.27 529.402 1426.02C529.028 1426.77 528.822 1427.59 528.796 1428.43C528.769 1429.26 528.925 1430.1 529.251 1430.87Z" fill="#FBFBFB"/>
<path d="M0 1378.46L0 1376.17C89.583 1375.44 179.156 1375.24 268.719 1375.58C283.339 1375.63 292.569 1361.7 301.472 1352.26C302.067 1351.63 302.812 1351.31 303.705 1351.31L378.023 1351.96C378.952 1351.97 379.86 1351.69 380.623 1351.16C381.386 1350.62 381.966 1349.87 382.281 1348.99C387.432 1334.84 411.758 1337.17 409.287 1355.45C407.441 1369.29 389.159 1370.04 383.323 1358.07C382.84 1357.09 382.093 1356.26 381.167 1355.68C380.241 1355.1 379.173 1354.79 378.083 1354.79C356.208 1354.73 334.433 1354.74 312.757 1354.82C300.995 1354.85 290.634 1370.69 281.82 1377.63C281.007 1378.26 280.084 1378.58 279.051 1378.58L0 1378.46ZM395.323 1345.62C393.42 1345.62 391.594 1346.38 390.249 1347.72C388.903 1349.07 388.147 1350.89 388.147 1352.8C388.147 1354.7 388.903 1356.53 390.249 1357.87C391.594 1359.22 393.42 1359.97 395.323 1359.97C397.226 1359.97 399.051 1359.22 400.397 1357.87C401.742 1356.53 402.498 1354.7 402.498 1352.8C402.498 1350.89 401.742 1349.07 400.397 1347.72C399.051 1346.38 397.226 1345.62 395.323 1345.62Z" fill="#FBFBFB"/>
<path d="M0 1354.41L0 1349.19C67.1327 1348.46 134.255 1348.56 201.368 1349.49C204.435 1349.55 207.085 1348.72 209.884 1347.88C210.857 1347.61 211.591 1347.01 212.087 1346.1C230.518 1313.2 254.487 1371.17 221.586 1363.49C216.286 1362.27 211.462 1354.88 206.758 1354.88C137.838 1354.94 68.9192 1354.78 0 1354.41Z" fill="#FBFBFB"/>
<path d="M0 1339.55L0 1334.6L182.223 1333.8C183.275 1333.8 184.168 1333.4 184.903 1332.61C191.483 1325.55 199.76 1313.08 210.331 1313.08C299.675 1313.08 389.03 1313.08 478.395 1313.08C479.427 1313.08 480.221 1312.65 480.777 1311.8C486.037 1303.66 492.191 1301.53 499.237 1305.43C515.554 1314.39 502.513 1338.42 487.03 1329.16C481.968 1326.12 481.224 1319.03 473.69 1319.03C387.025 1319.03 300.36 1319.03 213.695 1319.03C194.877 1319.03 192.257 1339.82 178.739 1339.85C119.15 1340.04 59.5698 1339.94 0 1339.55Z" fill="#FBFBFB"/>
<path d="M0 1273.92L0 1269.73C5.955 1265.88 10.3915 1253.62 0 1251.86L0 1248.14C6.28252 1247.16 11.1358 1249.95 12.2673 1256.53C13.9347 1266.18 9.8456 1271.98 0 1273.92Z" fill="#FBFBFB"/>
<path d="M0 1013.66L0 1010.68C0.77415 1010.13 1.61778 1010.11 2.53088 1010.62C5.52822 1012.35 5.3595 1013.62 2.0247 1014.43C1.2704 1014.63 0.5955 1014.37 0 1013.66Z" fill="#FBFBFB"/>
<path d="M0 939.223L0 934.012C7.83083 930.677 9.43868 921.209 0 918.38L0 914.658C15.6617 910.132 18.401 938.121 0 939.223Z" fill="#FBFBFB"/>
<path d="M0 851.267L0 849.153C60.0463 848.399 120.093 848.27 180.139 848.766C191.245 848.855 195.413 858.532 202.321 865.053C203.056 865.748 203.929 866.115 204.941 866.155C291.884 869.013 379.482 866.482 466.515 867.108C482.295 867.227 481.343 858.741 493.074 854.959C493.987 854.662 494.9 854.691 495.813 855.049C505.967 859.158 510.224 876.516 521.926 864.368C537.737 847.992 575.491 806.664 584.334 806.754C743.392 808.044 902.441 807.964 1061.48 806.515C1065.11 806.486 1069.52 808.629 1072.41 811.518C1082.02 821.135 1128.86 872.348 1138.69 872.378C1234.34 872.457 1329.99 872.457 1425.63 872.378C1426.64 872.378 1427.5 872.735 1428.22 873.45C1484.1 929.03 1539.79 984.699 1595.31 1040.46C1598.26 1043.41 1600.35 1044.72 1604.75 1044.75C1717.56 1045.76 1831.05 1045.93 1945.23 1045.25C1946.12 1045.23 1947 1045.49 1947.73 1046C1952.73 1049.36 1948.48 1051.06 1945.65 1051.06C1830.58 1051.06 1715.41 1051.06 1600.14 1051.06C1599.32 1051.06 1598.51 1050.9 1597.75 1050.59C1596.99 1050.27 1596.31 1049.82 1595.73 1049.24C1539.14 993.284 1482.81 936.89 1426.76 880.06C1423.04 876.248 1411.39 878.333 1407.88 878.333C1317.72 878.372 1227.56 878.154 1137.41 877.678C1136.29 877.678 1135.13 877.648 1133.92 877.588C1132.93 877.549 1132.08 877.181 1131.36 876.487C1115.94 860.924 1100.43 845.441 1084.85 830.038C1072.41 817.741 1067.91 810.297 1052.55 811.666C1043.65 812.48 1039.16 812.887 1039.06 812.887C891.215 812.848 743.383 812.838 595.56 812.857C592.403 812.857 583.828 810.922 580.523 814.257C555.661 839.208 533.032 857.996 521.718 873.777C521.122 874.611 521.023 875.504 521.42 876.457C527.941 892.238 506.681 903.79 496.885 886.58C496.369 885.667 495.645 884.992 494.712 884.556C489.193 881.975 484.221 878.551 479.794 874.283C478.552 873.081 476.897 872.408 475.179 872.407C385.695 872.388 296.301 872.388 206.996 872.407C196.932 872.407 189.19 860.378 182.819 853.709C182.084 852.954 181.191 852.518 180.139 852.399C178.68 852.25 176.864 851.595 175.643 851.595C117.085 851.694 58.5377 851.585 0 851.267ZM500.388 866.784C500.141 866.013 499.707 865.311 499.11 864.717C498.514 864.123 497.768 863.649 496.914 863.322C496.06 862.995 495.114 862.822 494.132 862.812C493.15 862.802 492.15 862.956 491.19 863.264C489.25 863.887 487.588 865.102 486.57 866.643C485.551 868.184 485.26 869.924 485.76 871.481C486.007 872.251 486.441 872.954 487.038 873.548C487.634 874.142 488.38 874.616 489.234 874.942C490.089 875.269 491.034 875.443 492.016 875.453C492.998 875.463 493.998 875.309 494.958 875.001C496.898 874.378 498.56 873.162 499.578 871.621C500.597 870.08 500.888 868.34 500.388 866.784ZM501.619 884.824C505.212 887.98 509.232 888.655 513.678 886.848C514.77 886.412 515.286 885.618 515.227 884.466L514.78 877.201C514.701 875.752 513.936 875.077 512.487 875.177C507.406 875.534 503.634 877.827 501.173 882.055C500.577 883.087 500.726 884.01 501.619 884.824Z" fill="#FBFBFB"/>
<path d="M0 839.357L0 830.991C68.2245 830.752 136.459 830.613 204.703 830.574C212.236 830.574 213.933 824.41 219.68 822.475C243.56 814.406 245.227 854.483 220.901 848.26C215.928 846.98 213.933 843.794 209.914 840.548C209.1 839.913 208.187 839.595 207.174 839.595L0 839.357ZM224.801 827.537C223.785 827.537 222.778 827.737 221.839 828.126C220.899 828.515 220.046 829.085 219.327 829.804C218.608 830.523 218.038 831.376 217.649 832.316C217.26 833.255 217.06 834.262 217.06 835.278C217.06 837.331 217.875 839.3 219.327 840.752C220.779 842.204 222.748 843.02 224.801 843.02C226.854 843.02 228.824 842.204 230.275 840.752C231.727 839.3 232.543 837.331 232.543 835.278C232.543 834.262 232.343 833.255 231.953 832.316C231.564 831.376 230.994 830.523 230.275 829.804C229.556 829.085 228.703 828.515 227.764 828.126C226.825 827.737 225.818 827.537 224.801 827.537Z" fill="#FBFBFB"/>
<path d="M0 812.59L0 807.885L279.349 807.141C280.253 807.14 281.148 807.325 281.983 807.683C282.817 808.041 283.572 808.566 284.202 809.225L303.735 829.502C304.509 830.316 305.452 830.723 306.563 830.723H380.941C381.993 830.723 382.738 830.246 383.174 829.293C391.958 810.118 416.82 822.177 406.578 842.156C406.121 843.03 405.446 843.665 404.553 844.062C395.422 848.111 388.246 846.335 383.026 838.732C382.594 838.099 382.016 837.581 381.342 837.223C380.667 836.865 379.917 836.678 379.155 836.678C354.68 836.658 330.274 836.668 305.938 836.707C298.762 836.707 284.857 818.783 278.813 813.81C277.979 813.116 277.037 812.768 275.984 812.768L0 812.59ZM394.995 825.095C383.978 828.728 387.075 842.573 398.955 840.042C400.027 839.824 400.772 839.209 401.188 838.196C402.677 834.762 402.618 831.278 401.01 827.745C400.511 826.639 399.621 825.756 398.511 825.266C397.4 824.777 396.148 824.716 394.995 825.095Z" fill="#FBFBFB"/>
<path d="M299.626 1266.78C303.159 1260.66 308.102 1257.99 314.454 1258.77C335.654 1261.33 325.173 1290.39 309.6 1286.01C302.931 1284.17 299.953 1274.4 293.135 1274.4C277.156 1274.38 261.206 1274.36 245.286 1274.34C231.917 1274.31 222.657 1270.32 211.73 1281.1C198.589 1294.04 185.865 1306.97 173.558 1319.9C172.973 1320.5 172.274 1320.98 171.502 1321.31C170.73 1321.65 169.901 1321.82 169.062 1321.83C131.149 1322.33 93.3148 1322.15 55.5601 1321.3C51.6001 1321.21 49.1883 1319.81 45.7046 1318.11C44.8312 1317.67 44.1166 1317.06 43.5608 1316.26C38.3601 1309.02 31.234 1305.97 22.1824 1307.12C21.1105 1307.26 20.1378 1307.01 19.2644 1306.38C0.625261 1292.8 25.3385 1270.65 36.0277 1284.82C40.2856 1290.48 37.3378 1297.3 40.4642 1303.58C44.732 1312.17 51.8283 1316.41 61.7533 1316.29C96.5305 1315.88 131.278 1315.82 165.996 1316.11C170.581 1316.17 205.835 1278.99 211.849 1273.15C222.777 1262.58 280.153 1270.59 297.452 1268.24C298.405 1268.1 299.13 1267.61 299.626 1266.78ZM23.9689 1286.64L18.133 1292.83C17.8274 1293.15 17.588 1293.53 17.4285 1293.94C17.269 1294.35 17.1927 1294.79 17.2037 1295.24C17.2148 1295.68 17.3131 1296.12 17.493 1296.52C17.6729 1296.92 17.9308 1297.29 18.2521 1297.59L18.7285 1298.01C20.9384 1300.1 23.5705 1301.56 26.0483 1302.07C28.5262 1302.59 30.6478 1302.11 31.9486 1300.75L32.6632 1300.01C33.9559 1298.63 34.3152 1296.48 33.6619 1294.03C33.0085 1291.58 31.3962 1289.03 29.1795 1286.94L28.7329 1286.52C28.4126 1286.21 28.0351 1285.97 27.6221 1285.81C27.2091 1285.65 26.7687 1285.58 26.3261 1285.59C25.8836 1285.6 25.4475 1285.7 25.043 1285.88C24.6385 1286.06 24.2735 1286.32 23.9689 1286.64ZM320.528 1273.06C317.967 1253.41 294.921 1272.11 311.476 1280.32C312.628 1280.9 313.69 1280.77 314.662 1279.94L319.516 1275.68C320.329 1274.99 320.667 1274.11 320.528 1273.06Z" fill="#FBFBFB"/>
<path d="M37.7251 878.809C43.2334 870.442 49.3969 863.386 60.4434 863.415C96.4513 863.535 132.37 863.773 168.199 864.13C184.129 864.279 206.311 911.71 225.963 911.829C261.514 912.068 284.957 911.82 296.291 911.085C298.971 910.906 300.867 909.08 301.978 905.607C302.296 904.594 302.941 903.89 303.914 903.493C342.413 887.325 323.357 954.527 299.15 918.499C298.455 917.467 297.482 916.941 296.232 916.921L217.268 916.474C215.933 916.473 214.648 915.938 213.695 914.986L169.896 870.591C169.082 869.777 168.11 869.37 166.978 869.37C132.578 869.49 98.3172 869.499 64.195 869.4C50.171 869.37 40.7025 880.506 38.2014 893.429C34.6284 912.068 11.6421 908.108 12.714 890.868C13.4584 879.196 24.3263 877.231 34.688 879.97C35.9782 880.308 36.9906 879.921 37.7251 878.809ZM31.0677 886.03C29.6946 884.853 27.8307 884.363 25.886 884.667C23.9412 884.971 22.0749 886.044 20.6976 887.651C19.3204 889.258 18.5449 891.267 18.5419 893.235C18.5389 895.203 19.3085 896.97 20.6815 898.147C22.0546 899.324 23.9185 899.815 25.8632 899.511C27.808 899.206 29.6743 898.133 31.0516 896.526C32.4288 894.919 33.2043 892.911 33.2073 890.942C33.2103 888.974 32.4407 887.207 31.0677 886.03Z" fill="#FBFBFB"/>
<path d="M389.189 1230.93C396.514 1220.6 413.247 1219.44 415.987 1234.92C418.339 1248.35 398.27 1257.13 390.589 1243.08C390.092 1242.2 389.407 1241.54 388.534 1241.08C380.584 1237.03 375.016 1238.58 366.858 1238.61C275.27 1238.67 183.682 1238.67 92.0942 1238.61C84.442 1238.61 71.9067 1222.8 66.4579 1217.2C65.6939 1216.41 64.7096 1215.86 63.6322 1215.63C62.5547 1215.41 61.4336 1215.51 60.4136 1215.92C36.5043 1225.57 35.3133 1181.59 60.8304 1191.42C69.2568 1194.63 68.7506 1204.58 69.0781 1212.17C69.1377 1213.2 69.5247 1214.09 70.2393 1214.82L86.8538 1231.55C87.6081 1232.31 88.5311 1232.68 89.6229 1232.68H385.795C386.458 1232.68 387.111 1232.52 387.701 1232.22C388.292 1231.91 388.802 1231.47 389.189 1230.93ZM61.6757 1200.41C60.8726 1198.76 59.3891 1197.53 57.5515 1196.99C55.7139 1196.44 53.6728 1196.63 51.8771 1197.51C50.988 1197.94 50.1858 1198.53 49.5166 1199.24C48.8473 1199.95 48.324 1200.78 47.9764 1201.66C47.6289 1202.54 47.464 1203.47 47.4912 1204.39C47.5183 1205.31 47.737 1206.2 48.1347 1207.02C48.9378 1208.66 50.4214 1209.89 52.2589 1210.44C54.0965 1210.98 56.1377 1210.8 57.9333 1209.92C58.8225 1209.49 59.6246 1208.9 60.2938 1208.19C60.9631 1207.47 61.4865 1206.65 61.834 1205.77C62.1815 1204.89 62.3464 1203.96 62.3192 1203.04C62.2921 1202.12 62.0734 1201.23 61.6757 1200.41ZM395.621 1234.11C394.926 1239.22 396.682 1242.74 400.891 1244.68C402.022 1245.2 403.044 1245.04 403.958 1244.21L409.138 1239.47C410.051 1238.64 410.359 1237.62 410.061 1236.41C408.454 1230.18 401.397 1225.63 396.663 1231.64C396.098 1232.34 395.737 1233.2 395.621 1234.11Z" fill="#FBFBFB"/>
<path d="M1421.85 957.802L911.413 958.785C910.44 958.785 909.597 958.438 908.882 957.743C879.961 929.04 860.567 909.597 850.702 899.414C846.474 895.037 844.508 892.833 837.958 892.893C744.802 893.528 651.636 893.498 558.46 892.804C556.822 892.804 553.041 895.245 551.493 896.764C523.385 924.693 505.738 942.329 498.553 949.674C491.824 956.552 496.081 963.609 492.568 970.219C487.834 979.211 476.281 979.24 470.296 971.439C464.073 963.4 468.539 948.929 479.378 949.614C488.221 950.18 490.305 949.823 496.707 943.302C506.145 933.744 548.217 887.325 558.668 887.325C654.246 887.285 749.367 887.275 844.032 887.295C845.803 887.294 847.505 888.001 848.766 889.26L910.162 950.746C910.803 951.396 911.567 951.913 912.41 952.266C913.254 952.618 914.159 952.8 915.075 952.8L1423.6 953.783C1424.44 953.783 1425.19 954.011 1425.87 954.468C1428.01 955.917 1429.58 957.137 1430.57 958.13C1486.19 1015.09 1541.9 1074.1 1601.66 1126.66C1603 1127.85 1604.73 1128.5 1606.51 1128.5C1637.18 1128.5 1947.94 1127.16 1949.49 1129.78C1949.59 1129.95 1949.64 1130.14 1949.64 1130.33C1949.65 1130.52 1949.6 1130.71 1949.51 1130.88C1949.41 1131.05 1949.28 1131.19 1949.11 1131.29C1948.95 1131.39 1948.76 1131.45 1948.57 1131.45C1832.78 1131.45 1716.98 1131.45 1601.15 1131.45C1599.54 1131.45 1596.3 1130.02 1594.84 1128.59C1522.75 1057.61 1471.39 1002.64 1424.5 958.815C1423.76 958.12 1422.88 957.783 1421.85 957.802Z" fill="#FBFBFB"/>
<path d="M575.253 933.119L595.53 912.842C596.067 912.295 596.712 911.861 597.428 911.565C598.143 911.268 598.915 911.115 599.698 911.115H838.255C839.181 911.115 840.097 911.297 840.95 911.649C841.803 912.002 842.577 912.518 843.228 913.17C861.907 931.769 880.863 950.875 900.098 970.486C903.939 974.446 908.286 973.672 913.199 973.672C1079.94 973.633 1246.53 973.633 1412.97 973.672C1414.87 973.672 1416.68 974.398 1418.03 975.697C1428.43 985.701 1440.19 995.229 1449.8 1004.82C1496.13 1050.89 1542.4 1097.03 1588.62 1143.24C1592.46 1147.08 1593.17 1149.29 1599.33 1149.29C1715.06 1149.32 1830.8 1149.37 1946.54 1149.43C1948.92 1149.43 1950.19 1150.51 1950.35 1152.65C1950.38 1152.99 1950.33 1153.32 1950.22 1153.64C1950.11 1153.96 1949.93 1154.25 1949.7 1154.49C1949.47 1154.74 1949.2 1154.93 1948.89 1155.07C1948.58 1155.2 1948.25 1155.27 1947.91 1155.27H1593.65C1592.95 1155.27 1592.26 1155.13 1591.61 1154.87C1590.97 1154.6 1590.39 1154.21 1589.9 1153.72C1534 1097.49 1477.76 1041.11 1421.19 984.6C1411.75 975.161 1398.83 979.627 1388.8 979.627C1234.04 979.588 1079.28 979.518 924.514 979.419C917.586 979.419 910.658 979.151 903.731 978.615C902.718 978.555 901.855 978.148 901.14 977.394C882.858 958.318 864.249 939.61 845.312 921.268C835.218 911.502 830.693 917.04 819.021 917.07C745.675 917.11 672.319 917.1 598.954 917.04C597.703 917.04 596.631 917.487 595.738 918.38L578.171 936.305C577.456 937.019 577.188 937.883 577.367 938.895C578.578 945.704 577.288 951.877 573.496 957.415C572.921 958.269 572.127 958.834 571.114 959.112C550.867 964.502 542.917 940.711 561.259 932.761C562.132 932.384 563.045 932.295 563.998 932.493L571.829 934.131C573.159 934.409 574.3 934.072 575.253 933.119ZM562.092 939.104L557.09 945.178C556.535 945.853 556.27 946.722 556.354 947.592C556.437 948.463 556.863 949.265 557.537 949.823L559.234 951.192C561.111 952.73 563.369 953.648 565.512 953.742C567.655 953.837 569.509 953.102 570.668 951.698L571.144 951.162C572.299 949.75 572.659 947.784 572.145 945.695C571.631 943.607 570.286 941.568 568.405 940.027L566.737 938.657C566.062 938.102 565.193 937.837 564.323 937.92C563.452 938.004 562.65 938.43 562.092 939.104Z" fill="#FBFBFB"/>
<path d="M620.779 1063.92L616.76 1069.67C616.243 1070.4 615.549 1070.87 614.675 1071.07C601.416 1073.98 594.756 1069.33 594.696 1057.1C594.577 1040.73 615.717 1042.63 622.238 1055.29C622.715 1056.24 623.479 1056.71 624.531 1056.71C711.692 1057.51 798.814 1057.65 885.896 1057.13C905.428 1057.01 912.247 1036.2 921.715 1036.2C983.687 1036.16 1045.66 1036.15 1107.63 1036.17C1122.93 1036.2 1143.87 1078.42 1158.34 1078.54C1186.95 1078.72 1220.15 1081.46 1232.57 1076.57C1233.56 1076.2 1234.35 1075.57 1234.95 1074.7C1238.98 1068.78 1244.02 1063.99 1250.07 1060.32C1250.93 1059.8 1251.85 1059.55 1252.84 1059.57L1286.43 1060.14C1287.32 1060.16 1288.19 1059.93 1288.97 1059.48C1289.74 1059.04 1290.37 1058.39 1290.81 1057.61C1293.8 1052.09 1298.4 1048.76 1304.59 1047.6C1305.52 1047.43 1306.41 1047.56 1307.24 1048.02C1316.67 1053.22 1319.13 1061.13 1314.63 1071.75C1314.29 1072.57 1313.72 1073.16 1312.93 1073.54C1303.26 1078.14 1295.86 1076.05 1290.72 1067.26C1290.2 1066.38 1289.44 1065.95 1288.42 1065.95H1254.18C1253.09 1065.95 1252.11 1066.28 1251.24 1066.96C1240.64 1075.41 1237.42 1084.85 1221.52 1083.99C1198.49 1082.74 1175.4 1082.68 1152.23 1083.81C1151.61 1083.84 1150.98 1083.73 1150.4 1083.5C1149.82 1083.27 1149.3 1082.92 1148.87 1082.47C1141.72 1074.97 1113.53 1042.13 1104.74 1042.13C1043.17 1042.13 981.583 1042.13 919.988 1042.13C918.936 1042.13 918.043 1042.51 917.308 1043.29C913.051 1047.75 901.319 1062.94 892.506 1062.94C802.585 1062.98 712.625 1062.99 622.625 1062.97C621.851 1062.97 621.236 1063.29 620.779 1063.92Z" fill="#FBFBFB"/>
<path d="M1039.21 1160.54C1047.78 1157.18 1055.76 1159.14 1059.19 1168.13C1065.02 1183.41 1042.96 1192.37 1034.92 1179.21C1031.2 1173.08 1035.63 1166.32 1030.75 1160.42C1026.8 1155.64 1022.46 1151.26 1017.74 1147.29C1008.78 1139.7 1000.62 1143.33 990.346 1143.36C898.778 1143.4 807.21 1143.37 715.642 1143.27C714.57 1143.27 713.726 1143.7 713.111 1144.55C706.174 1154.23 689.559 1156.85 685.986 1144.28C682.592 1132.43 692.745 1123.83 704.357 1126.3C705.489 1126.54 706.442 1127.09 707.216 1127.97L714.123 1135.8C714.977 1136.75 716.039 1137.23 717.309 1137.23C809.731 1138 911.085 1138.63 1004.19 1137.26C1019.26 1137.02 1027 1150.54 1036.17 1159.88C1037.02 1160.78 1038.04 1161 1039.21 1160.54ZM699.492 1131.72C697.565 1131.69 695.703 1132.48 694.315 1133.92C692.928 1135.37 692.127 1137.35 692.091 1139.42C692.055 1141.5 692.785 1143.5 694.122 1145C695.459 1146.49 697.292 1147.34 699.218 1147.38C701.145 1147.41 703.007 1146.62 704.395 1145.17C705.783 1143.73 706.583 1141.75 706.619 1139.68C706.655 1137.6 705.925 1135.59 704.588 1134.1C703.252 1132.61 701.418 1131.75 699.492 1131.72ZM1052.9 1167.52C1051.75 1166.12 1050.02 1165.3 1048.09 1165.23C1046.16 1165.16 1044.19 1165.86 1042.61 1167.16C1041.03 1168.46 1039.98 1170.26 1039.67 1172.17C1039.37 1174.07 1039.85 1175.93 1041 1177.33C1042.15 1178.72 1043.88 1179.54 1045.81 1179.61C1047.74 1179.68 1049.71 1178.98 1051.29 1177.68C1052.86 1176.38 1053.92 1174.58 1054.22 1172.67C1054.53 1170.77 1054.05 1168.91 1052.9 1167.52Z" fill="#FBFBFB"/>
<path d="M721.151 1539.04C750.29 1539.77 773.177 1539.85 789.812 1539.28C804.818 1538.74 811.935 1552.32 821.79 1561.97C822.525 1562.68 823.408 1563.04 824.44 1563.04C992.937 1564.88 1161.7 1563.13 1330.2 1563.22C1333.65 1563.22 1338.35 1560.21 1344.28 1554.2C1396.96 1500.92 1450.01 1448 1503.43 1395.44C1508.16 1390.76 1511.26 1389.99 1517.57 1390.34C1536.36 1391.48 1555.71 1390.19 1574.59 1390.55C1668.14 1392.22 1761.91 1390.22 1855.55 1390.88C1882.15 1391.06 1908.76 1390.84 1935.37 1390.22C1938.73 1390.15 1943.05 1390.56 1948.33 1391.48C1949.18 1391.61 1949.7 1392.1 1949.88 1392.93C1950.39 1395.28 1949.47 1396.45 1947.11 1396.45C1807.52 1396.45 1667.95 1396.45 1528.38 1396.45C1522.72 1396.45 1510.58 1393.77 1505.01 1399.31C1448.75 1455.28 1393.02 1511.31 1337.82 1567.39C1337.24 1567.98 1336.54 1568.45 1335.77 1568.77C1335.01 1569.1 1334.18 1569.26 1333.35 1569.26C1163.48 1569.18 993.701 1568.91 824.023 1568.46C822.733 1568.46 821.443 1568.35 820.153 1568.13C819.16 1567.97 818.316 1567.53 817.622 1566.82L797.643 1546.45C796.809 1545.62 795.797 1545.2 794.606 1545.2L721.061 1545.23C720.069 1545.25 719.354 1545.7 718.917 1546.57C709.657 1564.77 686.463 1554.88 694.026 1535.94C698.075 1525.88 714.213 1529.57 718.828 1537.64C719.344 1538.53 720.118 1539 721.151 1539.04ZM699.296 1540.11L699.921 1547.65C699.955 1548.06 700.071 1548.47 700.263 1548.85C700.455 1549.22 700.72 1549.55 701.041 1549.82C701.362 1550.09 701.733 1550.3 702.134 1550.43C702.534 1550.55 702.956 1550.6 703.375 1550.56L706.084 1550.35C707.197 1550.26 708.284 1550 709.285 1549.59C710.285 1549.17 711.179 1548.61 711.914 1547.93C712.65 1547.25 713.213 1546.47 713.572 1545.64C713.931 1544.8 714.078 1543.93 714.005 1543.06L713.945 1542.35C713.802 1540.6 712.775 1539 711.089 1537.89C709.402 1536.79 707.195 1536.27 704.953 1536.45L702.214 1536.69C701.373 1536.76 700.594 1537.16 700.047 1537.8C699.5 1538.44 699.23 1539.27 699.296 1540.11Z" fill="#FBFBFB"/>
<path d="M720.585 1025.72C715.225 1035.6 699.623 1042.12 693.757 1029.23C687.475 1015.42 704.744 1001.72 715.314 1013.9C719.691 1018.99 720.644 1021.34 728.088 1021.31C749.109 1021.29 770.1 1021.26 791.062 1021.22C805.294 1021.19 812.708 996.301 828.013 997.194C840.489 997.909 853.411 997.641 865.887 997.641C1099.48 997.82 1253.76 997.74 1328.71 997.403C1335.65 997.373 1338.18 997.522 1343.3 1002.64C1398.14 1057.59 1453.02 1112.49 1507.92 1167.36C1513.76 1173.19 1527.1 1170.19 1532.82 1170.19C1670.54 1170.15 1808.26 1170.14 1945.97 1170.16C1948.92 1170.16 1951.33 1171.53 1950.11 1174.71C1949.76 1175.65 1949.08 1176.11 1948.09 1176.11H1510.9C1509.79 1176.11 1508.81 1175.76 1507.95 1175.07C1503.53 1171.38 1499.32 1167.55 1495.33 1163.58C1443.18 1111.51 1391.17 1059.31 1339.28 1006.99C1329.72 997.373 1318.73 1000.95 1306.91 1000.89C1148.54 999.695 989.989 999.993 831.586 1000.53C819.319 1000.56 808.183 1015.54 800.382 1023.75C799.846 1024.33 799.191 1024.62 798.416 1024.62L723.235 1024.14C722.044 1024.14 721.16 1024.67 720.585 1025.72ZM704.632 1015.64C703.739 1015.86 702.903 1016.27 702.171 1016.85C701.439 1017.43 700.826 1018.16 700.366 1019.01C699.905 1019.86 699.608 1020.81 699.489 1021.8C699.371 1022.8 699.434 1023.81 699.676 1024.8C700.164 1026.78 701.348 1028.51 702.967 1029.6C704.586 1030.7 706.509 1031.06 708.311 1030.62C709.203 1030.4 710.039 1029.99 710.771 1029.41C711.503 1028.83 712.117 1028.09 712.577 1027.24C713.037 1026.39 713.335 1025.44 713.453 1024.45C713.572 1023.46 713.508 1022.44 713.267 1021.46C712.779 1019.47 711.595 1017.74 709.975 1016.65C708.356 1015.56 706.434 1015.2 704.632 1015.64Z" fill="#FBFBFB"/>
<path d="M1064.34 1497.24L1051.41 1510.93C1050.94 1511.45 1050.36 1511.86 1049.71 1512.14C1049.06 1512.42 1048.37 1512.57 1047.66 1512.57H933.357C932.294 1512.57 931.244 1512.36 930.272 1511.94C929.299 1511.53 928.424 1510.92 927.7 1510.16C914.599 1496.46 901.051 1482.67 887.057 1468.77C878.928 1460.7 836.38 1465.38 829.234 1464.81C821.016 1464.19 802.526 1461.21 799.757 1470.47C799.419 1471.56 798.705 1472.27 797.613 1472.61C792.214 1474.32 786.804 1474.46 781.385 1473.03C780.313 1472.75 779.45 1472.17 778.795 1471.27C773.793 1464.38 773.803 1458.06 778.825 1452.31C788.799 1440.93 796.184 1450.43 802.734 1457.99C803.389 1458.77 804.223 1459.17 805.235 1459.21C830.147 1460.13 855.009 1460.01 879.822 1458.86C892.148 1458.29 921.507 1497.41 933.804 1505.78C934.617 1506.36 935.531 1506.64 936.543 1506.64C969.732 1506.59 1002.91 1506.6 1036.08 1506.7C1051.8 1506.73 1061.81 1495.42 1063.95 1480.41C1065.83 1467.49 1084.85 1467.04 1088.34 1479.25C1090.98 1488.46 1087.5 1494.61 1077.91 1497.68C1076.96 1497.98 1075.99 1498.02 1075 1497.8L1067.88 1496.16C1066.49 1495.83 1065.31 1496.18 1064.34 1497.24ZM1082.19 1478.67C1081.02 1477.22 1079.24 1476.35 1077.25 1476.26C1075.26 1476.16 1073.23 1476.85 1071.6 1478.17C1069.97 1479.5 1068.87 1481.34 1068.55 1483.31C1068.22 1485.27 1068.71 1487.19 1069.88 1488.64C1071.06 1490.1 1072.84 1490.97 1074.83 1491.06C1076.81 1491.15 1078.85 1490.46 1080.48 1489.14C1082.11 1487.82 1083.21 1485.97 1083.53 1484.01C1083.85 1482.05 1083.37 1480.13 1082.19 1478.67Z" fill="#FBFBFB"/>
<path d="M802.228 1109.42C798.933 1115.17 794.298 1117.82 788.323 1117.37C761.585 1115.31 780.879 1071.57 802.466 1099.17C803.081 1099.97 803.865 1100.51 804.818 1100.81C812.53 1103.28 820.093 1101.44 826.197 1101.67C838.563 1102.15 850.92 1102.39 863.266 1102.39C877.41 1102.39 880.715 1104.09 889.677 1095.15C902.996 1081.93 916.197 1068.6 929.278 1055.17C929.992 1054.43 930.866 1054.05 931.898 1054.03C969.494 1053.92 1006.96 1054.17 1044.3 1054.81C1052 1054.95 1058.27 1058.38 1063.12 1065.11C1070.26 1074.97 1087.56 1060.41 1089.5 1082.98C1090.42 1093.52 1071.04 1100.22 1063.77 1088.75C1063.24 1087.92 1063.02 1087 1063.12 1085.98C1064.46 1071.45 1056.15 1060.23 1041.32 1060.14C1006.76 1059.92 972.173 1059.89 937.555 1060.05C930.23 1060.08 897.389 1096.02 889.528 1103.13C880.744 1111.08 819.497 1107.57 804.639 1107.99C803.568 1108.01 802.764 1108.48 802.228 1109.42ZM787.51 1096.08C785.615 1096.38 783.927 1097.49 782.817 1099.16C781.707 1100.83 781.267 1102.92 781.593 1104.98C781.755 1106 782.1 1106.98 782.608 1107.87C783.116 1108.75 783.778 1109.52 784.556 1110.14C785.334 1110.75 786.212 1111.2 787.141 1111.45C788.07 1111.71 789.031 1111.76 789.969 1111.61C791.865 1111.31 793.553 1110.21 794.662 1108.54C795.772 1106.87 796.212 1104.78 795.886 1102.72C795.724 1101.7 795.38 1100.72 794.871 1099.83C794.363 1098.95 793.701 1098.17 792.923 1097.56C792.146 1096.94 791.267 1096.5 790.338 1096.24C789.409 1095.99 788.448 1095.94 787.51 1096.08ZM1068.92 1085.24C1068.92 1085.92 1069.07 1086.59 1069.36 1087.21C1069.64 1087.83 1070.06 1088.38 1070.57 1088.82C1071.09 1089.26 1071.7 1089.58 1072.36 1089.77C1073.01 1089.95 1073.7 1089.99 1074.37 1089.88C1090.12 1087.41 1082.41 1068.56 1070.14 1075.86C1069.33 1076.34 1068.92 1077.05 1068.92 1078V1085.24Z" fill="#FBFBFB"/>
<path d="M1322.87 1536.81C1406.58 1454.35 1466.12 1394.94 1501.49 1358.57C1507.42 1352.47 1509.21 1348.81 1518.64 1348.81C1661.82 1348.79 1805 1348.79 1948.18 1348.81C1949.57 1348.81 1950.26 1349.51 1950.26 1350.92V1353.27C1950.26 1354.27 1949.77 1354.76 1948.77 1354.76H1516.2C1514.96 1354.76 1513.77 1355.26 1512.9 1356.13C1451.14 1418.06 1389.26 1479.9 1327.25 1541.63C1325.19 1543.71 1323.19 1544.76 1321.27 1544.76C1193.39 1545.13 1065.52 1545.32 937.645 1545.32C924.841 1545.32 908.495 1546.42 893.816 1545.98C892.843 1545.96 891.96 1546.23 891.166 1546.78C888.397 1548.81 885.925 1551.43 883.156 1552.83C871.455 1558.66 858.771 1547.5 863.803 1535.82C868.745 1524.3 882.978 1525.02 890.064 1534.54C890.488 1535.12 891.04 1535.58 891.676 1535.9C892.312 1536.22 893.014 1536.39 893.726 1536.39C1032.12 1536.39 1170.47 1536.39 1308.76 1536.39C1311.89 1536.39 1316.41 1537.79 1320.16 1537.88C1321.22 1537.9 1322.12 1537.54 1322.87 1536.81ZM876.844 1533.14C874.815 1533.14 872.868 1533.95 871.433 1535.39C869.998 1536.82 869.192 1538.77 869.192 1540.8C869.192 1542.83 869.998 1544.77 871.433 1546.21C872.868 1547.64 874.815 1548.45 876.844 1548.45C878.873 1548.45 880.82 1547.64 882.255 1546.21C883.69 1544.77 884.496 1542.83 884.496 1540.8C884.496 1538.77 883.69 1536.82 882.255 1535.39C880.82 1533.95 878.873 1533.14 876.844 1533.14Z" fill="#FBFBFB"/>
<path d="M889.677 1029.38C879.166 1050.49 854.394 1030.45 866.274 1016.76C870.651 1011.69 877.975 1011.69 883.811 1013.87C884.744 1014.21 885.489 1014.78 886.044 1015.6C888.397 1018.96 891.463 1021.1 895.84 1021.1C1038.84 1021.34 1181.84 1021.43 1324.84 1021.37C1325.97 1021.37 1326.93 1021.77 1327.73 1022.56L1511.2 1206.51C1511.96 1207.28 1512.87 1207.88 1513.87 1208.3C1514.88 1208.71 1515.95 1208.92 1517.04 1208.92L1948.03 1208.84C1949.52 1208.84 1950.26 1209.59 1950.26 1211.1V1213.33C1950.26 1214.32 1949.77 1214.82 1948.77 1214.82H1512.69C1511.52 1214.82 1510.52 1214.4 1509.68 1213.57L1326.24 1029.47C1324.75 1027.98 1322.96 1027.24 1320.88 1027.24H893.131C892.415 1027.24 891.712 1027.44 891.102 1027.81C890.492 1028.19 889.998 1028.74 889.677 1029.38Z" fill="#FBFBFB"/>
<path d="M1114.57 1443.58C1118.68 1455.82 1109.18 1466.24 1097.15 1462.37C1080.83 1457.13 1089.56 1428.57 1110.13 1437.72C1111.08 1438.15 1111.96 1438.03 1112.75 1437.36C1118.63 1432.5 1124.03 1427.19 1128.95 1421.43C1133.98 1415.56 1137.94 1417.62 1144.58 1417.65C1219.12 1417.77 1293.64 1417.75 1368.16 1417.59C1371.23 1417.56 1374.35 1417.38 1376.65 1415.06C1395.44 1395.74 1414.48 1376.67 1433.76 1357.83C1434.55 1357.06 1434.79 1356.15 1434.47 1355.12C1427 1329.63 1464.3 1326.6 1458.83 1353.27C1456.74 1363.55 1449.06 1360.6 1441.76 1360.9C1440.75 1360.94 1439.85 1361.27 1439.06 1361.91C1435.56 1364.69 1431.25 1368.72 1426.13 1374C1402.75 1398.13 1386.93 1413.85 1378.67 1421.13C1375.66 1423.78 1368.91 1423.1 1364.92 1423.07C1288.08 1422.53 1211.23 1422.64 1134.37 1423.39C1133.28 1423.39 1132.34 1423.78 1131.57 1424.56L1115.13 1441.2C1114.46 1441.87 1114.27 1442.67 1114.57 1443.58ZM1096.88 1443.79L1095.45 1452.42C1095.31 1453.28 1095.52 1454.16 1096.03 1454.86C1096.54 1455.56 1097.3 1456.04 1098.16 1456.18L1099.71 1456.44C1102.2 1456.85 1104.71 1456.48 1106.7 1455.42C1108.68 1454.36 1109.97 1452.69 1110.28 1450.79L1110.4 1450.07C1110.71 1448.17 1110.01 1446.18 1108.47 1444.54C1106.93 1442.91 1104.67 1441.76 1102.18 1441.35L1100.63 1441.08C1099.78 1440.94 1098.9 1441.15 1098.2 1441.66C1097.49 1442.17 1097.02 1442.93 1096.88 1443.79ZM1454.09 1346.54C1443.94 1323.74 1432.71 1363.07 1450.94 1354.85C1452.45 1354.16 1453.63 1352.9 1454.22 1351.35C1454.81 1349.79 1454.77 1348.07 1454.09 1346.54Z" fill="#FBFBFB"/>
<path d="M1439.53 1204.88C1455.88 1197.82 1464.27 1213.3 1456.92 1226.91C1456.48 1227.74 1455.84 1228.35 1454.99 1228.72C1443.67 1233.97 1427.23 1225.36 1434.65 1211.96C1435.11 1211.13 1435.29 1210.16 1435.17 1209.21C1435.04 1208.26 1434.61 1207.38 1433.93 1206.69C1416.11 1188.61 1398.4 1170.59 1380.82 1152.65C1371.05 1142.7 1366.14 1146.34 1354.35 1146.34C1281.52 1146.34 1208.7 1146.34 1135.89 1146.34C1133 1146.34 1131.51 1145.74 1128.86 1144.85C1128.03 1144.59 1127.3 1144.14 1126.69 1143.51L1113.17 1129.34C1112.22 1128.32 1111.05 1127.94 1109.68 1128.17C1077.91 1133.65 1086.43 1095.12 1106.97 1102.96C1114.24 1105.71 1116.98 1111.3 1115.19 1119.72C1114.97 1120.69 1115.17 1121.57 1115.79 1122.37C1120.19 1127.85 1130.02 1140.92 1137.49 1140.68C1213.42 1138.24 1289.94 1140.98 1366.02 1140.53C1374.68 1140.5 1377.57 1143.48 1383.17 1149.23C1401.37 1167.86 1419.67 1186.33 1438.07 1204.61C1438.26 1204.79 1438.51 1204.92 1438.77 1204.97C1439.03 1205.01 1439.29 1204.98 1439.53 1204.88ZM1099.59 1123.2C1103.44 1123.64 1106.74 1122.63 1109.48 1120.17C1110.21 1119.49 1110.59 1118.65 1110.61 1117.63C1110.73 1109.48 1099.41 1101.5 1094.89 1115.94C1094.64 1116.73 1094.57 1117.56 1094.68 1118.39C1094.79 1119.21 1095.08 1119.99 1095.53 1120.69C1095.98 1121.38 1096.58 1121.97 1097.28 1122.4C1097.98 1122.84 1098.77 1123.11 1099.59 1123.2ZM1443.64 1224.11H1450.79C1451.46 1224.11 1452.11 1223.84 1452.59 1223.37C1453.07 1222.9 1453.34 1222.25 1453.35 1221.58L1453.38 1216.96C1453.38 1215.93 1453.23 1214.9 1452.94 1213.94C1452.65 1212.98 1452.21 1212.11 1451.66 1211.37C1451.12 1210.64 1450.47 1210.05 1449.75 1209.65C1449.03 1209.25 1448.26 1209.05 1447.48 1209.04H1447.06C1445.49 1209.04 1443.98 1209.86 1442.87 1211.34C1441.75 1212.81 1441.12 1214.81 1441.11 1216.9L1441.08 1221.52C1441.08 1221.86 1441.14 1222.19 1441.27 1222.51C1441.39 1222.82 1441.58 1223.11 1441.82 1223.35C1442.06 1223.59 1442.34 1223.78 1442.65 1223.91C1442.97 1224.04 1443.3 1224.11 1443.64 1224.11Z" fill="#FBFBFB"/>
<path d="M1129.28 1360.81C1204.43 1360.75 1279.59 1360.72 1354.76 1360.72C1361.13 1360.72 1364.65 1361.16 1369.53 1356.43C1387.57 1338.88 1405.4 1321.13 1423.01 1303.16C1424.5 1301.65 1426.1 1300.28 1427.83 1299.05C1428.66 1298.48 1429.59 1298.19 1430.6 1298.19H1674.96C1676.63 1298.19 1678.23 1298.82 1679.46 1299.95C1688.96 1308.79 1697.2 1318.85 1707.74 1327.04C1708.56 1327.66 1709.47 1327.96 1710.48 1327.96H1949.01C1949.33 1327.96 1949.63 1328.09 1949.85 1328.31C1950.08 1328.54 1950.2 1328.84 1950.2 1329.16V1332.37C1950.2 1333.4 1949.69 1333.92 1948.65 1333.92H1706.38C1705.62 1333.92 1704.87 1333.77 1704.18 1333.47C1703.48 1333.17 1702.85 1332.74 1702.33 1332.19L1674.64 1303.43C1673.95 1302.71 1673.12 1302.15 1672.21 1301.76C1671.3 1301.37 1670.32 1301.17 1669.34 1301.17H1435.93C1435.11 1301.17 1434.3 1301.33 1433.54 1301.64C1432.78 1301.95 1432.1 1302.41 1431.52 1302.98C1413 1321.46 1394.56 1339.89 1376.2 1358.28C1372.98 1361.52 1370.75 1366.64 1364.92 1366.64C1286.51 1366.68 1208.01 1366.69 1129.43 1366.67C1128.63 1366.67 1127.85 1366.9 1127.18 1367.33C1126.51 1367.76 1125.99 1368.37 1125.67 1369.08C1114.69 1394.01 1080.98 1358.31 1109.68 1351.52C1117.07 1349.77 1122.82 1352.42 1126.92 1359.47C1127.46 1360.36 1128.24 1360.81 1129.28 1360.81ZM1104.86 1366.32C1105.15 1367.97 1106.05 1369.45 1107.39 1370.46C1108.73 1371.47 1110.4 1371.94 1112.07 1371.76C1115.96 1371.33 1118.8 1369.38 1120.58 1365.93C1120.98 1365.16 1121.21 1364.32 1121.25 1363.46C1121.29 1362.6 1121.14 1361.74 1120.82 1360.93C1120.5 1360.13 1120.01 1359.41 1119.38 1358.82C1118.75 1358.23 1118 1357.78 1117.19 1357.5C1111.35 1355.54 1103.58 1359.02 1104.86 1366.32Z" fill="#FBFBFB"/>
<path d="M1127.04 1205.11C1119.99 1219.67 1097.3 1218.21 1099.41 1199.16C1100.54 1188.92 1116.06 1183.94 1122.13 1191.42C1127.04 1197.52 1128.03 1199.9 1136.78 1199.93C1207.07 1199.93 1277.35 1199.93 1347.62 1199.93C1355.42 1199.93 1364.47 1197.25 1371.05 1203.51C1390.16 1221.71 1408.87 1240.31 1427.18 1259.3C1433.73 1266.09 1499.68 1262.61 1512.75 1262.79C1566.22 1263.54 1619.7 1263.41 1673.18 1262.4C1674.21 1262.38 1675.11 1262.02 1675.89 1261.33C1682.97 1255.02 1703.7 1229.74 1711.85 1229.74C1790.64 1229.7 1869.41 1229.69 1948.18 1229.71C1949.57 1229.71 1950.26 1230.4 1950.26 1231.79V1233.58C1950.26 1234.97 1949.57 1235.66 1948.18 1235.66C1875.25 1235.66 1802.32 1235.66 1729.39 1235.66C1719.03 1235.66 1712.75 1232.77 1704.41 1241.41C1697.32 1248.75 1690.25 1256.1 1683.18 1263.44C1677.76 1269.13 1673.24 1268.53 1665.91 1268.36C1610.38 1267.13 1554.82 1267.79 1499.29 1267.7C1483.99 1267.67 1453.91 1269.07 1431.05 1267.34C1430.13 1267.26 1429.35 1266.91 1428.69 1266.27L1367.95 1205.83C1367.16 1205.05 1366.21 1204.57 1365.09 1204.37C1362.86 1204.01 1360.6 1202.91 1358.42 1202.91C1282.88 1202.91 1206.93 1202.91 1130.59 1202.91C1129.84 1202.91 1129.12 1203.12 1128.49 1203.51C1127.86 1203.9 1127.36 1204.45 1127.04 1205.11ZM1112.22 1193.8C1110.18 1193.8 1108.22 1194.61 1106.78 1196.05C1105.34 1197.49 1104.53 1199.44 1104.53 1201.48C1104.53 1203.52 1105.34 1205.47 1106.78 1206.91C1108.22 1208.35 1110.18 1209.16 1112.22 1209.16C1114.25 1209.16 1116.21 1208.35 1117.65 1206.91C1119.09 1205.47 1119.9 1203.52 1119.9 1201.48C1119.9 1199.44 1119.09 1197.49 1117.65 1196.05C1116.21 1194.61 1114.25 1193.8 1112.22 1193.8Z" fill="#FBFBFB"/>
<path d="M1256.65 1390.49H1327.64C1328.73 1390.49 1329.63 1390.1 1330.35 1389.3C1361.1 1355.89 1372.09 1411.99 1342.97 1404.67C1336.15 1402.97 1334.49 1395.97 1324.99 1396.27C1298.09 1397.06 1274.87 1397.37 1255.31 1397.19C1254.16 1397.17 1253.24 1397.62 1252.55 1398.53C1247.96 1404.55 1241.67 1406.37 1233.67 1404.01C1232.69 1403.71 1231.87 1403.18 1231.2 1402.4C1227.5 1398.17 1224.03 1396.14 1220.78 1396.3C1206.44 1396.97 1192.12 1397.03 1177.81 1396.48C1174.95 1396.38 1173.08 1398.15 1172.18 1401.81C1171.92 1402.84 1171.27 1403.48 1170.22 1403.74C1130.38 1413.3 1152.74 1362.44 1171.2 1383.56C1174.92 1387.81 1175.34 1390.37 1181.89 1390.43C1194.55 1390.51 1207.24 1390.52 1219.94 1390.46C1220.99 1390.46 1221.92 1390.14 1222.71 1389.48C1237.33 1377.45 1239.74 1372.42 1254 1389.27C1254.7 1390.09 1255.58 1390.49 1256.65 1390.49ZM1157.44 1399.34C1160.32 1400.61 1163.21 1400.27 1166.11 1398.32C1167.4 1397.46 1168.33 1396.17 1168.75 1394.67C1169.17 1393.18 1169.05 1391.58 1168.4 1390.17C1167.19 1387.56 1165.24 1385.78 1162.56 1384.81C1161.51 1384.43 1160.53 1384.54 1159.62 1385.13C1155.35 1387.89 1154.05 1391.98 1155.72 1397.4C1155.99 1398.31 1156.57 1398.96 1157.44 1399.34ZM1247.63 1391.83L1241.32 1384.72C1241.08 1384.44 1240.78 1384.21 1240.45 1384.05C1240.12 1383.89 1239.76 1383.8 1239.39 1383.77C1239.02 1383.75 1238.65 1383.8 1238.3 1383.92C1237.96 1384.04 1237.64 1384.23 1237.36 1384.48L1236.14 1385.55C1235.26 1386.32 1234.51 1387.23 1233.93 1388.2C1233.35 1389.18 1232.95 1390.22 1232.76 1391.25C1232.57 1392.28 1232.58 1393.29 1232.8 1394.22C1233.02 1395.14 1233.45 1395.97 1234.05 1396.66L1234.89 1397.58C1236.1 1398.96 1237.97 1399.66 1240.08 1399.53C1242.19 1399.4 1244.37 1398.45 1246.14 1396.89L1247.39 1395.79C1247.67 1395.55 1247.9 1395.25 1248.06 1394.92C1248.22 1394.59 1248.31 1394.23 1248.34 1393.86C1248.36 1393.49 1248.31 1393.13 1248.19 1392.78C1248.07 1392.43 1247.88 1392.11 1247.63 1391.83ZM1341.48 1386.81C1340.19 1388.07 1339.53 1389.88 1339.64 1391.81C1339.75 1393.75 1340.63 1395.66 1342.08 1397.13C1343.52 1398.59 1345.42 1399.5 1347.36 1399.64C1349.29 1399.78 1351.1 1399.14 1352.39 1397.87C1353.68 1396.6 1354.34 1394.8 1354.22 1392.87C1354.11 1390.93 1353.23 1389.02 1351.79 1387.55C1350.34 1386.08 1348.44 1385.18 1346.51 1385.04C1344.57 1384.9 1342.76 1385.54 1341.48 1386.81Z" fill="#FBFBFB"/>
<path d="M1330.73 1176.71C1306.95 1176.77 1283.15 1176.83 1259.33 1176.89C1247.84 1176.92 1246.89 1189.54 1230.15 1183.79C1229.38 1183.54 1228.79 1183.04 1228.4 1182.31L1226.13 1178.08C1225.54 1176.99 1224.64 1176.47 1223.42 1176.53C1212.79 1177.01 1198.5 1176.78 1180.58 1175.84C1176.43 1175.65 1173.66 1177.54 1172.27 1181.53C1171.91 1182.56 1171.21 1183.26 1170.16 1183.62C1164.48 1185.54 1158.78 1185.67 1153.07 1184C1151.96 1183.69 1151.13 1183.03 1150.6 1182.04C1141.69 1165.45 1155.48 1157.09 1170.16 1162.92C1171.11 1163.3 1171.86 1163.9 1172.42 1164.74C1177.99 1173.25 1209.28 1169.53 1220.15 1170.1C1224.53 1170.34 1226.82 1168.67 1227.89 1164.65C1228.15 1163.62 1228.78 1162.93 1229.8 1162.59C1235.41 1160.69 1241.01 1160.6 1246.59 1162.33C1247.62 1162.62 1248.45 1163.22 1249.06 1164.11C1252.18 1168.66 1257.39 1170.71 1264.69 1170.28C1276.56 1169.56 1298.51 1169.44 1330.53 1169.92C1331.62 1169.94 1332.44 1169.48 1333 1168.55L1335.65 1164.11C1336.22 1163.18 1337.04 1162.56 1338.09 1162.24C1369.17 1152.74 1367.18 1193.83 1337.97 1184C1336.96 1183.67 1336.18 1183.04 1335.65 1182.13L1333.38 1178.2C1332.79 1177.2 1331.91 1176.71 1330.73 1176.71ZM1231.91 1174.45C1231.91 1175.82 1232.44 1177.13 1233.39 1178.12C1234.34 1179.11 1235.63 1179.69 1237 1179.75C1241.17 1179.92 1244.54 1178.44 1247.1 1175.28C1247.89 1174.31 1248.01 1173.26 1247.45 1172.15C1243.11 1163.04 1231.85 1163.1 1231.91 1174.45ZM1354.59 1172.22C1354.45 1170.31 1353.48 1168.55 1351.9 1167.31C1350.33 1166.07 1348.27 1165.47 1346.18 1165.62C1345.15 1165.7 1344.14 1165.96 1343.21 1166.4C1342.29 1166.83 1341.46 1167.42 1340.78 1168.15C1340.1 1168.87 1339.58 1169.7 1339.25 1170.6C1338.92 1171.51 1338.78 1172.46 1338.86 1173.4C1339 1175.3 1339.96 1177.07 1341.54 1178.31C1343.12 1179.54 1345.18 1180.15 1347.26 1179.99C1348.3 1179.92 1349.31 1179.65 1350.23 1179.22C1351.16 1178.79 1351.99 1178.19 1352.67 1177.47C1353.35 1176.75 1353.87 1175.91 1354.2 1175.01C1354.53 1174.11 1354.66 1173.16 1354.59 1172.22Z" fill="#FBFBFB"/>
<path d="M1554.82 915.998C1545.11 933.833 1524.81 924.008 1528.14 906.113C1528.36 904.942 1528.95 903.999 1529.9 903.284C1538.85 896.634 1546.8 897.468 1553.75 905.785C1554.36 906.521 1555.13 907.114 1555.99 907.52C1556.86 907.926 1557.8 908.137 1558.75 908.138H1633.31C1634.08 908.137 1634.85 908.292 1635.57 908.594C1636.29 908.895 1636.95 909.337 1637.51 909.894L1696.61 968.968C1697.38 969.748 1698.33 970.327 1699.38 970.654C1700.43 970.981 1701.54 971.046 1702.62 970.844C1710.62 969.355 1716.86 971.816 1721.32 978.228C1721.98 979.141 1722.86 979.598 1723.97 979.598H1948.27C1949.54 979.598 1950.18 980.233 1950.2 981.503L1950.29 986.624C1950.31 987.895 1949.68 988.53 1948.39 988.53C1877.96 988.53 1807.55 988.53 1737.16 988.53C1729.54 988.53 1725.01 985.225 1718.76 992.371C1714.12 997.691 1708.33 999.051 1701.4 996.45C1688.18 991.508 1699.38 981.265 1691.25 972.779C1672.85 953.584 1654.15 934.687 1635.15 916.088C1634.48 915.432 1633.67 914.976 1632.74 914.718C1628.91 913.666 1625.12 913.259 1621.37 913.497C1600.08 914.837 1578.73 913.676 1557.41 914.39C1556.24 914.43 1555.38 914.966 1554.82 915.998ZM1548.41 914.668C1549.09 912.965 1548.98 911.032 1548.11 909.295C1547.24 907.558 1545.69 906.16 1543.79 905.407C1541.88 904.654 1539.79 904.609 1537.97 905.281C1536.15 905.953 1534.75 907.287 1534.07 908.991C1533.4 910.694 1533.51 912.627 1534.38 914.364C1535.24 916.101 1536.8 917.499 1538.7 918.252C1540.6 919.005 1542.69 919.051 1544.52 918.379C1546.34 917.706 1547.74 916.372 1548.41 914.668ZM1707.63 976.322C1706.61 976.322 1705.6 976.522 1704.66 976.912C1703.72 977.301 1702.87 977.871 1702.15 978.59C1701.43 979.309 1700.86 980.162 1700.47 981.101C1700.08 982.041 1699.88 983.047 1699.88 984.064C1699.88 985.08 1700.08 986.087 1700.47 987.026C1700.86 987.966 1701.43 988.819 1702.15 989.538C1702.87 990.257 1703.72 990.827 1704.66 991.216C1705.6 991.605 1706.61 991.805 1707.63 991.805C1709.68 991.805 1711.65 990.99 1713.1 989.538C1714.55 988.086 1715.37 986.117 1715.37 984.064C1715.37 982.011 1714.55 980.042 1713.1 978.59C1711.65 977.138 1709.68 976.322 1707.63 976.322Z" fill="#FBFBFB"/>
<path d="M1578.73 1530.44H1636.79C1638.47 1530.43 1640.09 1529.77 1641.29 1528.59C1653.73 1516.38 1667.16 1499.02 1681.22 1489.52C1681.99 1489.01 1682.84 1488.75 1683.78 1488.75H1947.73C1948.08 1488.75 1948.42 1488.82 1948.74 1488.96C1949.06 1489.1 1949.35 1489.3 1949.59 1489.55C1949.82 1489.81 1950.01 1490.11 1950.12 1490.44C1950.24 1490.76 1950.29 1491.11 1950.26 1491.46L1950.17 1492.59C1950.09 1493.7 1949.5 1494.26 1948.39 1494.26C1861.72 1494.68 1775.06 1494.81 1688.39 1494.68C1679.43 1494.65 1651.32 1527.04 1644.5 1534.34C1643.95 1534.94 1643.28 1535.42 1642.53 1535.76C1641.78 1536.1 1640.97 1536.28 1640.16 1536.3C1621.34 1536.68 1602.63 1536.39 1584.03 1535.44C1578.87 1535.18 1575.5 1537.27 1573.94 1541.72C1573.62 1542.63 1573.02 1543.31 1572.15 1543.74C1558.13 1550.83 1538.8 1537.7 1552.29 1523.91C1560.51 1515.55 1570.99 1518.67 1575.87 1528.65C1576.45 1529.84 1577.4 1530.44 1578.73 1530.44ZM1558.69 1525.79L1554.52 1532.37C1554.05 1533.1 1553.89 1533.99 1554.08 1534.84C1554.26 1535.69 1554.77 1536.43 1555.51 1536.9L1557.62 1538.24C1558.66 1538.9 1559.79 1539.41 1560.94 1539.73C1562.08 1540.06 1563.23 1540.19 1564.3 1540.13C1565.37 1540.07 1566.35 1539.82 1567.19 1539.38C1568.03 1538.94 1568.7 1538.33 1569.17 1537.58L1569.65 1536.84C1570.61 1535.33 1570.69 1533.36 1569.88 1531.35C1569.07 1529.34 1567.43 1527.46 1565.33 1526.12L1563.22 1524.78C1562.85 1524.55 1562.45 1524.39 1562.02 1524.32C1561.6 1524.24 1561.16 1524.25 1560.74 1524.35C1560.32 1524.44 1559.93 1524.62 1559.57 1524.86C1559.22 1525.11 1558.92 1525.43 1558.69 1525.79Z" fill="#FBFBFB"/>
<path d="M1844.08 1444.24C1850.19 1439.09 1862.31 1423.45 1870.82 1423.39C1896.69 1423.16 1922.55 1423.05 1948.42 1423.07C1949.47 1423.07 1949.85 1423.56 1949.55 1424.56C1949.45 1424.91 1949.35 1425.23 1949.25 1425.51C1949.05 1425.96 1948.71 1426.19 1948.24 1426.19C1922.84 1426.25 1892.92 1423.54 1868.14 1427.68C1867.15 1427.86 1866.29 1428.31 1865.55 1429.02L1843.61 1451.2C1843.04 1451.78 1842.37 1452.24 1841.64 1452.55C1840.9 1452.86 1840.11 1453.02 1839.32 1453.02C1779.61 1453.02 1719.95 1453.02 1660.34 1453.02C1649.95 1453.02 1642.51 1449.18 1633.78 1457.93C1626.58 1465.2 1619.42 1472.5 1612.32 1479.85C1605.68 1486.73 1609.55 1490.95 1606.69 1497.98C1599.84 1514.83 1574.38 1505.01 1581.68 1487.56C1584.8 1480.12 1592.04 1478.66 1599.3 1480C1600.28 1480.17 1601.22 1480.07 1602.13 1479.67C1612.29 1475.23 1626.37 1456.38 1635.69 1448.29C1636.46 1447.63 1637.36 1447.3 1638.37 1447.3C1737 1446.97 1801.51 1446.9 1831.88 1447.09C1837.47 1447.12 1839.62 1448.05 1844.08 1444.24ZM1599.53 1487.17C1598.88 1486.55 1598.09 1486.08 1597.21 1485.8C1596.34 1485.51 1595.39 1485.41 1594.42 1485.51C1593.45 1485.6 1592.48 1485.89 1591.56 1486.35C1590.65 1486.81 1589.8 1487.43 1589.08 1488.19C1587.63 1489.71 1586.75 1491.67 1586.65 1493.64C1586.55 1495.6 1587.23 1497.41 1588.54 1498.67C1589.19 1499.29 1589.98 1499.75 1590.85 1500.04C1591.73 1500.32 1592.68 1500.42 1593.65 1500.33C1594.62 1500.23 1595.59 1499.95 1596.51 1499.49C1597.42 1499.03 1598.26 1498.4 1598.99 1497.65C1600.44 1496.13 1601.32 1494.17 1601.42 1492.2C1601.52 1490.23 1600.84 1488.43 1599.53 1487.17Z" fill="#FBFBFB"/>
<path d="M1639.05 1479.7C1652.04 1480.14 1653.79 1473.77 1662.37 1466C1663.14 1465.29 1664.06 1464.93 1665.11 1464.93H1863.26C1864.27 1464.93 1865.19 1464.62 1866 1464.01C1872.25 1459.36 1879.58 1447.36 1887.14 1447.18C1907.68 1446.75 1928.22 1446.96 1948.74 1447.81C1949.28 1447.83 1949.54 1448.11 1949.52 1448.64C1949.52 1448.94 1949.55 1449.26 1949.61 1449.6C1949.67 1449.92 1949.66 1450.26 1949.57 1450.58C1949.49 1450.9 1949.34 1451.2 1949.13 1451.46C1948.92 1451.72 1948.66 1451.93 1948.36 1452.07C1948.06 1452.22 1947.74 1452.3 1947.4 1452.31L1888.21 1453.32C1887.18 1453.34 1886.25 1453.66 1885.41 1454.27C1880.59 1457.78 1871.03 1470.86 1865.97 1470.86C1801.85 1470.89 1737.74 1470.9 1673.62 1470.88C1662.31 1470.88 1652.72 1480.26 1652.51 1491.46C1652.24 1505.6 1633.58 1513.46 1626.64 1500.06C1621.55 1490.18 1627.98 1479.34 1639.05 1479.7Z" fill="#FBFBFB"/>
</svg>
