<svg width="1440" height="890" viewBox="0 0 1440 890" fill="none" xmlns="http://www.w3.org/2000/svg">
<g clip-path="url(#clip0_537_2197)">
<path d="M0 228.696L0 220.979L258.975 221.129C259.626 221.129 260.183 220.897 260.646 220.434L305.122 175.69C305.573 175.227 306.117 174.995 306.756 174.995L476.927 174.939C477.528 174.939 478.041 175.158 478.467 175.596C483.874 181.041 509.876 210.013 515.359 209.938C529.114 209.738 542.869 209.732 556.625 209.919C557.263 209.932 557.801 210.164 558.239 210.614L586.101 239.042C586.551 239.505 587.064 239.586 587.64 239.286C608.63 228.414 629.958 252.072 615.577 270.267C598.586 291.728 567.495 269.966 580.675 246.421C581.013 245.807 580.938 245.257 580.45 244.768L555.217 219.364C554.52 218.667 553.574 218.275 552.588 218.275L510.102 218.275C509.438 218.275 508.875 218.037 508.412 217.561L475.05 183.745C474.612 183.295 474.074 183.069 473.435 183.069L310.68 183.069C310.005 183.07 309.358 183.332 308.877 183.802C302.907 189.697 265.489 229.447 261.096 229.466C174.058 229.954 87.0258 229.697 0 228.696ZM598.736 244.75C595.31 244.75 592.025 246.111 589.602 248.533C587.18 250.956 585.819 254.242 585.819 257.668C585.819 261.094 587.18 264.38 589.602 266.802C592.025 269.225 595.31 270.586 598.736 270.586C602.162 270.586 605.447 269.225 607.869 266.802C610.292 264.38 611.653 261.094 611.653 257.668C611.653 254.242 610.292 250.956 607.869 248.533C605.447 246.111 602.162 244.75 598.736 244.75Z" fill="#FBFBFB"/>
<path d="M278.951 468.508C272.436 455.477 290.478 449.413 294.571 460.322C297.462 468.039 290.291 473.559 282.781 471.644C282.08 471.469 281.479 471.631 280.978 472.132L249.794 503.47C249.344 503.92 248.799 504.146 248.161 504.146C202.013 504.146 155.909 504.146 109.849 504.146C107.033 504.146 67.6069 545.266 62.3125 550.505C61.9245 550.905 61.4489 551.105 60.8856 551.105L2.32815 551.049C1.71485 551.049 1.4082 550.742 1.4082 550.129L1.4082 548.702C1.4082 548.438 1.51106 548.185 1.69415 547.998C1.87723 547.812 2.12555 547.707 2.38447 547.707L59.8155 547.838C60.3662 547.838 60.8356 547.644 61.2236 547.256L106.864 501.442C107.252 501.054 107.715 500.86 108.254 500.86L246.884 500.86C247.66 500.86 248.323 500.585 248.874 500.034L278.669 470.236C279.182 469.735 279.276 469.159 278.951 468.508Z" fill="#FBFBFB"/>
<path d="M278.463 383.62C285.39 379.226 293.764 385.309 291.886 393.383C289.464 403.785 272.53 401.551 275.083 387.919C275.221 387.181 275.027 386.549 274.501 386.023L255.408 366.927C254.882 366.402 254.25 366.139 253.511 366.139C210.443 366.139 167.399 366.139 124.381 366.139C121.715 366.139 88.1648 331.046 83.49 326.427C83.0394 325.976 82.4949 325.751 81.8566 325.751C55.7476 325.801 29.7074 325.795 3.73612 325.732C2.44068 325.732 1.7648 325.112 1.31422 323.967C1.25351 323.808 1.2322 323.637 1.25211 323.468C1.27202 323.299 1.33256 323.138 1.42854 322.998C1.52452 322.857 1.65308 322.743 1.8032 322.663C1.95332 322.583 2.12052 322.541 2.29049 322.54L82.9831 322.352C83.734 322.352 84.3786 322.615 84.9168 323.141L123.799 362.027C124.349 362.578 125.013 362.853 125.789 362.853L255.032 362.853C255.708 362.853 256.277 363.091 256.741 363.566L276.585 383.413C277.161 383.976 277.787 384.045 278.463 383.62Z" fill="#FBFBFB"/>
<path d="M324.329 470.836L324.272 368.88C324.272 368.142 324.016 367.516 323.503 367.003C311.262 354.648 299.065 342.45 286.911 330.408C284.583 328.098 284.17 329.112 281.748 329.093C230.926 328.549 180.085 328.736 129.281 328.774C128.63 328.774 128.061 328.555 127.572 328.117L98.3031 301.943C97.9527 301.63 97.5396 301.467 97.064 301.454L2.30938 300.797C1.70859 300.797 1.4082 300.503 1.4082 299.915L1.4082 299.239C1.4082 298.463 1.80247 298.075 2.59099 298.075H97.9276C98.5534 298.075 99.1042 298.287 99.5798 298.713L128.849 324.756C129.25 325.119 129.725 325.3 130.276 325.3L284.94 325.3C285.314 325.3 285.684 325.373 286.029 325.515C286.374 325.656 286.686 325.864 286.949 326.127L326.732 365.97C327.04 366.279 327.284 366.647 327.449 367.053C327.613 367.46 327.695 367.896 327.689 368.336L327.013 470.198C327.001 470.836 327.257 471.343 327.783 471.719C332.12 474.723 336.926 477.765 334.11 483.829C327.821 497.442 308.802 483.904 320.668 473.371C321.093 472.995 321.569 472.726 322.095 472.563L323.352 472.169C324.003 471.969 324.329 471.525 324.329 470.836Z" fill="#FBFBFB"/>
<path d="M551.011 406.414C562.752 410.896 566.932 418.556 563.553 429.397C557.301 449.469 527.675 441.883 529.89 421.961C530.628 415.327 534.383 410.439 541.155 407.297C541.781 406.996 542.087 406.502 542.075 405.813L541.493 316.982C541.48 316.332 541.249 315.781 540.798 315.33L510.571 285.006C510.208 284.643 509.764 284.462 509.238 284.462H336.532C335.756 284.462 335.093 284.737 334.542 285.288L309.91 309.923C309.422 310.398 308.84 310.636 308.164 310.636L140.001 310.617C139.35 310.617 138.8 310.392 138.349 309.941L106.564 278.153C106.138 277.715 105.619 277.496 105.006 277.496L2.98521 276.839C2.15913 276.826 1.74609 276.407 1.74609 275.581L1.74609 270.079C1.74609 269.353 2.10907 268.99 2.83501 268.99C37.9182 268.953 72.9513 268.946 107.934 268.971C110.506 268.99 137.692 297.586 141.747 301.567C142.248 302.055 142.842 302.299 143.531 302.299L305.029 302.299C305.542 302.299 305.973 302.118 306.324 301.755L330.787 277.308C331.338 276.757 332.001 276.482 332.777 276.482H513.124C513.788 276.482 514.357 276.72 514.833 277.195L549.434 311.894C549.91 312.357 550.148 312.921 550.148 313.584L549.904 404.8C549.904 405.588 550.273 406.126 551.011 406.414ZM547.369 414.695C544.949 414.695 542.628 415.656 540.917 417.367C539.206 419.079 538.245 421.4 538.245 423.82C538.245 426.24 539.206 428.561 540.917 430.273C542.628 431.984 544.949 432.945 547.369 432.945C549.789 432.945 552.11 431.984 553.821 430.273C555.532 428.561 556.493 426.24 556.493 423.82C556.493 421.4 555.532 419.079 553.821 417.367C552.11 415.656 549.789 414.695 547.369 414.695Z" fill="#FBFBFB"/>
<path d="M491.252 826.236C494.801 814.012 511.303 815.89 512.073 828.02C512.805 839.398 496.453 843.135 491.553 831.399C491.265 830.723 490.758 830.385 490.032 830.385H433.258C432.607 830.385 432.056 830.16 431.606 829.709L409.771 808.098C409.296 807.622 408.726 807.384 408.063 807.384H363.286C362.539 807.384 361.823 807.087 361.296 806.558L327.445 772.723C327.082 772.36 326.65 772.179 326.15 772.179L116.909 772.179C116.67 772.179 116.434 772.132 116.215 772.042C115.996 771.952 115.798 771.819 115.632 771.653L87.3013 743.319C86.8382 742.844 86.2687 742.606 85.5928 742.606H3.39829C2.69738 742.606 2.34692 742.249 2.34692 741.536C2.34692 741.148 2.34692 740.766 2.34692 740.39C2.34692 739.677 2.69738 739.32 3.39829 739.32H87.0009C87.6643 739.32 88.2338 739.558 88.7094 740.034L117.04 768.348C117.403 768.711 117.835 768.893 118.335 768.893L327.145 768.893C327.933 768.893 328.603 769.168 329.154 769.719L362.816 803.385C363.279 803.861 363.849 804.099 364.525 804.099H409.508C410.172 804.099 410.735 804.336 411.198 804.812L432.92 826.63C433.333 827.056 433.834 827.269 434.422 827.269L490.126 827.081C490.714 827.081 491.09 826.799 491.252 826.236ZM501.559 821.11C499.642 821.11 497.804 821.872 496.448 823.227C495.093 824.583 494.331 826.422 494.331 828.339C494.331 830.256 495.093 832.095 496.448 833.45C497.804 834.806 499.642 835.568 501.559 835.568C503.476 835.568 505.315 834.806 506.671 833.45C508.026 832.095 508.788 830.256 508.788 828.339C508.788 826.422 508.026 824.583 506.671 823.227C505.315 821.872 503.476 821.11 501.559 821.11Z" fill="#FBFBFB"/>
<path d="M802.026 890H798.74C791.531 887.046 789.841 882.089 793.671 875.129C793.996 874.553 793.928 874.034 793.464 873.571L761.06 841.482C760.559 840.994 759.965 840.75 759.276 840.75L626.222 841.012C625.571 841.012 625.02 840.781 624.57 840.318L568.227 783.989C567.864 783.626 567.433 783.444 566.932 783.444H365.445C364.844 783.444 364.337 783.231 363.924 782.806L333.434 752.2C332.984 751.75 332.439 751.524 331.801 751.524L115.876 751.524C115.188 751.524 114.599 751.286 114.111 750.811C106.126 742.975 98.2092 735.076 90.3615 727.115C87.0759 723.773 85.5552 724.449 81.1995 724.392C55.4535 724.092 29.7137 724.23 3.98023 724.805C3.07906 724.818 2.57841 724.374 2.47828 723.472L2.38441 722.515C2.3686 722.36 2.38551 722.204 2.43405 722.056C2.4826 721.908 2.56168 721.773 2.66616 721.658C2.77064 721.542 2.89817 721.451 3.04047 721.388C3.18277 721.325 3.33665 721.294 3.4921 721.294L88.5028 721.52C89.1787 721.52 89.7482 721.757 90.2113 722.233L115.35 747.412C115.901 747.963 116.564 748.238 117.34 748.238L333.19 748.238C333.691 748.238 334.123 748.42 334.486 748.783L365.032 779.332C365.595 779.883 366.264 780.158 367.04 780.158H568.171C568.784 780.158 569.31 780.377 569.748 780.815L625.921 836.882C626.409 837.37 626.991 837.614 627.667 837.614L761.304 837.802C762.03 837.802 762.656 838.058 763.181 838.572L796.187 871.655C796.625 872.106 797.157 872.306 797.783 872.256C810.624 871.186 813.854 886.789 802.026 890Z" fill="#FBFBFB"/>
<path d="M936.113 789.809C916.662 763.053 955.112 734.043 975.408 758.978C992.211 779.632 971.503 804.924 946.457 798.146C945.844 797.971 945.312 798.115 944.862 798.578L904.027 840.036C903.589 840.487 903.051 840.712 902.413 840.712H801.2C800.686 840.712 800.248 840.53 799.885 840.167L772.137 812.322C771.661 811.846 771.092 811.609 770.428 811.609L629.883 811.609C629.107 811.609 628.437 811.333 627.874 810.782L576.864 759.748C576.388 759.285 575.819 759.047 575.155 759.035L366.139 758.64C365.513 758.64 364.975 758.421 364.525 757.983C355.438 749.296 346.576 740.421 337.94 731.358C336.138 729.481 335.049 730.382 333.19 730.382C260.633 730.407 188.02 730.413 115.35 730.401C115.035 730.401 114.724 730.34 114.434 730.221C114.144 730.101 113.881 729.926 113.661 729.706L89.066 705.053C88.4159 704.415 87.553 704.057 86.6629 704.057L3.54842 704.245C3.01022 704.245 2.72861 703.976 2.70357 703.438L2.23421 694.181C2.19666 693.38 2.57841 692.973 3.37945 692.961L91.732 692.341C92.1729 692.341 92.6087 692.427 93.0146 692.595C93.4205 692.762 93.7885 693.008 94.0976 693.317L118.917 718.121C119.28 718.484 119.712 718.665 120.213 718.665L340.7 718.665C341.193 718.666 341.659 718.855 341.995 719.191L369.387 746.586C369.913 747.112 370.545 747.375 371.283 747.375L579.398 746.868C580.062 746.868 580.631 747.099 581.107 747.562L632.192 798.653C632.579 799.04 633.036 799.347 633.539 799.556C634.041 799.766 634.579 799.874 635.121 799.873L774.915 799.873C775.704 799.873 776.373 800.149 776.924 800.699L805.067 828.864C805.252 829.049 805.472 829.195 805.713 829.295C805.955 829.395 806.214 829.446 806.475 829.446H896.949C897.725 829.446 898.389 829.171 898.939 828.62L935.963 791.593C936.526 791.042 936.576 790.448 936.113 789.809ZM956.014 761.382C952.483 761.382 949.098 762.784 946.601 765.281C944.105 767.777 942.703 771.164 942.703 774.694C942.703 778.225 944.105 781.611 946.601 784.108C949.098 786.604 952.483 788.007 956.014 788.007C959.544 788.007 962.93 786.604 965.426 784.108C967.922 781.611 969.325 778.225 969.325 774.694C969.325 771.164 967.922 767.777 965.426 765.281C962.93 762.784 959.544 761.382 956.014 761.382Z" fill="#FBFBFB"/>
<path d="M887.524 748.708H785.879C785.177 748.708 784.482 748.845 783.835 749.113C783.187 749.38 782.6 749.772 782.106 750.266L758.563 773.812C758.087 774.288 757.511 774.525 756.835 774.525L640.509 774.525C639.883 774.525 639.357 774.306 638.932 773.868L591.583 726.758C591.195 726.37 590.732 726.176 590.193 726.176H368.918C368.142 726.176 367.478 725.901 366.928 725.35L344.53 702.95C344.054 702.487 343.485 702.255 342.821 702.255L132.604 702.199C131.953 702.199 131.39 701.967 130.914 701.504L95.8998 666.486C95.3991 665.985 94.7921 665.735 94.0787 665.735L3.37931 665.829C3.18048 665.83 2.98479 665.779 2.8115 665.682C2.63821 665.584 2.49329 665.443 2.39099 665.273C2.28869 665.102 2.23254 664.908 2.22807 664.709C2.2236 664.511 2.27096 664.314 2.36549 664.139L2.70343 663.519C2.96627 663.019 3.38557 662.768 3.96132 662.768L95.6369 662.374C96.2002 662.362 96.6758 662.556 97.0638 662.956L132.529 698.406C132.892 698.769 133.323 698.951 133.824 698.951L343.91 698.951C344.344 698.95 344.776 699.038 345.179 699.209C345.582 699.38 345.948 699.63 346.257 699.946L367.923 722.158C368.398 722.646 368.98 722.89 369.669 722.89C433.402 722.878 497.116 722.884 560.811 722.909C568.19 722.909 580.13 723.717 589.987 722.665C593.892 722.252 634.426 764.856 640.208 770.639C640.609 771.039 641.097 771.24 641.673 771.24L755.671 771.24C756.46 771.24 757.123 770.964 757.661 770.413L782.049 746.042C782.4 745.679 782.825 745.497 783.326 745.497L887.562 745.178C888.213 745.178 888.638 744.871 888.838 744.258C894.283 727.322 917.864 729.969 918.54 746.38C919.309 764.799 893.382 768.742 888.632 749.572C888.494 748.996 888.125 748.708 887.524 748.708ZM903.539 735.902C900.472 735.902 897.53 737.121 895.361 739.29C893.192 741.459 891.974 744.401 891.974 747.469C891.974 750.536 893.192 753.478 895.361 755.647C897.53 757.816 900.472 759.035 903.539 759.035C906.606 759.035 909.548 757.816 911.717 755.647C913.885 753.478 915.104 750.536 915.104 747.469C915.104 744.401 913.885 741.459 911.717 739.29C909.548 737.121 906.606 735.902 903.539 735.902Z" fill="#FBFBFB"/>
<path d="M654.214 656.647L578.403 656.685C577.852 656.685 577.377 656.879 576.976 657.267L554.635 679.611C554.222 680.036 553.721 680.249 553.133 680.249L386.547 680.136C385.884 680.136 385.314 679.905 384.839 679.442L347.646 642.227C347.208 641.789 346.683 641.57 346.069 641.57L204.247 641.551C203.634 641.551 203.115 641.338 202.689 640.913L174.903 613.123C174.54 612.76 174.108 612.579 173.607 612.579H3.26682C3.09791 612.578 2.93469 612.524 2.80235 612.426C2.67001 612.328 2.57592 612.19 2.53461 612.034C2.07151 610.382 2.28429 609.55 3.17295 609.537C60.2598 609.299 117.34 609.087 174.415 608.899C175.04 608.899 175.572 609.118 176.01 609.556L204.172 637.645C204.673 638.146 205.274 638.396 205.974 638.396L347.421 638.396C348.085 638.396 348.648 638.628 349.111 639.091L385.796 676.043C386.209 676.469 386.71 676.688 387.298 676.7C442.77 677.539 480.87 677.72 501.597 677.245C521.823 676.782 538.151 676.844 550.579 677.433C554.015 677.602 572.377 657.605 575.887 654.037C576.288 653.624 576.776 653.418 577.352 653.418H654.796C655.422 653.418 655.879 653.142 656.167 652.591C661.555 642.133 675.936 648.573 672.482 659.182C669.741 667.65 658.176 666.467 655.435 657.548C655.247 656.948 654.84 656.647 654.214 656.647Z" fill="#FBFBFB"/>
<path d="M606.734 625.685C614.281 607.659 637.224 626.867 622.617 637.138C617.46 640.756 612.641 639.955 608.161 634.735C607.81 634.309 607.541 633.84 607.353 633.327L606.546 631.111C606.271 630.335 605.72 629.947 604.894 629.947H577.802C577.164 629.947 576.626 630.172 576.188 630.623L552.551 654.563C552.075 655.051 551.499 655.295 550.824 655.295H391.917C391.141 655.295 390.471 655.02 389.908 654.469L355.607 620.164C355.244 619.801 354.812 619.62 354.311 619.62L211.663 619.62C210.666 619.619 209.714 619.228 209.016 618.531L183.351 593.089C182.888 592.626 182.331 592.394 181.68 592.394H3.15418C2.96135 592.394 2.77581 592.32 2.63601 592.188C2.4962 592.055 2.41285 591.873 2.40321 591.681L2.34688 590.31C2.29682 589.509 2.67856 589.108 3.49212 589.108H182.995C183.495 589.108 183.927 589.29 184.29 589.653L210.199 615.564C210.724 616.077 211.357 616.334 212.095 616.334C259.87 616.321 307.601 616.321 355.288 616.334C357.897 616.334 387.167 647.071 391.41 651.277C391.91 651.765 392.511 652.009 393.212 652.009H549.153C549.941 652.009 550.604 651.734 551.143 651.183L574.742 627.6C575.205 627.137 575.762 626.899 576.413 626.886L605.307 626.623C605.995 626.623 606.471 626.31 606.734 625.685ZM616.741 621.591C614.839 621.591 613.014 622.347 611.669 623.692C610.324 625.037 609.569 626.862 609.569 628.764C609.569 630.666 610.324 632.491 611.669 633.836C613.014 635.181 614.839 635.936 616.741 635.936C618.643 635.936 620.467 635.181 621.812 633.836C623.157 632.491 623.912 630.666 623.912 628.764C623.912 626.862 623.157 625.037 621.812 623.692C620.467 622.347 618.643 621.591 616.741 621.591Z" fill="#FBFBFB"/>
<path d="M383.656 606.045L406.617 628.858C407.055 629.296 407.587 629.516 408.213 629.516L471.351 629.459C472.027 629.459 472.49 629.146 472.74 628.52C475.913 620.728 486.052 618.531 491.008 625.554C500.245 638.641 477.678 651.09 472.29 633.759C472.09 633.121 471.658 632.801 470.994 632.801C463.954 632.783 407.387 633.815 405.678 632.144C391.923 618.825 378.305 605.375 364.825 591.794C364.099 591.068 363.267 590.874 362.328 591.212C361.865 591.374 361.383 591.456 360.882 591.456L215.624 591.23C214.873 591.23 214.235 590.968 213.709 590.442L189.659 566.314C189.221 565.876 188.696 565.657 188.082 565.657C126.64 565.632 65.1973 565.632 3.75481 565.657C2.26537 565.657 1.85859 564.806 2.53447 563.103C2.73473 562.603 3.11022 562.352 3.66094 562.352H189.321C189.997 562.352 190.567 562.59 191.03 563.066L197.132 569.149C197.595 569.625 198.164 569.863 198.84 569.863H251.559C252.084 569.863 252.529 569.681 252.892 569.318L281.579 540.534C282.055 540.059 282.63 539.821 283.306 539.821H358.592C359.368 539.821 360.031 539.545 360.582 538.995L400.909 498.682C401.261 498.33 401.675 498.052 402.129 497.862C402.584 497.672 403.069 497.574 403.557 497.574H491.365C491.878 497.574 492.31 497.392 492.66 497.029L523.694 466.011C524.232 465.46 524.896 465.185 525.684 465.185L656.711 465.185C657.387 465.185 657.831 464.866 658.044 464.227C662.381 451.159 679.729 447.704 686.675 459.683C699.31 481.37 662.813 496.635 657.218 469.334C657.093 468.758 656.736 468.471 656.148 468.471L526.586 468.471C525.935 468.471 525.378 468.702 524.915 469.165L494.087 500.184C493.636 500.634 493.092 500.86 492.454 500.86C463.791 500.86 435.185 500.86 406.636 500.86C403.275 500.86 401.773 502.137 399.633 504.352C387.192 517.245 374.55 529.938 361.708 542.431C361.245 542.881 360.688 543.107 360.037 543.107H284.902C284.126 543.107 283.463 543.382 282.912 543.933L254.882 571.947C254.502 572.334 254.047 572.641 253.544 572.85C253.041 573.06 252.5 573.168 251.953 573.168L202.107 573.111C202.023 573.108 201.939 573.13 201.868 573.175C201.797 573.22 201.742 573.286 201.709 573.364C201.676 573.441 201.668 573.527 201.685 573.61C201.703 573.692 201.745 573.767 201.806 573.825L215.418 587.456C215.894 587.932 216.463 588.17 217.126 588.17L282.63 588.17C283.281 588.17 283.851 587.945 284.339 587.494L310.51 562.559C310.974 562.108 311.531 561.883 312.181 561.883H389.57C390.358 561.883 391.022 561.608 391.56 561.057L405.997 546.637C406.46 546.161 407.03 545.923 407.706 545.923H501.334C501.997 545.923 502.56 545.692 503.024 545.228C511.059 537.442 518.944 529.569 526.679 521.608C528.125 520.124 594.023 520.951 601.965 520.857C602.616 520.844 603.073 520.544 603.335 519.955C606.17 513.459 613.999 511.6 618.524 517.195C626.991 527.672 608.592 539.164 603.091 525.063C602.841 524.412 602.365 524.086 601.665 524.086L529.871 523.786C529.333 523.786 528.87 523.98 528.482 524.368L504.601 548.045C504.163 548.47 503.631 548.689 503.005 548.702L432.3 548.833C431.074 548.833 430.911 549.259 431.812 550.11L445.743 563.066C446.243 563.529 446.832 563.761 447.508 563.761H529.909C530.685 563.761 531.348 563.485 531.899 562.934L549.04 545.81C549.59 545.26 550.254 544.984 551.03 544.984H566.462C567.001 544.984 567.389 544.74 567.626 544.252C576.075 526.64 598.398 547.087 582.853 556.964C575.925 561.357 568.715 556.626 566.951 549.359C566.775 548.633 566.319 548.27 565.58 548.27H552.269C551.606 548.27 551.036 548.508 550.56 548.984L533.776 565.751C533.225 566.302 532.562 566.577 531.786 566.577H445.893C445.242 566.577 444.679 566.358 444.203 565.92L426.499 549.416C426.023 548.977 425.466 548.758 424.828 548.758L409.771 548.74C408.995 548.74 408.332 549.009 407.781 549.547L392.761 564.53C392.286 564.994 391.71 565.225 391.034 565.225L313.514 564.925C312.926 564.925 312.419 565.125 311.994 565.526L288.882 587.475C288.823 587.528 288.781 587.597 288.764 587.674C288.746 587.751 288.753 587.832 288.783 587.907C288.813 587.982 288.866 588.047 288.934 588.094C289.002 588.141 289.082 588.167 289.164 588.17H365.013C365.513 588.17 365.939 588.345 366.289 588.696L379.563 601.576C380.064 602.064 380.658 602.302 381.346 602.29L511.397 602.252C512.023 602.252 512.599 602.083 513.124 601.745C521.592 596.413 531.054 583.964 538.545 576.641C539.008 576.191 539.559 575.965 540.197 575.965H583.81C584.448 575.965 584.987 575.734 585.425 575.271L599.111 560.832C599.662 560.243 600.344 559.949 601.158 559.949L696.964 560.306C697.564 560.306 698.078 560.099 698.503 559.686L715.4 542.769C715.851 542.331 716.389 542.112 717.015 542.112L752.123 542.299C752.786 542.299 753.243 541.999 753.493 541.398C756.779 533.249 766.354 531.296 771.799 538.244C781.242 550.26 758.957 564.305 753.174 546.393C752.974 545.767 752.548 545.454 751.898 545.454C740.771 545.454 729.669 545.447 718.592 545.435C715.607 545.435 702.859 559.63 699.892 562.521C699.404 562.997 698.822 563.235 698.146 563.235L602.021 563.46C601.433 563.46 600.945 563.667 600.557 564.08L590.081 575.102C590.01 575.172 589.963 575.262 589.944 575.36C589.924 575.458 589.934 575.56 589.972 575.652C590.01 575.744 590.075 575.823 590.158 575.879C590.24 575.935 590.338 575.965 590.437 575.965L714.461 576.003C715.137 576.003 715.632 575.702 715.945 575.102C722.966 562.071 738.38 573.881 731.189 583.175C726.045 589.822 718.629 587.156 715.625 580.134C715.375 579.558 714.931 579.27 714.292 579.27C664.934 579.232 615.407 578.538 566.068 579.514C559.81 579.627 552.288 579.464 543.501 579.026C538.845 578.782 519.263 600.487 514.758 604.862C514.295 605.313 513.738 605.538 513.087 605.538H383.862C383.805 605.54 383.749 605.559 383.701 605.592C383.654 605.625 383.617 605.671 383.595 605.725C383.574 605.778 383.568 605.837 383.578 605.894C383.589 605.951 383.616 606.003 383.656 606.045ZM482.559 624.596C480.647 624.596 478.814 625.356 477.462 626.708C476.11 628.06 475.35 629.894 475.35 631.806C475.35 633.718 476.11 635.552 477.462 636.905C478.814 638.257 480.647 639.016 482.559 639.016C483.506 639.016 484.444 638.83 485.318 638.468C486.193 638.105 486.988 637.574 487.657 636.905C488.327 636.235 488.858 635.44 489.22 634.565C489.582 633.691 489.769 632.753 489.769 631.806C489.769 630.859 489.582 629.922 489.22 629.047C488.858 628.172 488.327 627.377 487.657 626.708C486.988 626.038 486.193 625.507 485.318 625.145C484.444 624.783 483.506 624.596 482.559 624.596ZM577.389 541.004C575.517 541.004 573.721 541.748 572.398 543.071C571.074 544.395 570.33 546.191 570.33 548.064C570.33 549.936 571.074 551.732 572.398 553.056C573.721 554.38 575.517 555.124 577.389 555.124C579.261 555.124 581.057 554.38 582.381 553.056C583.705 551.732 584.448 549.936 584.448 548.064C584.448 546.191 583.705 544.395 582.381 543.071C581.057 541.748 579.261 541.004 577.389 541.004ZM673.214 457.449C670.346 457.449 667.595 458.588 665.567 460.617C663.539 462.645 662.4 465.396 662.4 468.264C662.4 471.132 663.539 473.883 665.567 475.912C667.595 477.94 670.346 479.079 673.214 479.079C676.082 479.079 678.833 477.94 680.861 475.912C682.889 473.883 684.028 471.132 684.028 468.264C684.028 465.396 682.889 462.645 680.861 460.617C678.833 458.588 676.082 457.449 673.214 457.449ZM763.406 537.23C761.499 537.23 759.67 537.987 758.322 539.336C756.973 540.685 756.216 542.514 756.216 544.421C756.216 545.365 756.402 546.301 756.763 547.173C757.124 548.046 757.654 548.838 758.322 549.506C758.99 550.174 759.782 550.704 760.655 551.065C761.527 551.426 762.462 551.612 763.406 551.612C765.313 551.612 767.142 550.855 768.491 549.506C769.839 548.157 770.597 546.328 770.597 544.421C770.597 542.514 769.839 540.685 768.491 539.336C767.142 537.987 765.313 537.23 763.406 537.23Z" fill="#FBFBFB"/>
<path d="M32.7239 444.906C40.071 437.534 47.4368 430.186 54.8215 422.863C55.8916 421.793 85.7617 422.469 90.0986 422.45C90.5142 422.45 90.9195 422.317 91.2566 422.071C91.5938 421.825 91.8456 421.478 91.9761 421.079C95.1114 411.24 109.943 414.489 108.892 425.755C108.085 434.598 94.9049 435.18 91.563 426.468C91.3878 425.992 91.0436 425.755 90.5305 425.755H57.7315C56.9555 425.755 56.2921 426.03 55.7414 426.581L34.5075 447.76C34.0194 448.249 33.9318 448.806 34.2447 449.432C38.3187 457.674 28.6687 464.866 21.234 460.322C12.0157 454.726 19.9385 440.926 31.1657 445.244C31.7539 445.47 32.2733 445.357 32.7239 444.906Z" fill="#FBFBFB"/>
<path d="M42.1298 370.495L59.7215 388.07C60.1721 388.533 60.7228 388.79 61.3736 388.84C74.8724 390.023 91.5066 389.028 101.588 389.14C137.36 389.553 173.138 389.522 208.922 389.046C209.598 389.034 210.174 389.265 210.649 389.741L245.157 424.252C245.632 424.74 246.177 424.834 246.79 424.534C257.116 419.426 264.907 433.471 255.332 439.855C247.879 444.831 239.712 436.194 242.941 428.139C243.204 427.463 243.079 426.874 242.566 426.374L209.748 393.553C209.398 393.196 208.978 392.912 208.514 392.719C208.05 392.525 207.55 392.426 207.045 392.426L60.8479 392.426C60.1721 392.426 59.6026 392.188 59.1395 391.713L40.534 373.124C40.0959 372.673 39.5828 372.548 38.9945 372.748C23.1301 378.081 21.7595 356.92 33.4936 356.357C39.4513 356.069 42.7243 359.117 43.3126 365.501C43.3627 365.989 43.2751 366.452 43.0498 366.89L41.9233 369.106C41.6605 369.619 41.7293 370.082 42.1298 370.495Z" fill="#FBFBFB"/>
<path d="M209.936 469.766L192.907 452.755C192.432 452.279 191.862 452.041 191.199 452.041L85.8931 452.041C85.1046 452.041 84.4412 452.317 83.903 452.867L43.7257 493.049C43.2126 493.562 43.0749 494.163 43.3127 494.851C45.7909 501.742 41.7732 509.328 34.2634 507.995C21.7596 505.798 25.9275 486.158 39.877 491.227C40.5528 491.478 41.1474 491.346 41.6605 490.833L83.2272 449.225C83.7153 448.736 84.3098 448.492 85.0107 448.492L192.25 448.849C192.901 448.849 193.452 449.081 193.903 449.544L212.02 467.588C212.408 467.976 212.833 468.032 213.297 467.757C217.001 465.591 220.287 465.429 223.153 467.269C234.155 474.347 222.778 489.293 212.771 481.464C209.967 479.261 209.172 475.956 210.386 471.55C210.587 470.861 210.437 470.267 209.936 469.766Z" fill="#FBFBFB"/>
<path d="M138.724 652.347L140.658 651.409C141.271 651.096 141.922 650.958 142.611 650.995C150.045 651.427 154.382 658.093 150.364 664.59C144.657 673.846 131.064 666.692 134.988 655.99C135.226 655.314 135.095 654.726 134.594 654.225L113.473 633.139C112.922 632.576 112.246 632.294 111.445 632.294H79.3032C78.9754 632.294 78.6547 632.389 78.3809 632.57C78.1072 632.75 77.8925 633.007 77.7636 633.308C75.5983 638.227 72.2565 640.249 67.7381 639.373C50.8974 636.143 66.8369 609.763 78.0828 628.558C78.4583 629.171 79.0028 629.478 79.7162 629.478H113.792C114.468 629.478 115.037 629.716 115.5 630.191L136.941 652.028C137.466 652.566 138.061 652.673 138.724 652.347Z" fill="#FBFBFB"/>
<path d="M383.675 246.721C385.533 240.844 391.41 238.047 396.911 241.276C410.353 249.143 390.677 266.812 384.219 251.941C383.981 251.403 383.574 251.134 382.999 251.134H313.852C313.189 251.134 312.62 251.365 312.144 251.828L286.141 277.815C285.778 278.178 285.34 278.359 284.827 278.359L161.31 278.359C160.634 278.359 160.065 278.122 159.602 277.646L145.427 263.376C144.964 262.9 144.407 262.75 143.756 262.925C133.505 265.61 126.671 254.232 134.575 247.904C142.442 241.614 152.017 250.026 147.473 259.433C147.16 260.071 147.254 260.641 147.755 261.141L160.916 274.304C161.429 274.804 162.042 275.055 162.756 275.055C203.008 275.08 243.254 275.086 283.494 275.074C286.235 275.074 307.394 251.997 310.792 248.449C311.18 248.048 311.656 247.848 312.219 247.848H382.135C382.924 247.848 383.437 247.472 383.675 246.721Z" fill="#FBFBFB"/>
<path d="M175.335 539.821H206.068C206.682 539.821 207.214 539.608 207.664 539.183C218.165 529.144 225.306 522.021 229.086 517.815C231.602 515.017 232.784 514.135 236.877 514.36C255.126 515.355 275.478 514.548 291.548 514.83C304.215 515.043 316.888 515.055 329.567 514.867C330.205 514.855 330.674 514.567 330.975 514.004C339.536 498.213 357.184 518.378 343.253 524.931C337.339 527.71 332.965 524.218 330.656 518.716C330.393 518.078 329.911 517.759 329.21 517.759C298.795 517.746 268.381 517.753 237.966 517.778C234.868 517.796 232.803 518.397 230.513 520.726C223.341 528.023 216.1 535.252 208.791 542.412C208.315 542.875 207.739 543.107 207.063 543.107H174.509C173.833 543.107 173.295 543.37 172.894 543.896C163.413 556.006 148.919 538.206 161.329 531.541C165.96 529.05 170.003 530.195 173.457 534.977C173.845 535.515 174.052 536.122 174.077 536.798L174.152 538.676C174.177 539.439 174.571 539.821 175.335 539.821Z" fill="#FBFBFB"/>
<path d="M200.98 663.05C198.596 673.771 183.295 671.161 183.501 660.196C183.67 651.765 196.625 648.93 200.661 658.149C200.937 658.763 201.406 659.069 202.069 659.069C247.341 659.032 292.587 659.038 337.809 659.088C341.526 659.088 376.221 695.74 381.553 700.997C382.029 701.473 382.598 701.71 383.261 701.71L519.902 701.673C520.615 701.673 521.091 701.341 521.329 700.678C524.37 692.341 535.372 691.327 538.169 699.739C541.812 710.648 526.604 716.656 521.498 705.804C521.21 705.203 520.734 704.902 520.071 704.902L381.478 704.921C380.777 704.921 380.182 704.677 379.694 704.189L338.672 662.919C338.487 662.734 338.268 662.587 338.026 662.487C337.784 662.388 337.525 662.336 337.264 662.336H201.882C201.393 662.336 201.093 662.574 200.98 663.05Z" fill="#FBFBFB"/>
<path d="M298.945 227.664H329.36C329.77 227.664 330.175 227.583 330.553 227.425C330.93 227.267 331.271 227.035 331.557 226.744L354.537 203.348C354.851 203.022 355.228 202.763 355.644 202.585C356.06 202.408 356.507 202.316 356.959 202.316L451.544 202.316C452.183 202.316 452.633 202.028 452.896 201.452C456.219 194.073 464.311 191.932 470.3 197.603C483.442 210.108 456.35 225.242 452.708 206.616C452.583 205.94 452.17 205.602 451.469 205.602L358.498 205.602C358.01 205.601 357.525 205.699 357.071 205.889C356.617 206.079 356.202 206.358 355.851 206.709L332.589 229.955C332.139 230.418 331.588 230.649 330.937 230.649L297.857 230.893C297.218 230.893 296.718 231.156 296.355 231.682C288.3 243.474 272.605 227.57 283.888 219.534C289.54 215.497 297.068 219.459 297.763 226.594C297.838 227.307 298.232 227.664 298.945 227.664ZM462.922 197.659C461.034 197.659 459.224 198.409 457.89 199.744C456.556 201.078 455.806 202.888 455.806 204.775C455.806 206.663 456.556 208.473 457.89 209.807C459.224 211.142 461.034 211.892 462.922 211.892C464.809 211.892 466.619 211.142 467.953 209.807C469.287 208.473 470.037 206.663 470.037 204.775C470.037 202.888 469.287 201.078 467.953 199.744C466.619 198.409 464.809 197.659 462.922 197.659Z" fill="#FBFBFB"/>
<path d="M462.846 446.126C473.973 434.998 485.088 423.851 496.19 412.686C498.067 410.808 497.091 409.681 497.091 407.785C497.041 383.263 497.035 358.716 497.072 334.144C497.072 333.543 496.843 332.97 496.434 332.548L478.748 314.185C478.415 313.84 478.016 313.566 477.574 313.379C477.132 313.192 476.657 313.096 476.176 313.096H390.903C390.164 313.096 389.532 313.359 389.006 313.884L371.358 331.553C370.858 332.054 370.739 332.629 371.002 333.28C377.93 350.217 352.528 354.779 351.57 339.12C351.026 330.276 359.455 324.925 367.36 329.394C367.985 329.744 368.549 329.663 369.049 329.15L387.58 310.636C388.118 310.085 388.781 309.81 389.57 309.81H477.04C477.658 309.81 478.269 309.931 478.836 310.166C479.404 310.401 479.916 310.746 480.344 311.181L499.4 330.239C500.217 331.055 500.676 332.163 500.677 333.318L500.208 412.273C500.208 412.761 500.032 413.18 499.682 413.531L464.761 448.417C464.261 448.918 464.173 449.481 464.499 450.107C467.402 455.79 466.295 460.446 461.175 464.077C452.07 470.536 440.486 458.951 447.301 449.375C450.505 444.868 455.155 443.892 461.251 446.446C461.851 446.696 462.383 446.59 462.846 446.126ZM361.727 331.422C360.81 331.422 359.902 331.602 359.054 331.953C358.207 332.304 357.437 332.819 356.789 333.467C356.14 334.116 355.626 334.886 355.275 335.733C354.924 336.581 354.743 337.489 354.743 338.406C354.743 340.259 355.479 342.035 356.789 343.345C358.098 344.655 359.875 345.391 361.727 345.391C363.579 345.391 365.356 344.655 366.666 343.345C367.975 342.035 368.711 340.259 368.711 338.406C368.711 337.489 368.531 336.581 368.18 335.733C367.829 334.886 367.314 334.116 366.666 333.467C366.017 332.819 365.247 332.304 364.4 331.953C363.553 331.602 362.644 331.422 361.727 331.422ZM455.581 448.229C453.664 448.229 451.825 448.991 450.47 450.347C449.114 451.702 448.352 453.541 448.352 455.458C448.352 457.375 449.114 459.214 450.47 460.57C451.825 461.926 453.664 462.687 455.581 462.687C457.498 462.687 459.336 461.926 460.692 460.57C462.047 459.214 462.809 457.375 462.809 455.458C462.809 453.541 462.047 451.702 460.692 450.347C459.336 448.991 457.498 448.229 455.581 448.229Z" fill="#FBFBFB"/>
<path d="M366.102 431.95V377.255C366.102 376.641 366.321 376.116 366.759 375.677L398.788 343.344C399.239 342.894 399.783 342.669 400.421 342.669H436.525C437.201 342.669 437.689 342.368 437.989 341.767C444.673 328.286 460.518 339.702 453.891 349.146C449.254 355.737 440.805 354.009 437.858 346.63C437.682 346.18 437.357 345.954 436.881 345.954H402.261C401.485 345.954 400.822 346.23 400.271 346.781L370.138 376.823C369.675 377.298 369.444 377.868 369.444 378.531V432.889C369.444 433.54 369.688 434.072 370.176 434.485C372.466 436.438 374.513 437.977 374.926 441.151C377.16 458.237 348.829 450.971 359.437 436.945C360.901 435.011 362.873 434.447 365.088 433.49C365.764 433.202 366.102 432.689 366.102 431.95Z" fill="#FBFBFB"/>
<path d="M402.881 452.585C407.387 448.06 424.321 433.434 424.021 427.632C423.22 412.611 423.113 397.583 423.702 382.55C423.727 381.874 423.426 381.404 422.8 381.141C407.349 374.908 422.894 355.343 432.206 367.303C435.085 370.996 434.754 374.926 431.211 379.095C430.848 379.533 430.404 379.852 429.878 380.052L427.738 380.879C426.975 381.179 426.599 381.742 426.612 382.568L426.743 432.194C426.743 432.908 426.493 433.515 425.992 434.016L404.739 455.195C404.301 455.621 404.245 456.09 404.571 456.604C411.104 467.043 396.685 478.009 388.143 468.977C379.807 460.152 390.02 447.572 401.21 452.867C401.836 453.168 402.393 453.074 402.881 452.585ZM395.615 454.933C393.748 454.933 391.957 455.674 390.637 456.995C389.316 458.315 388.575 460.106 388.575 461.974C388.575 463.841 389.316 465.632 390.637 466.953C391.957 468.273 393.748 469.015 395.615 469.015C397.482 469.015 399.273 468.273 400.593 466.953C401.914 465.632 402.656 463.841 402.656 461.974C402.656 460.106 401.914 458.315 400.593 456.995C399.273 455.674 397.482 454.933 395.615 454.933Z" fill="#FBFBFB"/>
<path d="M504.038 99.9839C525.44 132.26 474.975 158.36 460.631 124.243C454.06 108.583 466.245 90.9712 483.423 90.1638C486.502 90.0136 489.675 91.0839 493.036 91.6471C493.787 91.7848 494.431 91.5845 494.97 91.0463L535.879 50.1138C536.43 49.5631 537.099 49.2877 537.888 49.2877L638.744 49.2877C639.383 49.2877 639.927 49.5129 640.378 49.9636L667.788 77.6775C668.276 78.1532 668.858 78.391 669.534 78.391L810.024 78.391C811.105 78.3911 812.145 78.8233 812.915 79.5927L863.399 130.627C863.887 131.115 864.476 131.359 865.164 131.359L1073.5 130.927C1074.19 130.915 1074.79 131.153 1075.31 131.641C1084.77 140.641 1092.75 148.696 1099.26 155.806C1101.8 158.585 1102.4 159.392 1106.36 159.43C1179.09 160.043 1251.83 160.087 1324.57 159.561C1325.21 159.561 1325.76 159.78 1326.21 160.218C1334.46 168.205 1342.52 176.272 1350.41 184.421C1353.37 187.482 1426.44 185.923 1436.21 185.905C1437.01 185.905 1437.41 186.305 1437.41 187.106V196.063C1437.41 196.751 1437.06 197.095 1436.38 197.095L1348.36 197.715C1347.67 197.715 1347.09 197.477 1346.62 197.001L1321.8 172.104C1321.28 171.591 1320.66 171.334 1319.94 171.334C1247.17 171.347 1174.44 171.347 1101.74 171.334C1098.02 171.334 1097.18 170.264 1094.85 167.748C1088.59 161.013 1080.51 152.983 1070.59 143.658C1070.12 143.207 1069.56 142.982 1068.9 142.982L860.245 142.775C859.569 142.775 858.994 142.537 858.518 142.062L807.695 91.2341C807.351 90.8831 806.939 90.6045 806.485 90.4143C806.03 90.2241 805.542 90.1261 805.048 90.1263L665.085 90.1263C664.309 90.1263 663.639 89.8509 663.076 89.3001L635.027 61.2482C634.589 60.8101 634.063 60.591 633.45 60.591L543.145 60.5723C542.381 60.5723 541.73 60.8414 541.192 61.3796L504.207 98.2377C503.668 98.7634 503.612 99.3455 504.038 99.9839ZM484.005 101.937C480.475 101.937 477.089 103.339 474.593 105.836C472.097 108.332 470.694 111.718 470.694 115.249C470.694 118.78 472.097 122.166 474.593 124.662C477.089 127.159 480.475 128.561 484.005 128.561C487.536 128.561 490.921 127.159 493.418 124.662C495.914 122.166 497.316 118.78 497.316 115.249C497.316 111.718 495.914 108.332 493.418 105.836C490.921 103.339 487.536 101.937 484.005 101.937Z" fill="#FBFBFB"/>
<path d="M535.973 259.827L516.41 240.112C515.972 239.674 515.44 239.448 514.814 239.436L481.884 239.304C481.296 239.304 480.87 239.567 480.607 240.093C473.567 254.006 456.688 241.952 465.494 231.625C468.36 228.27 471.965 227.719 476.308 229.973C476.896 230.273 477.422 230.648 477.885 231.099C479.099 232.276 480.006 233.628 480.607 235.155C480.845 235.781 481.295 236.087 481.959 236.075L515.697 235.493C516.112 235.487 516.524 235.565 516.908 235.723C517.292 235.881 517.64 236.116 517.931 236.413L538.32 257.442C538.524 257.656 538.795 257.795 539.088 257.836C539.381 257.877 539.679 257.817 539.934 257.668C553.114 249.951 563.74 270.379 549.472 276.219C539.916 280.124 533.1 270.398 536.348 261.573C536.599 260.91 536.474 260.328 535.973 259.827ZM545.811 259.47C544.881 259.47 543.961 259.653 543.102 260.009C542.243 260.365 541.463 260.886 540.806 261.544C540.149 262.201 539.627 262.981 539.272 263.84C538.916 264.699 538.733 265.619 538.733 266.549C538.733 267.478 538.916 268.399 539.272 269.258C539.627 270.117 540.149 270.897 540.806 271.554C541.463 272.212 542.243 272.733 543.102 273.089C543.961 273.445 544.881 273.628 545.811 273.628C547.688 273.628 549.488 272.882 550.816 271.554C552.143 270.227 552.889 268.426 552.889 266.549C552.889 264.672 552.143 262.871 550.816 261.544C549.488 260.216 547.688 259.47 545.811 259.47Z" fill="#FBFBFB"/>
<path d="M552.494 141.292L655.341 141.292C655.992 141.292 656.549 141.06 657.012 140.597L681.7 116.019C682.063 115.656 682.501 115.474 683.014 115.474L799.754 115.474C800.254 115.474 800.686 115.656 801.049 116.019L848.117 163.11C848.592 163.586 849.162 163.823 849.825 163.823L1071.48 163.823C1072.03 163.824 1072.56 164.047 1072.96 164.443L1095.45 187.05C1095.93 187.525 1096.5 187.763 1097.18 187.763L1307.6 187.763C1307.84 187.763 1308.08 187.81 1308.3 187.9C1308.52 187.99 1308.71 188.123 1308.88 188.289L1343.71 223.119C1344.18 223.607 1344.76 223.858 1345.45 223.87C1375.37 224.596 1405.27 224.64 1435.16 224.002C1436.71 223.983 1437.92 224.415 1437.65 226.161C1437.54 226.824 1437.15 227.156 1436.49 227.156L1344.44 227.494C1343.74 227.494 1343.14 227.244 1342.64 226.743L1307.77 191.875C1307.21 191.325 1306.54 191.049 1305.76 191.049L1096.37 191.049C1095.65 191.049 1095.02 190.793 1094.49 190.279L1071.95 167.973C1071.38 167.41 1070.7 167.128 1069.9 167.128L848.342 167.091C847.641 167.091 847.047 166.84 846.558 166.339L800.242 119.474C799.779 118.998 799.216 118.76 798.552 118.76L684.329 118.76C683.54 118.76 682.877 119.036 682.338 119.586L657.875 144.033C657.512 144.396 657.081 144.578 656.58 144.578L552.889 144.578C552.46 144.578 552.043 144.723 551.706 144.989C551.369 145.254 551.131 145.625 551.03 146.042C548.965 154.266 541.38 158.36 533.232 157.008C517.987 154.492 517.217 130.664 534.17 128.036C542.882 126.684 548.633 130.833 551.424 140.484C551.587 141.023 551.944 141.292 552.494 141.292ZM536.405 130.908C533.342 130.908 530.406 132.125 528.24 134.291C526.075 136.456 524.858 139.393 524.858 142.456C524.858 145.519 526.075 148.456 528.24 150.621C530.406 152.787 533.342 154.003 536.405 154.003C539.467 154.003 542.404 152.787 544.569 150.621C546.734 148.456 547.951 145.519 547.951 142.456C547.951 139.393 546.734 136.456 544.569 134.291C542.404 132.125 539.467 130.908 536.405 130.908Z" fill="#FBFBFB"/>
<path d="M565.993 97.393C545.078 107.682 545.416 70.5428 564.153 78.9546C570.011 81.5833 571.788 86.4214 569.485 93.4688C569.285 94.0821 569.416 94.6204 569.879 95.0836L589.837 115.268C590.287 115.719 590.832 115.944 591.47 115.944H624.213C624.788 115.944 625.176 115.681 625.377 115.155C629.526 104.246 644.846 108.396 642.574 119.23C640.64 128.449 628.681 128.693 625.564 120.131C625.352 119.53 624.92 119.23 624.269 119.23H590.062C589.424 119.23 588.879 119.005 588.429 118.554L567.608 97.6559C567.132 97.1802 566.594 97.0926 565.993 97.393ZM560.173 81.2829C558.281 81.2829 556.466 82.0346 555.128 83.3727C553.79 84.7108 553.039 86.5256 553.039 88.4179C553.039 89.3549 553.223 90.2827 553.582 91.1484C553.94 92.014 554.466 92.8006 555.128 93.4631C555.791 94.1257 556.577 94.6512 557.443 95.0098C558.308 95.3684 559.236 95.553 560.173 95.553C562.065 95.553 563.88 94.8012 565.218 93.4631C566.556 92.1251 567.307 90.3102 567.307 88.4179C567.307 86.5256 566.556 84.7108 565.218 83.3727C563.88 82.0346 562.065 81.2829 560.173 81.2829Z" fill="#FBFBFB"/>
<path d="M656.223 175.521C659.002 179.164 659.315 182.631 657.162 185.923C647.606 200.569 628.869 183.464 641.504 172.874C644.596 170.27 648.282 169.97 652.562 171.973C653.175 172.248 653.714 172.154 654.177 171.691L675.467 150.38C675.943 149.904 676.525 149.666 677.213 149.666L753.456 149.741C754.107 149.741 754.664 149.979 755.127 150.455L768.138 163.711C768.588 164.162 768.814 164.706 768.814 165.345V194.786C768.814 195.299 768.632 195.737 768.269 196.1L751.072 213.224C750.521 213.775 749.858 214.051 749.082 214.051H686.168C685.392 214.051 684.729 214.326 684.178 214.877L653.238 245.858C652.687 246.408 652.412 247.072 652.412 247.848V338.406C652.412 338.92 652.23 339.358 651.868 339.721L629.808 361.745C629.319 362.234 629.194 362.797 629.432 363.435C631.51 369.168 630.102 373.055 625.208 375.095C612.422 380.409 606.696 358.309 622.561 358.065C623.199 358.053 623.806 358.19 624.382 358.478L626.353 359.455C627.041 359.793 627.655 359.686 628.193 359.136L648.413 338.913C648.889 338.438 649.126 337.868 649.126 337.205V246.271C649.126 245.657 649.346 245.132 649.784 244.694L682.77 211.441C683.221 210.99 683.765 210.765 684.404 210.765H747.674C748.45 210.765 749.113 210.489 749.664 209.938L764.871 194.805C765.309 194.367 765.528 193.835 765.528 193.209V166.64C765.528 165.864 765.253 165.201 764.702 164.65L754.113 154.041C753.588 153.528 752.962 153.259 752.236 153.234C727.616 152.595 702.997 152.527 678.377 153.027C677.689 153.04 677.1 153.29 676.612 153.778L656.298 174.282C655.91 174.67 655.885 175.083 656.223 175.521ZM647.775 174.001C645.868 174.001 644.039 174.758 642.69 176.107C641.342 177.455 640.584 179.285 640.584 181.192C640.584 183.099 641.342 184.928 642.69 186.277C644.039 187.626 645.868 188.383 647.775 188.383C649.682 188.383 651.511 187.626 652.859 186.277C654.208 184.928 654.965 183.099 654.965 181.192C654.965 179.285 654.208 177.455 652.859 176.107C651.511 174.758 649.682 174.001 647.775 174.001Z" fill="#FBFBFB"/>
<path d="M629.075 689.807C610.695 684.08 626.672 660.234 638.556 672.213C644.32 678.034 641.673 686.709 634.05 689.657C633.462 689.882 633.168 690.314 633.168 690.952V719.304C633.168 719.98 633.406 720.55 633.882 721.013L656.993 744.127C657.519 744.653 658.119 744.778 658.795 744.502C671.712 739.207 677.157 758.059 664.615 761.101C656.599 763.016 652.938 754.623 655.04 747.826C655.203 747.3 655.09 746.849 654.702 746.474L630.671 722.553C630.12 721.989 629.845 721.314 629.845 720.525L629.958 691.008C629.958 690.395 629.664 689.995 629.075 689.807ZM631.159 672.345C630.212 672.345 629.275 672.531 628.4 672.894C627.526 673.256 626.731 673.787 626.061 674.457C625.392 675.126 624.861 675.921 624.499 676.796C624.136 677.67 623.95 678.608 623.95 679.555C623.95 680.502 624.136 681.439 624.499 682.314C624.861 683.189 625.392 683.984 626.061 684.653C626.731 685.323 627.526 685.854 628.4 686.216C629.275 686.579 630.212 686.765 631.159 686.765C633.071 686.765 634.905 686.005 636.257 684.653C637.609 683.301 638.369 681.467 638.369 679.555C638.369 677.643 637.609 675.809 636.257 674.457C634.905 673.104 633.071 672.345 631.159 672.345Z" fill="#FBFBFB"/>
<path d="M638.444 -0.000355899H641.729C648.476 3.3168 650.034 8.17986 646.404 14.5889C646.091 15.1271 646.16 15.6216 646.611 16.0722L678.978 48.3676C679.416 48.8057 679.954 49.0247 680.592 49.0247L813.872 49.0247C814.498 49.0247 815.03 49.2438 815.468 49.6819L871.716 105.992C872.092 106.368 872.542 106.556 873.068 106.556C940.18 106.568 1007.27 106.568 1074.35 106.556C1076.86 106.556 1102.87 133.931 1106.77 137.762C1107.26 138.238 1107.85 138.475 1108.54 138.475L1324.29 138.457C1324.92 138.457 1325.45 138.682 1325.89 139.133L1351.55 164.781C1352.02 165.257 1352.58 165.495 1353.24 165.495L1436.25 165.682C1436.8 165.682 1437.11 165.951 1437.18 166.49C1437.21 166.652 1437.25 166.809 1437.32 166.959C1437.73 167.998 1437.38 168.518 1436.26 168.518L1351.76 168.518C1350.98 168.518 1350.31 168.242 1349.75 167.691L1324.39 142.325C1323.94 141.861 1323.39 141.63 1322.75 141.63L1106.45 141.329C1105.89 141.329 1105.41 141.129 1105.01 140.729L1074.67 110.386C1074.31 110.023 1073.87 109.841 1073.37 109.841L872.073 109.841C871.297 109.841 870.627 109.566 870.064 109.015L814.323 53.2494C813.77 52.6965 813.021 52.3859 812.239 52.3857L680.029 52.3857C678.911 52.3859 677.839 51.9476 677.044 51.1653L643.813 17.9123C643.3 17.4116 642.693 17.2301 641.992 17.3678C629.582 19.8838 625.546 2.92876 638.444 -0.000355899Z" fill="#FBFBFB"/>
<path d="M679.485 610.176C683.014 613.725 698.485 631.036 702.277 631.055C712.828 631.143 723.379 631.024 733.931 630.698C734.557 630.686 735.001 630.392 735.264 629.816C743.712 611.152 763.463 637.758 745.346 640.969C740.79 641.783 737.416 639.843 735.226 635.148C734.926 634.498 734.419 634.172 733.705 634.172H700.024C699.348 634.172 698.772 633.934 698.297 633.459L677.269 612.41C676.769 611.91 676.212 611.841 675.599 612.204C669.459 615.846 662.062 613.03 660.091 606.552C654.74 588.996 686.15 587.926 679.147 608.674C678.947 609.25 679.059 609.75 679.485 610.176ZM669.91 596.187C667.993 596.187 666.154 596.949 664.799 598.305C663.443 599.66 662.682 601.499 662.682 603.416C662.682 605.334 663.443 607.172 664.799 608.528C666.154 609.884 667.993 610.645 669.91 610.645C670.859 610.645 671.799 610.458 672.676 610.095C673.553 609.732 674.35 609.199 675.021 608.528C675.692 607.857 676.225 607.06 676.588 606.183C676.951 605.306 677.138 604.366 677.138 603.416C677.138 602.467 676.951 601.527 676.588 600.65C676.225 599.773 675.692 598.976 675.021 598.305C674.35 597.634 673.553 597.101 672.676 596.738C671.799 596.374 670.859 596.187 669.91 596.187Z" fill="#FBFBFB"/>
<path d="M751.09 487.998C742.417 471.944 769.64 465.204 770.372 482.083C770.728 490.383 761.923 495.34 754.62 491.34C754.019 491.015 753.475 491.096 752.987 491.584L731.565 512.989C731.202 513.352 730.77 513.534 730.27 513.534H680.574C679.96 513.534 679.535 513.822 679.297 514.398C673.289 529.569 653.276 514.247 665.441 505.122C669.772 501.868 674.065 502.575 678.321 507.244C678.746 507.719 679.015 508.27 679.128 508.896C679.353 510.267 679.916 510.361 681.174 510.342C697.158 510.204 713.135 510.185 729.106 510.286C729.719 510.286 730.238 510.073 730.664 509.647L750.884 489.519C751.334 489.068 751.403 488.561 751.09 487.998ZM759.989 475.249C758.082 475.249 756.253 476.007 754.905 477.355C753.556 478.704 752.799 480.533 752.799 482.44C752.799 484.347 753.556 486.177 754.905 487.525C756.253 488.874 758.082 489.632 759.989 489.632C761.897 489.632 763.725 488.874 765.074 487.525C766.422 486.177 767.18 484.347 767.18 482.44C767.18 480.533 766.422 478.704 765.074 477.355C763.725 476.007 761.897 475.249 759.989 475.249Z" fill="#FBFBFB"/>
<path d="M1238.1 316.082L1224.69 302.657C1224.14 302.106 1223.47 301.831 1222.69 301.831H1157.46C1156.81 301.831 1156.25 302.056 1155.77 302.507L1129.49 327.46C1129.03 327.898 1128.48 328.118 1127.84 328.118H1050.43C1049.65 328.118 1048.99 328.393 1048.44 328.944L1034 343.364C1033.54 343.84 1032.97 344.077 1032.29 344.077L938.647 344.077C937.959 344.077 937.371 344.322 936.882 344.81C928.872 352.683 920.924 360.619 913.039 368.618C911.875 369.82 845.939 368.956 838.392 368.975C837.741 368.975 837.271 369.269 836.984 369.857C830.732 382.419 814.849 373.031 820.631 362.891C825.005 355.193 834.036 357.841 837.246 365.257C837.522 365.896 838.004 366.215 838.692 366.215L910.072 365.877C910.748 365.877 911.324 365.639 911.8 365.163C918.884 358.028 925.974 350.937 933.071 343.89C937.971 339.027 941.37 341.205 947.114 341.223C967.341 341.274 987.617 341.28 1007.94 341.242C1008.08 341.245 1008.22 341.205 1008.34 341.128C1008.46 341.05 1008.55 340.939 1008.6 340.809C1008.65 340.679 1008.67 340.536 1008.64 340.399C1008.61 340.261 1008.53 340.137 1008.43 340.041L994.445 327.047C993.869 326.509 993.181 326.24 992.38 326.24L909.678 326.24C909.165 326.24 908.733 326.421 908.383 326.784L890.847 344.303C890.384 344.778 889.815 345.016 889.139 345.016H873.537C872.974 345.016 872.567 345.273 872.317 345.786C868.731 353.203 860.151 354.498 854.707 348.49C844.287 336.999 866.722 320.889 873.068 340.773C873.268 341.411 873.706 341.73 874.382 341.73H887.731C888.407 341.73 888.976 341.493 889.439 341.017L906.412 324.062C906.887 323.574 907.469 323.33 908.158 323.33L994.069 323.367C994.683 323.367 995.215 323.574 995.665 323.987L1012.88 340.078C1013.37 340.516 1013.94 340.742 1014.59 340.754L1030.83 340.867C1031.48 340.879 1032.03 340.66 1032.48 340.21L1047.13 325.564C1047.55 325.126 1048.07 324.907 1048.68 324.907L1126.6 324.794C1127.26 324.794 1127.82 324.569 1128.29 324.118L1150.46 302.901C1151.12 302.262 1151 301.943 1150.09 301.943C1125.29 301.705 1100.52 301.699 1075.78 301.924C1072.98 301.943 1062.95 290.584 1060.38 288.03C1059.93 287.579 1059.39 287.354 1058.77 287.354L928.19 287.26C927.639 287.26 927.17 287.454 926.782 287.842L901.718 312.909C901.33 313.297 900.861 313.491 900.31 313.491L856.321 313.791C855.758 313.791 855.282 313.998 854.894 314.411L841.095 328.869C840.62 329.369 840.038 329.62 839.349 329.62L743.224 329.807C742.41 329.807 741.722 330.095 741.159 330.671L724.994 346.819C724.543 347.282 723.999 347.513 723.361 347.513L688.177 347.908C687.464 347.908 686.957 348.233 686.657 348.884C683.521 355.55 676.237 358.272 670.098 353.597C657.462 343.965 677.551 323.273 686.938 343.571C687.239 344.221 687.746 344.547 688.459 344.547H721.69C722.316 344.547 722.854 344.322 723.304 343.871L739.676 327.423C740.151 326.947 740.727 326.709 741.403 326.709L837.603 326.709C838.329 326.709 838.936 326.446 839.424 325.921L849.581 315.106C850.232 314.43 850.082 314.085 849.131 314.073L725.895 313.547C725.207 313.547 724.725 313.866 724.45 314.505C721.164 322.09 710.538 322.916 707.74 315.575C703.122 303.427 721.483 298.019 724.205 309.435C724.381 310.174 724.85 310.543 725.614 310.543L898.902 310.43C899.528 310.43 900.066 310.211 900.516 309.773L925.111 285.176C925.574 284.7 926.143 284.462 926.819 284.462L1055.03 284.462C1055.17 284.466 1055.31 284.426 1055.43 284.348C1055.55 284.27 1055.64 284.157 1055.7 284.024C1055.75 283.891 1055.76 283.744 1055.74 283.601C1055.71 283.459 1055.64 283.327 1055.54 283.223L1033.55 261.236C1033.08 260.773 1032.51 260.541 1031.84 260.541L969.081 260.504C968.355 260.504 967.829 260.823 967.504 261.461C962.829 270.662 951.057 271.244 947.621 261.349C943.172 248.618 962.378 241.183 967.823 256.204C968.048 256.805 968.48 257.099 969.118 257.087C989.545 256.648 1009.91 256.573 1030.23 256.861C1032.79 256.899 1034.67 257.506 1035.84 258.682C1048.9 271.863 1061.97 285.026 1075.06 298.169C1075.51 298.607 1076.06 298.833 1076.7 298.845C1125.8 298.958 1174.89 298.864 1223.96 298.564C1226.55 298.545 1246.96 320.307 1250.4 323.649C1250.89 324.124 1251.47 324.362 1252.16 324.362L1436.47 324.362C1437.26 324.362 1437.65 324.75 1437.65 325.526V326.465C1437.65 327.254 1437.26 327.648 1436.47 327.648L1250.68 327.648C1250 327.648 1249.43 327.41 1248.97 326.935L1242.87 320.851C1242.41 320.375 1241.84 320.138 1241.16 320.138H1188.46C1187.95 320.138 1187.51 320.319 1187.15 320.682L1158.4 349.466C1157.93 349.942 1157.36 350.18 1156.69 350.18H1081.41C1080.62 350.18 1079.96 350.455 1079.42 351.006L1039.47 390.943C1038.98 391.431 1038.39 391.719 1037.7 391.807C1034.53 392.183 1031.42 392.377 1028.37 392.389C1001.91 392.464 975.451 392.439 948.992 392.314C948.316 392.314 947.747 392.552 947.283 393.027L916.024 424.271C915.661 424.634 915.229 424.816 914.729 424.816H783.289C782.613 424.816 782.168 425.135 781.956 425.773C779.002 434.723 773.069 438.616 764.157 437.452C747.88 435.331 746.19 409.814 763.106 406.622C773.57 404.631 780.135 409.319 782.801 420.685C782.926 421.248 783.276 421.53 783.852 421.53L912.382 421.53C912.994 421.53 913.599 421.409 914.164 421.174C914.728 420.939 915.239 420.594 915.667 420.159L945.932 389.723C946.32 389.335 946.789 389.141 947.34 389.141L1035.41 389.141C1036.2 389.141 1036.86 388.865 1037.4 388.315L1078.29 347.438C1078.65 347.075 1079.09 346.894 1079.59 346.894H1155.1C1155.87 346.894 1156.54 346.619 1157.09 346.068L1185.51 317.659C1186.06 317.108 1186.73 316.833 1187.5 316.833L1237.76 316.908C1238.54 316.908 1238.65 316.633 1238.1 316.082ZM676.556 338.351C674.654 338.351 672.83 339.106 671.485 340.451C670.14 341.797 669.384 343.621 669.384 345.523C669.384 347.425 670.14 349.25 671.485 350.595C672.83 351.94 674.654 352.696 676.556 352.696C678.458 352.696 680.282 351.94 681.627 350.595C682.972 349.25 683.728 347.425 683.728 345.523C683.728 343.621 682.972 341.797 681.627 340.451C680.282 339.106 678.458 338.351 676.556 338.351ZM766.748 410.846C763.875 410.846 761.12 411.988 759.088 414.019C757.057 416.051 755.916 418.807 755.916 421.68C755.916 424.554 757.057 427.309 759.088 429.341C761.12 431.373 763.875 432.514 766.748 432.514C768.171 432.514 769.58 432.234 770.894 431.689C772.208 431.145 773.402 430.347 774.408 429.341C775.414 428.335 776.212 427.141 776.757 425.826C777.301 424.512 777.581 423.103 777.581 421.68C777.581 420.257 777.301 418.849 776.757 417.534C776.212 416.22 775.414 415.025 774.408 414.019C773.402 413.013 772.208 412.215 770.894 411.671C769.58 411.126 768.171 410.846 766.748 410.846ZM862.629 334.783C860.742 334.783 858.932 335.533 857.598 336.867C856.264 338.202 855.514 340.012 855.514 341.899C855.514 343.787 856.264 345.597 857.598 346.931C858.932 348.266 860.742 349.016 862.629 349.016C864.517 349.016 866.326 348.266 867.661 346.931C868.995 345.597 869.745 343.787 869.745 341.899C869.745 340.012 868.995 338.202 867.661 336.867C866.326 335.533 864.517 334.783 862.629 334.783ZM957.422 250.928C955.515 250.928 953.686 251.686 952.337 253.034C950.989 254.383 950.231 256.212 950.231 258.119C950.231 260.026 950.989 261.856 952.337 263.204C953.686 264.553 955.515 265.311 957.422 265.311C959.329 265.311 961.158 264.553 962.506 263.204C963.855 261.856 964.612 260.026 964.612 258.119C964.612 256.212 963.855 254.383 962.506 253.034C961.158 251.686 959.329 250.928 957.422 250.928Z" fill="#FBFBFB"/>
<path d="M687.126 398.378L708.153 377.142C708.591 376.691 709.13 376.466 709.768 376.466H759.501C760.202 376.466 760.684 376.141 760.947 375.49C766.654 361.145 784.678 374.138 776.042 383.601C771.123 388.971 763.519 387.45 760.891 380.484C760.715 379.996 760.365 379.752 759.839 379.752H711.026C710.362 379.752 709.793 379.984 709.317 380.447C702.709 386.831 696.225 393.302 689.867 399.862C687.652 402.152 689.717 402.903 690.186 404.894C692.045 412.479 685.004 419.314 677.739 417.586C662.738 414 670.511 391.112 685.455 398.641C686.081 398.954 686.638 398.866 687.126 398.378ZM680.048 400.312C678.146 400.312 676.322 401.068 674.977 402.413C673.632 403.758 672.876 405.582 672.876 407.485C672.876 409.387 673.632 411.211 674.977 412.557C676.322 413.902 678.146 414.657 680.048 414.657C681.95 414.657 683.774 413.902 685.119 412.557C686.464 411.211 687.22 409.387 687.22 407.485C687.22 405.582 686.464 403.758 685.119 402.413C683.774 401.068 681.95 400.312 680.048 400.312Z" fill="#FBFBFB"/>
<path d="M783.608 714.422C780.041 707.788 781.386 702.775 787.644 699.383C797.276 694.163 807.508 707.212 800.111 715.718C796.831 719.498 792.57 720.331 787.325 718.215C786.662 717.94 786.08 718.059 785.579 718.572L763.989 740.165C763.538 740.616 762.994 740.841 762.355 740.841L686.92 740.371C686.144 740.371 685.48 740.096 684.929 739.545L671.862 726.364C671.412 725.914 671.187 725.369 671.187 724.731V695.665C671.187 694.889 671.462 694.219 672.013 693.656L688.91 676.776C689.448 676.225 690.111 675.95 690.9 675.95H754.019C754.645 675.95 755.177 675.731 755.615 675.293L787.044 643.936C787.407 643.573 787.588 643.135 787.588 642.622V551.688C787.588 551.062 787.813 550.524 788.264 550.073L809.967 528.518C810.418 528.067 810.549 527.535 810.362 526.922C804.823 508.765 833.623 512.163 826.226 526.847C823.71 531.866 819.398 533.143 813.29 530.677C812.664 530.427 812.114 530.539 811.638 531.015L791.587 551.087C791.111 551.562 790.874 552.132 790.874 552.795V643.992C790.874 644.506 790.692 644.944 790.329 645.307L757.192 678.409C756.642 678.96 755.978 679.236 755.202 679.236H692.308C691.519 679.236 690.856 679.511 690.318 680.062L675.185 695.195C674.71 695.671 674.472 696.241 674.472 696.904V723.36C674.472 724.149 674.747 724.812 675.298 725.35L686.169 736.241C686.732 736.804 687.414 737.086 688.215 737.086L761.36 736.935C762.136 736.923 762.793 736.647 763.331 736.109L783.364 716.112C783.864 715.599 783.946 715.036 783.608 714.422ZM792.263 701.617C790.361 701.617 788.537 702.373 787.192 703.718C785.847 705.063 785.091 706.887 785.091 708.79C785.091 709.731 785.277 710.664 785.637 711.534C785.997 712.405 786.526 713.195 787.192 713.861C787.858 714.527 788.648 715.056 789.518 715.416C790.388 715.777 791.321 715.962 792.263 715.962C793.205 715.962 794.137 715.777 795.007 715.416C795.878 715.056 796.668 714.527 797.334 713.861C798 713.195 798.528 712.405 798.889 711.534C799.249 710.664 799.435 709.731 799.435 708.79C799.435 706.887 798.679 705.063 797.334 703.718C795.989 702.373 794.165 701.617 792.263 701.617Z" fill="#FBFBFB"/>
<path d="M760.478 279.655L740.971 260.127C740.345 259.514 739.594 259.207 738.718 259.207L706.37 259.076C705.556 259.076 704.999 259.451 704.699 260.202C698.522 275.28 679.053 259.545 691.012 250.495C696.795 246.12 701.676 249.556 704.83 254.964C705.156 255.54 705.656 255.828 706.332 255.828H740.257C740.908 255.828 741.465 256.059 741.928 256.522L762.918 277.42C763.419 277.934 763.988 278.021 764.627 277.683C770.434 274.642 775.078 275.53 778.557 280.35C786.574 291.465 769.696 304.064 761.529 292.592C759.339 289.512 759.107 285.782 760.834 281.401C761.097 280.738 760.978 280.156 760.478 279.655ZM770.071 279.373C768.184 279.373 766.374 280.123 765.04 281.457C763.705 282.792 762.956 284.602 762.956 286.489C762.956 288.377 763.705 290.187 765.04 291.521C766.374 292.856 768.184 293.606 770.071 293.606C771.958 293.606 773.768 292.856 775.103 291.521C776.437 290.187 777.187 288.377 777.187 286.489C777.187 284.602 776.437 282.792 775.103 281.457C773.768 280.123 771.958 279.373 770.071 279.373Z" fill="#FBFBFB"/>
<path d="M785.71 233.297L861.691 233.297C862.204 233.297 862.636 233.115 862.986 232.752L885.497 210.258C885.872 209.883 886.323 209.695 886.848 209.695L1053.28 209.789C1054.02 209.789 1054.65 210.052 1055.18 210.577L1092.13 247.548C1092.65 248.061 1093.29 248.318 1094.02 248.318C1141.19 248.305 1188.29 248.305 1235.34 248.318C1237.84 248.318 1261.27 273.103 1264.93 276.708C1265.43 277.183 1266.02 277.421 1266.71 277.421L1436.47 277.421C1437.26 277.421 1437.65 277.815 1437.65 278.604V279.768C1437.65 280.394 1437.34 280.707 1436.71 280.707L1265.4 280.707C1264.61 280.707 1263.94 280.432 1263.39 279.881L1235.96 252.43C1235.4 251.879 1234.73 251.604 1233.95 251.604L1093.14 251.604C1092.37 251.604 1091.7 251.328 1091.13 250.777L1053.73 213.356C1053.36 212.994 1052.86 212.786 1052.33 212.774L888.745 212.586C888.169 212.586 887.674 212.793 887.261 213.206L864.281 235.869C863.793 236.345 863.205 236.583 862.517 236.583L785.673 236.583C785.047 236.583 784.553 236.833 784.19 237.334C773.695 251.867 759.82 233.353 771.141 226.518C776.811 223.082 782.988 225.899 784.528 232.358C784.665 232.984 785.06 233.297 785.71 233.297Z" fill="#FBFBFB"/>
<path d="M811.15 200.325C819.11 202.578 822.227 212.116 816.407 217.731C804.185 229.485 788.846 206.859 805.912 200.362C806.184 200.256 806.417 200.07 806.581 199.829C806.745 199.588 806.833 199.302 806.832 199.011V170.452C806.832 169.938 806.65 169.507 806.287 169.156L782.8 145.667C782.362 145.216 781.849 145.11 781.261 145.348C764.064 152.351 765.209 122.966 780.454 129.557C785.335 131.66 786.818 135.765 784.903 141.874C784.715 142.5 784.853 143.044 785.316 143.508L809.404 167.56C809.879 168.036 810.117 168.605 810.117 169.269V198.954C810.117 199.68 810.461 200.137 811.15 200.325ZM808.784 203.235C807.847 203.235 806.92 203.42 806.054 203.778C805.189 204.137 804.402 204.662 803.74 205.325C803.077 205.988 802.552 206.774 802.193 207.64C801.835 208.505 801.65 209.433 801.65 210.37C801.65 211.307 801.835 212.235 802.193 213.101C802.552 213.966 803.077 214.753 803.74 215.416C804.402 216.078 805.189 216.604 806.054 216.962C806.92 217.321 807.847 217.505 808.784 217.505C810.676 217.505 812.491 216.754 813.829 215.416C815.167 214.077 815.919 212.263 815.919 210.37C815.919 208.478 815.167 206.663 813.829 205.325C812.491 203.987 810.676 203.235 808.784 203.235Z" fill="#FBFBFB"/>
<path d="M874.476 792.55C884.858 786.711 894.508 798.54 888.407 807.759C881.911 817.56 865.746 809.618 870.571 796.324C870.809 795.673 870.684 795.098 870.196 794.597L850.088 774.675C849.675 774.262 849.168 774.055 848.567 774.055H816.125C815.424 774.055 814.917 774.368 814.604 774.994C807.02 789.771 790.573 775.314 799.698 766.301C804.692 761.363 811.751 763.428 814.548 769.718C814.861 770.419 815.399 770.77 816.163 770.77H850.182C850.845 770.77 851.415 771.007 851.89 771.483L872.711 792.306C873.237 792.844 873.825 792.926 874.476 792.55ZM879.883 794.39C878.949 794.39 878.023 794.574 877.16 794.932C876.297 795.29 875.512 795.814 874.852 796.475C874.191 797.135 873.667 797.92 873.309 798.783C872.952 799.647 872.768 800.572 872.768 801.507C872.768 802.441 872.952 803.366 873.309 804.23C873.667 805.093 874.191 805.878 874.852 806.538C875.512 807.199 876.297 807.723 877.16 808.081C878.023 808.439 878.949 808.623 879.883 808.623C881.77 808.623 883.58 807.873 884.915 806.538C886.249 805.204 886.999 803.394 886.999 801.507C886.999 799.619 886.249 797.809 884.915 796.475C883.58 795.14 881.77 794.39 879.883 794.39Z" fill="#FBFBFB"/>
<path d="M833.341 264.184C830.319 271.582 822.039 274.079 816.05 268.577C803.678 257.218 827.502 240.488 833.416 258.945C833.642 259.659 834.13 260.015 834.881 260.015L861.766 260.072C862.554 260.072 863.224 259.796 863.775 259.246L887.543 235.418C888.019 234.943 888.588 234.705 889.252 234.705L1048.08 234.705C1048.87 234.705 1049.54 234.98 1050.09 235.531L1084.15 269.61C1084.65 270.111 1085.26 270.361 1085.97 270.361C1133.74 270.399 1181.51 270.399 1229.26 270.361C1231.66 270.361 1253.49 293.494 1256.97 296.892C1257.46 297.368 1258.04 297.606 1258.73 297.606L1436.47 297.606C1437.26 297.606 1437.65 298 1437.65 298.789V299.953C1437.65 300.579 1437.34 300.892 1436.71 300.892L1256.67 300.892C1256.38 300.892 1256.1 300.834 1255.84 300.721C1255.57 300.608 1255.33 300.442 1255.13 300.234L1230.01 274.642C1229.71 274.333 1229.35 274.088 1228.96 273.92C1228.57 273.752 1228.14 273.666 1227.72 273.666L1084.28 273.666C1083.78 273.666 1083.35 273.484 1082.99 273.121L1048.55 238.704C1048.08 238.229 1047.51 237.991 1046.84 237.991L890.847 237.991C890.059 237.991 889.396 238.266 888.857 238.817L866.065 261.593C865.161 262.496 863.941 263.008 862.667 263.02L834.918 263.132C834.155 263.132 833.629 263.483 833.341 264.184ZM823.297 253.951C821.39 253.951 819.561 254.708 818.212 256.057C816.864 257.406 816.106 259.235 816.106 261.142C816.106 263.049 816.864 264.878 818.212 266.227C819.561 267.576 821.39 268.333 823.297 268.333C825.204 268.333 827.033 267.576 828.382 266.227C829.73 264.878 830.488 263.049 830.488 261.142C830.488 259.235 829.73 257.406 828.382 256.057C827.033 254.708 825.204 253.951 823.297 253.951Z" fill="#FBFBFB"/>
<path d="M1440 661.003V668.758L1181.42 668.871C1181.04 668.871 1180.66 668.947 1180.31 669.095C1179.96 669.244 1179.64 669.461 1179.37 669.734L1134.69 714.328C1134.3 714.716 1133.83 714.91 1133.28 714.91L963.598 714.91C962.81 714.91 962.14 714.635 961.589 714.084L928.077 680.549C927.464 679.948 926.642 679.611 925.787 679.611L884.858 679.93C883.584 679.93 882.356 679.424 881.441 678.522L853.843 650.902C853.33 650.401 852.76 650.319 852.134 650.657C827.709 663.932 807.263 629.684 829.23 614.813C848.492 601.745 870.928 623.826 859.4 643.522C859.062 644.098 859.131 644.624 859.607 645.1L885.14 670.41C885.691 670.948 886.348 671.218 887.111 671.218L929.485 671.33C930.261 671.33 930.925 671.606 931.475 672.156L965.363 706.254C965.814 706.705 966.358 706.93 966.996 706.93L1129.7 706.93C1130.2 706.93 1130.63 706.749 1130.99 706.386L1176.13 661.266C1176.58 660.803 1177.13 660.553 1177.78 660.515C1183.45 660.196 1189.25 661.153 1194.37 661.022C1217.89 660.409 1241.4 660.252 1264.91 660.553C1323.19 661.304 1381.72 661.097 1440 661.003ZM841.302 619.32C837.866 619.32 834.571 620.685 832.141 623.114C829.712 625.544 828.347 628.839 828.347 632.275C828.347 635.711 829.712 639.007 832.141 641.436C834.571 643.866 837.866 645.231 841.302 645.231C844.737 645.231 848.032 643.866 850.462 641.436C852.891 639.007 854.256 635.711 854.256 632.275C854.256 628.839 852.891 625.544 850.462 623.114C848.032 620.685 844.737 619.32 841.302 619.32Z" fill="#FBFBFB"/>
<path d="M889.045 483.417C866.76 476.507 873.612 446.014 895.522 448.774C912.982 450.952 915.16 475.005 899.033 482.515C898.582 482.728 898.357 483.085 898.357 483.586V572.905C898.357 573.531 898.576 574.063 899.014 574.501L929.448 604.994C929.798 605.344 930.23 605.519 930.743 605.519C988.318 605.544 1045.89 605.551 1103.47 605.538C1105.89 605.538 1126.84 583.288 1130.24 579.965C1130.73 579.489 1131.32 579.251 1132.01 579.251H1299.83C1300.49 579.251 1301.06 579.489 1301.54 579.965L1334.09 612.504C1334.46 612.867 1334.89 613.049 1335.39 613.049H1437.22C1437.78 613.049 1438.08 613.337 1438.12 613.912L1438.39 619.846C1438.42 620.622 1438.05 621.01 1437.28 621.01C1403.42 621.047 1369.6 621.047 1335.82 621.01C1332.1 620.997 1329.47 620.184 1327.94 618.569C1318.2 608.355 1308.29 598.303 1298.22 588.414C1297.73 587.938 1297.15 587.701 1296.47 587.701H1135.31C1134.56 587.701 1133.85 587.998 1133.32 588.527L1109.14 612.805C1108.66 613.28 1108.09 613.518 1107.43 613.518L927.157 613.518C926.469 613.518 925.88 613.274 925.392 612.786L890.641 578.106C890.14 577.618 889.89 577.023 889.89 576.322L889.927 484.618C889.927 484.005 889.633 483.604 889.045 483.417ZM892.631 457.055C890.206 457.055 887.88 458.018 886.166 459.733C884.451 461.448 883.488 463.774 883.488 466.199C883.488 468.624 884.451 470.95 886.166 472.665C887.88 474.379 890.206 475.343 892.631 475.343C895.056 475.343 897.381 474.379 899.096 472.665C900.811 470.95 901.774 468.624 901.774 466.199C901.774 463.774 900.811 461.448 899.096 459.733C897.381 458.018 895.056 457.055 892.631 457.055Z" fill="#FBFBFB"/>
<path d="M959.581 649.794C963.523 641.833 973.492 641.176 976.44 649.794C979.97 660.178 964.218 666.674 959.581 654.958C959.305 654.244 958.786 653.888 958.022 653.888H924.172C923.396 653.888 922.733 653.612 922.182 653.061L901.568 632.445C901.167 632.044 900.71 631.969 900.197 632.22C880.859 641.364 878.062 609.838 896.217 613.312C904.365 614.87 905.097 621.104 903.501 628.408C903.351 629.121 903.533 629.735 904.046 630.248L923.646 649.851C924.122 650.314 924.691 650.545 925.355 650.545L958.116 650.696C958.792 650.696 959.28 650.395 959.581 649.794ZM894.245 616.278C892.363 616.278 890.558 617.026 889.227 618.357C887.896 619.688 887.149 621.494 887.149 623.376C887.149 625.258 887.896 627.064 889.227 628.395C890.558 629.726 892.363 630.473 894.245 630.473C896.128 630.473 897.933 629.726 899.264 628.395C900.595 627.064 901.342 625.258 901.342 623.376C901.342 621.494 900.595 619.688 899.264 618.357C897.933 617.026 896.128 616.278 894.245 616.278Z" fill="#FBFBFB"/>
<path d="M1238.81 226.912C1241.12 220.678 1247.9 217.561 1253.31 222.162C1261.83 229.447 1251.56 242.891 1241.42 235.23C1240.91 234.842 1240.53 234.354 1240.28 233.765C1239.24 231.268 1237.93 230.254 1235.04 230.404C1216.36 231.456 1194.92 230.555 1179.17 230.78C1153.07 231.181 1126.97 231.08 1100.88 230.48C1100.29 230.467 1099.79 230.254 1099.38 229.841L1058.71 189.265C1058.1 188.652 1057.35 188.345 1056.48 188.345L921.919 188.195C919.892 188.195 918.59 189.165 918.014 191.106C916.625 195.837 909.791 196.851 906.261 195.011C898.752 191.105 900.385 179.821 908.89 178.507C915.235 177.511 915.855 181.53 919.441 184.947C919.892 185.372 920.423 185.579 921.037 185.566C965.269 185.166 1009.5 184.947 1053.72 184.909C1057.22 184.909 1059.67 185.598 1061.06 186.975C1073.66 199.592 1086.27 212.179 1098.89 224.734C1102.44 228.245 1103.71 227.719 1108.2 227.682C1151.28 227.469 1194.41 227.494 1237.59 227.757C1237.86 227.758 1238.11 227.678 1238.33 227.527C1238.55 227.376 1238.72 227.161 1238.81 226.912Z" fill="#FBFBFB"/>
<path d="M948.936 63.5583C942.984 82.222 918.258 65.9617 931.607 53.6819C937.239 48.4809 945.707 51.579 948.466 58.6389C948.717 59.2898 949.199 59.6153 949.912 59.6153L1007.19 59.6153C1007.71 59.6153 1008.14 59.7968 1008.49 60.1598L1030.17 81.8465C1030.7 82.3597 1031.32 82.6163 1032.05 82.6163C1047.01 82.6038 1061.89 82.6038 1076.7 82.6163C1079.31 82.6163 1108.26 113.015 1112.35 117.146C1112.79 117.584 1113.31 117.803 1113.93 117.803C1183.35 117.828 1252.78 117.828 1322.19 117.803C1325.46 117.803 1348.62 142.776 1352.61 146.756C1353.02 147.182 1353.53 147.395 1354.13 147.395H1436.11C1436.88 147.395 1437.33 147.77 1437.48 148.521L1437.65 149.348C1437.69 149.509 1437.68 149.676 1437.64 149.836C1437.61 149.997 1437.53 150.146 1437.43 150.274C1437.32 150.401 1437.19 150.504 1437.04 150.575C1436.89 150.645 1436.73 150.681 1436.56 150.681L1353.17 150.681C1352.38 150.681 1351.71 150.405 1351.16 149.854L1322.96 121.652C1322.61 121.289 1322.18 121.108 1321.66 121.108L1112.86 121.108C1112.07 121.108 1111.4 120.832 1110.85 120.282L1077.32 86.7283C1076.75 86.1776 1076.08 85.9022 1075.31 85.9022L1030.49 85.9022C1029.82 85.9022 1029.24 85.6643 1028.76 85.1887L1006.89 63.1076C1006.45 62.657 1005.92 62.4317 1005.28 62.4317L950.456 62.4317C949.68 62.4317 949.174 62.8072 948.936 63.5583ZM938.441 54.4142C936.529 54.4142 934.695 55.1738 933.343 56.526C931.991 57.8782 931.231 59.7121 931.231 61.6243C931.231 62.5712 931.418 63.5087 931.78 64.3835C932.143 65.2583 932.674 66.0531 933.343 66.7226C934.012 67.3922 934.807 67.9233 935.682 68.2856C936.557 68.648 937.494 68.8345 938.441 68.8345C939.388 68.8345 940.325 68.648 941.2 68.2856C942.074 67.9233 942.869 67.3922 943.539 66.7226C944.208 66.0531 944.739 65.2583 945.101 64.3835C945.464 63.5087 945.65 62.5712 945.65 61.6243C945.65 59.7121 944.891 57.8782 943.539 56.526C942.187 55.1738 940.353 54.4142 938.441 54.4142Z" fill="#FBFBFB"/>
<path d="M1070.93 560.869L1052.42 579.363C1051.87 579.914 1051.21 580.189 1050.43 580.189H962.021C961.358 580.189 960.788 579.952 960.313 579.476L940.731 559.911C940.293 559.473 940.005 558.947 939.867 558.334C939.292 555.743 939.023 553.483 939.06 551.555C939.561 527.096 939.761 502.637 939.661 478.177C939.661 477.489 939.899 476.901 940.374 476.412L975.22 441.601C975.708 441.113 975.802 440.562 975.501 439.949C966.696 421.247 998.181 418.487 994.463 436.625C992.943 444.098 985.546 446.783 978.918 443.46C978.33 443.159 977.798 443.241 977.322 443.704L943.66 477.389C943.184 477.852 942.946 478.422 942.946 479.097V555.78C942.946 556.556 943.222 557.22 943.772 557.77L961.965 575.984C962.466 576.484 963.066 576.735 963.767 576.735L1049.17 576.979C1049.81 576.979 1050.35 576.753 1050.79 576.303L1068.81 558.296C1069.35 557.758 1069.44 557.151 1069.09 556.475L1068.25 554.841C1068 554.341 1067.87 553.809 1067.85 553.245C1067.62 544.521 1071.66 540.515 1080 541.228C1093.52 542.374 1090.59 568.342 1072.57 560.549C1071.94 560.286 1071.39 560.393 1070.93 560.869ZM984.438 427.331C983.491 427.331 982.554 427.518 981.679 427.88C980.804 428.242 980.01 428.773 979.34 429.443C978.671 430.112 978.14 430.907 977.777 431.782C977.415 432.657 977.229 433.594 977.229 434.541C977.229 436.453 977.988 438.287 979.34 439.639C980.692 440.992 982.526 441.751 984.438 441.751C986.35 441.751 988.184 440.992 989.536 439.639C990.888 438.287 991.647 436.453 991.647 434.541C991.647 433.594 991.461 432.657 991.099 431.782C990.736 430.907 990.205 430.112 989.536 429.443C988.866 428.773 988.072 428.242 987.197 427.88C986.322 427.518 985.385 427.331 984.438 427.331ZM1078.33 544.533C1076.47 544.533 1074.69 545.271 1073.38 546.584C1072.06 547.898 1071.33 549.679 1071.33 551.537C1071.33 553.394 1072.06 555.176 1073.38 556.489C1074.69 557.802 1076.47 558.54 1078.33 558.54C1080.19 558.54 1081.97 557.802 1083.28 556.489C1084.59 555.176 1085.33 553.394 1085.33 551.537C1085.33 549.679 1084.59 547.898 1083.28 546.584C1081.97 545.271 1080.19 544.533 1078.33 544.533Z" fill="#FBFBFB"/>
<path d="M1141.05 662.261L1110.3 662.599C1109.71 662.599 1109.21 662.806 1108.8 663.219L1085.13 686.971C1084.66 687.447 1084.1 687.684 1083.44 687.684H988.493C987.893 687.684 987.461 687.947 987.198 688.473C980.289 702.424 962.003 693.148 967.597 680.737C972.16 670.617 984.138 673.715 987.63 683.497C987.855 684.098 988.287 684.399 988.925 684.399H1081.9C1082.6 684.399 1083.2 684.155 1083.7 683.666C1091.25 676.381 1098.51 668.983 1105.48 661.473C1109.18 657.492 1139.82 659.464 1141.51 659.407C1142.53 659.37 1143.58 658.725 1144.64 657.473C1151.79 649.118 1163.47 658.318 1158.76 667.857C1155.36 674.71 1143.27 672.757 1142.33 663.407C1142.26 662.643 1141.83 662.261 1141.05 662.261ZM977.079 678.052C975.201 678.052 973.401 678.798 972.074 680.125C970.746 681.453 970.001 683.253 970.001 685.131C970.001 687.008 970.746 688.809 972.074 690.136C973.401 691.464 975.201 692.21 977.079 692.21C978.956 692.21 980.756 691.464 982.083 690.136C983.411 688.809 984.157 687.008 984.157 685.131C984.157 683.253 983.411 681.453 982.083 680.125C980.756 678.798 978.956 678.052 977.079 678.052Z" fill="#FBFBFB"/>
<path d="M1002.05 548.251C997.599 558.222 984.269 555.368 984.663 544.552C984.983 535.972 998.219 533.418 1001.82 542.956C1002.1 543.682 1002.62 544.045 1003.4 544.045H1037.72C1038.48 544.045 1039.14 543.776 1039.69 543.238L1069.92 513.271C1070.38 512.82 1070.61 512.276 1070.61 511.637V456.735C1070.61 456.122 1070.36 455.652 1069.84 455.327C1054.05 445.413 1078.99 428.815 1082.52 445.901C1083.27 449.544 1081.85 452.629 1078.25 455.158C1077.73 455.534 1077.14 455.753 1076.49 455.815C1074.18 456.04 1073.71 456.754 1073.73 459.045C1073.95 477.045 1073.99 495.033 1073.84 513.008C1073.84 513.634 1073.62 514.166 1073.17 514.604C1062.5 525.106 1051.94 535.69 1041.47 546.355C1039.52 548.345 1008.51 547.275 1003.53 547.275C1002.83 547.287 1002.34 547.613 1002.05 548.251Z" fill="#FBFBFB"/>
<path d="M1017.33 508.877C1024.73 512.013 1026.08 520.575 1019.28 524.912C1009.15 531.39 999.214 514.266 1011.75 509.272C1012.23 509.084 1012.63 508.758 1012.91 508.336C1013.2 507.914 1013.35 507.416 1013.35 506.906V457.768C1013.35 457.267 1013.53 456.835 1013.9 456.472L1035.2 434.992C1035.68 434.517 1035.77 433.985 1035.47 433.396C1031.3 424.947 1037.95 414.958 1047.2 418.018C1061.41 422.75 1053.73 444.099 1038.73 437.133C1038.13 436.857 1037.6 436.951 1037.14 437.414C1031.02 443.523 1024.95 449.588 1018.93 455.609C1015.43 459.101 1016.34 461.073 1016.26 465.654C1016.01 479.624 1016.07 493.587 1016.43 507.544C1016.45 508.183 1016.76 508.627 1017.33 508.877ZM1044.42 420.966C1042.56 420.966 1040.76 421.708 1039.44 423.029C1038.12 424.349 1037.38 426.14 1037.38 428.007C1037.38 429.875 1038.12 431.666 1039.44 432.986C1040.76 434.307 1042.56 435.049 1044.42 435.049C1046.29 435.049 1048.08 434.307 1049.4 432.986C1050.72 431.666 1051.46 429.875 1051.46 428.007C1051.46 426.14 1050.72 424.349 1049.4 423.029C1048.08 421.708 1046.29 420.966 1044.42 420.966Z" fill="#FBFBFB"/>
<path d="M1056.25 643.297C1051.97 656.215 1034.89 648.554 1039.41 637.814C1042.53 630.454 1051.88 630.792 1055.86 637.965C1056.19 638.565 1056.71 638.866 1057.4 638.866H1125.66C1126.32 638.866 1126.89 638.634 1127.35 638.171L1153.39 612.335C1153.85 611.872 1154.42 611.64 1155.08 611.64H1278.54C1279.32 611.64 1279.99 611.916 1280.55 612.466L1294.8 626.736C1295.26 627.187 1295.79 627.3 1296.39 627.074C1309.67 621.986 1313.65 643.767 1300.04 643.898C1292.62 643.973 1289.07 636.913 1292.36 630.473C1292.7 629.809 1292.6 629.215 1292.08 628.689L1279.08 615.696C1278.57 615.195 1277.96 614.945 1277.24 614.945C1236.99 614.92 1196.75 614.913 1156.51 614.926C1153.99 614.926 1132.32 638.077 1129 641.495C1128.58 641.933 1128.06 642.152 1127.44 642.152H1057.85C1057.03 642.152 1056.5 642.534 1056.25 643.297Z" fill="#FBFBFB"/>
<path d="M1264.52 350.179H1233.54C1233.02 350.179 1232.59 350.361 1232.24 350.724L1208.62 374.344C1208.12 374.845 1207.52 375.095 1206.8 375.095L1110.45 375.264C1109.81 375.264 1109.34 375.546 1109.03 376.109C1105.7 382.099 1098.83 383.789 1093.95 378.625C1084.49 368.636 1104.46 355.774 1109.01 370.664C1109.22 371.378 1109.7 371.734 1110.43 371.734L1205.49 372.016C1206.09 372.016 1206.6 371.803 1207.03 371.378L1231.34 347.532C1231.77 347.106 1232.29 346.893 1232.9 346.893H1265.29C1265.86 346.893 1266.34 346.687 1266.73 346.274C1274.3 338.237 1286.82 344.246 1282.86 353.934C1279.12 363.078 1267.5 360.938 1265.77 351.231C1265.65 350.53 1265.23 350.179 1264.52 350.179Z" fill="#FBFBFB"/>
<path d="M1111.8 417.943C1095.3 410.001 1114.13 392.163 1121.6 404.593C1124.93 410.095 1122.41 415.615 1116.76 417.962C1116.03 418.263 1115.67 418.801 1115.67 419.577V521.232C1115.67 521.896 1115.9 522.459 1116.37 522.922L1153.6 560.043C1154.06 560.506 1154.62 560.738 1155.29 560.738C1223.35 561.276 1273.66 561.338 1306.21 560.925C1309.23 560.888 1311.38 561.42 1312.65 562.521C1322.44 570.983 1332.17 579.495 1341.85 588.057C1342.27 588.445 1342.77 588.639 1343.33 588.639L1436.25 588.658C1436.83 588.658 1437.39 588.819 1437.87 589.12C1438.34 589.421 1438.7 589.848 1438.91 590.348C1439.21 591.043 1437.9 591.906 1437 591.906C1405.35 591.944 1373.71 591.944 1342.07 591.906C1341.45 591.906 1340.9 591.7 1340.44 591.287C1336.55 587.776 1311.21 563.498 1308.2 564.624C1307.63 564.837 1307.03 564.937 1306.4 564.925C1255.91 564.111 1205.41 564.086 1154.91 564.85C1154.33 564.862 1153.84 564.662 1153.43 564.249L1113.1 523.88C1112.54 523.316 1112.25 522.634 1112.25 521.833L1112.86 419.614C1112.86 418.838 1112.5 418.281 1111.8 417.943Z" fill="#FBFBFB"/>
<path d="M1159 417.831L1190.17 386.53C1190.62 386.08 1191.16 385.855 1191.8 385.855L1330.24 385.855C1330.93 385.855 1331.52 385.61 1332.01 385.122C1346.79 370.464 1361.52 355.75 1376.19 340.979C1378.21 338.914 1380 338.67 1382.74 338.801C1400.75 339.59 1418.75 339.627 1436.75 338.914C1437.57 338.889 1438.1 339.264 1438.35 340.04L1438.59 340.829C1438.88 341.743 1438.55 342.199 1437.6 342.199L1380.18 342.218C1379.43 342.218 1378.8 342.487 1378.27 343.026L1333.51 388.465C1333.06 388.915 1332.52 389.14 1331.9 389.14L1192.7 389.14C1192.2 389.14 1191.77 389.322 1191.41 389.685L1161.12 419.971C1160.65 420.447 1160.59 420.973 1160.94 421.548C1164.65 427.594 1161.12 435.312 1154.01 435.312C1139.97 435.33 1143.08 414.132 1157.28 418.263C1157.94 418.463 1158.51 418.319 1159 417.831Z" fill="#FBFBFB"/>
<path d="M1165.33 503.807L1184.59 523.072C1185.12 523.598 1185.75 523.861 1186.49 523.861C1229.58 523.848 1272.62 523.848 1315.6 523.861C1318.29 523.861 1351.84 558.954 1356.51 563.573C1356.96 564.023 1357.51 564.249 1358.14 564.249C1384.25 564.198 1410.29 564.205 1436.26 564.267C1437.33 564.267 1438.07 564.831 1438.65 565.619C1438.78 565.794 1438.86 566.003 1438.88 566.222C1438.9 566.441 1438.86 566.661 1438.76 566.858C1438.67 567.054 1438.52 567.22 1438.33 567.337C1438.14 567.453 1437.93 567.515 1437.71 567.516L1356.51 567.516C1356.01 567.516 1355.58 567.334 1355.21 566.971L1315.92 527.691C1315.56 527.328 1315.12 527.146 1314.62 527.146H1185.23C1184.82 527.147 1184.42 527.066 1184.04 526.908C1183.66 526.75 1183.32 526.518 1183.03 526.226L1163.85 506.399C1163.26 505.798 1162.58 505.666 1161.82 506.004L1158.18 507.619C1157.56 507.894 1156.93 507.988 1156.26 507.901C1151.24 507.187 1148.5 504.571 1148.02 500.052C1146.52 485.895 1168.88 487.603 1164.88 502.118C1164.7 502.768 1164.85 503.332 1165.33 503.807Z" fill="#FBFBFB"/>
<path d="M1401.4 517.421C1406.41 514.692 1410.32 515.649 1413.13 520.293C1421.92 534.77 1392.2 540.647 1397.81 520.744C1398 520.093 1397.86 519.524 1397.38 519.035C1391.6 513.227 1385.82 507.444 1380.03 501.686C1378.42 500.071 1375.51 500.372 1373.2 500.372C1325.6 500.422 1278.01 500.434 1230.42 500.409C1229.81 500.409 1229.29 500.19 1228.86 499.752L1194.88 465.767C1194.39 465.291 1193.85 465.197 1193.25 465.485C1177.25 473.127 1176.28 443.761 1192.01 449.544C1197.25 451.472 1198.92 455.596 1197.02 461.918C1196.82 462.581 1196.96 463.163 1197.45 463.664L1230.2 496.391C1230.67 496.867 1231.24 497.105 1231.9 497.105L1377.97 497.105C1378.51 497.104 1379.05 497.212 1379.55 497.421C1380.05 497.631 1380.51 497.938 1380.9 498.325L1399.77 517.176C1400.25 517.665 1400.8 517.746 1401.4 517.421Z" fill="#FBFBFB"/>
<path d="M1396.91 394.886C1391.51 385.705 1404.53 377.105 1411.24 385.141C1417.64 392.802 1409.47 402.059 1400.22 398.548C1399.58 398.31 1399.02 398.435 1398.55 398.923L1356.75 440.701C1356.39 441.064 1355.95 441.245 1355.44 441.245L1247.56 441.245C1247.04 441.245 1246.59 441.064 1246.23 440.701L1228.11 422.506C1227.54 421.93 1226.9 421.849 1226.2 422.262C1221.42 425.104 1217.51 424.616 1214.48 420.798C1203.16 406.528 1233.99 398.942 1229.69 418.357C1229.54 419.02 1229.71 419.596 1230.2 420.084L1247.41 437.321C1247.84 437.746 1248.35 437.959 1248.95 437.959L1354.52 437.959C1355.02 437.959 1355.45 437.778 1355.82 437.415L1396.71 396.539C1397.19 396.05 1397.26 395.5 1396.91 394.886Z" fill="#FBFBFB"/>
<path d="M1301.26 237.709C1295.76 240.675 1288.92 237.577 1288.25 231.569C1286.54 216.416 1310.36 219.082 1305.01 233.597C1304.76 234.273 1304.89 234.873 1305.39 235.399L1326.34 256.879C1326.88 257.43 1327.53 257.705 1328.31 257.705H1360.32C1360.76 257.705 1361.2 257.58 1361.57 257.343C1361.94 257.107 1362.24 256.77 1362.42 256.372C1364.83 251.215 1368.37 249.312 1373.05 250.664C1390.51 255.715 1369.76 280.031 1362.12 261.461C1361.87 260.835 1361.41 260.522 1360.73 260.522H1326.08C1325.45 260.522 1324.92 260.297 1324.48 259.846L1303.32 238.028C1302.71 237.402 1302.02 237.296 1301.26 237.709Z" fill="#FBFBFB"/>
<path d="M1407.35 445.019L1385.57 466.818C1385.1 467.294 1384.52 467.531 1383.85 467.531H1349.79C1349 467.531 1348.46 467.901 1348.17 468.639C1344.16 478.647 1330.88 475.455 1331.03 465.166C1331.18 456.679 1344.95 453.806 1347.5 462.03C1347.72 462.735 1348.16 463.351 1348.75 463.787C1349.35 464.224 1350.07 464.457 1350.8 464.452L1382.34 464.17C1383.11 464.17 1383.76 463.901 1384.32 463.363L1405.21 442.559C1405.7 442.071 1405.85 441.501 1405.66 440.85C1404.03 435.017 1405.49 431.086 1410.02 429.059C1425.86 421.961 1426.88 451.891 1409.25 444.643C1408.52 444.355 1407.89 444.48 1407.35 445.019Z" fill="#FBFBFB"/>
</g>
<defs>
<clipPath id="clip0_537_2197">
<rect width="890" height="1440" fill="white" transform="matrix(0 -1 1 0 0 890)"/>
</clipPath>
</defs>
</svg>
