<svg width="1964" height="2419" viewBox="0 0 1964 2419" fill="none" xmlns="http://www.w3.org/2000/svg">
<path d="M1278.86 1182.63L1278.92 1178.76C1278.94 1178.03 1279.31 1177.69 1280.05 1177.74L1288.85 1178.44C1289.59 1178.5 1289.95 1178.9 1289.93 1179.64L1289.47 1197.37C1289.45 1198.05 1289.1 1198.4 1288.43 1198.43L1279.49 1198.86C1278.76 1198.9 1278.39 1198.54 1278.39 1197.8V1194.62C1278.39 1193.53 1277.88 1193.18 1276.86 1193.58C1273.23 1195 1270.75 1194.31 1268.81 1190.77C1260.27 1174.96 1251.75 1158.86 1243.24 1142.46C1242.98 1141.98 1242.61 1141.56 1242.15 1141.25C1241.69 1140.94 1241.16 1140.75 1240.61 1140.69C1227.24 1139.32 1217.31 1132.78 1210.82 1121.06C1210.52 1120.53 1210.07 1120.27 1209.46 1120.27H1174.43C1173.76 1120.27 1173.26 1120.56 1172.94 1121.13C1150.16 1159.66 1095.23 1138.25 1108.14 1095.45C1109.65 1090.45 1113.48 1086.17 1116.64 1081.85C1117.14 1081.17 1117.17 1080.47 1116.72 1079.75L1090.58 1037.59C1090.23 1037 1089.71 1036.71 1089.03 1036.71H1003.66C1002.82 1036.71 1001.98 1036.49 1001.25 1036.06C1000.52 1035.64 999.918 1035.02 999.502 1034.29L964.452 971.922C964.099 971.297 963.568 970.985 962.862 970.985H907.381C906.796 970.985 906.375 971.243 906.117 971.759C886.543 1009.91 830.593 989.042 840.666 947.649C850.167 908.682 910.317 915.999 909.298 959.205C909.284 959.966 909.658 960.333 910.419 960.306C930.02 959.422 946.142 959.456 958.784 960.407C961.801 960.625 963.779 959.864 964.717 958.125C973.199 942.446 981.62 926.76 989.98 911.067C990.32 910.415 990.211 909.858 989.654 909.396C985.453 905.911 980.478 902.303 977.991 897.514C969.278 880.68 971.833 865.483 985.657 851.923C986.187 851.407 986.242 850.843 985.821 850.232L963.208 817.012C962.8 816.401 962.223 816.095 961.475 816.095H875.226C875.007 816.094 874.794 816.033 874.61 815.917C874.426 815.802 874.279 815.637 874.186 815.443L836.486 735.675C836.2 735.063 835.718 734.771 835.038 734.798L735.026 738.569C734.574 738.587 734.125 738.483 733.724 738.269C733.322 738.054 732.984 737.735 732.742 737.346L676.956 648.712C676.639 648.203 676.461 647.621 676.44 647.024C676.418 646.427 676.554 645.835 676.834 645.309L723.159 557.796C723.526 557.103 723.519 556.417 723.139 555.738L713.291 537.783C712.883 537.049 712.271 536.791 711.456 537.008C685.866 544.039 661.847 524.393 666.231 497.654C670.085 474.115 696.286 462.355 717.042 472.892C739.328 484.183 741.225 513.917 723.445 530.425C722.847 530.982 722.738 531.621 723.118 532.341L732.763 550.011C733.157 550.717 733.762 551.057 734.578 551.03L833.753 547.463C834.487 547.436 835.045 547.728 835.425 548.34C853.097 576.464 870.754 604.582 888.398 632.693C891.416 637.503 892.456 638.991 889.499 644.555C874.886 672.027 860.328 699.513 845.824 727.013C845.498 727.624 845.484 728.236 845.783 728.847L871.842 783.894C871.954 784.135 872.128 784.341 872.347 784.492C872.566 784.642 872.821 784.731 873.085 784.75L962.026 790.946C962.773 790.987 963.317 790.667 963.657 789.988L993.426 729.377C993.643 728.915 993.63 728.46 993.385 728.012L971.813 690.573C971.419 689.894 970.834 689.547 970.059 689.534C954.862 689.113 944.137 682.937 937.884 671.008C922.694 641.987 951.321 610.092 981.579 622.177C1002.03 630.329 1009.25 654.358 998.095 673.209C997.837 673.651 997.689 674.148 997.664 674.659C997.639 675.17 997.738 675.679 997.952 676.144L1017.91 718.637C1018.24 719.33 1018.78 719.676 1019.55 719.676L1059.35 720.063C1059.96 720.077 1060.32 719.778 1060.45 719.167C1064.81 697.645 1086.16 685.845 1106.81 693.243C1107.4 693.46 1107.84 693.297 1108.14 692.754L1132.93 648.162C1133.19 647.705 1133.32 647.185 1133.31 646.658C1133.3 646.132 1133.15 645.616 1132.87 645.166L1089.99 575.017C1089.61 574.392 1089.05 574.08 1088.32 574.08H1005.25C1004.73 574.081 1004.22 573.941 1003.78 573.676C1003.33 573.411 1002.96 573.03 1002.7 572.572L960.211 496.472C959.803 495.752 959.959 495.181 960.68 494.76L968.346 490.134C968.985 489.74 969.488 489.869 969.855 490.521L1009.78 561.994C1009.96 562.334 1010.24 562.617 1010.57 562.814C1010.9 563.012 1011.29 563.116 1011.67 563.115H1094.7C1095.09 563.116 1095.48 563.218 1095.82 563.411C1096.16 563.604 1096.44 563.881 1096.64 564.216L1144.84 642.985C1145.01 643.259 1145.24 643.486 1145.53 643.643C1145.81 643.8 1146.13 643.882 1146.45 643.882H1214.63C1215.22 643.882 1215.65 643.624 1215.94 643.108L1245.57 587.735C1245.84 587.218 1245.81 586.722 1245.48 586.247C1238.65 576.328 1237.08 565.86 1240.79 554.841C1250.79 525.208 1291.85 522.742 1305.49 550.908C1315.79 572.225 1302.05 597.313 1278.05 600.472C1277.31 600.567 1276.75 600.927 1276.35 601.552L1244.51 652.523C1244.23 652.977 1244.07 653.497 1244.05 654.033C1244.03 654.569 1244.15 655.102 1244.4 655.58L1260.45 686.273C1260.78 686.898 1261.27 687.095 1261.94 686.864C1283.69 679.731 1302.72 696.3 1306.14 717.108C1306.25 717.747 1306.63 718.059 1307.29 718.046L1358.91 717.638C1359.46 717.638 1359.84 717.387 1360.05 716.884L1391.58 646.96C1391.98 646.043 1392.65 645.264 1393.49 644.718C1394.34 644.172 1395.32 643.881 1396.33 643.882H1495.03C1495.76 643.882 1496.29 643.57 1496.63 642.945L1533.73 576.505C1534.18 575.703 1534.17 574.909 1533.69 574.121L1507.84 531.77C1507.5 531.227 1507.01 531.023 1506.37 531.159C1459.68 541.064 1444.12 475.949 1488.41 463.476C1496.59 461.167 1504.43 461.893 1511.92 465.657C1530.21 474.828 1536.26 494.617 1528.21 513.673C1527.96 514.271 1528.01 514.835 1528.35 515.364L1557.96 561.24C1558.65 562.314 1559.63 562.905 1560.89 563.013L1595.05 565.805C1595.67 565.86 1596.05 565.574 1596.17 564.949C1601.9 534.094 1637.62 520.052 1658.38 545.649C1678.32 570.248 1658.07 606.79 1626.57 602.164C1612.81 600.139 1603.22 592.11 1597.8 578.074C1597.58 577.477 1597.15 577.157 1596.51 577.116L1549.6 573.428C1548.92 573.373 1548.42 573.645 1548.09 574.243L1503.35 654.031C1502.96 654.738 1502.36 655.091 1501.56 655.091H1421.59C1420.87 655.091 1420.31 655.39 1419.9 655.988L1375.35 722.57C1374.91 723.222 1374.91 723.868 1375.35 724.506C1387.21 741.897 1399.2 759.234 1411.29 776.517C1413.15 779.166 1413.76 780.47 1417.29 780.47C1433.03 780.498 1448.76 780.47 1464.49 780.389C1465.18 780.375 1465.71 780.063 1466.06 779.451C1473.69 765.824 1484.61 759.221 1498.83 759.642C1512.71 760.049 1526.29 768.691 1530.68 781.917C1544.75 824.308 1486.86 848.928 1465.94 808.84C1465.63 808.242 1465.13 807.943 1464.45 807.943H1412.82C1412.43 807.942 1412.05 808.045 1411.71 808.242C1411.37 808.439 1411.09 808.722 1410.89 809.064L1386.34 851.292C1386.14 851.622 1386.06 852.007 1386.1 852.388C1386.14 852.77 1386.3 853.128 1386.56 853.411C1402.56 871.088 1402.59 888.941 1386.66 906.97C1386.17 907.528 1386.14 908.105 1386.56 908.703L1411.5 944.653C1411.93 945.265 1412.52 945.543 1413.25 945.489L1490.22 939.151C1491 939.083 1491.66 939.334 1492.2 939.905L1562.87 1014.03C1563.37 1014.54 1563.99 1014.8 1564.71 1014.8H1601.55C1602.19 1014.8 1602.58 1014.49 1602.73 1013.86C1607.79 991.487 1630.91 979.381 1651.93 989.49C1676.36 1001.27 1678.34 1034.53 1656.48 1049.84C1635.34 1064.63 1607.83 1051.36 1602.43 1027.13C1602.26 1026.38 1601.8 1026.01 1601.02 1026.01H1577.21C1576.62 1026.01 1576.22 1026.28 1576 1026.83L1554.39 1080.28C1554.14 1080.91 1554.16 1081.53 1554.43 1082.16C1578.59 1135.8 1492.12 1152.02 1488.67 1101.09C1487.23 1079.69 1504.25 1063.14 1525.35 1063.61C1525.63 1063.62 1525.9 1063.55 1526.13 1063.39C1526.36 1063.24 1526.53 1063.02 1526.62 1062.76L1544.46 1013.13C1544.61 1012.7 1544.65 1012.24 1544.55 1011.79C1544.46 1011.35 1544.24 1010.94 1543.93 1010.6L1507.88 972.717C1507.39 972.214 1506.81 971.915 1506.13 971.82L1415.64 960.102C1414.96 960.02 1414.45 960.278 1414.13 960.876L1372.78 1036.3C1372.62 1036.59 1372.54 1036.91 1372.54 1037.24C1372.55 1037.57 1372.65 1037.89 1372.82 1038.18L1397.69 1079.16C1398.07 1079.77 1398.63 1080.09 1399.37 1080.12C1447.08 1081.77 1444.94 1151.86 1393.92 1148.74C1393.24 1148.69 1392.72 1148.94 1392.35 1149.52L1366.95 1187.16C1366.54 1187.76 1366.53 1188.36 1366.93 1188.97L1405.97 1249.79C1406.26 1250.23 1406.66 1250.6 1407.13 1250.85C1407.61 1251.1 1408.14 1251.22 1408.68 1251.21L1475.28 1249.38C1475.93 1249.37 1476.47 1249.1 1476.89 1248.58C1504.78 1213.69 1556.94 1248.99 1535.37 1286.76C1520.32 1313.11 1483.41 1308.48 1472.3 1281.13C1472.01 1280.42 1471.5 1280.03 1470.75 1279.95L1413.19 1272.98C1412.55 1272.91 1412.08 1273.16 1411.76 1273.73L1388.38 1316.39C1388.01 1317.05 1388.06 1317.69 1388.52 1318.28C1402.82 1336.69 1401.85 1354.21 1385.6 1370.84C1385.07 1371.39 1385 1371.99 1385.38 1372.64L1404.42 1405.72C1404.76 1406.33 1405.29 1406.65 1405.99 1406.69L1415.45 1407.26C1416.28 1407.32 1416.69 1407.76 1416.68 1408.59L1416.47 1426.44C1416.46 1427.15 1416.11 1427.45 1415.41 1427.34C1409.54 1426.41 1404.46 1428.31 1400.18 1433.02C1383.98 1450.84 1367.82 1468.66 1351.69 1486.48C1349.91 1488.47 1347.9 1488.98 1345.66 1488.01C1314.01 1474.36 1287.37 1462.52 1265.71 1452.51C1263.36 1451.42 1262.33 1449.54 1262.61 1446.86C1265.68 1418.19 1268.83 1389.13 1272.05 1359.68C1272.15 1358.85 1272.5 1358.06 1273.06 1357.45C1273.63 1356.83 1274.37 1356.4 1275.19 1356.23L1327.43 1345.35C1328.14 1345.2 1328.5 1344.76 1328.51 1344.04C1329.02 1317.98 1352.12 1302.2 1376.92 1311.11C1377.69 1311.38 1378.28 1311.16 1378.67 1310.44L1402.69 1266.93C1402.95 1266.46 1402.93 1266.02 1402.65 1265.58L1357.26 1194.88C1356.87 1194.26 1356.3 1193.98 1355.55 1194.05L1348.55 1194.74C1347.71 1194.82 1347.28 1194.43 1347.27 1193.58L1347.19 1183.16C1347.19 1182.19 1347.64 1181.88 1348.55 1182.25C1352.56 1183.86 1355.63 1183.2 1357.75 1180.27C1361.07 1175.68 1368.94 1164.09 1381.38 1145.5C1381.76 1144.93 1381.67 1144.45 1381.1 1144.07C1356.71 1127.79 1359.24 1095.83 1385.48 1082.69C1386.04 1082.42 1386.15 1082.02 1385.83 1081.49L1366.29 1049.31C1366.05 1048.88 1365.68 1048.68 1365.19 1048.69L1314.3 1050.75C1313.61 1050.78 1313.04 1051.07 1312.61 1051.63C1301.92 1065.53 1289.14 1070.4 1274.25 1066.24C1249.09 1059.21 1238.9 1028.01 1257.56 1008.75C1276.23 989.429 1305.84 996.786 1315.95 1020.86C1316.22 1021.53 1316.73 1021.9 1317.48 1021.96L1364.38 1025.5C1365.25 1025.57 1365.89 1025.22 1366.31 1024.46L1403.95 955.801C1404.36 955.054 1404.32 954.327 1403.83 953.621L1376.57 914.022C1376.22 913.492 1375.73 913.295 1375.1 913.431C1311.12 926.597 1316.71 831.176 1374.61 847.154C1375.27 847.345 1375.76 847.141 1376.1 846.543L1403.59 798.996C1403.92 798.408 1404.41 797.919 1405 797.579C1405.58 797.239 1406.25 797.06 1406.93 797.06L1461.39 796.652C1462.25 796.639 1462.71 796.204 1462.78 795.348L1462.96 792.984C1463.03 792.087 1462.62 791.639 1461.72 791.639H1409.05C1408.33 791.639 1407.77 791.347 1407.38 790.762L1365.36 730.05C1364.99 729.52 1364.49 729.255 1363.85 729.255L1306 729.092C1305.4 729.092 1305 729.377 1304.78 729.948C1295.4 755.219 1264.51 765.226 1245.46 744.255C1231.17 728.501 1234.23 706.266 1249.77 692.244C1250.3 691.769 1250.39 691.212 1250.05 690.573L1231.7 656.151C1231.36 655.54 1230.84 655.234 1230.15 655.234L1143.23 655.091C1142.51 655.091 1141.97 655.411 1141.6 656.049L1118.25 697.808C1117.93 698.392 1117.98 698.943 1118.42 699.459C1160.97 749.778 1074.23 789.825 1060.37 732.373C1060.22 731.775 1059.84 731.476 1059.22 731.476L1005.95 731.456C1005.33 731.456 1004.88 731.734 1004.6 732.292C993.399 755.09 982.164 777.896 970.895 800.708C968.326 805.946 970.243 807.148 973.587 812.06C981.185 823.147 988.709 834.274 996.158 845.443C996.539 846 997.055 846.197 997.708 846.034C1051.84 831.869 1060.65 918.445 1002.25 913.839C1001.6 913.784 1001.12 914.049 1000.81 914.633L974.219 964.524C973.933 965.081 973.94 965.632 974.239 966.175L1007.07 1024.73C1007.37 1025.27 1007.83 1025.54 1008.45 1025.54H1095.07C1096.01 1025.54 1096.73 1025.95 1097.23 1026.77L1126.43 1074.11C1126.88 1074.83 1127.51 1075.09 1128.32 1074.9C1139.99 1072.25 1149.51 1071.6 1160.99 1079.18C1170.63 1085.57 1175.49 1095.23 1175.57 1108.16C1175.58 1108.9 1175.96 1109.27 1176.69 1109.28L1205.83 1109.33C1206.47 1109.33 1206.85 1109.01 1206.99 1108.39C1207.76 1104.88 1207.89 1100.7 1208.72 1097.79C1217.73 1066.32 1260.67 1062.51 1274.21 1092.45C1282.68 1111.14 1273.52 1130.11 1255.17 1138.41C1254.44 1138.75 1254.26 1139.27 1254.64 1139.98L1277.39 1182.98C1277.47 1183.14 1277.6 1183.26 1277.76 1183.34C1277.92 1183.41 1278.1 1183.43 1278.27 1183.39C1278.44 1183.35 1278.59 1183.25 1278.7 1183.11C1278.8 1182.98 1278.86 1182.81 1278.86 1182.63ZM1521.2 524.81C1520.97 524.434 1520.59 524.167 1520.16 524.067C1519.73 523.967 1519.27 524.043 1518.9 524.278L1518.48 524.537C1518.11 524.772 1517.84 525.147 1517.74 525.579C1517.64 526.01 1517.71 526.464 1517.95 526.84L1540.32 562.617C1540.55 562.993 1540.93 563.26 1541.36 563.36C1541.79 563.459 1542.24 563.383 1542.62 563.149L1543.03 562.889C1543.41 562.654 1543.68 562.28 1543.78 561.848C1543.88 561.416 1543.8 560.962 1543.57 560.586L1521.2 524.81ZM827.535 558.917L735.026 562.219C734.617 562.236 734.221 562.358 733.877 562.573C733.534 562.788 733.255 563.087 733.069 563.441C719.068 589.786 705.101 616.09 691.168 642.354C689.536 645.39 688.986 646.633 691.005 649.813C707.045 675.152 723.003 700.6 738.88 726.157C739.274 726.796 739.845 727.101 740.593 727.074L833.55 723.671C834.365 723.644 834.963 723.27 835.344 722.55L878.55 640.988C878.792 640.53 878.91 640.017 878.892 639.502C878.874 638.986 878.721 638.487 878.448 638.053L829.227 559.814C828.833 559.189 828.269 558.89 827.535 558.917ZM1262.88 599.229L1255.27 595.601C1254.65 595.302 1254.17 595.459 1253.84 596.07L1229.05 642.843C1228.79 643.318 1228.91 643.651 1229.42 643.841C1233.25 645.2 1236.19 644.249 1238.23 640.988C1246.63 627.592 1255 614.202 1263.35 600.819C1263.78 600.112 1263.62 599.582 1262.88 599.229ZM1390.17 679.975C1395.57 674.228 1401.1 663.508 1405.67 656.579C1406.52 655.261 1406.18 654.724 1404.63 654.969L1401.3 655.458C1400.6 655.567 1400.09 655.954 1399.79 656.62L1389.46 679.507C1388.75 681.069 1388.99 681.225 1390.17 679.975ZM987.717 683.338L982.721 685.927C982.596 685.996 982.502 686.111 982.46 686.248C982.418 686.385 982.431 686.533 982.497 686.66L982.66 686.986C987.551 696.377 992.533 705.233 996.513 711.611C1000.49 717.988 1003.14 721.365 1003.89 721.001L1004.33 720.777C1005.06 720.381 1003.81 716.274 1000.87 709.358C997.927 702.441 993.526 693.281 988.634 683.888L988.471 683.562C988.437 683.498 988.39 683.44 988.333 683.394C988.277 683.347 988.211 683.313 988.141 683.292C988.071 683.271 987.997 683.264 987.924 683.272C987.851 683.28 987.781 683.303 987.717 683.338ZM882.73 804.967L955.073 805.151C955.861 805.151 956.384 804.777 956.643 804.03C957.234 802.359 956.276 801.87 954.767 801.768C929.619 799.988 904.438 798.242 879.223 796.53C878.162 796.462 877.87 796.904 878.346 797.855L881.588 804.254C881.833 804.73 882.213 804.967 882.73 804.967ZM1470.4 952.255C1465.54 952.446 1460.66 952.812 1455.76 953.356C1453.79 953.573 1453.79 953.804 1455.76 954.049L1492.47 958.594C1493.32 958.689 1493.53 958.363 1493.1 957.615C1487.41 947.568 1478.74 951.909 1470.4 952.255ZM1563.08 1026.05L1553.86 1022.61C1553.75 1022.57 1553.63 1022.57 1553.52 1022.62C1553.41 1022.67 1553.33 1022.76 1553.29 1022.87L1537.94 1063.92C1537.77 1064.37 1537.69 1064.85 1537.71 1065.33C1537.72 1065.82 1537.84 1066.29 1538.04 1066.73C1538.25 1067.17 1538.54 1067.57 1538.9 1067.9C1539.26 1068.24 1539.68 1068.49 1540.14 1068.67L1543.2 1069.81C1543.66 1069.98 1544.15 1070.06 1544.64 1070.05C1545.13 1070.04 1545.61 1069.93 1546.05 1069.73C1546.5 1069.53 1546.9 1069.24 1547.23 1068.89C1547.56 1068.54 1547.82 1068.12 1547.99 1067.67L1563.32 1026.62C1563.36 1026.51 1563.36 1026.39 1563.31 1026.29C1563.27 1026.18 1563.18 1026.1 1563.08 1026.05ZM1317.62 1034.63L1317.58 1038.14C1317.58 1038.42 1317.69 1038.69 1317.89 1038.89C1318.09 1039.09 1318.36 1039.2 1318.64 1039.2H1318.91C1324.28 1039.23 1329.59 1039.2 1334.55 1039.1C1339.52 1039 1344.02 1038.83 1347.82 1038.6C1351.62 1038.37 1354.63 1038.09 1356.69 1037.78C1358.75 1037.46 1359.81 1037.11 1359.81 1036.75V1036.59C1359.81 1036.23 1358.76 1035.87 1356.71 1035.52C1354.65 1035.18 1351.64 1034.85 1347.85 1034.57C1344.06 1034.29 1339.55 1034.06 1334.59 1033.89C1329.63 1033.72 1324.32 1033.61 1318.95 1033.57H1318.68C1318.54 1033.57 1318.41 1033.6 1318.28 1033.65C1318.15 1033.71 1318.03 1033.78 1317.93 1033.88C1317.84 1033.98 1317.76 1034.1 1317.7 1034.23C1317.65 1034.36 1317.62 1034.49 1317.62 1034.63ZM1470.63 1266.91L1470.83 1262.22C1470.84 1262.15 1470.82 1262.08 1470.8 1262.01C1470.78 1261.95 1470.74 1261.89 1470.69 1261.84C1470.64 1261.79 1470.59 1261.75 1470.52 1261.72C1470.46 1261.69 1470.39 1261.67 1470.32 1261.67H1470.04C1463.82 1261.42 1457.66 1261.24 1451.92 1261.14C1446.17 1261.05 1440.95 1261.04 1436.55 1261.11C1432.14 1261.18 1428.65 1261.33 1426.27 1261.56C1423.88 1261.79 1422.65 1262.09 1422.65 1262.44V1262.85C1422.62 1263.56 1427.57 1264.44 1436.41 1265.29C1445.25 1266.15 1457.26 1266.91 1469.79 1267.42H1470.08C1470.15 1267.42 1470.22 1267.41 1470.28 1267.38C1470.35 1267.36 1470.41 1267.32 1470.46 1267.27C1470.51 1267.23 1470.55 1267.17 1470.58 1267.11C1470.61 1267.04 1470.63 1266.98 1470.63 1266.91ZM1373.53 1376.61C1356.06 1381.81 1338.81 1373.39 1331.31 1357.03C1331.03 1356.43 1330.58 1356.2 1329.94 1356.33L1283.76 1365.85C1283.05 1366 1282.65 1366.43 1282.57 1367.14L1274.34 1443.03C1274.25 1443.78 1274.56 1444.31 1275.25 1444.62L1344.82 1475.72C1345.46 1476.01 1346.02 1475.88 1346.5 1475.35L1397.57 1419.13C1398.13 1418.53 1398.2 1417.87 1397.8 1417.15L1375.12 1377.26C1374.76 1376.63 1374.23 1376.41 1373.53 1376.61Z" fill="#FBFBFB"/>
<path d="M1151.83 494.1L1134.95 484.04C1134.7 483.89 1134.37 483.972 1134.22 484.223L1129.02 492.941C1128.87 493.193 1128.95 493.518 1129.2 493.668L1146.09 503.728C1146.34 503.878 1146.67 503.795 1146.82 503.544L1152.01 494.826C1152.16 494.575 1152.08 494.249 1151.83 494.1Z" fill="#FBFBFB"/>
<path d="M1141.16 508.591L1127.76 500.483C1127.13 500.098 1126.3 500.301 1125.92 500.937L1122.09 507.247C1121.71 507.883 1121.91 508.71 1122.55 509.095L1135.94 517.203C1136.58 517.588 1137.4 517.384 1137.79 516.749L1141.61 510.438C1142 509.803 1141.79 508.976 1141.16 508.591Z" fill="#FBFBFB"/>
<path d="M1132.34 522.851L1119.91 515.119C1119.59 514.917 1119.16 515.016 1118.96 515.341L1114.17 523.023C1113.97 523.348 1114.07 523.775 1114.4 523.978L1126.83 531.71C1127.15 531.912 1127.58 531.813 1127.78 531.488L1132.56 523.806C1132.77 523.481 1132.67 523.054 1132.34 522.851Z" fill="#FBFBFB"/>
<path d="M1122.86 536.825L1112.5 530.479C1112.1 530.237 1111.59 530.361 1111.35 530.754L1106.68 538.366C1106.44 538.759 1106.56 539.274 1106.96 539.515L1117.32 545.861C1117.71 546.102 1118.23 545.979 1118.47 545.585L1123.14 537.974C1123.38 537.581 1123.25 537.066 1122.86 536.825Z" fill="#FBFBFB"/>
<path d="M1113.56 551.189L1104.53 545.704C1104.27 545.546 1103.93 545.629 1103.77 545.888L1099.07 553.62C1098.91 553.88 1099 554.218 1099.26 554.376L1108.28 559.861C1108.54 560.019 1108.88 559.936 1109.04 559.677L1113.74 551.945C1113.9 551.685 1113.82 551.347 1113.56 551.189Z" fill="#FBFBFB"/>
<path d="M1054.39 637.523H1044.4C1044.1 637.523 1043.85 637.77 1043.85 638.074V657.72C1043.85 658.024 1044.1 658.27 1044.4 658.27H1054.39C1054.7 658.27 1054.94 658.024 1054.94 657.72V638.074C1054.94 637.77 1054.7 637.523 1054.39 637.523Z" fill="#FBFBFB"/>
<path d="M1070.93 638.645H1062.24C1061.95 638.645 1061.71 638.882 1061.71 639.174V656.294C1061.71 656.586 1061.95 656.824 1062.24 656.824H1070.93C1071.22 656.824 1071.46 656.586 1071.46 656.294V639.174C1071.46 638.882 1071.22 638.645 1070.93 638.645Z" fill="#FBFBFB"/>
<path d="M1087.73 639.249L1078.59 639.345C1078.25 639.348 1077.98 639.625 1077.99 639.962L1078.14 654.921C1078.15 655.258 1078.42 655.529 1078.76 655.526L1087.89 655.43C1088.23 655.427 1088.5 655.15 1088.5 654.812L1088.34 639.854C1088.34 639.516 1088.06 639.246 1087.73 639.249Z" fill="#FBFBFB"/>
<path d="M1104.75 640.016L1095.5 640.339C1095.2 640.349 1094.96 640.604 1094.97 640.908L1095.42 653.658C1095.43 653.962 1095.68 654.199 1095.99 654.189L1105.24 653.866C1105.54 653.855 1105.78 653.6 1105.77 653.297L1105.32 640.547C1105.31 640.243 1105.06 640.005 1104.75 640.016Z" fill="#FBFBFB"/>
<path d="M1121.32 641.15L1113.17 641.193C1112.66 641.196 1112.25 641.608 1112.25 642.115L1112.3 651.938C1112.31 652.444 1112.72 652.853 1113.23 652.85L1121.38 652.808C1121.89 652.805 1122.3 652.392 1122.29 651.886L1122.24 642.063C1122.24 641.556 1121.83 641.148 1121.32 641.15Z" fill="#FBFBFB"/>
<path d="M1003.4 1044.59L996.845 1039.81C996.108 1039.27 995.075 1039.44 994.537 1040.17L990.429 1045.8C989.891 1046.54 990.053 1047.57 990.79 1048.11L997.347 1052.89C998.084 1053.43 999.117 1053.27 999.655 1052.53L1003.76 1046.9C1004.3 1046.16 1004.14 1045.13 1003.4 1044.59Z" fill="#FBFBFB"/>
<path d="M994.701 1059.01L985.845 1052.27C985.245 1051.81 984.388 1051.93 983.93 1052.53L979.087 1058.88C978.63 1059.48 978.746 1060.34 979.346 1060.8L988.202 1067.54C988.802 1068 989.659 1067.88 990.116 1067.28L994.96 1060.93C995.417 1060.33 995.301 1059.47 994.701 1059.01Z" fill="#FBFBFB"/>
<path d="M985.995 1074.17L974.025 1064.86C973.794 1064.68 973.461 1064.72 973.281 1064.95L967.569 1072.28C967.389 1072.51 967.431 1072.85 967.662 1073.03L979.632 1082.34C979.863 1082.52 980.197 1082.48 980.376 1082.25L986.088 1074.92C986.268 1074.68 986.226 1074.35 985.995 1074.17Z" fill="#FBFBFB"/>
<path d="M976.297 1087.9L963.473 1077.96C963.037 1077.62 962.409 1077.7 962.071 1078.14L956.997 1084.67C956.659 1085.11 956.738 1085.74 957.174 1086.08L969.998 1096.02C970.434 1096.36 971.062 1096.28 971.4 1095.84L976.474 1089.3C976.812 1088.87 976.733 1088.24 976.297 1087.9Z" fill="#FBFBFB"/>
<path d="M967.634 1102.36L952.064 1090.51C951.831 1090.33 951.498 1090.37 951.321 1090.61L945.143 1098.71C944.965 1098.95 945.01 1099.28 945.243 1099.46L960.814 1111.31C961.047 1111.49 961.379 1111.44 961.557 1111.21L967.735 1103.1C967.912 1102.87 967.867 1102.54 967.634 1102.36Z" fill="#FBFBFB"/>
<path d="M1306.14 1179.38L1297.29 1179.17C1297 1179.16 1296.76 1179.39 1296.75 1179.68L1296.33 1196.84C1296.33 1197.13 1296.56 1197.37 1296.85 1197.38L1305.7 1197.6C1305.99 1197.6 1306.23 1197.37 1306.24 1197.08L1306.66 1179.92C1306.67 1179.63 1306.43 1179.39 1306.14 1179.38Z" fill="#FBFBFB"/>
<path d="M1322.52 1180.49L1313.71 1180.5C1313.33 1180.5 1313.02 1180.81 1313.02 1181.2L1313.05 1195.83C1313.05 1196.21 1313.36 1196.52 1313.74 1196.52L1322.55 1196.5C1322.93 1196.5 1323.24 1196.19 1323.24 1195.81L1323.22 1181.18C1323.22 1180.79 1322.91 1180.49 1322.52 1180.49Z" fill="#FBFBFB"/>
<path d="M1340.13 1181.78L1330.87 1181.57C1330.57 1181.57 1330.31 1181.81 1330.31 1182.11L1330.02 1194.74C1330.01 1195.05 1330.25 1195.3 1330.56 1195.31L1339.81 1195.52C1340.12 1195.52 1340.37 1195.28 1340.38 1194.98L1340.66 1182.35C1340.67 1182.04 1340.43 1181.79 1340.13 1181.78Z" fill="#FBFBFB"/>
<path d="M1484.33 1418.35V1421.98C1484.33 1422.73 1483.96 1423.12 1483.21 1423.16L1475.28 1423.51C1474.53 1423.55 1474.16 1423.19 1474.16 1422.45L1474.14 1412.85C1474.12 1411.9 1474.59 1411.46 1475.54 1411.54L1483.17 1412.2C1483.87 1412.25 1484.41 1411.98 1484.78 1411.38L1513.51 1364.16C1513.93 1363.45 1514 1362.72 1513.71 1361.96C1507.8 1346.1 1514.04 1328.03 1528.33 1319.71C1565.56 1298.09 1601.55 1349.26 1568.46 1376.55C1560.29 1383.28 1550.33 1385.72 1538.57 1383.89C1537.86 1383.78 1537.32 1384.03 1536.94 1384.64L1508.8 1430.95C1508.39 1431.61 1508.4 1432.27 1508.82 1432.92L1529.55 1465.33C1529.83 1465.76 1530.23 1466.09 1530.7 1466.3C1531.17 1466.5 1531.7 1466.56 1532.21 1466.47C1587.69 1456.18 1590.05 1545.24 1529.92 1534.07C1529.21 1533.93 1528.7 1534.19 1528.37 1534.82L1507.74 1574.55C1507.36 1575.25 1507.36 1575.97 1507.76 1576.69L1539.34 1634.93C1539.68 1635.57 1540.22 1635.89 1540.95 1635.89H1598.43C1599.15 1635.89 1599.72 1635.59 1600.12 1634.99C1608.36 1623.17 1619.2 1617.87 1632.65 1619.08C1662.13 1621.73 1675.18 1657.39 1654.48 1678.59C1637.6 1695.87 1608.3 1690.63 1597.74 1668.11C1597.4 1667.39 1596.83 1667.02 1596.05 1666.99L1538.77 1664.99C1538.01 1664.97 1537.49 1665.31 1537.22 1666.01L1524.05 1701.07C1523.76 1701.83 1523.96 1702.44 1524.64 1702.9C1545.5 1716.98 1546.91 1745.7 1526.6 1760.92C1526.35 1761.1 1526.18 1761.37 1526.11 1761.67C1526.04 1761.98 1526.08 1762.3 1526.23 1762.57L1556.92 1820.62C1557.26 1821.26 1557.42 1821.98 1557.39 1822.7C1557.35 1823.43 1557.13 1824.13 1556.73 1824.73L1514.83 1888.67C1514.55 1889.1 1514.38 1889.59 1514.34 1890.1C1514.3 1890.62 1514.38 1891.13 1514.59 1891.6L1531.29 1929.43C1531.61 1930.16 1532.17 1930.46 1532.96 1930.32C1571.44 1924.05 1589.58 1973.92 1557.28 1994.38C1540.95 2004.73 1516.91 1998.43 1508.19 1981.15C1499.68 1964.3 1504.78 1945.59 1520.4 1934.79C1520.88 1934.46 1521 1934.03 1520.77 1933.5L1504.35 1896.17C1504.03 1895.43 1503.46 1895.07 1502.66 1895.09L1446.18 1895.84C1445.45 1895.85 1444.92 1896.19 1444.61 1896.86C1437.56 1911.9 1426.38 1919.2 1411.09 1918.77C1378.98 1917.89 1365.03 1878.01 1389.4 1857.38C1412.62 1837.69 1444.35 1854.08 1446.94 1883.49C1447 1884.25 1447.42 1884.63 1448.2 1884.63L1503.31 1883.88C1504.14 1883.86 1504.79 1883.51 1505.25 1882.82L1544.38 1823.1C1544.79 1822.49 1544.81 1821.86 1544.46 1821.21L1515.89 1767.26C1515.54 1766.61 1515 1766.35 1514.26 1766.49C1494.3 1770.36 1484.62 1762.08 1474.2 1747.19C1473.8 1746.64 1473.27 1746.4 1472.61 1746.45L1431.17 1749.79C1430.24 1749.86 1429.73 1749.43 1429.67 1748.49L1429.14 1739.89C1429.09 1739.12 1429.46 1738.69 1430.24 1738.63L1470.24 1735.49C1470.83 1735.45 1471.13 1735.13 1471.16 1734.53L1471.38 1727.52C1471.4 1726.89 1471.1 1726.58 1470.49 1726.58H1430.3C1429.6 1726.58 1429.26 1726.24 1429.26 1725.56L1429.3 1716.7C1429.3 1715.81 1429.74 1715.37 1430.62 1715.37H1474.6C1475.27 1715.37 1475.79 1715.09 1476.15 1714.54C1484.43 1701.85 1496.29 1696.3 1511.71 1697.91C1512.65 1698 1513.28 1697.61 1513.61 1696.72L1528.8 1656.29C1529.06 1655.57 1529.55 1655.06 1530.27 1654.76C1532.23 1653.92 1534.24 1653.54 1536.32 1653.62C1555.3 1654.37 1574.27 1655.07 1593.23 1655.72C1593.87 1655.75 1594.22 1655.45 1594.29 1654.82L1594.97 1648.18C1595.05 1647.46 1594.72 1647.1 1593.99 1647.1H1536.34C1534.17 1647.1 1532.57 1646.14 1531.53 1644.23L1497.38 1581.25C1497 1580.56 1496.41 1580.25 1495.63 1580.33L1487.23 1581.27C1486.31 1581.37 1485.86 1580.96 1485.86 1580.05V1570.02C1485.86 1569.21 1486.26 1568.86 1487.06 1568.98L1496.18 1570.31C1496.82 1570.4 1497.28 1570.16 1497.58 1569.59L1518.56 1529.59C1518.89 1528.98 1518.79 1528.45 1518.26 1528C1500.4 1512.71 1500.5 1486.99 1519.24 1472.3C1519.9 1471.77 1520.01 1471.14 1519.54 1470.42L1485.72 1417.94C1484.79 1416.52 1484.33 1416.65 1484.33 1418.35ZM1526.97 1378.2L1520.89 1374.55C1520.79 1374.49 1520.66 1374.48 1520.55 1374.51C1520.43 1374.54 1520.34 1374.61 1520.28 1374.72L1501.09 1406.63C1499.59 1409.13 1498.21 1411.57 1497.27 1413.42C1496.32 1415.27 1495.88 1416.37 1496.03 1416.5L1501.58 1419.84C1501.65 1419.92 1501.87 1419.74 1502.23 1419.32C1502.59 1418.9 1503.08 1418.25 1503.68 1417.41C1504.27 1416.56 1504.95 1415.54 1505.68 1414.39C1506.42 1413.25 1507.18 1412.01 1507.94 1410.75L1527.13 1378.83C1527.16 1378.78 1527.18 1378.72 1527.19 1378.66C1527.2 1378.6 1527.2 1378.54 1527.18 1378.48C1527.17 1378.42 1527.14 1378.37 1527.1 1378.32C1527.07 1378.27 1527.02 1378.23 1526.97 1378.2Z" fill="#FBFBFB"/>
<path d="M1432.53 1408.36L1424.46 1408.21C1423.93 1408.2 1423.49 1408.62 1423.48 1409.15L1423.17 1425.2C1423.16 1425.73 1423.58 1426.17 1424.11 1426.18L1432.18 1426.33C1432.71 1426.34 1433.15 1425.92 1433.16 1425.4L1433.47 1409.34C1433.48 1408.81 1433.06 1408.37 1432.53 1408.36Z" fill="#FBFBFB"/>
<path d="M1450.19 1409.65L1440.99 1409.29C1440.68 1409.28 1440.43 1409.52 1440.41 1409.82L1439.84 1424.65C1439.83 1424.95 1440.07 1425.21 1440.37 1425.22L1449.58 1425.57C1449.89 1425.59 1450.14 1425.35 1450.15 1425.05L1450.72 1410.22C1450.74 1409.92 1450.5 1409.66 1450.19 1409.65Z" fill="#FBFBFB"/>
<path d="M1466.34 1410.7L1458.31 1410.52C1457.6 1410.5 1457.01 1411.06 1456.99 1411.77L1456.74 1422.94C1456.72 1423.65 1457.29 1424.23 1457.99 1424.25L1466.03 1424.43C1466.74 1424.45 1467.32 1423.89 1467.34 1423.18L1467.59 1412.01C1467.61 1411.3 1467.05 1410.72 1466.34 1410.7Z" fill="#FBFBFB"/>
<path d="M1416.49 1581.66C1416.34 1581.22 1416.08 1580.82 1415.73 1580.51C1415.38 1580.2 1414.96 1579.98 1414.5 1579.87C1414.05 1579.76 1413.57 1579.78 1413.12 1579.9C1412.67 1580.03 1412.26 1580.27 1411.93 1580.6L1352.94 1638.4C1352.41 1638.91 1352.25 1639.52 1352.45 1640.23L1372.86 1712.85C1373.06 1713.57 1372.81 1714.03 1372.08 1714.25L1363.34 1716.88C1362.7 1717.07 1362.28 1716.84 1362.09 1716.19L1341.52 1643.06C1341.34 1642.4 1340.92 1641.98 1340.24 1641.8L1253.72 1620.46C1252.76 1620.22 1252.4 1619.62 1252.66 1618.67L1254.88 1610.41C1255.1 1609.61 1255.62 1609.31 1256.43 1609.5L1343.01 1630.92C1343.63 1631.07 1344.18 1630.92 1344.66 1630.47C1364.62 1610.97 1384.53 1591.61 1404.4 1572.39C1405.78 1571.07 1408.18 1569.89 1411.62 1568.84C1412.26 1568.65 1412.91 1568.6 1413.58 1568.7C1415.73 1569 1417.06 1568.02 1417.59 1565.78C1417.8 1564.97 1418.32 1564.56 1419.16 1564.56H1426.73C1427.75 1564.56 1428.26 1565.07 1428.26 1566.09V1583.41C1428.26 1584.43 1427.75 1584.94 1426.73 1584.94H1418.98C1418.08 1584.94 1417.49 1584.52 1417.19 1583.68L1416.49 1581.66Z" fill="#FBFBFB"/>
<path d="M1444.04 1565.76H1435.88C1435.33 1565.76 1434.89 1566.21 1434.89 1566.76V1583.11C1434.89 1583.66 1435.33 1584.1 1435.88 1584.1H1444.04C1444.59 1584.1 1445.04 1583.66 1445.04 1583.11V1566.76C1445.04 1566.21 1444.59 1565.76 1444.04 1565.76Z" fill="#FBFBFB"/>
<path d="M1461.18 1566.92L1452.45 1566.89C1452.05 1566.89 1451.73 1567.2 1451.73 1567.6L1451.68 1582.31C1451.68 1582.71 1452 1583.03 1452.39 1583.03L1461.12 1583.06C1461.51 1583.06 1461.83 1582.74 1461.84 1582.35L1461.89 1567.63C1461.89 1567.24 1461.57 1566.92 1461.18 1566.92Z" fill="#FBFBFB"/>
<path d="M1477.92 1568.21L1470.01 1568.13C1469.31 1568.12 1468.74 1568.68 1468.73 1569.38L1468.61 1580.75C1468.6 1581.45 1469.16 1582.02 1469.86 1582.02L1477.77 1582.11C1478.47 1582.11 1479.04 1581.55 1479.05 1580.86L1479.17 1569.49C1479.18 1568.79 1478.62 1568.22 1477.92 1568.21Z" fill="#FBFBFB"/>
<path d="M685.137 1236.37L685.076 1240.24C685.063 1240.97 684.689 1241.31 683.955 1241.26L675.147 1240.56C674.412 1240.5 674.052 1240.1 674.066 1239.36L674.535 1221.63C674.548 1220.95 674.895 1220.6 675.575 1220.57L684.505 1220.14C685.239 1220.1 685.606 1220.46 685.606 1221.2V1224.38C685.606 1225.47 686.116 1225.82 687.136 1225.42C690.765 1224 693.253 1224.69 695.19 1228.23C703.726 1244.04 712.249 1260.14 720.758 1276.54C721.015 1277.02 721.39 1277.44 721.849 1277.75C722.308 1278.06 722.837 1278.25 723.389 1278.31C736.764 1279.68 746.694 1286.22 753.178 1297.94C753.477 1298.47 753.933 1298.73 754.544 1298.73H789.574C790.24 1298.73 790.736 1298.44 791.062 1297.87C813.838 1259.34 868.768 1280.75 855.861 1323.55C854.352 1328.55 850.519 1332.83 847.359 1337.15C846.856 1337.83 846.829 1338.53 847.277 1339.25L873.417 1381.41C873.77 1382 874.287 1382.29 874.966 1382.29H960.338C961.185 1382.29 962.016 1382.51 962.747 1382.94C963.478 1383.36 964.082 1383.98 964.498 1384.71L999.548 1447.08C999.901 1447.7 1000.43 1448.02 1001.14 1448.02H1056.62C1057.2 1448.02 1057.62 1447.76 1057.88 1447.24C1077.46 1409.09 1133.41 1429.96 1123.33 1471.35C1113.83 1510.32 1053.68 1503 1054.7 1459.79C1054.72 1459.03 1054.34 1458.67 1053.58 1458.69C1033.98 1459.58 1017.86 1459.54 1005.22 1458.59C1002.2 1458.38 1000.22 1459.14 999.283 1460.88C990.801 1476.55 982.38 1492.24 974.02 1507.93C973.68 1508.59 973.789 1509.14 974.346 1509.6C978.547 1513.09 983.522 1516.7 986.009 1521.49C994.722 1538.32 992.167 1553.52 978.343 1567.08C977.813 1567.59 977.758 1568.16 978.179 1568.77L1000.79 1601.99C1001.2 1602.6 1001.78 1602.9 1002.52 1602.9H1088.77C1088.99 1602.91 1089.21 1602.97 1089.39 1603.08C1089.57 1603.2 1089.72 1603.36 1089.81 1603.56L1127.51 1683.33C1127.8 1683.94 1128.28 1684.23 1128.96 1684.2L1228.97 1680.43C1229.43 1680.41 1229.88 1680.52 1230.28 1680.73C1230.68 1680.95 1231.02 1681.26 1231.26 1681.65L1287.04 1770.29C1287.36 1770.8 1287.54 1771.38 1287.56 1771.98C1287.58 1772.57 1287.45 1773.16 1287.17 1773.69L1240.84 1861.2C1240.47 1861.9 1240.48 1862.58 1240.86 1863.26L1250.71 1881.22C1251.12 1881.95 1251.73 1882.21 1252.54 1881.99C1278.13 1874.96 1302.15 1894.61 1297.77 1921.35C1293.92 1944.89 1267.71 1956.64 1246.96 1946.11C1224.67 1934.82 1222.78 1905.08 1240.56 1888.57C1241.15 1888.02 1241.26 1887.38 1240.88 1886.66L1231.24 1868.99C1230.84 1868.28 1230.24 1867.94 1229.42 1867.97L1130.25 1871.54C1129.51 1871.56 1128.96 1871.27 1128.57 1870.66C1110.9 1842.54 1093.25 1814.42 1075.6 1786.31C1072.58 1781.5 1071.54 1780.01 1074.5 1774.45C1089.11 1746.97 1103.67 1719.49 1118.18 1691.99C1118.5 1691.38 1118.52 1690.76 1118.22 1690.15L1092.16 1635.11C1092.05 1634.87 1091.87 1634.66 1091.65 1634.51C1091.43 1634.36 1091.18 1634.27 1090.91 1634.25L1001.97 1628.05C1001.23 1628.01 1000.68 1628.33 1000.34 1629.01L970.574 1689.62C970.357 1690.08 970.37 1690.54 970.615 1690.99L992.187 1728.43C992.581 1729.11 993.166 1729.45 993.941 1729.47C1009.14 1729.89 1019.86 1736.06 1026.12 1747.99C1041.31 1777.01 1012.68 1808.91 982.421 1796.82C961.97 1788.67 954.752 1764.64 965.905 1745.79C966.163 1745.35 966.311 1744.85 966.336 1744.34C966.361 1743.83 966.262 1743.32 966.048 1742.86L946.086 1700.36C945.76 1699.67 945.216 1699.32 944.455 1699.32L904.654 1698.94C904.042 1698.92 903.675 1699.22 903.553 1699.83C899.19 1721.35 877.841 1733.16 857.187 1725.76C856.602 1725.54 856.16 1725.7 855.861 1726.25L831.067 1770.84C830.808 1771.3 830.677 1771.81 830.688 1772.34C830.699 1772.87 830.851 1773.38 831.128 1773.83L874.008 1843.98C874.389 1844.61 874.946 1844.92 875.68 1844.92H958.748C959.266 1844.92 959.775 1845.06 960.223 1845.32C960.672 1845.59 961.042 1845.97 961.297 1846.43L1003.79 1922.53C1004.2 1923.25 1004.04 1923.82 1003.32 1924.24L995.654 1928.87C995.015 1929.26 994.512 1929.13 994.145 1928.48L954.221 1857.01C954.037 1856.67 953.764 1856.38 953.43 1856.19C953.097 1855.99 952.715 1855.88 952.325 1855.88H869.298C868.906 1855.88 868.521 1855.78 868.182 1855.59C867.842 1855.4 867.559 1855.12 867.361 1854.78L819.16 1776.01C818.992 1775.74 818.756 1775.51 818.474 1775.36C818.192 1775.2 817.873 1775.12 817.549 1775.12H749.365C748.781 1775.12 748.346 1775.38 748.06 1775.89L718.434 1831.27C718.162 1831.78 718.189 1832.28 718.516 1832.75C725.353 1842.67 726.916 1853.14 723.205 1864.16C713.214 1893.79 672.149 1896.26 658.508 1868.09C648.212 1846.77 661.954 1821.69 685.953 1818.53C686.687 1818.43 687.251 1818.07 687.645 1817.45L719.494 1766.48C719.774 1766.02 719.931 1765.5 719.949 1764.97C719.967 1764.43 719.845 1763.9 719.596 1763.42L703.549 1732.73C703.223 1732.1 702.727 1731.91 702.061 1732.14C680.305 1739.27 661.281 1722.7 657.856 1701.89C657.747 1701.25 657.367 1700.94 656.714 1700.95L605.087 1701.36C604.544 1701.36 604.163 1701.61 603.945 1702.12L572.423 1772.04C572.016 1772.96 571.35 1773.74 570.507 1774.28C569.664 1774.83 568.679 1775.12 567.672 1775.12L468.965 1775.12C468.245 1775.12 467.714 1775.43 467.375 1776.06L430.265 1842.49C429.817 1843.3 429.83 1844.09 430.306 1844.88L456.16 1887.23C456.5 1887.77 456.989 1887.98 457.628 1887.84C504.321 1877.94 519.878 1943.05 475.592 1955.52C467.409 1957.83 459.572 1957.11 452.082 1953.34C433.793 1944.17 427.737 1924.38 435.791 1905.33C436.035 1904.73 435.988 1904.17 435.648 1903.64L406.042 1857.76C405.349 1856.69 404.37 1856.1 403.106 1855.99L368.953 1853.19C368.328 1853.14 367.954 1853.43 367.832 1854.05C362.102 1884.91 326.379 1898.95 305.622 1873.35C285.681 1848.75 305.928 1812.21 337.43 1816.84C351.187 1818.86 360.777 1826.89 366.2 1840.93C366.418 1841.52 366.846 1841.84 367.485 1841.88L414.402 1845.57C415.082 1845.63 415.585 1845.35 415.911 1844.76L460.646 1764.97C461.04 1764.26 461.638 1763.91 462.44 1763.91H542.409C543.129 1763.91 543.694 1763.61 544.101 1763.01L588.653 1696.43C589.088 1695.78 589.088 1695.13 588.653 1694.49C576.786 1677.1 564.804 1659.77 552.706 1642.48C550.85 1639.83 550.239 1638.53 546.711 1638.53C530.97 1638.5 515.236 1638.53 499.509 1638.61C498.816 1638.62 498.292 1638.94 497.939 1639.55C490.313 1653.18 479.391 1659.78 465.173 1659.36C451.287 1658.95 437.708 1650.31 433.324 1637.08C419.255 1594.69 477.141 1570.07 498.061 1610.16C498.374 1610.76 498.87 1611.06 499.55 1611.06H551.177C551.566 1611.06 551.95 1610.95 552.29 1610.76C552.63 1610.56 552.914 1610.28 553.114 1609.94L577.663 1567.71C577.857 1567.38 577.94 1566.99 577.9 1566.61C577.86 1566.23 577.698 1565.87 577.439 1565.59C561.44 1547.91 561.405 1530.06 577.337 1512.03C577.826 1511.47 577.86 1510.9 577.439 1510.3L552.502 1474.35C552.067 1473.74 551.482 1473.46 550.748 1473.51L473.777 1479.85C473.002 1479.92 472.343 1479.67 471.799 1479.1L401.128 1404.97C400.625 1404.46 400.014 1404.2 399.293 1404.2H362.449C361.81 1404.2 361.416 1404.51 361.266 1405.14C356.209 1427.51 333.087 1439.62 312.066 1429.51C287.639 1417.73 285.661 1384.47 307.519 1369.16C328.663 1354.37 356.169 1367.64 361.572 1391.87C361.735 1392.62 362.204 1392.99 362.979 1392.99H386.794C387.379 1392.99 387.78 1392.72 387.997 1392.17L409.61 1338.72C409.855 1338.09 409.841 1337.47 409.57 1336.84C385.408 1283.2 471.881 1266.98 475.327 1317.91C476.774 1339.31 459.749 1355.86 438.645 1355.39C438.368 1355.38 438.095 1355.45 437.867 1355.61C437.64 1355.76 437.469 1355.98 437.381 1356.24L419.54 1405.87C419.386 1406.3 419.354 1406.76 419.448 1407.21C419.541 1407.65 419.757 1408.06 420.07 1408.4L456.119 1446.28C456.609 1446.79 457.193 1447.08 457.873 1447.18L548.363 1458.9C549.042 1458.98 549.545 1458.72 549.872 1458.12L591.222 1382.7C591.383 1382.41 591.464 1382.09 591.456 1381.76C591.449 1381.43 591.354 1381.11 591.181 1380.82L566.306 1339.84C565.925 1339.23 565.368 1338.91 564.634 1338.88C516.922 1337.23 519.063 1267.14 570.078 1270.26C570.758 1270.31 571.281 1270.06 571.648 1269.48L597.054 1231.84C597.461 1231.24 597.468 1230.64 597.074 1230.03L558.028 1169.21C557.74 1168.77 557.34 1168.4 556.865 1168.15C556.39 1167.9 555.857 1167.78 555.316 1167.79L488.723 1169.62C488.07 1169.63 487.533 1169.9 487.112 1170.42C459.219 1205.31 407.062 1170.01 428.634 1132.24C443.682 1105.89 480.587 1110.52 491.7 1137.87C491.985 1138.58 492.502 1138.97 493.249 1139.05L550.81 1146.02C551.449 1146.09 551.924 1145.84 552.237 1145.27L575.624 1102.61C575.991 1101.95 575.943 1101.31 575.481 1100.72C561.181 1082.31 562.153 1064.79 578.397 1048.16C578.927 1047.61 579.002 1047.01 578.621 1046.36L559.577 1013.28C559.237 1012.67 558.714 1012.35 558.007 1012.31L548.546 1011.74C547.717 1011.68 547.309 1011.24 547.323 1010.41L547.527 992.558C547.54 991.851 547.894 991.553 548.587 991.661C554.459 992.585 559.536 990.69 563.818 985.975C580.021 968.163 596.184 950.344 612.305 932.518C614.086 930.534 616.098 930.025 618.341 930.989C649.986 944.644 676.635 956.478 698.289 966.492C700.641 967.578 701.674 969.46 701.388 972.137C698.316 1000.81 695.169 1029.87 691.948 1059.32C691.854 1060.15 691.5 1060.94 690.936 1061.55C690.372 1062.17 689.627 1062.6 688.808 1062.77L636.569 1073.65C635.862 1073.8 635.502 1074.24 635.488 1074.96C634.979 1101.02 611.877 1116.8 587.083 1107.89C586.308 1107.62 585.724 1107.84 585.33 1108.56L561.31 1152.07C561.052 1152.54 561.066 1152.98 561.351 1153.42L606.739 1224.12C607.133 1224.74 607.704 1225.02 608.452 1224.95L615.445 1224.26C616.288 1224.18 616.716 1224.57 616.73 1225.42L616.811 1235.84C616.811 1236.81 616.356 1237.12 615.445 1236.75C611.435 1235.14 608.37 1235.8 606.249 1238.73C602.933 1243.32 595.055 1254.91 582.618 1273.5C582.237 1274.07 582.332 1274.55 582.903 1274.93C607.289 1291.21 604.761 1323.17 578.519 1336.31C577.962 1336.58 577.846 1336.98 578.173 1337.51L597.706 1369.69C597.951 1370.12 598.318 1370.32 598.807 1370.31L649.7 1368.25C650.393 1368.22 650.957 1367.93 651.392 1367.37C662.077 1353.47 674.861 1348.6 689.746 1352.76C714.907 1359.79 725.101 1390.99 706.445 1410.25C687.768 1429.57 658.162 1422.21 648.048 1398.14C647.777 1397.47 647.267 1397.1 646.519 1397.04L599.623 1393.5C598.753 1393.43 598.107 1393.78 597.686 1394.54L560.046 1463.2C559.638 1463.95 559.679 1464.67 560.169 1465.38L587.43 1504.98C587.783 1505.51 588.272 1505.7 588.898 1505.57C652.881 1492.4 647.294 1587.82 589.387 1571.85C588.735 1571.66 588.238 1571.86 587.899 1572.46L560.413 1620C560.078 1620.59 559.592 1621.08 559.005 1621.42C558.417 1621.76 557.75 1621.94 557.069 1621.94L502.608 1622.35C501.752 1622.36 501.29 1622.8 501.222 1623.65L501.038 1626.02C500.97 1626.91 501.385 1627.36 502.282 1627.36H554.949C555.669 1627.36 556.226 1627.65 556.621 1628.24L598.644 1688.95C599.011 1689.48 599.514 1689.75 600.153 1689.75L657.999 1689.91C658.597 1689.91 659.005 1689.62 659.222 1689.05C668.601 1663.78 699.492 1653.77 718.536 1674.75C732.829 1690.5 729.771 1712.73 714.234 1726.76C713.704 1727.23 713.608 1727.79 713.948 1728.43L732.299 1762.85C732.639 1763.46 733.155 1763.77 733.849 1763.77L820.77 1763.91C821.491 1763.91 822.035 1763.59 822.402 1762.95L845.748 1721.19C846.074 1720.61 846.02 1720.06 845.585 1719.54C803.031 1669.22 889.769 1629.18 903.634 1686.63C903.784 1687.22 904.165 1687.52 904.776 1687.52L958.055 1687.54C958.666 1687.54 959.115 1687.27 959.401 1686.71C970.601 1663.91 981.836 1641.1 993.105 1618.29C995.674 1613.05 993.757 1611.85 990.413 1606.94C982.815 1595.85 975.291 1584.73 967.842 1573.56C967.461 1573 966.945 1572.8 966.292 1572.97C912.157 1587.13 903.349 1500.56 961.745 1505.16C962.398 1505.22 962.88 1504.95 963.193 1504.37L989.781 1454.48C990.067 1453.92 990.06 1453.37 989.761 1452.82L956.933 1394.27C956.634 1393.73 956.172 1393.46 955.547 1393.46H868.931C867.993 1393.46 867.273 1393.05 866.77 1392.23L837.572 1344.89C837.123 1344.17 836.491 1343.91 835.675 1344.1C824.012 1346.75 814.49 1347.4 803.011 1339.82C793.373 1333.43 788.514 1323.77 788.432 1310.84C788.419 1310.1 788.045 1309.73 787.311 1309.72L758.174 1309.67C757.535 1309.67 757.147 1309.99 757.011 1310.61C756.237 1314.12 756.114 1318.3 755.278 1321.21C746.266 1352.68 703.325 1356.49 689.786 1326.55C681.325 1307.86 690.48 1288.89 708.83 1280.59C709.565 1280.25 709.741 1279.73 709.361 1279.02L686.606 1236.02C686.528 1235.86 686.399 1235.74 686.241 1235.66C686.083 1235.59 685.904 1235.57 685.734 1235.61C685.564 1235.65 685.413 1235.75 685.305 1235.89C685.196 1236.02 685.137 1236.19 685.137 1236.37ZM442.8 1894.19C443.035 1894.57 443.409 1894.83 443.842 1894.93C444.274 1895.03 444.728 1894.96 445.104 1894.72L445.519 1894.46C445.895 1894.23 446.162 1893.85 446.262 1893.42C446.362 1892.99 446.285 1892.54 446.051 1892.16L423.684 1856.38C423.449 1856.01 423.075 1855.74 422.643 1855.64C422.211 1855.54 421.757 1855.62 421.381 1855.85L420.965 1856.11C420.589 1856.35 420.322 1856.72 420.222 1857.15C420.123 1857.58 420.199 1858.04 420.434 1858.41L442.8 1894.19ZM1136.47 1860.08L1228.97 1856.78C1229.38 1856.76 1229.78 1856.64 1230.12 1856.43C1230.47 1856.21 1230.75 1855.91 1230.93 1855.56C1244.93 1829.21 1258.9 1802.91 1272.83 1776.65C1274.46 1773.61 1275.01 1772.37 1273 1769.19C1256.96 1743.85 1241 1718.4 1225.12 1692.84C1224.73 1692.2 1224.16 1691.9 1223.41 1691.93L1130.45 1695.33C1129.63 1695.36 1129.04 1695.73 1128.66 1696.45L1085.45 1778.01C1085.21 1778.47 1085.09 1778.98 1085.11 1779.5C1085.13 1780.01 1085.28 1780.51 1085.55 1780.95L1134.77 1859.19C1135.17 1859.81 1135.73 1860.11 1136.47 1860.08ZM701.123 1819.77L708.728 1823.4C709.354 1823.7 709.83 1823.54 710.156 1822.93L734.95 1776.16C735.208 1775.68 735.086 1775.35 734.583 1775.16C730.749 1773.8 727.813 1774.75 725.774 1778.01C717.374 1791.41 709 1804.8 700.654 1818.18C700.219 1818.89 700.375 1819.42 701.123 1819.77ZM573.83 1739.02C568.426 1744.77 562.901 1755.49 558.333 1762.42C557.477 1763.74 557.824 1764.28 559.373 1764.03L562.697 1763.54C563.404 1763.43 563.907 1763.05 564.206 1762.38L574.543 1739.49C575.25 1737.93 575.012 1737.77 573.83 1739.02ZM976.283 1735.66L981.279 1733.07C981.404 1733 981.498 1732.89 981.54 1732.75C981.582 1732.62 981.569 1732.47 981.503 1732.34L981.34 1732.01C976.449 1722.62 971.467 1713.77 967.487 1707.39C963.508 1701.01 960.856 1697.63 960.114 1698L959.666 1698.22C958.94 1698.62 960.186 1702.73 963.129 1709.64C966.073 1716.56 970.474 1725.72 975.366 1735.11L975.529 1735.44C975.563 1735.5 975.61 1735.56 975.667 1735.61C975.723 1735.65 975.789 1735.69 975.859 1735.71C975.929 1735.73 976.003 1735.74 976.076 1735.73C976.149 1735.72 976.219 1735.7 976.283 1735.66ZM1081.27 1614.03L1008.93 1613.85C1008.14 1613.85 1007.62 1614.22 1007.36 1614.97C1006.77 1616.64 1007.72 1617.13 1009.23 1617.23C1034.38 1619.01 1059.56 1620.76 1084.78 1622.47C1085.84 1622.54 1086.13 1622.1 1085.65 1621.15L1082.41 1614.75C1082.17 1614.27 1081.79 1614.03 1081.27 1614.03ZM493.596 1466.74C498.462 1466.55 503.342 1466.19 508.236 1465.64C510.207 1465.43 510.207 1465.2 508.236 1464.95L471.534 1460.41C470.678 1460.31 470.467 1460.64 470.902 1461.38C476.591 1471.43 485.256 1467.09 493.596 1466.74ZM400.924 1392.95L410.141 1396.39C410.251 1396.43 410.373 1396.43 410.48 1396.38C410.587 1396.33 410.67 1396.24 410.711 1396.13L426.065 1355.08C426.235 1354.63 426.313 1354.15 426.294 1353.67C426.275 1353.18 426.16 1352.71 425.956 1352.27C425.751 1351.83 425.461 1351.43 425.102 1351.1C424.743 1350.76 424.322 1350.51 423.863 1350.33L420.804 1349.19C420.344 1349.02 419.855 1348.94 419.364 1348.95C418.874 1348.96 418.392 1349.07 417.947 1349.27C417.502 1349.47 417.102 1349.76 416.77 1350.11C416.438 1350.46 416.181 1350.88 416.013 1351.33L400.68 1392.38C400.639 1392.49 400.642 1392.61 400.687 1392.71C400.733 1392.82 400.818 1392.9 400.924 1392.95ZM646.377 1384.37L646.417 1380.86C646.417 1380.58 646.306 1380.31 646.107 1380.11C645.908 1379.91 645.638 1379.8 645.357 1379.8H645.092C639.723 1379.77 634.407 1379.8 629.445 1379.9C624.484 1380 619.976 1380.17 616.178 1380.4C612.38 1380.63 609.366 1380.91 607.309 1381.22C605.252 1381.54 604.193 1381.89 604.19 1382.25V1382.41C604.187 1382.77 605.242 1383.13 607.294 1383.48C609.346 1383.82 612.355 1384.15 616.149 1384.43C619.944 1384.71 624.449 1384.94 629.408 1385.11C634.367 1385.28 639.683 1385.39 645.051 1385.43H645.316C645.455 1385.43 645.593 1385.4 645.722 1385.35C645.851 1385.29 645.968 1385.22 646.066 1385.12C646.164 1385.02 646.243 1384.9 646.296 1384.77C646.349 1384.64 646.377 1384.51 646.377 1384.37ZM493.372 1152.09L493.168 1156.78C493.165 1156.85 493.176 1156.92 493.2 1156.99C493.224 1157.05 493.261 1157.11 493.308 1157.16C493.356 1157.21 493.413 1157.25 493.476 1157.28C493.539 1157.31 493.608 1157.33 493.677 1157.33H493.963C500.178 1157.58 506.336 1157.76 512.082 1157.86C517.829 1157.95 523.053 1157.96 527.455 1157.89C531.856 1157.82 535.349 1157.67 537.733 1157.44C540.117 1157.21 541.346 1156.91 541.349 1156.56V1156.15C541.381 1155.44 536.432 1154.56 527.591 1153.71C518.751 1152.85 506.742 1152.09 494.208 1151.58H493.922C493.852 1151.58 493.783 1151.59 493.718 1151.62C493.652 1151.64 493.592 1151.68 493.541 1151.73C493.49 1151.77 493.449 1151.83 493.42 1151.89C493.391 1151.96 493.374 1152.02 493.372 1152.09ZM590.468 1042.39C607.942 1037.19 625.192 1045.61 632.695 1061.97C632.967 1062.57 633.422 1062.8 634.061 1062.67L680.244 1053.15C680.951 1053 681.345 1052.57 681.427 1051.86L689.664 975.968C689.746 975.221 689.44 974.691 688.747 974.379L619.177 943.279C618.538 942.993 617.98 943.116 617.505 943.645L566.428 999.874C565.871 1000.47 565.796 1001.13 566.204 1001.85L588.877 1041.74C589.244 1042.37 589.774 1042.59 590.468 1042.39Z" fill="#FBFBFB"/>
<path d="M812.169 1924.9L829.053 1934.96C829.304 1935.11 829.63 1935.03 829.78 1934.78L834.979 1926.06C835.129 1925.81 835.047 1925.48 834.795 1925.33L817.912 1915.27C817.66 1915.12 817.335 1915.21 817.185 1915.46L811.986 1924.17C811.836 1924.43 811.918 1924.75 812.169 1924.9Z" fill="#FBFBFB"/>
<path d="M822.842 1910.41L836.236 1918.52C836.872 1918.9 837.699 1918.7 838.084 1918.06L841.908 1911.75C842.293 1911.12 842.09 1910.29 841.454 1909.91L828.06 1901.8C827.424 1901.41 826.596 1901.62 826.211 1902.25L822.388 1908.56C822.003 1909.2 822.206 1910.02 822.842 1910.41Z" fill="#FBFBFB"/>
<path d="M831.657 1896.15L844.086 1903.88C844.411 1904.08 844.839 1903.98 845.041 1903.66L849.825 1895.98C850.027 1895.65 849.928 1895.22 849.603 1895.02L837.174 1887.29C836.849 1887.09 836.422 1887.19 836.219 1887.51L831.435 1895.19C831.233 1895.52 831.332 1895.95 831.657 1896.15Z" fill="#FBFBFB"/>
<path d="M841.141 1882.17L851.503 1888.52C851.896 1888.76 852.411 1888.64 852.652 1888.25L857.318 1880.63C857.56 1880.24 857.436 1879.73 857.042 1879.49L846.681 1873.14C846.287 1872.9 845.773 1873.02 845.531 1873.41L840.865 1881.03C840.624 1881.42 840.747 1881.93 841.141 1882.17Z" fill="#FBFBFB"/>
<path d="M850.444 1867.81L859.469 1873.3C859.729 1873.45 860.068 1873.37 860.225 1873.11L864.929 1865.38C865.087 1865.12 865.004 1864.78 864.744 1864.62L855.72 1859.14C855.46 1858.98 855.121 1859.06 854.963 1859.32L850.26 1867.06C850.102 1867.31 850.185 1867.65 850.444 1867.81Z" fill="#FBFBFB"/>
<path d="M909.609 1781.48H919.6C919.904 1781.48 920.15 1781.23 920.15 1780.93V1761.28C920.15 1760.98 919.904 1760.73 919.6 1760.73H909.609C909.305 1760.73 909.058 1760.98 909.058 1761.28V1780.93C909.058 1781.23 909.305 1781.48 909.609 1781.48Z" fill="#FBFBFB"/>
<path d="M893.073 1780.36H901.759C902.052 1780.36 902.289 1780.12 902.289 1779.83V1762.71C902.289 1762.41 902.052 1762.18 901.759 1762.18H893.073C892.78 1762.18 892.543 1762.41 892.543 1762.71V1779.83C892.543 1780.12 892.78 1780.36 893.073 1780.36Z" fill="#FBFBFB"/>
<path d="M876.275 1779.75L885.409 1779.66C885.747 1779.65 886.018 1779.38 886.014 1779.04L885.857 1764.08C885.854 1763.74 885.577 1763.47 885.239 1763.47L876.105 1763.57C875.767 1763.57 875.496 1763.85 875.5 1764.19L875.657 1779.15C875.66 1779.48 875.937 1779.75 876.275 1779.75Z" fill="#FBFBFB"/>
<path d="M859.246 1778.98L868.497 1778.66C868.801 1778.65 869.039 1778.4 869.028 1778.09L868.583 1765.34C868.572 1765.04 868.317 1764.8 868.013 1764.81L858.762 1765.13C858.458 1765.14 858.22 1765.4 858.231 1765.7L858.676 1778.45C858.687 1778.76 858.942 1778.99 859.246 1778.98Z" fill="#FBFBFB"/>
<path d="M842.679 1777.85L850.835 1777.81C851.342 1777.8 851.75 1777.39 851.748 1776.89L851.696 1767.06C851.694 1766.56 851.281 1766.15 850.774 1766.15L842.618 1766.19C842.111 1766.2 841.703 1766.61 841.705 1767.11L841.757 1776.94C841.759 1777.44 842.172 1777.85 842.679 1777.85Z" fill="#FBFBFB"/>
<path d="M960.598 1374.41L967.155 1379.19C967.892 1379.73 968.925 1379.56 969.463 1378.83L973.571 1373.2C974.109 1372.46 973.947 1371.43 973.21 1370.89L966.653 1366.11C965.916 1365.57 964.883 1365.73 964.345 1366.47L960.237 1372.1C959.699 1372.84 959.861 1373.87 960.598 1374.41Z" fill="#FBFBFB"/>
<path d="M969.299 1359.99L978.155 1366.73C978.755 1367.19 979.612 1367.07 980.07 1366.47L984.913 1360.12C985.37 1359.52 985.254 1358.66 984.654 1358.2L975.798 1351.46C975.198 1351 974.341 1351.12 973.884 1351.72L969.04 1358.07C968.583 1358.67 968.699 1359.53 969.299 1359.99Z" fill="#FBFBFB"/>
<path d="M978.005 1344.83L989.975 1354.14C990.206 1354.32 990.539 1354.28 990.719 1354.05L996.431 1346.72C996.611 1346.49 996.569 1346.15 996.338 1345.97L984.368 1336.66C984.137 1336.48 983.803 1336.52 983.624 1336.75L977.912 1344.08C977.732 1344.32 977.774 1344.65 978.005 1344.83Z" fill="#FBFBFB"/>
<path d="M987.703 1331.1L1000.53 1341.04C1000.96 1341.38 1001.59 1341.3 1001.93 1340.86L1007 1334.33C1007.34 1333.89 1007.26 1333.26 1006.83 1332.92L994.002 1322.98C993.566 1322.64 992.938 1322.72 992.6 1323.16L987.526 1329.7C987.188 1330.13 987.267 1330.76 987.703 1331.1Z" fill="#FBFBFB"/>
<path d="M996.366 1316.64L1011.94 1328.49C1012.17 1328.67 1012.5 1328.63 1012.68 1328.39L1018.86 1320.29C1019.03 1320.05 1018.99 1319.72 1018.76 1319.54L1003.19 1307.69C1002.95 1307.51 1002.62 1307.56 1002.44 1307.79L996.265 1315.9C996.088 1316.13 996.133 1316.46 996.366 1316.64Z" fill="#FBFBFB"/>
<path d="M657.859 1239.62L666.705 1239.83C666.998 1239.84 667.241 1239.61 667.248 1239.32L667.668 1222.16C667.675 1221.87 667.443 1221.63 667.151 1221.62L658.304 1221.4C658.012 1221.4 657.768 1221.63 657.761 1221.92L657.342 1239.08C657.335 1239.37 657.566 1239.61 657.859 1239.62Z" fill="#FBFBFB"/>
<path d="M641.477 1238.51L650.285 1238.5C650.668 1238.5 650.978 1238.19 650.977 1237.8L650.952 1223.17C650.951 1222.79 650.64 1222.48 650.257 1222.48L641.449 1222.5C641.066 1222.5 640.756 1222.81 640.757 1223.19L640.782 1237.82C640.783 1238.21 641.094 1238.51 641.477 1238.51Z" fill="#FBFBFB"/>
<path d="M623.875 1237.22L633.129 1237.43C633.433 1237.43 633.685 1237.19 633.692 1236.89L633.979 1224.26C633.986 1223.95 633.745 1223.7 633.441 1223.69L624.187 1223.48C623.883 1223.48 623.631 1223.72 623.624 1224.02L623.337 1236.65C623.33 1236.96 623.571 1237.21 623.875 1237.22Z" fill="#FBFBFB"/>
<path d="M479.67 1000.65V997.021C479.67 996.274 480.044 995.88 480.791 995.839L488.723 995.493C489.471 995.452 489.844 995.805 489.844 996.552L489.865 1006.15C489.878 1007.1 489.409 1007.54 488.458 1007.46L480.832 1006.8C480.125 1006.75 479.588 1007.02 479.221 1007.62L450.492 1054.84C450.071 1055.55 450.003 1056.28 450.288 1057.04C456.201 1072.9 449.962 1090.97 435.669 1099.29C398.437 1120.91 362.449 1069.74 395.542 1042.45C403.711 1035.72 413.675 1033.28 425.433 1035.11C426.14 1035.22 426.684 1034.97 427.064 1034.36L455.202 988.054C455.61 987.388 455.603 986.729 455.182 986.077L434.445 953.672C434.169 953.244 433.77 952.908 433.298 952.705C432.827 952.502 432.304 952.441 431.795 952.531C376.314 962.823 373.949 873.762 434.078 884.93C434.785 885.066 435.302 884.814 435.628 884.176L456.262 844.455C456.643 843.748 456.636 843.035 456.242 842.315L424.658 784.068C424.318 783.429 423.781 783.11 423.047 783.11H365.569C364.848 783.11 364.284 783.409 363.876 784.007C355.639 795.827 344.798 801.133 331.355 799.924C301.871 797.274 288.821 761.609 309.517 740.414C326.4 723.131 355.7 728.369 366.262 750.889C366.602 751.609 367.166 751.983 367.954 752.01L425.229 754.007C425.99 754.034 426.507 753.695 426.779 752.988L439.951 717.934C440.236 717.173 440.039 716.562 439.359 716.1C418.5 702.017 417.094 673.302 437.402 658.078C437.65 657.895 437.824 657.628 437.891 657.325C437.959 657.022 437.915 656.703 437.769 656.427L407.082 598.384C406.743 597.742 406.581 597.021 406.614 596.298C406.646 595.574 406.871 594.873 407.266 594.267L449.167 530.334C449.449 529.902 449.619 529.408 449.662 528.895C449.705 528.383 449.618 527.869 449.411 527.4L432.712 489.574C432.386 488.84 431.829 488.541 431.04 488.677C392.565 494.954 374.418 445.084 406.715 424.622C423.047 414.269 447.087 420.566 455.814 437.849C464.316 454.703 459.219 473.412 443.6 484.214C443.125 484.54 443.002 484.968 443.233 485.498L459.647 522.834C459.973 523.568 460.537 523.928 461.339 523.915L517.819 523.16C518.553 523.147 519.076 522.807 519.389 522.141C526.444 507.101 537.618 499.798 552.91 500.233C585.024 501.109 598.97 540.993 574.605 561.618C551.381 581.305 519.654 564.92 517.065 535.511C516.997 534.75 516.575 534.37 515.801 534.37L460.687 535.124C459.858 535.137 459.212 535.491 458.75 536.183L419.622 595.897C419.214 596.509 419.187 597.141 419.54 597.793L448.106 651.739C448.46 652.391 449.004 652.65 449.738 652.514C469.699 648.641 479.384 656.916 489.804 671.814C490.198 672.357 490.728 672.602 491.394 672.547L532.826 669.205C533.764 669.137 534.267 669.572 534.335 670.509L534.865 679.11C534.906 679.884 534.539 680.306 533.764 680.374L493.759 683.512C493.175 683.553 492.869 683.872 492.842 684.47L492.617 691.481C492.604 692.106 492.903 692.418 493.514 692.418H533.703C534.396 692.418 534.743 692.758 534.743 693.437L534.702 702.303C534.702 703.186 534.26 703.627 533.377 703.627H489.396C488.73 703.627 488.213 703.906 487.846 704.463C479.568 717.153 467.715 722.696 452.286 721.093C451.348 720.998 450.716 721.392 450.39 722.275L435.2 762.71C434.941 763.43 434.452 763.939 433.732 764.238C431.774 765.08 429.756 765.461 427.676 765.379C408.7 764.632 389.731 763.932 370.768 763.28C370.129 763.253 369.776 763.552 369.708 764.177L369.035 770.821C368.953 771.541 369.279 771.901 370.014 771.901H427.655C429.83 771.901 431.434 772.859 432.467 774.775L466.62 837.75C467.001 838.443 467.586 838.748 468.374 838.667L476.774 837.729C477.685 837.634 478.141 838.042 478.141 838.952V848.979C478.141 849.794 477.74 850.141 476.938 850.019L467.823 848.694C467.184 848.599 466.716 848.837 466.416 849.407L445.435 889.413C445.109 890.025 445.211 890.555 445.741 891.003C463.603 906.288 463.501 932.008 444.763 946.702C444.096 947.232 443.994 947.857 444.457 948.577L478.283 1001.06C479.208 1002.48 479.67 1002.35 479.67 1000.65ZM437.035 1040.8L443.111 1044.45C443.214 1044.51 443.336 1044.52 443.45 1044.49C443.565 1044.46 443.663 1044.39 443.723 1044.28L462.909 1012.37C464.413 1009.87 465.788 1007.43 466.735 1005.58C467.682 1003.73 468.124 1002.63 467.966 1002.5L462.42 999.161C462.349 999.085 462.127 999.26 461.767 999.678C461.407 1000.1 460.917 1000.75 460.325 1001.59C459.732 1002.44 459.05 1003.46 458.317 1004.61C457.585 1005.75 456.817 1006.99 456.058 1008.25L436.872 1040.17C436.839 1040.22 436.817 1040.28 436.808 1040.34C436.799 1040.4 436.802 1040.46 436.817 1040.52C436.832 1040.58 436.859 1040.63 436.897 1040.68C436.934 1040.73 436.981 1040.77 437.035 1040.8Z" fill="#FBFBFB"/>
<path d="M531.471 1010.64L539.544 1010.79C540.073 1010.8 540.511 1010.38 540.521 1009.85L540.829 993.796C540.839 993.267 540.419 992.83 539.89 992.82L531.817 992.665C531.288 992.655 530.85 993.076 530.84 993.604L530.532 1009.66C530.522 1010.19 530.942 1010.63 531.471 1010.64Z" fill="#FBFBFB"/>
<path d="M513.805 1009.35L523.015 1009.71C523.319 1009.72 523.574 1009.48 523.586 1009.18L524.156 994.351C524.168 994.047 523.931 993.792 523.627 993.78L514.418 993.426C514.114 993.415 513.858 993.651 513.846 993.955L513.276 1008.78C513.265 1009.08 513.502 1009.34 513.805 1009.35Z" fill="#FBFBFB"/>
<path d="M497.662 1008.3L505.693 1008.48C506.403 1008.5 506.991 1007.94 507.007 1007.23L507.26 996.063C507.276 995.354 506.714 994.766 506.005 994.75L497.974 994.568C497.264 994.552 496.676 995.113 496.66 995.822L496.407 1006.99C496.391 1007.7 496.953 1008.28 497.662 1008.3Z" fill="#FBFBFB"/>
<path d="M547.506 837.342C547.66 837.784 547.924 838.179 548.272 838.492C548.62 838.804 549.042 839.024 549.498 839.13C549.954 839.236 550.429 839.224 550.88 839.097C551.33 838.97 551.741 838.73 552.074 838.402L611.061 780.603C611.592 780.087 611.755 779.476 611.551 778.769L591.141 706.154C590.937 705.434 591.195 704.965 591.915 704.748L600.663 702.119C601.302 701.929 601.716 702.16 601.906 702.812L622.48 775.936C622.656 776.602 623.085 777.023 623.764 777.2L710.278 798.538C711.243 798.783 711.597 799.38 711.338 800.331L709.116 808.585C708.898 809.387 708.382 809.693 707.566 809.503L620.991 788.083C620.366 787.933 619.815 788.083 619.34 788.531C599.385 808.028 579.471 827.39 559.598 846.615C558.225 847.933 555.819 849.115 552.38 850.161C551.741 850.351 551.088 850.399 550.422 850.304C548.274 850.005 546.936 850.976 546.405 853.218C546.202 854.033 545.678 854.441 544.835 854.441H537.271C536.251 854.441 535.742 853.931 535.742 852.912V835.589C535.742 834.57 536.251 834.061 537.271 834.061H545.019C545.916 834.061 546.514 834.482 546.813 835.324L547.506 837.342Z" fill="#FBFBFB"/>
<path d="M519.96 853.238H528.116C528.668 853.238 529.115 852.791 529.115 852.24V835.895C529.115 835.343 528.668 834.896 528.116 834.896H519.96C519.408 834.896 518.961 835.343 518.961 835.895V852.24C518.961 852.791 519.408 853.238 519.96 853.238Z" fill="#FBFBFB"/>
<path d="M502.825 852.082L511.551 852.112C511.946 852.114 512.266 851.795 512.268 851.401L512.319 836.687C512.32 836.293 512.002 835.973 511.608 835.971L502.881 835.941C502.487 835.939 502.166 836.258 502.165 836.652L502.114 851.366C502.112 851.76 502.431 852.08 502.825 852.082Z" fill="#FBFBFB"/>
<path d="M486.081 850.792L493.992 850.874C494.69 850.882 495.262 850.322 495.269 849.624L495.388 838.253C495.396 837.555 494.836 836.983 494.137 836.976L486.227 836.893C485.528 836.886 484.957 837.446 484.949 838.143L484.83 849.515C484.823 850.213 485.383 850.784 486.081 850.792Z" fill="#FBFBFB"/>
</svg>
