<svg width="1625" height="1625" viewBox="0 0 1625 1625" fill="none" xmlns="http://www.w3.org/2000/svg">
<path d="M999.456 203.633L999.375 204.567L990.052 229.023C989.781 229.714 989.997 230.195 990.702 230.466C1090.76 268.829 1175.7 328.582 1245.52 409.723C1246.02 410.319 1246.59 410.394 1247.23 409.947L1268.09 395.078L1270.04 394.144C1272.45 393.25 1274.52 393.866 1276.25 395.992C1316.07 444.539 1348.31 497.128 1372.98 553.759C1373.27 554.409 1373.75 554.816 1374.45 554.978C1388.85 558.573 1389.92 572.792 1377.13 580.003C1364.17 581.425 1356.71 570.578 1363.8 559.366C1364.17 558.77 1364.21 558.154 1363.94 557.517C1340.11 502.917 1309.42 452.501 1271.89 406.27C1271.41 405.688 1270.88 405.613 1270.28 406.047L1248.63 421.484L1247.7 421.911C1245.14 422.683 1242.88 421.918 1240.93 419.616C1170.65 336.456 1083.99 275.681 980.952 237.291C979.164 236.613 978.338 235.212 978.473 233.086V230.039L987.756 206.172C987.986 205.549 987.79 205.129 987.167 204.912C898.442 175.866 804.477 162.378 711.689 171.275C710.998 171.343 710.504 171.688 710.206 172.311C704.519 184.051 689.812 182.305 685.973 170.117V167.578C688.127 153.278 700.517 152.201 709.698 160.936C710.199 161.423 710.802 161.64 711.506 161.586C808.356 153.176 903.175 166.38 995.475 197.356C998.522 198.385 999.849 200.478 999.456 203.633Z" fill="#FBFBFB"/>
<path d="M685.973 167.578V170.117C682.033 170.848 662.411 175.195 660.095 173.327C658.904 172.379 659.059 171.783 660.563 171.539L685.973 167.578Z" fill="#FBFBFB"/>
<path d="M794.3 196.016L794.808 197.539C794.009 205.894 793.88 214.216 794.422 222.503C794.463 223.167 794.815 223.526 795.478 223.58L850.099 228.252C850.749 228.306 851.344 228.143 851.886 227.764C858.406 223.133 866.572 224.108 870.655 231.035C880.222 247.224 852.292 259.35 847.478 239.139C847.401 238.805 847.22 238.503 846.962 238.274C846.704 238.045 846.381 237.9 846.036 237.86C826.902 235.679 807.767 234.257 788.633 233.594C786.872 233.54 785.518 232.328 784.57 229.958L784.489 227.5L784.449 202.374C784.449 201.561 784.035 201.141 783.209 201.114C748.475 200.505 713.924 202.787 679.555 207.96C678.878 208.068 678.383 208.433 678.072 209.056C674.131 217.168 667.821 219.395 659.141 215.739C645.003 205.481 659.324 183.056 676.366 197.702C676.88 198.149 677.476 198.325 678.153 198.23C707.403 193.883 739.781 191.581 775.288 191.324C781.727 191.283 793.488 188.947 794.3 196.016Z" fill="#FBFBFB"/>
<path d="M978.473 230.039V233.086C919.107 211.907 857.885 200.058 794.808 197.539L794.3 196.016C798.999 195.501 803.711 195.372 808.438 195.63C866.843 198.731 923.521 210.2 978.473 230.039Z" fill="#FBFBFB"/>
<path d="M999.456 203.633C999.944 203.633 1000.4 203.707 1000.82 203.856C1017.27 209.368 1033.21 216.091 1048.63 224.027L1047.7 225.977L1002.28 206.781C1001.63 206.524 1001.1 206.118 1000.7 205.562C1000.34 205.116 999.903 204.784 999.375 204.567L999.456 203.633Z" fill="#FBFBFB"/>
<path d="M1245.58 367.148L1243.63 368.591C1232.93 375.192 1221.19 366.945 1224.13 354.514C1224.3 353.85 1224.13 353.282 1223.63 352.808C1177.2 308.323 1125.72 270.793 1069.17 240.216C1068.59 239.904 1068.02 239.924 1067.46 240.276C1056.51 247.264 1044.43 238.448 1047.7 225.976L1048.63 224.026C1055.88 213.545 1070.41 217.1 1072.11 229.897C1072.21 230.601 1072.57 231.116 1073.19 231.441C1130.92 262.045 1183.22 300.104 1230.08 345.617C1230.59 346.105 1231.19 346.348 1231.89 346.348C1235.45 346.308 1239.25 345.658 1242.25 347.73C1249.14 352.456 1250.25 358.929 1245.58 367.148Z" fill="#FBFBFB"/>
<path d="M784.489 227.5L784.57 229.958C747.602 229.551 710.877 232.361 674.395 238.387C672.554 238.685 671.484 238.32 671.186 237.29C671.14 237.131 671.128 236.964 671.15 236.8C671.172 236.636 671.228 236.479 671.315 236.339C671.401 236.199 671.516 236.079 671.651 235.988C671.786 235.896 671.939 235.835 672.1 235.808C709.705 229.01 747.168 226.24 784.489 227.5Z" fill="#FBFBFB"/>
<path d="M912.966 244.258L912.539 246.37C906.222 245.151 878.089 241.15 874.656 238.083C874.464 237.921 874.331 237.701 874.277 237.456C874.223 237.211 874.251 236.955 874.358 236.728C874.464 236.501 874.643 236.315 874.866 236.2C875.089 236.085 875.344 236.047 875.591 236.092C888.333 238.069 900.792 240.791 912.966 244.258Z" fill="#FBFBFB"/>
<path d="M1283.83 471.25L1286.29 469.808C1298.33 465.4 1308.96 475.942 1303.03 487.52C1302.72 488.13 1302.74 488.725 1303.09 489.308C1361.63 586.334 1391.79 691.776 1393.56 805.634C1393.57 806.487 1394.01 806.914 1394.88 806.914H1415.25C1415.9 806.914 1416.23 806.589 1416.23 805.939C1415.61 755.929 1409.46 706.618 1397.78 658.003C1397.62 657.285 1397.2 656.777 1396.5 656.48C1384.89 651.625 1382.51 637.508 1394.96 632.145L1396.48 631.13C1407.09 631.495 1414.93 638.564 1410.48 649.492C1409.38 652.194 1406.52 653.067 1407.41 656.744C1419.69 707.389 1425.9 758.794 1426.02 810.956C1426.03 814.111 1424.62 816.149 1421.79 817.07L1419.74 817.151C1410.11 816.312 1399.99 816.312 1389.37 817.151H1388.36C1385.38 816.461 1383.88 814.565 1383.87 811.464C1383.45 723.484 1365.2 639.498 1329.13 559.508C1328.82 558.831 1328.32 558.627 1327.62 558.898C1320.03 561.837 1312.64 565.243 1305.46 569.115C1302.64 570.639 1298.4 570.497 1297.03 567.612C1255.24 478.928 1195.09 405.261 1116.56 346.612C1115.95 346.165 1115.43 346.253 1114.99 346.876L1100.49 367.575L1098.91 369.606C1096.93 371.109 1095.1 371.258 1093.42 370.053C1081 361.129 1068.21 352.611 1055.05 344.5C1054.46 344.134 1053.84 344.107 1053.2 344.419C1038.92 351.569 1026.76 334.303 1038.07 324.106C1046.11 316.875 1058.57 323.415 1058.89 333.978C1058.9 334.349 1059.01 334.712 1059.19 335.037C1059.37 335.362 1059.63 335.64 1059.95 335.847L1093.6 357.886C1094.21 358.278 1094.73 358.177 1095.15 357.581L1106.67 340.965C1107.14 340.288 1107.03 339.713 1106.34 339.239C1054.19 302.663 997.601 275.207 936.569 256.872C936.023 256.706 935.442 256.692 934.888 256.832C934.333 256.971 933.826 257.259 933.42 257.664C924.95 266.073 911.381 258.456 912.539 246.37L912.966 244.258C919.445 232.497 933.156 233.655 937.544 246.126C937.76 246.776 938.2 247.196 938.864 247.386C1100.71 296.339 1229.9 406.453 1303.64 558.248C1303.71 558.404 1303.85 558.522 1304.02 558.579C1304.18 558.636 1304.37 558.626 1304.53 558.553L1323.42 549.615C1323.61 549.524 1323.78 549.395 1323.92 549.237C1324.06 549.078 1324.17 548.893 1324.23 548.693C1324.3 548.493 1324.32 548.282 1324.3 548.074C1324.28 547.866 1324.21 547.665 1324.11 547.483L1295.47 494.873C1295.09 494.169 1294.5 493.79 1293.7 493.736C1280.82 492.862 1274.87 481.812 1283.83 471.25Z" fill="#FBFBFB"/>
<path d="M1032.59 327.296C923.284 269.547 802.364 250.88 680.774 270.096C680.327 270.156 677.788 269.608 677.564 269.486C675.736 268.471 675.912 267.787 678.092 267.435C803.61 246.851 922.188 266.121 1033.83 325.244C1034.07 325.374 1034.27 325.574 1034.39 325.817C1034.52 326.06 1034.57 326.335 1034.54 326.605C1034.4 327.688 1033.75 327.918 1032.59 327.296Z" fill="#FBFBFB"/>
<path d="M696.394 304.606C693.496 311.472 689.054 314.492 683.069 313.666C659.811 310.416 677.077 275.641 694.2 293.78C694.633 294.24 695.161 294.423 695.784 294.328C789.235 280.976 879.667 291.498 967.078 325.894C967.715 326.151 968.337 326.11 968.947 325.772C977.234 321.181 983.552 322.332 987.898 329.225C998.116 345.434 969.231 358.15 964.722 336.416C964.559 335.684 964.133 335.183 963.442 334.913C877.696 301.316 789.032 290.95 697.45 303.814C697.219 303.846 697.001 303.935 696.816 304.074C696.631 304.213 696.486 304.396 696.394 304.606Z" fill="#FBFBFB"/>
<path d="M1055.23 378.401L1056.76 376.878C1059.51 375.551 1062.63 376.113 1066.12 378.564C1158.23 443.28 1224.13 527.204 1263.8 630.337C1264.37 631.841 1264.05 634.501 1262.85 638.32L1260.39 639.762L1237.05 649.045C1236.37 649.303 1236.16 649.777 1236.4 650.467C1255.37 705.649 1264.37 762.47 1263.4 820.93C1263.38 821.62 1263.67 822.155 1264.25 822.534C1275.02 829.623 1271.7 844.492 1258.87 846.097H1256.33C1243.9 842.867 1241.87 828.486 1252.87 822.067C1253.48 821.715 1253.8 821.187 1253.81 820.483C1254.59 761.604 1245.14 704.519 1225.45 649.228C1224.44 646.364 1225.05 643.987 1226.96 641.875L1227.97 641.367L1252.98 631.8C1253.18 631.724 1253.34 631.571 1253.42 631.373C1253.51 631.175 1253.52 630.949 1253.44 630.744C1214.12 530.454 1150.38 449.502 1062.22 387.887C1061.59 387.441 1061.04 387.535 1060.6 388.172L1046.01 408.789L1044.06 410.739C1041.91 412.039 1040.08 412.195 1038.58 411.206C974.255 368.902 903.751 343.105 827.064 333.816C826.373 333.734 825.778 333.931 825.277 334.405C817.477 341.961 805.98 338.447 803.278 328.047V325.508C805.452 310.7 824.241 309.156 828.019 323.091C828.222 323.849 828.716 324.275 829.502 324.37C905.172 333.551 975.007 358.644 1039 399.648C1039.22 399.784 1039.48 399.832 1039.73 399.783C1039.98 399.734 1040.2 399.591 1040.35 399.384L1055.23 378.401Z" fill="#FBFBFB"/>
<path d="M803.278 325.508V328.047C765.822 326.232 728.616 328.25 691.661 334.1C690.32 334.317 689.284 334.032 688.553 333.247C688.444 333.132 688.368 332.99 688.334 332.835C688.299 332.681 688.308 332.52 688.358 332.369C688.408 332.219 688.498 332.085 688.618 331.982C688.738 331.879 688.884 331.811 689.04 331.784C726.93 325.19 765.009 323.097 803.278 325.508Z" fill="#FBFBFB"/>
<path d="M1056.76 376.878L1055.23 378.401C1034.69 365.523 1013.45 353.952 991.514 343.687C989.943 342.956 989.957 342.15 991.555 341.27C991.819 341.126 992.113 341.045 992.413 341.034C992.713 341.024 993.01 341.084 993.281 341.209C1015.42 351.677 1036.58 363.566 1056.76 376.878Z" fill="#FBFBFB"/>
<path d="M1159.84 1050.08L1157.89 1048.63C1148.47 1040.61 1153.18 1026.11 1165.69 1025.82C1166.34 1025.81 1166.82 1025.52 1167.12 1024.95C1253.06 863.505 1235.67 670.516 1119.77 528.41C1119.4 527.949 1118.99 527.915 1118.53 528.308L1099.33 544.375L1095.86 546.325C1093.73 546.176 1092.27 545.635 1091.47 544.7C1035.63 479.565 966.476 434.931 884.02 410.8C878.922 409.297 876.261 415.147 870.452 414.985C862.834 414.781 857.898 408.81 858.122 401.172L858.224 398.491C863.403 386.567 878.617 387.116 882.781 399.567C882.984 400.163 883.384 400.542 883.98 400.705C967.424 424.294 1037.73 468.549 1094.88 533.467C1095.44 534.09 1096.03 534.131 1096.65 533.589L1112.01 520.752C1112.58 520.278 1112.62 519.756 1112.13 519.188C1016.72 409.399 881.055 354.616 735.597 364.914C734.879 364.955 734.31 365.266 733.891 365.849C731.027 369.83 729.686 372.613 723.978 373.242C716.544 374.068 711.689 370.994 709.414 364.02L709.374 361.42C709.983 348.36 724.181 344.947 732.225 354.23C732.658 354.744 733.214 354.995 733.891 354.981C739.998 354.86 746.105 354.67 752.213 354.413C1106.18 339.503 1345.32 714.431 1175.77 1029.48C1175.43 1030.1 1175.43 1030.73 1175.77 1031.37C1182.15 1043.09 1172.4 1054.1 1159.84 1050.08Z" fill="#FBFBFB"/>
<path d="M709.374 361.42L709.414 364.02L694.586 366.214C694.33 366.257 694.068 366.197 693.856 366.046C693.645 365.896 693.502 365.668 693.459 365.412C693.416 365.156 693.476 364.893 693.626 364.682C693.777 364.471 694.005 364.328 694.261 364.284L709.374 361.42Z" fill="#FBFBFB"/>
<path d="M1100.49 367.575C1123.94 384.827 1147.21 405.235 1170.28 428.797C1175.27 433.889 1178.9 438.391 1181.17 442.305C1179.24 441.249 1177.92 440.362 1177.23 439.644C1152.98 414.213 1126.87 390.867 1098.91 369.606L1100.49 367.575Z" fill="#FBFBFB"/>
<path d="M1245.58 367.148L1270.04 394.144L1268.09 395.078L1243.63 368.591L1245.58 367.148Z" fill="#FBFBFB"/>
<path d="M858.224 398.491L858.122 401.172C810.834 391.544 763.263 390.068 715.406 396.744C714.431 396.866 698.059 399.12 699.481 397.292C699.81 396.865 700.131 396.475 700.388 396.193C700.644 395.91 700.82 395.753 700.883 395.749C753.844 386.554 806.291 387.468 858.224 398.491Z" fill="#FBFBFB"/>
<path d="M1046.01 408.789C1053.1 413.461 1087.02 436.373 1088.83 442.752C1088.88 442.921 1088.87 443.101 1088.81 443.266C1088.75 443.43 1088.63 443.57 1088.48 443.664C1088.34 443.758 1088.16 443.801 1087.98 443.787C1087.81 443.772 1087.64 443.701 1087.51 443.584C1073.55 431.722 1059.07 420.773 1044.06 410.739L1046.01 408.789Z" fill="#FBFBFB"/>
<path d="M1143.59 691.722L1139.88 691.945C1129.34 691.227 1124.97 685.865 1126.75 675.858C1126.88 675.235 1127.15 674.686 1127.59 674.212C1129.1 672.601 1129.48 670.834 1128.7 668.911C1063.01 504.4 891.231 407.712 717.458 432.534C716.794 432.629 716.334 432.981 716.077 433.591C706.733 455.467 679.128 431.986 697.105 419.717C702.725 415.885 708.439 416.718 714.249 422.216C714.75 422.703 715.345 422.899 716.036 422.805C892.816 398.369 1060.37 491.461 1132.02 652.783C1134.07 657.4 1136.24 661.971 1138.52 666.494C1138.83 667.103 1139.33 667.442 1140.02 667.509C1153.47 668.85 1155.11 685.262 1143.59 691.722Z" fill="#FBFBFB"/>
<path d="M1248.63 421.484C1257.43 424.592 1280.22 460.566 1286.29 469.808L1283.83 471.25C1272.46 454.309 1260.41 437.863 1247.7 421.911L1248.63 421.484Z" fill="#FBFBFB"/>
<path d="M1208.59 594.222L1204.53 595.583C1196.72 595.854 1191.93 592.543 1190.17 585.65C1189.3 582.197 1190.66 579.922 1191.33 576.489C1191.46 575.758 1191.35 575.074 1190.98 574.438C1167.62 533.84 1139.1 497.298 1105.43 464.811C1104.91 464.31 1104.3 464.114 1103.6 464.222C1086.05 466.639 1080.3 446.51 1094.72 440.619C1104.41 436.658 1112.88 444.885 1111.42 455.549C1111.32 456.28 1111.54 456.903 1112.07 457.417C1146.63 490.743 1175.85 528.227 1199.74 569.867C1200.09 570.504 1200.63 570.809 1201.36 570.781C1215.46 570.294 1219.89 586.544 1208.59 594.222Z" fill="#FBFBFB"/>
<path d="M1344.69 701.208L1346.29 700.781C1359.31 700.517 1365.97 715.284 1355.33 723.491C1354.79 723.91 1354.57 724.459 1354.66 725.136C1363.53 786.168 1363.1 847.133 1353.36 908.03C1353.25 908.747 1353.56 909.167 1354.27 909.289L1379.73 913.636L1381.25 913.981C1383.63 915.349 1384.65 917.069 1384.3 919.141C1372.95 985.441 1350.48 1049.11 1316.9 1110.14C1316.56 1110.76 1316.6 1111.36 1317.02 1111.95C1325.43 1123.52 1314.79 1137.26 1301.1 1131.02L1298.68 1129.6C1290.72 1119.69 1296.1 1111.4 1306.48 1107.6C1307.16 1107.36 1307.67 1106.92 1308.02 1106.28C1339.51 1048.97 1361.3 988.162 1373.41 923.853C1373.54 923.135 1373.25 922.709 1372.52 922.573L1352.79 919.141C1351.93 918.992 1351.4 919.35 1351.23 920.217C1334.86 1005.99 1301.21 1084.25 1250.3 1154.99C1249.89 1155.54 1249.83 1156.13 1250.13 1156.74C1256.23 1169.17 1243.98 1180.05 1232.03 1173.55L1230 1172.03C1224.68 1163.04 1226.18 1156.17 1234.51 1151.41C1235.03 1151.13 1235.58 1150.96 1236.16 1150.91L1240.55 1150.48C1241.15 1150.41 1241.64 1150.13 1242.01 1149.63C1322.22 1038.46 1359.84 904.231 1349.54 767.467C1349.49 766.749 1349.1 766.418 1348.36 766.472L1322.85 768.402L1321.33 768.909C1318.62 768.435 1317.14 766.878 1316.9 764.237C1306.45 654.618 1266.43 555.96 1196.85 468.264C1192.51 462.8 1191.94 465.745 1186.78 464.344C1175.81 461.337 1175.73 450.531 1181.17 442.305L1187.57 439.806C1188.19 439.562 1188.84 439.488 1189.52 439.583C1199.85 441.086 1203.9 447.044 1201.67 457.458C1201.52 458.121 1201.66 458.717 1202.09 459.245C1273.11 546.129 1314.42 645.646 1326.04 757.798C1326.09 758.34 1326.4 758.591 1326.95 758.55L1347.55 756.519C1348.32 756.437 1348.66 756.011 1348.57 755.239L1345.34 727.472C1345.24 726.727 1344.88 726.152 1344.26 725.745C1333.35 718.717 1331.28 707.301 1344.69 701.208Z" fill="#FBFBFB"/>
<path d="M914.063 483.519L912.742 485.997C848.392 459.063 781.415 451.256 711.811 462.577C711.602 462.612 711.388 462.59 711.191 462.514C710.993 462.438 710.82 462.31 710.689 462.144C710.558 461.978 710.474 461.779 710.446 461.57C710.419 461.36 710.448 461.146 710.531 460.952C710.965 459.923 711.75 459.32 712.887 459.144C782.451 448.135 849.509 456.26 914.063 483.519Z" fill="#FBFBFB"/>
<path d="M912.742 485.997L914.062 483.519C919.892 474.886 932.669 475.008 936.731 485.042C937.727 487.5 936.548 490.405 939.575 491.989C1097.24 574.945 1171.83 760.033 1113.96 929.337C1113.71 930.069 1113.95 930.57 1114.67 930.841L1133.56 937.747C1134.4 938.058 1134.96 937.787 1135.25 936.934C1154.42 880.628 1161.87 817.273 1152.61 758.367C1152.5 757.636 1152.1 757.128 1151.41 756.844C1139.06 751.664 1141.07 738.095 1151.72 732.692L1153.75 732.184C1164.6 733.105 1169.15 738.759 1167.4 749.145C1167.28 749.836 1166.99 750.459 1166.55 751.014L1162.77 755.605C1162.35 756.119 1162.18 756.708 1162.26 757.372C1171.01 821.925 1164.41 884.772 1142.46 945.912C1141.54 948.472 1139.71 949.731 1136.99 949.691L1134.96 949.183L1106.6 938.945L1104.07 937.422C1102.58 935.851 1102.2 933.962 1102.95 931.755C1137.09 831.411 1129.31 734.75 1079.61 641.773C1079.3 641.178 1078.86 641.056 1078.29 641.408L1056.57 654.428L1054.73 655.159C1052.03 655.566 1050.22 654.997 1049.3 653.453C997.303 566.475 914.773 509.986 813.312 495.991C812.622 495.896 812.053 496.112 811.606 496.641C803.014 506.634 790.461 502.694 788.552 490.039V487.5C792.573 474.906 806.934 473.566 812.927 485.245C813.224 485.828 813.705 486.159 814.369 486.241C914.164 499.139 1001.98 556.501 1054.14 642.444C1054.5 643.053 1055 643.182 1055.62 642.83L1072.85 632.897C1073.55 632.491 1073.69 631.949 1073.27 631.272C1038.97 574.938 992.699 531.273 934.456 500.276C933.739 499.897 933.007 499.877 932.262 500.216C928.037 502.084 924.605 503.364 920.197 501.048C913.954 497.798 911.469 492.781 912.742 485.997Z" fill="#FBFBFB"/>
<path d="M788.552 487.5V490.039C765.26 489.389 742.104 490.777 719.083 494.203C718.027 494.352 717.18 494.23 716.544 493.838C716.374 493.727 716.241 493.568 716.163 493.381C716.084 493.195 716.063 492.989 716.102 492.79C716.142 492.591 716.239 492.409 716.383 492.266C716.527 492.123 716.71 492.027 716.909 491.989C741.014 487.642 764.894 486.146 788.552 487.5Z" fill="#FBFBFB"/>
<path d="M1099.33 544.375C1180.58 644.313 1212.15 771.53 1186.17 898.32C1185.42 901.949 1184.6 904.631 1183.71 906.364L1181.35 906.486C1210.48 778.009 1179.95 649.452 1098.01 547.178C1097.44 546.488 1096.67 546.305 1095.86 546.325L1099.33 544.375Z" fill="#FBFBFB"/>
<path d="M1346.29 700.781L1344.69 701.208C1335.47 657.522 1321.73 614.595 1303.47 572.427C1303.4 572.264 1303.38 572.087 1303.39 571.912C1303.4 571.736 1303.46 571.566 1303.55 571.416C1303.65 571.267 1303.78 571.142 1303.93 571.053C1304.08 570.963 1304.25 570.912 1304.43 570.903C1305.35 570.863 1306.11 571.506 1306.7 572.833C1324.62 612.605 1337.75 653.907 1346.11 696.739C1346.37 698.066 1346.43 699.414 1346.29 700.781Z" fill="#FBFBFB"/>
<path d="M1396.48 631.13L1394.96 632.145L1377.78 581.953C1377.79 581.141 1378 580.538 1378.41 580.145C1379.02 579.563 1379.48 579.665 1379.79 580.45C1386.5 596.957 1392.07 613.85 1396.48 631.13Z" fill="#FBFBFB"/>
<path d="M1208.59 594.222C1213.39 603.464 1228.91 632.145 1227.97 641.367L1226.96 641.875L1206.77 596.598C1206.51 596.029 1206.08 595.718 1205.47 595.664L1204.53 595.583L1208.59 594.222Z" fill="#FBFBFB"/>
<path d="M1262.85 638.32C1266.99 649.898 1275.6 671.003 1275.08 682.927C1275.06 683.044 1275.01 683.154 1274.93 683.239C1274.85 683.324 1274.74 683.379 1274.62 683.395C1274.51 683.412 1274.39 683.389 1274.29 683.329C1274.18 683.27 1274.1 683.178 1274.06 683.069L1260.39 639.762L1262.85 638.32Z" fill="#FBFBFB"/>
<path d="M1056.57 654.428C1081.44 698.709 1094.94 746.254 1097.08 797.063C1097.09 797.55 1096.85 797.787 1096.37 797.774C1096.16 797.774 1095.96 797.774 1095.76 797.774C1094.96 797.774 1094.54 797.374 1094.5 796.575C1092.44 756.14 1083.09 717.505 1066.45 680.672C1062.6 672.154 1058.69 663.65 1054.73 655.16L1056.57 654.428Z" fill="#FBFBFB"/>
<path d="M1189.89 1119.73L1188.87 1118.71C1180.42 1107.78 1185.92 1097.02 1198.99 1096.29C1199.68 1096.25 1200.22 1095.94 1200.61 1095.37C1276.05 981.398 1302.95 843.659 1276.03 709.536C1275.9 708.859 1275.52 708.378 1274.89 708.094C1268.18 704.925 1265.37 700.253 1266.46 694.078C1270.38 671.876 1303.47 688.35 1286.51 706.042C1286.04 706.543 1285.86 707.139 1285.98 707.829C1312.17 849.868 1286.55 980.884 1209.1 1100.88C1208.68 1101.54 1208.57 1102.24 1208.78 1102.99C1212.9 1117.94 1202.74 1123.81 1189.89 1119.73Z" fill="#FBFBFB"/>
<path d="M1143.59 691.722C1148.39 704.857 1151.77 718.345 1153.75 732.184L1151.72 732.692C1149.04 718.676 1145.09 705.094 1139.88 691.945L1143.59 691.722Z" fill="#FBFBFB"/>
<path d="M1322.85 768.401C1327.04 810.706 1325.65 852.827 1318.71 894.765L1316.76 894.684C1320.72 852.312 1323.56 818.695 1321.33 768.909L1322.85 768.401Z" fill="#FBFBFB"/>
<path d="M1098.76 851.866L1094.92 875.469C1078.63 952.074 1041.14 1014.97 982.455 1064.15C864.317 1163.22 693.083 1164.72 571.512 1070.77C570.93 1070.33 570.294 1070.22 569.603 1070.45C556.725 1074.84 546.711 1061.65 555.039 1050.75L556.563 1049.22C566.678 1042.07 578.114 1049.26 576.733 1061.71C576.652 1062.4 576.895 1062.96 577.464 1063.38C647.38 1115.85 725.447 1137.28 811.667 1127.67C965.088 1110.55 1084.87 978.412 1090.92 825.094C1090.95 824.403 1090.67 823.861 1090.09 823.469C1071.95 811.525 1095.68 789.161 1106.1 805.126C1110.78 812.317 1109.32 818.587 1101.71 823.936C1101.17 824.315 1100.87 824.836 1100.82 825.5L1098.76 851.866Z" fill="#FBFBFB"/>
<path d="M1388.36 817.151H1389.37C1390.04 849.719 1387.33 881.996 1381.25 913.981L1379.73 913.636C1380.19 911.503 1379.48 909.472 1379.81 907.44C1384.33 879.016 1386.81 850.416 1387.24 821.64C1387.24 820.977 1387.39 820.347 1387.69 819.751C1388.1 818.925 1388.32 818.059 1388.36 817.151Z" fill="#FBFBFB"/>
<path d="M1419.74 817.152L1421.79 817.07C1422.31 817.774 1422.56 818.58 1422.55 819.488C1421.68 888.916 1410.11 956.468 1387.85 1022.15L1385.19 1021.11C1407.52 955.013 1419.04 887.027 1419.74 817.152Z" fill="#FBFBFB"/>
<path d="M1316.76 894.685L1318.71 894.766C1331.93 899.864 1332.36 914.53 1319.11 919.872C1318.4 920.156 1317.96 920.678 1317.79 921.436C1296.06 1025.95 1248.66 1116.92 1175.61 1194.33C1175.16 1194.81 1175 1195.36 1175.12 1195.98L1176.09 1201.06C1176.22 1201.75 1176.15 1202.43 1175.89 1203.09C1171.87 1213.16 1164.83 1215.48 1154.77 1210.04L1153.06 1208.31C1148.67 1197.5 1151.69 1190.77 1162.12 1188.12C1162.77 1187.96 1163.43 1187.94 1164.09 1188.06C1166.38 1188.49 1168.63 1187.5 1170.85 1185.09C1241.64 1108.03 1287.53 1019.38 1308.53 919.161C1308.68 918.416 1308.51 917.76 1308.02 917.191C1299.82 907.603 1304.14 896.005 1316.76 894.685Z" fill="#FBFBFB"/>
<path d="M1181.35 906.486L1183.71 906.364C1192.34 911.219 1196.1 920.014 1188.38 927.956C1185.95 930.455 1182.13 930.008 1180.93 933.847C1086.09 1237.01 715.609 1338.11 481.203 1121.84C480.689 1121.37 480.086 1121.18 479.395 1121.27C466.03 1123.08 459.286 1113.1 465.745 1100.94L467.695 1098.99C479.862 1094.62 489.409 1098.6 487.703 1113.08C487.622 1113.73 487.825 1114.29 488.312 1114.75C564.119 1185.9 662.492 1226.1 766.594 1227.48C767.406 1227.5 767.812 1227.1 767.812 1226.29V1206.16C767.812 1205.37 767.42 1204.97 766.634 1204.96C703.124 1203.6 643.392 1188.13 587.438 1158.52C586.76 1158.16 586.09 1158.16 585.427 1158.54C573.462 1165.47 563.57 1154.22 567.308 1142.07L568.75 1140.12C579.698 1130.98 588.859 1136.2 591.642 1148.73C591.805 1149.42 592.204 1149.94 592.841 1150.28C649.066 1179.84 709.055 1194.82 772.809 1195.23C775.348 1195.25 777.014 1196.57 777.542 1198.95V1201.99L778.03 1226.31C778.043 1227.05 778.429 1227.42 779.187 1227.4C962.284 1224.64 1118.97 1103.74 1171.65 929.744C1171.85 929.094 1171.74 928.498 1171.32 927.956C1163.44 917.881 1168.07 906.811 1181.35 906.486Z" fill="#FBFBFB"/>
<path d="M1104.07 937.422L1106.6 938.945C1101.65 952.162 1095.85 964.945 1089.2 977.295C1089.12 977.441 1088.99 977.555 1088.84 977.614C1088.68 977.674 1088.5 977.676 1088.34 977.62C1087.37 977.255 1087.1 976.632 1087.55 975.752C1093.9 963.334 1099.41 950.557 1104.07 937.422Z" fill="#FBFBFB"/>
<path d="M1134.96 949.183L1136.99 949.69C1118.93 998.088 1092.16 1041.06 1056.68 1078.59L1055.23 1077.15C1056.18 1076.88 1056.72 1076.31 1056.86 1075.42C1056.97 1074.79 1057.24 1074.23 1057.67 1073.76C1090.97 1036.95 1116.73 995.427 1134.96 949.183Z" fill="#FBFBFB"/>
<path d="M1232.46 965.778L1234.78 966.286C1243.27 972.393 1244.37 979.225 1238.09 986.781C1235.91 989.381 1233.52 989.645 1230.45 990.966C1229.79 991.25 1229.32 991.731 1229.05 992.408C1172.38 1133.17 1058 1237.62 912.559 1282.23C911.855 1282.44 911.361 1282.89 911.077 1283.57C901.327 1306.62 876.281 1284.79 889.566 1272.31C895.294 1266.94 901.381 1267.05 907.827 1272.64C908.355 1273.1 908.95 1273.23 909.614 1273.03C985.095 1249.95 1051.2 1211.05 1107.92 1156.31C1108.09 1156.15 1108.22 1155.97 1108.31 1155.76C1108.4 1155.55 1108.44 1155.33 1108.45 1155.11C1108.45 1154.88 1108.4 1154.66 1108.32 1154.45C1108.23 1154.24 1108.11 1154.05 1107.95 1153.89L1094.15 1140.1C1093.6 1139.56 1093.04 1139.55 1092.47 1140.08C1017.66 1211.58 928.647 1253.95 825.419 1267.18C824.742 1267.26 824.234 1267.59 823.895 1268.17C817.172 1279.36 803.705 1276.62 799.723 1264.96V1263.44C800.292 1249.93 815.506 1245.81 823.672 1256.71C824.105 1257.3 824.681 1257.54 825.398 1257.45C927.882 1243.85 1015.98 1200.98 1089.7 1128.83C1091.51 1127.07 1093.73 1126.77 1096.37 1127.93L1097.81 1129.38L1115.5 1147.13C1116.03 1147.66 1116.56 1147.65 1117.09 1147.11C1161.85 1100.86 1196.28 1047.87 1220.37 988.122C1220.63 987.486 1220.54 986.897 1220.11 986.355C1212.29 976.524 1219.91 963.95 1232.46 965.778Z" fill="#FBFBFB"/>
<path d="M556.563 1049.22L555.039 1050.75C553.82 1050.31 552.744 1049.66 551.809 1048.8C528.328 1027.12 508.564 1002.46 492.517 974.817C492.233 974.316 492.334 973.896 492.822 973.558C493.228 973.287 493.546 973.341 493.777 973.72C508.862 998.989 526.913 1021.93 547.93 1042.54C550.543 1045.11 553.421 1047.34 556.563 1049.22Z" fill="#FBFBFB"/>
<path d="M640.859 1143.17L641.875 1140.63C647.867 1128.38 664.341 1131.41 666.006 1145.1C666.088 1145.77 666.46 1146.22 667.123 1146.44C676.427 1149.48 685.831 1152.03 695.338 1154.08C842.705 1185.86 988.752 1124.5 1070.02 998.278C1070.39 997.71 1070.46 997.114 1070.23 996.491C1066.18 985.4 1071.4 975.813 1084.12 977.58C1095.33 979.164 1095.62 994.46 1087.75 1000.21C1085.38 1001.93 1082.66 1002.02 1079.71 1002.52C1079.01 1002.66 1078.46 1003.03 1078.07 1003.64C988.691 1142.9 823.184 1204.19 664.402 1155.9C661.72 1155.09 660.563 1155.29 658.511 1156.98C657.956 1157.43 657.326 1157.68 656.622 1157.75C646.29 1158.73 641.035 1153.87 640.859 1143.17Z" fill="#FBFBFB"/>
<path d="M641.875 1140.63L640.859 1143.17C638.666 1142.13 636.187 1141.73 634.176 1140.85C561.404 1109.31 504.806 1059.37 464.384 991.027C463.707 989.876 464.113 989.53 465.603 989.991C465.943 990.095 466.238 990.326 466.436 990.641C508.645 1060.35 567.125 1110.35 641.875 1140.63Z" fill="#FBFBFB"/>
<path d="M568.75 1140.12L567.308 1142.07C560.862 1138.66 554.687 1134.83 548.783 1130.59C502.836 1097.63 465.265 1056.95 436.069 1008.54C435.446 1007.48 435.473 1006.56 436.15 1005.77C436.273 1005.63 436.428 1005.52 436.602 1005.45C436.777 1005.38 436.965 1005.36 437.152 1005.37C437.339 1005.39 437.518 1005.45 437.676 1005.55C437.834 1005.66 437.966 1005.79 438.059 1005.96C470.681 1061.37 514.245 1106.09 568.75 1140.12Z" fill="#FBFBFB"/>
<path d="M1385.19 1021.11L1387.85 1022.15C1396.4 1028.89 1397.01 1036.19 1389.68 1044.04C1389.21 1044.54 1388.62 1044.83 1387.93 1044.92C1384.7 1045.26 1382.96 1045.87 1381.66 1049.1C1326.57 1185.59 1236.56 1292.64 1111.62 1370.26C1111 1370.65 1110.67 1371.22 1110.63 1371.95C1110.04 1384.76 1096.25 1389.42 1087.73 1380.15L1086.21 1378.12C1083.35 1364.39 1092.18 1357.16 1104.8 1361.77C1105.5 1362.04 1106.18 1361.97 1106.83 1361.57C1132.94 1345.53 1157.82 1327.78 1181.48 1308.31C1182.07 1307.83 1182.13 1307.31 1181.64 1306.72L1165.43 1287.73L1163.91 1285.7L1147.78 1266.36C1147.58 1266.12 1147.3 1265.97 1146.99 1265.94C1146.68 1265.91 1146.37 1266.01 1146.13 1266.2C1011.05 1375.7 843.822 1418.95 672.344 1391.45C668.647 1390.85 666.758 1388.98 666.676 1385.82V1384.3L671.145 1359.74C671.281 1359.01 670.983 1358.57 670.251 1358.42C527.874 1328.8 412.885 1256.38 325.284 1141.16C324.824 1140.56 324.228 1140.32 323.497 1140.43C309.765 1142.29 303.733 1126.29 314.112 1117.98L315.94 1116.68C327.112 1113.1 337.147 1122 332.901 1133.32C332.644 1133.98 332.732 1134.59 333.166 1135.14C417.056 1247.37 539.236 1324.11 677.3 1349.34C680.306 1349.89 681.911 1351.47 682.114 1354.05C681.938 1355.05 681.924 1355.83 682.073 1356.37L677.625 1380.88C677.435 1381.9 677.848 1382.49 678.864 1382.65C847.437 1408.96 1013.39 1363.48 1144.63 1254.58C1145.14 1254.16 1145.73 1253.91 1146.4 1253.83C1147.95 1253.63 1149.39 1253.81 1150.7 1254.38L1152.15 1255.82L1171.91 1279.14L1173.47 1281.21L1189.36 1300.26C1189.86 1300.86 1190.4 1300.9 1190.98 1300.39C1272.52 1229.96 1333.17 1144.58 1372.94 1044.25C1373.2 1043.6 1373.15 1042.97 1372.8 1042.36L1370.12 1037.7C1369.77 1037.1 1369.6 1036.44 1369.61 1035.73C1369.68 1025.46 1374.87 1020.58 1385.19 1021.11Z" fill="#FBFBFB"/>
<path d="M467.695 1098.99L465.745 1100.94C443.28 1077.25 423.827 1051.26 407.388 1022.96C407.303 1022.82 407.261 1022.66 407.267 1022.5C407.272 1022.34 407.325 1022.19 407.418 1022.06C407.512 1021.93 407.642 1021.83 407.792 1021.77C407.941 1021.71 408.105 1021.7 408.261 1021.74C409.155 1021.94 409.893 1022.53 410.475 1023.51C426.779 1050.75 445.853 1075.91 467.695 1098.99Z" fill="#FBFBFB"/>
<path d="M418.763 1092.45L416.995 1093.83C403.115 1076.91 390.704 1058.9 379.763 1039.8C379.686 1039.67 379.645 1039.52 379.642 1039.37C379.639 1039.21 379.675 1039.06 379.746 1038.93C379.817 1038.8 379.921 1038.68 380.048 1038.6C380.176 1038.52 380.322 1038.47 380.474 1038.46C380.839 1038.44 382.078 1039.15 382.261 1039.45C393.311 1057.96 405.478 1075.63 418.763 1092.45Z" fill="#FBFBFB"/>
<path d="M1157.89 1048.63L1159.84 1050.08C1142.24 1078.91 1121.56 1105.34 1097.81 1129.38L1096.37 1127.93C1119.37 1103.44 1139.88 1077 1157.89 1048.63Z" fill="#FBFBFB"/>
<path d="M452.034 1175.08L450.511 1176.6C411.24 1141.92 378.341 1101.99 351.812 1056.82C351.555 1056.39 351.508 1055.93 351.67 1055.46L352.097 1054.2C352.143 1054.06 352.227 1053.94 352.339 1053.85C352.452 1053.76 352.588 1053.7 352.732 1053.69C352.875 1053.67 353.02 1053.7 353.149 1053.77C353.277 1053.83 353.385 1053.93 353.458 1054.06C378.266 1096.41 408.315 1133.95 443.605 1166.67C447.857 1170.61 450.667 1173.41 452.034 1175.08Z" fill="#FBFBFB"/>
<path d="M482.422 1239.14L480.98 1241.01C415.56 1196.88 362.91 1140.49 323.03 1071.85C322.92 1071.67 322.874 1071.47 322.897 1071.26C322.92 1071.06 323.013 1070.87 323.159 1070.72C323.305 1070.57 323.496 1070.48 323.701 1070.46C323.907 1070.43 324.114 1070.48 324.289 1070.59L325.203 1071.14C325.609 1071.38 325.934 1071.71 326.178 1072.11C366.085 1139.13 418.167 1194.81 482.422 1239.14Z" fill="#FBFBFB"/>
<path d="M1055.23 1077.15L1056.68 1078.59C1063.4 1089.5 1055.44 1102.32 1042.66 1098.89C1041.96 1098.7 1041.33 1098.85 1040.79 1099.35C1005.12 1132.37 964.783 1158.1 919.77 1176.56C919.066 1176.85 918.612 1177.35 918.409 1178.06C914.733 1191.15 902.423 1193.18 894.258 1182.11L893.425 1179.51C892.612 1167.6 904.312 1159.19 914.042 1167.01C914.373 1167.28 914.768 1167.45 915.186 1167.51C915.604 1167.57 916.03 1167.52 916.419 1167.36C960.09 1149.28 999.287 1124.24 1034.01 1092.24C1034.54 1091.76 1034.76 1091.15 1034.68 1090.44C1033.13 1077.21 1043.27 1070.35 1055.23 1077.15Z" fill="#FBFBFB"/>
<path d="M315.941 1116.68L314.113 1117.98C311.228 1114.26 295.019 1091.21 295.648 1088.06C295.689 1087.84 295.796 1087.63 295.955 1087.47C296.114 1087.31 296.319 1087.2 296.541 1087.16C296.764 1087.12 296.994 1087.14 297.201 1087.24C297.407 1087.33 297.582 1087.48 297.7 1087.67L315.941 1116.68Z" fill="#FBFBFB"/>
<path d="M706.875 1259.8L706.449 1260.9C702.975 1273.59 686.684 1274.79 682.074 1261.95C681.857 1261.35 681.437 1260.97 680.814 1260.84C581.662 1239.54 498.279 1191.32 430.666 1116.19C430.178 1115.65 429.576 1115.43 428.858 1115.52C415.878 1117.27 408.647 1104.51 416.995 1093.83L418.763 1092.45C430.32 1088.24 441.98 1094.88 437.409 1107.68C437.166 1108.37 437.294 1108.99 437.795 1109.55C503.811 1182.66 585.142 1229.85 681.789 1251.13C682.507 1251.29 683.17 1251.15 683.78 1250.7C694.403 1242.9 705.453 1245.16 706.875 1259.8Z" fill="#FBFBFB"/>
<path d="M267.617 1102.89C268.849 1103.59 269.689 1104.32 270.136 1105.08C358.109 1251.96 498.245 1350.33 666.677 1384.3V1385.82L664.869 1386.13C664.219 1386.23 663.576 1386.23 662.939 1386.1C496.214 1354.05 352.483 1251.47 267.333 1104.82C266.899 1104.09 266.994 1103.44 267.617 1102.89Z" fill="#FBFBFB"/>
<path d="M1188.87 1118.71L1189.89 1119.73C1189.11 1121.51 1188 1124.09 1186.82 1125.64C1158.8 1162.06 1125.98 1195.18 1088.36 1224.99C1085.14 1227.53 1082.22 1229.2 1079.61 1230L1078.67 1228.91C1120.3 1196.67 1157.45 1161.12 1188.87 1118.71Z" fill="#FBFBFB"/>
<path d="M293.008 1196.49L292.073 1197.42C272.777 1174.71 254.353 1148.65 238.652 1120.36C237.744 1118.72 238.11 1118.35 239.748 1119.26C240.886 1119.91 241.868 1120.94 242.694 1122.35C256.005 1145.16 271.923 1168.33 290.448 1191.86C290.977 1192.53 291.83 1194.08 293.008 1196.49Z" fill="#FBFBFB"/>
<path d="M412.263 1349.77L410.82 1351.21C401.517 1359.37 387.603 1353.97 388.72 1340.99C388.775 1340.25 388.504 1339.65 387.908 1339.2C317.6 1287.34 259.634 1224.15 214.013 1149.65C213.66 1149.08 213.153 1148.76 212.489 1148.69C203.971 1147.84 199.577 1143.86 199.306 1136.75C198.514 1115.91 231.441 1120.99 222.361 1142.76C222.05 1143.52 222.11 1144.25 222.544 1144.95C267.597 1218.08 324.634 1280.23 393.656 1331.4C394.184 1331.8 394.753 1331.87 395.363 1331.63L399.466 1330.08C400.102 1329.84 400.752 1329.78 401.416 1329.92C411.965 1332.05 415.58 1338.66 412.263 1349.77Z" fill="#FBFBFB"/>
<path d="M1298.68 1129.6L1301.1 1131.02C1266.46 1187.81 1223.92 1237.88 1173.47 1281.21L1171.91 1279.14C1221.78 1235.75 1264.04 1185.9 1298.68 1129.6Z" fill="#FBFBFB"/>
<path d="M735.394 1295.08V1297.46L733.119 1322.53C733.051 1323.3 733.403 1323.71 734.175 1323.77C850.701 1331.48 957.538 1303.85 1054.69 1240.87C1055.93 1240.07 1056.39 1238.95 1056.05 1237.52C1053.14 1225.25 1070.14 1219.87 1078.67 1228.91L1079.61 1230C1084.32 1241.32 1075.3 1252.06 1063.2 1247.67C1062.55 1247.44 1061.92 1247.52 1061.33 1247.9C891.962 1359.76 677.747 1363.6 503.709 1260.29C499.687 1257.89 497.656 1258.2 493.716 1260.21C493.093 1260.52 492.436 1260.59 491.745 1260.43C481.142 1257.9 477.554 1251.43 480.98 1241.01L482.422 1239.14C493.187 1230.96 503.141 1236.1 504.847 1248.61C504.955 1249.34 505.321 1249.89 505.944 1250.25C572.596 1290.47 644.719 1314.63 722.312 1322.73C722.99 1322.8 723.355 1322.49 723.409 1321.82L724.973 1301.38C725.028 1300.61 724.669 1300.18 723.897 1300.1C628.306 1290.01 542.973 1255.3 467.898 1195.96C467.316 1195.5 466.673 1195.36 465.969 1195.55C452.705 1198.9 445.23 1189.34 450.511 1176.6L452.034 1175.08C461.886 1166.45 474.398 1174.12 473.281 1186.68C473.256 1187.01 473.311 1187.34 473.442 1187.64C473.573 1187.95 473.776 1188.22 474.033 1188.42C549.785 1247.91 635.808 1282.15 732.103 1291.12C733.863 1291.29 734.96 1292.61 735.394 1295.08Z" fill="#FBFBFB"/>
<path d="M1230 1172.03L1232.03 1173.55C1209.6 1201.64 1184.89 1227.56 1157.91 1251.31C1156.09 1252.92 1154.16 1254.43 1152.15 1255.82L1150.7 1254.38C1179.48 1229.19 1205.91 1201.74 1230 1172.03Z" fill="#FBFBFB"/>
<path d="M893.425 1179.51L894.258 1182.11C854.872 1195.33 819.731 1199.84 777.542 1201.99V1198.95C817.097 1197.86 855.725 1191.38 893.425 1179.51Z" fill="#FBFBFB"/>
<path d="M470.153 1346.72L469.3 1348.24L456.056 1370.42C455.663 1371.1 455.806 1371.63 456.483 1372.01C568.08 1434.14 688.059 1461.46 816.42 1453.97C817.151 1453.93 817.673 1453.58 817.984 1452.91C823.672 1440.91 840.348 1442.61 842.034 1455.9L842.542 1457.42C839.942 1469.18 828.059 1475.28 819.487 1464.37C819.054 1463.81 818.485 1463.56 817.781 1463.62C685.046 1471.58 561.275 1442.9 446.469 1377.57C444.478 1376.45 443.456 1374.46 443.401 1371.6L444.762 1369.57L457.905 1347.9C458.284 1347.27 458.162 1346.77 457.539 1346.39C400.163 1312.21 349.49 1270.02 305.52 1219.81C305.019 1219.25 304.403 1219.03 303.672 1219.14C290.286 1220.98 283.826 1207.58 292.073 1197.42L293.008 1196.49C305.256 1191.04 315.839 1198.28 312.569 1211.86C312.406 1212.51 312.548 1213.1 312.995 1213.61C357.371 1264.03 408.891 1306.41 467.553 1340.77C469.693 1342.01 470.559 1344 470.153 1346.72Z" fill="#FBFBFB"/>
<path d="M1153.06 1208.31L1154.77 1210.04C1119.11 1244.58 1079.03 1273.93 1034.54 1298.09C1028.16 1301.56 1022.33 1304.23 1017.07 1306.09L1016.64 1305.16C1035.31 1294.35 1055.48 1283.45 1072.2 1272.33C1100.92 1253.27 1127.87 1231.93 1153.06 1208.31Z" fill="#FBFBFB"/>
<path d="M706.875 1259.8C738.197 1261.75 768.198 1264.9 799.723 1263.44V1264.96C768.429 1268.06 737.337 1266.71 706.448 1260.9L706.875 1259.8Z" fill="#FBFBFB"/>
<path d="M735.394 1297.46V1295.08C784.13 1298.42 833.645 1294.6 883.939 1283.65C884.091 1283.62 884.248 1283.62 884.396 1283.67C884.544 1283.71 884.678 1283.8 884.786 1283.91C884.893 1284.03 884.971 1284.17 885.011 1284.32C885.051 1284.47 885.053 1284.63 885.016 1284.79C884.84 1285.44 884.19 1285.9 883.066 1286.17C834.465 1297.79 785.241 1301.55 735.394 1297.46Z" fill="#FBFBFB"/>
<path d="M1163.91 1285.7L1165.43 1287.73C1132.46 1314.73 1095.09 1339.35 1053.33 1361.57C1033.19 1372.29 1014.33 1380.21 996.755 1385.31C997.256 1384.62 997.886 1384.12 998.644 1383.81C1058.66 1359.38 1113.75 1326.68 1163.91 1285.7Z" fill="#FBFBFB"/>
<path d="M1016.64 1305.16L1017.07 1306.09C1017.99 1315.72 1014.05 1321.31 1005.25 1322.87C1004.58 1322.99 1003.93 1322.95 1003.3 1322.75L997.425 1320.96C996.64 1320.72 995.874 1320.76 995.13 1321.08C928.491 1350.16 858.731 1365.58 785.85 1367.34C785.132 1367.35 784.577 1367.67 784.184 1368.29C777.116 1379.79 762.287 1376.29 760.114 1362.97V1361.95C762.186 1348.97 776.709 1346.09 784.103 1356.75C784.289 1357.03 784.541 1357.25 784.836 1357.4C785.131 1357.55 785.459 1357.62 785.789 1357.61C857.099 1355.75 925.424 1340.68 990.762 1312.39C991.412 1312.09 991.805 1311.6 991.941 1310.91C995.13 1294.52 1006.42 1294.31 1016.64 1305.16Z" fill="#FBFBFB"/>
<path d="M470.153 1346.72C496.587 1360.52 523.528 1373.24 550.977 1384.89L550.388 1386.84C548.884 1386.1 547.422 1386.39 545.959 1385.8C520.379 1375.67 495.584 1363.88 471.575 1350.44C471.115 1350.18 470.776 1349.81 470.559 1349.32C470.343 1348.8 469.923 1348.45 469.3 1348.24L470.153 1346.72Z" fill="#FBFBFB"/>
<path d="M412.263 1349.77C423.597 1355.53 434.43 1362.14 444.763 1369.57L443.402 1371.6L410.82 1351.21L412.263 1349.77Z" fill="#FBFBFB"/>
<path d="M760.114 1361.95V1362.97C755.591 1363.51 751.048 1363.67 746.485 1363.46C724.872 1362.4 703.402 1360.04 682.074 1356.37C681.925 1355.83 681.938 1355.05 682.114 1354.05C708.019 1357.52 734.019 1360.15 760.114 1361.95Z" fill="#FBFBFB"/>
<path d="M995.312 1385.9C998.847 1399.82 986.091 1409.36 974.33 1400.04C973.788 1399.62 973.199 1399.51 972.562 1399.71C839.353 1443.51 706.137 1443.48 572.914 1399.63C572.237 1399.42 571.607 1399.52 571.025 1399.94C560.544 1407.64 547.787 1399.47 550.387 1386.84L550.976 1384.89C558.289 1374.45 571.939 1376.19 575.087 1388.85C575.263 1389.52 575.67 1389.98 576.306 1390.21C702.65 1435.02 843.497 1432.01 969.78 1390.41C970.402 1390.21 970.822 1389.79 971.039 1389.17C975.508 1376.88 987.391 1375.01 995.312 1385.9Z" fill="#FBFBFB"/>
<path d="M1086.21 1378.12L1087.73 1380.15C1013.54 1421.21 934.267 1446.8 849.916 1456.91C847.478 1457.21 845.02 1457.38 842.542 1457.42L842.034 1455.9C842.766 1456.02 843.375 1455.83 843.863 1455.33C844.309 1454.87 844.858 1454.61 845.508 1454.54C913.893 1446.76 979.354 1428.55 1041.89 1399.9C1053.49 1394.59 1068.27 1387.33 1086.21 1378.12Z" fill="#FBFBFB"/>
</svg>
