<svg width="798" height="798" viewBox="0 0 798 798" fill="none" xmlns="http://www.w3.org/2000/svg">
<g clip-path="url(#clip0_534_1217)">
<path d="M752.126 0L749.285 353.115C749.285 353.476 749.462 353.661 749.816 353.668L798 353.939" stroke="#FBFBFB" stroke-width="2"/>
<path d="M749.274 0L746.347 352.876C746.34 353.498 746.022 353.805 745.393 353.798C708.095 353.148 670.786 352.909 633.467 353.082C632.419 353.09 632.122 353.516 632.578 354.362C632.735 354.657 632.969 354.905 633.256 355.078C633.542 355.252 633.869 355.345 634.204 355.349L745.935 356.476C746.231 356.476 746.376 356.624 746.369 356.921C745.74 434.061 745.067 511.201 744.352 588.341C744.287 595.03 743.593 602.284 743.452 609.332C743.445 609.765 743.224 610.007 742.791 610.058C731.066 611.496 723.596 617.818 720.379 629.021C720.278 629.361 720.228 629.704 720.228 630.051L720.184 632.458C720.177 632.95 719.928 633.196 719.436 633.196C718.233 633.196 709.06 632.935 708.876 633.586C708.767 633.998 708.923 634.211 709.342 634.226L718.926 634.627C719.432 634.649 719.725 634.905 719.805 635.397C722.024 648.523 729.725 655.954 742.91 657.689C743.315 657.739 743.517 657.97 743.517 658.383L743.528 668.314C743.528 668.459 743.593 668.553 743.723 668.596C743.882 668.647 744.027 668.697 744.157 668.748C744.46 668.863 744.616 668.759 744.623 668.433L744.883 658.068C744.886 657.906 744.951 657.75 745.066 657.634C745.181 657.517 745.336 657.447 745.501 657.439C757.861 656.832 767.143 647.182 768.433 635.115C768.469 634.732 768.675 634.536 769.051 634.529L779.08 634.193C779.355 634.186 779.506 634.045 779.535 633.77C779.666 632.849 770.189 633.196 769.04 633.185C768.693 633.185 768.494 633.011 768.444 632.664C766.637 620.167 759.556 612.678 747.203 610.199C747.112 610.181 747.03 610.132 746.972 610.06C746.915 609.988 746.885 609.899 746.889 609.809L749.068 357.539C749.068 356.773 749.451 356.397 750.218 356.411L798 357.192" stroke="#FBFBFB" stroke-width="2"/>
<path d="M742.747 634.367L732.989 634.356C732.44 634.349 732.223 634.616 732.339 635.158C733.56 641.006 737.12 644.403 743.018 645.35C743.351 645.408 743.517 645.603 743.517 645.935V655.661C743.518 655.754 743.499 655.847 743.461 655.932C743.423 656.017 743.367 656.093 743.297 656.155C743.227 656.216 743.145 656.262 743.056 656.289C742.966 656.316 742.872 656.324 742.78 656.312C730.311 654.714 723.119 647.717 721.204 635.321C721.131 634.836 721.341 634.591 721.832 634.583L731.862 634.475C732.172 634.475 732.349 634.32 732.393 634.009L732.447 633.586C732.483 633.326 732.631 633.196 732.892 633.196H742.704C743.246 633.196 743.517 632.925 743.517 632.382V622.939C743.517 622.447 743.279 622.248 742.802 622.342C736.925 623.419 733.423 626.9 732.295 632.784C732.245 633.058 732.078 633.196 731.797 633.196H722.082C721.977 633.196 721.874 633.175 721.778 633.133C721.682 633.092 721.596 633.031 721.525 632.955C721.454 632.878 721.399 632.788 721.364 632.69C721.329 632.591 721.315 632.487 721.323 632.382C722.125 620.662 731.504 612.378 742.877 611.457C743.304 611.42 743.517 611.616 743.517 612.042V621.323C743.517 621.634 743.64 621.88 743.886 622.06L744.298 622.364C744.587 622.574 744.728 622.859 744.721 623.221L744.547 632.307C744.54 632.899 744.833 633.196 745.425 633.196C746.39 633.196 756.073 632.664 755.856 634.03C755.798 634.399 755.577 634.58 755.194 634.573L745.165 634.443C745.083 634.442 745.002 634.459 744.926 634.491C744.85 634.522 744.782 634.569 744.724 634.627C744.667 634.686 744.621 634.755 744.591 634.831C744.561 634.908 744.546 634.989 744.547 635.071L744.721 645.079C744.728 645.195 744.674 645.27 744.558 645.307C744.471 645.343 744.359 645.397 744.222 645.469C744.151 645.509 744.07 645.53 743.988 645.529C743.906 645.528 743.826 645.505 743.756 645.463C743.686 645.422 743.628 645.362 743.588 645.291C743.548 645.219 743.527 645.139 743.528 645.057L743.517 635.136C743.517 634.623 743.261 634.367 742.747 634.367Z" stroke="#FBFBFB" stroke-width="2"/>
<path d="M755.78 632.643C754.912 626.896 751.085 623.275 745.403 622.418C745.049 622.368 744.872 622.165 744.872 621.811V614.091C744.872 613.726 744.954 613.366 745.111 613.037C745.268 612.707 745.497 612.417 745.781 612.187C746.064 611.958 746.396 611.794 746.751 611.709C747.106 611.624 747.475 611.619 747.832 611.695C758.79 614.037 765.158 620.77 766.936 631.895C766.958 632.024 766.952 632.156 766.918 632.282C766.884 632.408 766.824 632.526 766.74 632.627C766.657 632.728 766.553 632.809 766.435 632.866C766.318 632.923 766.189 632.954 766.058 632.957L756.452 633.206C756.062 633.221 755.837 633.033 755.78 632.643Z" stroke="#FBFBFB" stroke-width="2"/>
<path d="M745.599 645.285C751.302 644.201 754.967 640.677 755.769 635.115C755.801 634.891 755.915 634.687 756.091 634.541C756.267 634.395 756.492 634.318 756.723 634.323L766.318 634.638C766.615 634.645 766.759 634.797 766.752 635.093C766.384 646.933 756.69 655.293 745.317 656.247C745.251 656.253 745.185 656.245 745.123 656.223C745.06 656.201 745.003 656.166 744.955 656.12C744.907 656.074 744.869 656.018 744.843 655.955C744.818 655.893 744.805 655.826 744.807 655.759L744.905 646.12C744.912 645.65 745.143 645.372 745.599 645.285Z" stroke="#FBFBFB" stroke-width="2"/>
<path d="M-0.000135519 53.1927C131.439 53.5252 262.881 53.5505 394.327 53.2686C395.129 53.2686 395.678 53.6192 395.975 54.3204C396.007 54.3974 396.019 54.4812 396.011 54.5642C396.003 54.6473 395.975 54.7271 395.929 54.7967C395.883 54.8663 395.821 54.9235 395.747 54.9633C395.674 55.0032 395.592 55.0244 395.509 55.0251C282.408 55.0613 169.297 54.9854 56.1743 54.7974C37.4531 54.7613 18.7283 54.8516 -0.000135519 55.0685" stroke="#FBFBFB" stroke-width="2"/>
<path d="M-0.00025329 64.5773L305.961 64.7182C306.366 64.7182 306.568 64.9206 306.568 65.3254V79.9735C306.568 80.0489 306.553 80.1237 306.524 80.1934C306.494 80.2631 306.451 80.3264 306.397 80.3798C306.342 80.4332 306.278 80.4755 306.207 80.5044C306.136 80.5332 306.06 80.5481 305.983 80.5481L-0.00025329 80.7433" stroke="#FBFBFB" stroke-width="2"/>
<path d="M-8.00027e-05 744.395L0.292686 744.471C0.444479 744.507 0.563698 744.464 0.650437 744.341L77.3279 638.411C77.5375 638.122 77.7905 638.082 78.0868 638.292L205.767 730.788C206.005 730.961 206.273 731.048 206.569 731.048H677.107C677.555 731.048 677.939 731.207 678.257 731.525L681.238 734.507C681.477 734.745 681.43 734.865 681.097 734.865C523.102 734.821 365.117 734.897 207.133 734.843C206.779 734.843 206.497 734.984 206.287 735.266C191 755.96 176.005 776.872 161.302 798" stroke="#FBFBFB" stroke-width="2"/>
<path d="M35.2486 43.4129C183.41 42.7298 331.766 43.0334 480.383 43.4021C480.483 43.402 480.581 43.4336 480.661 43.4923C480.741 43.5509 480.799 43.6333 480.828 43.7273C481.015 44.3634 480.575 44.6815 479.505 44.6815C331.347 44.7104 183.186 44.7284 35.0209 44.7357C34.804 44.7357 34.6956 44.6273 34.6956 44.4104V43.9767C34.6956 43.6081 34.88 43.4201 35.2486 43.4129Z" stroke="#FBFBFB" stroke-width="2"/>
<path d="M680.946 706.404C676.977 706.772 672.955 706.49 668.976 706.501C525.957 706.696 382.939 706.7 239.92 706.512C239.537 706.512 239.346 706.32 239.346 705.937C239.353 705.814 239.353 705.695 239.346 705.58C239.324 705.175 239.519 704.976 239.931 704.983C254.59 705.2 271.212 704.777 283.854 704.777C411.143 704.741 538.433 704.737 665.723 704.766C667.252 704.766 680.696 704.864 681.282 705.612C681.65 706.082 681.538 706.346 680.946 706.404Z" stroke="#FBFBFB" stroke-width="2"/>
<path d="M781.704 715.283L781.476 714.286C781.389 713.924 781.534 713.737 781.91 713.722C783.428 713.646 783.233 716.585 782.734 717.3C782.517 717.611 782.224 717.766 781.856 717.766C616.177 717.766 450.498 717.766 284.819 717.766C284.277 717.766 283.799 717.365 283.496 716.964C283.458 716.915 283.434 716.857 283.427 716.796C283.42 716.735 283.43 716.673 283.456 716.617C283.482 716.561 283.522 716.513 283.573 716.479C283.624 716.445 283.684 716.425 283.745 716.422C286.123 716.234 288.491 716.14 290.847 716.14C423.37 716.104 555.897 716.118 688.427 716.183C719.317 716.205 750.185 716.476 781.075 716.086C781.61 716.079 781.819 715.811 781.704 715.283Z" stroke="#FBFBFB" stroke-width="2"/>
<path d="M3.54327e-05 747.919L77.6858 640.46C77.9171 640.142 78.1917 640.099 78.5098 640.33L202.113 729.845C202.366 730.025 202.478 730.268 202.449 730.571L202.146 734.095C202.109 734.435 202.254 734.655 202.579 734.756L203.815 735.136C204.206 735.259 204.282 735.49 204.043 735.83L158.906 798" stroke="#FBFBFB" stroke-width="2"/>
<path d="M752.126 0H749.274L746.347 352.876C746.34 353.498 746.022 353.805 745.393 353.798C708.095 353.148 670.786 352.909 633.467 353.082C632.419 353.09 632.122 353.516 632.578 354.362C632.735 354.657 632.969 354.905 633.256 355.078C633.542 355.252 633.869 355.345 634.204 355.349L745.935 356.476C746.231 356.476 746.376 356.624 746.369 356.921C745.74 434.061 745.067 511.201 744.352 588.341C744.287 595.03 743.593 602.284 743.452 609.332C743.445 609.765 743.224 610.007 742.791 610.058C731.066 611.496 723.596 617.818 720.379 629.021C720.278 629.361 720.228 629.704 720.228 630.051L720.184 632.458C720.177 632.95 719.928 633.196 719.436 633.196C718.233 633.196 709.06 632.935 708.876 633.586C708.767 633.998 708.923 634.211 709.342 634.226L718.926 634.627C719.432 634.649 719.725 634.905 719.805 635.397C722.024 648.523 729.725 655.954 742.91 657.689C743.315 657.739 743.517 657.971 743.517 658.383L743.528 668.314C743.528 668.459 743.593 668.553 743.723 668.596C743.882 668.647 744.027 668.697 744.157 668.748C744.46 668.863 744.616 668.759 744.623 668.433L744.883 658.068C744.886 657.906 744.951 657.75 745.066 657.634C745.181 657.517 745.336 657.447 745.501 657.439C757.861 656.832 767.143 647.182 768.433 635.115C768.469 634.732 768.675 634.536 769.051 634.529L779.08 634.193C779.355 634.186 779.506 634.045 779.535 633.77C779.666 632.849 770.189 633.196 769.04 633.185C768.693 633.185 768.494 633.011 768.444 632.664C766.637 620.167 759.556 612.678 747.203 610.199C747.112 610.181 747.03 610.132 746.972 610.06C746.915 609.988 746.885 609.899 746.889 609.809L749.068 357.539C749.068 356.773 749.451 356.397 750.218 356.411L798 357.192V353.939L749.816 353.668C749.462 353.661 749.285 353.476 749.285 353.115L752.126 0ZM742.747 634.367L732.989 634.356C732.44 634.349 732.223 634.616 732.338 635.158C733.56 641.006 737.12 644.403 743.018 645.35C743.351 645.408 743.517 645.603 743.517 645.935V655.661C743.518 655.754 743.499 655.847 743.461 655.932C743.423 656.017 743.367 656.093 743.297 656.155C743.227 656.216 743.145 656.262 743.055 656.289C742.966 656.316 742.872 656.324 742.78 656.312C730.311 654.714 723.119 647.717 721.203 635.321C721.131 634.836 721.341 634.591 721.832 634.583L731.861 634.475C732.172 634.475 732.349 634.32 732.393 634.009L732.447 633.586C732.483 633.326 732.631 633.196 732.891 633.196H742.704C743.246 633.196 743.517 632.925 743.517 632.382V622.939C743.517 622.447 743.278 622.248 742.801 622.342C736.925 623.419 733.423 626.9 732.295 632.784C732.245 633.058 732.078 633.196 731.796 633.196H722.082C721.977 633.196 721.874 633.175 721.778 633.133C721.682 633.092 721.596 633.031 721.525 632.955C721.454 632.878 721.399 632.788 721.364 632.69C721.329 632.591 721.315 632.487 721.323 632.382C722.125 620.662 731.504 612.378 742.877 611.457C743.304 611.421 743.517 611.616 743.517 612.042V621.323C743.517 621.634 743.64 621.88 743.886 622.06L744.298 622.364C744.587 622.574 744.728 622.859 744.72 623.221L744.547 632.307C744.54 632.899 744.833 633.196 745.425 633.196C746.39 633.196 756.072 632.664 755.856 634.031C755.798 634.399 755.577 634.58 755.194 634.573L745.165 634.443C745.083 634.443 745.002 634.459 744.926 634.491C744.85 634.522 744.782 634.569 744.724 634.627C744.667 634.686 744.621 634.755 744.591 634.832C744.56 634.908 744.546 634.989 744.547 635.071L744.72 645.079C744.728 645.195 744.674 645.27 744.558 645.307C744.471 645.343 744.359 645.397 744.222 645.469C744.15 645.509 744.07 645.53 743.988 645.529C743.906 645.528 743.826 645.505 743.756 645.463C743.686 645.422 743.628 645.362 743.588 645.291C743.548 645.219 743.527 645.139 743.528 645.057L743.517 635.136C743.517 634.623 743.26 634.367 742.747 634.367ZM755.78 632.643C754.912 626.896 751.085 623.275 745.404 622.418C745.049 622.368 744.872 622.165 744.872 621.811V614.091C744.872 613.726 744.954 613.366 745.111 613.037C745.268 612.707 745.497 612.417 745.781 612.187C746.065 611.958 746.396 611.794 746.751 611.709C747.106 611.624 747.475 611.619 747.832 611.695C758.79 614.037 765.158 620.77 766.937 631.895C766.958 632.023 766.952 632.156 766.918 632.282C766.885 632.408 766.824 632.526 766.741 632.627C766.657 632.728 766.553 632.809 766.435 632.866C766.318 632.923 766.189 632.954 766.058 632.957L756.452 633.206C756.062 633.221 755.838 633.033 755.78 632.643ZM745.599 645.285C751.302 644.201 754.967 640.677 755.769 635.115C755.801 634.891 755.915 634.687 756.091 634.541C756.267 634.395 756.492 634.318 756.723 634.323L766.319 634.638C766.615 634.645 766.759 634.797 766.752 635.093C766.384 646.933 756.69 655.292 745.317 656.247C745.251 656.253 745.185 656.245 745.123 656.223C745.06 656.201 745.003 656.166 744.955 656.12C744.907 656.074 744.869 656.018 744.843 655.955C744.818 655.893 744.806 655.826 744.807 655.759L744.905 646.12C744.912 645.65 745.143 645.372 745.599 645.285Z" fill="#FBFBFB"/>
<path d="M480.383 43.4021C331.766 43.0334 183.41 42.7298 35.2486 43.4129C34.88 43.4201 34.6956 43.6081 34.6956 43.9767V44.4104C34.6956 44.6273 34.804 44.7357 35.0209 44.7357C183.186 44.7284 331.347 44.7104 479.505 44.6815C480.575 44.6815 481.015 44.3634 480.828 43.7273C480.799 43.6333 480.741 43.5509 480.661 43.4923C480.581 43.4336 480.483 43.402 480.383 43.4021Z" fill="#FBFBFB"/>
<path d="M-0.00012207 53.1927V55.0685C18.7283 54.8516 37.4531 54.7613 56.1743 54.7974C169.297 54.9854 282.408 55.0613 395.509 55.0251C395.592 55.0244 395.674 55.0032 395.747 54.9633C395.821 54.9235 395.883 54.8663 395.929 54.7967C395.975 54.7271 396.003 54.6473 396.011 54.5642C396.019 54.4812 396.007 54.3974 395.975 54.3204C395.678 53.6192 395.129 53.2686 394.327 53.2686C262.881 53.5505 131.439 53.5252 -0.00012207 53.1927Z" fill="#FBFBFB"/>
<path d="M-0.000244141 64.5773V80.7433L305.983 80.5481C306.06 80.5481 306.136 80.5332 306.207 80.5044C306.278 80.4755 306.342 80.4332 306.397 80.3798C306.451 80.3264 306.494 80.2631 306.524 80.1934C306.553 80.1237 306.568 80.0489 306.568 79.9735V65.3254C306.568 64.9206 306.366 64.7182 305.961 64.7182L-0.000244141 64.5773Z" fill="#FBFBFB"/>
<path d="M-6.10352e-05 744.395V747.919L77.6857 640.46C77.917 640.142 78.1916 640.099 78.5096 640.33L202.113 729.845C202.366 730.025 202.478 730.268 202.449 730.571L202.146 734.095C202.109 734.435 202.254 734.655 202.579 734.756L203.815 735.136C204.206 735.259 204.281 735.49 204.043 735.83L158.906 798H161.302C176.005 776.872 191 755.96 206.287 735.266C206.497 734.984 206.779 734.843 207.133 734.843C365.117 734.897 523.102 734.821 681.097 734.865C681.43 734.865 681.477 734.745 681.238 734.507L678.257 731.525C677.939 731.207 677.555 731.048 677.107 731.048H206.569C206.273 731.048 206.005 730.961 205.767 730.788L78.0869 638.292C77.7905 638.082 77.5375 638.122 77.3279 638.411L0.650452 744.341C0.563721 744.464 0.444458 744.507 0.292664 744.471L-6.10352e-05 744.395Z" fill="#FBFBFB"/>
<path d="M668.976 706.501C672.955 706.49 676.977 706.772 680.946 706.404C681.538 706.346 681.65 706.082 681.282 705.612C680.696 704.864 667.252 704.766 665.723 704.766C538.433 704.737 411.143 704.741 283.854 704.777C271.212 704.777 254.59 705.2 239.931 704.983C239.519 704.976 239.324 705.175 239.346 705.58C239.353 705.695 239.353 705.814 239.346 705.937C239.346 706.32 239.537 706.512 239.92 706.512C382.939 706.7 525.957 706.696 668.976 706.501Z" fill="#FBFBFB"/>
<path d="M781.075 716.086C750.185 716.476 719.317 716.205 688.427 716.183C555.897 716.118 423.37 716.104 290.847 716.14C288.491 716.14 286.123 716.234 283.745 716.422C283.684 716.425 283.624 716.445 283.573 716.479C283.522 716.513 283.482 716.561 283.456 716.617C283.43 716.673 283.42 716.735 283.427 716.796C283.434 716.857 283.458 716.915 283.496 716.964C283.799 717.365 284.277 717.766 284.819 717.766C450.498 717.766 616.177 717.766 781.856 717.766C782.224 717.766 782.517 717.611 782.734 717.3C783.233 716.585 783.428 713.646 781.91 713.722C781.534 713.737 781.389 713.924 781.476 714.286L781.704 715.283C781.819 715.811 781.61 716.079 781.075 716.086Z" fill="#FBFBFB"/>
</g>
<defs>
<clipPath id="clip0_534_1217">
<rect width="798" height="798" fill="white" transform="matrix(-1 0 0 1 798 0)"/>
</clipPath>
</defs>
</svg>
