<svg width="331" height="347" viewBox="0 0 331 347" fill="none" xmlns="http://www.w3.org/2000/svg">
<path d="M225.599 91.8907C225.172 94.2913 225.176 96.2604 228.123 96.4807C231.7 96.7469 232.334 92.3543 229.902 90.8213C229.764 90.7356 229.616 90.702 229.456 90.7203C228.154 90.8733 227.152 90.5719 226.45 89.8161C218.346 81.0738 210.248 72.3284 202.154 63.58C201.74 63.1332 201.288 62.7094 200.797 62.3085C200.666 62.2014 200.518 62.1754 200.356 62.2305L163.932 74.6371C163.754 74.6953 163.583 74.6784 163.417 74.5866C162.479 74.0634 161.569 73.5539 160.484 73.7696C158.563 74.1552 157.818 75.9269 158.337 77.7032C159.041 80.1038 162.512 80.627 163.67 78.1898C163.912 77.6787 164.122 77.1371 164.3 76.5649C164.349 76.4058 164.452 76.3002 164.608 76.2482C175.969 72.3835 187.338 68.5356 198.715 64.7045C200.535 64.0894 200.88 65.0992 201.928 66.2054C209.826 74.5714 217.674 82.9847 225.471 91.4455C225.587 91.574 225.63 91.7225 225.599 91.8907Z" stroke="#FBFBFB" stroke-width="2"/>
<path d="M46.6754 221.387C41.2736 220.643 38.8923 227.739 43.1125 230.548C45.0434 231.834 46.9052 231.324 49.0246 230.778C49.1778 230.738 49.3126 230.775 49.4291 230.888L129.692 309.652C129.799 309.759 129.824 309.883 129.766 310.023C126.194 318.395 138.372 321.149 139.176 312.768C139.282 311.685 139.617 311.584 140.587 311.341C157.487 307.081 193.287 297.979 247.988 284.035C248.159 283.992 248.293 284.043 248.388 284.187C248.99 285.082 249.486 285.977 250.328 286.56C256.368 290.787 262.207 281.543 255.5 277.715C255.352 277.632 255.28 277.507 255.284 277.338C255.29 276.775 255.348 276.278 255.458 275.847C259.234 261.183 265.986 235.126 275.714 197.675C278.182 188.156 280.504 178.604 283.074 169.098C283.122 168.917 283.226 168.755 283.371 168.635C283.516 168.515 283.695 168.443 283.883 168.428C293.064 167.712 288.871 154.406 280.49 159.542C280.322 159.646 280.17 159.628 280.035 159.487L201.712 79.273C201.599 79.1567 201.565 79.019 201.611 78.8599C201.896 77.8547 202.374 76.7531 202.351 75.7662C202.199 68.9548 193.175 68.9502 192.136 75.2246C192.113 75.3628 192.05 75.4915 191.956 75.5956C191.861 75.6997 191.739 75.7748 191.603 75.8121L84.6025 105.619C84.535 105.638 84.4492 105.593 84.345 105.486C82.7406 103.898 81.3798 102.149 78.6904 102.705C73.8036 103.71 72.8795 109.81 77.0492 112.344C77.1841 112.426 77.2392 112.544 77.2147 112.697C77.0799 113.581 76.8929 114.456 76.6539 115.322C69.9389 139.447 63.1932 163.563 56.4169 187.669C53.277 198.841 50.275 210.036 47.011 221.171C46.9619 221.339 46.8501 221.411 46.6754 221.387Z" stroke="#FBFBFB" stroke-width="2"/>
<path d="M108.172 92.4737C109.441 94.1536 111.942 94.585 113.427 92.9786C115.464 90.7662 113.087 87.2778 110.154 88.205C109.014 88.563 108.458 89.4581 107.759 90.4036C107.661 90.5352 107.532 90.6193 107.373 90.656L70.1397 99.2576C70.0916 99.2685 70.0478 99.2934 70.0135 99.3293C69.9792 99.3652 69.9559 99.4104 69.9466 99.4596C67.5897 111.862 65.2666 124.284 62.9772 136.725C62.7565 137.928 61.5842 138.116 60.936 138.846C58.2099 141.94 62.4669 145.735 65.331 143.248C67.363 141.476 65.6896 139.337 64.6322 137.616C64.5433 137.475 64.5157 137.322 64.5495 137.157C66.6826 126.224 68.8019 115.289 70.9074 104.352C71.1158 103.266 71.3334 102.259 71.5602 101.332C71.5962 101.183 71.6732 101.047 71.7827 100.938C71.8922 100.83 72.03 100.753 72.1808 100.717L107.768 92.3268C107.843 92.3089 107.921 92.3133 107.993 92.3394C108.065 92.3656 108.128 92.4123 108.172 92.4737Z" stroke="#FBFBFB" stroke-width="2"/>
<path d="M268.776 132.769C269.259 130.91 268.501 129.331 266.565 128.918C261.821 127.913 260.911 135.39 267.144 134.674C267.301 134.655 267.448 134.686 267.586 134.765C268.045 135.032 268.389 135.275 268.616 135.495C274.644 141.349 283.078 149.643 293.919 160.377C294.323 160.781 294.414 161.288 294.19 161.897C290.019 173.203 285.835 184.508 281.639 195.812C281.581 195.962 281.472 196.052 281.313 196.083C280.096 196.303 279.28 196.627 278.863 197.056C274.334 201.719 284.081 205.001 283.924 199.227C283.901 198.368 283.138 196.835 283.423 196.014C285.17 190.98 289.318 179.903 295.868 162.782C296.107 162.155 296.323 161.551 296.516 160.969C296.569 160.808 296.575 160.635 296.534 160.471C296.494 160.306 296.408 160.156 296.286 160.038L268.896 133.205C268.77 133.082 268.73 132.937 268.776 132.769Z" stroke="#FBFBFB" stroke-width="2"/>
<path d="M35.4307 229.892C35.3428 229.813 35.2797 229.709 35.2487 229.595C35.2178 229.48 35.2203 229.359 35.256 229.245C38.8234 218.156 42.3464 207.068 45.825 195.982C46.2755 194.554 46.3491 194.242 47.857 193.677C49.6223 193.016 50.2904 191.733 49.8614 189.826C49.0247 186.104 41.6783 187.61 44.6849 193.324C44.7738 193.489 44.7891 193.661 44.7309 193.838L33.1229 229.998C33.0585 230.194 33.1045 230.36 33.2608 230.498L61.8831 256.069C61.9728 256.148 62.0403 256.25 62.0789 256.363C62.1176 256.477 62.1262 256.598 62.1038 256.716C61.8417 258.152 62.3658 259.828 63.9519 260.25C67.4457 261.177 70.0018 257.404 66.7929 254.962C65.708 254.136 64.407 254.517 63.345 254.623C63.1795 254.638 63.0339 254.591 62.9083 254.48L35.4307 229.892Z" stroke="#FBFBFB" stroke-width="2"/>
<path d="M223.595 297.369C220.731 293.339 215.407 297.653 218.612 300.986C219.427 301.836 220.487 302.061 221.793 301.661C223.144 301.243 223.485 299.425 224.914 299.131C233.143 297.433 245.162 295.069 260.97 292.04C261.991 291.847 262.331 291.241 262.529 290.319C265.057 278.728 267.633 267.149 270.257 255.582C270.355 255.154 270.482 254.733 270.638 254.32C271.121 253.039 272.523 252.906 273.001 251.598C275.088 245.902 265.889 246.017 267.498 251.391C267.733 252.195 268.289 252.686 268.882 253.255C268.996 253.362 269.034 253.492 268.997 253.645C266.147 265.487 263.577 277.398 260.805 289.263C260.534 290.424 260.042 290.333 259.053 290.534C247.376 292.94 235.686 295.27 223.981 297.525C223.819 297.556 223.69 297.504 223.595 297.369Z" stroke="#FBFBFB" stroke-width="2"/>
<path d="M131.641 322.604C130.182 321.283 128.603 319.693 126.902 317.835C122.617 313.149 114.765 305.7 106.173 295.873C106.069 295.753 106.023 295.614 106.035 295.455C106.159 293.922 106.269 290.713 103.902 290.645C101.6 290.577 100.399 291.575 100.297 293.637C100.173 296.231 102.389 296.731 104.499 297.066C104.665 297.094 104.806 297.168 104.922 297.291L130.791 324.642C130.878 324.733 130.988 324.796 131.11 324.826C131.231 324.855 131.358 324.849 131.476 324.808L167.61 312.043C167.748 311.994 167.878 312.011 168.001 312.093C170.653 313.874 174.556 312.378 173.237 308.757C172.083 305.571 167.546 306.696 167.422 309.84C167.415 309.981 167.366 310.117 167.28 310.231C167.195 310.345 167.078 310.431 166.943 310.478L132.069 322.687C131.909 322.745 131.767 322.718 131.641 322.604Z" stroke="#FBFBFB" stroke-width="2"/>
<path d="M162.792 76.8128C162.792 76.3794 162.62 75.9638 162.313 75.6574C162.006 75.3509 161.589 75.1788 161.155 75.1788C160.721 75.1788 160.305 75.3509 159.998 75.6574C159.691 75.9638 159.519 76.3794 159.519 76.8128C159.519 77.2462 159.691 77.6618 159.998 77.9682C160.305 78.2747 160.721 78.4468 161.155 78.4468C161.589 78.4468 162.006 78.2747 162.313 77.9682C162.62 77.6618 162.792 77.2462 162.792 76.8128Z" stroke="#FBFBFB" stroke-width="2"/>
<path d="M229.889 93.5752C229.889 93.137 229.714 92.7167 229.404 92.4068C229.094 92.0969 228.673 91.9229 228.234 91.9229C227.795 91.9229 227.374 92.0969 227.063 92.4068C226.753 92.7167 226.579 93.137 226.579 93.5752C226.579 94.0135 226.753 94.4338 227.063 94.7436C227.374 95.0535 227.795 95.2276 228.234 95.2276C228.673 95.2276 229.094 95.0535 229.404 94.7436C229.714 94.4338 229.889 94.0135 229.889 93.5752Z" stroke="#FBFBFB" stroke-width="2"/>
<path d="M48.8867 222.062C50.9508 223.944 51.8013 226.211 50.5371 228.667C50.4639 228.812 50.4386 228.977 50.4651 229.137C50.4915 229.297 50.5683 229.444 50.6842 229.557L130.69 308.174C130.789 308.272 130.917 308.337 131.055 308.36C131.194 308.383 131.336 308.363 131.462 308.302C134.243 306.971 136.28 308.068 138.45 309.904C138.582 310.017 138.73 310.052 138.896 310.01L247.887 282.273C248.061 282.227 248.169 282.117 248.208 281.942C248.641 280.074 249.992 277.857 252.079 277.623C253.026 277.513 253.298 277.182 253.546 276.246C262.874 240.72 271.903 205.12 281.221 169.594C281.341 169.141 281.38 168.679 281.341 168.208C281.328 168.055 281.269 167.922 281.161 167.808C279.189 165.734 278.357 164.251 279.249 161.649C279.301 161.493 279.27 161.357 279.157 161.24C253.909 135.27 228.629 109.323 203.307 83.4269C202.098 82.1922 200.793 80.3746 199.207 80.4342C196.278 80.5444 194.246 80.6959 192.577 77.7445C192.489 77.5946 192.358 77.5303 192.187 77.5517C191.843 77.5946 191.453 77.6772 191.014 77.7996C159.174 86.6613 127.334 95.5199 95.4933 104.375C93.5349 104.917 85.7886 106.67 84.6899 107.818C84.5795 107.931 84.5213 108.066 84.5152 108.222C84.3359 111.774 82.2395 112.018 79.449 113.046C79.3019 113.101 79.1992 113.202 79.141 113.349C78.7978 114.23 78.5771 114.848 78.479 115.203C68.6992 150.316 58.8903 185.422 49.0522 220.519C48.9541 220.871 48.8576 221.255 48.7626 221.671C48.7289 221.824 48.7702 221.955 48.8867 222.062Z" stroke="#FBFBFB" stroke-width="2"/>
<path d="M121.334 108.929C154.871 91.7072 193.902 95.1726 224.032 117.64C224.173 117.747 224.3 117.732 224.413 117.594L227.65 113.528C227.708 113.456 227.736 113.365 227.729 113.273C227.721 113.181 227.678 113.094 227.608 113.032C226.232 111.823 224.744 110.685 223.144 109.617C189.907 87.466 147.35 86.291 112.963 106.634C112.702 106.787 112.653 106.992 112.816 107.249L115.546 111.517C115.635 111.658 115.755 111.693 115.905 111.623C117.753 110.736 119.563 109.837 121.334 108.929Z" stroke="#FBFBFB" stroke-width="2"/>
<path d="M104.766 110.453C104.676 110.46 104.589 110.492 104.516 110.544C104.442 110.596 104.383 110.667 104.346 110.749C104.308 110.831 104.294 110.922 104.303 111.012C104.312 111.102 104.345 111.187 104.398 111.26L109.069 117.7C109.122 117.773 109.193 117.831 109.275 117.868C109.358 117.904 109.449 117.918 109.538 117.909C109.628 117.899 109.714 117.865 109.786 117.812C109.859 117.758 109.916 117.686 109.952 117.604L113.05 110.457C113.086 110.376 113.099 110.287 113.09 110.199C113.08 110.111 113.048 110.026 112.996 109.955C112.944 109.883 112.874 109.826 112.793 109.789C112.713 109.752 112.624 109.737 112.535 109.746L104.766 110.453Z" stroke="#FBFBFB" stroke-width="2"/>
<path d="M72.4567 220.134C62.2003 181.67 75.7621 142.366 106.867 117.934C107.001 117.828 107.088 117.672 107.109 117.502C107.129 117.332 107.082 117.161 106.977 117.025L103.897 113.055C103.864 113.014 103.816 112.987 103.764 112.98C103.712 112.973 103.661 112.987 103.621 113.018C70.273 138.745 55.6585 181.087 66.9079 221.805C66.9508 221.967 67.0535 222.028 67.2159 221.988L72.0706 220.786C72.139 220.769 72.2033 220.738 72.2599 220.696C72.3164 220.654 72.364 220.601 72.3999 220.54C72.4359 220.48 72.4594 220.412 72.4691 220.343C72.4789 220.273 72.4747 220.202 72.4567 220.134Z" stroke="#FBFBFB" stroke-width="2"/>
<path d="M230.321 113.918C230.29 113.836 230.238 113.764 230.171 113.708C230.103 113.652 230.022 113.615 229.936 113.6C229.85 113.585 229.761 113.592 229.679 113.621C229.596 113.65 229.523 113.7 229.466 113.766L224.524 119.508C224.467 119.575 224.428 119.655 224.411 119.74C224.395 119.826 224.401 119.915 224.428 119.997C224.456 120.08 224.505 120.154 224.57 120.213C224.635 120.271 224.714 120.311 224.8 120.33L232.573 122.01C232.662 122.029 232.754 122.024 232.84 121.995C232.926 121.966 233.002 121.915 233.062 121.846C233.121 121.778 233.161 121.694 233.177 121.605C233.193 121.516 233.184 121.425 233.153 121.34L230.321 113.918Z" stroke="#FBFBFB" stroke-width="2"/>
<path d="M243.634 137.625C261.591 162.222 267.039 193.641 257.987 222.833C257.221 225.299 256.43 227.775 255.615 230.259C255.559 230.431 255.616 230.547 255.785 230.608L260.308 232.343C260.777 232.524 261.098 232.377 261.269 231.902C264.34 223.397 266.795 214.681 267.567 205.772C268.418 196.018 268.331 185.774 266.533 176.121C262.475 154.349 252.427 135.778 236.389 120.408C236.299 120.321 236.178 120.274 236.052 120.277C235.926 120.279 235.806 120.331 235.718 120.422L232.192 124.043C232.135 124.103 232.104 124.182 232.105 124.265C232.106 124.347 232.138 124.425 232.196 124.484C236.256 128.624 240.306 133.067 243.634 137.625Z" stroke="#FBFBFB" stroke-width="2"/>
<path d="M68.6549 231.04C68.6429 231.113 68.6507 231.188 68.6774 231.257C68.704 231.326 68.7487 231.387 68.8067 231.433C68.8648 231.48 68.9341 231.51 69.0076 231.52C69.0811 231.531 69.1561 231.522 69.2249 231.494L76.8885 228.478C76.9579 228.452 77.0189 228.407 77.0653 228.349C77.1117 228.292 77.1418 228.222 77.1526 228.149C77.1633 228.076 77.1543 228.001 77.1265 227.932C77.0987 227.863 77.053 227.803 76.9942 227.758L70.6041 222.787C70.5466 222.742 70.4782 222.713 70.406 222.702C70.3337 222.692 70.2599 222.701 70.192 222.728C70.1242 222.755 70.0645 222.799 70.0191 222.856C69.9736 222.913 69.9439 222.981 69.9329 223.053L68.6549 231.04Z" stroke="#FBFBFB" stroke-width="2"/>
<path d="M157.583 290.796C121.095 287.468 89.8618 264.56 76.0839 230.631C76.0532 230.557 76.008 230.49 75.9511 230.434C75.8943 230.377 75.8268 230.333 75.7527 230.303C75.6786 230.273 75.5994 230.258 75.5197 230.259C75.44 230.26 75.3614 230.278 75.2886 230.31L70.6408 232.348C70.5677 232.38 70.5101 232.439 70.4801 232.514C70.4501 232.588 70.45 232.672 70.4799 232.747C90.1514 280.528 141.052 306.636 191.548 293.752C218.304 286.927 240.55 269.347 254.599 245.75C255.192 244.754 255.656 243.611 256.061 242.542C256.095 242.45 256.094 242.349 256.059 242.257C256.023 242.166 255.955 242.091 255.867 242.046L251.79 239.981C251.626 239.897 251.437 239.88 251.26 239.932C251.084 239.984 250.935 240.102 250.843 240.261C249.215 243.048 247.471 245.822 245.611 248.582C226.363 277.136 192.32 293.968 157.583 290.796Z" stroke="#FBFBFB" stroke-width="2"/>
<path d="M261.522 235.662C261.595 235.604 261.651 235.528 261.685 235.441C261.719 235.355 261.73 235.261 261.716 235.169C261.703 235.077 261.665 234.991 261.608 234.918C261.55 234.844 261.475 234.788 261.389 234.753L254.226 231.866C254.14 231.832 254.047 231.82 253.955 231.833C253.863 231.846 253.777 231.883 253.703 231.939C253.63 231.996 253.573 232.07 253.537 232.156C253.501 232.241 253.489 232.334 253.5 232.426L254.502 240.238C254.514 240.331 254.551 240.42 254.609 240.494C254.666 240.569 254.743 240.627 254.83 240.662C254.918 240.698 255.013 240.709 255.106 240.696C255.2 240.683 255.288 240.645 255.362 240.587L261.522 235.662Z" stroke="#FBFBFB" stroke-width="2"/>
<path d="M112.779 91.0416C112.779 90.6022 112.604 90.1807 112.293 89.87C111.982 89.5592 111.559 89.3846 111.119 89.3846C110.679 89.3846 110.257 89.5592 109.946 89.87C109.635 90.1807 109.46 90.6022 109.46 91.0416C109.46 91.4811 109.635 91.9025 109.946 92.2133C110.257 92.524 110.679 92.6986 111.119 92.6986C111.559 92.6986 111.982 92.524 112.293 92.2133C112.604 91.9025 112.779 91.4811 112.779 91.0416Z" stroke="#FBFBFB" stroke-width="2"/>
<path d="M64.7978 140.898C64.7978 140.686 64.7561 140.477 64.675 140.281C64.5939 140.086 64.475 139.908 64.3252 139.758C64.1754 139.609 63.9975 139.49 63.8017 139.409C63.6059 139.328 63.3961 139.287 63.1842 139.287C62.9723 139.287 62.7625 139.328 62.5667 139.409C62.3709 139.49 62.193 139.609 62.0432 139.758C61.8933 139.908 61.7745 140.086 61.6934 140.281C61.6123 140.477 61.5706 140.686 61.5706 140.898C61.5706 141.325 61.7406 141.735 62.0432 142.037C62.3458 142.339 62.7562 142.509 63.1842 142.509C63.6121 142.509 64.0226 142.339 64.3252 142.037C64.6278 141.735 64.7978 141.325 64.7978 140.898Z" stroke="#FBFBFB" stroke-width="2"/>
<path d="M267.48 131.754C267.48 131.311 267.304 130.886 266.99 130.573C266.676 130.26 266.251 130.084 265.807 130.084C265.363 130.084 264.937 130.26 264.623 130.573C264.31 130.886 264.133 131.311 264.133 131.754C264.133 132.198 264.31 132.622 264.623 132.936C264.937 133.249 265.363 133.425 265.807 133.425C266.251 133.425 266.676 133.249 266.99 132.936C267.304 132.622 267.48 132.198 267.48 131.754Z" stroke="#FBFBFB" stroke-width="2"/>
<path d="M282.453 199.323C282.453 198.903 282.286 198.5 281.989 198.203C281.691 197.906 281.288 197.74 280.867 197.74C280.659 197.74 280.453 197.78 280.26 197.86C280.068 197.94 279.893 198.056 279.746 198.203C279.599 198.35 279.482 198.525 279.402 198.717C279.322 198.909 279.281 199.115 279.281 199.323C279.281 199.531 279.322 199.737 279.402 199.929C279.482 200.121 279.599 200.296 279.746 200.443C279.893 200.59 280.068 200.706 280.26 200.786C280.453 200.866 280.659 200.907 280.867 200.907C281.288 200.907 281.691 200.74 281.989 200.443C282.286 200.146 282.453 199.743 282.453 199.323Z" stroke="#FBFBFB" stroke-width="2"/>
<path d="M48.6155 190.868C48.6155 190.439 48.4445 190.027 48.1402 189.723C47.8359 189.419 47.4231 189.248 46.9927 189.248C46.5623 189.248 46.1495 189.419 45.8452 189.723C45.5408 190.027 45.3699 190.439 45.3699 190.868C45.3699 191.298 45.5408 191.71 45.8452 192.014C46.1495 192.318 46.5623 192.489 46.9927 192.489C47.4231 192.489 47.8359 192.318 48.1402 192.014C48.4445 191.71 48.6155 191.298 48.6155 190.868Z" stroke="#FBFBFB" stroke-width="2"/>
<path d="M66.7837 257.537C66.7837 257.117 66.6166 256.715 66.3191 256.418C66.0217 256.121 65.6183 255.954 65.1976 255.954C64.777 255.954 64.3736 256.121 64.0761 256.418C63.7787 256.715 63.6116 257.117 63.6116 257.537C63.6116 257.957 63.7787 258.36 64.0761 258.657C64.3736 258.954 64.777 259.121 65.1976 259.121C65.6183 259.121 66.0217 258.954 66.3191 258.657C66.6166 258.36 66.7837 257.957 66.7837 257.537Z" stroke="#FBFBFB" stroke-width="2"/>
<path d="M272.04 250.206C272.019 249.999 271.953 249.799 271.846 249.617C271.74 249.435 271.596 249.275 271.421 249.145C271.246 249.016 271.045 248.92 270.829 248.862C270.612 248.805 270.385 248.788 270.16 248.811C269.935 248.835 269.716 248.899 269.517 249C269.317 249.101 269.14 249.237 268.996 249.4C268.852 249.563 268.744 249.75 268.678 249.95C268.612 250.15 268.589 250.359 268.611 250.566C268.633 250.773 268.699 250.973 268.805 251.155C268.911 251.337 269.056 251.498 269.231 251.627C269.405 251.757 269.606 251.853 269.823 251.91C270.039 251.967 270.266 251.985 270.492 251.961C270.717 251.937 270.935 251.873 271.135 251.772C271.335 251.671 271.512 251.536 271.655 251.373C271.799 251.21 271.907 251.023 271.973 250.823C272.039 250.623 272.062 250.413 272.04 250.206Z" stroke="#FBFBFB" stroke-width="2"/>
<path d="M222.363 298.773C222.363 298.347 222.193 297.939 221.892 297.637C221.59 297.336 221.181 297.167 220.754 297.167C220.327 297.167 219.918 297.336 219.616 297.637C219.314 297.939 219.145 298.347 219.145 298.773C219.145 299.199 219.314 299.608 219.616 299.909C219.918 300.211 220.327 300.38 220.754 300.38C221.181 300.38 221.59 300.211 221.892 299.909C222.193 299.608 222.363 299.199 222.363 298.773Z" stroke="#FBFBFB" stroke-width="2"/>
<path d="M104.826 293.72C104.826 293.3 104.659 292.897 104.361 292.6C104.064 292.303 103.66 292.136 103.24 292.136C102.819 292.136 102.416 292.303 102.118 292.6C101.821 292.897 101.654 293.3 101.654 293.72C101.654 294.14 101.821 294.543 102.118 294.84C102.416 295.137 102.819 295.303 103.24 295.303C103.66 295.303 104.064 295.137 104.361 294.84C104.659 294.543 104.826 294.14 104.826 293.72Z" stroke="#FBFBFB" stroke-width="2"/>
<path d="M172.152 309.932C172.152 309.486 171.975 309.059 171.659 308.744C171.344 308.429 170.916 308.252 170.469 308.252C170.248 308.252 170.03 308.295 169.826 308.38C169.621 308.464 169.436 308.588 169.28 308.744C169.123 308.9 168.999 309.085 168.915 309.289C168.83 309.493 168.787 309.711 168.787 309.932C168.787 310.152 168.83 310.371 168.915 310.575C168.999 310.778 169.123 310.964 169.28 311.12C169.436 311.275 169.621 311.399 169.826 311.484C170.03 311.568 170.248 311.612 170.469 311.612C170.916 311.612 171.344 311.435 171.659 311.12C171.975 310.804 172.152 310.377 172.152 309.932Z" stroke="#FBFBFB" stroke-width="2"/>
<path d="M225.471 91.4455C217.674 82.9847 209.826 74.5714 201.928 66.2054C200.88 65.0992 200.536 64.0894 198.715 64.7045C187.338 68.5356 175.969 72.3835 164.608 76.2482C164.452 76.3002 164.349 76.4058 164.3 76.5649C164.122 77.1371 163.913 77.6787 163.67 78.1898C162.512 80.627 159.041 80.1038 158.338 77.7032C157.818 75.9269 158.563 74.1552 160.485 73.7696C161.569 73.5539 162.48 74.0634 163.418 74.5866C163.583 74.6784 163.755 74.6953 163.932 74.6371L200.356 62.2305C200.519 62.1754 200.666 62.2014 200.798 62.3085C201.288 62.7094 201.74 63.1332 202.154 63.58C210.248 72.3284 218.347 81.0738 226.45 89.8161C227.152 90.5719 228.154 90.8733 229.457 90.7203C229.616 90.702 229.765 90.7356 229.903 90.8213C232.335 92.3543 231.7 96.7469 228.123 96.4807C225.177 96.2604 225.172 94.2913 225.6 91.8907C225.63 91.7225 225.587 91.574 225.471 91.4455ZM162.792 76.8128C162.792 76.3794 162.62 75.9638 162.313 75.6573C162.006 75.3509 161.59 75.1787 161.156 75.1787C160.722 75.1787 160.305 75.3509 159.998 75.6573C159.692 75.9638 159.519 76.3794 159.519 76.8128C159.519 77.2461 159.692 77.6618 159.998 77.9682C160.305 78.2746 160.722 78.4468 161.156 78.4468C161.59 78.4468 162.006 78.2746 162.313 77.9682C162.62 77.6618 162.792 77.2461 162.792 76.8128ZM229.889 93.5753C229.889 93.137 229.714 92.7167 229.404 92.4069C229.094 92.097 228.673 91.9229 228.234 91.9229C227.795 91.9229 227.374 92.097 227.064 92.4069C226.753 92.7167 226.579 93.137 226.579 93.5753C226.579 94.0135 226.753 94.4338 227.064 94.7437C227.374 95.0536 227.795 95.2276 228.234 95.2276C228.673 95.2276 229.094 95.0536 229.404 94.7437C229.714 94.4338 229.889 94.0135 229.889 93.5753Z" fill="#FBFBFB"/>
<path d="M47.0112 221.171C50.2752 210.036 53.2772 198.841 56.4171 187.669C63.1934 163.563 69.9391 139.447 76.6541 115.322C76.8932 114.456 77.0801 113.581 77.215 112.697C77.2395 112.544 77.1843 112.426 77.0495 112.344C72.8798 109.81 73.8038 103.71 78.6907 102.705C81.3801 102.149 82.7408 103.898 84.3453 105.486C84.4495 105.593 84.5353 105.638 84.6027 105.619L191.603 75.8121C191.739 75.7748 191.862 75.6997 191.956 75.5956C192.051 75.4915 192.113 75.3628 192.136 75.2246C193.175 68.9502 202.2 68.9548 202.351 75.7662C202.374 76.7531 201.896 77.8547 201.611 78.8599C201.565 79.019 201.599 79.1567 201.712 79.273L280.035 159.487C280.17 159.628 280.322 159.646 280.49 159.542C288.871 154.406 293.064 167.712 283.883 168.428C283.695 168.443 283.516 168.515 283.371 168.635C283.226 168.755 283.122 168.917 283.074 169.098C280.504 178.604 278.183 188.156 275.714 197.675C265.986 235.126 259.234 261.183 255.458 275.847C255.348 276.278 255.29 276.775 255.284 277.338C255.281 277.507 255.353 277.632 255.5 277.715C262.207 281.543 256.369 290.787 250.328 286.56C249.487 285.977 248.99 285.082 248.388 284.187C248.293 284.043 248.16 283.992 247.988 284.035C193.287 297.979 157.487 307.081 140.588 311.341C139.618 311.584 139.282 311.685 139.176 312.768C138.372 321.149 126.194 318.395 129.766 310.023C129.824 309.883 129.8 309.759 129.692 309.652L49.4294 230.888C49.3129 230.775 49.178 230.738 49.0248 230.778C46.9055 231.324 45.0436 231.834 43.1128 230.548C38.8925 227.739 41.2739 220.643 46.6756 221.387C46.8503 221.411 46.9622 221.339 47.0112 221.171ZM48.8869 222.062C50.951 223.943 51.8015 226.211 50.5373 228.667C50.4641 228.812 50.4388 228.977 50.4653 229.137C50.4917 229.297 50.5685 229.444 50.6844 229.557L130.69 308.174C130.79 308.272 130.917 308.337 131.056 308.36C131.194 308.383 131.336 308.363 131.462 308.302C134.244 306.971 136.28 308.068 138.45 309.904C138.582 310.017 138.73 310.052 138.896 310.01L247.887 282.273C248.062 282.227 248.169 282.116 248.209 281.942C248.641 280.074 249.992 277.857 252.08 277.623C253.027 277.513 253.298 277.182 253.546 276.246C262.874 240.72 271.903 205.12 281.221 169.594C281.341 169.141 281.381 168.679 281.341 168.208C281.329 168.055 281.269 167.922 281.162 167.808C279.189 165.734 278.357 164.251 279.249 161.649C279.301 161.493 279.271 161.357 279.157 161.24C253.909 135.27 228.629 109.323 203.308 83.4268C202.099 82.1922 200.793 80.3745 199.207 80.4342C196.278 80.5444 194.246 80.6958 192.578 77.7445C192.489 77.5946 192.359 77.5303 192.187 77.5517C191.844 77.5946 191.453 77.6772 191.015 77.7996C159.174 86.6612 127.334 95.5198 95.4935 104.375C93.5351 104.917 85.7888 106.67 84.6901 107.818C84.5797 107.931 84.5215 108.066 84.5154 108.222C84.3361 111.774 82.2397 112.018 79.4492 113.046C79.3021 113.101 79.1994 113.202 79.1412 113.349C78.7979 114.23 78.5773 114.848 78.4792 115.203C68.6994 150.316 58.8904 185.422 49.0524 220.519C48.9543 220.871 48.8578 221.255 48.7628 221.671C48.729 221.824 48.7704 221.955 48.8869 222.062Z" fill="#FBFBFB"/>
<path d="M161.156 78.4468C162.06 78.4468 162.792 77.7152 162.792 76.8127C162.792 75.9103 162.06 75.1787 161.156 75.1787C160.252 75.1787 159.519 75.9103 159.519 76.8127C159.519 77.7152 160.252 78.4468 161.156 78.4468Z" fill="#FBFBFB"/>
<path d="M108.173 92.4737C108.128 92.4123 108.065 92.3656 107.993 92.3394C107.921 92.3133 107.843 92.3089 107.768 92.3268L72.1811 100.717C72.0303 100.753 71.8925 100.83 71.7829 100.938C71.6734 101.047 71.5964 101.183 71.5605 101.332C71.3337 102.259 71.1161 103.266 70.9077 104.352C68.8021 115.289 66.6828 126.224 64.5497 137.157C64.516 137.322 64.5436 137.475 64.6324 137.616C65.6898 139.337 67.3632 141.476 65.3312 143.248C62.4672 145.735 58.2101 141.94 60.9363 138.846C61.5845 138.116 62.7568 137.928 62.9774 136.725C65.2669 124.284 67.59 111.862 69.9468 99.4596C69.9562 99.4104 69.9794 99.3652 70.0137 99.3293C70.048 99.2934 70.0919 99.2685 70.1399 99.2576L107.373 90.656C107.532 90.6193 107.661 90.5352 107.759 90.4036C108.458 89.4581 109.014 88.563 110.154 88.205C113.087 87.2778 115.464 90.7662 113.427 92.9786C111.942 94.585 109.442 94.1536 108.173 92.4737ZM112.779 91.0416C112.779 90.6021 112.604 90.1807 112.293 89.8699C111.982 89.5592 111.56 89.3846 111.12 89.3846C110.679 89.3846 110.257 89.5592 109.946 89.8699C109.635 90.1807 109.46 90.6021 109.46 91.0416C109.46 91.4811 109.635 91.9025 109.946 92.2133C110.257 92.524 110.679 92.6986 111.12 92.6986C111.56 92.6986 111.982 92.524 112.293 92.2133C112.604 91.9025 112.779 91.4811 112.779 91.0416ZM64.7979 140.898C64.7979 140.686 64.7562 140.477 64.6751 140.281C64.594 140.086 64.4752 139.908 64.3253 139.758C64.1755 139.609 63.9976 139.49 63.8018 139.409C63.6061 139.328 63.3962 139.287 63.1843 139.287C62.9724 139.287 62.7626 139.328 62.5668 139.409C62.371 139.49 62.1932 139.609 62.0433 139.758C61.8935 139.908 61.7746 140.086 61.6935 140.281C61.6124 140.477 61.5707 140.686 61.5707 140.898C61.5707 141.325 61.7407 141.735 62.0433 142.037C62.3459 142.339 62.7564 142.509 63.1843 142.509C63.6123 142.509 64.0227 142.339 64.3253 142.037C64.6279 141.735 64.7979 141.325 64.7979 140.898Z" fill="#FBFBFB"/>
<path d="M111.12 92.6986C112.036 92.6986 112.779 91.9567 112.779 91.0416C112.779 90.1265 112.036 89.3846 111.12 89.3846C110.203 89.3846 109.46 90.1265 109.46 91.0416C109.46 91.9567 110.203 92.6986 111.12 92.6986Z" fill="#FBFBFB"/>
<path d="M228.234 95.2276C229.148 95.2276 229.889 94.4878 229.889 93.5752C229.889 92.6626 229.148 91.9229 228.234 91.9229C227.32 91.9229 226.579 92.6626 226.579 93.5752C226.579 94.4878 227.32 95.2276 228.234 95.2276Z" fill="#FBFBFB"/>
<path d="M224.032 117.64C193.902 95.1726 154.871 91.7072 121.334 108.929C119.563 109.837 117.753 110.736 115.905 111.623C115.755 111.693 115.635 111.658 115.546 111.517L112.816 107.249C112.653 106.992 112.702 106.787 112.963 106.634C147.35 86.291 189.907 87.466 223.144 109.617C224.744 110.685 226.232 111.823 227.608 113.032C227.678 113.094 227.721 113.181 227.729 113.273C227.736 113.365 227.708 113.456 227.65 113.528L224.413 117.594C224.3 117.732 224.173 117.747 224.032 117.64Z" fill="#FBFBFB"/>
<path d="M104.766 110.452L112.535 109.746C112.624 109.737 112.713 109.752 112.794 109.789C112.875 109.826 112.944 109.883 112.996 109.954C113.048 110.026 113.081 110.11 113.09 110.199C113.1 110.287 113.086 110.376 113.05 110.457L109.952 117.604C109.916 117.686 109.859 117.758 109.786 117.812C109.714 117.865 109.628 117.899 109.539 117.909C109.449 117.918 109.358 117.904 109.276 117.868C109.193 117.831 109.122 117.773 109.069 117.7L104.398 111.26C104.345 111.187 104.312 111.102 104.303 111.012C104.294 110.922 104.309 110.831 104.346 110.749C104.383 110.667 104.442 110.596 104.516 110.544C104.59 110.492 104.676 110.46 104.766 110.452Z" fill="#FBFBFB"/>
<path d="M106.867 117.934C75.7621 142.366 62.2003 181.67 72.4567 220.134C72.4747 220.202 72.4789 220.273 72.4691 220.343C72.4594 220.412 72.4359 220.48 72.3999 220.54C72.364 220.601 72.3164 220.654 72.2599 220.696C72.2033 220.738 72.139 220.769 72.0706 220.786L67.2159 221.988C67.0535 222.028 66.9508 221.967 66.9079 221.805C55.6585 181.087 70.273 138.745 103.621 113.018C103.661 112.987 103.712 112.973 103.764 112.98C103.816 112.987 103.864 113.014 103.897 113.055L106.977 117.025C107.082 117.161 107.129 117.332 107.109 117.502C107.088 117.672 107.001 117.828 106.867 117.934Z" fill="#FBFBFB"/>
<path d="M230.321 113.918L233.153 121.34C233.184 121.425 233.193 121.516 233.177 121.605C233.161 121.694 233.121 121.778 233.062 121.846C233.002 121.914 232.926 121.966 232.84 121.995C232.754 122.024 232.662 122.029 232.573 122.01L224.8 120.33C224.714 120.311 224.635 120.271 224.57 120.213C224.505 120.154 224.456 120.08 224.428 119.997C224.401 119.915 224.395 119.826 224.411 119.74C224.428 119.655 224.467 119.575 224.524 119.508L229.466 113.766C229.523 113.7 229.596 113.65 229.679 113.621C229.761 113.592 229.85 113.585 229.936 113.6C230.022 113.615 230.103 113.652 230.171 113.708C230.238 113.764 230.29 113.836 230.321 113.918Z" fill="#FBFBFB"/>
<path d="M257.987 222.833C267.039 193.641 261.591 162.222 243.635 137.625C240.306 133.067 236.256 128.624 232.197 124.484C232.139 124.425 232.106 124.347 232.105 124.265C232.104 124.182 232.135 124.103 232.192 124.043L235.718 120.422C235.806 120.331 235.926 120.279 236.052 120.277C236.178 120.274 236.299 120.321 236.389 120.408C252.427 135.778 262.475 154.349 266.533 176.121C268.331 185.774 268.418 196.018 267.568 205.772C266.795 214.681 264.34 223.397 261.269 231.902C261.098 232.377 260.778 232.524 260.309 232.343L255.785 230.608C255.616 230.547 255.56 230.431 255.615 230.259C256.43 227.775 257.221 225.299 257.987 222.833Z" fill="#FBFBFB"/>
<path d="M268.896 133.205L296.286 160.038C296.408 160.156 296.494 160.306 296.535 160.471C296.575 160.635 296.569 160.808 296.516 160.969C296.323 161.551 296.107 162.155 295.868 162.782C289.319 179.903 285.17 190.98 283.423 196.014C283.138 196.835 283.902 198.368 283.925 199.227C284.081 205.001 274.335 201.719 278.863 197.056C279.28 196.627 280.097 196.303 281.313 196.083C281.473 196.052 281.581 195.962 281.64 195.812C285.835 184.508 290.019 173.203 294.19 161.897C294.414 161.288 294.323 160.781 293.919 160.377C283.079 149.643 274.644 141.349 268.616 135.495C268.389 135.275 268.046 135.032 267.586 134.765C267.448 134.686 267.301 134.655 267.145 134.674C260.911 135.39 261.821 127.913 266.565 128.918C268.501 129.331 269.259 130.91 268.777 132.769C268.731 132.937 268.771 133.082 268.896 133.205ZM267.48 131.754C267.48 131.311 267.304 130.886 266.99 130.573C266.676 130.26 266.251 130.084 265.807 130.084C265.363 130.084 264.937 130.26 264.624 130.573C264.31 130.886 264.133 131.311 264.133 131.754C264.133 132.198 264.31 132.623 264.624 132.936C264.937 133.249 265.363 133.425 265.807 133.425C266.251 133.425 266.676 133.249 266.99 132.936C267.304 132.623 267.48 132.198 267.48 131.754ZM282.453 199.323C282.453 198.903 282.286 198.5 281.989 198.203C281.691 197.906 281.288 197.74 280.867 197.74C280.659 197.74 280.453 197.78 280.26 197.86C280.068 197.94 279.893 198.056 279.746 198.203C279.599 198.35 279.482 198.525 279.402 198.717C279.322 198.909 279.281 199.115 279.281 199.323C279.281 199.531 279.322 199.737 279.402 199.929C279.482 200.121 279.599 200.296 279.746 200.443C279.893 200.59 280.068 200.706 280.26 200.786C280.453 200.866 280.659 200.907 280.867 200.907C281.288 200.907 281.691 200.74 281.989 200.443C282.286 200.146 282.453 199.743 282.453 199.323Z" fill="#FBFBFB"/>
<path d="M265.807 133.425C266.731 133.425 267.48 132.677 267.48 131.754C267.48 130.832 266.731 130.084 265.807 130.084C264.883 130.084 264.133 130.832 264.133 131.754C264.133 132.677 264.883 133.425 265.807 133.425Z" fill="#FBFBFB"/>
<path d="M63.1842 142.509C64.0754 142.509 64.7978 141.787 64.7978 140.898C64.7978 140.008 64.0754 139.286 63.1842 139.286C62.293 139.286 61.5706 140.008 61.5706 140.898C61.5706 141.787 62.293 142.509 63.1842 142.509Z" fill="#FBFBFB"/>
<path d="M35.4307 229.892L62.9083 254.48C63.0339 254.591 63.1795 254.638 63.345 254.623C64.407 254.517 65.708 254.136 66.7929 254.962C70.0018 257.404 67.4457 261.177 63.9519 260.25C62.3658 259.828 61.8417 258.152 62.1038 256.716C62.1262 256.598 62.1176 256.477 62.0789 256.363C62.0403 256.25 61.9728 256.148 61.8831 256.069L33.2608 230.498C33.1045 230.36 33.0585 230.194 33.1229 229.998L44.7309 193.838C44.7891 193.661 44.7738 193.489 44.6849 193.324C41.6783 187.61 49.0247 186.104 49.8614 189.826C50.2904 191.733 49.6223 193.016 47.857 193.677C46.3491 194.242 46.2755 194.554 45.825 195.982C42.3464 207.068 38.8234 218.156 35.256 229.245C35.2203 229.359 35.2178 229.48 35.2487 229.595C35.2797 229.709 35.3428 229.813 35.4307 229.892ZM48.6155 190.868C48.6155 190.439 48.4445 190.027 48.1402 189.723C47.8359 189.419 47.4231 189.248 46.9927 189.248C46.5623 189.248 46.1495 189.419 45.8452 189.723C45.5409 190.027 45.3699 190.439 45.3699 190.868C45.3699 191.298 45.5409 191.71 45.8452 192.014C46.1495 192.318 46.5623 192.489 46.9927 192.489C47.4231 192.489 47.8359 192.318 48.1402 192.014C48.4445 191.71 48.6155 191.298 48.6155 190.868ZM66.7837 257.537C66.7837 257.117 66.6166 256.715 66.3192 256.418C66.0218 256.121 65.6184 255.954 65.1977 255.954C64.7771 255.954 64.3736 256.121 64.0762 256.418C63.7788 256.715 63.6117 257.117 63.6117 257.537C63.6117 257.957 63.7788 258.36 64.0762 258.657C64.3736 258.954 64.7771 259.121 65.1977 259.121C65.6184 259.121 66.0218 258.954 66.3192 258.657C66.6166 258.36 66.7837 257.957 66.7837 257.537Z" fill="#FBFBFB"/>
<path d="M46.9927 192.489C47.889 192.489 48.6155 191.763 48.6155 190.868C48.6155 189.974 47.889 189.248 46.9927 189.248C46.0964 189.248 45.3699 189.974 45.3699 190.868C45.3699 191.763 46.0964 192.489 46.9927 192.489Z" fill="#FBFBFB"/>
<path d="M280.867 200.907C281.743 200.907 282.453 200.198 282.453 199.323C282.453 198.448 281.743 197.74 280.867 197.74C279.991 197.74 279.281 198.448 279.281 199.323C279.281 200.198 279.991 200.907 280.867 200.907Z" fill="#FBFBFB"/>
<path d="M68.6549 231.04L69.9329 223.053C69.9439 222.981 69.9736 222.913 70.0191 222.856C70.0645 222.799 70.1242 222.755 70.192 222.728C70.2599 222.701 70.3337 222.692 70.406 222.702C70.4782 222.713 70.5466 222.742 70.6041 222.787L76.9942 227.758C77.053 227.803 77.0987 227.863 77.1265 227.932C77.1543 228.001 77.1633 228.076 77.1526 228.149C77.1418 228.222 77.1117 228.292 77.0653 228.349C77.0189 228.407 76.9579 228.452 76.8885 228.478L69.2249 231.494C69.1561 231.522 69.0811 231.531 69.0076 231.52C68.9341 231.51 68.8648 231.48 68.8067 231.433C68.7487 231.387 68.704 231.326 68.6774 231.257C68.6507 231.188 68.6429 231.113 68.6549 231.04Z" fill="#FBFBFB"/>
<path d="M157.583 290.796C192.32 293.968 226.363 277.136 245.611 248.582C247.471 245.822 249.215 243.048 250.843 240.261C250.935 240.102 251.084 239.984 251.26 239.932C251.437 239.88 251.626 239.897 251.79 239.981L255.867 242.046C255.955 242.091 256.023 242.166 256.059 242.257C256.094 242.349 256.095 242.45 256.061 242.542C255.656 243.611 255.192 244.754 254.599 245.75C240.55 269.347 218.304 286.927 191.548 293.752C141.052 306.636 90.1514 280.528 70.4799 232.747C70.45 232.672 70.4501 232.588 70.4801 232.514C70.5101 232.439 70.5677 232.38 70.6408 232.348L75.2886 230.31C75.3614 230.278 75.44 230.26 75.5197 230.259C75.5994 230.258 75.6786 230.273 75.7527 230.303C75.8268 230.333 75.8943 230.377 75.9511 230.434C76.008 230.49 76.0532 230.557 76.0839 230.631C89.8618 264.56 121.095 287.468 157.583 290.796Z" fill="#FBFBFB"/>
<path d="M261.522 235.662L255.362 240.587C255.288 240.645 255.2 240.683 255.106 240.696C255.013 240.709 254.918 240.698 254.83 240.662C254.743 240.627 254.667 240.569 254.609 240.494C254.551 240.42 254.514 240.331 254.502 240.238L253.5 232.426C253.489 232.334 253.502 232.241 253.537 232.156C253.573 232.07 253.63 231.996 253.703 231.939C253.777 231.883 253.864 231.846 253.955 231.833C254.047 231.82 254.14 231.832 254.226 231.866L261.389 234.753C261.475 234.788 261.551 234.844 261.608 234.918C261.666 234.991 261.703 235.077 261.716 235.169C261.73 235.261 261.719 235.355 261.685 235.441C261.651 235.528 261.595 235.604 261.522 235.662Z" fill="#FBFBFB"/>
<path d="M223.981 297.525C235.686 295.27 247.377 292.94 259.054 290.534C260.042 290.333 260.534 290.424 260.805 289.263C263.577 277.398 266.147 265.487 268.997 253.645C269.034 253.492 268.996 253.362 268.882 253.255C268.289 252.686 267.733 252.195 267.499 251.391C265.89 246.017 275.089 245.902 273.002 251.598C272.523 252.906 271.121 253.039 270.639 254.32C270.482 254.733 270.355 255.154 270.257 255.582C267.633 267.149 265.057 278.728 262.529 290.319C262.331 291.241 261.991 291.847 260.971 292.04C245.162 295.069 233.144 297.433 224.915 299.131C223.485 299.425 223.145 301.243 221.793 301.661C220.487 302.061 219.427 301.836 218.612 300.986C215.407 297.653 220.731 293.339 223.595 297.369C223.69 297.504 223.819 297.556 223.981 297.525ZM272.04 250.206C272.019 249.999 271.953 249.799 271.846 249.617C271.74 249.435 271.596 249.275 271.421 249.145C271.246 249.016 271.045 248.92 270.829 248.862C270.613 248.805 270.385 248.788 270.16 248.811C269.935 248.835 269.716 248.899 269.517 249C269.317 249.101 269.14 249.237 268.996 249.4C268.853 249.563 268.745 249.75 268.678 249.95C268.612 250.15 268.59 250.359 268.611 250.566C268.633 250.773 268.699 250.973 268.805 251.155C268.912 251.337 269.056 251.497 269.231 251.627C269.405 251.757 269.607 251.853 269.823 251.91C270.039 251.967 270.267 251.985 270.492 251.961C270.717 251.937 270.936 251.873 271.135 251.772C271.335 251.671 271.512 251.536 271.656 251.373C271.799 251.21 271.907 251.023 271.973 250.823C272.039 250.623 272.062 250.413 272.04 250.206ZM222.363 298.773C222.363 298.347 222.194 297.939 221.892 297.637C221.59 297.336 221.181 297.167 220.754 297.167C220.327 297.167 219.918 297.336 219.616 297.637C219.315 297.939 219.145 298.347 219.145 298.773C219.145 299.2 219.315 299.608 219.616 299.909C219.918 300.211 220.327 300.38 220.754 300.38C221.181 300.38 221.59 300.211 221.892 299.909C222.194 299.608 222.363 299.2 222.363 298.773Z" fill="#FBFBFB"/>
<path d="M270.492 251.961C271.439 251.862 272.132 251.076 272.04 250.206C271.949 249.337 271.107 248.712 270.16 248.811C269.213 248.911 268.52 249.696 268.611 250.566C268.703 251.436 269.545 252.06 270.492 251.961Z" fill="#FBFBFB"/>
<path d="M65.1979 259.121C66.0738 259.121 66.7839 258.412 66.7839 257.537C66.7839 256.663 66.0738 255.954 65.1979 255.954C64.3219 255.954 63.6118 256.663 63.6118 257.537C63.6118 258.412 64.3219 259.121 65.1979 259.121Z" fill="#FBFBFB"/>
<path d="M132.069 322.687L166.944 310.478C167.078 310.431 167.195 310.345 167.281 310.231C167.366 310.117 167.415 309.981 167.422 309.84C167.546 306.696 172.083 305.571 173.237 308.757C174.557 312.378 170.654 313.874 168.001 312.093C167.878 312.011 167.748 311.994 167.61 312.043L131.476 324.808C131.359 324.849 131.231 324.855 131.11 324.826C130.988 324.796 130.878 324.733 130.791 324.642L104.923 297.291C104.806 297.168 104.665 297.094 104.5 297.066C102.389 296.731 100.174 296.231 100.298 293.637C100.399 291.575 101.6 290.577 103.902 290.645C106.269 290.713 106.159 293.922 106.035 295.455C106.023 295.614 106.069 295.753 106.173 295.873C114.765 305.7 122.617 313.149 126.902 317.835C128.603 319.693 130.183 321.283 131.642 322.604C131.767 322.718 131.91 322.745 132.069 322.687ZM104.826 293.72C104.826 293.3 104.659 292.897 104.361 292.6C104.064 292.303 103.661 292.136 103.24 292.136C102.819 292.136 102.416 292.303 102.118 292.6C101.821 292.897 101.654 293.3 101.654 293.72C101.654 294.14 101.821 294.543 102.118 294.84C102.416 295.137 102.819 295.303 103.24 295.303C103.661 295.303 104.064 295.137 104.361 294.84C104.659 294.543 104.826 294.14 104.826 293.72ZM172.152 309.932C172.152 309.486 171.975 309.059 171.659 308.744C171.344 308.429 170.916 308.252 170.47 308.252C170.249 308.252 170.03 308.295 169.826 308.38C169.622 308.464 169.436 308.588 169.28 308.744C169.124 308.9 169 309.085 168.915 309.289C168.831 309.493 168.787 309.711 168.787 309.932C168.787 310.152 168.831 310.371 168.915 310.574C169 310.778 169.124 310.963 169.28 311.119C169.436 311.275 169.622 311.399 169.826 311.484C170.03 311.568 170.249 311.612 170.47 311.612C170.916 311.612 171.344 311.435 171.659 311.119C171.975 310.804 172.152 310.377 172.152 309.932Z" fill="#FBFBFB"/>
<path d="M103.24 295.303C104.116 295.303 104.826 294.594 104.826 293.72C104.826 292.845 104.116 292.136 103.24 292.136C102.364 292.136 101.654 292.845 101.654 293.72C101.654 294.594 102.364 295.303 103.24 295.303Z" fill="#FBFBFB"/>
<path d="M220.754 300.38C221.643 300.38 222.363 299.661 222.363 298.773C222.363 297.886 221.643 297.167 220.754 297.167C219.865 297.167 219.145 297.886 219.145 298.773C219.145 299.661 219.865 300.38 220.754 300.38Z" fill="#FBFBFB"/>
<path d="M170.47 311.612C171.399 311.612 172.152 310.859 172.152 309.932C172.152 309.004 171.399 308.252 170.47 308.252C169.54 308.252 168.787 309.004 168.787 309.932C168.787 310.859 169.54 311.612 170.47 311.612Z" fill="#FBFBFB"/>
</svg>
