<svg width="127" height="153" viewBox="0 0 127 153" fill="none" xmlns="http://www.w3.org/2000/svg">
<path d="M26.4204 41.5388C41.5813 29.8097 60.9459 24.5172 79.8419 23.3181C88.9247 22.7392 79.0563 36.8389 77.7745 40.3397" stroke="#B9C5E0" stroke-width="2"/>
<path d="M77.7745 40.3389L70.8694 60.8337" stroke="#809FBD" stroke-width="2"/>
<path d="M70.8694 60.834C64.7499 78.8479 57.3624 92.4652 37.791 96.7791" stroke="#81BCE5" stroke-width="2"/>
<path d="M37.7912 96.7792L33.3394 97.1513C32.7972 97.1881 32.7559 97.3581 33.2153 97.6613C46.1802 106.06 59.8342 108.779 74.1773 105.821C114.051 97.5786 129.887 48.7743 102.804 18.7143C79.5801 -7.07301 38.7146 -3.97192 19.3775 24.6546C11.7328 35.984 9.0176 49.105 11.232 64.0179C11.3515 64.8081 11.526 64.8219 11.7557 64.0592C14.4939 55.1005 19.3821 47.5936 26.4205 41.5384" stroke="#8295AD" stroke-width="2"/>
<path d="M37.791 96.7793L38.1356 97.62C38.3102 98.0427 38.5996 98.3597 39.0039 98.571C49.1617 104.001 58.2169 106.276 69.1465 103.671" stroke="#045293" stroke-width="2"/>
<path d="M69.1466 103.67C83.0395 101.768 94.3321 95.3035 103.024 84.2773" stroke="#3C5B8E" stroke-width="2"/>
<path d="M103.024 84.2779C106.755 80.8506 109.378 76.6148 110.894 71.5703" stroke="#045293" stroke-width="2"/>
<path d="M110.894 71.5703C115.534 58.8443 115.429 46.1827 110.577 33.5853C109.86 31.7017 107.439 28.9727 103.314 25.3984" stroke="#03346B" stroke-width="2"/>
<path d="M103.314 25.3989C91.2127 8.95166 74.7975 2.20276 54.0684 5.15224C52.6075 5.36358 50.609 6.02514 48.073 7.13694" stroke="#3C5B8E" stroke-width="2"/>
<path d="M48.0729 7.13672C37.203 10.5364 28.8691 17.1108 23.0712 26.8597" stroke="#8295AD" stroke-width="2"/>
<path d="M23.0712 26.8594C20.6455 30.1534 16.9655 40.0356 22.9748 42.0616C23.3974 42.2086 23.7879 42.1443 24.1463 41.8687C24.8538 41.3449 25.6118 41.2347 26.4204 41.5379" stroke="#3C5B8E" stroke-width="2"/>
<path d="M110.894 71.5707C103.713 61.1234 82.1712 61.3853 70.8694 60.834" stroke="#025CA3" stroke-width="2"/>
<path d="M103.314 25.3984C106.318 33.7507 100.695 35.9559 93.6797 37.3066C88.4147 38.3174 83.113 39.3281 77.7745 40.3388" stroke="#3A659E" stroke-width="2"/>
<path d="M23.0712 26.8597C30.1187 19.0495 38.3331 12.8703 47.7145 8.32203C47.9994 8.1842 48.1372 7.95449 48.128 7.63289C48.1188 7.41237 48.1004 7.24698 48.0729 7.13672" stroke="#B9C5E0" stroke-width="2"/>
<path d="M103.024 84.2773C93.3029 93.0431 81.7898 99.1167 68.485 102.498C68.354 102.533 68.2395 102.613 68.1614 102.724C68.0834 102.835 68.0467 102.969 68.0577 103.104C68.1037 103.601 68.4666 103.789 69.1465 103.67" stroke="#3B82C6" stroke-width="2"/>
<path d="M27.8538 45.0391C18.1094 52.716 12.1416 66.9948 17.0482 79.8127C17.0947 79.9409 17.1778 80.0521 17.2874 80.1329C17.3969 80.2137 17.5282 80.2606 17.6654 80.2679C17.8025 80.2752 17.9396 80.2426 18.06 80.174C18.1804 80.1054 18.279 80.0039 18.3438 79.8816C25.281 66.7605 34.8645 55.6241 47.0943 46.4725" stroke="#BDD68D" stroke-width="2"/>
<path d="M47.0944 46.473C49.8876 44.5526 52.7866 42.8068 55.7912 41.2356C58.2996 39.9216 58.4834 40.1192 56.3425 41.8282C56.1955 41.9477 56.099 42.0809 56.0531 42.2279" stroke="#E0EEB1" stroke-width="2"/>
<path d="M56.053 42.2277C43.3868 52.8955 29.9625 68.3183 23.2917 84.2372C21.7894 87.8207 23.3468 89.6538 26.9165 90.1086C58.6993 94.1745 64.7637 62.8052 73.6811 41.1113" stroke="#BDD68D" stroke-width="2"/>
<path d="M73.6812 41.1114L81.1238 27.2047C81.4178 26.6534 81.2616 26.3181 80.6552 26.1986C79.3872 25.9597 77.8849 25.9781 76.1483 26.2537C57.459 29.2308 41.733 32.9521 27.8539 45.0395" stroke="#E0EEB1" stroke-width="2"/>
<path d="M73.6811 41.1113C70.2722 39.5493 66.9276 39.4804 63.6473 40.9046C60.9368 42.0899 58.4053 42.5309 56.0531 42.2277" stroke="#9DC53E" stroke-width="2"/>
<path d="M47.0943 46.472C43.6211 44.3219 32.2229 44.9145 27.8538 45.0386" stroke="#9DC53E" stroke-width="2"/>
<path d="M18.0268 145.997C18.226 145.997 18.4195 146.063 18.5768 146.186C18.734 146.308 18.846 146.479 18.8951 146.672L19.7496 150.146C19.7986 150.339 19.9106 150.51 20.0679 150.632C20.2251 150.755 20.4187 150.821 20.6179 150.821H24.4081C24.5533 150.821 24.6965 150.787 24.8252 150.719C24.954 150.652 25.0645 150.555 25.1472 150.435C25.23 150.316 25.2824 150.178 25.3001 150.034C25.3178 149.89 25.3003 149.744 25.2489 149.608L15.8629 125.116C15.7992 124.948 15.6862 124.803 15.5387 124.699C15.3912 124.596 15.216 124.54 15.0359 124.537L11.3973 124.496C11.2165 124.494 11.0394 124.548 10.8894 124.648C10.7393 124.749 10.6233 124.893 10.5566 125.061L1.06032 149.498C1.01103 149.625 0.991545 149.762 1.00335 149.898C1.01516 150.035 1.05795 150.166 1.12844 150.283C1.19894 150.4 1.29527 150.5 1.41007 150.574C1.52488 150.648 1.65511 150.695 1.7908 150.711L5.34673 151.11C5.54343 151.133 5.74209 151.09 5.91165 150.988C6.08122 150.885 6.21213 150.73 6.28395 150.545L7.78626 146.576C7.8508 146.405 7.96588 146.258 8.11611 146.155C8.26635 146.052 8.44459 145.996 8.62699 145.997H18.0268Z" stroke="#BDD68D" stroke-width="2"/>
<path d="M43.6488 133.206C41.4987 126.99 50.7882 128.796 54.5233 129.485C55.1848 129.604 55.5478 129.329 55.6121 128.658L55.9153 125.529C55.9613 125.061 55.7499 124.804 55.2813 124.758C48.39 124.082 37.6395 122.042 38.0668 132.917C38.3425 139.533 47.1358 139.643 51.4084 141.062C51.9597 141.246 52.194 141.628 52.1113 142.206L51.6841 145.432C51.5738 146.222 51.1236 146.589 50.3334 146.534L39.5691 145.79C38.9811 145.744 38.6686 146.015 38.6319 146.603L38.4252 149.621C38.3884 150.136 38.6273 150.425 39.1419 150.49C45.3303 151.248 56.7974 153.315 57.4728 143.626C57.6198 141.467 57.1374 139.574 56.0256 137.948C55.7499 137.543 55.3732 137.272 54.8954 137.134L44.5722 134.088C44.1128 133.951 43.805 133.657 43.6488 133.206Z" stroke="#83B1DD" stroke-width="2"/>
<path d="M66.39 140.043C66.39 139.955 66.4076 139.868 66.4417 139.786C66.4758 139.705 66.5258 139.632 66.5887 139.57C66.6516 139.508 66.7261 139.46 66.808 139.428C66.8899 139.395 66.9774 139.379 67.0654 139.381L75.3626 139.602C75.4506 139.604 75.5381 139.588 75.62 139.555C75.7018 139.523 75.7764 139.475 75.8393 139.413C75.9022 139.351 75.9522 139.278 75.9863 139.197C76.0204 139.115 76.0379 139.028 76.0379 138.94V135.632C76.0379 135.457 75.9682 135.289 75.8441 135.165C75.7201 135.04 75.5518 134.971 75.3763 134.971H67.0516C66.8762 134.971 66.7079 134.901 66.5838 134.777C66.4597 134.653 66.39 134.485 66.39 134.309V129.788C66.39 129.613 66.4597 129.445 66.5838 129.321C66.7079 129.197 66.8762 129.127 67.0516 129.127L77.7883 129.113C77.9637 129.113 78.132 129.043 78.2561 128.919C78.3802 128.795 78.4499 128.627 78.4499 128.452V125.295C78.4499 125.12 78.3802 124.952 78.2561 124.828C78.132 124.703 77.9637 124.634 77.7883 124.634H61.8831C61.7077 124.634 61.5394 124.703 61.4153 124.828C61.2913 124.952 61.2216 125.12 61.2216 125.295V150.159C61.2216 150.335 61.2913 150.503 61.4153 150.627C61.5394 150.751 61.7077 150.821 61.8831 150.821H78.1191C78.2945 150.821 78.4628 150.751 78.5869 150.627C78.7109 150.503 78.7806 150.335 78.7806 150.159V146.796C78.7807 146.708 78.7631 146.621 78.729 146.54C78.6949 146.459 78.6449 146.385 78.582 146.324C78.5191 146.262 78.4446 146.213 78.3627 146.181C78.2808 146.149 78.1933 146.133 78.1053 146.135L67.0654 146.438C66.9774 146.44 66.8899 146.424 66.808 146.392C66.7261 146.359 66.6516 146.311 66.5887 146.249C66.5258 146.187 66.4758 146.114 66.4417 146.033C66.4076 145.952 66.39 145.864 66.39 145.776V140.043Z" stroke="#83B1DD" stroke-width="2"/>
<path d="M88.9798 142.882C98.2693 143.02 105.092 142.303 103.438 130.974C102.239 122.773 91.2401 124.386 83.7699 124.772C83.2094 124.799 82.9292 125.093 82.9292 125.654V150.132C82.9292 150.591 83.1589 150.821 83.6183 150.821H87.2018C87.3532 150.821 87.503 150.791 87.6422 150.731C87.7813 150.672 87.907 150.584 88.0114 150.475C88.1158 150.365 88.1968 150.236 88.2496 150.094C88.3023 149.952 88.3257 149.801 88.3182 149.649L88.0426 143.861C88.0058 143.199 88.3182 142.873 88.9798 142.882Z" stroke="#83B1DD" stroke-width="2"/>
<path d="M105.602 125.254C102.955 129.94 110.343 129.154 112.273 129.113C112.925 129.104 113.251 129.426 113.251 130.078V149.966C113.251 150.536 113.541 150.821 114.119 150.821H117.551C118.13 150.821 118.42 150.531 118.42 149.952V130.202C118.419 129.938 118.521 129.685 118.704 129.495C118.886 129.305 119.135 129.193 119.398 129.182L125.077 128.948C125.692 128.929 126 128.608 126 127.983V125.502C126 124.923 125.711 124.634 125.132 124.634H106.663C106.185 124.634 105.831 124.841 105.602 125.254Z" stroke="#83B1DD" stroke-width="2"/>
<path d="M35.517 147.031C35.517 145.945 35.0857 144.904 34.318 144.136C33.5504 143.369 32.5092 142.938 31.4235 142.938C30.3379 142.938 29.2967 143.369 28.529 144.136C27.7613 144.904 27.3301 145.945 27.3301 147.031C27.3301 148.117 27.7613 149.158 28.529 149.925C29.2967 150.693 30.3379 151.124 31.4235 151.124C32.5092 151.124 33.5504 150.693 34.318 149.925C35.0857 149.158 35.517 148.117 35.517 147.031Z" stroke="#BDD68D" stroke-width="2"/>
<path d="M9.6194 140.884C9.59237 140.954 9.58272 141.029 9.59129 141.102C9.59985 141.176 9.62638 141.247 9.66853 141.308C9.71069 141.369 9.76719 141.419 9.83311 141.453C9.89903 141.488 9.97236 141.505 10.0467 141.505L16.0559 141.587C16.1285 141.587 16.2 141.57 16.2645 141.536C16.3289 141.502 16.3843 141.454 16.4262 141.395C16.468 141.335 16.495 141.267 16.5049 141.195C16.5148 141.123 16.5074 141.049 16.4832 140.981L13.5888 132.794C13.5558 132.71 13.4987 132.638 13.4247 132.587C13.3507 132.536 13.2631 132.507 13.173 132.506C13.083 132.504 12.9945 132.53 12.9189 132.579C12.8432 132.627 12.7838 132.698 12.7481 132.78L9.6194 140.884Z" stroke="#BDD68D" stroke-width="2"/>
<path d="M97.8619 131.397C97.8607 131.061 97.7933 130.728 97.6633 130.417C97.5334 130.106 97.3436 129.825 97.1047 129.587C96.8658 129.35 96.5826 129.162 96.2711 129.034C95.9596 128.907 95.626 128.842 95.2894 128.843L90.5207 128.859C89.8408 128.862 89.1897 129.134 88.7106 129.617C88.2316 130.099 87.9637 130.752 87.9661 131.432L87.9814 135.815C87.9826 136.151 88.05 136.485 88.1799 136.795C88.3099 137.106 88.4997 137.388 88.7386 137.625C88.9775 137.862 89.2607 138.05 89.5722 138.178C89.8837 138.305 90.2173 138.371 90.5539 138.369L95.3226 138.353C96.0025 138.35 96.6535 138.078 97.1326 137.596C97.6117 137.113 97.8795 136.46 97.8772 135.78L97.8619 131.397Z" stroke="#83B1DD" stroke-width="2"/>
<path d="M33.3806 146.81C33.3806 146.375 33.1729 145.958 32.8033 145.65C32.4337 145.343 31.9324 145.17 31.4096 145.17C31.1508 145.17 30.8945 145.212 30.6554 145.295C30.4163 145.377 30.199 145.498 30.016 145.65C29.833 145.803 29.6878 145.983 29.5887 146.182C29.4897 146.381 29.4387 146.595 29.4387 146.81C29.4387 147.025 29.4897 147.239 29.5887 147.438C29.6878 147.637 29.833 147.818 30.016 147.97C30.199 148.122 30.4163 148.243 30.6554 148.325C30.8945 148.408 31.1508 148.45 31.4096 148.45C31.9324 148.45 32.4337 148.277 32.8033 147.97C33.1729 147.662 33.3806 147.245 33.3806 146.81Z" stroke="#BDD68D" stroke-width="2"/>
<path d="M37.7542 96.6475L38.0989 97.4883C38.2735 97.911 38.5631 98.228 38.9676 98.4393C49.1297 103.87 58.1888 106.144 69.1231 103.539C83.022 101.637 94.3194 95.1726 103.015 84.1457C106.748 80.7182 109.372 76.482 110.889 71.4372C115.531 58.7103 115.425 46.0477 110.572 33.4495C109.855 31.5657 107.432 28.8365 103.305 25.262C91.1986 8.8135 74.7764 2.06412 54.0385 5.01382C52.5769 5.22517 50.5775 5.88678 48.0404 6.99866C37.1659 10.3986 28.8284 16.9734 23.028 26.7231C20.6012 30.0173 16.9197 39.9002 22.9315 41.9264C23.3543 42.0734 23.745 42.0091 24.1035 41.7334C24.8113 41.2097 25.5697 41.0994 26.3786 41.4026C19.3373 47.4582 14.4469 54.9657 11.7076 63.9251C11.4778 64.6878 11.3031 64.674 11.1836 63.8837C8.96826 48.9698 11.6846 35.8478 19.3327 24.5177C38.678 -4.11096 79.5611 -7.21227 102.795 18.5769C129.889 48.639 114.046 97.4469 74.156 105.69C59.8067 108.648 46.1468 105.928 33.1764 97.5296C32.7168 97.2264 32.7581 97.0564 33.3005 97.0196L37.7542 96.6475Z" fill="#052A5B"/>
<path d="M103.31 25.4832C106.311 33.8726 100.694 36.0877 93.6869 37.4444C88.4281 38.4596 83.1325 39.4748 77.8002 40.49C79.0805 36.9737 88.9374 22.8113 79.8652 23.3928C60.9911 24.5972 41.649 29.9133 26.5057 41.6944C25.698 41.3899 24.9409 41.5006 24.2342 42.0267C23.8762 42.3036 23.4862 42.3682 23.064 42.2205C17.0617 40.1855 20.7374 30.2594 23.1604 26.9507C30.1997 19.1058 38.4046 12.8991 47.7751 8.33055C48.0596 8.19211 48.1973 7.96138 48.1881 7.63835C48.179 7.41685 48.1606 7.25072 48.1331 7.13997C50.6661 6.02323 52.6623 5.35872 54.1216 5.14645C74.8266 2.18384 91.2227 8.96276 103.31 25.4832Z" fill="#738BC1"/>
<path d="M48.2078 7.24609C48.2357 7.35668 48.2543 7.52256 48.2636 7.74373C48.2729 8.06627 48.1335 8.29666 47.8455 8.43489C38.3607 12.9966 30.0557 19.194 22.9304 27.0271C28.7923 17.2495 37.2181 10.6558 48.2078 7.24609Z" fill="white"/>
<path d="M103.23 25.293C107.351 28.866 109.769 31.594 110.485 33.477C115.331 46.0699 115.437 58.7272 110.802 71.4487C103.629 61.0051 82.1107 61.2669 70.8214 60.7158L77.7189 40.2281C83.0515 39.2178 88.3473 38.2074 93.6065 37.197C100.614 35.8468 106.231 33.6423 103.23 25.293Z" fill="#013E7B"/>
<path d="M73.6417 41.0909C70.2309 39.5263 66.8845 39.4572 63.6024 40.8838C60.8903 42.0711 58.3575 42.5129 56.0039 42.2092C56.0499 42.0619 56.1464 41.9285 56.2935 41.8088C58.4356 40.0969 58.2517 39.899 55.7419 41.2152C52.7356 42.7891 49.8351 44.5378 47.0403 46.4614C43.5651 44.3077 32.1606 44.9014 27.7891 45.0256C41.6759 32.9179 57.4105 29.1903 76.1101 26.2082C77.8477 25.9321 79.3508 25.9137 80.6196 26.153C81.2263 26.2726 81.3826 26.6086 81.0884 27.1608L73.6417 41.0909Z" fill="#C0DD62"/>
<path d="M73.5977 41.0958C64.6707 62.8263 58.5998 94.2486 26.7826 90.1758C23.2091 89.7202 21.65 87.884 23.1539 84.2945C29.8319 68.3487 43.2707 52.8999 55.9506 42.2141C58.3054 42.5178 60.8396 42.076 63.5531 40.8887C66.8369 39.4621 70.1851 39.5312 73.5977 41.0958Z" fill="#7AAC1A"/>
<path d="M47.2229 46.3284C34.9437 55.4799 25.3214 66.616 18.3561 79.7368C18.2911 79.8591 18.1921 79.9607 18.0712 80.0293C17.9503 80.0978 17.8127 80.1305 17.675 80.1232C17.5373 80.1159 17.4054 80.069 17.2954 79.9882C17.1854 79.9074 17.102 79.7961 17.0553 79.6679C12.1288 66.8503 18.1208 52.5718 27.9046 44.895C32.2913 44.771 43.7356 44.1783 47.2229 46.3284Z" fill="#7AAC1A"/>
<path d="M70.8291 60.6895C82.096 61.2428 103.572 60.9799 110.73 71.4649C109.219 76.5276 106.604 80.7788 102.885 84.2184C93.1934 93.0158 81.7159 99.1113 68.4521 102.505C68.3215 102.54 68.2074 102.62 68.1295 102.731C68.0517 102.843 68.0151 102.978 68.0261 103.114C68.0719 103.611 68.4338 103.801 69.1116 103.681C58.2157 106.295 49.1885 104.013 39.062 98.5626C38.659 98.3505 38.3704 98.0324 38.1964 97.6082L37.8529 96.7644C57.3638 92.4349 64.7285 78.7684 70.8291 60.6895Z" fill="#0279CB"/>
<path d="M103.096 84.2881C94.3831 95.3182 83.064 101.785 69.1385 103.687C68.4569 103.807 68.0932 103.618 68.0471 103.122C68.036 102.987 68.0728 102.852 68.1511 102.741C68.2293 102.63 68.3441 102.55 68.4754 102.515C81.8114 99.1328 93.3516 93.057 103.096 84.2881Z" fill="#738BC1"/>
<path d="M18.084 146.128H8.68975C8.50745 146.127 8.32933 146.183 8.17918 146.286C8.02903 146.39 7.91402 146.538 7.84952 146.709L6.34809 150.694C6.27632 150.879 6.14548 151.035 5.97601 151.137C5.80655 151.24 5.60801 151.283 5.41142 151.261L1.8576 150.86C1.72198 150.843 1.59183 150.796 1.47709 150.722C1.36235 150.648 1.26608 150.548 1.19563 150.43C1.12517 150.313 1.08241 150.181 1.07061 150.044C1.05881 149.907 1.07829 149.77 1.12755 149.642L10.6182 125.112C10.6849 124.944 10.8009 124.799 10.9508 124.698C11.1008 124.597 11.2777 124.543 11.4584 124.545L15.0949 124.586C15.2748 124.589 15.4499 124.645 15.5974 124.749C15.7448 124.853 15.8577 124.998 15.9214 125.168L25.3018 149.753C25.3532 149.889 25.3708 150.036 25.3531 150.181C25.3354 150.325 25.2829 150.463 25.2002 150.583C25.1176 150.703 25.0071 150.801 24.8784 150.868C24.7498 150.936 24.6067 150.971 24.4616 150.97H20.6736C20.4745 150.97 20.2811 150.904 20.1239 150.781C19.9667 150.658 19.8548 150.486 19.8058 150.292L18.9518 146.806C18.9028 146.612 18.7908 146.44 18.6337 146.317C18.4765 146.195 18.2831 146.128 18.084 146.128ZM9.68152 140.995C9.65451 141.065 9.64487 141.14 9.65343 141.214C9.66199 141.288 9.68849 141.359 9.73063 141.42C9.77276 141.481 9.82923 141.532 9.8951 141.566C9.96098 141.601 10.0343 141.618 10.1085 141.618L16.1142 141.701C16.1868 141.7 16.2583 141.683 16.3227 141.649C16.387 141.615 16.4425 141.567 16.4843 141.507C16.5261 141.447 16.5531 141.379 16.563 141.306C16.5729 141.234 16.5654 141.161 16.5412 141.092L13.6486 132.874C13.6156 132.79 13.5585 132.717 13.4846 132.666C13.4106 132.614 13.3231 132.586 13.2331 132.584C13.1431 132.583 13.0547 132.608 12.9791 132.657C12.9034 132.706 12.844 132.777 12.8083 132.86L9.68152 140.995Z" fill="#7AAC1A"/>
<path d="M44.7145 134.136L55.0323 137.184C55.5099 137.322 55.8864 137.593 56.1619 137.997C57.2731 139.625 57.7553 141.519 57.6083 143.679C56.9333 153.375 45.4721 151.306 39.2869 150.547C38.7726 150.483 38.5339 150.193 38.5706 149.679L38.7772 146.658C38.814 146.07 39.1262 145.799 39.714 145.845L50.4726 146.589C51.2624 146.644 51.7124 146.277 51.8226 145.486L52.2497 142.259C52.3323 141.68 52.0981 141.298 51.5471 141.114C47.2767 139.694 38.4879 139.583 38.2124 132.963C37.7854 122.082 48.5303 124.123 55.418 124.799C55.8864 124.845 56.0976 125.102 56.0517 125.571L55.7486 128.702C55.6843 129.373 55.3216 129.649 54.6604 129.529C50.9272 128.84 41.6425 127.033 43.7915 133.253C43.9476 133.704 44.2553 133.998 44.7145 134.136Z" fill="#0763BA"/>
<path d="M66.314 140.064V145.839C66.314 145.928 66.3317 146.015 66.366 146.097C66.4004 146.179 66.4508 146.253 66.5142 146.315C66.5776 146.377 66.6527 146.426 66.7353 146.459C66.8178 146.491 66.906 146.507 66.9947 146.505L78.1225 146.2C78.2112 146.198 78.2994 146.214 78.3819 146.247C78.4644 146.279 78.5396 146.328 78.603 146.39C78.6664 146.452 78.7167 146.526 78.7511 146.608C78.7855 146.69 78.8032 146.778 78.8032 146.866V150.253C78.8032 150.43 78.7329 150.599 78.6079 150.724C78.4828 150.849 78.3132 150.92 78.1363 150.92H61.7712C61.5944 150.92 61.4247 150.849 61.2997 150.724C61.1746 150.599 61.1044 150.43 61.1044 150.253V125.211C61.1044 125.035 61.1746 124.865 61.2997 124.74C61.4247 124.615 61.5944 124.545 61.7712 124.545H77.8029C77.9798 124.545 78.1494 124.615 78.2745 124.74C78.3995 124.865 78.4698 125.035 78.4698 125.211V128.39C78.4698 128.567 78.3995 128.736 78.2745 128.861C78.1494 128.986 77.9798 129.056 77.8029 129.056L66.9808 129.07C66.804 129.07 66.6344 129.14 66.5093 129.265C66.3842 129.39 66.314 129.56 66.314 129.737V134.29C66.314 134.466 66.3842 134.636 66.5093 134.761C66.6344 134.886 66.804 134.956 66.9808 134.956H75.3718C75.5486 134.956 75.7182 135.026 75.8433 135.151C75.9684 135.276 76.0386 135.446 76.0386 135.622V138.954C76.0386 139.043 76.0209 139.13 75.9866 139.212C75.9522 139.294 75.9018 139.368 75.8384 139.43C75.775 139.492 75.6999 139.541 75.6173 139.573C75.5348 139.606 75.4466 139.622 75.3579 139.62L66.9947 139.398C66.906 139.396 66.8178 139.412 66.7353 139.445C66.6527 139.477 66.5776 139.526 66.5142 139.588C66.4508 139.65 66.4004 139.724 66.366 139.806C66.3317 139.888 66.314 139.976 66.314 140.064Z" fill="#0763BA"/>
<path d="M88.0971 143.975L88.3736 149.751C88.3811 149.902 88.3577 150.052 88.3047 150.194C88.2518 150.335 88.1705 150.465 88.0658 150.574C87.961 150.684 87.835 150.771 87.6954 150.83C87.5558 150.889 87.4055 150.92 87.2537 150.92H83.6588C83.198 150.92 82.9675 150.69 82.9675 150.232V125.81C82.9675 125.251 83.2487 124.958 83.8109 124.93C91.3047 124.545 102.338 122.936 103.541 131.118C105.2 142.421 98.3561 143.137 89.0372 142.999C88.3736 142.99 88.0602 143.315 88.0971 143.975ZM97.9474 131.541C97.9462 131.205 97.8785 130.873 97.7482 130.563C97.6179 130.253 97.4275 129.972 97.1878 129.735C96.9482 129.498 96.664 129.311 96.3516 129.183C96.0391 129.056 95.7045 128.991 95.3667 128.992L90.583 129.009C89.901 129.011 89.2478 129.283 88.7672 129.764C88.2866 130.246 88.018 130.897 88.0203 131.575L88.0357 135.948C88.0368 136.284 88.1045 136.616 88.2348 136.926C88.3652 137.236 88.5556 137.517 88.7953 137.754C89.0349 137.991 89.319 138.178 89.6315 138.306C89.944 138.433 90.2786 138.498 90.6163 138.497L95.4001 138.48C96.0821 138.478 96.7352 138.206 97.2158 137.725C97.6964 137.244 97.9651 136.592 97.9628 135.914L97.9474 131.541Z" fill="#0763BA"/>
<path d="M112.365 129.056C110.449 129.098 103.112 129.889 105.74 125.17C105.968 124.753 106.319 124.545 106.794 124.545H125.138C125.712 124.545 126 124.836 126 125.419V127.918C126 128.547 125.694 128.871 125.083 128.89L119.443 129.126C119.181 129.137 118.934 129.25 118.753 129.441C118.572 129.632 118.471 129.888 118.471 130.153V150.045C118.471 150.628 118.183 150.92 117.608 150.92H114.2C113.625 150.92 113.337 150.633 113.337 150.059V130.028C113.337 129.371 113.013 129.047 112.365 129.056Z" fill="#0763BA"/>
<path d="M35.4237 147.102C35.4237 148.206 35.0032 149.266 34.2548 150.047C33.5064 150.828 32.4913 151.266 31.4328 151.266C30.3743 151.266 29.3592 150.828 28.6108 150.047C27.8624 149.266 27.4419 148.206 27.4419 147.102C27.4419 145.997 27.8624 144.938 28.6108 144.157C29.3592 143.376 30.3743 142.938 31.4328 142.938C32.4913 142.938 33.5064 143.376 34.2548 144.157C35.0032 144.938 35.4237 145.997 35.4237 147.102ZM33.3409 146.878C33.3409 146.435 33.1385 146.011 32.7781 145.698C32.4177 145.385 31.929 145.209 31.4194 145.209C31.167 145.209 30.9171 145.252 30.684 145.336C30.4509 145.42 30.2391 145.543 30.0606 145.698C29.8822 145.853 29.7406 146.037 29.6441 146.239C29.5475 146.441 29.4978 146.658 29.4978 146.878C29.4978 147.097 29.5475 147.314 29.6441 147.516C29.7406 147.719 29.8822 147.902 30.0606 148.057C30.2391 148.212 30.4509 148.335 30.684 148.419C30.9171 148.503 31.167 148.546 31.4194 148.546C31.929 148.546 32.4177 148.37 32.7781 148.057C33.1385 147.745 33.3409 147.32 33.3409 146.878Z" fill="#7AAC1A"/>
</svg>
