<svg width="150" height="150" viewBox="0 0 150 150" fill="none" xmlns="http://www.w3.org/2000/svg">
<path d="M144.89 75.1795C144.89 56.7377 137.564 39.0512 124.524 26.0109C111.483 12.9705 93.7968 5.64453 75.3549 5.64453C56.9131 5.64453 39.2266 12.9705 26.1863 26.0109C13.1459 39.0512 5.81995 56.7377 5.81995 75.1795C5.81995 93.6214 13.1459 111.308 26.1863 124.348C39.2266 137.389 56.9131 144.715 75.3549 144.715C93.7968 144.715 111.483 137.389 124.524 124.348C137.564 111.308 144.89 93.6214 144.89 75.1795Z" stroke="#808080" stroke-width="2"/>
<path d="M127.975 77.4244L128.175 78.3894C128.232 78.6527 128.125 78.7977 127.855 78.8244L117.405 79.8194C117.33 79.8257 117.26 79.8601 117.209 79.9156C117.158 79.9712 117.13 80.044 117.13 80.1194L117.125 83.0244C117.122 83.2477 117.232 83.3761 117.455 83.4094C120.502 83.8494 123.555 84.2661 126.615 84.6594C127.555 84.7794 128.08 85.2294 127.665 86.2194C127.605 86.3661 127.497 86.4477 127.34 86.4644C126.677 86.5511 126.145 86.5627 125.745 86.4994C122.902 86.0727 120.042 85.6694 117.165 85.2894C116.965 85.2627 116.843 85.3494 116.8 85.5494C116.665 86.1794 116.615 87.1344 116.535 87.5394C115.168 94.4861 114.322 99.0544 113.995 101.244C113.415 105.114 114.77 108.184 117.275 111.389C119.765 114.579 122.507 117.479 125.5 120.089C125.542 120.126 125.59 120.154 125.643 120.171C125.696 120.189 125.752 120.195 125.808 120.19C125.863 120.184 125.917 120.168 125.967 120.141C126.016 120.115 126.06 120.078 126.095 120.034C129.685 115.479 133.125 110.699 135.67 105.679C149.17 79.0494 143.505 46.1394 121.535 25.7644C90.7899 -2.75058 42.3849 3.17441 19.0349 37.6444C8.6299 53.0044 4.9749 73.4694 9.6449 91.4844C11.6649 99.2711 14.9116 106.554 19.3849 113.334C20.6016 115.181 21.9649 116.904 23.4749 118.504C23.4978 118.528 23.5256 118.547 23.5565 118.558C23.5873 118.57 23.6203 118.575 23.6533 118.573C23.6862 118.57 23.7182 118.561 23.747 118.545C23.7758 118.529 23.8007 118.506 23.8199 118.479C26.5732 114.739 29.4582 111.109 32.4749 107.589C34.7549 104.929 34.4399 101.714 33.4649 98.1544C32.5282 94.7344 31.7516 91.2661 31.1349 87.7494C31.1049 87.5894 31.0099 87.5294 30.8499 87.5694C28.2899 88.2027 25.7482 88.8994 23.2249 89.6594C22.4382 89.8961 21.8916 89.6511 21.5849 88.9244C21.5519 88.845 21.5358 88.7596 21.5379 88.6736C21.5399 88.5876 21.56 88.503 21.5967 88.4253C21.6335 88.3476 21.6861 88.2784 21.7512 88.2223C21.8164 88.1661 21.8926 88.1243 21.9749 88.0994L30.5999 85.4894C30.7229 85.4513 30.8283 85.3709 30.8971 85.2627C30.9658 85.1545 30.9934 85.0257 30.9749 84.8994L30.6149 82.4444C30.5916 82.2777 30.4949 82.2011 30.3249 82.2144L20.9649 82.9944C20.6882 83.0177 20.5432 82.8911 20.5299 82.6144L20.4899 81.5594C20.4799 81.3394 20.5849 81.2161 20.8049 81.1894L30.3349 80.1194C30.5482 80.0927 30.6599 79.9727 30.6699 79.7594L30.7799 77.1944C30.7899 76.9911 30.6932 76.8811 30.4899 76.8644C29.0799 76.7544 26.1566 76.4427 21.7199 75.9294C20.6999 75.8094 20.1049 75.3577 19.9349 74.5744C19.8849 74.3411 19.9766 74.2061 20.2099 74.1694C20.7999 74.0727 21.3982 74.0644 22.0049 74.1444C24.8849 74.5177 27.7916 74.8077 30.7249 75.0144C30.9049 75.0277 31.0116 74.9477 31.0449 74.7744C32.0216 69.7011 33.5982 64.8294 35.7749 60.1594C36.4899 58.6344 37.1199 56.7894 36.9749 55.3744C36.6616 52.2511 36.5449 49.1261 36.6249 45.9994C36.7449 41.2244 39.7249 34.7444 45.3099 35.5094C48.6449 35.9644 52.2099 39.1844 54.6599 41.7044C56.3799 43.4744 58.3899 43.6594 60.7499 43.5344C69.6649 43.0594 79.3899 42.8944 88.7199 43.9994C94.3299 44.6644 97.4049 38.3444 102.3 36.6244C105.14 35.6294 109.125 35.8944 110.415 39.2694C112.162 43.8294 113.057 48.5527 113.1 53.4394C113.11 54.6294 113.252 55.7394 113.525 56.7694C114.828 61.6561 115.882 66.6111 116.685 71.6344C116.697 71.7098 116.724 71.782 116.764 71.8467C116.805 71.9114 116.858 71.9674 116.92 72.0112C116.983 72.055 117.054 72.0859 117.128 72.1019C117.203 72.1179 117.28 72.1188 117.355 72.1044C120.14 71.5594 124.395 70.3444 127.14 70.6794C127.33 70.7027 127.455 70.8044 127.515 70.9844L127.78 71.8244C127.85 72.0477 127.77 72.1811 127.54 72.2244L117.385 74.1444C117.277 74.1649 117.181 74.2239 117.114 74.3105C117.046 74.397 117.013 74.5051 117.02 74.6144L117.17 77.4994C117.172 77.5706 117.203 77.638 117.254 77.6874C117.305 77.7369 117.374 77.7645 117.445 77.7644C120.318 77.7744 123.182 77.5361 126.035 77.0494C126.578 76.9561 127.117 76.9711 127.65 77.0944C127.83 77.1344 127.938 77.2444 127.975 77.4244Z" stroke="#800000" stroke-width="2"/>
<path d="M82.9849 93.7499C87.3849 95.4799 89.2299 92.2549 90.9449 88.9899C91.0183 88.8466 91.1233 88.8166 91.2599 88.8999C98.3099 93.0799 102.195 105.095 101.505 112.985C101.488 113.155 101.557 113.277 101.71 113.35C108.155 116.57 113.705 121.675 119.425 126.02C119.572 126.13 119.712 126.122 119.845 125.995L123.865 122.195C124.042 122.028 124.043 121.86 123.87 121.69C122.107 119.947 120.418 118.14 118.805 116.27C114.755 111.57 112.12 108.985 111.81 103.69C111.73 102.337 112.038 99.9866 112.735 96.6399C113.485 93.0266 114.168 89.3383 114.785 85.5749C114.848 85.2016 114.693 84.9766 114.32 84.8999C112.755 84.5849 110.965 84.8699 109.845 83.3499C109.742 83.2099 109.733 83.0649 109.82 82.9149C110.425 81.8949 113.665 82.8349 114.58 82.8949C114.79 82.9116 114.9 82.8149 114.91 82.6049L115.035 80.2849C115.038 80.226 115.027 80.1672 115.005 80.1127C114.982 80.0582 114.948 80.0092 114.905 79.9692C114.862 79.9292 114.81 79.8991 114.754 79.8811C114.698 79.8631 114.638 79.8576 114.58 79.8649C113.365 80.0199 109.84 80.7749 109.39 79.1049C109.362 79.0025 109.356 78.8951 109.374 78.7903C109.392 78.6856 109.433 78.5861 109.493 78.4988C109.554 78.4115 109.633 78.3385 109.725 78.2852C109.817 78.2318 109.919 78.1993 110.025 78.1899L114.805 77.7799C114.988 77.7633 115.073 77.6616 115.06 77.4749L114.87 75.1299C114.853 74.9033 114.733 74.8116 114.51 74.8549C113.225 75.0999 109.28 76.5549 108.815 74.6649C108.776 74.5071 108.8 74.3402 108.884 74.2006C108.967 74.0609 109.102 73.96 109.26 73.9199L114.4 72.6099C114.587 72.5633 114.665 72.4449 114.635 72.2549C113.832 67.1183 112.75 62.0383 111.39 57.0149C111.127 56.0549 111.002 55.0266 111.015 53.9299C111.058 50.2233 110.598 46.5833 109.635 43.0099C106.94 33.0049 99.0999 41.0149 95.2249 44.1049C92.0499 46.6349 89.6049 45.7949 85.8749 45.3799C77.4549 44.4349 68.5949 45.3199 58.0999 45.1249C56.2399 45.0899 54.5199 44.4199 53.3199 43.1799C50.6599 40.4199 45.9399 34.9099 42.2799 37.8949C37.7749 41.5749 38.3799 48.2649 38.9099 54.2549C39.0999 56.3649 39.0366 57.7283 38.7199 58.3449C36.0599 63.5416 34.1783 69.0483 33.0749 74.8649C33.0629 74.9289 33.0653 74.9947 33.0818 75.0575C33.0983 75.1204 33.1285 75.1786 33.1703 75.2281C33.212 75.2775 33.2642 75.3168 33.323 75.3431C33.3818 75.3693 33.4456 75.3819 33.5099 75.3799C35.1549 75.3449 37.1749 74.7849 37.8499 76.7499C37.8825 76.8456 37.8909 76.9478 37.8742 77.0475C37.8575 77.1471 37.8164 77.2411 37.7544 77.3209C37.6924 77.4007 37.6116 77.4639 37.5192 77.5047C37.4268 77.5456 37.3257 77.5628 37.2249 77.5549L33.1649 77.2399C32.9083 77.2199 32.7983 77.3366 32.8349 77.5899L33.1149 79.4899C33.1483 79.7299 33.2849 79.8283 33.5249 79.7849C34.4249 79.6099 38.8399 78.5199 37.8049 81.0449C37.7416 81.1949 37.6316 81.2799 37.4749 81.2999L33.0149 81.8749C32.8016 81.9016 32.7016 82.0216 32.7149 82.2349L32.8699 84.4199C32.8833 84.6266 32.9899 84.7049 33.1899 84.6549C34.4866 84.3416 35.7783 84.0016 37.0649 83.6349C37.9349 83.3883 38.4316 83.7399 38.5549 84.6899C38.6116 85.1233 38.4283 85.3983 38.0049 85.5149L33.8749 86.6299C33.2949 86.7866 33.0683 87.1583 33.1949 87.7449C33.9716 91.4049 34.8249 95.0166 35.7549 98.5799C36.7399 102.355 36.7199 105.27 34.4749 108.22C31.9899 111.48 28.1699 115.565 25.2749 120.18C25.1749 120.34 25.1933 120.487 25.3299 120.62L29.5599 124.765C29.7466 124.945 29.9249 124.938 30.0949 124.745C34.6516 119.595 40.0499 115.585 46.2899 112.715C46.4499 112.642 46.4949 112.523 46.4249 112.36C43.2999 104.965 46.7849 94.2999 53.4949 89.8549C53.5671 89.8071 53.6488 89.7758 53.7345 89.763C53.8202 89.7503 53.9078 89.7566 53.9911 89.7813C54.0744 89.8061 54.1514 89.8487 54.2169 89.9064C54.2823 89.964 54.3345 90.0352 54.3699 90.1149C55.9399 93.7099 59.2649 97.3649 63.5799 95.1499C63.7399 95.0666 63.8816 95.0916 64.0049 95.2249C64.8799 96.1849 65.7599 97.3799 66.9949 97.7999C69.6283 98.6899 71.5233 97.8716 72.6799 95.3449C72.8633 94.9383 73.1066 94.8999 73.4099 95.2299C74.4599 96.3766 75.5449 97.1333 76.6649 97.4999C79.3749 98.3899 81.8499 96.5149 82.6499 93.9099C82.7033 93.7366 82.8149 93.6833 82.9849 93.7499Z" stroke="#808080" stroke-width="2"/>
<path d="M84.8199 96.3541C83.9449 96.3291 83.7099 95.8141 83.0699 96.7541C80.9799 99.8207 78.2599 100.451 74.9099 98.6441C74.5799 98.4641 74.1399 97.9641 73.7399 97.7691C73.5732 97.6891 73.4366 97.7241 73.3299 97.8741C70.4299 101.869 66.4749 100.059 63.6299 97.3091C63.5032 97.1891 63.3532 97.1274 63.1799 97.1241C62.2449 97.1041 61.1649 97.3891 60.4399 97.3441C57.8199 97.1941 55.3549 95.2241 54.0349 93.0541C53.9652 92.9405 53.8696 92.8452 53.7558 92.7759C53.642 92.7066 53.5134 92.6654 53.3805 92.6556C53.2477 92.6458 53.1144 92.6678 52.9917 92.7197C52.869 92.7716 52.7604 92.8519 52.6749 92.9541C47.9982 98.5574 46.6032 104.957 48.4899 112.154C48.5299 112.307 48.6282 112.392 48.7849 112.409C55.5899 113.104 55.1249 118.694 53.3699 123.569C53.344 123.64 53.3364 123.715 53.3478 123.789C53.3592 123.862 53.3892 123.931 53.4349 123.989C56.5949 128.126 60.6982 130.796 65.7449 131.999C76.8649 134.659 85.8849 131.489 94.0049 123.829C94.1349 123.709 94.1649 123.567 94.0949 123.404C92.5799 119.779 90.6649 115.444 95.0999 113.144C96.2599 112.544 97.6999 112.759 99.0049 112.744C99.0969 112.743 99.185 112.707 99.2511 112.644C99.3171 112.581 99.356 112.495 99.3599 112.404C99.7749 105.064 96.6199 97.6591 92.3099 91.8741C92.2876 91.8436 92.2577 91.8196 92.2232 91.8044C92.1887 91.7892 92.1508 91.7833 92.1134 91.7874C92.0759 91.7914 92.0401 91.8053 92.0097 91.8275C91.9792 91.8497 91.9552 91.8796 91.9399 91.9141C90.5799 94.9674 88.2066 96.4474 84.8199 96.3541Z" stroke="#65462C" stroke-width="2"/>
<path d="M48.96 120.649L48.51 120.199C48.3633 120.049 48.3217 119.876 48.385 119.679C48.795 118.399 50.8 116.599 51.77 115.599C51.8054 115.562 51.8305 115.516 51.8425 115.467C51.8545 115.417 51.853 115.365 51.8381 115.316C51.8233 115.268 51.7956 115.224 51.7581 115.19C51.7206 115.156 51.6746 115.134 51.625 115.124C50.15 114.839 47.815 120.194 46.135 118.074C45.977 117.876 45.9008 117.625 45.9222 117.373C45.9436 117.12 46.0609 116.887 46.25 116.719L48.025 115.144C48.073 115.102 48.1047 115.044 48.1147 114.981C48.1247 114.918 48.1124 114.853 48.0798 114.798C48.0472 114.743 47.9965 114.701 47.9363 114.679C47.8761 114.658 47.8102 114.658 47.75 114.679C41.975 116.719 35.35 121.544 31.835 126.364C31.735 126.501 31.75 126.623 31.88 126.729C35.8733 130.033 40.1683 132.879 44.765 135.269C45.1017 135.446 45.3567 135.366 45.53 135.029C48.215 129.834 51.28 124.389 52.54 118.434C52.6167 118.071 52.5317 118.029 52.285 118.309L50.23 120.614C49.82 121.071 49.3967 121.083 48.96 120.649Z" stroke="#808080" stroke-width="2"/>
<path d="M98.7 120.73L97.625 121.175C97.415 121.262 97.2333 121.222 97.08 121.055L94.99 118.775C94.9622 118.748 94.9263 118.731 94.8879 118.726C94.8494 118.722 94.8105 118.73 94.7773 118.75C94.7442 118.77 94.7186 118.801 94.7046 118.837C94.6906 118.873 94.689 118.913 94.7 118.95C96.57 124.27 99.715 128.815 104.23 135.895C104.31 136.025 104.418 136.057 104.555 135.99C109.175 133.737 113.508 131.025 117.555 127.855C117.722 127.725 117.722 127.593 117.555 127.46C112.28 123.115 105.11 116.865 99.63 114.8C99.5716 114.779 99.5079 114.779 99.4492 114.799C99.3906 114.819 99.3404 114.858 99.3068 114.91C99.2732 114.962 99.2583 115.024 99.2643 115.086C99.2703 115.148 99.297 115.205 99.34 115.25L101.805 117.69C102.018 117.9 102.005 118.095 101.765 118.275L100.63 119.12C100.43 119.267 100.242 119.252 100.065 119.075L96.065 115.065C95.999 114.999 95.9143 114.954 95.8223 114.937C95.7303 114.92 95.6353 114.932 95.55 114.97C95.1233 115.163 95.1033 115.47 95.49 115.89C96.7033 117.2 97.84 118.57 98.9 120C98.9436 120.059 98.9733 120.126 98.9869 120.198C99.0004 120.27 98.9974 120.343 98.9782 120.414C98.9589 120.484 98.9238 120.549 98.8756 120.604C98.8274 120.659 98.7673 120.702 98.7 120.73Z" stroke="#808080" stroke-width="2"/>
<path d="M47.5599 136.584C64.865 144.454 84.685 144.384 102.14 137.099C102.21 137.069 102.225 137.023 102.185 136.959L95.3949 126.234C95.3049 126.091 95.1966 126.076 95.07 126.189C86.975 133.164 77.8499 136.829 66.9899 134.324C61.0866 132.961 56.3749 130.128 52.8549 125.824C52.7416 125.684 52.6466 125.696 52.5699 125.859L47.4849 136.379C47.4383 136.476 47.4633 136.544 47.5599 136.584Z" stroke="#808080" stroke-width="2"/>
<path d="M72.8799 18.1545C71.8399 19.2195 69.9949 20.9495 72.2549 22.1945C73.7682 23.0311 75.2949 22.9145 76.8349 21.8445C76.9616 21.7578 77.0999 21.7211 77.2499 21.7345L79.2449 21.9045C79.5916 21.9345 79.6849 21.7961 79.5249 21.4895L78.9099 20.2895C78.8366 20.1495 78.8466 20.0145 78.9399 19.8845L79.8049 18.6595C79.9716 18.4228 79.9166 18.2611 79.6399 18.1745C78.6099 17.8645 78.0399 18.7645 77.0849 18.7395C76.1216 18.7195 75.9332 18.3261 76.5199 17.5595C80.7149 12.1195 68.4849 11.7095 71.4749 16.8745C71.5582 17.0145 71.6716 17.1245 71.8149 17.2045L72.8249 17.7745C73.0116 17.8778 73.0299 18.0045 72.8799 18.1545Z" stroke="#800000" stroke-width="2"/>
<path d="M62.4849 19.5049L64.9749 22.8449C65.0716 22.9716 65.1949 23.0632 65.3449 23.1199C66.7799 23.6249 67.6499 23.0549 67.4649 21.4849C67.1749 19.0982 66.8699 16.7182 66.5499 14.3449C66.5233 14.1416 66.4083 14.0549 66.2049 14.0849L64.0899 14.3749C63.9066 14.3982 63.8333 14.5016 63.8699 14.6849L64.8149 19.1249C64.9583 19.8016 64.8333 19.8549 64.4399 19.2849L61.5699 15.1299C61.4599 14.9699 61.3099 14.9082 61.1199 14.9449L58.9199 15.3249C58.7166 15.3616 58.6383 15.4799 58.6849 15.6799L60.5299 23.4599C60.5719 23.6419 60.6802 23.8016 60.8337 23.908C60.9872 24.0143 61.1748 24.0596 61.3599 24.0349L62.7599 23.8499C62.9999 23.8199 63.0833 23.6899 63.0099 23.4599C62.5933 22.2066 62.3299 20.9216 62.2199 19.6049C62.1899 19.2649 62.2783 19.2316 62.4849 19.5049Z" stroke="#800000" stroke-width="2"/>
<path d="M90.795 21.3345L90.035 20.8145C89.8717 20.7012 89.72 20.7145 89.58 20.8545L88.515 21.9195C88.3883 22.0495 88.2333 22.1195 88.05 22.1295C84.79 22.3245 85.775 15.1645 89.465 17.1895C89.615 17.2728 89.7167 17.3962 89.77 17.5595C90.06 18.4295 90.6733 18.8262 91.61 18.7495C91.84 18.7295 91.9483 18.6062 91.935 18.3795C91.565 11.9595 82.75 14.1995 84.265 21.3845C84.965 24.7145 90.015 24.8695 90.94 21.7545C90.9933 21.5778 90.945 21.4378 90.795 21.3345Z" stroke="#800000" stroke-width="2"/>
<path d="M56.1499 23.4647C54.9349 22.1847 54.2099 19.1997 53.7199 17.4697C53.7045 17.4152 53.6783 17.3644 53.6428 17.3203C53.6072 17.2762 53.5632 17.2397 53.5132 17.2131C53.4632 17.1865 53.4084 17.1702 53.3519 17.1654C53.2955 17.1605 53.2387 17.167 53.1849 17.1847L51.1549 17.8297C50.9849 17.883 50.9232 17.9963 50.9699 18.1697C51.4749 20.0897 52.9199 24.4447 54.7999 25.3897C56.5349 26.2597 59.0199 25.0047 59.5099 23.1847C59.9399 21.5897 58.5149 17.7347 58.0099 16.0297C57.9599 15.8597 57.8499 15.7947 57.6799 15.8347L55.6399 16.3147C55.4199 16.368 55.3466 16.503 55.4199 16.7197C55.8449 17.9597 57.7549 22.5647 56.7199 23.4897C56.6409 23.5598 56.5375 23.5963 56.4313 23.5917C56.3251 23.587 56.2243 23.5415 56.1499 23.4647Z" stroke="#800000" stroke-width="2"/>
<path d="M95.47 24.6748L95.815 26.6248C95.8516 26.8248 95.97 26.9098 96.17 26.8798L97.15 26.7448C97.3466 26.7181 97.4566 26.6081 97.48 26.4148L98.515 18.0298C98.5416 17.8231 98.455 17.6848 98.255 17.6148L95.97 16.8048C95.7433 16.7248 95.5633 16.7848 95.43 16.9848L90.86 23.9248C90.75 24.0948 90.75 24.2631 90.86 24.4298C91.17 24.9031 91.6166 25.1365 92.2 25.1298C92.3966 25.1265 92.5466 25.0398 92.65 24.8698C93.24 23.8931 94.0533 23.6598 95.09 24.1698C95.3033 24.2731 95.43 24.4415 95.47 24.6748Z" stroke="#800000" stroke-width="2"/>
<path d="M106.005 23.4698C106.85 23.8398 108.21 24.4498 108.6 23.0698C108.64 22.9314 108.632 22.7835 108.578 22.6502C108.523 22.5168 108.425 22.4057 108.3 22.3348C106.31 21.1998 103.43 19.3998 101.46 19.0898C101.23 19.0531 101.082 19.1465 101.015 19.3698L100.73 20.2848C100.66 20.5081 100.727 20.6765 100.93 20.7898L102.69 21.7948C102.86 21.8948 102.922 22.0398 102.875 22.2298C102.355 24.3948 100.945 26.3198 100.14 28.4398C100.04 28.7031 100.13 28.8365 100.41 28.8398L102.15 28.8648C102.373 28.8681 102.538 28.7715 102.645 28.5748L105.15 23.7748C105.228 23.6244 105.359 23.509 105.518 23.4524C105.677 23.3957 105.851 23.4019 106.005 23.4698Z" stroke="#800000" stroke-width="2"/>
<path d="M44.185 22.3195L47.69 28.6445C47.8225 28.8806 48.0431 29.0546 48.3035 29.1286C48.564 29.2026 48.8431 29.1706 49.08 29.0395L51.615 27.6395C51.9092 27.4764 52.1691 27.2582 52.3798 26.9975C52.5906 26.7368 52.748 26.4386 52.8432 26.12C52.9384 25.8015 52.9695 25.4688 52.9346 25.141C52.8997 24.8132 52.7996 24.4966 52.64 24.2095L50.565 20.4695C50.4062 20.1821 50.191 19.9296 49.9317 19.7263C49.6724 19.523 49.374 19.373 49.0537 19.2847C48.7333 19.1965 48.3972 19.1719 48.0646 19.2121C47.7319 19.2524 47.4093 19.3569 47.115 19.5195L44.585 20.9245C44.467 20.9897 44.3631 21.0776 44.2791 21.183C44.1951 21.2885 44.1328 21.4095 44.0956 21.5391C44.0585 21.6686 44.0472 21.8043 44.0626 21.9382C44.0779 22.0721 44.1195 22.2017 44.185 22.3195Z" stroke="#800000" stroke-width="2"/>
<path d="M75.0115 16.1648C75.0819 16.0895 75.1329 15.9974 75.1615 15.8937C75.19 15.79 75.1957 15.6767 75.178 15.5604C75.1603 15.444 75.1198 15.3268 75.0586 15.2155C74.9974 15.1042 74.9168 15.001 74.8214 14.9117C74.6287 14.7314 74.3874 14.6189 74.1506 14.5989C73.9137 14.5789 73.7008 14.6531 73.5585 14.8051C73.4881 14.8804 73.4371 14.9725 73.4085 15.0762C73.38 15.1799 73.3744 15.2932 73.392 15.4095C73.4097 15.5259 73.4503 15.643 73.5115 15.7543C73.5726 15.8656 73.6532 15.9689 73.7487 16.0581C73.9413 16.2384 74.1826 16.351 74.4195 16.371C74.6563 16.391 74.8693 16.3168 75.0115 16.1648Z" stroke="#800000" stroke-width="2"/>
<path d="M75.8339 20.1049C75.8418 19.9301 75.7437 19.7576 75.561 19.6254C75.3784 19.4932 75.1262 19.4121 74.8599 19.4C74.5936 19.3879 74.3351 19.4458 74.1412 19.5609C73.9474 19.676 73.834 19.8389 73.826 20.0137C73.8181 20.1886 73.9162 20.3611 74.0989 20.4933C74.2815 20.6255 74.5337 20.7065 74.8 20.7186C75.0663 20.7307 75.3248 20.6728 75.5187 20.5577C75.7126 20.4427 75.826 20.2798 75.8339 20.1049Z" stroke="#800000" stroke-width="2"/>
<path d="M94.6199 22.6393L95.4349 22.9143C95.4847 22.9302 95.5387 22.9261 95.5854 22.9027C95.6321 22.8794 95.6678 22.8387 95.6849 22.7893L95.7449 22.6193C95.903 22.1527 95.9949 21.6847 96.0006 21.3182C96.0062 20.9517 95.925 20.7165 95.7749 20.6643L95.7149 20.6443C95.6403 20.619 95.5509 20.6395 95.452 20.7047C95.353 20.7699 95.2464 20.8785 95.1382 21.0243C95.03 21.1701 94.9224 21.3503 94.8214 21.5544C94.7205 21.7586 94.6282 21.9828 94.5499 22.2143L94.4949 22.3843C94.4863 22.4092 94.4826 22.4357 94.4843 22.462C94.4859 22.4884 94.4927 22.5141 94.5043 22.5378C94.5159 22.5615 94.5321 22.5827 94.552 22.6001C94.5718 22.6175 94.5949 22.6309 94.6199 22.6393Z" stroke="#800000" stroke-width="2"/>
<path d="M48.6903 21.6727C48.5618 21.5123 48.36 21.4214 48.1294 21.4199C47.8987 21.4185 47.6581 21.5066 47.4605 21.665C47.3626 21.7434 47.2782 21.8367 47.2121 21.9395C47.146 22.0424 47.0996 22.1527 47.0754 22.2644C47.0511 22.376 47.0497 22.4866 47.071 22.59C47.0923 22.6934 47.1361 22.7875 47.1997 22.8669C47.3282 23.0273 47.53 23.1183 47.7606 23.1197C47.9913 23.1212 48.2319 23.033 48.4296 22.8747C48.5274 22.7963 48.6118 22.703 48.6779 22.6001C48.744 22.4973 48.7904 22.3869 48.8146 22.2753C48.8389 22.1637 48.8403 22.053 48.819 21.9496C48.7977 21.8463 48.7539 21.7522 48.6903 21.6727Z" stroke="#800000" stroke-width="2"/>
<path d="M50.7472 25.3797C50.6974 25.2724 50.6222 25.1783 50.5259 25.1027C50.4295 25.027 50.3139 24.9713 50.1857 24.9387C50.0574 24.9061 49.919 24.8972 49.7783 24.9126C49.6377 24.9281 49.4976 24.9675 49.3659 25.0286C49.2343 25.0897 49.1138 25.1713 49.0112 25.2687C48.9087 25.3662 48.8261 25.4776 48.7682 25.5966C48.7103 25.7156 48.6783 25.8399 48.6739 25.9623C48.6695 26.0848 48.6928 26.2029 48.7426 26.3102C48.7923 26.4174 48.8675 26.5115 48.9639 26.5871C49.0602 26.6628 49.1758 26.7185 49.3041 26.7511C49.4324 26.7837 49.5708 26.7926 49.7114 26.7772C49.8521 26.7617 49.9922 26.7224 50.1238 26.6613C50.2555 26.6002 50.376 26.5185 50.4786 26.4211C50.5811 26.3236 50.6637 26.2122 50.7216 26.0932C50.7795 25.9742 50.8115 25.8499 50.8159 25.7275C50.8203 25.605 50.7969 25.4869 50.7472 25.3797Z" stroke="#800000" stroke-width="2"/>
<path d="M51.13 45.3547C49.955 43.8547 47.135 40.8797 45.365 40.6397C40.905 40.0397 38.845 52.1647 44.615 52.0297C47.15 51.9697 54.38 49.5047 51.13 45.3547Z" stroke="#808080" stroke-width="2"/>
<path d="M107.59 49.9796C108.655 42.8546 103.965 37.7296 98.32 45.0946C95.225 49.1346 100.69 51.0796 103.575 52.0196C105.73 52.7196 107.22 52.4646 107.59 49.9796Z" stroke="#808080" stroke-width="2"/>
<path d="M66.86 69.0843C64.68 64.7443 58.525 65.5343 56.185 68.8093C55.705 69.4793 55.655 70.3393 56.515 70.6943C56.6816 70.7609 56.8083 70.7159 56.895 70.5593C58.88 66.9543 62.77 66.6793 65.405 69.7243C65.885 70.2809 66.3583 70.2276 66.825 69.5643C66.935 69.4109 66.9466 69.2509 66.86 69.0843Z" stroke="#808080" stroke-width="2"/>
<path d="M93.775 69.4545C90.875 62.7745 80.985 68.6595 83.9 70.5595C84.0567 70.6628 84.1983 70.6461 84.325 70.5095C87.035 67.5295 90.435 66.7495 93.06 70.5095C93.17 70.6695 93.3117 70.7028 93.485 70.6095C93.6717 70.5128 93.7883 70.2711 93.835 69.8845C93.855 69.7345 93.835 69.5911 93.775 69.4545Z" stroke="#808080" stroke-width="2"/>
<path d="M79.6649 75.3849C78.7399 71.7849 73.0099 72.2749 70.4949 73.3799C69.7349 73.7099 69.2916 74.3333 69.1649 75.2499C69.1416 75.4233 69.0432 75.4966 68.8699 75.4699C67.6599 75.2933 66.8716 75.2666 66.5049 75.3899C62.5549 76.6999 58.9549 78.9899 54.6349 80.2799C51.2699 81.2899 50.4049 76.8149 53.7599 77.1249C54.0466 77.1516 54.0782 77.0749 53.8549 76.8949C51.0549 74.6049 46.9599 77.7799 47.1599 80.7549C47.2566 82.1949 47.9299 83.6166 49.1799 85.0199C52.7999 89.0949 59.1999 88.8849 64.3549 87.9149C68.9616 87.0483 72.6332 84.7233 75.3699 80.9399C75.4699 80.7999 75.5732 80.7999 75.6799 80.9399C79.8249 86.4199 86.3399 88.5699 92.9349 87.3399C97.6299 86.4649 104.105 81.5399 99.0849 76.5299C97.9382 75.3866 96.4866 75.1433 94.7299 75.7999C94.2266 75.9899 94.2416 76.0566 94.7749 75.9999C96.3499 75.8449 97.4799 77.2749 96.6199 78.5449C95.4599 80.2499 92.2299 79.3499 90.8549 78.3949C87.5449 76.0899 84.3299 74.7049 80.0399 75.6149C79.8399 75.6583 79.7149 75.5816 79.6649 75.3849Z" stroke="#808080" stroke-width="2"/>
<path d="M50.0349 46.9447C49.3699 46.0697 46.6099 42.8997 45.5799 42.8597C45.2366 42.8452 44.9095 42.9007 44.6455 43.0184C44.3814 43.1361 44.194 43.3098 44.1099 43.5147C43.3832 45.2747 43.1116 47.0213 43.2949 48.7547C43.6649 52.2947 49.0049 48.5197 50.0049 47.4697C50.0707 47.3996 50.1097 47.3086 50.1152 47.2126C50.1206 47.1167 50.0922 47.0218 50.0349 46.9447Z" stroke="#50504F" stroke-width="2"/>
<path d="M105.27 50.1243C105.585 49.1043 106.025 41.4843 103.02 43.3893C101.545 44.3243 97.44 47.4943 100.715 49.1743C101.812 49.7377 102.99 50.2293 104.25 50.6493C104.351 50.684 104.458 50.6978 104.564 50.69C104.671 50.6822 104.775 50.653 104.87 50.604C104.965 50.555 105.05 50.4873 105.118 50.4048C105.187 50.3224 105.239 50.227 105.27 50.1243Z" stroke="#50504F" stroke-width="2"/>
<path d="M77.7899 75.1647C77.6199 73.4897 72.1999 73.8747 71.2499 74.9447C71.1073 75.1059 71.0277 75.3133 71.0259 75.5291C71.0241 75.7449 71.1 75.9546 71.2399 76.1197C72.2032 77.2497 73.3699 78.1164 74.7399 78.7197C74.8866 78.7864 75.0282 78.7747 75.1649 78.6847C76.0949 78.0647 77.9049 76.3697 77.7899 75.1647Z" stroke="#50504F" stroke-width="2"/>
<path d="M57.27 101.569C57.27 100.983 57.0371 100.421 56.6227 100.007C56.2082 99.5922 55.6461 99.3594 55.06 99.3594C54.4738 99.3594 53.9117 99.5922 53.4973 100.007C53.0828 100.421 52.85 100.983 52.85 101.569C52.85 102.156 53.0828 102.718 53.4973 103.132C53.9117 103.547 54.4738 103.779 55.06 103.779C55.6461 103.779 56.2082 103.547 56.6227 103.132C57.0371 102.718 57.27 102.156 57.27 101.569Z" stroke="#65462C" stroke-width="2"/>
<path d="M93.39 103.25C93.39 102.37 93.0408 101.527 92.4191 100.906C91.7974 100.284 90.9542 99.9346 90.075 99.9346C89.1958 99.9346 88.3526 100.284 87.7309 100.906C87.1093 101.527 86.76 102.37 86.76 103.25C86.76 104.129 87.1093 104.972 87.7309 105.594C88.3526 106.215 89.1958 106.565 90.075 106.565C90.9542 106.565 91.7974 106.215 92.4191 105.594C93.0408 104.972 93.39 104.129 93.39 103.25Z" stroke="#65462C" stroke-width="2"/>
<path d="M70.0399 104.069C70.0399 103.706 69.8956 103.357 69.6387 103.1C69.3817 102.844 69.0333 102.699 68.6699 102.699C68.3066 102.699 67.9581 102.844 67.7012 103.1C67.4443 103.357 67.2999 103.706 67.2999 104.069C67.2999 104.433 67.4443 104.781 67.7012 105.038C67.9581 105.295 68.3066 105.439 68.6699 105.439C69.0333 105.439 69.3817 105.295 69.6387 105.038C69.8956 104.781 70.0399 104.433 70.0399 104.069Z" stroke="#65462C" stroke-width="2"/>
<path d="M79.5849 105.019C79.5849 104.503 79.38 104.009 79.0153 103.644C78.6505 103.279 78.1558 103.074 77.6399 103.074C77.1241 103.074 76.6294 103.279 76.2646 103.644C75.8999 104.009 75.6949 104.503 75.6949 105.019C75.6949 105.275 75.7453 105.528 75.843 105.764C75.9407 106 76.084 106.214 76.2646 106.395C76.4452 106.575 76.6597 106.718 76.8956 106.816C77.1316 106.914 77.3845 106.964 77.6399 106.964C77.8954 106.964 78.1483 106.914 78.3843 106.816C78.6202 106.718 78.8347 106.575 79.0153 106.395C79.1959 106.214 79.3391 106 79.4369 105.764C79.5346 105.528 79.5849 105.275 79.5849 105.019Z" stroke="#65462C" stroke-width="2"/>
<path d="M64.0149 108.799C64.0149 107.921 63.6662 107.079 63.0454 106.459C62.4247 105.838 61.5828 105.489 60.7049 105.489C59.827 105.489 58.9851 105.838 58.3644 106.459C57.7436 107.079 57.3949 107.921 57.3949 108.799C57.3949 109.677 57.7436 110.519 58.3644 111.14C58.9851 111.761 59.827 112.109 60.7049 112.109C61.5828 112.109 62.4247 111.761 63.0454 111.14C63.6662 110.519 64.0149 109.677 64.0149 108.799Z" stroke="#65462C" stroke-width="2"/>
<path d="M93.09 111.315C93.09 110.8 92.8856 110.307 92.5218 109.943C92.1579 109.579 91.6645 109.375 91.15 109.375C90.6354 109.375 90.142 109.579 89.7782 109.943C89.4144 110.307 89.21 110.8 89.21 111.315C89.21 111.83 89.4144 112.323 89.7782 112.687C90.142 113.051 90.6354 113.255 91.15 113.255C91.6645 113.255 92.1579 113.051 92.5218 112.687C92.8856 112.323 93.09 111.83 93.09 111.315Z" stroke="#65462C" stroke-width="2"/>
<path d="M74.3399 113.07C74.3399 112.644 74.1708 112.236 73.8698 111.935C73.5688 111.634 73.1606 111.465 72.7349 111.465C72.3092 111.465 71.901 111.634 71.6 111.935C71.299 112.236 71.1299 112.644 71.1299 113.07C71.1299 113.496 71.299 113.904 71.6 114.205C71.901 114.506 72.3092 114.675 72.7349 114.675C73.1606 114.675 73.5688 114.506 73.8698 114.205C74.1708 113.904 74.3399 113.496 74.3399 113.07Z" stroke="#65462C" stroke-width="2"/>
<path d="M85.775 116.819C85.775 116.281 85.5611 115.764 85.1804 115.384C84.7997 115.003 84.2834 114.789 83.745 114.789C83.2066 114.789 82.6902 115.003 82.3095 115.384C81.9288 115.764 81.715 116.281 81.715 116.819C81.715 117.357 81.9288 117.874 82.3095 118.254C82.6902 118.635 83.2066 118.849 83.745 118.849C84.2834 118.849 84.7997 118.635 85.1804 118.254C85.5611 117.874 85.775 117.357 85.775 116.819Z" stroke="#65462C" stroke-width="2"/>
<path d="M68.5349 117.885C68.5349 117.223 68.2721 116.588 67.8042 116.12C67.3363 115.653 66.7016 115.39 66.0399 115.39C65.7123 115.39 65.3878 115.454 65.0851 115.58C64.7824 115.705 64.5074 115.889 64.2757 116.12C64.044 116.352 63.8602 116.627 63.7348 116.93C63.6095 117.233 63.5449 117.557 63.5449 117.885C63.5449 118.212 63.6095 118.537 63.7348 118.839C63.8602 119.142 64.044 119.417 64.2757 119.649C64.5074 119.881 64.7824 120.064 65.0851 120.19C65.3878 120.315 65.7123 120.38 66.0399 120.38C66.7016 120.38 67.3363 120.117 67.8042 119.649C68.2721 119.181 68.5349 118.546 68.5349 117.885Z" stroke="#65462C" stroke-width="2"/>
<path d="M59.95 121.86C59.95 121.502 59.8078 121.158 59.5546 120.905C59.3014 120.652 58.958 120.51 58.6 120.51C58.242 120.51 57.8986 120.652 57.6454 120.905C57.3922 121.158 57.25 121.502 57.25 121.86C57.25 122.218 57.3922 122.561 57.6454 122.814C57.8986 123.068 58.242 123.21 58.6 123.21C58.958 123.21 59.3014 123.068 59.5546 122.814C59.8078 122.561 59.95 122.218 59.95 121.86Z" stroke="#65462C" stroke-width="2"/>
<path d="M74.2499 125.395C74.2499 124.521 73.9028 123.683 73.2848 123.065C72.6669 122.447 71.8288 122.1 70.9549 122.1C70.081 122.1 69.2429 122.447 68.625 123.065C68.0071 123.683 67.6599 124.521 67.6599 125.395C67.6599 126.268 68.0071 127.107 68.625 127.725C69.2429 128.342 70.081 128.69 70.9549 128.69C71.8288 128.69 72.6669 128.342 73.2848 127.725C73.9028 127.107 74.2499 126.268 74.2499 125.395Z" stroke="#65462C" stroke-width="2"/>
<path d="M83.7549 125.414C83.7549 124.991 83.5869 124.586 83.2878 124.286C82.9887 123.987 82.583 123.819 82.1599 123.819C81.7369 123.819 81.3312 123.987 81.0321 124.286C80.733 124.586 80.5649 124.991 80.5649 125.414C80.5649 125.837 80.733 126.243 81.0321 126.542C81.3312 126.841 81.7369 127.009 82.1599 127.009C82.583 127.009 82.9887 126.841 83.2878 126.542C83.5869 126.243 83.7549 125.837 83.7549 125.414Z" stroke="#65462C" stroke-width="2"/>
<path d="M144.89 75.1795C144.89 93.6214 137.564 111.308 124.524 124.348C111.483 137.389 93.7968 144.715 75.3549 144.715C56.9131 144.715 39.2266 137.389 26.1863 124.348C13.1459 111.308 5.81995 93.6214 5.81995 75.1795C5.81995 56.7377 13.1459 39.0512 26.1863 26.0109C39.2266 12.9705 56.9131 5.64453 75.3549 5.64453C93.7968 5.64453 111.483 12.9705 124.524 26.0109C137.564 39.0512 144.89 56.7377 144.89 75.1795ZM127.975 77.4245L128.175 78.3895C128.232 78.6529 128.125 78.7979 127.855 78.8245L117.405 79.8195C117.33 79.8258 117.26 79.8602 117.209 79.9158C117.158 79.9714 117.13 80.0441 117.13 80.1195L117.125 83.0245C117.122 83.2479 117.232 83.3762 117.455 83.4095C120.502 83.8495 123.555 84.2662 126.615 84.6595C127.555 84.7795 128.08 85.2295 127.665 86.2195C127.605 86.3662 127.497 86.4479 127.34 86.4645C126.677 86.5512 126.145 86.5629 125.745 86.4995C122.902 86.0729 120.042 85.6695 117.165 85.2895C116.965 85.2629 116.843 85.3495 116.8 85.5495C116.665 86.1795 116.615 87.1345 116.535 87.5395C115.168 94.4862 114.322 99.0545 113.995 101.245C113.415 105.115 114.77 108.185 117.275 111.39C119.765 114.58 122.507 117.48 125.5 120.09C125.542 120.126 125.59 120.154 125.643 120.171C125.696 120.189 125.752 120.195 125.808 120.19C125.863 120.185 125.917 120.168 125.967 120.141C126.016 120.115 126.06 120.078 126.095 120.035C129.685 115.48 133.125 110.7 135.67 105.68C149.17 79.0495 143.505 46.1395 121.535 25.7645C90.7899 -2.75047 42.3849 3.17453 19.0349 37.6445C8.62995 53.0045 4.97495 73.4695 9.64495 91.4845C11.6649 99.2712 14.9116 106.555 19.3849 113.335C20.6016 115.181 21.9649 116.905 23.4749 118.505C23.4978 118.528 23.5257 118.547 23.5565 118.559C23.5873 118.57 23.6204 118.575 23.6533 118.573C23.6862 118.571 23.7182 118.561 23.747 118.545C23.7758 118.529 23.8007 118.506 23.8199 118.48C26.5733 114.74 29.4583 111.11 32.4749 107.59C34.7549 104.93 34.4399 101.715 33.4649 98.1545C32.5283 94.7345 31.7516 91.2662 31.1349 87.7495C31.1049 87.5895 31.0099 87.5295 30.8499 87.5695C28.2899 88.2029 25.7483 88.8995 23.2249 89.6595C22.4383 89.8962 21.8916 89.6512 21.5849 88.9245C21.5519 88.8451 21.5359 88.7597 21.5379 88.6737C21.54 88.5878 21.56 88.5032 21.5967 88.4254C21.6335 88.3477 21.6861 88.2785 21.7513 88.2224C21.8164 88.1662 21.8926 88.1244 21.9749 88.0995L30.5999 85.4895C30.723 85.4514 30.8284 85.371 30.8971 85.2628C30.9659 85.1546 30.9935 85.0258 30.9749 84.8995L30.6149 82.4445C30.5916 82.2779 30.4949 82.2012 30.3249 82.2145L20.9649 82.9945C20.6883 83.0179 20.5433 82.8912 20.5299 82.6145L20.4899 81.5595C20.4799 81.3395 20.5849 81.2162 20.8049 81.1895L30.3349 80.1195C30.5483 80.0929 30.6599 79.9729 30.6699 79.7595L30.7799 77.1945C30.7899 76.9912 30.6933 76.8812 30.4899 76.8645C29.0799 76.7545 26.1566 76.4429 21.7199 75.9295C20.6999 75.8095 20.1049 75.3579 19.9349 74.5745C19.8849 74.3412 19.9766 74.2062 20.2099 74.1695C20.7999 74.0729 21.3983 74.0645 22.0049 74.1445C24.8849 74.5179 27.7916 74.8079 30.7249 75.0145C30.9049 75.0279 31.0116 74.9479 31.0449 74.7745C32.0216 69.7012 33.5983 64.8295 35.7749 60.1595C36.4899 58.6345 37.1199 56.7895 36.9749 55.3745C36.6616 52.2512 36.5449 49.1262 36.6249 45.9995C36.7449 41.2245 39.7249 34.7445 45.3099 35.5095C48.6449 35.9645 52.2099 39.1845 54.6599 41.7045C56.3799 43.4745 58.3899 43.6595 60.7499 43.5345C69.6649 43.0595 79.3899 42.8945 88.7199 43.9995C94.3299 44.6645 97.405 38.3445 102.3 36.6245C105.14 35.6295 109.125 35.8945 110.415 39.2695C112.162 43.8295 113.057 48.5529 113.1 53.4395C113.11 54.6295 113.252 55.7395 113.525 56.7695C114.828 61.6562 115.882 66.6112 116.685 71.6345C116.697 71.7099 116.724 71.7821 116.764 71.8468C116.805 71.9116 116.858 71.9675 116.92 72.0113C116.983 72.0552 117.054 72.086 117.128 72.102C117.203 72.118 117.28 72.1189 117.355 72.1045C120.14 71.5595 124.395 70.3445 127.14 70.6795C127.33 70.7029 127.455 70.8045 127.515 70.9845L127.78 71.8245C127.85 72.0479 127.77 72.1812 127.54 72.2245L117.385 74.1445C117.277 74.165 117.181 74.2241 117.114 74.3106C117.046 74.3971 117.013 74.5052 117.02 74.6145L117.17 77.4995C117.173 77.5707 117.203 77.6381 117.254 77.6876C117.305 77.737 117.374 77.7646 117.445 77.7645C120.318 77.7745 123.182 77.5362 126.035 77.0495C126.578 76.9562 127.117 76.9712 127.65 77.0945C127.83 77.1345 127.938 77.2445 127.975 77.4245ZM82.9849 93.7495C87.3849 95.4795 89.2299 92.2545 90.9449 88.9895C91.0183 88.8462 91.1233 88.8162 91.2599 88.8995C98.31 93.0795 102.195 105.095 101.505 112.985C101.488 113.155 101.557 113.276 101.71 113.35C108.155 116.57 113.705 121.675 119.425 126.02C119.572 126.13 119.712 126.121 119.845 125.995L123.865 122.195C124.042 122.028 124.043 121.86 123.87 121.69C122.107 119.946 120.418 118.14 118.805 116.27C114.755 111.57 112.12 108.985 111.81 103.69C111.73 102.336 112.038 99.9862 112.735 96.6395C113.485 93.0262 114.168 89.3379 114.785 85.5745C114.848 85.2012 114.693 84.9762 114.32 84.8995C112.755 84.5845 110.965 84.8695 109.845 83.3495C109.742 83.2095 109.733 83.0645 109.82 82.9145C110.425 81.8945 113.665 82.8345 114.58 82.8945C114.79 82.9112 114.9 82.8145 114.91 82.6045L115.035 80.2845C115.038 80.2256 115.027 80.1668 115.005 80.1123C114.982 80.0578 114.948 80.0088 114.905 79.9688C114.862 79.9288 114.81 79.8987 114.754 79.8807C114.698 79.8627 114.638 79.8572 114.58 79.8645C113.365 80.0195 109.84 80.7745 109.39 79.1045C109.362 79.0021 109.356 78.8947 109.374 78.79C109.392 78.6852 109.433 78.5857 109.493 78.4984C109.554 78.4111 109.633 78.3382 109.725 78.2848C109.817 78.2314 109.919 78.1989 110.025 78.1895L114.805 77.7795C114.988 77.7629 115.073 77.6612 115.06 77.4745L114.87 75.1295C114.853 74.9029 114.733 74.8112 114.51 74.8545C113.225 75.0995 109.28 76.5545 108.815 74.6645C108.776 74.5068 108.8 74.3398 108.884 74.2002C108.967 74.0605 109.102 73.9596 109.26 73.9195L114.4 72.6095C114.587 72.5629 114.665 72.4445 114.635 72.2545C113.832 67.1179 112.75 62.0379 111.39 57.0145C111.127 56.0545 111.002 55.0262 111.015 53.9295C111.058 50.2229 110.598 46.5829 109.635 43.0095C106.94 33.0045 99.0999 41.0145 95.2249 44.1045C92.0499 46.6345 89.6049 45.7945 85.8749 45.3795C77.4549 44.4345 68.5949 45.3195 58.0999 45.1245C56.2399 45.0895 54.5199 44.4195 53.3199 43.1795C50.6599 40.4195 45.9399 34.9095 42.2799 37.8945C37.7749 41.5745 38.3799 48.2645 38.9099 54.2545C39.0999 56.3645 39.0366 57.7279 38.7199 58.3445C36.0599 63.5412 34.1783 69.0479 33.0749 74.8645C33.063 74.9285 33.0653 74.9943 33.0818 75.0571C33.0983 75.12 33.1285 75.1783 33.1703 75.2277C33.212 75.2771 33.2642 75.3164 33.323 75.3427C33.3818 75.3689 33.4457 75.3815 33.5099 75.3795C35.1549 75.3445 37.1749 74.7845 37.8499 76.7495C37.8826 76.8452 37.8909 76.9474 37.8742 77.0471C37.8575 77.1467 37.8164 77.2407 37.7544 77.3205C37.6924 77.4003 37.6116 77.4635 37.5192 77.5043C37.4268 77.5452 37.3257 77.5624 37.2249 77.5545L33.1649 77.2395C32.9083 77.2195 32.7983 77.3362 32.8349 77.5895L33.1149 79.4895C33.1483 79.7295 33.2849 79.8279 33.5249 79.7845C34.4249 79.6095 38.8399 78.5195 37.8049 81.0445C37.7416 81.1945 37.6316 81.2795 37.4749 81.2995L33.0149 81.8745C32.8016 81.9012 32.7016 82.0212 32.7149 82.2345L32.8699 84.4195C32.8833 84.6262 32.9899 84.7045 33.1899 84.6545C34.4866 84.3412 35.7783 84.0012 37.0649 83.6345C37.9349 83.3879 38.4316 83.7395 38.5549 84.6895C38.6116 85.1229 38.4283 85.3979 38.0049 85.5145L33.8749 86.6295C33.2949 86.7862 33.0683 87.1579 33.1949 87.7445C33.9716 91.4045 34.8249 95.0162 35.7549 98.5795C36.7399 102.355 36.7199 105.27 34.4749 108.22C31.9899 111.48 28.1699 115.565 25.2749 120.18C25.1749 120.34 25.1933 120.486 25.3299 120.62L29.5599 124.765C29.7466 124.945 29.9249 124.938 30.0949 124.745C34.6516 119.595 40.0499 115.585 46.2899 112.715C46.4499 112.641 46.4949 112.523 46.4249 112.36C43.2999 104.965 46.7849 94.2995 53.4949 89.8545C53.5671 89.8067 53.6489 89.7754 53.7345 89.7626C53.8202 89.7499 53.9078 89.7562 53.9911 89.7809C54.0744 89.8057 54.1515 89.8484 54.2169 89.906C54.2823 89.9636 54.3346 90.0348 54.3699 90.1145C55.9399 93.7095 59.2649 97.3645 63.5799 95.1495C63.7399 95.0662 63.8816 95.0912 64.0049 95.2245C64.8799 96.1845 65.7599 97.3795 66.9949 97.7995C69.6283 98.6895 71.5233 97.8712 72.6799 95.3445C72.8633 94.9379 73.1066 94.8995 73.41 95.2295C74.46 96.3762 75.5449 97.1329 76.6649 97.4995C79.3749 98.3895 81.8499 96.5145 82.6499 93.9095C82.7033 93.7362 82.8149 93.6829 82.9849 93.7495ZM84.8199 96.3545C83.9449 96.3295 83.7099 95.8145 83.0699 96.7545C80.9799 99.8212 78.2599 100.451 74.91 98.6445C74.5799 98.4645 74.1399 97.9645 73.7399 97.7695C73.5733 97.6895 73.4366 97.7245 73.3299 97.8745C70.4299 101.87 66.4749 100.06 63.6299 97.3095C63.5033 97.1895 63.3533 97.1279 63.1799 97.1245C62.2449 97.1045 61.1649 97.3895 60.4399 97.3445C57.8199 97.1945 55.3549 95.2245 54.0349 93.0545C53.9653 92.941 53.8696 92.8456 53.7558 92.7764C53.642 92.7071 53.5134 92.6659 53.3806 92.6561C53.2477 92.6463 53.1144 92.6683 52.9917 92.7202C52.8691 92.7721 52.7605 92.8524 52.6749 92.9545C47.9983 98.5579 46.6033 104.958 48.4899 112.155C48.5299 112.308 48.6283 112.393 48.7849 112.41C55.5899 113.105 55.1249 118.695 53.3699 123.57C53.3441 123.64 53.3365 123.716 53.3479 123.789C53.3592 123.863 53.3892 123.932 53.4349 123.99C56.5949 128.126 60.6983 130.796 65.7449 132C76.865 134.66 85.8849 131.49 94.0049 123.83C94.1349 123.71 94.1649 123.568 94.0949 123.405C92.5799 119.78 90.6649 115.445 95.0999 113.145C96.2599 112.545 97.6999 112.76 99.0049 112.745C99.097 112.743 99.1851 112.708 99.2511 112.644C99.3172 112.581 99.3561 112.495 99.3599 112.405C99.7749 105.065 96.6199 97.6595 92.3099 91.8745C92.2877 91.8441 92.2578 91.8201 92.2233 91.8049C92.1888 91.7897 92.1509 91.7838 92.1134 91.7879C92.0759 91.7919 92.0402 91.8057 92.0097 91.828C91.9793 91.8502 91.9552 91.8801 91.9399 91.9145C90.5799 94.9679 88.2066 96.4479 84.8199 96.3545ZM48.9599 120.65L48.5099 120.2C48.3633 120.05 48.3216 119.876 48.3849 119.68C48.7949 118.4 50.7999 116.6 51.7699 115.6C51.8054 115.563 51.8304 115.517 51.8424 115.467C51.8544 115.417 51.8529 115.365 51.8381 115.316C51.8232 115.268 51.7956 115.224 51.7581 115.19C51.7206 115.157 51.6746 115.134 51.6249 115.125C50.1499 114.84 47.8149 120.195 46.1349 118.075C45.9769 117.876 45.9008 117.625 45.9222 117.373C45.9436 117.121 46.0609 116.887 46.2499 116.72L48.0249 115.145C48.0729 115.102 48.1046 115.044 48.1147 114.981C48.1247 114.918 48.1123 114.853 48.0797 114.798C48.0472 114.743 47.9964 114.701 47.9362 114.68C47.876 114.658 47.8102 114.658 47.7499 114.68C41.9749 116.72 35.3499 121.545 31.8349 126.365C31.7349 126.501 31.7499 126.623 31.8799 126.73C35.8733 130.033 40.1683 132.88 44.7649 135.27C45.1016 135.446 45.3566 135.366 45.5299 135.03C48.2149 129.835 51.2799 124.39 52.5399 118.435C52.6166 118.071 52.5316 118.03 52.2849 118.31L50.2299 120.615C49.8199 121.071 49.3966 121.083 48.9599 120.65ZM98.6999 120.73L97.6249 121.175C97.4149 121.261 97.2333 121.221 97.0799 121.055L94.9899 118.775C94.9622 118.747 94.9263 118.73 94.8878 118.726C94.8493 118.721 94.8105 118.73 94.7773 118.75C94.7441 118.77 94.7186 118.8 94.7046 118.837C94.6906 118.873 94.6889 118.912 94.6999 118.95C96.5699 124.27 99.715 128.815 104.23 135.895C104.31 136.025 104.418 136.056 104.555 135.99C109.175 133.736 113.508 131.025 117.555 127.855C117.722 127.725 117.722 127.593 117.555 127.46C112.28 123.115 105.11 116.865 99.6299 114.8C99.5715 114.779 99.5079 114.778 99.4492 114.798C99.3905 114.818 99.3404 114.858 99.3068 114.91C99.2732 114.962 99.2582 115.024 99.2642 115.085C99.2703 115.147 99.2969 115.205 99.3399 115.25L101.805 117.69C102.018 117.9 102.005 118.095 101.765 118.275L100.63 119.12C100.43 119.266 100.242 119.251 100.065 119.075L96.0649 115.065C95.999 114.998 95.9143 114.954 95.8223 114.937C95.7303 114.92 95.6353 114.931 95.5499 114.97C95.1233 115.163 95.1033 115.47 95.4899 115.89C96.7033 117.2 97.84 118.57 98.8999 120C98.9436 120.058 98.9733 120.126 98.9868 120.197C99.0004 120.269 98.9974 120.343 98.9781 120.413C98.9588 120.484 98.9238 120.549 98.8756 120.604C98.8274 120.658 98.7673 120.701 98.6999 120.73ZM47.5599 136.585C64.8649 144.455 84.6849 144.385 102.14 137.1C102.21 137.07 102.225 137.023 102.185 136.96L95.3949 126.235C95.3049 126.091 95.1966 126.076 95.0699 126.19C86.9749 133.165 77.8499 136.83 66.9899 134.325C61.0866 132.961 56.3749 130.128 52.8549 125.825C52.7416 125.685 52.6466 125.696 52.5699 125.86L47.4849 136.38C47.4383 136.476 47.4633 136.545 47.5599 136.585Z" fill="black"/>
<path d="M127.65 77.0954C127.117 76.9721 126.578 76.9571 126.035 77.0504C123.182 77.5371 120.318 77.7754 117.445 77.7654C117.374 77.7654 117.305 77.7378 117.254 77.6884C117.203 77.639 117.173 77.5716 117.17 77.5004L117.02 74.6154C117.013 74.506 117.047 74.398 117.114 74.3114C117.181 74.2249 117.277 74.1659 117.385 74.1454L127.54 72.2254C127.77 72.1821 127.85 72.0487 127.78 71.8254L127.515 70.9854C127.455 70.8054 127.33 70.7037 127.14 70.6804C124.395 70.3454 120.14 71.5604 117.355 72.1054C117.28 72.1197 117.203 72.1189 117.128 72.1029C117.054 72.0869 116.983 72.056 116.921 72.0122C116.858 71.9683 116.805 71.9124 116.765 71.8477C116.724 71.783 116.697 71.7108 116.685 71.6354C115.882 66.6121 114.828 61.6571 113.525 56.7704C113.252 55.7404 113.11 54.6304 113.1 53.4404C113.057 48.5537 112.162 43.8304 110.415 39.2704C109.125 35.8954 105.14 35.6304 102.3 36.6254C97.405 38.3454 94.33 44.6654 88.72 44.0004C79.39 42.8954 69.665 43.0604 60.75 43.5354C58.39 43.6604 56.38 43.4754 54.66 41.7054C52.21 39.1854 48.645 35.9654 45.31 35.5104C39.725 34.7454 36.745 41.2254 36.625 46.0004C36.545 49.1271 36.6617 52.2521 36.975 55.3754C37.12 56.7904 36.49 58.6354 35.775 60.1604C33.5984 64.8304 32.0217 69.7021 31.045 74.7754C31.0117 74.9487 30.905 75.0287 30.725 75.0154C27.7917 74.8087 24.885 74.5187 22.005 74.1454C21.3984 74.0654 20.8 74.0737 20.21 74.1704C19.9767 74.207 19.885 74.342 19.935 74.5754C20.105 75.3587 20.7 75.8104 21.72 75.9304C26.1567 76.4437 29.08 76.7554 30.49 76.8654C30.6934 76.882 30.79 76.9921 30.78 77.1954L30.67 79.7604C30.66 79.9737 30.5484 80.0937 30.335 80.1204L20.805 81.1904C20.585 81.2171 20.48 81.3404 20.49 81.5604L20.53 82.6154C20.5434 82.8921 20.6884 83.0187 20.965 82.9954L30.325 82.2154C30.495 82.202 30.5917 82.2787 30.615 82.4454L30.975 84.9004C30.9936 85.0266 30.966 85.1555 30.8972 85.2637C30.8284 85.3719 30.723 85.4523 30.6 85.4904L21.975 88.1004C21.8927 88.1252 21.8165 88.1671 21.7514 88.2232C21.6862 88.2794 21.6336 88.3485 21.5968 88.4263C21.5601 88.504 21.54 88.5886 21.538 88.6746C21.536 88.7605 21.552 88.846 21.585 88.9254C21.8917 89.6521 22.4384 89.8971 23.225 89.6604C25.7484 88.9004 28.29 88.2037 30.85 87.5704C31.01 87.5304 31.105 87.5904 31.135 87.7504C31.7517 91.2671 32.5284 94.7354 33.465 98.1554C34.44 101.715 34.755 104.93 32.475 107.59C29.4584 111.11 26.5734 114.74 23.82 118.48C23.8008 118.507 23.7759 118.529 23.7471 118.546C23.7183 118.562 23.6863 118.571 23.6534 118.574C23.6205 118.576 23.5874 118.571 23.5566 118.559C23.5258 118.548 23.4979 118.529 23.475 118.505C21.965 116.905 20.6017 115.182 19.385 113.335C14.9117 106.555 11.665 99.272 9.64502 91.4854C4.97502 73.4704 8.63002 53.0054 19.035 37.6454C42.385 3.17539 90.79 -2.74961 121.535 25.7654C143.505 46.1404 149.17 79.0504 135.67 105.68C133.125 110.7 129.685 115.48 126.095 120.035C126.06 120.079 126.016 120.116 125.967 120.142C125.918 120.169 125.863 120.185 125.808 120.191C125.752 120.196 125.696 120.189 125.643 120.172C125.59 120.155 125.542 120.127 125.5 120.09C122.507 117.48 119.765 114.58 117.275 111.39C114.77 108.185 113.415 105.115 113.995 101.245C114.322 99.0554 115.168 94.4871 116.535 87.5404C116.615 87.1354 116.665 86.1804 116.8 85.5504C116.843 85.3504 116.965 85.2637 117.165 85.2904C120.042 85.6704 122.902 86.0737 125.745 86.5004C126.145 86.5637 126.677 86.552 127.34 86.4654C127.497 86.4487 127.605 86.3671 127.665 86.2204C128.08 85.2304 127.555 84.7804 126.615 84.6604C123.555 84.2671 120.502 83.8504 117.455 83.4104C117.232 83.3771 117.122 83.2487 117.125 83.0254L117.13 80.1204C117.13 80.045 117.158 79.9722 117.209 79.9166C117.26 79.861 117.33 79.8267 117.405 79.8204L127.855 78.8254C128.125 78.7987 128.232 78.6537 128.175 78.3904L127.975 77.4254C127.938 77.2454 127.83 77.1354 127.65 77.0954ZM72.88 18.1554C71.84 19.2204 69.995 20.9504 72.255 22.1954C73.7684 23.0321 75.295 22.9154 76.835 21.8454C76.9617 21.7587 77.1 21.7221 77.25 21.7354L79.245 21.9054C79.5917 21.9354 79.685 21.7971 79.525 21.4904L78.91 20.2904C78.8367 20.1504 78.8467 20.0154 78.94 19.8854L79.805 18.6604C79.9717 18.4237 79.9167 18.2621 79.64 18.1754C78.61 17.8654 78.04 18.7654 77.085 18.7404C76.1217 18.7204 75.9333 18.3271 76.52 17.5604C80.715 12.1204 68.485 11.7104 71.475 16.8754C71.5584 17.0154 71.6717 17.1254 71.815 17.2054L72.825 17.7754C73.0117 17.8787 73.03 18.0054 72.88 18.1554ZM62.485 19.5054L64.975 22.8454C65.0717 22.9721 65.195 23.0637 65.345 23.1204C66.78 23.6254 67.65 23.0554 67.465 21.4854C67.175 19.0987 66.87 16.7187 66.55 14.3454C66.5234 14.1421 66.4084 14.0554 66.205 14.0854L64.09 14.3754C63.9067 14.3987 63.8334 14.5021 63.87 14.6854L64.815 19.1254C64.9584 19.8021 64.8334 19.8554 64.44 19.2854L61.57 15.1304C61.46 14.9704 61.31 14.9087 61.12 14.9454L58.92 15.3254C58.7167 15.3621 58.6384 15.4804 58.685 15.6804L60.53 23.4604C60.572 23.6424 60.6803 23.8021 60.8338 23.9085C60.9873 24.0148 61.1749 24.0601 61.36 24.0354L62.76 23.8504C63 23.8204 63.0834 23.6904 63.01 23.4604C62.5934 22.2071 62.33 20.9221 62.22 19.6054C62.19 19.2654 62.2784 19.2321 62.485 19.5054ZM90.795 21.3354L90.035 20.8154C89.8717 20.7021 89.72 20.7154 89.58 20.8554L88.515 21.9204C88.3884 22.0504 88.2334 22.1204 88.05 22.1304C84.79 22.3254 85.775 15.1654 89.465 17.1904C89.615 17.2737 89.7167 17.3971 89.77 17.5604C90.06 18.4304 90.6734 18.8271 91.61 18.7504C91.84 18.7304 91.9484 18.6071 91.935 18.3804C91.565 11.9604 82.75 14.2004 84.265 21.3854C84.965 24.7154 90.015 24.8704 90.94 21.7554C90.9934 21.5787 90.945 21.4387 90.795 21.3354ZM56.15 23.4654C54.935 22.1854 54.21 19.2004 53.72 17.4704C53.7046 17.4159 53.6784 17.3651 53.6429 17.321C53.6073 17.2769 53.5633 17.2404 53.5133 17.2138C53.4633 17.1872 53.4085 17.171 53.3521 17.1661C53.2957 17.1612 53.2388 17.1678 53.185 17.1854L51.155 17.8304C50.985 17.8837 50.9234 17.9971 50.97 18.1704C51.475 20.0904 52.92 24.4454 54.8 25.3904C56.535 26.2604 59.02 25.0054 59.51 23.1854C59.94 21.5904 58.515 17.7354 58.01 16.0304C57.96 15.8604 57.85 15.7954 57.68 15.8354L55.64 16.3154C55.42 16.3687 55.3467 16.5037 55.42 16.7204C55.845 17.9604 57.755 22.5654 56.72 23.4904C56.641 23.5605 56.5376 23.597 56.4314 23.5924C56.3252 23.5877 56.2244 23.5422 56.15 23.4654ZM95.47 24.6754L95.815 26.6254C95.8517 26.8254 95.97 26.9104 96.17 26.8804L97.15 26.7454C97.3467 26.7187 97.4567 26.6087 97.48 26.4154L98.515 18.0304C98.5417 17.8237 98.455 17.6854 98.255 17.6154L95.97 16.8054C95.7434 16.7254 95.5634 16.7854 95.43 16.9854L90.86 23.9254C90.75 24.0954 90.75 24.2637 90.86 24.4304C91.17 24.9037 91.6167 25.1371 92.2 25.1304C92.3967 25.1271 92.5467 25.0404 92.65 24.8704C93.24 23.8937 94.0534 23.6604 95.09 24.1704C95.3034 24.2737 95.43 24.4421 95.47 24.6754ZM106.005 23.4704C106.85 23.8404 108.21 24.4504 108.6 23.0704C108.64 22.932 108.632 22.7841 108.578 22.6508C108.523 22.5174 108.425 22.4063 108.3 22.3354C106.31 21.2004 103.43 19.4004 101.46 19.0904C101.23 19.0537 101.082 19.1471 101.015 19.3704L100.73 20.2854C100.66 20.5087 100.727 20.6771 100.93 20.7904L102.69 21.7954C102.86 21.8954 102.922 22.0404 102.875 22.2304C102.355 24.3954 100.945 26.3204 100.14 28.4404C100.04 28.7037 100.13 28.8371 100.41 28.8404L102.15 28.8654C102.373 28.8687 102.538 28.7721 102.645 28.5754L105.15 23.7754C105.228 23.625 105.359 23.5097 105.518 23.453C105.677 23.3963 105.851 23.4025 106.005 23.4704ZM44.185 22.3204L47.69 28.6454C47.8226 28.8815 48.0432 29.0555 48.3036 29.1295C48.564 29.2035 48.8431 29.1715 49.08 29.0404L51.615 27.6404C51.9092 27.4772 52.1691 27.2591 52.3798 26.9983C52.5906 26.7376 52.7481 26.4395 52.8432 26.1209C52.9384 25.8024 52.9695 25.4697 52.9346 25.1418C52.8997 24.814 52.7996 24.4975 52.64 24.2104L50.565 20.4704C50.4062 20.183 50.1911 19.9304 49.9317 19.7271C49.6724 19.5239 49.3741 19.3738 49.0537 19.2856C48.7333 19.1974 48.3972 19.1727 48.0646 19.213C47.7319 19.2533 47.4093 19.3577 47.115 19.5204L44.585 20.9254C44.467 20.9906 44.3631 21.0785 44.2791 21.1839C44.1952 21.2894 44.1328 21.4103 44.0956 21.5399C44.0585 21.6695 44.0473 21.8051 44.0626 21.9391C44.0779 22.073 44.1195 22.2026 44.185 22.3204Z" fill="#FF0000"/>
<path d="M72.825 17.7754L71.815 17.2054C71.6717 17.1254 71.5584 17.0154 71.475 16.8754C68.485 11.7104 80.715 12.1204 76.52 17.5604C75.9334 18.3271 76.1217 18.7204 77.085 18.7404C78.04 18.7654 78.61 17.8654 79.64 18.1754C79.9167 18.2621 79.9717 18.4238 79.805 18.6604L78.94 19.8854C78.8467 20.0154 78.8367 20.1504 78.91 20.2904L79.525 21.4904C79.685 21.7971 79.5917 21.9354 79.245 21.9054L77.25 21.7354C77.1 21.7221 76.9617 21.7588 76.835 21.8454C75.295 22.9154 73.7684 23.0321 72.255 22.1954C69.995 20.9504 71.84 19.2204 72.88 18.1554C73.03 18.0054 73.0117 17.8788 72.825 17.7754ZM75.0115 16.1653C75.082 16.09 75.1329 15.9979 75.1615 15.8942C75.1901 15.7905 75.1957 15.6772 75.178 15.5609C75.1604 15.4445 75.1198 15.3273 75.0586 15.216C74.9974 15.1047 74.9168 15.0015 74.8214 14.9122C74.6287 14.7319 74.3874 14.6194 74.1506 14.5994C73.9137 14.5794 73.7008 14.6536 73.5585 14.8056C73.4881 14.8809 73.4371 14.973 73.4086 15.0767C73.38 15.1804 73.3744 15.2937 73.392 15.41C73.4097 15.5264 73.4503 15.6435 73.5115 15.7548C73.5727 15.8661 73.6533 15.9694 73.7487 16.0586C73.9414 16.2389 74.1827 16.3515 74.4195 16.3715C74.6563 16.3915 74.8693 16.3173 75.0115 16.1653ZM75.834 20.106C75.8419 19.9312 75.7438 19.7587 75.5611 19.6265C75.3784 19.4943 75.1262 19.4132 74.86 19.4011C74.5937 19.389 74.3352 19.4469 74.1413 19.562C73.9474 19.6771 73.834 19.84 73.8261 20.0148C73.8181 20.1897 73.9163 20.3622 74.099 20.4944C74.2816 20.6266 74.5338 20.7076 74.8001 20.7197C75.0663 20.7318 75.3248 20.674 75.5187 20.5589C75.7126 20.4438 75.826 20.2809 75.834 20.106Z" fill="black"/>
<path d="M62.2199 19.6049C62.3299 20.9216 62.5933 22.2066 63.0099 23.4599C63.0833 23.6899 62.9999 23.8199 62.7599 23.8499L61.3599 24.0349C61.1748 24.0596 60.9872 24.0143 60.8337 23.908C60.6802 23.8016 60.5719 23.6419 60.5299 23.4599L58.6849 15.6799C58.6383 15.4799 58.7166 15.3616 58.9199 15.3249L61.1199 14.9449C61.3099 14.9082 61.4599 14.9699 61.5699 15.1299L64.4399 19.2849C64.8333 19.8549 64.9583 19.8016 64.8149 19.1249L63.8699 14.6849C63.8333 14.5016 63.9066 14.3982 64.0899 14.3749L66.2049 14.0849C66.4083 14.0549 66.5233 14.1416 66.5499 14.3449C66.8699 16.7182 67.1749 19.0982 67.4649 21.4849C67.6499 23.0549 66.7799 23.6249 65.3449 23.1199C65.1949 23.0632 65.0716 22.9716 64.9749 22.8449L62.4849 19.5049C62.2783 19.2316 62.1899 19.2649 62.2199 19.6049Z" fill="black"/>
<path d="M73.7486 16.0586C74.1499 16.4341 74.7153 16.4819 75.0115 16.1653C75.3077 15.8488 75.2226 15.2878 74.8214 14.9123C74.4201 14.5368 73.8547 14.489 73.5585 14.8056C73.2622 15.1222 73.3474 15.6832 73.7486 16.0586Z" fill="#FF0000"/>
<path d="M90.035 20.8155L90.795 21.3355C90.945 21.4388 90.9933 21.5788 90.94 21.7555C90.015 24.8705 84.965 24.7155 84.265 21.3855C82.75 14.2005 91.565 11.9605 91.935 18.3805C91.9483 18.6071 91.84 18.7305 91.61 18.7505C90.6733 18.8271 90.06 18.4305 89.77 17.5605C89.7167 17.3971 89.615 17.2738 89.465 17.1905C85.775 15.1655 84.79 22.3255 88.05 22.1305C88.2333 22.1205 88.3883 22.0505 88.515 21.9205L89.58 20.8555C89.72 20.7155 89.8717 20.7021 90.035 20.8155Z" fill="black"/>
<path d="M56.15 23.4647C56.2244 23.5415 56.3252 23.587 56.4314 23.5917C56.5376 23.5963 56.641 23.5598 56.72 23.4897C57.755 22.5647 55.845 17.9597 55.42 16.7197C55.3467 16.503 55.42 16.368 55.64 16.3147L57.68 15.8347C57.85 15.7947 57.96 15.8597 58.01 16.0297C58.515 17.7347 59.94 21.5897 59.51 23.1847C59.02 25.0047 56.535 26.2597 54.8 25.3897C52.92 24.4447 51.475 20.0897 50.97 18.1697C50.9234 17.9963 50.985 17.883 51.155 17.8297L53.185 17.1847C53.2388 17.167 53.2957 17.1605 53.3521 17.1654C53.4085 17.1702 53.4633 17.1865 53.5133 17.2131C53.5633 17.2397 53.6074 17.2762 53.6429 17.3203C53.6784 17.3644 53.7046 17.4152 53.72 17.4697C54.21 19.1997 54.935 22.1847 56.15 23.4647Z" fill="black"/>
<path d="M95.09 24.1698C94.0533 23.6598 93.24 23.8931 92.65 24.8698C92.5466 25.0398 92.3966 25.1265 92.2 25.1298C91.6166 25.1365 91.17 24.9031 90.86 24.4298C90.75 24.2631 90.75 24.0948 90.86 23.9248L95.43 16.9848C95.5633 16.7848 95.7433 16.7248 95.97 16.8048L98.255 17.6148C98.455 17.6848 98.5416 17.8231 98.515 18.0298L97.48 26.4148C97.4566 26.6081 97.3466 26.7181 97.15 26.7448L96.17 26.8798C95.97 26.9098 95.8516 26.8248 95.815 26.6248L95.47 24.6748C95.43 24.4415 95.3033 24.2731 95.09 24.1698ZM94.62 22.6398L95.435 22.9148C95.4847 22.9307 95.5387 22.9266 95.5854 22.9032C95.6321 22.8799 95.6679 22.8391 95.685 22.7898L95.745 22.6198C95.903 22.1532 95.995 21.6852 96.0006 21.3187C96.0062 20.9522 95.9251 20.717 95.775 20.6648L95.715 20.6448C95.6403 20.6195 95.551 20.64 95.452 20.7052C95.3531 20.7704 95.2464 20.879 95.1383 21.0248C95.0301 21.1706 94.9224 21.3507 94.8215 21.5549C94.7205 21.7591 94.6283 21.9833 94.55 22.2148L94.495 22.3848C94.4863 22.4097 94.4827 22.4361 94.4843 22.4625C94.4859 22.4889 94.4927 22.5146 94.5044 22.5383C94.516 22.562 94.5322 22.5832 94.552 22.6006C94.5719 22.618 94.595 22.6313 94.62 22.6398Z" fill="black"/>
<path d="M106.005 23.4698C105.851 23.4019 105.677 23.3957 105.518 23.4524C105.36 23.509 105.228 23.6244 105.15 23.7748L102.645 28.5748C102.538 28.7715 102.373 28.8681 102.15 28.8648L100.41 28.8398C100.13 28.8365 100.04 28.7031 100.14 28.4398C100.945 26.3198 102.355 24.3948 102.875 22.2298C102.922 22.0398 102.86 21.8948 102.69 21.7948L100.93 20.7898C100.727 20.6765 100.66 20.5081 100.73 20.2848L101.015 19.3698C101.082 19.1465 101.23 19.0531 101.46 19.0898C103.43 19.3998 106.31 21.1998 108.3 22.3348C108.425 22.4057 108.523 22.5168 108.578 22.6502C108.632 22.7835 108.64 22.9314 108.6 23.0698C108.21 24.4498 106.85 23.8398 106.005 23.4698Z" fill="black"/>
<path d="M44.185 22.3195C44.1195 22.2017 44.0779 22.0721 44.0626 21.9382C44.0472 21.8043 44.0585 21.6686 44.0956 21.5391C44.1328 21.4095 44.1951 21.2885 44.2791 21.183C44.3631 21.0776 44.467 20.9897 44.585 20.9245L47.115 19.5195C47.4093 19.3569 47.7319 19.2524 48.0646 19.2121C48.3972 19.1719 48.7333 19.1965 49.0537 19.2847C49.374 19.373 49.6724 19.523 49.9317 19.7263C50.191 19.9296 50.4062 20.1821 50.565 20.4695L52.64 24.2095C52.7996 24.4966 52.8997 24.8132 52.9346 25.141C52.9695 25.4688 52.9384 25.8015 52.8432 26.12C52.748 26.4386 52.5906 26.7368 52.3798 26.9975C52.1691 27.2582 51.9092 27.4764 51.615 27.6395L49.08 29.0395C48.8431 29.1706 48.564 29.2026 48.3035 29.1286C48.0431 29.0546 47.8225 28.8806 47.69 28.6445L44.185 22.3195ZM48.6903 21.6724C48.5618 21.512 48.36 21.4211 48.1294 21.4196C47.8987 21.4182 47.6581 21.5063 47.4604 21.6647C47.3626 21.7431 47.2782 21.8364 47.2121 21.9392C47.146 22.0421 47.0996 22.1524 47.0753 22.2641C47.0511 22.3757 47.0497 22.4863 47.071 22.5897C47.0923 22.6931 47.1361 22.7872 47.1997 22.8666C47.3282 23.027 47.53 23.118 47.7606 23.1194C47.9913 23.1209 48.2319 23.0327 48.4295 22.8744C48.5274 22.796 48.6118 22.7027 48.6779 22.5998C48.744 22.497 48.7904 22.3866 48.8146 22.275C48.8388 22.1634 48.8403 22.0527 48.819 21.9493C48.7977 21.846 48.7539 21.7519 48.6903 21.6724ZM50.7473 25.3793C50.6975 25.2721 50.6223 25.1779 50.526 25.1023C50.4296 25.0266 50.314 24.9709 50.1858 24.9383C50.0575 24.9057 49.9191 24.8968 49.7785 24.9123C49.6378 24.9277 49.4977 24.9671 49.366 25.0282C49.2344 25.0893 49.1139 25.1709 49.0113 25.2684C48.9088 25.3658 48.8262 25.4773 48.7683 25.5963C48.7104 25.7153 48.6784 25.8395 48.674 25.962C48.6696 26.0844 48.6929 26.2026 48.7427 26.3098C48.7925 26.417 48.8677 26.5111 48.964 26.5868C49.0603 26.6624 49.1759 26.7182 49.3042 26.7508C49.4325 26.7834 49.5709 26.7922 49.7115 26.7768C49.8522 26.7614 49.9923 26.722 50.1239 26.6609C50.2556 26.5998 50.3761 26.5182 50.4787 26.4207C50.5812 26.3232 50.6638 26.2118 50.7217 26.0928C50.7796 25.9738 50.8116 25.8495 50.816 25.7271C50.8204 25.6047 50.7971 25.4865 50.7473 25.3793Z" fill="black"/>
<path d="M74.8 20.7197C75.3545 20.7449 75.8174 20.4701 75.8339 20.106C75.8505 19.7418 75.4144 19.4262 74.8599 19.4011C74.3054 19.3759 73.8426 19.6507 73.826 20.0148C73.8095 20.3789 74.2456 20.6945 74.8 20.7197Z" fill="#FF0000"/>
<path d="M94.62 22.6403C94.595 22.6318 94.5719 22.6185 94.5521 22.6011C94.5322 22.5837 94.516 22.5625 94.5044 22.5388C94.4928 22.5151 94.486 22.4893 94.4844 22.463C94.4828 22.4366 94.4864 22.4102 94.495 22.3853L94.55 22.2153C94.6284 21.9838 94.7206 21.7596 94.8216 21.5554C94.9225 21.3512 95.0301 21.1711 95.1383 21.0253C95.2465 20.8795 95.3531 20.7709 95.4521 20.7057C95.551 20.6405 95.6404 20.62 95.715 20.6453L95.775 20.6653C95.9252 20.7175 96.0063 20.9527 96.0007 21.3192C95.9951 21.6857 95.9031 22.1536 95.745 22.6203L95.685 22.7903C95.6679 22.8396 95.6322 22.8803 95.5855 22.9037C95.5388 22.9271 95.4848 22.9312 95.435 22.9153L94.62 22.6403Z" fill="#FF0000"/>
<path d="M48.4295 22.8753C48.8411 22.5455 48.9579 22.0074 48.6903 21.6733C48.4227 21.3393 47.872 21.3358 47.4604 21.6656C47.0488 21.9954 46.932 22.5335 47.1997 22.8675C47.4673 23.2016 48.0179 23.205 48.4295 22.8753Z" fill="#FF0000"/>
<path d="M50.1239 26.6616C50.6775 26.4046 50.9565 25.8308 50.7473 25.38C50.538 24.9291 49.9196 24.7719 49.3661 25.0289C48.8125 25.2858 48.5334 25.8596 48.7427 26.3105C48.952 26.7613 49.5704 26.9185 50.1239 26.6616Z" fill="#FF0000"/>
<path d="M82.6501 93.9099C81.8501 96.5149 79.375 98.3899 76.6651 97.4999C75.5451 97.1333 74.4601 96.3766 73.4101 95.2299C73.1067 94.8999 72.8634 94.9383 72.68 95.3449C71.5234 97.8716 69.6284 98.6899 66.9951 97.7999C65.7601 97.3799 64.88 96.1849 64.005 95.2249C63.8817 95.0916 63.7401 95.0666 63.5801 95.1499C59.2651 97.3649 55.94 93.7099 54.37 90.1149C54.3347 90.0352 54.2824 89.964 54.217 89.9064C54.1516 89.8487 54.0745 89.8061 53.9912 89.7813C53.9079 89.7566 53.8203 89.7503 53.7346 89.763C53.649 89.7757 53.5672 89.8071 53.495 89.8549C46.785 94.2999 43.3 104.965 46.425 112.36C46.495 112.523 46.4501 112.642 46.2901 112.715C40.0501 115.585 34.6517 119.595 30.095 124.745C29.925 124.938 29.7467 124.945 29.5601 124.765L25.3301 120.62C25.1934 120.487 25.1751 120.34 25.2751 120.18C28.1701 115.565 31.99 111.48 34.475 108.22C36.72 105.27 36.7401 102.355 35.7551 98.5799C34.8251 95.0166 33.9717 91.4049 33.1951 87.7449C33.0684 87.1583 33.2951 86.7866 33.8751 86.6299L38.0051 85.5149C38.4284 85.3983 38.6117 85.1233 38.5551 84.6899C38.4317 83.7399 37.935 83.3883 37.065 83.6349C35.7784 84.0016 34.4867 84.3416 33.19 84.6549C32.99 84.7049 32.8834 84.6266 32.87 84.4199L32.7151 82.2349C32.7017 82.0216 32.8017 81.9016 33.015 81.8749L37.475 81.2999C37.6317 81.2799 37.7417 81.1949 37.8051 81.0449C38.8401 78.5199 34.4251 79.6099 33.5251 79.7849C33.2851 79.8283 33.1484 79.7299 33.1151 79.4899L32.835 77.5899C32.7984 77.3366 32.9084 77.2199 33.1651 77.2399L37.225 77.5549C37.3258 77.5628 37.4269 77.5456 37.5193 77.5047C37.6117 77.4639 37.6926 77.4007 37.7545 77.3209C37.8165 77.2411 37.8577 77.1471 37.8743 77.0475C37.891 76.9478 37.8827 76.8456 37.85 76.7499C37.175 74.7849 35.155 75.3449 33.51 75.3799C33.4458 75.3819 33.3819 75.3693 33.3231 75.3431C33.2643 75.3168 33.2121 75.2775 33.1704 75.2281C33.1286 75.1786 33.0984 75.1204 33.0819 75.0575C33.0654 74.9947 33.0631 74.9289 33.0751 74.8649C34.1784 69.0483 36.0601 63.5416 38.7201 58.3449C39.0367 57.7283 39.1 56.3649 38.9101 54.2549C38.3801 48.2649 37.775 41.5749 42.28 37.8949C45.94 34.9099 50.66 40.4199 53.32 43.1799C54.5201 44.4199 56.24 45.0899 58.1 45.1249C68.595 45.3199 77.455 44.4349 85.875 45.3799C89.605 45.7949 92.05 46.6349 95.2251 44.1049C99.1001 41.0149 106.94 33.0049 109.635 43.0099C110.598 46.5833 111.058 50.2233 111.015 53.9299C111.002 55.0266 111.127 56.0549 111.39 57.0149C112.75 62.0383 113.832 67.1183 114.635 72.2549C114.665 72.4449 114.587 72.5633 114.4 72.6099L109.26 73.9199C109.102 73.96 108.967 74.0609 108.884 74.2006C108.8 74.3402 108.776 74.5071 108.815 74.6649C109.28 76.5549 113.225 75.0999 114.51 74.8549C114.733 74.8116 114.853 74.9033 114.87 75.1299L115.06 77.4749C115.073 77.6616 114.988 77.7633 114.805 77.7799L110.025 78.1899C109.919 78.1993 109.817 78.2318 109.725 78.2852C109.633 78.3385 109.554 78.4115 109.493 78.4988C109.433 78.5861 109.392 78.6856 109.374 78.7903C109.356 78.8951 109.362 79.0025 109.39 79.1049C109.84 80.7749 113.365 80.0199 114.58 79.8649C114.639 79.8576 114.698 79.8631 114.754 79.8811C114.81 79.8991 114.862 79.9292 114.905 79.9692C114.949 80.0092 114.983 80.0582 115.005 80.1127C115.027 80.1672 115.038 80.226 115.035 80.2849L114.91 82.6049C114.9 82.8149 114.79 82.9116 114.58 82.8949C113.665 82.8349 110.425 81.8949 109.82 82.9149C109.733 83.0649 109.742 83.2099 109.845 83.3499C110.965 84.8699 112.755 84.5849 114.32 84.8999C114.693 84.9766 114.848 85.2016 114.785 85.5749C114.168 89.3383 113.485 93.0266 112.735 96.6399C112.038 99.9866 111.73 102.337 111.81 103.69C112.12 108.985 114.755 111.57 118.805 116.27C120.418 118.14 122.107 119.947 123.87 121.69C124.043 121.86 124.042 122.028 123.865 122.195L119.845 125.995C119.712 126.122 119.572 126.13 119.425 126.02C113.705 121.675 108.155 116.57 101.71 113.35C101.557 113.277 101.488 113.155 101.505 112.985C102.195 105.095 98.3101 93.0799 91.2601 88.8999C91.1234 88.8166 91.0184 88.8466 90.9451 88.9899C89.2301 92.2549 87.3851 95.4799 82.9851 93.7499C82.8151 93.6833 82.7034 93.7366 82.6501 93.9099ZM51.1301 45.3549C49.9551 43.8549 47.1351 40.8799 45.3651 40.6399C40.9051 40.0399 38.8451 52.1649 44.6151 52.0299C47.1501 51.9699 54.3801 49.5049 51.1301 45.3549ZM107.59 49.9799C108.655 42.8549 103.965 37.7299 98.3201 45.0949C95.2251 49.1349 100.69 51.0799 103.575 52.0199C105.73 52.7199 107.22 52.4649 107.59 49.9799ZM66.8601 69.0849C64.68 64.7449 58.5251 65.5349 56.1851 68.8099C55.7051 69.4799 55.655 70.3399 56.515 70.6949C56.6817 70.7616 56.8084 70.7166 56.8951 70.5599C58.8801 66.9549 62.7701 66.6799 65.405 69.7249C65.885 70.2816 66.3584 70.2283 66.825 69.5649C66.935 69.4116 66.9467 69.2516 66.8601 69.0849ZM93.7751 69.4549C90.8751 62.7749 80.9851 68.6599 83.9001 70.5599C84.0567 70.6633 84.1984 70.6466 84.325 70.5099C87.035 67.5299 90.4351 66.7499 93.0601 70.5099C93.1701 70.6699 93.3117 70.7033 93.4851 70.6099C93.6717 70.5133 93.7884 70.2716 93.8351 69.8849C93.855 69.7349 93.8351 69.5916 93.7751 69.4549ZM79.6651 75.3849C78.7401 71.7849 73.0101 72.2749 70.4951 73.3799C69.7351 73.7099 69.2917 74.3333 69.1651 75.2499C69.1417 75.4233 69.0434 75.4966 68.8701 75.4699C67.6601 75.2933 66.8717 75.2666 66.505 75.3899C62.555 76.6999 58.955 78.9899 54.635 80.2799C51.27 81.2899 50.405 76.8149 53.76 77.1249C54.0467 77.1516 54.0784 77.0749 53.855 76.8949C51.055 74.6049 46.96 77.7799 47.16 80.7549C47.2567 82.1949 47.93 83.6166 49.18 85.0199C52.8 89.0949 59.2001 88.8849 64.3551 87.9149C68.9617 87.0483 72.6334 84.7233 75.3701 80.9399C75.4701 80.7999 75.5734 80.7999 75.68 80.9399C79.8251 86.4199 86.34 88.5699 92.9351 87.3399C97.6301 86.4649 104.105 81.5399 99.0851 76.5299C97.9384 75.3866 96.4867 75.1433 94.7301 75.7999C94.2267 75.9899 94.2417 76.0566 94.7751 75.9999C96.3501 75.8449 97.4801 77.2749 96.6201 78.5449C95.4601 80.2499 92.2301 79.3499 90.8551 78.3949C87.5451 76.0899 84.3301 74.7049 80.0401 75.6149C79.84 75.6583 79.715 75.5816 79.6651 75.3849Z" fill="white"/>
<path d="M45.365 40.6397C47.135 40.8797 49.955 43.8547 51.13 45.3547C54.38 49.5047 47.15 51.9697 44.615 52.0297C38.845 52.1647 40.905 40.0397 45.365 40.6397ZM50.0349 46.9447C49.3699 46.0697 46.61 42.8997 45.58 42.8597C45.2367 42.8452 44.9096 42.9008 44.6455 43.0184C44.3815 43.1361 44.194 43.3098 44.1099 43.5147C43.3833 45.2747 43.1116 47.0214 43.2949 48.7547C43.6649 52.2947 49.005 48.5197 50.005 47.4697C50.0707 47.3996 50.1097 47.3086 50.1152 47.2127C50.1207 47.1167 50.0923 47.0219 50.0349 46.9447Z" fill="black"/>
<path d="M98.32 45.0946C103.965 37.7296 108.655 42.8546 107.59 49.9796C107.22 52.4646 105.73 52.7196 103.575 52.0196C100.69 51.0796 95.225 49.1346 98.32 45.0946ZM105.27 50.1246C105.585 49.1046 106.025 41.4846 103.02 43.3896C101.545 44.3246 97.4399 47.4946 100.715 49.1746C101.812 49.738 102.99 50.2296 104.25 50.6496C104.351 50.6843 104.458 50.6981 104.564 50.6903C104.671 50.6825 104.775 50.6533 104.87 50.6043C104.965 50.5553 105.05 50.4876 105.118 50.4052C105.187 50.3228 105.239 50.2274 105.27 50.1246Z" fill="black"/>
<path d="M45.58 42.8597C46.61 42.8997 49.37 46.0697 50.035 46.9447C50.0924 47.0218 50.1208 47.1167 50.1153 47.2126C50.1098 47.3086 50.0708 47.3996 50.005 47.4697C49.005 48.5197 43.665 52.2947 43.295 48.7547C43.1117 47.0213 43.3834 45.2747 44.11 43.5147C44.1941 43.3098 44.3816 43.1361 44.6456 43.0184C44.9097 42.9007 45.2368 42.8452 45.58 42.8597Z" fill="#9F9F9E"/>
<path d="M103.02 43.3903C106.025 41.4853 105.585 49.1053 105.27 50.1253C105.239 50.228 105.187 50.3234 105.118 50.4058C105.05 50.4882 104.965 50.5559 104.87 50.6049C104.775 50.6539 104.671 50.6832 104.564 50.691C104.458 50.6988 104.351 50.6849 104.25 50.6503C102.99 50.2303 101.812 49.7386 100.715 49.1753C97.44 47.4953 101.545 44.3253 103.02 43.3903Z" fill="#9F9F9E"/>
<path d="M56.185 68.8102C58.525 65.5352 64.68 64.7452 66.86 69.0852C66.9466 69.2519 66.935 69.4119 66.825 69.5652C66.3583 70.2286 65.885 70.2819 65.405 69.7252C62.77 66.6802 58.88 66.9552 56.895 70.5602C56.8083 70.7169 56.6816 70.7619 56.515 70.6952C55.655 70.3402 55.705 69.4802 56.185 68.8102Z" fill="black"/>
<path d="M83.9 70.5604C80.985 68.6604 90.875 62.7754 93.775 69.4554C93.835 69.5921 93.855 69.7354 93.835 69.8854C93.7883 70.2721 93.6717 70.5138 93.485 70.6104C93.3117 70.7038 93.17 70.6704 93.06 70.5104C90.435 66.7504 87.035 67.5304 84.325 70.5104C84.1983 70.6471 84.0567 70.6638 83.9 70.5604Z" fill="black"/>
<path d="M80.04 75.6149C84.33 74.7049 87.545 76.0899 90.855 78.3949C92.23 79.3499 95.46 80.2499 96.62 78.5449C97.48 77.2749 96.35 75.8449 94.775 75.9999C94.2417 76.0566 94.2267 75.9899 94.73 75.7999C96.4867 75.1433 97.9383 75.3866 99.085 76.5299C104.105 81.5399 97.63 86.4649 92.935 87.3399C86.34 88.5699 79.825 86.4199 75.68 80.9399C75.5733 80.7999 75.47 80.7999 75.37 80.9399C72.6333 84.7233 68.9617 87.0483 64.355 87.9149C59.2 88.8849 52.8 89.0949 49.18 85.0199C47.93 83.6166 47.2567 82.1949 47.16 80.7549C46.96 77.7799 51.055 74.6049 53.855 76.8949C54.0783 77.0749 54.0467 77.1516 53.76 77.1249C50.405 76.8149 51.27 81.2899 54.635 80.2799C58.955 78.9899 62.555 76.6999 66.505 75.3899C66.8717 75.2666 67.66 75.2933 68.87 75.4699C69.0433 75.4966 69.1417 75.4233 69.165 75.2499C69.2917 74.3333 69.735 73.7099 70.495 73.3799C73.01 72.2749 78.74 71.7849 79.665 75.3849C79.715 75.5816 79.84 75.6583 80.04 75.6149ZM77.79 75.1649C77.62 73.4899 72.2 73.8749 71.25 74.9449C71.1074 75.1061 71.0278 75.3135 71.026 75.5293C71.0242 75.7451 71.1001 75.9548 71.24 76.1199C72.2033 77.2499 73.37 78.1166 74.74 78.7199C74.8867 78.7866 75.0283 78.7749 75.165 78.6849C76.095 78.0649 77.905 76.3699 77.79 75.1649Z" fill="black"/>
<path d="M71.25 74.9447C72.2 73.8747 77.62 73.4897 77.79 75.1647C77.905 76.3697 76.095 78.0647 75.165 78.6847C75.0284 78.7747 74.8867 78.7864 74.74 78.7197C73.37 78.1164 72.2034 77.2497 71.24 76.1197C71.1002 75.9546 71.0242 75.7449 71.026 75.5291C71.0279 75.3133 71.1074 75.1059 71.25 74.9447Z" fill="#9F9F9E"/>
<path d="M84.82 96.355C88.2067 96.4484 90.58 94.9684 91.94 91.915C91.9553 91.8806 91.9793 91.8507 92.0098 91.8285C92.0402 91.8062 92.076 91.7924 92.1135 91.7884C92.151 91.7843 92.1889 91.7902 92.2233 91.8054C92.2578 91.8206 92.2877 91.8446 92.31 91.875C96.62 97.66 99.775 105.065 99.36 112.405C99.3562 112.496 99.3172 112.582 99.2512 112.645C99.1852 112.708 99.0971 112.744 99.005 112.745C97.7 112.76 96.26 112.545 95.1 113.145C90.665 115.445 92.58 119.78 94.095 123.405C94.165 123.568 94.135 123.71 94.005 123.83C85.885 131.49 76.865 134.66 65.745 132C60.6983 130.797 56.595 128.127 53.435 123.99C53.3893 123.932 53.3593 123.863 53.3479 123.79C53.3365 123.716 53.3441 123.641 53.37 123.57C55.125 118.695 55.59 113.105 48.785 112.41C48.6283 112.393 48.53 112.308 48.49 112.155C46.6033 104.958 47.9983 98.5584 52.675 92.955C52.7605 92.8529 52.8691 92.7726 52.9918 92.7207C53.1145 92.6688 53.2478 92.6468 53.3806 92.6566C53.5135 92.6664 53.6421 92.7076 53.7559 92.7769C53.8697 92.8461 53.9653 92.9415 54.035 93.055C55.355 95.225 57.82 97.195 60.44 97.345C61.165 97.39 62.245 97.105 63.18 97.125C63.3533 97.1284 63.5033 97.19 63.63 97.31C66.475 100.06 70.43 101.87 73.33 97.875C73.4367 97.725 73.5733 97.69 73.74 97.77C74.14 97.965 74.58 98.465 74.91 98.645C78.26 100.452 80.98 99.8217 83.07 96.755C83.71 95.815 83.945 96.33 84.82 96.355ZM57.27 101.57C57.27 100.984 57.0372 100.422 56.6227 100.007C56.2083 99.5929 55.6461 99.36 55.06 99.36C54.4739 99.36 53.9118 99.5929 53.4973 100.007C53.0829 100.422 52.85 100.984 52.85 101.57C52.85 102.156 53.0829 102.718 53.4973 103.133C53.9118 103.547 54.4739 103.78 55.06 103.78C55.6461 103.78 56.2083 103.547 56.6227 103.133C57.0372 102.718 57.27 102.156 57.27 101.57ZM93.39 103.25C93.39 102.371 93.0408 101.528 92.4191 100.906C91.7974 100.284 90.9542 99.935 90.075 99.935C89.1958 99.935 88.3526 100.284 87.731 100.906C87.1093 101.528 86.76 102.371 86.76 103.25C86.76 104.129 87.1093 104.972 87.731 105.594C88.3526 106.216 89.1958 106.565 90.075 106.565C90.9542 106.565 91.7974 106.216 92.4191 105.594C93.0408 104.972 93.39 104.129 93.39 103.25ZM70.04 104.07C70.04 103.707 69.8957 103.358 69.6387 103.101C69.3818 102.844 69.0334 102.7 68.67 102.7C68.3067 102.7 67.9582 102.844 67.7013 103.101C67.4443 103.358 67.3 103.707 67.3 104.07C67.3 104.433 67.4443 104.782 67.7013 105.039C67.9582 105.296 68.3067 105.44 68.67 105.44C69.0334 105.44 69.3818 105.296 69.6387 105.039C69.8957 104.782 70.04 104.433 70.04 104.07ZM79.585 105.02C79.585 104.504 79.3801 104.009 79.0153 103.645C78.6506 103.28 78.1559 103.075 77.64 103.075C77.1242 103.075 76.6294 103.28 76.2647 103.645C75.8999 104.009 75.695 104.504 75.695 105.02C75.695 105.275 75.7453 105.528 75.8431 105.764C75.9408 106 76.0841 106.215 76.2647 106.395C76.4453 106.576 76.6597 106.719 76.8957 106.817C77.1317 106.915 77.3846 106.965 77.64 106.965C77.8954 106.965 78.1483 106.915 78.3843 106.817C78.6203 106.719 78.8347 106.576 79.0153 106.395C79.1959 106.215 79.3392 106 79.437 105.764C79.5347 105.528 79.585 105.275 79.585 105.02ZM64.015 108.8C64.015 107.922 63.6663 107.08 63.0455 106.46C62.4248 105.839 61.5829 105.49 60.705 105.49C59.8271 105.49 58.9852 105.839 58.3645 106.46C57.7437 107.08 57.395 107.922 57.395 108.8C57.395 109.678 57.7437 110.52 58.3645 111.141C58.9852 111.761 59.8271 112.11 60.705 112.11C61.5829 112.11 62.4248 111.761 63.0455 111.141C63.6663 110.52 64.015 109.678 64.015 108.8ZM93.09 111.315C93.09 110.801 92.8856 110.307 92.5218 109.943C92.158 109.579 91.6645 109.375 91.15 109.375C90.6355 109.375 90.142 109.579 89.7782 109.943C89.4144 110.307 89.21 110.801 89.21 111.315C89.21 111.83 89.4144 112.323 89.7782 112.687C90.142 113.051 90.6355 113.255 91.15 113.255C91.6645 113.255 92.158 113.051 92.5218 112.687C92.8856 112.323 93.09 111.83 93.09 111.315ZM74.34 113.07C74.34 112.644 74.1709 112.236 73.8699 111.935C73.5689 111.634 73.1607 111.465 72.735 111.465C72.3093 111.465 71.9011 111.634 71.6001 111.935C71.2991 112.236 71.13 112.644 71.13 113.07C71.13 113.496 71.2991 113.904 71.6001 114.205C71.9011 114.506 72.3093 114.675 72.735 114.675C73.1607 114.675 73.5689 114.506 73.8699 114.205C74.1709 113.904 74.34 113.496 74.34 113.07ZM85.775 116.82C85.775 116.282 85.5611 115.765 85.1804 115.385C84.7997 115.004 84.2834 114.79 83.745 114.79C83.2066 114.79 82.6903 115.004 82.3096 115.385C81.9289 115.765 81.715 116.282 81.715 116.82C81.715 117.358 81.9289 117.875 82.3096 118.255C82.6903 118.636 83.2066 118.85 83.745 118.85C84.2834 118.85 84.7997 118.636 85.1804 118.255C85.5611 117.875 85.775 117.358 85.775 116.82ZM68.535 117.885C68.535 117.223 68.2721 116.589 67.8042 116.121C67.3363 115.653 66.7017 115.39 66.04 115.39C65.7124 115.39 65.3879 115.455 65.0852 115.58C64.7825 115.705 64.5075 115.889 64.2758 116.121C64.0441 116.352 63.8603 116.628 63.7349 116.93C63.6095 117.233 63.545 117.557 63.545 117.885C63.545 118.213 63.6095 118.537 63.7349 118.84C63.8603 119.143 64.0441 119.418 64.2758 119.649C64.5075 119.881 64.7825 120.065 65.0852 120.19C65.3879 120.316 65.7124 120.38 66.04 120.38C66.7017 120.38 67.3363 120.117 67.8042 119.649C68.2721 119.181 68.535 118.547 68.535 117.885ZM59.95 121.86C59.95 121.502 59.8078 121.159 59.5546 120.905C59.3014 120.652 58.9581 120.51 58.6 120.51C58.242 120.51 57.8986 120.652 57.6454 120.905C57.3922 121.159 57.25 121.502 57.25 121.86C57.25 122.218 57.3922 122.561 57.6454 122.815C57.8986 123.068 58.242 123.21 58.6 123.21C58.9581 123.21 59.3014 123.068 59.5546 122.815C59.8078 122.561 59.95 122.218 59.95 121.86ZM74.25 125.395C74.25 124.521 73.9029 123.683 73.2849 123.065C72.667 122.447 71.8289 122.1 70.955 122.1C70.0811 122.1 69.243 122.447 68.6251 123.065C68.0072 123.683 67.66 124.521 67.66 125.395C67.66 126.269 68.0072 127.107 68.6251 127.725C69.243 128.343 70.0811 128.69 70.955 128.69C71.8289 128.69 72.667 128.343 73.2849 127.725C73.9029 127.107 74.25 126.269 74.25 125.395ZM83.755 125.415C83.755 124.992 83.587 124.586 83.2878 124.287C82.9887 123.988 82.583 123.82 82.16 123.82C81.737 123.82 81.3313 123.988 81.0322 124.287C80.7331 124.586 80.565 124.992 80.565 125.415C80.565 125.838 80.7331 126.244 81.0322 126.543C81.3313 126.842 81.737 127.01 82.16 127.01C82.583 127.01 82.9887 126.842 83.2878 126.543C83.587 126.244 83.755 125.838 83.755 125.415Z" fill="#C98B57"/>
<path d="M55.06 103.78C56.2805 103.78 57.27 102.791 57.27 101.57C57.27 100.35 56.2805 99.3604 55.06 99.3604C53.8394 99.3604 52.85 100.35 52.85 101.57C52.85 102.791 53.8394 103.78 55.06 103.78Z" fill="black"/>
<path d="M90.075 106.565C91.9058 106.565 93.39 105.08 93.39 103.25C93.39 101.419 91.9058 99.9346 90.075 99.9346C88.2442 99.9346 86.76 101.419 86.76 103.25C86.76 105.08 88.2442 106.565 90.075 106.565Z" fill="black"/>
<path d="M68.67 105.44C69.4267 105.44 70.04 104.827 70.04 104.07C70.04 103.314 69.4267 102.7 68.67 102.7C67.9134 102.7 67.3 103.314 67.3 104.07C67.3 104.827 67.9134 105.44 68.67 105.44Z" fill="black"/>
<path d="M77.6399 106.965C78.7141 106.965 79.5849 106.094 79.5849 105.02C79.5849 103.946 78.7141 103.075 77.6399 103.075C76.5658 103.075 75.6949 103.946 75.6949 105.02C75.6949 106.094 76.5658 106.965 77.6399 106.965Z" fill="black"/>
<path d="M60.705 112.11C62.5331 112.11 64.015 110.628 64.015 108.8C64.015 106.972 62.5331 105.49 60.705 105.49C58.877 105.49 57.395 106.972 57.395 108.8C57.395 110.628 58.877 112.11 60.705 112.11Z" fill="black"/>
<path d="M91.15 113.255C92.2214 113.255 93.09 112.386 93.09 111.315C93.09 110.244 92.2214 109.375 91.15 109.375C90.0785 109.375 89.21 110.244 89.21 111.315C89.21 112.386 90.0785 113.255 91.15 113.255Z" fill="black"/>
<path d="M72.735 114.675C73.6214 114.675 74.34 113.956 74.34 113.07C74.34 112.183 73.6214 111.465 72.735 111.465C71.8486 111.465 71.13 112.183 71.13 113.07C71.13 113.956 71.8486 114.675 72.735 114.675Z" fill="black"/>
<path d="M48.96 120.65C49.3967 121.084 49.82 121.072 50.23 120.615L52.285 118.31C52.5317 118.03 52.6167 118.072 52.54 118.435C51.28 124.39 48.215 129.835 45.53 135.03C45.3567 135.367 45.1017 135.447 44.765 135.27C40.1683 132.88 35.8733 130.034 31.88 126.73C31.75 126.624 31.735 126.502 31.835 126.365C35.35 121.545 41.975 116.72 47.75 114.68C47.8102 114.659 47.8761 114.659 47.9363 114.68C47.9965 114.702 48.0472 114.744 48.0798 114.799C48.1124 114.854 48.1247 114.919 48.1147 114.982C48.1047 115.045 48.073 115.103 48.025 115.145L46.25 116.72C46.0609 116.888 45.9436 117.121 45.9222 117.373C45.9008 117.626 45.977 117.877 46.135 118.075C47.815 120.195 50.15 114.84 51.625 115.125C51.6746 115.135 51.7206 115.157 51.7581 115.191C51.7956 115.225 51.8233 115.268 51.8381 115.317C51.853 115.366 51.8545 115.418 51.8425 115.468C51.8305 115.517 51.8054 115.563 51.77 115.6C50.8 116.6 48.795 118.4 48.385 119.68C48.3217 119.877 48.3633 120.05 48.51 120.2L48.96 120.65Z" fill="white"/>
<path d="M83.745 118.85C84.8661 118.85 85.775 117.941 85.775 116.82C85.775 115.699 84.8661 114.79 83.745 114.79C82.6238 114.79 81.715 115.699 81.715 116.82C81.715 117.941 82.6238 118.85 83.745 118.85Z" fill="black"/>
<path d="M98.7 120.73C98.7673 120.702 98.8274 120.659 98.8756 120.604C98.9238 120.549 98.9589 120.484 98.9782 120.414C98.9974 120.343 99.0004 120.27 98.9869 120.198C98.9733 120.126 98.9436 120.059 98.9 120C97.84 118.57 96.7033 117.2 95.49 115.89C95.1033 115.47 95.1233 115.163 95.55 114.97C95.6353 114.932 95.7303 114.92 95.8223 114.937C95.9143 114.954 95.999 114.999 96.065 115.065L100.065 119.075C100.242 119.252 100.43 119.267 100.63 119.12L101.765 118.275C102.005 118.095 102.018 117.9 101.805 117.69L99.34 115.25C99.297 115.205 99.2703 115.148 99.2643 115.086C99.2583 115.024 99.2732 114.962 99.3068 114.91C99.3404 114.858 99.3906 114.819 99.4492 114.799C99.5079 114.779 99.5716 114.779 99.63 114.8C105.11 116.865 112.28 123.115 117.555 127.46C117.722 127.593 117.722 127.725 117.555 127.855C113.508 131.025 109.175 133.737 104.555 135.99C104.418 136.057 104.31 136.025 104.23 135.895C99.715 128.815 96.57 124.27 94.7 118.95C94.689 118.913 94.6906 118.873 94.7046 118.837C94.7186 118.801 94.7442 118.77 94.7773 118.75C94.8105 118.73 94.8494 118.722 94.8879 118.726C94.9263 118.731 94.9622 118.748 94.99 118.775L97.08 121.055C97.2333 121.222 97.415 121.262 97.625 121.175L98.7 120.73Z" fill="white"/>
<path d="M66.04 120.38C67.418 120.38 68.535 119.263 68.535 117.885C68.535 116.507 67.418 115.39 66.04 115.39C64.6621 115.39 63.545 116.507 63.545 117.885C63.545 119.263 64.6621 120.38 66.04 120.38Z" fill="black"/>
<path d="M58.6 123.21C59.3456 123.21 59.95 122.605 59.95 121.86C59.95 121.114 59.3456 120.51 58.6 120.51C57.8544 120.51 57.25 121.114 57.25 121.86C57.25 122.605 57.8544 123.21 58.6 123.21Z" fill="black"/>
<path d="M70.955 128.69C72.7748 128.69 74.25 127.214 74.25 125.395C74.25 123.575 72.7748 122.1 70.955 122.1C69.1353 122.1 67.66 123.575 67.66 125.395C67.66 127.214 69.1353 128.69 70.955 128.69Z" fill="black"/>
<path d="M82.1601 127.01C83.041 127.01 83.7551 126.296 83.7551 125.415C83.7551 124.534 83.041 123.82 82.1601 123.82C81.2792 123.82 80.5651 124.534 80.5651 125.415C80.5651 126.296 81.2792 127.01 82.1601 127.01Z" fill="black"/>
<path d="M47.5599 136.585C47.4633 136.545 47.4383 136.477 47.4849 136.38L52.5699 125.86C52.6466 125.697 52.7416 125.685 52.8549 125.825C56.3749 130.129 61.0866 132.962 66.9899 134.325C77.8499 136.83 86.9749 133.165 95.07 126.19C95.1966 126.077 95.305 126.092 95.3949 126.235L102.185 136.96C102.225 137.024 102.21 137.07 102.14 137.1C84.685 144.385 64.865 144.455 47.5599 136.585Z" fill="white"/>
</svg>
