<svg width="228" height="67" viewBox="0 0 228 67" fill="none" xmlns="http://www.w3.org/2000/svg">
<path d="M38.587 16.1287L38.5697 16.1113L38.587 16.1287Z" fill="white"/>
<path d="M38.521 64.0254C38.5695 64.0574 38.6503 64.1213 38.715 64.1693C38.6503 64.1213 38.5857 64.0734 38.521 64.0254Z" fill="white"/>
<path d="M46.2189 0.134766C41.9981 0.134766 38.5858 3.50922 38.5858 7.6833V14.6241C38.5858 15.1519 38.133 15.5837 37.5993 15.5837C37.47 15.5837 37.3568 15.5677 37.2436 15.5197C37.2436 15.5197 37.2597 15.5197 37.2759 15.5197C34.0739 14.2083 30.5808 13.4726 26.8936 13.4726C12.0318 13.4726 0 25.3232 0 39.9565C0 54.5898 12.0318 66.4243 26.8775 66.4243C29.6752 66.4243 32.3759 66.2324 34.8987 65.4488C35.9336 65.1289 36.9525 64.7451 37.9389 64.2973C37.9875 64.2813 38.2786 64.1374 38.4564 64.1374C38.6182 64.1374 38.7637 64.1854 38.8769 64.2653C38.8769 64.2653 38.8769 64.2653 38.8607 64.2653C41.5776 66.0725 44.9898 66.1525 45.4912 66.1525C45.7014 66.1525 45.6852 66.1525 45.6852 66.1525C45.6852 66.1525 45.6852 66.1525 45.7014 66.1525C49.9869 66.1525 53.7064 62.826 53.8358 58.6039V7.6833C53.8358 3.52521 50.4235 0.134766 46.2027 0.134766H46.2189ZM38.5373 64.0254C38.3594 64.1214 38.1653 64.2014 37.9875 64.2813C38.1653 64.2014 38.3594 64.1054 38.5373 64.0254C38.602 64.0734 38.6667 64.1214 38.7314 64.1694C38.6667 64.1214 38.5858 64.0574 38.5373 64.0254ZM40.8822 54.2379C33.7019 57.5804 28.9313 54.174 30.322 51.4872C31.3409 49.5201 34.4297 45.314 33.7019 41.8436C32.8287 37.7175 28.8666 34.519 24.6134 32.408C20.3602 30.3129 16.8025 28.1379 17.6434 23.0522C18.4035 18.5103 23.5461 16.975 28.1712 16.975C28.1712 16.975 31.8422 16.991 33.6049 17.4228C34.7208 17.6947 35.0765 17.8546 34.1548 18.6223C33.3947 19.246 31.6158 20.7013 33.2815 22.6524C36.063 25.9149 42.3215 25.5631 46.7687 30.5208C48.7093 32.6798 50.0678 36.1822 50.0678 39.1569C50.0678 39.1569 51.0704 49.5201 40.8984 54.2379H40.8822Z" fill="white"/>
<path d="M94.249 1.73438V42.8995C94.249 45.9221 94.3137 49.3765 94.5401 51.6954H88.9123L88.6212 45.7782H88.4757C86.5512 49.5844 82.4274 52.4631 76.7997 52.4631C68.4712 52.4631 62.0025 45.4903 62.0025 35.159C61.9378 23.7563 69.1181 16.8634 77.4465 16.8634C82.7832 16.8634 86.341 19.3263 87.8288 21.9971H87.9744V1.73438H94.2328H94.249ZM87.9905 31.4967C87.9905 30.6491 87.9258 29.6736 87.6994 28.8259C86.7776 24.9557 83.3654 21.7252 78.6594 21.7252C72.1907 21.7252 68.3418 27.3546 68.3418 34.8072C68.3418 41.78 71.8349 47.4734 78.5139 47.4734C82.7185 47.4734 86.5512 44.6587 87.6994 40.0848C87.9097 39.2372 87.9905 38.3895 87.9905 37.414V31.4967Z" fill="white"/>
<path d="M104.405 11.378C102.06 11.378 100.491 9.55488 100.491 7.36388C100.491 5.17289 102.125 3.42969 104.55 3.42969C106.976 3.42969 108.529 5.18888 108.529 7.36388C108.529 9.53888 106.96 11.378 104.469 11.378H104.405ZM101.413 51.6955V17.6472H107.671V51.7115H101.413V51.6955Z" fill="white"/>
<path d="M140.015 43.5394C140.015 46.498 140.161 49.3767 140.516 51.6957H134.905L134.339 47.4096H134.129C132.285 50.0804 128.517 52.4793 123.601 52.4793C116.631 52.4793 113.073 47.6175 113.073 42.6918C113.073 34.4556 120.48 29.9616 133.773 30.0256V29.3219C133.773 26.5072 132.997 21.3736 125.946 21.4375C122.679 21.4375 119.331 22.3491 116.906 23.9644L115.483 19.8063C118.329 18.0471 122.533 16.8477 126.868 16.8477C137.476 16.8477 140.031 23.9484 140.031 30.7773V43.5074L140.015 43.5394ZM133.902 34.3116C127.078 34.1677 119.315 35.3672 119.315 41.9881C119.315 46.0662 122.016 47.9054 125.153 47.9054C129.698 47.9054 132.625 45.0907 133.627 42.212C133.838 41.5723 133.902 40.8686 133.902 40.2449V34.3276V34.3116Z" fill="white"/>
<path d="M146.322 1.73438H152.58V51.6954H146.322V1.73438Z" fill="white"/>
<path d="M174.154 52.4789C164.903 52.4789 157.642 45.73 157.642 34.951C157.642 23.5482 165.259 16.8633 174.72 16.8633C184.18 16.8633 191.296 23.964 191.296 34.3113C191.296 46.9775 182.401 52.4629 174.218 52.4629H174.154V52.4789ZM174.364 47.8411C180.347 47.8411 184.827 42.2756 184.827 34.5352C184.827 28.7618 181.916 21.5171 174.509 21.5171C167.103 21.5171 163.982 28.266 163.982 34.7431C163.982 42.2116 168.251 47.8251 174.299 47.8251H174.364V47.8411Z" fill="white"/>
<path d="M226.744 46.7062C226.744 54.5906 225.111 59.3084 221.828 62.331C218.416 65.3536 213.58 66.4091 209.23 66.4091C204.88 66.4091 200.546 65.4176 197.781 63.5944L199.349 58.8126C201.629 60.284 205.187 61.5634 209.457 61.5634C215.861 61.5634 220.567 58.2529 220.567 49.6009V45.8746H220.421C218.577 49.0411 214.793 51.568 209.457 51.568C200.918 51.568 194.805 44.3873 194.805 34.8876C194.805 23.3409 202.422 16.8799 210.378 16.8799C216.362 16.8799 219.564 19.9025 221.116 22.7172H221.262L221.472 17.6475H227.019C226.809 20.0464 226.728 22.7812 226.728 26.9393V46.7062H226.744ZM220.486 31.0174C220.486 30.0258 220.421 29.1143 220.13 28.2667C218.998 24.6043 216.006 21.6457 211.381 21.6457C205.397 21.6457 201.128 26.6354 201.128 34.5997C201.128 41.2207 204.621 46.8501 211.3 46.8501C215.214 46.8501 218.707 44.4512 219.984 40.4531C220.34 39.4615 220.486 38.2621 220.486 37.1426V31.0174Z" fill="white"/>
</svg>
