<svg width="75" height="147" viewBox="0 0 75 147" fill="none" xmlns="http://www.w3.org/2000/svg">
<path d="M70.2408 66.0231C62.0606 74.7431 53.331 83.0401 44.7493 91.3699C44.2014 91.9012 43.6575 91.9051 43.1175 91.3815C41.3237 89.6411 39.5314 87.8999 37.7407 86.1579C37.4308 85.8541 36.9988 86.1135 36.7194 86.3917C35.2104 87.8875 33.7038 89.3848 32.1996 90.8837C31.5023 91.5779 30.8284 92.2416 29.9503 91.3699C26.6913 88.1352 23.3933 84.9426 20.0561 81.7921C17.1446 79.0451 11.8735 73.7163 4.24274 65.8058C4.15352 65.7123 4.05647 65.5471 3.9516 65.3103C3.91873 65.2339 3.92108 65.1591 3.95864 65.0859C4.18091 64.6605 4.46501 64.2788 4.81094 63.9407C7.19331 61.6051 8.79695 60.0251 9.62186 59.2009C10.0586 58.7615 9.76274 58.5184 9.42229 58.1982C7.83352 56.6993 6.27527 55.1723 4.74755 53.6173C4.15117 53.0097 3.59706 52.3412 4.39536 51.5466C10.4342 45.5354 16.3933 39.4003 22.5871 33.5456C22.9487 33.202 22.6411 32.7206 22.3312 32.4097C16.3722 26.4499 10.4397 20.4628 4.53389 14.4485C3.39279 13.2869 4.1277 12.8265 5.06452 11.9243C8.96522 8.16303 12.8597 4.39627 16.7478 0.624052C17.1799 0.206475 17.7081 -0.00153367 18.3327 2.44538e-05C35.4069 0.0514425 52.4881 0.0888374 69.5623 2.44538e-05C70.485 -0.00464991 70.586 0.661448 70.6 1.44674C70.6877 6.93289 70.6963 12.419 70.6259 17.9052C70.6227 18.0781 70.6493 18.6998 70.7057 19.7703C70.748 20.6093 70.6212 21.5746 70.6118 22.2687C70.5961 23.5417 70.6016 24.8139 70.6282 26.0853C70.6517 27.2983 69.8229 27.9294 68.8485 26.9641C66.9967 25.1286 65.1708 23.2682 63.3708 21.3829C63.2815 21.2894 63.0577 21.1274 62.6992 20.8968C62.6351 20.8547 62.5638 20.8337 62.4856 20.8337C55.016 20.8493 47.5472 20.8337 40.0793 20.7869C40.0434 20.7869 40.0079 20.7909 39.9736 20.7986C39.4132 20.9279 39.295 21.1539 39.6191 21.4764C43.0001 24.863 46.3412 28.287 49.7833 31.6104C56.125 37.7338 62.4668 43.876 68.602 50.2097C69.1021 50.7262 71.2058 52.208 70.3347 53.0891C68.555 54.8864 66.632 56.6043 64.904 58.4132C64.8541 58.4654 64.8152 58.5269 64.7894 58.5941C64.7636 58.6613 64.7514 58.733 64.7536 58.8049C64.7558 58.8769 64.7723 58.9477 64.8021 59.0132C64.8319 59.0788 64.8745 59.1378 64.9274 59.1869C66.726 60.8603 68.4846 62.5462 70.2032 64.2445C70.7934 64.8272 70.8059 65.4201 70.2408 66.0231ZM23.3056 1.65942C22.7515 1.6454 20.6172 1.44674 20.258 1.78329C20.0796 1.95313 20.0796 2.12219 20.258 2.29046C25.9791 7.6878 31.5453 13.0914 36.9565 18.5012C37.9262 19.4688 38.7386 19.1299 39.936 19.1299C46.8139 19.133 53.6957 19.1338 60.5814 19.1322C60.6769 19.1322 60.7278 19.0847 60.734 18.9896C60.7497 18.7699 60.6589 18.5643 60.4617 18.3726C53.8843 11.9983 48.2469 6.57997 43.5495 2.11751C42.8357 1.43739 42.1478 1.71552 41.2884 1.71785C35.3012 1.72954 29.2882 1.81134 23.3056 1.65942ZM68.8367 24.1665C69.0739 22.7759 69.2782 20.441 68.1652 19.3542C61.6051 12.9488 55.6414 7.19933 50.274 2.10583C49.525 1.39532 47.2475 1.63839 46.2567 1.70149C46.1659 1.70773 46.1338 1.75369 46.1604 1.83939C46.2402 2.09648 46.3811 2.32007 46.583 2.51016C50.9862 6.63451 55.3487 10.8025 59.6704 15.0141C63.1172 18.3726 65.5332 21.3081 68.6677 24.2226C68.681 24.2351 68.6974 24.2439 68.7153 24.2478C68.7332 24.2518 68.7518 24.2508 68.7691 24.245C68.7865 24.2393 68.802 24.2289 68.8139 24.2151C68.8258 24.2013 68.8337 24.1845 68.8367 24.1665ZM62.2555 1.73655L52.8919 1.67578C52.8628 1.67497 52.8195 1.70109 52.7684 1.75031C52.7173 1.79952 52.661 1.86924 52.6078 1.94924C52.5891 1.97728 52.744 2.24372 52.8074 2.30215C57.5001 6.65554 62.1224 11.0814 66.6743 15.5797C66.9404 15.843 67.2088 16.0837 67.4796 16.3019C67.4946 16.3135 67.5128 16.3203 67.5317 16.3215C67.5507 16.3226 67.5695 16.318 67.5855 16.3082C67.6015 16.2984 67.6139 16.284 67.621 16.267C67.6282 16.2499 67.6296 16.2311 67.6252 16.2131C67.5016 15.6506 67.3482 15.1138 67.165 14.6027C65.6686 10.4503 64.2004 6.28237 62.7603 2.09882C62.7239 1.99372 62.6558 1.90244 62.5654 1.83756C62.475 1.77268 62.3667 1.73739 62.2555 1.73655ZM68.818 14.0044C68.9048 13.4528 68.9917 12.92 68.9847 12.345C68.9401 8.9304 68.8931 5.51811 68.8532 2.10349C68.8501 1.81835 68.7045 1.67501 68.4165 1.67345L64.9251 1.6641C64.8427 1.6642 64.7621 1.70014 64.6979 1.76536C64.6336 1.83058 64.5901 1.92072 64.5752 2.01935C64.5565 2.14088 64.5635 2.32318 64.6152 2.46108C65.9981 6.28705 67.1721 10.2719 68.7452 14.0138C68.7481 14.0218 68.7536 14.0286 68.7609 14.0331C68.7682 14.0375 68.7769 14.0393 68.7853 14.0382C68.7938 14.0371 68.8017 14.0332 68.8076 14.0271C68.8136 14.0209 68.8172 14.0129 68.818 14.0044ZM42.028 26.0923C33.6577 17.3372 25.5549 9.86995 18.1214 2.61767C17.7942 2.29825 17.4921 2.27566 17.2151 2.54989C13.6384 6.09462 9.98344 9.63545 6.25023 13.1724C6.18847 13.2306 6.14939 13.3087 6.13993 13.3926C6.13047 13.4764 6.15125 13.5608 6.19857 13.6305C6.34258 13.8471 6.5445 14.087 6.80434 14.3503C12.0872 19.7336 17.3841 25.1021 22.6952 30.4559C23.693 31.4608 24.7449 32.0825 25.1394 33.5503C25.983 36.6977 26.5677 38.9422 26.8933 40.2837C26.9872 40.6701 27.0967 40.9919 27.222 41.249C27.2595 41.3269 27.3175 41.3471 27.3957 41.3097C28.3936 40.833 29.4149 39.4984 30.5302 38.4163C32.7592 36.2521 36.6035 32.4432 42.0633 26.9898C42.345 26.7094 42.3333 26.4102 42.028 26.0923ZM43.7585 28.2916C39.4876 36.7499 35.4843 45.0703 31.0491 53.6103C30.5983 54.4774 30.5537 55.05 30.812 55.9452C32.9674 63.4452 34.8598 71.0714 36.5527 78.6883C36.7108 79.4004 36.9354 80.0961 37.2265 80.7754C37.261 80.8549 37.2923 80.8533 37.3204 80.7707C37.6335 79.8764 37.9004 78.968 38.1211 78.0456C41.6641 63.2839 45.456 48.5737 49.1329 33.8448C49.1986 33.5783 49.1493 33.1226 48.9803 32.959C47.4932 31.5177 46.0305 30.0531 44.592 28.5651C44.4057 28.3703 44.2288 28.2402 44.0614 28.1748C43.9252 28.1218 43.8242 28.1607 43.7585 28.2916ZM28.1353 43.2776C27.9553 43.4599 27.8982 43.7085 27.9639 44.0232C28.5822 46.979 29.1833 49.5795 29.7671 51.8247C29.8063 51.9727 29.8728 51.986 29.9667 51.8645C30.2672 51.4765 30.5928 50.9109 30.9434 50.1677C32.9768 45.8641 35.9297 39.9962 39.8022 32.564C39.9806 32.2228 40.1168 31.8566 40.2107 31.4655C40.2436 31.3253 40.2037 31.3011 40.091 31.3931C39.6543 31.746 39.1706 32.0989 38.7691 32.5056C35.2269 36.0986 31.6823 39.6893 28.1353 43.2776ZM43.0752 89.1449C43.31 89.3879 43.5644 89.5562 43.8383 89.6497C43.9197 89.6777 43.9925 89.6637 44.0567 89.6076C44.9348 88.8504 45.874 87.7916 46.5102 87.1746C53.7184 80.188 60.8389 73.1133 67.8717 65.9507C68.2591 65.5533 68.6607 65.2402 68.1018 64.7026C66.5866 63.2489 65.0808 61.7866 63.5844 60.3157C63.1054 59.8459 62.1334 58.9438 62.88 58.2286C64.6206 56.5645 66.3487 54.8864 68.0643 53.1943C68.3859 52.8765 68.6677 52.409 68.3108 52.0468C64.8907 48.5784 59.2587 43.005 51.4151 35.3265C51.2241 35.1396 51.0425 34.9947 50.8704 34.8918C50.8459 34.8768 50.8183 34.8676 50.7896 34.8652C50.7609 34.8627 50.732 34.867 50.7052 34.8776C50.6783 34.8883 50.6542 34.905 50.6348 34.9266C50.6154 34.9481 50.6012 34.9738 50.5933 35.0017C50.0603 36.9486 49.6025 39.2063 49.1822 40.868C45.5476 55.237 42.0656 69.6481 38.3817 84.0007C38.3097 84.2859 38.3488 84.5001 38.4991 84.6434C40.6044 86.6706 42.1298 88.171 43.0752 89.1449ZM8.68034 55.2277C9.14366 55.7029 9.76117 56.3277 10.5329 57.1021C11.2372 57.8079 11.5636 57.3779 12.1013 56.845C16.5874 52.3825 21.0469 47.8928 25.4798 43.3758C26.0997 42.7448 25.7522 42.3638 25.5573 41.6884C25.0063 39.775 24.5093 37.8484 24.0663 35.9085C24.0123 35.6771 23.8668 35.4457 23.7682 35.2354C23.7502 35.1966 23.723 35.1628 23.689 35.1368C23.6551 35.1108 23.6152 35.0933 23.573 35.086C23.5308 35.0786 23.4874 35.0816 23.4465 35.0946C23.4057 35.1076 23.3686 35.1302 23.3385 35.1606L6.35588 52.1706C6.27239 52.2545 6.22267 52.3659 6.21617 52.4836C6.20968 52.6012 6.24687 52.7169 6.32066 52.8087C7.02739 53.7015 8.07927 54.6106 8.68034 55.2277ZM17.2245 76.6503C17.3278 76.7578 17.4311 76.7586 17.5344 76.6526C17.7379 76.4469 17.9234 76.1696 18.0909 75.8206C21.3044 69.1144 24.6361 62.4675 28.086 55.8797C28.4382 55.2043 28.7481 54.44 28.5744 53.795C27.895 51.249 27.2478 48.6945 26.6326 46.1313C26.5591 45.826 26.48 45.6211 26.3955 45.5167C26.2124 45.2892 26.0167 45.2783 25.8085 45.4839C19.3094 51.9252 12.862 58.4436 6.32536 64.9106C6.26995 64.9653 6.23468 65.0368 6.2253 65.1137C6.21592 65.1905 6.23298 65.268 6.27371 65.3336C6.40519 65.5502 6.57424 65.7621 6.78086 65.9694C10.2292 69.444 13.7104 73.0043 17.2245 76.6503ZM19.1521 78.4733L30.5607 89.6474C30.6437 89.7288 30.7544 89.7755 30.8688 89.7772C30.9832 89.779 31.0919 89.7357 31.1712 89.6567L36.2146 84.6131C36.2803 84.5461 36.3053 84.4666 36.2897 84.3747C35.8107 81.5327 34.8246 78.8098 34.3808 76.9354C32.8594 70.5269 31.2643 64.1362 29.5957 57.7635C29.5269 57.5033 29.3915 57.395 29.1895 57.4386C29.1617 57.4444 29.1356 57.4565 29.1132 57.4739C29.0908 57.4913 29.0728 57.5137 29.0604 57.5391L19.0418 77.8282C18.9897 77.9336 18.9723 78.0527 18.9921 78.1685C19.0119 78.2843 19.0679 78.391 19.1521 78.4733Z" fill="white"/>
<path d="M44.6429 13.3153C44.6429 13.5727 44.5389 13.8196 44.3539 14.0016C44.1689 14.1836 43.9179 14.2859 43.6562 14.2859H37.4152C37.1536 14.2859 36.9026 14.1836 36.7176 14.0016C36.5325 13.8196 36.4286 13.5727 36.4286 13.3153V7.39924C36.4286 7.14184 36.5325 6.89498 36.7176 6.71297C36.9026 6.53096 37.1536 6.42871 37.4152 6.42871H43.6562C43.9179 6.42871 44.1689 6.53096 44.3539 6.71297C44.5389 6.89498 44.6429 7.14184 44.6429 7.39924V13.3153ZM40.0991 7.99364C40.0325 7.994 39.9675 8.01387 39.9124 8.0507C39.8574 8.08754 39.8147 8.13967 39.7899 8.20046C39.7651 8.26124 39.7592 8.32791 39.7731 8.39198C39.7869 8.45605 39.8199 8.5146 39.8677 8.56017L42.4996 11.0446C42.5478 11.0899 42.6087 11.12 42.6745 11.1311C42.7402 11.1422 42.8079 11.1338 42.8687 11.1068C42.9296 11.0799 42.9808 11.0357 43.016 10.98C43.0512 10.9242 43.0686 10.8594 43.0661 10.7938L42.9811 8.29084C42.9781 8.20502 42.9411 8.12376 42.878 8.06436C42.815 8.00495 42.7309 7.97208 42.6436 7.97274L40.0991 7.99364ZM40.9913 12.6304C41.0665 12.6285 41.1395 12.6049 41.2012 12.5624C41.2628 12.52 41.3103 12.4606 41.3378 12.3917C41.3652 12.3227 41.3714 12.2474 41.3556 12.175C41.3397 12.1027 41.3025 12.0365 41.2486 11.9849L38.7324 9.60036C38.6778 9.54899 38.609 9.51466 38.5347 9.5017C38.4603 9.48873 38.3837 9.49772 38.3145 9.52752C38.2454 9.55732 38.1867 9.6066 38.146 9.66915C38.1052 9.7317 38.0842 9.80471 38.0856 9.87898L38.1328 12.3076C38.1337 12.357 38.1445 12.4058 38.1646 12.4511C38.1847 12.4963 38.2136 12.5373 38.2498 12.5716C38.286 12.6059 38.3287 12.6328 38.3754 12.6509C38.4222 12.6689 38.4721 12.6777 38.5223 12.6768L40.9913 12.6304Z" fill="white"/>
<path d="M8.02065 127.356C2.83662 126.721 -0.370096 122.483 0.0342495 117.319C0.506375 111.261 5.58056 108.059 11.3279 108.838C11.5398 108.867 11.7322 108.834 11.9052 108.737C11.9753 108.698 12.022 108.64 12.0454 108.562C12.1514 108.208 12.1958 107.844 12.1786 107.471C12.0976 105.625 12.0415 103.778 12.0103 101.931C12.0026 101.46 12.0548 101.014 12.1669 100.594C12.1858 100.526 12.2265 100.466 12.2826 100.423C12.3387 100.38 12.4073 100.357 12.4778 100.356H16.1169C16.2558 100.356 16.3891 100.411 16.488 100.508C16.5868 100.606 16.6433 100.738 16.6451 100.877C16.769 108.94 16.6708 117.018 16.7854 125.084C16.8064 126.63 15.8832 126.686 14.5229 127.011C12.4178 127.513 10.2504 127.628 8.02065 127.356ZM12.1412 122.53L12.1553 113.489C12.1556 113.345 12.1275 113.203 12.0727 113.07C12.0179 112.937 11.9374 112.816 11.8358 112.715C11.7343 112.613 11.6136 112.532 11.4807 112.477C11.3479 112.421 11.2054 112.393 11.0614 112.392L9.76892 112.39C8.43904 112.388 7.16286 112.904 6.22097 113.825C5.27908 114.746 4.7486 115.996 4.74616 117.3L4.74148 118.69C4.74027 119.337 4.86888 119.977 5.11997 120.574C5.37105 121.172 5.73969 121.715 6.20482 122.172C6.66996 122.63 7.22247 122.993 7.8308 123.242C8.43913 123.49 9.09136 123.618 9.75022 123.619L11.0427 123.621C11.1867 123.622 11.3293 123.594 11.4624 123.539C11.5955 123.484 11.7165 123.404 11.8185 123.303C11.9205 123.201 12.0015 123.081 12.0569 122.948C12.1123 122.816 12.1409 122.673 12.1412 122.53Z" fill="white"/>
<path d="M53.951 126.653C48.4216 128.334 40.5425 127.987 38.6219 121.168C38.2092 119.706 38.1099 118.164 38.3241 116.543C39.0933 110.725 44.1514 108.32 49.5847 108.844C50.5602 108.939 50.4711 108.194 50.4523 107.514C50.4023 105.651 50.3663 103.787 50.3444 101.924C50.3397 101.455 50.3921 101.035 50.5015 100.664C50.525 100.585 50.5766 100.535 50.6563 100.513C51.6717 100.238 53.2897 100.406 54.3871 100.42C54.6373 100.424 54.7889 100.548 54.8421 100.79C54.8858 100.989 54.9093 101.25 54.9124 101.575C54.9593 106.622 55.018 111.668 54.9335 116.713C54.8804 119.806 54.9015 122.581 54.9968 125.039C55.0297 125.884 54.821 126.387 53.951 126.653ZM50.4523 122.375L50.4851 113.66C50.4857 113.491 50.4528 113.323 50.3882 113.167C50.3235 113.01 50.2285 112.868 50.1085 112.748C49.9885 112.629 49.8458 112.533 49.6888 112.468C49.5317 112.403 49.3632 112.37 49.193 112.369L48.1214 112.365C46.7306 112.361 45.3949 112.906 44.4082 113.882C43.4214 114.859 42.8643 116.185 42.8593 117.57L42.8546 118.408C42.8521 119.095 42.9854 119.775 43.2469 120.409C43.5084 121.044 43.8929 121.622 44.3786 122.108C44.8642 122.595 45.4414 122.982 46.0771 123.247C46.7129 123.511 47.3948 123.649 48.0839 123.651L49.1555 123.655C49.4984 123.656 49.8276 123.521 50.0707 123.281C50.3138 123.041 50.4511 122.715 50.4523 122.375Z" fill="white"/>
<path d="M21.7086 125.459C15.1202 119.269 19.4875 107.236 29.4215 109.128C31.4321 109.513 33.4661 110.567 34.6678 112.236C36.8398 115.25 36.9356 119.66 35.3224 122.899C33.6999 126.155 30.7767 127.682 26.5528 127.483C24.6637 127.392 23.049 126.718 21.7086 125.459ZM24.7947 113.574C22.1247 116.253 22.791 124.856 28.3554 123.687C32.2667 122.865 32.1989 117.512 31.0534 114.757C30.0106 112.25 26.5575 111.806 24.7947 113.574Z" fill="white"/>
<path d="M60.5566 125.766C56.4684 122.366 55.8947 115.277 59.6925 111.436C63.186 107.905 69.7155 108.127 72.9047 111.953C76.7281 116.544 75.1997 124.852 69.2927 126.929C66.5193 127.905 62.8817 127.7 60.5566 125.766ZM62.3521 121.231C63.2743 123.77 66.5263 124.561 68.503 122.941C70.9977 120.896 70.8769 115.057 68.2056 113.123C66.7376 112.062 64.5844 112.299 63.344 113.534C61.4881 115.38 61.5043 118.898 62.3521 121.231Z" fill="white"/>
<path d="M42.2796 144.5C42.4931 144.745 42.5514 145.027 42.4547 145.346C42.4286 145.428 42.3787 145.487 42.305 145.523C39.8748 146.71 36.9264 145.985 36.0257 143.176C34.7865 139.315 37.3802 135.729 41.4112 136.544C41.7913 136.62 42.2911 136.782 42.3395 137.223C42.3595 137.397 42.3249 137.518 42.2359 137.586C42.1348 137.662 42.0275 137.716 41.9238 137.745C41.8201 137.773 41.7231 137.774 41.6416 137.748C35.9866 135.956 35.5167 144.632 40.0821 144.818C40.7133 144.844 41.3905 144.573 42.047 144.425C42.1391 144.405 42.2167 144.43 42.2796 144.5Z" fill="white"/>
<path d="M54.9769 139.014C55.3842 140.329 57.828 140.586 58.5092 141.883C60.218 145.136 56.3088 146.398 53.8908 145.356C53.819 145.326 53.7628 145.279 53.7222 145.215C53.2728 144.499 53.9001 143.998 54.6516 144.326C55.4708 144.682 56.2847 144.654 57.093 144.239C57.1648 144.203 57.2171 144.149 57.2499 144.078C57.9896 142.42 56.6038 141.735 55.3678 141.139C53.734 140.35 53.0879 139.064 54.0523 137.342C54.5907 136.382 57.7227 136.016 58.3032 137.046C58.4296 137.272 58.4156 137.454 58.2611 137.592C58.1987 137.65 58.1253 137.672 58.0411 137.658C57.0907 137.501 54.3777 137.067 54.9769 139.014Z" fill="white"/>
<path d="M20.6346 143.4C20.6784 141.261 16.0059 141.352 16.5963 138.523C16.9462 136.845 18.8074 136.179 20.4451 136.51C20.9918 136.62 21.3125 136.667 21.5409 137.146C21.5726 137.213 21.5858 137.286 21.5792 137.359C21.5727 137.432 21.5466 137.502 21.5035 137.562C21.4604 137.623 21.4018 137.671 21.3334 137.703C21.265 137.735 21.1892 137.749 21.1133 137.745C20.1608 137.682 18.8997 137.079 18.2145 137.981C17.5901 138.801 18.2753 139.76 19.0528 140.176C20.4621 140.934 23.2588 142.699 21.6673 144.646C20.6249 145.925 17.6047 146.89 16.4748 145.048C16.4495 145.007 16.4342 144.961 16.4299 144.913C16.4255 144.865 16.4323 144.817 16.4498 144.772C16.4672 144.727 16.4949 144.687 16.5307 144.653C16.5666 144.619 16.6097 144.594 16.657 144.578C17.7383 144.218 20.586 145.777 20.6346 143.4Z" fill="white"/>
<path d="M28.7583 146.071C28.1721 146.072 27.5913 145.948 27.0493 145.707C26.5072 145.465 26.0145 145.111 25.5992 144.664C25.1839 144.217 24.8541 143.686 24.6288 143.102C24.4034 142.517 24.2869 141.89 24.2858 141.257C24.2847 140.624 24.3991 139.997 24.6224 139.411C24.8458 138.826 25.1737 138.294 25.5875 137.845C26.0013 137.397 26.4928 137.041 27.034 136.798C27.5752 136.555 28.1555 136.429 28.7418 136.428C29.328 136.427 29.9088 136.55 30.4508 136.792C30.9929 137.033 31.4856 137.387 31.9009 137.834C32.3162 138.281 32.646 138.812 32.8713 139.397C33.0967 139.981 33.2132 140.608 33.2143 141.241C33.2154 141.874 33.101 142.502 32.8777 143.087C32.6543 143.672 32.3264 144.204 31.9126 144.653C31.4989 145.101 31.0073 145.457 30.4661 145.701C29.9249 145.944 29.3446 146.07 28.7583 146.071ZM25.8945 139.65C25.0579 141.961 26.1342 144.909 29.0036 144.785C32.4054 144.638 32.8248 139.369 30.4026 138.013C28.621 137.015 26.602 137.695 25.8945 139.65Z" fill="white"/>
<path d="M46.6706 141.905C46.6513 141.881 46.625 141.864 46.5952 141.855C46.5655 141.845 46.5336 141.845 46.504 141.854C46.4743 141.863 46.4483 141.88 46.4293 141.903C46.4103 141.926 46.3993 141.955 46.3978 141.984C46.3377 142.875 46.3191 143.785 46.3418 144.712C46.3564 145.327 46.22 145.763 45.4895 145.709C45.3634 145.7 45.2454 145.646 45.1588 145.557C45.0722 145.468 45.0234 145.351 45.0219 145.229C44.9878 142.585 44.9935 139.932 45.039 137.269C45.0487 136.698 45.2679 136.279 45.94 136.496C46.0163 136.52 46.0715 136.566 46.1056 136.635C46.5293 137.468 46.1324 138.852 46.3954 139.84C46.4044 139.874 46.4232 139.906 46.4497 139.93C46.4762 139.955 46.5093 139.973 46.5455 139.98C46.5816 139.988 46.6192 139.986 46.6542 139.974C46.6892 139.963 46.7202 139.942 46.7436 139.915C47.7339 138.783 48.7429 137.676 49.7706 136.592C49.9524 136.401 50.2454 136.376 50.6497 136.52C50.7211 136.545 50.7641 136.593 50.7788 136.665C50.8291 136.912 50.7723 137.116 50.6083 137.278C49.4053 138.476 48.4304 139.538 47.6836 140.467C47.6316 140.531 47.6073 140.604 47.6105 140.685C47.6349 141.464 50.3867 144.344 51.0077 145.124C51.0369 145.16 51.0568 145.202 51.0659 145.247C51.0749 145.292 51.0729 145.339 51.0599 145.383C51.0469 145.428 51.0233 145.468 50.991 145.503C50.9587 145.537 50.9185 145.563 50.8737 145.58C50.4679 145.732 50.1237 145.67 49.8412 145.395C48.7129 144.3 47.656 143.136 46.6706 141.905Z" fill="white"/>
</svg>
