<svg width="150" height="150" viewBox="0 0 150 150" fill="none" xmlns="http://www.w3.org/2000/svg">
<path d="M72.1824 148.972C31.4998 147.639 -0.469606 114.137 0.00522122 73.7594C0.27316 51.2187 10.1767 30.8689 27.6402 16.6173C55.0954 -5.78777 95.7067 -5.43165 122.887 17.0514C138.288 29.7938 148.009 47.8575 149.715 67.8206C153.588 113.187 117.494 150.458 72.1824 148.972ZM70.6358 128.914C71.3932 129.642 72.318 130.201 73.4101 130.589C73.5187 130.628 73.6204 130.614 73.7154 130.549C76.293 128.805 70.4255 114.188 69.3504 111.356C68.2786 108.536 67.6907 105.62 67.5867 102.609C67.4918 99.8919 67.2781 96.992 68.3634 94.4754C69.6454 91.4976 73.0778 89.4931 76.1845 91.0736C81.957 94.0074 82.8049 108.123 82.8219 113.818C82.8321 116.975 82.2996 120.523 81.9909 123.884C81.879 125.112 81.9095 130.118 83.8156 129.711C83.9196 129.688 84.0044 129.636 84.07 129.555C86.3119 126.832 86.5289 121.971 86.278 118.573C85.7862 111.932 84.9586 105.288 85.6369 98.6302C85.8879 96.1678 86.5188 93.3731 88.3434 91.6468C90.8159 89.31 93.9091 90.67 95.7474 93.0408C100.448 99.105 98.793 108.456 97.2363 115.3C96.1555 120.057 95.1188 124.825 94.1262 129.602C93.8413 130.975 93.6706 132.207 93.614 133.299C93.4919 135.667 95.8254 135.623 97.1108 134.432C98.637 133.021 99.841 131.251 100.723 129.121C104.038 121.11 105.843 112.921 106.139 104.555C106.431 96.3442 104.701 89.2761 101.266 81.9162C98.2165 75.384 94.7502 68.7126 93.0408 61.7395C90.1342 49.8857 90.5446 26.8804 104.803 21.1756C110.192 19.022 117.946 19.3815 123.555 20.5753C123.951 20.6612 123.995 20.5719 123.688 20.3074C109.443 8.1111 90.8634 0.934425 72.0196 1.90443C33.5959 3.88175 3.02377 34.057 1.86044 72.9115C1.41614 87.7024 6.07962 102.537 14.2161 114.795C16.3088 117.949 18.7677 118.77 22.1831 119.882C27.5384 121.629 33.0905 119.777 36.3261 115.653C40.0162 110.949 40.9082 102.619 40.525 96.819C39.6804 83.9783 34.593 71.8736 29.899 60.0674C26.6396 51.8732 25.5136 44.0454 27.3281 35.3221C29.4411 25.154 36.7331 16.675 46.267 12.7068C52.3956 10.1563 60.8713 7.75837 67.451 9.63055C84.6127 14.5145 83.4459 34.4979 78.1584 47.3556C74.7634 55.6108 69.0994 64.9683 66.091 70.3169C60.9267 79.4878 58.3084 89.3179 58.236 99.8071C58.1919 106.115 59.769 112.078 62.4043 117.739C64.3918 122.002 67.2815 125.695 70.6358 128.914ZM78.9419 28.1827C78.64 21.7047 73.7595 13.7989 66.671 12.9001C55.8517 11.5299 44.6763 14.5348 37.1571 22.9088C31.6287 29.0646 30.2924 39.8364 31.4659 47.6676C32.1804 52.4475 33.3528 56.5661 34.983 60.0233C37.2927 64.9242 39.9619 70.0523 41.7459 74.8718C44.8979 83.3916 46.4072 92.2403 46.2738 101.418C46.1008 113.316 40.4368 124.698 26.4768 123.613C24.919 123.491 22.9665 123.207 20.6195 122.762C20.4658 122.732 20.4386 122.777 20.5381 122.897C21.7659 124.371 23.0852 125.76 24.4961 127.062C37.9507 139.472 55.4006 146.927 73.79 147.171C97.7823 147.49 121.086 135.928 134.86 116.104C152.486 90.7379 152.513 58.3411 134.927 32.9988C132.797 29.926 131.03 27.423 128.127 26.0596C122.589 23.4616 114.398 22.1151 108.357 23.9364C91.942 28.8882 95.6422 50.9541 99.3662 63.0351C100.537 66.8314 103.066 74.7927 106.953 86.9189C110.983 99.4848 112.651 113.526 106.94 126.018C104.772 130.759 102.741 134.524 99.6036 138C97.6772 140.133 94.4348 140.785 91.691 140.51C89.5339 140.289 89.9409 137.315 90.1783 135.867C92.081 124.434 95.2352 113.092 95.2454 101.425C95.2454 99.9563 95.0317 98.776 94.4823 97.5143C93.9532 96.2899 92.3388 94.6823 90.8566 95.5099C87.5261 97.3685 88.2688 104.179 88.8115 107.194C89.4016 110.454 89.8425 113.733 90.1342 117.03C90.5073 121.259 90.0461 125.112 89.188 129.155C88.8646 130.674 88.4475 131.783 87.9365 132.482C85.3113 136.064 79.437 135.107 79.3489 130.074C79.2234 122.894 79.844 115.734 79.7525 108.524C79.7186 105.641 79.2403 96.6155 76.3982 95.2758C75.6249 94.9118 74.8403 95.1074 74.0444 95.8626C69.9846 99.7155 72.9794 110.314 74.4276 114.974C76.0793 120.282 77.9617 125.661 77.6666 131.244C77.5208 134.008 75.1229 137.759 71.8534 135.585C70.1191 134.432 68.6754 133.08 67.5223 131.529C53.0536 112.064 48.0306 84.8534 63.7779 64.4324C65.935 61.6355 68.0389 58.8001 70.0897 55.9262C73.4814 51.1779 75.6656 45.4088 77.3512 39.8669C78.5835 35.8195 79.1137 31.9248 78.9419 28.1827Z" fill="white"/>
<path d="M70.6359 128.914C67.2816 125.696 64.3919 122.002 62.4044 117.739C59.7691 112.078 58.192 106.116 58.2361 99.8073C58.3085 89.3181 60.9268 79.4881 66.0911 70.3171C69.0995 64.9685 74.7635 55.611 78.1585 47.3558C83.4461 34.4982 84.6128 14.5147 67.4511 9.6308C60.8714 7.75862 52.3957 10.1565 46.2671 12.707C36.7332 16.6752 29.4412 25.1543 27.3282 35.3223C25.5137 44.0456 26.6397 51.8735 29.8991 60.0676C34.5931 71.8739 39.6805 83.9786 40.5251 96.8193C40.9083 102.619 40.0163 110.949 36.3262 115.653C33.0906 119.777 27.5385 121.629 22.1832 119.882C18.7678 118.77 16.3089 117.949 14.2162 114.795C6.07972 102.538 1.41624 87.7026 1.86054 72.9117C3.02387 34.0573 33.596 3.88199 72.0197 1.90468C90.8635 0.934672 109.443 8.11135 123.688 20.3076C123.995 20.5722 123.951 20.6615 123.555 20.5756C117.946 19.3817 110.192 19.0222 104.803 21.1759C90.5447 26.8806 90.1343 49.886 93.041 61.7397C94.7503 68.7129 98.2166 75.3842 101.266 81.9165C104.701 89.2763 106.431 96.3445 106.139 104.556C105.843 112.922 104.038 121.11 100.723 129.121C99.8412 131.251 98.6371 133.021 97.1109 134.432C95.8255 135.623 93.4921 135.667 93.6142 133.3C93.6707 132.207 93.8414 130.975 94.1263 129.603C95.1189 124.825 96.1556 120.058 97.2364 115.3C98.7932 108.456 100.448 99.1052 95.7475 93.041C93.9092 90.6703 90.816 89.3102 88.3436 91.647C86.5189 93.3734 85.888 96.1681 85.637 98.6304C84.9587 105.288 85.7863 111.932 86.2781 118.573C86.529 121.972 86.312 126.832 84.0701 129.555C84.0045 129.637 83.9197 129.689 83.8157 129.711C81.9096 130.118 81.8791 125.112 81.9911 123.884C82.2997 120.523 82.8322 116.976 82.822 113.818C82.805 108.124 81.9571 94.0076 76.1846 91.0739C73.0779 89.4934 69.6455 91.4978 68.3635 94.4757C67.2782 96.9922 67.4919 99.8921 67.5868 102.609C67.6908 105.621 68.2787 108.536 69.3505 111.356C70.4256 114.188 76.2931 128.806 73.7155 130.549C73.6205 130.615 73.5188 130.628 73.4102 130.59C72.3181 130.201 71.3934 129.642 70.6359 128.914Z" fill="#6DA100"/>
<path d="M66.671 12.9002C73.7595 13.7989 78.64 21.7048 78.9419 28.1828C79.1137 31.9249 78.5835 35.8196 77.3512 39.867C75.6656 45.4089 73.4814 51.178 70.0897 55.9263C68.0389 58.8001 65.935 61.6355 63.7779 64.4325C48.0306 84.8535 53.0536 112.064 67.5223 131.529C68.6754 133.08 70.1191 134.432 71.8534 135.585C75.1229 137.759 77.5208 134.008 77.6666 131.244C77.9617 125.661 76.0794 120.282 74.4276 114.974C72.9794 110.314 69.9846 99.7155 74.0444 95.8627C74.8403 95.1075 75.6249 94.9119 76.3982 95.2759C79.2403 96.6156 79.7186 105.641 79.7525 108.524C79.8441 115.734 79.2234 122.894 79.3489 130.074C79.4371 135.107 85.3114 136.064 87.9365 132.482C88.4475 131.783 88.8647 130.674 89.188 129.155C90.0461 125.112 90.5073 121.259 90.1342 117.03C89.8426 113.733 89.4017 110.455 88.8115 107.194C88.2689 104.179 87.5261 97.3686 90.8567 95.5099C92.3388 94.6824 93.9532 96.29 94.4823 97.5144C95.0318 98.7761 95.2454 99.9564 95.2454 101.425C95.2352 113.092 92.081 124.434 90.1783 135.867C89.9409 137.315 89.5339 140.29 91.691 140.51C94.4348 140.785 97.6772 140.134 99.6037 138C102.741 134.524 104.772 130.759 106.94 126.018C112.651 113.526 110.983 99.4849 106.953 86.919C103.067 74.7928 100.537 66.8315 99.3662 63.0351C95.6422 50.9542 91.942 28.8883 108.357 23.9365C114.398 22.1152 122.589 23.4617 128.127 26.0597C131.03 27.4231 132.797 29.9261 134.927 32.9989C152.513 58.3411 152.486 90.7379 134.86 116.104C121.086 135.928 97.7824 147.49 73.79 147.171C55.4006 146.927 37.9507 139.472 24.4961 127.062C23.0852 125.76 21.7659 124.372 20.5381 122.897C20.4386 122.777 20.4658 122.732 20.6195 122.762C22.9665 123.207 24.919 123.491 26.4769 123.613C40.4368 124.698 46.1008 113.316 46.2738 101.418C46.4072 92.2404 44.8979 83.3917 41.7459 74.8719C39.9619 70.0524 37.2927 64.9243 34.983 60.0234C33.3528 56.5662 32.1804 52.4476 31.4659 47.6677C30.2924 39.8364 31.6287 29.0646 37.1571 22.9088C44.6763 14.5349 55.8517 11.5299 66.671 12.9002Z" fill="#6DA100"/>
</svg>
