<svg width="125" height="102" viewBox="0 0 125 102" fill="none" xmlns="http://www.w3.org/2000/svg">
<g clip-path="url(#clip0_502_1914)">
<path d="M7.03512 0H9.10124C13.6605 1.23787 15.9504 4.18126 15.9711 8.83016C16.0468 26.4561 16.0434 44.1095 15.9607 61.7905C15.9586 61.8871 15.986 61.9821 16.0394 62.0627C16.0927 62.1433 16.1695 62.2058 16.2593 62.2416C16.3492 62.2775 16.4479 62.2852 16.5422 62.2635C16.6366 62.2419 16.722 62.192 16.7872 62.1206C20.5888 58.0562 30.093 46.544 35.3099 45.5021C40.5062 44.4602 45.7128 49.9997 44.2769 55.271C42.9959 60.0059 32.2417 69.063 28.4194 72.8281C28.1439 73.0895 28.1405 73.3542 28.4091 73.6225C32.6997 77.9069 36.9628 82.181 41.1983 86.4447C46.5496 91.8398 45.2686 98.6378 37.6446 101.093H35.5785C29.5868 99.4115 21.5702 89.3537 16.9318 84.5054C16.8532 84.4232 16.7513 84.3669 16.6398 84.3442C16.5282 84.3214 16.4124 84.3333 16.3078 84.3782C16.2032 84.4231 16.1149 84.4989 16.0547 84.5954C15.9945 84.6919 15.9653 84.8045 15.9711 84.918C16.1983 89.1371 16.4876 95.1511 13.7913 98.3799C9.43182 103.61 1.32231 100.391 0 93.8101V6.90114C0.922865 3.16001 3.26791 0.859633 7.03512 0Z" fill="#AABE6E"/>
<path d="M75.3512 101.093H56.4979L56.3326 96.4614C56.3188 96.1244 56.4256 95.8252 56.6529 95.5639C60.5991 90.97 64.5316 86.3727 68.4504 81.772C73.3057 76.0468 64.3388 70.7755 62.0248 76.8411C61.8939 77.1918 61.6391 77.3672 61.2603 77.3672H56.8801C56.5564 77.3672 56.398 77.2021 56.4049 76.872C56.7562 65.4939 77.7685 66.8969 75.4028 79.4922C74.4524 84.5572 67.3863 91.2211 63.8016 95.3473C63.7549 95.3981 63.7241 95.4615 63.7133 95.5296C63.7024 95.5977 63.7119 95.6675 63.7406 95.7302C63.7693 95.793 63.8158 95.8459 63.8744 95.8824C63.9331 95.9189 64.0012 95.9373 64.0702 95.9353H74.938C75.3719 95.9353 75.5785 96.1519 75.5578 96.5852L75.3512 101.093Z" fill="white"/>
<path d="M91.3636 101.093H87.7479C82.1178 99.7932 80.0517 96.3271 80.062 90.5401C80.0723 86.125 79.0289 77.3155 81.2707 73.5915C84.814 67.7013 95.2583 67.3403 98.2748 74.1692C100.072 78.2439 99.1839 86.6201 99.1219 91.3137C99.0599 96.5953 96.4738 99.8551 91.3636 101.093ZM93.4174 77.9896C93.4165 77.506 93.3203 77.0273 93.1341 76.5808C92.948 76.1343 92.6756 75.7288 92.3326 75.3875C91.9895 75.0461 91.5824 74.7755 91.1347 74.5913C90.6869 74.407 90.2071 74.3126 89.7228 74.3134L89.4129 74.3139C88.4348 74.3157 87.4974 74.7053 86.807 75.3971C86.1166 76.089 85.7297 77.0263 85.7314 78.003L85.7562 92.2179C85.7571 92.7015 85.8533 93.1802 86.0394 93.6267C86.2255 94.0732 86.4979 94.4787 86.841 94.82C87.1841 95.1614 87.5911 95.432 88.0389 95.6162C88.4867 95.8005 88.9664 95.8949 89.4507 95.8941L89.7606 95.8936C90.7387 95.8918 91.6761 95.5022 92.3665 94.8104C93.0569 94.1185 93.4439 93.1812 93.4422 92.2045L93.4174 77.9896Z" fill="white"/>
<path d="M116.157 101.093H112.283C96.6529 96.2133 109.349 77.8516 113.492 69.661C113.678 69.2965 113.977 69.1143 114.39 69.1143H119.297C119.814 69.1143 119.955 69.3446 119.721 69.8054L113.905 80.9772C113.712 81.3554 113.826 81.5274 114.246 81.493C119.05 81.0804 122.231 83.4839 123.605 88.0846C125.485 94.3909 123.003 98.7269 116.157 101.093ZM114.342 95.986C114.88 95.9785 115.41 95.8497 115.903 95.6069C116.396 95.3641 116.842 95.0122 117.216 94.5711C117.589 94.13 117.883 93.6084 118.081 93.0361C118.279 92.4638 118.376 91.8521 118.367 91.2358C118.35 89.9911 117.902 88.8033 117.123 87.9339C116.343 87.0645 115.296 86.5845 114.211 86.5996C113.674 86.6071 113.144 86.7359 112.651 86.9787C112.158 87.2215 111.712 87.5734 111.338 88.0145C110.964 88.4557 110.67 88.9772 110.473 89.5495C110.275 90.1218 110.178 90.7335 110.186 91.3498C110.204 92.5945 110.651 93.7823 111.431 94.6517C112.21 95.5211 113.258 96.0011 114.342 95.986Z" fill="white"/>
</g>
<defs>
<clipPath id="clip0_502_1914">
<rect width="125" height="101.093" fill="white"/>
</clipPath>
</defs>
</svg>
