<svg width="284" height="71" viewBox="0 0 284 71" fill="none" xmlns="http://www.w3.org/2000/svg">
<path d="M127.879 28.298L137.614 14.2938C137.628 14.2739 137.647 14.2576 137.669 14.2464C137.691 14.2351 137.715 14.2291 137.739 14.2289H151.599C151.627 14.2282 151.656 14.2355 151.68 14.25C151.705 14.2645 151.726 14.2857 151.739 14.3111C151.753 14.3365 151.759 14.3651 151.757 14.3938C151.755 14.4225 151.745 14.4501 151.728 14.4735L139.886 31.3885C139.867 31.4147 139.857 31.4461 139.857 31.4783C139.857 31.5105 139.867 31.542 139.886 31.5682L154.12 51.8182C154.137 51.8416 154.146 51.8692 154.148 51.8979C154.15 51.9266 154.144 51.9552 154.131 51.9806C154.117 52.0061 154.097 52.0272 154.072 52.0417C154.047 52.0562 154.019 52.0635 153.99 52.0628L140.076 52.0378C140.051 52.0377 140.027 52.0317 140.005 52.0204C139.984 52.0091 139.965 51.9928 139.951 51.9729L127.879 34.6836C127.86 34.6574 127.833 34.6379 127.802 34.6279C127.771 34.6178 127.737 34.6178 127.706 34.6277C127.676 34.6377 127.649 34.6571 127.629 34.6833C127.61 34.7094 127.599 34.741 127.599 34.7735V51.8931C127.599 51.9341 127.583 51.9735 127.554 52.0025C127.525 52.0315 127.485 52.0478 127.444 52.0478H115.397C115.356 52.0478 115.317 52.0315 115.288 52.0025C115.259 51.9735 115.242 51.9341 115.242 51.8931V0.154769C115.242 0.113722 115.259 0.0743528 115.288 0.0453277C115.317 0.0163026 115.356 0 115.397 0H127.444C127.485 0 127.525 0.0163026 127.554 0.0453277C127.583 0.0743528 127.599 0.113722 127.599 0.154769V28.2082C127.599 28.2407 127.61 28.2722 127.629 28.2984C127.649 28.3245 127.676 28.3439 127.706 28.3539C127.737 28.3638 127.771 28.3638 127.802 28.3538C127.833 28.3437 127.86 28.3242 127.879 28.298Z" fill="white"/>
<path d="M228.824 25.9865V51.8981C228.824 51.9378 228.808 51.9759 228.78 52.004C228.752 52.032 228.714 52.0478 228.674 52.0478H216.617C216.577 52.0478 216.539 52.032 216.511 52.004C216.483 51.9759 216.467 51.9378 216.467 51.8981V0.149772C216.467 0.110048 216.483 0.0719538 216.511 0.043865C216.539 0.0157762 216.577 0 216.617 0H228.674C228.714 0 228.752 0.0157762 228.78 0.043865C228.808 0.0719538 228.824 0.110048 228.824 0.149772V14.0791C228.824 14.1189 228.84 14.157 228.868 14.185C228.896 14.2131 228.934 14.2289 228.974 14.2289H242.364C242.389 14.2289 242.414 14.2354 242.436 14.2476C242.458 14.2599 242.477 14.2776 242.49 14.299C242.504 14.3205 242.512 14.345 242.513 14.3703C242.515 14.3955 242.51 14.4208 242.499 14.4436L237.196 25.7518C237.184 25.7772 237.165 25.7986 237.141 25.8137C237.117 25.8287 237.09 25.8367 237.062 25.8367H228.974C228.934 25.8367 228.896 25.8525 228.868 25.8806C228.84 25.9086 228.824 25.9467 228.824 25.9865Z" fill="white"/>
<path d="M69.0108 43.1917C61.2073 57.6053 37.7271 56.2273 32.7146 39.6919C29.1498 27.9293 35.4855 15.3929 48.1667 13.4058C65.3113 10.7248 77.1886 28.0941 69.0108 43.1917ZM45.2759 39.1676C46.8636 43.3614 51.5816 44.8792 55.1713 42.6075C61.2024 38.7882 60.6332 22.757 51.7913 22.6521C43.4287 22.5523 43.229 33.7706 45.2759 39.1676Z" fill="white"/>
<path d="M12.5396 25.5018L20.3829 14.2934C20.3971 14.2735 20.4158 14.2572 20.4375 14.246C20.4592 14.2347 20.4833 14.2287 20.5077 14.2285H34.3223C34.3506 14.2287 34.3783 14.2367 34.4024 14.2516C34.4265 14.2665 34.446 14.2877 34.4589 14.3129C34.4718 14.3382 34.4775 14.3665 34.4754 14.3947C34.4733 14.423 34.4635 14.4501 34.4471 14.4731L23.4184 30.2647C23.4042 30.2846 23.3855 30.3009 23.3638 30.3122C23.3421 30.3235 23.318 30.3295 23.2936 30.3296H12.5196C12.4785 30.3296 12.4391 30.3459 12.4101 30.375C12.3811 30.404 12.3648 30.4434 12.3648 30.4844L12.255 51.8927C12.255 51.9337 12.2386 51.9731 12.2096 52.0021C12.1806 52.0311 12.1413 52.0475 12.1002 52.0475H0.192886C0.151838 52.0475 0.112454 52.0311 0.0834289 52.0021C0.0544038 51.9731 0.0380859 51.9337 0.0380859 51.8927V14.3833C0.0380859 14.3422 0.0544038 14.3029 0.0834289 14.2738C0.112454 14.2448 0.151838 14.2285 0.192886 14.2285H12.1401C12.1812 14.2285 12.2206 14.2448 12.2496 14.2738C12.2786 14.3029 12.2949 14.3422 12.2949 14.3833L12.255 25.4119C12.2537 25.4458 12.2636 25.4791 12.2831 25.5068C12.3026 25.5345 12.3307 25.5551 12.363 25.5653C12.3953 25.5755 12.4301 25.5748 12.462 25.5633C12.4939 25.5519 12.5212 25.5302 12.5396 25.5018Z" fill="white"/>
<path d="M76.0504 23.5447V14.3983C76.0504 14.3532 76.0683 14.3101 76.1001 14.2782C76.132 14.2464 76.1751 14.2285 76.2201 14.2285H107.963C108.008 14.2285 108.051 14.2464 108.083 14.2782C108.115 14.3101 108.133 14.3532 108.133 14.3983L108.153 23.5846C108.154 23.6289 108.138 23.6719 108.108 23.7045L90.5439 42.2919C90.5216 42.3162 90.5068 42.3464 90.5014 42.3789C90.496 42.4114 90.5002 42.4447 90.5134 42.4749C90.5267 42.5051 90.5484 42.5308 90.576 42.5488C90.6035 42.5668 90.6358 42.5765 90.6687 42.5765L109.456 42.5515C109.478 42.5515 109.5 42.5559 109.521 42.5644C109.541 42.573 109.56 42.5855 109.576 42.6012C109.592 42.617 109.604 42.6357 109.613 42.6563C109.621 42.6769 109.626 42.699 109.626 42.7213V51.8777C109.626 51.9 109.621 51.9221 109.613 51.9427C109.604 51.9632 109.592 51.982 109.576 51.9977C109.56 52.0135 109.541 52.026 109.521 52.0345C109.5 52.0431 109.478 52.0475 109.456 52.0475H74.7223C74.6773 52.0475 74.6342 52.0296 74.6023 51.9977C74.5705 51.9659 74.5526 51.9227 74.5526 51.8777V42.4167C74.5527 42.3718 74.5707 42.3286 74.6025 42.2969L93.0801 24.004C93.1038 23.9803 93.1199 23.9501 93.1264 23.9172C93.1329 23.8843 93.1296 23.8503 93.1168 23.8193C93.104 23.7883 93.0823 23.7618 93.0544 23.7432C93.0266 23.7245 92.9938 23.7145 92.9603 23.7145H76.2201C76.1751 23.7145 76.132 23.6966 76.1001 23.6647C76.0683 23.6329 76.0504 23.5897 76.0504 23.5447Z" fill="white"/>
<path d="M173.701 38.882L180.526 14.3633C180.536 14.3242 180.56 14.2898 180.593 14.2655C180.625 14.2411 180.665 14.2281 180.705 14.2285H192.907C192.937 14.2285 192.965 14.2355 192.992 14.249C193.018 14.2625 193.04 14.282 193.057 14.3059C193.075 14.3298 193.086 14.3575 193.09 14.3866C193.094 14.4157 193.091 14.4453 193.082 14.4732L180.555 51.9226C180.543 51.9591 180.519 51.9907 180.488 52.0131C180.457 52.0354 180.419 52.0475 180.381 52.0475H166.391C166.353 52.0475 166.315 52.0354 166.284 52.0131C166.253 51.9907 166.229 51.9591 166.217 51.9226L153.735 14.4732C153.726 14.4453 153.723 14.4157 153.727 14.3866C153.731 14.3575 153.743 14.3298 153.76 14.3059C153.777 14.282 153.799 14.2625 153.825 14.249C153.852 14.2355 153.881 14.2285 153.91 14.2285H166.421C166.461 14.2292 166.5 14.2427 166.531 14.267C166.563 14.2913 166.585 14.325 166.596 14.3633L173.346 38.882C173.357 38.9203 173.381 38.9539 173.413 38.9778C173.445 39.0017 173.483 39.0146 173.523 39.0146C173.563 39.0146 173.602 39.0017 173.634 38.9778C173.666 38.9539 173.689 38.9203 173.701 38.882Z" fill="white"/>
<path d="M209.882 14.2285H197.96C197.841 14.2285 197.745 14.3246 197.745 14.4432V51.8278C197.745 51.9463 197.841 52.0424 197.96 52.0424H209.882C210 52.0424 210.097 51.9463 210.097 51.8278V14.4432C210.097 14.3246 210 14.2285 209.882 14.2285Z" fill="white"/>
<path d="M55.1715 42.6075C51.5818 44.8791 46.8638 43.3613 45.2761 39.1676C43.2291 33.7706 43.4289 22.5522 51.7915 22.652C60.6334 22.7569 61.2025 38.7881 55.1715 42.6075Z" fill="black"/>
<path d="M245.869 52.1029L248.894 42.9065C248.916 42.8372 248.957 42.7755 249.013 42.7286C249.069 42.6818 249.137 42.6517 249.209 42.6419L256.248 41.6833C256.311 41.6747 256.371 41.6506 256.423 41.6131C256.474 41.5756 256.515 41.526 256.543 41.4686L259.613 35.128C259.645 35.0637 259.694 35.0095 259.755 34.9715C259.816 34.9336 259.886 34.9134 259.958 34.9134L269.638 34.8135C269.711 34.8126 269.782 34.8324 269.844 34.8704C269.906 34.9084 269.956 34.9631 269.988 35.0282L273.133 41.4986C273.161 41.555 273.203 41.6037 273.254 41.6402C273.306 41.6768 273.365 41.7002 273.428 41.7083L280.447 42.6469C280.519 42.6563 280.586 42.6857 280.642 42.7316C280.698 42.7775 280.739 42.8381 280.762 42.9065L283.792 52.1179C283.815 52.1871 283.818 52.2613 283.8 52.3321C283.783 52.4028 283.745 52.467 283.693 52.5173L278.535 57.4749C278.488 57.5189 278.453 57.574 278.433 57.635C278.413 57.6961 278.409 57.7612 278.42 57.8244L279.689 64.8989C279.701 64.9703 279.693 65.0438 279.666 65.111C279.639 65.1781 279.593 65.2361 279.534 65.2783L271.765 70.915C271.706 70.9574 271.637 70.9822 271.564 70.9866C271.492 70.991 271.419 70.9749 271.356 70.94L264.995 67.535C264.939 67.5049 264.877 67.4891 264.813 67.4891C264.749 67.4891 264.687 67.5049 264.631 67.535L258.295 70.9549C258.231 70.9891 258.159 71.0045 258.086 70.9992C258.014 70.9939 257.944 70.9681 257.886 70.925L250.107 65.2684C250.048 65.2251 250.003 65.166 249.977 65.0979C249.95 65.0299 249.943 64.9556 249.958 64.8839L251.261 57.8094C251.273 57.7466 251.269 57.6818 251.25 57.6208C251.231 57.5597 251.197 57.5045 251.151 57.46L245.968 52.5023C245.916 52.452 245.878 52.3878 245.861 52.3171C245.843 52.2463 245.846 52.1721 245.869 52.1029Z" fill="#80C342"/>
</svg>
