<svg width="215" height="34" viewBox="0 0 215 34" fill="none" xmlns="http://www.w3.org/2000/svg">
<path d="M11.2887 0H24.8713L24.9316 4.47181C24.9316 4.51861 24.9131 4.5635 24.88 4.59659C24.8469 4.62968 24.802 4.64827 24.7552 4.64827C20.4614 4.63589 16.1738 4.63744 11.8923 4.65292C3.48737 4.68542 3.73812 14.6971 11.6137 14.6274C16.1598 14.5856 20.2276 14.1538 24.1144 17.4415C31.4745 23.65 25.3171 33.7592 17.0653 33.7731C11.4651 33.7855 5.86181 33.787 0.2554 33.7778C0.190389 33.7778 0.137761 33.7545 0.0975162 33.7081C0.0696544 33.674 0.037149 33.6508 0 33.6385V29.227C5.45472 29.1125 10.9125 29.0598 16.3734 29.0691C21.4954 29.083 23.9751 23.0788 19.3546 20.1069C17.0932 18.6535 12.3474 19.3686 10.411 19.22C5.07084 18.8113 1.00767 15.7373 0 10.4203V8.67894C1.1284 3.11588 5.73952 0.0835853 11.2887 0Z" fill="white"/>
<path d="M42.9953 0H49.2503C49.4732 0.15324 49.5103 0.0928726 49.6218 0.357559C54.2933 11.3877 58.9756 22.4287 63.6687 33.4806C63.7461 33.657 63.6889 33.7468 63.4969 33.7499L58.0453 33.801C57.6924 33.8103 47.3278 9.02721 46.2784 6.55216C46.2678 6.52836 46.2505 6.50813 46.2287 6.49394C46.2068 6.47975 46.1813 6.47219 46.1553 6.47219C46.1293 6.47219 46.1038 6.47975 46.0819 6.49394C46.0601 6.50813 46.0428 6.52836 46.0322 6.55216L34.6461 33.5456C34.578 33.7035 34.4588 33.7824 34.2885 33.7824H28.7951C28.7735 33.7829 28.7521 33.7778 28.733 33.7676C28.7139 33.7574 28.6976 33.7424 28.6856 33.724C28.6736 33.7055 28.6663 33.6842 28.6644 33.662C28.6624 33.6398 28.6658 33.6173 28.6744 33.5967L42.9953 0Z" fill="white"/>
<path d="M68.0199 0H73.6897L85.2152 27.1281C85.2323 27.1668 85.2603 27.1997 85.2957 27.2228C85.3312 27.2459 85.3726 27.2582 85.4149 27.2582C85.4572 27.2582 85.4986 27.2459 85.5341 27.2228C85.5695 27.1997 85.5975 27.1668 85.6146 27.1281C89.3202 18.33 93.0831 9.46681 96.9032 0.538661C97.0054 0.301836 97.154 0.199676 97.3119 0H103.233L103.363 0.20432C103.412 0.281713 103.437 0.365299 103.437 0.455076V33.5502C103.437 33.613 103.412 33.6733 103.367 33.7177C103.323 33.7621 103.263 33.787 103.2 33.787L97.9806 33.801L97.8273 33.7035C97.7654 33.6601 97.7345 33.5998 97.7345 33.5224L97.7809 12.8396C97.7805 12.8153 97.7718 12.7919 97.7563 12.7732C97.7408 12.7545 97.7193 12.7416 97.6955 12.7367C97.6717 12.7319 97.6469 12.7353 97.6253 12.7464C97.6037 12.7575 97.5865 12.7756 97.5766 12.7978L88.8698 33.5084C88.7924 33.6911 88.6562 33.7824 88.4611 33.7824H82.4058C82.2325 33.7824 82.1117 33.7019 82.0436 33.5409L73.8616 14.177C73.8495 14.145 73.8266 14.1184 73.7967 14.1018C73.7668 14.0852 73.7321 14.0798 73.6986 14.0865C73.6651 14.0932 73.6351 14.1116 73.6139 14.1383C73.5927 14.1651 73.5817 14.1986 73.5829 14.2327L73.6108 33.5456C73.6108 33.7035 73.5319 33.7824 73.374 33.7824H68.1592C68.0964 33.7824 68.0361 33.7575 67.9917 33.713C67.9473 33.6686 67.9224 33.6084 67.9224 33.5456L68.0199 0Z" fill="white"/>
<path d="M110.746 0H124.941C129.065 0.459719 132.348 1.52311 134.6 4.99654C136.852 8.46533 136.407 12.7793 133.374 15.5979C133.12 15.8332 133.141 16.0406 133.435 16.2202C141.389 21.1332 139.462 30.6479 130.908 33.2716C129.844 33.5966 128.209 33.7638 126.005 33.7731C120.928 33.7917 115.837 33.7932 110.732 33.7777C110.675 33.7765 110.621 33.753 110.581 33.7122C110.541 33.6714 110.518 33.6166 110.518 33.5595V14.8503C110.518 14.7912 110.542 14.7345 110.584 14.6927C110.625 14.6509 110.682 14.6274 110.741 14.6274C115.335 14.6305 119.943 14.6259 124.565 14.6135C132.325 14.5856 132.52 4.69935 123.989 4.65756C119.621 4.63589 115.241 4.63434 110.848 4.65292C110.779 4.65316 110.713 4.62751 110.662 4.58105C110.611 4.53459 110.58 4.47073 110.574 4.40216C110.413 2.91929 110.47 1.45191 110.746 0ZM116.216 19.4197L116.197 28.9762C116.197 28.9994 116.202 29.0224 116.211 29.0438C116.22 29.0652 116.233 29.0846 116.249 29.101C116.266 29.1174 116.285 29.1304 116.306 29.1393C116.328 29.1481 116.351 29.1527 116.374 29.1527L127.161 29.1713C127.902 29.1726 128.636 29.0466 129.321 28.8005C130.006 28.5543 130.629 28.1928 131.154 27.7366C131.679 27.2803 132.095 26.7383 132.38 26.1415C132.664 25.5447 132.811 24.9048 132.812 24.2583V24.1933C132.814 22.888 132.222 21.6352 131.166 20.7104C130.11 19.7856 128.676 19.2645 127.18 19.2618L116.393 19.2432C116.346 19.2432 116.301 19.2618 116.268 19.2949C116.235 19.328 116.216 19.3729 116.216 19.4197Z" fill="white"/>
<path d="M154.935 0H161.394L175.654 33.5874C175.664 33.6088 175.668 33.6321 175.666 33.6554C175.664 33.6786 175.656 33.701 175.643 33.7204C175.63 33.7398 175.612 33.7556 175.591 33.7665C175.571 33.7773 175.548 33.7828 175.524 33.7824H169.975C169.842 33.7824 169.749 33.7205 169.697 33.5967L158.278 6.71469C158.157 6.43297 158.037 6.43297 157.916 6.71469L146.59 33.5224C146.557 33.5995 146.503 33.6652 146.433 33.7115C146.364 33.7577 146.283 33.7824 146.2 33.7824L141.631 33.801L140.818 33.7545C140.635 33.7453 140.58 33.6555 140.651 33.4852L154.935 0Z" fill="white"/>
<path d="M215 14.7714V17.5576C214.653 21.9071 212.866 25.5291 209.637 28.4237C200.303 36.7961 184.315 35.3473 177.526 24.4719C171.67 15.0872 178.469 4.28144 187.923 1.23522C194.085 -0.747605 203.228 -0.301817 208.341 4.33252C208.468 4.44707 208.466 4.56161 208.336 4.67615L204.923 7.62486C204.793 7.7363 204.657 7.74095 204.515 7.63879C198.45 3.27378 189.878 3.64062 184.468 8.939C179.834 13.4712 179.973 20.5945 184.617 25.0431C191.977 32.0968 205.982 29.9979 209.065 19.5079C209.075 19.4773 209.077 19.445 209.072 19.4135C209.066 19.3819 209.054 19.3521 209.035 19.3263C209.016 19.3006 208.991 19.2796 208.962 19.2652C208.934 19.2508 208.902 19.2432 208.87 19.2432L202.063 19.285C201.865 19.285 201.766 19.1859 201.766 18.9878V14.9804C201.766 14.7853 201.863 14.6847 202.058 14.6785C206.386 14.5454 210.7 14.5764 215 14.7714Z" fill="white"/>
</svg>
