<svg width="228" height="47" viewBox="0 0 228 47" fill="none" xmlns="http://www.w3.org/2000/svg">
<path d="M103.902 38.2635C99.162 38.2622 95.0657 34.9403 94.3207 30.313C94.2339 29.7764 94.1912 28.904 94.1912 27.6957C94.1858 18.6051 94.1845 9.51066 94.1885 0.412248C94.1885 0.378137 94.2165 0.350586 94.2512 0.350586H102.601C102.637 0.350586 102.666 0.378136 102.666 0.413559C102.664 9.47523 102.666 18.5422 102.667 27.613C102.667 29.2556 103.256 29.9339 104.941 29.9339C110.58 29.9352 116.22 29.9365 121.859 29.9352C123.406 29.9352 124.361 29.5783 124.361 27.9358C124.362 18.7652 124.364 9.59068 124.362 0.413559C124.362 0.378136 124.39 0.350586 124.426 0.350586H132.776C132.813 0.350586 132.841 0.378136 132.841 0.413559C132.841 9.55001 132.841 18.6904 132.841 27.8347C132.841 29.0365 132.795 29.9089 132.703 30.4521C132.027 34.4352 128.772 37.4514 124.82 38.1165C124.221 38.2175 123.334 38.2674 122.159 38.2674C116.073 38.2661 109.988 38.2648 103.902 38.2635Z" fill="white"/>
<path d="M28.5871 23.6444C22.7817 23.6352 16.9764 23.6339 11.1724 23.6392C9.89727 23.6405 9.00937 23.6103 8.50601 23.5487C4.46576 23.0514 1.08375 20.1297 0.246595 16.1387C-0.105892 14.4568 0.0569998 12.2868 0.0543295 10.4435C0.0529943 9.39266 0.113078 8.57269 0.231908 7.98231C0.980944 4.27866 3.91433 1.32939 7.70891 0.56452C8.30306 0.445132 9.15357 0.386092 10.2591 0.38478C19.6628 0.382157 29.0691 0.382157 38.4808 0.38478C38.5155 0.38478 38.5435 0.412332 38.5435 0.446442V8.65141C38.5435 8.68683 38.5155 8.71438 38.4794 8.71438C29.1732 8.71307 19.863 8.71438 10.5475 8.7157C9.26039 8.7157 8.54206 9.33888 8.53805 10.6298C8.53538 11.5272 8.53405 12.4233 8.53405 13.3193C8.53405 14.8635 9.43129 15.3056 10.8599 15.3056C16.7948 15.307 22.7283 15.3083 28.6632 15.307C29.8502 15.3056 30.7354 15.3607 31.3215 15.471C35.1321 16.1886 38.1536 19.1733 38.8933 22.9045C39.0108 23.4962 39.0723 24.3673 39.0776 25.5166C39.0843 27.2143 39.1938 29.1809 38.8867 30.6844C38.1163 34.4654 35.028 37.4396 31.1493 38.114C30.5819 38.2124 29.694 38.2622 28.4883 38.2636C19.2342 38.2688 9.97871 38.2688 0.724589 38.2649C0.680528 38.2649 0.65783 38.2426 0.65783 38.198V30.0035C0.65783 29.9589 0.680528 29.9366 0.725924 29.9366C9.8038 29.9339 18.8817 29.9339 27.9569 29.9366C29.0958 29.9366 29.9476 29.9274 30.419 28.9316C30.7714 28.1851 30.6005 26.6659 30.5992 25.8026C30.5979 24.3949 30.0691 23.6471 28.5871 23.6444Z" fill="white"/>
<path d="M56.8034 38.2634C52.0982 38.2608 48.0153 34.935 47.2609 30.3445C47.1728 29.8039 47.1274 28.9315 47.126 27.7271C47.1194 21.7616 47.1194 15.7962 47.1247 9.82941C47.13 5.30841 50.3745 1.46569 54.8634 0.560444C55.4389 0.44368 56.2306 0.385954 57.2373 0.385954C63.2443 0.382018 69.2526 0.382017 75.2609 0.384641C76.4479 0.384641 77.3331 0.439744 77.9193 0.549948C81.7272 1.26496 84.7233 4.22211 85.4951 7.93757C85.6139 8.50827 85.6726 9.29807 85.6726 10.307C85.6766 22.4032 85.678 34.4994 85.674 46.5956C85.674 46.6402 85.6513 46.6626 85.6059 46.6626H77.2637C77.2263 46.6626 77.1969 46.6337 77.1969 46.597V38.329C77.1969 38.2936 77.1689 38.2647 77.1328 38.2647C70.3608 38.2673 63.5848 38.2674 56.8034 38.2634ZM55.6031 27.7468C55.6031 28.921 56.1118 29.9391 57.4697 29.9391C64.0321 29.9377 70.5891 29.9351 77.1435 29.9338C77.1729 29.9338 77.1969 29.9102 77.1969 29.8813C77.1983 23.4921 77.1969 17.1068 77.1956 10.7255C77.1956 9.30463 76.4893 8.71425 75.0687 8.71425C69.2967 8.71556 63.5247 8.71425 57.7527 8.71293C56.5204 8.71293 55.6018 9.23509 55.6004 10.5838C55.5991 16.3052 55.5991 22.0253 55.6031 27.7468Z" fill="white"/>
<path d="M171.461 28.6562H149.897C149.86 28.6562 149.831 28.6851 149.831 28.7218V38.2007C149.831 38.2374 149.801 38.2663 149.764 38.2663H141.416C141.38 38.2663 141.352 38.2388 141.352 38.2033C141.352 29.1968 141.352 20.1876 141.352 11.1744C141.352 9.90839 141.386 9.03463 141.451 8.55314C141.993 4.58973 145.064 1.36232 149.059 0.568583C149.666 0.447883 150.548 0.387533 151.704 0.386221C157.6 0.382286 163.496 0.382285 169.392 0.383597C170.617 0.383597 171.503 0.429515 172.055 0.522664C176.044 1.19176 179.161 4.3234 179.851 8.20679C179.954 8.78273 180.004 9.65518 180.004 10.8215C180.006 19.9448 180.007 29.0721 180.006 38.2046C180.006 38.2388 179.978 38.2663 179.942 38.2663H171.594C171.557 38.2663 171.527 38.2374 171.527 38.2007V28.7218C171.527 28.6785 171.505 28.6562 171.461 28.6562ZM151.78 8.71714C150.68 8.71714 149.829 9.39148 149.828 10.5198C149.825 13.7524 149.828 16.989 149.835 20.2282C149.835 20.2715 149.856 20.2925 149.9 20.2925H171.459C171.503 20.2925 171.525 20.2715 171.525 20.2282C171.531 17.1215 171.531 14.0148 171.525 10.9081C171.522 9.3495 170.892 8.71582 169.295 8.71451C163.456 8.7132 157.617 8.7132 151.78 8.71714Z" fill="white"/>
<path d="M219.182 0.533352C223.006 1.21163 226.064 4.15435 226.852 7.8908C226.973 8.46675 227.033 9.28803 227.035 10.3573C227.039 16.2493 227.039 22.1413 227.037 28.0346C227.037 29.2074 226.982 30.0786 226.872 30.648C226.128 34.4749 222.974 37.4373 219.108 38.1091C218.519 38.2114 217.632 38.2626 216.447 38.2639C207.159 38.2704 197.872 38.2704 188.583 38.2639C188.539 38.2639 188.517 38.2429 188.517 38.1996V0.448076C188.517 0.412653 188.547 0.383789 188.583 0.383789C197.89 0.383789 207.203 0.383789 216.523 0.383789C217.731 0.383789 218.618 0.433643 219.182 0.533352ZM218.558 10.5409C218.558 9.65013 217.925 8.71733 216.955 8.71602C210.327 8.71208 203.696 8.71208 197.061 8.71733C197.017 8.71733 196.996 8.73832 196.996 8.78161V29.87C196.996 29.9067 197.025 29.9356 197.062 29.9356C203.483 29.9369 209.904 29.9356 216.325 29.9343C217.818 29.9343 218.56 29.3924 218.56 27.8614C218.559 22.0875 218.559 16.3135 218.558 10.5409Z" fill="white"/>
</svg>
