<svg width="1112" height="492" viewBox="0 0 1112 492" fill="none" xmlns="http://www.w3.org/2000/svg">
<path d="M535.931 0H522.091C521.771 0 521.511 0.259677 521.511 0.580002V473.42C521.511 473.74 521.771 474 522.091 474H535.931C536.252 474 536.511 473.74 536.511 473.42V0.580002C536.511 0.259677 536.252 0 535.931 0Z" fill="#F5A020"/>
<path d="M298.431 73.24L295.721 75.02C295.373 75.2487 294.954 75.3435 294.543 75.2864C294.132 75.2293 293.758 75.0243 293.491 74.71C290.458 71.1767 288.101 67.2333 286.421 62.88C285.981 61.74 286.365 61.0833 287.571 60.91C289.931 60.56 291.591 58.34 291.731 55.94C292.025 51.1267 289.631 48.4267 284.551 47.84C284.346 47.8147 284.157 47.7125 284.025 47.5544C283.893 47.3963 283.827 47.1943 283.841 46.99C284.155 42.07 285.225 37.32 287.051 32.74C287.185 32.4 287.431 32.2467 287.791 32.28C288.825 32.3667 289.828 32.5167 290.801 32.73C295.381 33.71 298.521 30.65 297.961 26.05C297.781 24.59 296.681 23.43 295.931 22.23C295.598 21.69 295.658 21.2 296.111 20.76C299.651 17.32 303.768 14.8133 308.461 13.24C308.801 13.1267 309.095 13.2 309.341 13.46C310.971 15.17 311.441 17.08 313.611 17.93C319.811 20.35 321.891 16.4 323.271 11.21C323.378 10.8167 323.635 10.6333 324.041 10.66C329.055 10.9333 333.865 12.0667 338.471 14.06C338.831 14.22 338.971 14.4933 338.891 14.88C338.491 16.77 337.571 18.64 338.091 20.48C339.701 26.23 344.801 25.36 348.741 22.6C348.924 22.4744 349.146 22.4202 349.365 22.4479C349.585 22.4756 349.786 22.5831 349.931 22.75C353.231 26.5433 355.888 30.75 357.901 35.37C357.954 35.4909 357.979 35.6216 357.977 35.7531C357.974 35.8846 357.943 36.0138 357.886 36.1317C357.829 36.2496 357.747 36.3534 357.646 36.436C357.545 36.5186 357.428 36.5779 357.301 36.61C349.371 38.67 351.321 50.04 359.131 49.88C359.302 49.876 359.471 49.9086 359.628 49.9757C359.785 50.0428 359.925 50.1427 360.04 50.2689C360.155 50.395 360.241 50.5443 360.293 50.7067C360.345 50.869 360.362 51.0407 360.341 51.21C359.768 56.09 358.558 60.79 356.711 65.31C356.565 65.6767 356.298 65.8133 355.911 65.72C351.591 64.68 346.801 64.6 346.091 70.16C345.791 72.52 347.121 74.29 348.561 76.06C348.808 76.36 348.788 76.6433 348.501 76.91C344.721 80.4767 340.375 83.1267 335.461 84.86C335.297 84.9188 335.116 84.9108 334.958 84.8377C334.801 84.7646 334.679 84.6323 334.621 84.47C333.788 82.17 332.265 80.5533 330.051 79.62C329.671 79.4533 329.431 79.5734 329.331 79.98L293.701 219.44C293.684 219.511 293.696 219.587 293.735 219.65C293.775 219.714 293.838 219.761 293.911 219.78L346.931 233.56C347.298 233.653 347.435 233.883 347.341 234.25L339.821 263.31C339.802 263.376 339.759 263.431 339.701 263.465C339.643 263.499 339.575 263.508 339.511 263.49L256.661 242.05C256.268 241.95 256.121 241.703 256.221 241.31L299.101 73.71C299.122 73.6242 299.116 73.5342 299.085 73.4516C299.054 73.3691 298.999 73.2979 298.926 73.2472C298.854 73.1965 298.768 73.1687 298.68 73.1674C298.592 73.1662 298.505 73.1914 298.431 73.24ZM340.061 49C340.061 44.2394 338.17 39.6737 334.804 36.3074C331.438 32.9412 326.872 31.05 322.111 31.05C317.351 31.05 312.785 32.9412 309.419 36.3074C306.053 39.6737 304.161 44.2394 304.161 49C304.161 53.7606 306.053 58.3263 309.419 61.6926C312.785 65.0589 317.351 66.95 322.111 66.95C326.872 66.95 331.438 65.0589 334.804 61.6926C338.17 58.3263 340.061 53.7606 340.061 49Z" fill="#F5A020"/>
<path d="M207.411 115.36L192.741 168.3C192.714 168.397 192.648 168.479 192.56 168.527C192.472 168.576 192.368 168.588 192.271 168.56L118.661 148.42C118.613 148.407 118.567 148.385 118.527 148.354C118.487 148.324 118.453 148.285 118.428 148.242C118.403 148.198 118.387 148.15 118.38 148.099C118.374 148.049 118.378 147.999 118.391 147.95L125.771 120.94C125.784 120.891 125.807 120.845 125.837 120.805C125.868 120.765 125.906 120.732 125.95 120.706C125.994 120.681 126.042 120.665 126.092 120.659C126.142 120.653 126.193 120.656 126.241 120.67L167.901 132.06C167.95 132.074 168.001 132.077 168.051 132.071C168.101 132.065 168.149 132.049 168.193 132.024C168.237 131.998 168.275 131.965 168.306 131.925C168.336 131.885 168.359 131.839 168.371 131.79L183.011 78.81C183.039 78.7155 183.103 78.6355 183.189 78.587C183.275 78.5385 183.376 78.5252 183.471 78.55L265.001 100.39C265.098 100.418 265.18 100.483 265.229 100.571C265.277 100.659 265.289 100.763 265.261 100.86L258.201 127.84C258.189 127.889 258.166 127.935 258.136 127.975C258.105 128.015 258.067 128.048 258.023 128.074C257.979 128.099 257.931 128.115 257.881 128.121C257.831 128.127 257.78 128.124 257.731 128.11L207.871 115.09C207.775 115.066 207.672 115.08 207.586 115.131C207.5 115.181 207.437 115.264 207.411 115.36Z" fill="#F5A020"/>
<path d="M359.241 178.88L412.101 193.25C412.22 193.283 412.321 193.361 412.383 193.468C412.445 193.574 412.462 193.701 412.431 193.82L390.981 275.22C390.949 275.339 390.871 275.44 390.764 275.502C390.657 275.563 390.531 275.581 390.411 275.55L363.561 268.67C363.501 268.655 363.444 268.628 363.393 268.59C363.343 268.553 363.301 268.506 363.269 268.452C363.238 268.398 363.217 268.338 363.209 268.276C363.201 268.214 363.205 268.15 363.221 268.09L376.001 218.35C376.032 218.231 376.015 218.104 375.953 217.998C375.891 217.891 375.79 217.813 375.671 217.78L322.801 203.39C322.683 203.357 322.582 203.279 322.52 203.172C322.458 203.066 322.441 202.939 322.471 202.82L342.271 129.3C342.304 129.181 342.382 129.08 342.489 129.018C342.596 128.957 342.722 128.939 342.841 128.97L369.761 136.19C369.88 136.223 369.981 136.301 370.043 136.408C370.105 136.514 370.122 136.641 370.091 136.76L358.911 178.31C358.881 178.429 358.898 178.556 358.96 178.662C359.022 178.769 359.123 178.847 359.241 178.88Z" fill="#F5A020"/>
<path d="M28.6415 137.22C33.6915 139.42 39.0015 137.15 39.4915 131.27C39.5062 131.088 39.5577 130.911 39.6427 130.75C39.7278 130.589 39.8445 130.447 39.9859 130.333C40.1273 130.218 40.2903 130.134 40.4649 130.086C40.6395 130.037 40.8221 130.025 41.0015 130.05C45.6548 130.67 50.1515 131.857 54.4915 133.61C54.7742 133.726 55.0004 133.947 55.1219 134.228C55.2433 134.508 55.2504 134.825 55.1415 135.11C53.3615 139.8 55.5115 144.96 61.1515 144.41C61.5581 144.37 61.9348 144.243 62.2815 144.03L65.5615 141.95C65.7156 141.852 65.8991 141.812 66.08 141.836C66.2609 141.86 66.4277 141.946 66.5515 142.08C69.9581 145.82 72.5081 150.067 74.2015 154.82C74.3215 155.167 74.2348 155.447 73.9415 155.66C71.9915 157.06 69.6815 157.75 69.0915 160.56C69.0181 160.907 69.1548 161.127 69.5015 161.22L208.351 197.29C208.517 197.332 208.692 197.306 208.84 197.218C208.988 197.13 209.096 196.987 209.141 196.82L223.061 144.13C223.079 144.065 223.109 144.004 223.15 143.95C223.191 143.897 223.243 143.852 223.301 143.818C223.36 143.785 223.425 143.763 223.492 143.755C223.558 143.747 223.626 143.752 223.691 143.77L252.571 151.4C252.685 151.43 252.782 151.505 252.842 151.607C252.902 151.71 252.92 151.833 252.891 151.95L231.061 234.83C231.043 234.899 230.997 234.957 230.936 234.993C230.874 235.029 230.8 235.038 230.731 235.02L62.9015 191.38C62.823 191.361 62.7402 191.366 62.6642 191.394C62.5882 191.422 62.5226 191.472 62.476 191.537C62.4293 191.602 62.4039 191.679 62.4031 191.758C62.4023 191.838 62.4262 191.915 62.4715 191.98L64.2215 194.64C64.47 195.02 64.5707 195.478 64.5043 195.926C64.4379 196.374 64.2091 196.781 63.8615 197.07C60.2881 200.05 56.3281 202.37 51.9815 204.03C51.8077 204.098 51.6214 204.127 51.4352 204.115C51.2489 204.104 51.0671 204.052 50.9021 203.964C50.737 203.876 50.5926 203.753 50.4787 203.604C50.3647 203.455 50.2838 203.283 50.2415 203.1C48.6815 196.48 40.1815 197.5 37.6615 202.96C37.3015 203.73 37.3715 205.17 36.7915 206.09C36.5915 206.403 36.3081 206.547 35.9415 206.52C31.1081 206.127 26.4448 205.027 21.9515 203.22C21.7972 203.157 21.6683 203.045 21.585 202.902C21.5017 202.759 21.4688 202.593 21.4915 202.43C21.8215 200.17 22.6215 197.68 21.7115 195.61C19.5015 190.57 14.7915 191.89 11.2215 194.57C10.9148 194.803 10.6281 194.783 10.3615 194.51C6.72814 190.797 4.08812 186.473 2.44146 181.54C2.33479 181.213 2.43479 180.97 2.74146 180.81C6.97146 178.62 10.1015 173.36 6.27146 169.4C4.81146 167.9 2.61146 167.37 0.541463 166.79C0.377621 166.742 0.234822 166.641 0.136648 166.503C0.0384731 166.365 -0.00920211 166.198 0.00147008 166.03C0.314803 160.997 1.48147 156.173 3.50147 151.56C3.56933 151.41 3.69308 151.293 3.8463 151.233C3.99952 151.173 4.17006 151.176 4.32146 151.24C9.56146 153.51 15.7615 151.48 13.9715 144.66C13.6715 143.51 12.6615 142.65 12.2215 141.6C11.9415 140.953 12.0715 140.403 12.6115 139.95C16.3581 136.817 20.4748 134.277 24.9615 132.33C25.2948 132.183 25.5481 132.27 25.7215 132.59L27.8215 136.47C28.0081 136.81 28.2815 137.06 28.6415 137.22ZM56.2615 168.24C56.2615 163.479 54.3703 158.914 51.004 155.547C47.6378 152.181 43.0721 150.29 38.3115 150.29C35.9542 150.29 33.6201 150.754 31.4423 151.656C29.2645 152.558 27.2857 153.881 25.6189 155.547C23.9521 157.214 22.6299 159.193 21.7278 161.371C20.8258 163.549 20.3615 165.883 20.3615 168.24C20.3615 170.597 20.8258 172.931 21.7278 175.109C22.6299 177.287 23.9521 179.266 25.6189 180.933C27.2857 182.599 29.2645 183.922 31.4423 184.824C33.6201 185.726 35.9542 186.19 38.3115 186.19C43.0721 186.19 47.6378 184.299 51.004 180.933C54.3703 177.566 56.2615 173.001 56.2615 168.24Z" fill="#F5A020"/>
<path d="M802.511 247.25V268.44C802.511 268.522 802.544 268.601 802.602 268.659C802.66 268.717 802.739 268.75 802.821 268.75H937.201C937.284 268.75 937.363 268.783 937.421 268.841C937.479 268.899 937.511 268.978 937.511 269.06V293.69C937.511 293.772 937.479 293.851 937.421 293.909C937.363 293.967 937.284 294 937.201 294H777.821C777.739 294 777.66 293.967 777.602 293.909C777.544 293.851 777.511 293.772 777.511 293.69V175.06C777.511 174.978 777.544 174.899 777.602 174.841C777.66 174.783 777.739 174.75 777.821 174.75H937.201C937.284 174.75 937.363 174.783 937.421 174.841C937.479 174.899 937.511 174.978 937.511 175.06V199.48C937.511 199.562 937.479 199.641 937.421 199.699C937.363 199.757 937.284 199.79 937.201 199.79L802.821 200.06C802.739 200.06 802.66 200.093 802.602 200.151C802.544 200.209 802.511 200.288 802.511 200.37V221.44C802.511 221.522 802.544 221.601 802.602 221.659C802.66 221.717 802.739 221.75 802.821 221.75H911.942C912.024 221.75 912.103 221.783 912.161 221.841C912.219 221.899 912.251 221.978 912.251 222.06L912.271 246.37C912.271 246.452 912.239 246.531 912.181 246.589C912.123 246.647 912.044 246.68 911.961 246.68L802.821 246.94C802.739 246.94 802.66 246.973 802.602 247.031C802.544 247.089 802.511 247.168 802.511 247.25Z" fill="#D9D9D9"/>
<path d="M976.581 200.48L976.792 268.17C976.798 268.557 976.991 268.75 977.371 268.75H1111.14C1111.39 268.75 1111.51 268.877 1111.51 269.13L1111.54 293.52C1111.54 293.84 1111.38 294 1111.05 294H952.011C951.678 294 951.511 293.833 951.511 293.5V175.25C951.511 174.917 951.678 174.75 952.011 174.75H1110.98C1111.33 174.75 1111.51 174.927 1111.51 175.28L1111.55 199.46C1111.55 199.509 1111.54 199.558 1111.52 199.604C1111.5 199.649 1111.47 199.691 1111.44 199.725C1111.4 199.76 1111.36 199.787 1111.32 199.805C1111.27 199.823 1111.22 199.831 1111.17 199.83C1079.74 199.677 1048.58 199.727 1017.7 199.98C1004.22 200.093 990.818 199.963 977.491 199.59C977.373 199.587 977.255 199.608 977.145 199.652C977.034 199.695 976.934 199.761 976.849 199.844C976.764 199.926 976.697 200.025 976.651 200.135C976.605 200.244 976.581 200.361 976.581 200.48Z" fill="#D9D9D9"/>
<path d="M763.511 263.75V293.68C763.511 293.765 763.478 293.846 763.418 293.906C763.358 293.966 763.276 294 763.191 294H603.821C603.737 294 603.655 293.966 603.595 293.906C603.535 293.846 603.501 293.765 603.501 293.68L603.511 175.07C603.511 174.985 603.545 174.904 603.605 174.844C603.665 174.784 603.747 174.75 603.831 174.75H763.191C763.276 174.75 763.358 174.784 763.418 174.844C763.478 174.904 763.511 174.985 763.511 175.07V204.74C763.511 204.822 763.479 204.901 763.421 204.96L734.381 234.05C734.351 234.08 734.326 234.116 734.309 234.155C734.293 234.195 734.284 234.237 734.284 234.28C734.284 234.323 734.293 234.365 734.309 234.405C734.326 234.444 734.351 234.48 734.381 234.51L763.421 263.53C763.479 263.589 763.511 263.668 763.511 263.75ZM725.781 207.13C727.371 205.52 730.402 203.07 732.292 200.49C732.512 200.197 732.438 200.047 732.071 200.04L629.171 199.9C628.545 199.9 628.235 200.213 628.241 200.84L628.471 221.36C628.478 221.62 628.611 221.75 628.871 221.75H710.542C710.908 221.75 711.225 221.62 711.491 221.36C716.298 216.667 721.061 211.923 725.781 207.13ZM711.121 246.98C711.09 246.948 711.053 246.923 711.012 246.905C710.97 246.888 710.926 246.88 710.881 246.88L628.811 246.97C628.724 246.97 628.64 247.005 628.578 247.067C628.516 247.129 628.481 247.212 628.481 247.3L628.401 268.42C628.401 268.508 628.436 268.591 628.498 268.653C628.56 268.715 628.644 268.75 628.731 268.75H732.091C732.157 268.751 732.221 268.732 732.275 268.696C732.33 268.661 732.373 268.61 732.398 268.55C732.424 268.49 732.431 268.424 732.419 268.36C732.407 268.296 732.377 268.237 732.331 268.19L711.121 246.98Z" fill="#D9D9D9"/>
<path d="M67.9315 307.12L90.0315 225.95C90.0477 225.889 90.0759 225.831 90.1144 225.781C90.1529 225.731 90.2009 225.689 90.2557 225.657C90.3106 225.626 90.3711 225.605 90.4339 225.597C90.4967 225.589 90.5604 225.593 90.6215 225.61L117.411 232.74C117.533 232.773 117.636 232.852 117.7 232.961C117.764 233.069 117.782 233.198 117.751 233.32L104.591 282.93C104.575 282.991 104.57 283.055 104.579 283.118C104.587 283.18 104.607 283.241 104.639 283.296C104.67 283.351 104.712 283.399 104.763 283.437C104.813 283.476 104.87 283.504 104.931 283.52L157.581 298.33C157.703 298.365 157.806 298.447 157.868 298.557C157.93 298.668 157.945 298.798 157.911 298.92L137.511 372.27C137.477 372.392 137.395 372.495 137.284 372.556C137.174 372.618 137.043 372.634 136.921 372.6L110.121 365.14C110 365.105 109.897 365.023 109.835 364.913C109.773 364.802 109.758 364.672 109.791 364.55L121.281 323.13C121.315 323.008 121.3 322.878 121.238 322.767C121.176 322.657 121.073 322.575 120.951 322.54L68.2615 307.71C68.1398 307.675 68.0368 307.593 67.975 307.483C67.9132 307.372 67.8976 307.242 67.9315 307.12Z" fill="#F5A020"/>
<path d="M180.851 428.66L183.611 426.8C183.918 426.596 184.288 426.511 184.652 426.561C185.017 426.61 185.351 426.791 185.591 427.07C188.811 430.77 191.241 434.937 192.881 439.57C192.933 439.716 192.953 439.872 192.94 440.026C192.927 440.181 192.881 440.331 192.805 440.466C192.73 440.602 192.626 440.719 192.501 440.811C192.376 440.903 192.233 440.968 192.081 441C184.051 442.7 186.631 453.76 194.461 454.08C194.576 454.085 194.688 454.113 194.791 454.162C194.894 454.211 194.987 454.28 195.062 454.365C195.138 454.45 195.195 454.549 195.231 454.656C195.267 454.764 195.281 454.877 195.271 454.99C194.885 459.943 193.751 464.717 191.871 469.31C191.808 469.464 191.696 469.593 191.553 469.676C191.41 469.76 191.244 469.793 191.081 469.77C188.811 469.47 186.421 468.62 184.321 469.48C179.031 471.66 180.651 476.31 183.141 479.97C183.237 480.109 183.28 480.278 183.264 480.446C183.247 480.615 183.172 480.772 183.051 480.89C179.405 484.437 175.171 487.037 170.351 488.69C170.005 488.81 169.725 488.72 169.511 488.42C168.481 487.01 167.701 485.61 166.391 484.62C161.591 481.01 156.331 484.38 155.731 489.85C155.693 490.196 155.522 490.513 155.255 490.734C154.988 490.954 154.645 491.061 154.301 491.03C149.315 490.63 144.531 489.43 139.951 487.43C139.591 487.27 139.508 487.02 139.701 486.68C143.581 479.79 136.391 473.08 130.791 478.51C130.637 478.66 130.453 478.776 130.252 478.851C130.05 478.926 129.834 478.958 129.619 478.944C129.403 478.931 129.193 478.873 129 478.775C128.808 478.676 128.638 478.538 128.501 478.37C125.495 474.63 122.998 470.577 121.011 466.21C120.966 466.112 120.941 466.006 120.938 465.898C120.935 465.79 120.955 465.682 120.995 465.581C121.035 465.48 121.095 465.388 121.172 465.311C121.249 465.233 121.34 465.172 121.441 465.13C126.615 462.997 128.045 459.577 125.731 454.87C124.361 452.07 122.091 451.63 119.241 451.24C119.08 451.217 118.935 451.133 118.836 451.006C118.736 450.879 118.692 450.719 118.711 450.56C119.271 445.573 120.551 440.783 122.551 436.19C122.617 436.043 122.73 435.921 122.872 435.843C123.015 435.766 123.18 435.736 123.341 435.76C128.391 436.48 133.501 437 133.271 429.81C133.265 429.464 133.161 429.127 132.971 428.84L130.731 425.42C130.511 425.087 130.548 424.787 130.841 424.52C134.628 421.04 138.938 418.45 143.771 416.75C143.915 416.701 144.071 416.7 144.215 416.746C144.359 416.793 144.484 416.886 144.571 417.01C146.001 419.11 146.331 421.56 149.571 421.85C149.838 421.877 150.005 421.76 150.071 421.5L186.771 282.83C186.871 282.463 186.738 282.23 186.371 282.13L133.831 268C133.385 267.88 133.221 267.593 133.341 267.14L141.011 238.59C141.03 238.521 141.062 238.456 141.106 238.399C141.15 238.342 141.204 238.295 141.267 238.26C141.329 238.224 141.398 238.202 141.469 238.193C141.54 238.185 141.612 238.19 141.681 238.21L224.361 260.33C224.436 260.348 224.5 260.397 224.539 260.464C224.579 260.532 224.59 260.613 224.571 260.69L180.241 428.22C180.219 428.299 180.221 428.383 180.248 428.461C180.275 428.538 180.326 428.606 180.392 428.654C180.459 428.702 180.539 428.728 180.621 428.729C180.703 428.731 180.784 428.706 180.851 428.66ZM174.891 452.75C174.891 447.989 173 443.424 169.634 440.057C166.268 436.691 161.702 434.8 156.941 434.8C152.181 434.8 147.615 436.691 144.249 440.057C140.883 443.424 138.991 447.989 138.991 452.75C138.991 457.511 140.883 462.076 144.249 465.443C147.615 468.809 152.181 470.7 156.941 470.7C161.702 470.7 166.268 468.809 169.634 465.443C173 462.076 174.891 457.511 174.891 452.75Z" fill="#F5A020"/>
<path d="M411.141 340.36L272.611 304.55C272.487 304.519 272.355 304.537 272.244 304.601C272.134 304.664 272.054 304.768 272.021 304.89L258.101 357.78C258.069 357.899 257.99 358.001 257.882 358.063C257.773 358.124 257.644 358.141 257.521 358.11L228.771 350.55C228.365 350.443 228.215 350.187 228.321 349.78L249.921 267.42C249.942 267.34 249.979 267.265 250.029 267.199C250.079 267.133 250.142 267.077 250.213 267.035C250.285 266.994 250.364 266.966 250.446 266.955C250.528 266.944 250.611 266.949 250.691 266.97L418.021 310.26C418.096 310.28 418.175 310.28 418.25 310.259C418.325 310.237 418.392 310.197 418.446 310.14C418.499 310.084 418.536 310.014 418.553 309.938C418.57 309.863 418.566 309.784 418.541 309.71C417.891 307.64 414.841 306.5 417.721 304.21C421.161 301.47 425.068 299.257 429.441 297.57C429.582 297.516 429.733 297.494 429.884 297.506C430.034 297.517 430.18 297.562 430.311 297.636C430.442 297.711 430.555 297.813 430.641 297.937C430.728 298.06 430.786 298.201 430.811 298.35C431.271 301.04 433.331 302.91 436.111 303.08C440.505 303.36 443.198 300.967 444.191 295.9C444.232 295.69 444.347 295.503 444.515 295.372C444.682 295.242 444.891 295.177 445.101 295.19C450.008 295.483 454.728 296.58 459.261 298.48C459.595 298.62 459.731 298.87 459.671 299.23C458.911 303.61 458.191 308.85 464.231 309.48C466.531 309.72 468.091 308.42 469.871 307.08C470.017 306.968 470.198 306.914 470.38 306.929C470.561 306.944 470.73 307.026 470.851 307.16C474.318 310.847 476.931 315.063 478.691 319.81C478.76 319.994 478.76 320.198 478.69 320.382C478.62 320.566 478.486 320.718 478.311 320.81C471.351 324.39 471.241 333.61 480.051 334.51C480.348 334.541 480.622 334.683 480.816 334.909C481.009 335.134 481.108 335.425 481.091 335.72C480.818 340.627 479.705 345.337 477.751 349.85C477.684 350.007 477.565 350.136 477.414 350.216C477.263 350.296 477.089 350.322 476.921 350.29C474.981 349.92 473.251 348.92 471.351 349.45C465.391 351.12 466.511 356.3 469.131 360.42C469.338 360.747 469.295 361.04 469.001 361.3C465.221 364.627 461.008 367.27 456.361 369.23C456.241 369.281 456.111 369.306 455.98 369.303C455.849 369.299 455.72 369.267 455.601 369.21C455.483 369.152 455.378 369.069 455.294 368.968C455.209 368.866 455.147 368.747 455.111 368.62C452.981 360.89 442.391 362.35 441.751 370.4C441.739 370.572 441.692 370.74 441.613 370.893C441.534 371.047 441.424 371.183 441.29 371.293C441.157 371.403 441.002 371.485 440.836 371.535C440.669 371.584 440.494 371.599 440.321 371.58C435.521 371.04 430.905 369.83 426.471 367.95C426.125 367.803 425.975 367.547 426.021 367.18C426.281 365.2 427.141 363.15 426.461 361.3C425.448 358.547 423.478 357.207 420.551 357.28C418.571 357.32 417.161 358.84 415.441 359.81C415.321 359.876 415.183 359.9 415.049 359.878C414.914 359.856 414.792 359.79 414.701 359.69C411.268 355.89 408.671 351.577 406.911 346.75C406.857 346.593 406.862 346.421 406.925 346.268C406.987 346.115 407.104 345.991 407.251 345.92C409.058 345.053 410.575 343.873 411.801 342.38C411.936 342.216 412.027 342.021 412.066 341.813C412.105 341.605 412.091 341.39 412.025 341.189C411.96 340.988 411.844 340.806 411.69 340.661C411.535 340.516 411.347 340.413 411.141 340.36ZM460.771 333.41C460.771 331.053 460.307 328.719 459.405 326.541C458.503 324.363 457.181 322.384 455.514 320.717C453.847 319.051 451.868 317.728 449.691 316.826C447.513 315.924 445.179 315.46 442.821 315.46C438.061 315.46 433.495 317.351 430.129 320.717C426.763 324.084 424.871 328.649 424.871 333.41C424.871 338.171 426.763 342.736 430.129 346.103C433.495 349.469 438.061 351.36 442.821 351.36C445.179 351.36 447.513 350.896 449.691 349.994C451.868 349.092 453.847 347.769 455.514 346.103C457.181 344.436 458.503 342.457 459.405 340.279C460.307 338.101 460.771 335.767 460.771 333.41Z" fill="#F5A020"/>
<path d="M312.852 369.97L298.192 423.07C298.181 423.109 298.163 423.146 298.138 423.179C298.113 423.211 298.082 423.238 298.047 423.259C298.012 423.279 297.973 423.293 297.932 423.298C297.892 423.303 297.851 423.301 297.812 423.29L216.172 401.54C216.132 401.53 216.095 401.511 216.063 401.487C216.03 401.462 216.003 401.431 215.983 401.396C215.962 401.36 215.949 401.321 215.944 401.281C215.938 401.24 215.941 401.199 215.952 401.16L223.002 374.02C223.012 373.981 223.03 373.944 223.055 373.911C223.08 373.879 223.111 373.852 223.146 373.831C223.181 373.811 223.22 373.797 223.261 373.792C223.301 373.787 223.342 373.789 223.382 373.8L273.392 386.79C273.47 386.812 273.553 386.802 273.624 386.763C273.695 386.723 273.748 386.658 273.772 386.58L288.432 333.49C288.442 333.451 288.46 333.414 288.485 333.381C288.51 333.349 288.541 333.322 288.576 333.301C288.611 333.281 288.65 333.267 288.691 333.262C288.731 333.257 288.772 333.259 288.812 333.27L362.572 353.35C362.611 353.36 362.648 353.379 362.68 353.403C362.713 353.428 362.74 353.459 362.76 353.494C362.781 353.53 362.794 353.569 362.799 353.609C362.805 353.649 362.802 353.691 362.792 353.73L355.402 380.91C355.391 380.949 355.373 380.986 355.348 381.019C355.323 381.051 355.292 381.078 355.257 381.099C355.222 381.119 355.183 381.133 355.142 381.138C355.102 381.143 355.061 381.141 355.022 381.13L313.232 369.75C313.192 369.739 313.151 369.737 313.111 369.742C313.07 369.747 313.031 369.761 312.996 369.781C312.961 369.802 312.93 369.829 312.905 369.861C312.88 369.894 312.862 369.931 312.852 369.97Z" fill="#F5A020"/>
</svg>
