<svg width="372" height="196" viewBox="0 0 372 196" fill="none" xmlns="http://www.w3.org/2000/svg">
<g clip-path="url(#clip0_195_1972)">
<path fill-rule="evenodd" clip-rule="evenodd" d="M217.709 107.888C217.709 111.035 217.098 113.813 215.89 116.222C214.669 118.638 213.037 120.624 210.977 122.181C208.54 124.06 205.922 125.382 203.15 126.173C200.371 126.952 196.773 127.341 192.37 127.341H173.817V63.9961H190.974C195.585 63.9961 199.035 64.1437 201.338 64.439C203.64 64.7342 205.855 65.4321 207.97 66.546C210.285 67.7605 211.984 69.3576 213.044 71.3237C214.118 73.2898 214.655 75.6116 214.655 78.2621C214.655 81.2482 213.85 83.9121 212.239 86.254C210.634 88.6093 208.406 90.4547 205.567 91.7766V92.1188C209.419 93.1455 212.406 95.0109 214.521 97.7219C216.642 100.433 217.696 103.808 217.696 107.874L217.709 107.888ZM205.701 79.47C205.701 77.9266 205.439 76.6114 204.909 75.4774C204.399 74.3702 203.553 73.4777 202.398 72.8268C201.002 72.0618 199.452 71.5921 197.74 71.4176C196.035 71.2566 193.672 71.1694 190.658 71.1694H182.395V89.7165H192.182C194.874 89.7165 196.867 89.5823 198.136 89.3072C199.411 89.0321 200.727 88.4818 202.09 87.6296C203.398 86.8177 204.325 85.7306 204.875 84.402C205.426 83.0667 205.701 81.4159 205.701 79.47ZM208.762 108.23C208.762 105.841 208.406 103.875 207.708 102.318C207.01 100.775 205.607 99.4598 203.499 98.3862C202.13 97.6682 200.646 97.2186 199.042 97.0173C197.431 96.8227 195.149 96.722 192.189 96.722H182.395V120.174H189.41C193.176 120.174 196.149 120 198.324 119.658C200.499 119.315 202.418 118.597 204.063 117.484C205.687 116.376 206.869 115.115 207.627 113.712C208.386 112.303 208.768 110.478 208.768 108.237L208.762 108.23Z" fill="white"/>
<path fill-rule="evenodd" clip-rule="evenodd" d="M226.288 127.341V63.9961H266.817V71.4847H234.873V88.8442H264.642V96.3463H234.873V119.846H266.817V127.341H226.288Z" fill="white"/>
<path fill-rule="evenodd" clip-rule="evenodd" d="M294.257 128.468C289.559 128.468 285.578 127.984 282.289 127.052C279 126.106 275.912 124.925 273.019 123.542V113H273.63C276.463 115.604 279.671 117.617 283.269 119.046C286.854 120.476 290.324 121.187 293.653 121.187C298.392 121.187 301.983 120.227 304.42 118.281C306.85 116.335 308.065 113.772 308.065 110.605C308.065 108.075 307.42 106.028 306.152 104.438C304.883 102.848 302.856 101.673 300.07 100.902C298.077 100.338 296.251 99.8751 294.6 99.5061C292.948 99.137 290.874 98.6404 288.384 98.0231C286.155 97.4527 284.148 96.728 282.383 95.849C280.624 94.9699 279.06 93.8225 277.691 92.4066C276.355 91.0109 275.322 89.387 274.583 87.488C273.838 85.6158 273.476 83.4417 273.476 80.9723C273.476 75.839 275.516 71.5377 279.611 68.0618C283.685 64.5993 288.901 62.8613 295.237 62.8613C298.862 62.8613 302.279 63.217 305.514 63.9283C308.736 64.6395 311.73 65.6461 314.475 66.9479V77.0468H313.824C311.777 75.1948 309.139 73.591 305.923 72.2087C302.708 70.8331 299.332 70.1487 295.808 70.1487C291.814 70.1487 288.592 71.0613 286.122 72.8797C283.658 74.7116 282.437 77.1139 282.437 80.0866C282.437 82.7707 283.162 84.9112 284.605 86.5016C286.055 88.0919 288.156 89.2595 290.901 89.9909C292.734 90.4673 294.955 91.0176 297.593 91.6282C300.231 92.2321 302.413 92.8025 304.158 93.3125C308.615 94.6478 311.877 96.6609 313.925 99.3517C315.985 102.049 317.012 105.364 317.012 109.303C317.012 111.759 316.495 114.208 315.475 116.611C314.441 119.026 312.998 121.073 311.146 122.744C309.065 124.582 306.709 126.005 304.091 126.998C301.473 127.991 298.191 128.481 294.257 128.481V128.468Z" fill="white"/>
<path fill-rule="evenodd" clip-rule="evenodd" d="M340.935 127.341V71.4847H319.194V63.9961H371.268V71.4847H349.527V127.341H340.935Z" fill="white"/>
<path d="M336.632 152.867H327.155V135.836H329.329V150.854H336.632V152.867ZM350.191 135.836L344.566 152.867H342.224L336.599 135.836H338.928L343.452 149.948L347.97 135.836H350.198H350.191ZM357.468 152.867H351.118V151.129H353.205V137.574H351.118V135.836H357.468V137.574H355.38V151.129H357.468V152.867ZM371.993 135.836L366.368 152.867H364.019L358.401 135.836H360.73L365.254 149.948L369.771 135.836H371.986H371.993Z" fill="white"/>
<path fill-rule="evenodd" clip-rule="evenodd" d="M141.524 127.421L127.273 118.865H90.0532L75.7894 127.421C89.429 152.101 130.213 192.504 174.388 196C158.996 187.021 134.496 154.752 141.53 127.421H141.524Z" fill="white"/>
<path fill-rule="evenodd" clip-rule="evenodd" d="M151.586 0C151.821 18.3794 137.241 56.5943 110.996 63.9286V81.0734L129.616 114.638L143.86 123.214C157.566 98.567 170.776 41.5969 151.586 0.00671026V0Z" fill="white"/>
<path fill-rule="evenodd" clip-rule="evenodd" d="M106.324 63.9219C78.9913 63.8884 24.9902 80.456 0 118.55C15.17 109.162 54.2427 103.19 73.4603 123.207L87.7039 114.631L106.317 81.0666L106.331 63.9219H106.324Z" fill="white"/>
<path fill-rule="evenodd" clip-rule="evenodd" d="M99.9271 104.841C99.9271 99.8351 103.834 95.7754 108.653 95.7754C113.473 95.7754 117.379 99.8351 117.379 104.841C117.379 109.847 113.473 113.933 108.653 113.933C103.834 113.933 99.9271 109.874 99.9271 104.841Z" fill="white"/>
</g>
<defs>
<clipPath id="clip0_195_1972">
<rect width="372" height="196" fill="white"/>
</clipPath>
</defs>
</svg>
