<svg width="39" height="538" viewBox="0 0 39 538" fill="none" xmlns="http://www.w3.org/2000/svg">
<path d="M36.92 4.27988C36.94 3.03988 36.22 -0.730122 38.45 0.389878C38.6159 0.474626 38.7552 0.60264 38.8522 0.759732C38.9493 0.916824 39.0004 1.09686 39 1.27988L39 45.4699C38.9999 45.7147 38.9109 45.9497 38.75 46.1299L26.52 60.1899C26.3591 60.3701 26.2701 60.605 26.27 60.8499C26.2433 96.7632 26.24 132.67 26.26 168.57C26.26 169.52 25.82 170.35 24.78 169.98C24.6253 169.924 24.4915 169.823 24.3967 169.688C24.3018 169.554 24.2506 169.394 24.25 169.23L24.25 59.7999C24.2504 59.561 24.3391 59.3268 24.5 59.1399L36.56 45.4499C36.7213 45.263 36.8101 45.0252 36.81 44.7799C36.65 31.2599 36.6866 17.7599 36.92 4.27988Z" fill="#E49311"/>
<path d="M22.67 228.06L37.82 237.12C37.9667 237.208 38.088 237.333 38.1721 237.482C38.2562 237.631 38.3003 237.799 38.3 237.97L38.33 299.68C38.3312 299.851 38.2884 300.02 38.2057 300.17C38.1229 300.32 38.0029 300.446 37.8574 300.536C37.7118 300.627 37.5456 300.678 37.3744 300.686C37.2033 300.693 37.033 300.657 36.88 300.58L23.45 293.86C23.2978 293.783 23.1285 293.747 22.9582 293.754C22.7878 293.761 22.6222 293.811 22.4769 293.901C22.3316 293.99 22.2115 294.115 22.1281 294.263C22.0446 294.412 22.0005 294.579 22 294.75L22 345.19C21.9999 345.356 22.0411 345.518 22.1197 345.663C22.1983 345.808 22.3119 345.931 22.45 346.02L27.3 349.2C27.4381 349.289 27.5517 349.413 27.6303 349.559C27.709 349.706 27.7501 349.871 27.75 350.04L27.75 535.68C27.75 537.207 27.19 537.453 26.07 536.42L22.33 532.97C22.2292 532.875 22.1487 532.761 22.0937 532.634C22.0387 532.506 22.0102 532.369 22.01 532.23L22 402.62C22 401.313 21.47 401.043 20.41 401.81L8.84005 410.2C7.78005 410.973 7.25002 410.707 7.25002 409.4L7.25003 264.98C7.24985 264.844 7.27721 264.709 7.33047 264.584C7.38373 264.459 7.46179 264.345 7.56002 264.25L16.94 255.21C17.038 255.118 17.1161 255.007 17.1694 254.883C17.2227 254.759 17.2502 254.625 17.25 254.49L17.25 60.8599C17.25 60.5946 17.3554 60.3403 17.5429 60.1528C17.7305 59.9652 17.9848 59.8599 18.25 59.8599L21.05 59.8599C21.3152 59.8599 21.5696 59.9663 21.7571 60.1557C21.9447 60.3451 22.05 60.602 22.05 60.8699C21.9034 113.623 21.96 166.373 22.22 219.12C22.23 220.99 21.72 224.59 22.2 227.37C22.2253 227.512 22.2802 227.646 22.3612 227.765C22.4422 227.884 22.5474 227.984 22.67 228.06Z" fill="#E49311"/>
<path d="M20.26 55.7197L7.37999 45.5397C7.33836 45.5061 7.30499 45.4634 7.28246 45.4148C7.25992 45.3663 7.24881 45.3132 7.24999 45.2597L7.24999 0.719713C7.25129 0.656376 7.26973 0.59458 7.30339 0.540914C7.33706 0.487248 7.3847 0.443724 7.44115 0.414983C7.49761 0.386243 7.56075 0.373362 7.62395 0.377717C7.68715 0.382073 7.748 0.403501 7.79998 0.439714L19.08 8.32971C19.1387 8.37058 19.2085 8.39248 19.28 8.39248C19.3515 8.39248 19.4213 8.37058 19.48 8.32971L30.95 0.419714C31.0027 0.383033 31.0644 0.361543 31.1285 0.357596C31.1925 0.353649 31.2564 0.367399 31.3132 0.397337C31.37 0.427275 31.4175 0.472248 31.4504 0.527342C31.4834 0.582436 31.5005 0.645529 31.5 0.709715L31.5 41.6197C31.5 41.6954 31.4754 41.7691 31.43 41.8297L20.76 55.6597C20.7316 55.6972 20.696 55.7285 20.6552 55.7519C20.6144 55.7753 20.5694 55.7902 20.5228 55.7958C20.4761 55.8014 20.4287 55.7976 20.3836 55.7845C20.3385 55.7714 20.2964 55.7494 20.26 55.7197Z" fill="#E49311"/>
<path d="M18.3352 404.894C17.1112 405.969 16.3495 407.103 16.6338 407.427C16.9181 407.75 18.1408 407.141 19.3648 406.066C20.5888 404.99 21.3506 403.856 21.0663 403.533C20.7819 403.209 19.5592 403.818 18.3352 404.894Z" fill="#E49311"/>
<path d="M18.2808 408.237C17.0685 409.317 16.318 410.454 16.6046 410.775C16.8911 411.097 18.1062 410.482 19.3186 409.402C20.5309 408.322 21.2814 407.186 20.9948 406.864C20.7082 406.542 19.4931 407.157 18.2808 408.237Z" fill="#E49311"/>
<path d="M18.3143 411.599C17.0806 412.671 16.3066 413.801 16.5855 414.122C16.8645 414.443 18.0909 413.833 19.3247 412.761C20.5584 411.688 21.3324 410.559 21.0534 410.238C20.7744 409.917 19.5481 410.526 18.3143 411.599Z" fill="#E49311"/>
<path d="M18.2451 414.91C16.996 415.973 16.2271 417.121 16.5277 417.475C16.8284 417.828 18.0848 417.253 19.3339 416.19C20.5831 415.126 21.352 413.978 21.0513 413.625C20.7506 413.272 19.4942 413.847 18.2451 414.91Z" fill="#E49311"/>
<path d="M18.3614 418.198C17.1806 419.214 16.4512 420.302 16.7321 420.628C17.013 420.955 18.1979 420.397 19.3787 419.381C20.5594 418.365 21.2889 417.277 21.008 416.951C20.7271 416.624 19.5421 417.183 18.3614 418.198Z" fill="#E49311"/>
<path d="M18.2653 421.493C17.0399 422.559 16.2903 423.703 16.591 424.049C16.8918 424.395 18.129 423.811 19.3544 422.746C20.5798 421.681 21.3294 420.537 21.0287 420.191C20.728 419.845 19.4908 420.428 18.2653 421.493Z" fill="#E49311"/>
<path d="M18.3284 424.788C17.0704 425.866 16.2662 426.992 16.5321 427.302C16.7981 427.613 18.0335 426.99 19.2915 425.912C20.5495 424.834 21.3537 423.708 21.0878 423.398C20.8218 423.087 19.5864 423.71 18.3284 424.788Z" fill="#E49311"/>
<path d="M18.2867 428.091C17.0574 429.083 16.2774 430.155 16.5444 430.486C16.8115 430.817 18.0245 430.281 19.2537 429.289C20.483 428.297 21.263 427.225 20.996 426.894C20.7289 426.563 19.5159 427.099 18.2867 428.091Z" fill="#E49311"/>
<path d="M18.3125 431.534C17.1122 432.611 16.3663 433.737 16.6466 434.05C16.927 434.362 18.1273 433.742 19.3276 432.665C20.5279 431.588 21.2737 430.462 20.9934 430.15C20.7131 429.837 19.5128 430.457 18.3125 431.534Z" fill="#E49311"/>
<path d="M18.3543 434.804C17.0997 435.895 16.2912 437.019 16.5485 437.315C16.8057 437.61 18.0313 436.966 19.2859 435.876C20.5406 434.785 21.3491 433.661 21.0918 433.365C20.8346 433.069 19.6089 433.713 18.3543 434.804Z" fill="#E49311"/>
<path d="M18.3093 437.994C17.0728 439.021 16.2992 440.129 16.5814 440.469C16.8636 440.809 18.0948 440.252 19.3314 439.226C20.5679 438.199 21.3415 437.091 21.0593 436.751C20.7771 436.411 19.5459 436.968 18.3093 437.994Z" fill="#E49311"/>
<path d="M18.2446 441.337C17.0035 442.443 16.2415 443.614 16.5428 443.952C16.844 444.29 18.0944 443.668 19.3356 442.562C20.5768 441.456 21.3388 440.285 21.0375 439.947C20.7363 439.609 19.4858 440.232 18.2446 441.337Z" fill="#E49311"/>
<path d="M18.2929 444.55C17.0409 445.627 16.28 446.795 16.5934 447.159C16.9067 447.524 18.1756 446.946 19.4275 445.869C20.6794 444.792 21.4403 443.624 21.127 443.26C20.8137 442.896 19.5448 443.473 18.2929 444.55Z" fill="#E49311"/>
<path d="M18.2677 447.855C17.0298 448.854 16.2738 449.97 16.579 450.348C16.8842 450.726 18.1351 450.223 19.3729 449.225C20.6108 448.226 21.3668 447.109 21.0617 446.731C20.7565 446.353 19.5056 446.856 18.2677 447.855Z" fill="#E49311"/>
<path d="M18.2786 451.395C17.0206 452.474 16.2251 453.609 16.5019 453.932C16.7786 454.255 18.0228 453.643 19.2808 452.565C20.5388 451.486 21.3342 450.351 21.0575 450.028C20.7807 449.705 19.5366 450.317 18.2786 451.395Z" fill="#E49311"/>
<path d="M18.308 454.634C17.0492 455.728 16.2491 456.869 16.5208 457.181C16.7925 457.494 18.0333 456.86 19.2921 455.766C20.5508 454.672 21.351 453.531 21.0792 453.219C20.8075 452.906 19.5668 453.54 18.308 454.634Z" fill="#E49311"/>
<path d="M20.1901 456.45C20.9568 456.217 21.0968 456.833 20.6101 458.3C20.5324 458.539 20.372 458.738 20.1601 458.86C19.2334 459.393 18.4801 459.77 17.9001 459.99C16.0801 460.67 15.8534 460.32 17.2201 458.94C18.7267 457.42 19.7168 456.59 20.1901 456.45Z" fill="#E49311"/>
<path d="M0.650018 -6.1633e-07L0.960015 0.00999772C1.22086 0.00998442 1.47111 0.112913 1.65649 0.296417C1.84186 0.47992 1.94737 0.72917 1.95001 0.989997C2.06334 12.1767 2.17998 23.3633 2.29998 34.55C2.32998 37.11 1.81001 41.49 2.27001 44.98C2.29635 45.1758 2.37977 45.36 2.51 45.51L14.5 59.15C14.6609 59.3302 14.7499 59.5651 14.75 59.81L14.75 169.26C14.7507 169.416 14.6928 169.566 14.5876 169.682C14.4823 169.799 14.3371 169.873 14.18 169.89L13.9 169.92C13.7606 169.935 13.6195 169.921 13.4858 169.879C13.3522 169.836 13.2291 169.766 13.1244 169.672C13.0197 169.579 12.9358 169.465 12.8782 169.337C12.8206 169.209 12.7905 169.07 12.79 168.93L12.59 60.77C12.5839 60.531 12.4956 60.3015 12.34 60.12L0.239982 46.07C0.0848512 45.8889 -0.000286191 45.6547 -8.66065e-06 45.41L-6.7037e-06 0.639999C-6.69628e-06 0.47026 0.0684633 0.307473 0.190362 0.18745C0.312261 0.0674265 0.477627 -6.23865e-07 0.650018 -6.1633e-07Z" fill="#E49311"/>
</svg>
