<svg width="75" height="75" viewBox="0 0 75 75" fill="none" xmlns="http://www.w3.org/2000/svg">
<path fill-rule="evenodd" clip-rule="evenodd" d="M0 37.5C0 16.7893 16.7893 0 37.5 0C58.2107 0 75 16.7893 75 37.5C75 58.2107 58.2107 75 37.5 75C16.7893 75 0 58.2107 0 37.5ZM37.5 18.75C47.8125 18.75 56.25 27.1875 56.25 37.5C56.25 46.875 49.4531 54.8438 40.0781 56.25V42.8906H44.5312L45.4688 37.5H40.3125V33.9844C40.3125 32.5781 41.0156 31.1719 43.3594 31.1719H45.7031V26.4844C45.7031 26.4844 43.5938 26.0156 41.4844 26.0156C37.2656 26.0156 34.4531 28.5938 34.4531 33.2812V37.5H29.7656V42.8906H34.4531V56.0156C25.5469 54.6094 18.75 46.875 18.75 37.5C18.75 27.1875 27.1875 18.75 37.5 18.75Z" fill="#E49311"/>
</svg>
