<svg width="600" height="350" viewBox="0 0 600 350" fill="none" xmlns="http://www.w3.org/2000/svg">
<path d="M515.117 34.4653C514.494 34.2838 513.867 34.1963 513.233 34.2028C450.978 34.326 388.689 34.3324 326.367 34.2223C326.209 34.2233 326.055 34.1968 325.924 34.146C325.793 34.0953 325.691 34.0227 325.632 33.9377C325.573 33.8528 325.559 33.7594 325.591 33.6696C325.624 33.5799 325.703 33.4981 325.817 33.4347L334.633 28.3111C335.044 28.0713 335.544 27.9514 336.133 27.9514H506.817C507.417 27.9514 507.922 28.0746 508.333 28.3209L516.533 33.0945C517.044 33.3991 517.206 33.7556 517.017 34.1639C516.761 34.6954 517.256 34.9385 518.5 34.8931C519.2 34.8672 519.794 35 520.283 35.2917L566.767 62.407C567.256 62.6922 567.5 63.0357 567.5 63.4375V100.139C567.5 100.476 567.256 100.738 566.767 100.926L553.667 105.933C553.044 106.173 552.717 106.076 552.683 105.642C551.65 89.8528 551.133 78.7857 551.133 72.4403C551.133 70.0875 551.817 69.0861 548.817 67.2681C538.472 61.0329 528.233 54.7167 518.1 48.3195C517.989 48.2492 517.844 48.2001 517.684 48.1785C517.524 48.157 517.357 48.1639 517.204 48.1986C517.052 48.2332 516.92 48.2938 516.827 48.3726C516.734 48.4514 516.684 48.5447 516.683 48.6403L516.667 147.749C516.669 147.832 516.628 147.913 516.549 147.982C516.47 148.051 516.357 148.104 516.225 148.135C516.093 148.165 515.948 148.172 515.81 148.153C515.671 148.134 515.546 148.092 515.45 148.031L506.833 142.79C506.444 142.55 506.25 142.262 506.25 141.925V48.8153C506.25 48.4523 505.939 48.2417 505.317 48.1834C501.6 47.8625 498.633 47.8042 495.75 49.5056C487.828 54.1658 479.867 58.8033 471.867 63.4181C471.4 63.6838 470.844 63.8167 470.2 63.8167L407.467 63.7486C406.867 63.7486 406.406 63.606 406.083 63.3209L397.433 55.7084C397.365 55.6476 397.326 55.5772 397.32 55.5046C397.314 55.432 397.341 55.3598 397.399 55.2953C397.456 55.2309 397.543 55.1767 397.648 55.1382C397.754 55.0997 397.875 55.0784 398 55.0764L460.8 54.075C461.378 54.0685 461.878 53.9486 462.3 53.7153L494.717 35.7584C495.593 35.2718 496.757 35.0003 497.967 35L514.9 34.9903C515.008 34.9889 515.114 34.9664 515.199 34.9265C515.285 34.8867 515.345 34.8318 515.37 34.7708C515.395 34.7099 515.384 34.6464 515.338 34.5909C515.292 34.5355 515.214 34.4912 515.117 34.4653Z" fill="#E49311"/>
<path d="M312.967 40.8527L321.5 36.0013C321.989 35.7226 322.583 35.5833 323.283 35.5833L360.417 35.6319C360.567 35.632 360.714 35.6579 360.84 35.7064C360.965 35.755 361.063 35.824 361.122 35.9048C361.181 35.9857 361.197 36.0748 361.169 36.1612C361.142 36.2475 361.071 36.3271 360.967 36.3902L334.317 52.6069C333.894 52.8596 333.389 52.986 332.8 52.986C297.544 52.986 262.311 52.986 227.1 52.986C224.883 52.986 215.783 46.9485 213.25 45.7624C212.805 45.555 212.3 45.4513 211.733 45.4513C193.667 45.4513 175.633 45.4513 157.633 45.4513C152.417 45.461 149.3 43.8666 146.483 41.6402C146.415 41.5865 146.374 41.5228 146.365 41.4562C146.355 41.3896 146.378 41.3228 146.429 41.2633C146.481 41.2037 146.561 41.1538 146.658 41.119C146.756 41.0843 146.869 41.0661 146.983 41.0666L312.017 41.0763C312.369 41.0763 312.71 40.9962 312.967 40.8527Z" fill="#E49311"/>
<path d="M359.267 43.2054L371.133 35.9429C371.217 35.8903 371.317 35.8477 371.428 35.8176C371.54 35.7876 371.661 35.7707 371.783 35.7679L392.717 35.4568C392.905 35.4532 393.09 35.4828 393.249 35.5418C393.407 35.6007 393.532 35.6863 393.606 35.7871C393.68 35.888 393.699 35.9996 393.663 36.1072C393.626 36.2148 393.534 36.3134 393.4 36.3902L380.433 43.8179C380.26 43.9172 380.026 43.973 379.783 43.9735L359.95 44.1193C359.769 44.1191 359.592 44.088 359.44 44.03C359.288 43.972 359.169 43.8895 359.097 43.7926C359.024 43.6956 359.002 43.5885 359.032 43.4843C359.062 43.38 359.144 43.2831 359.267 43.2054Z" fill="#E49311"/>
<path d="M409.9 43.9931H389.55C389.426 43.9937 389.305 43.973 389.201 43.9336C389.097 43.8943 389.015 43.838 388.965 43.7718C388.915 43.7055 388.9 43.6322 388.921 43.561C388.942 43.4897 388.999 43.4236 389.083 43.3709L401.583 35.8167C401.643 35.7825 401.713 35.7554 401.79 35.7371C401.867 35.7187 401.95 35.7094 402.033 35.7098L423.5 35.6125C423.624 35.6139 423.745 35.6367 423.848 35.678C423.95 35.7193 424.03 35.7773 424.076 35.8447C424.122 35.9121 424.133 35.986 424.108 36.0571C424.083 36.1282 424.022 36.1934 423.933 36.2445L410.333 43.8862C410.218 43.9529 410.063 43.9912 409.9 43.9931Z" fill="#E49311"/>
<path d="M423.167 44.5279C423.167 44.5866 423.186 44.6448 423.224 44.699C423.261 44.7533 423.317 44.8026 423.386 44.8441C423.456 44.8857 423.539 44.9186 423.63 44.9411C423.721 44.9635 423.818 44.9751 423.917 44.9751L469.917 45.0723C470.029 45.0743 470.138 45.0958 470.23 45.1341C470.321 45.1724 470.391 45.2257 470.43 45.2873C470.47 45.3488 470.477 45.4158 470.451 45.4797C470.424 45.5436 470.366 45.6015 470.283 45.646L458.55 51.8487C458.039 52.121 457.433 52.2571 456.733 52.2571H359.5C359.062 52.257 358.628 52.3077 358.225 52.4062C357.821 52.5047 357.456 52.649 357.15 52.8307L338.667 63.6029C338.244 63.8557 337.728 63.9821 337.117 63.9821L307.633 63.9237C306.822 63.9172 306.678 63.7325 307.2 63.3696L317.1 56.4182C317.589 56.0811 318.211 55.9126 318.967 55.9126L333.283 55.9029C333.961 55.9029 334.539 55.7603 335.017 55.4751L352.117 45.5098C352.606 45.2247 353.2 45.0853 353.9 45.0918C374.189 45.2473 394.406 45.2571 414.55 45.121C415.328 45.1145 416.672 45.0529 418.583 44.9362C419.05 44.9038 419.489 44.8163 419.9 44.6737C420.589 44.4274 420.833 44.2038 420.633 44.0029C420.367 43.7242 420.417 43.4714 420.783 43.2446L432.217 36.1571C432.672 35.8719 433.239 35.726 433.917 35.7196L454.517 35.5057C455.606 35.4927 455.761 35.7098 454.983 36.1571L442.1 43.5946C441.656 43.8538 441.117 43.9867 440.483 43.9932C435.55 44.0645 430.683 43.9899 425.883 43.7696C424.094 43.6853 423.189 43.9381 423.167 44.5279Z" fill="#E49311"/>
<path d="M459.067 36.8764C462.35 34.8444 477.933 35.4472 482.633 35.6708C483.511 35.7097 483.639 35.9106 483.017 36.2736L470.483 43.5847C469.994 43.8699 469.4 44.0157 468.7 44.0222L448.8 44.0903C448.686 44.0906 448.575 44.0712 448.481 44.0344C448.387 43.9977 448.313 43.9452 448.269 43.8833C448.225 43.8215 448.212 43.7529 448.232 43.6861C448.253 43.6193 448.305 43.557 448.383 43.5069C452.028 41.2579 455.589 39.0477 459.067 36.8764Z" fill="#E49311"/>
<path d="M519.167 68.5708V56.0291C519.162 55.9637 519.192 55.8991 519.252 55.8438C519.312 55.7886 519.399 55.7454 519.503 55.72C519.606 55.6946 519.72 55.6882 519.83 55.7018C519.94 55.7153 520.04 55.7481 520.117 55.7958L533.483 63.7291C533.577 63.787 533.631 63.8633 533.633 63.943L533.983 76.193C533.988 76.2572 533.959 76.3206 533.901 76.3752C533.843 76.4298 533.759 76.473 533.658 76.4992C533.558 76.5254 533.446 76.5333 533.337 76.5221C533.229 76.5108 533.129 76.4809 533.05 76.436L519.333 68.8041C519.28 68.7738 519.238 68.7375 519.209 68.6974C519.18 68.6573 519.166 68.6142 519.167 68.5708Z" fill="#E49311"/>
<path d="M547.983 128.975L567.267 140.224C567.678 140.47 567.883 140.765 567.883 141.108L567.983 158.083C567.981 158.179 567.933 158.272 567.845 158.353C567.757 158.433 567.632 158.498 567.486 158.538C567.339 158.579 567.176 158.595 567.017 158.583C566.857 158.571 566.707 158.533 566.583 158.472L554.333 152.561C553.822 152.321 553.606 152.01 553.683 151.628C554.35 148.024 554.5 145.448 554.133 143.899C553.617 141.672 539.683 134.663 536.4 132.514C536.022 132.261 535.833 131.966 535.833 131.629L535.433 63.6806C535.435 63.6122 535.472 63.5455 535.539 63.4895C535.606 63.4334 535.701 63.3905 535.811 63.3664C535.921 63.3422 536.04 63.3379 536.154 63.3541C536.268 63.3703 536.371 63.4061 536.45 63.457L546.9 70.2237C547.3 70.4829 547.5 70.7843 547.5 71.1278V128.304C547.5 128.57 547.661 128.794 547.983 128.975Z" fill="#E49311"/>
<path d="M519.167 85.0013V72.5568C519.166 72.497 519.196 72.4384 519.253 72.3886C519.31 72.3387 519.39 72.2999 519.485 72.2769C519.58 72.254 519.684 72.248 519.785 72.2598C519.885 72.2715 519.978 72.3005 520.05 72.343L533.6 80.2374C533.648 80.2655 533.686 80.2989 533.712 80.3356C533.737 80.3723 533.75 80.4116 533.75 80.4513V92.6527C533.75 92.7125 533.72 92.7711 533.664 92.8209C533.607 92.8708 533.526 92.9097 533.431 92.9326C533.337 92.9555 533.232 92.9615 533.132 92.9497C533.031 92.938 532.939 92.909 532.867 92.8666L519.317 85.2152C519.269 85.187 519.231 85.1537 519.205 85.117C519.179 85.0803 519.166 85.0409 519.167 85.0013Z" fill="#E49311"/>
<path d="M519.167 103.26V90.7958C519.164 90.7332 519.194 90.6716 519.252 90.6191C519.311 90.5666 519.395 90.5255 519.494 90.5014C519.593 90.4772 519.702 90.4711 519.807 90.4837C519.913 90.4963 520.009 90.5272 520.083 90.5722L533.6 98.4958C533.695 98.5532 533.749 98.6298 533.75 98.7097V110.882C533.749 110.943 533.718 111.002 533.661 111.052C533.603 111.103 533.521 111.142 533.426 111.166C533.33 111.19 533.225 111.197 533.122 111.186C533.02 111.175 532.925 111.147 532.85 111.106L519.333 103.483C519.281 103.454 519.239 103.42 519.211 103.381C519.182 103.343 519.167 103.302 519.167 103.26Z" fill="#E49311"/>
<path d="M72.1166 194.989C74.4166 196.194 76.6166 197.449 78.7167 198.751C83.1333 201.483 80.85 203.447 80.85 206.587C80.8389 212.071 80.8333 217.489 80.8333 222.843C80.835 222.911 80.8017 222.978 80.7377 223.035C80.6738 223.091 80.582 223.136 80.4744 223.162C80.3668 223.188 80.2482 223.195 80.1339 223.181C80.0196 223.168 79.9149 223.135 79.8333 223.086C75.4667 220.617 50.85 207.696 50.85 205.333C50.8278 185.221 50.8222 165.077 50.8333 144.9C50.8332 144.489 51.115 144.094 51.6166 143.801L63.25 137.015C63.838 136.666 64.1672 136.194 64.1666 135.703C64.1666 125.041 64.1666 114.398 64.1666 103.775C64.1666 100.79 66.7667 99.2832 70.5167 97.6694C70.6238 97.6219 70.7517 97.593 70.8856 97.5859C71.0196 97.5789 71.1543 97.5939 71.2743 97.6294C71.3943 97.6649 71.4947 97.7194 71.5641 97.7867C71.6335 97.8539 71.669 97.9312 71.6666 98.0096V194.396C71.6666 194.629 71.8166 194.827 72.1166 194.989Z" fill="#E49311"/>
<path d="M532.867 128.625L519.833 121.372C519.389 121.126 519.167 120.828 519.167 120.478V108.413C519.167 107.933 519.472 107.855 520.083 108.179C525.717 111.238 529.994 113.737 532.917 115.675C534.467 116.706 533.817 126.233 534.017 128.314C534.024 128.393 533.99 128.472 533.919 128.54C533.849 128.608 533.745 128.662 533.622 128.696C533.498 128.729 533.36 128.74 533.226 128.728C533.091 128.715 532.966 128.679 532.867 128.625Z" fill="#E49311"/>
<path d="M527.733 155.011L519.8 150.451C519.378 150.212 519.167 149.92 519.167 149.576V126.963C519.169 126.914 519.196 126.866 519.244 126.826C519.291 126.786 519.358 126.754 519.436 126.736C519.513 126.717 519.599 126.712 519.681 126.722C519.763 126.731 519.839 126.754 519.9 126.788C528.567 131.688 537.228 136.568 545.883 141.429C547.95 142.586 549.15 143.831 549.15 145.619C549.161 165.219 549.039 184.816 548.783 204.41C548.783 204.812 548.739 205.22 548.65 205.635C548.594 205.946 548.378 206.208 548 206.422L536.467 213.16C536.044 213.4 535.833 213.694 535.833 214.044V248.257C535.833 248.6 535.622 248.895 535.2 249.142L529.35 252.535C529.265 252.582 529.158 252.615 529.042 252.627C528.926 252.64 528.806 252.632 528.698 252.605C528.59 252.578 528.497 252.533 528.432 252.475C528.367 252.418 528.333 252.351 528.333 252.282V155.857C528.333 155.526 528.133 155.244 527.733 155.011Z" fill="#E49311"/>
<path d="M46.6667 207.501C53.7222 211.475 59.2167 214.764 63.15 217.369C65.3333 218.818 64.1333 220.374 64.15 221.696C64.3611 239.001 64.4055 256.307 64.2833 273.613C64.25 277.858 64.4611 282.123 64.9167 286.407C64.9275 286.476 64.901 286.545 64.8407 286.605C64.7805 286.665 64.6896 286.712 64.5809 286.74C64.4722 286.768 64.3512 286.775 64.235 286.761C64.1188 286.746 64.0133 286.711 63.9333 286.66L53.1167 279.874C52.7055 279.614 52.5 279.307 52.5 278.95V221.735C52.4998 221.535 52.4319 221.337 52.3003 221.154C52.1686 220.97 51.9759 220.804 51.7333 220.665L32.8333 209.883C32.3333 209.598 32.0833 209.251 32.0833 208.843V191.819C32.0814 191.736 32.1209 191.653 32.197 191.582C32.2731 191.511 32.3826 191.454 32.5126 191.418C32.6425 191.382 32.7874 191.369 32.93 191.38C33.0725 191.391 33.2067 191.425 33.3167 191.479L44.9 197.06C45.4444 197.326 45.7278 197.669 45.75 198.09L46.0167 206.636C46.0278 206.973 46.2444 207.262 46.6667 207.501Z" fill="#E49311"/>
<path d="M85.9 315.068L85.45 315.418C85.0833 315.71 85.2111 315.855 85.8333 315.855H273.333C273.789 315.855 273.917 315.972 273.717 316.205C270.283 320.289 264.878 322.311 257.5 322.272C202.689 322.006 147.9 321.948 93.1333 322.097C92.7268 322.097 92.3326 322.003 92.0333 321.835L32.9833 287.476C32.6739 287.296 32.5 287.051 32.5 286.796V249.832C32.5 249.482 32.75 249.213 33.25 249.025L46.4 244.008C47.1111 243.736 47.4778 243.849 47.5 244.349L49 280.729C49.0222 281.105 49.2444 281.423 49.6667 281.682L81.15 301.185C81.3252 301.292 81.5516 301.366 81.7997 301.397C82.0479 301.428 82.3064 301.415 82.5418 301.36C82.7771 301.304 82.9784 301.209 83.1195 301.086C83.2607 300.962 83.3352 300.817 83.3333 300.669V202.65C83.3327 202.568 83.3738 202.487 83.4514 202.418C83.5291 202.349 83.6399 202.295 83.7699 202.263C83.8998 202.231 84.0432 202.222 84.182 202.237C84.3208 202.252 84.4488 202.291 84.55 202.349L93.1167 207.112C93.5389 207.346 93.75 207.634 93.75 207.978V301.155C93.75 301.493 94.0333 301.697 94.6 301.768C98.75 302.303 101.6 302.04 104.767 300.193C112.667 295.591 120.556 290.986 128.433 286.378C128.822 286.151 129.289 286.037 129.833 286.037L192.517 286.28C193.228 286.287 193.778 286.465 194.167 286.815L202.383 294.165C202.472 294.241 202.524 294.33 202.533 294.421C202.542 294.513 202.509 294.605 202.436 294.687C202.363 294.769 202.253 294.839 202.118 294.889C201.982 294.939 201.827 294.968 201.667 294.972L139.35 295.867C138.794 295.873 138.317 295.99 137.917 296.217C126.972 302.205 116.122 308.207 105.367 314.222C101.767 316.244 91.0333 315.146 86.4833 314.912C86.3713 314.907 86.2587 314.918 86.1565 314.945C86.0542 314.973 85.9659 315.015 85.9 315.068Z" fill="#E49311"/>
<path d="M80.8333 229.172V241.52C80.8315 241.596 80.7914 241.67 80.718 241.733C80.6447 241.796 80.5412 241.845 80.4206 241.874C80.2999 241.903 80.1673 241.91 80.0392 241.896C79.9111 241.881 79.7932 241.845 79.7 241.792L66.6667 234.16C66.5511 234.089 66.4857 233.995 66.4833 233.897L66.05 221.715C66.0451 221.638 66.0804 221.561 66.1512 221.495C66.222 221.429 66.3251 221.377 66.4471 221.345C66.5692 221.314 66.7046 221.305 66.8359 221.319C66.9671 221.333 67.0882 221.369 67.1833 221.424L80.6333 228.89C80.6975 228.927 80.7484 228.971 80.7827 229.019C80.8171 229.068 80.8343 229.12 80.8333 229.172Z" fill="#E49311"/>
<path d="M80.8333 246.925V258.854C80.8332 258.942 80.7887 259.028 80.7055 259.101C80.6223 259.174 80.504 259.231 80.3654 259.266C80.2267 259.3 80.0739 259.309 79.926 259.293C79.778 259.277 79.6414 259.236 79.5333 259.175L66.7666 251.747C66.6318 251.666 66.5544 251.559 66.55 251.446L66.05 239.293C66.0468 239.204 66.0888 239.117 66.1708 239.043C66.2527 238.968 66.3708 238.909 66.5101 238.874C66.6494 238.838 66.8036 238.828 66.9532 238.844C67.1027 238.859 67.2408 238.901 67.35 238.962L80.6 246.604C80.6737 246.646 80.7323 246.696 80.7724 246.751C80.8125 246.806 80.8332 246.865 80.8333 246.925Z" fill="#E49311"/>
<path d="M80.8333 265.047V277.375C80.8331 277.44 80.7997 277.504 80.7374 277.558C80.6751 277.613 80.5867 277.655 80.4833 277.68C80.38 277.705 80.2662 277.711 80.1565 277.699C80.0468 277.686 79.9459 277.654 79.8667 277.608L66.7167 269.938C66.6103 269.876 66.5504 269.792 66.55 269.704L66.0833 257.318C66.0802 257.252 66.1112 257.187 66.1722 257.131C66.2332 257.075 66.3214 257.032 66.4255 257.006C66.5296 256.979 66.6447 256.972 66.756 256.984C66.8674 256.997 66.9698 257.028 67.05 257.075L80.6667 264.814C80.773 264.876 80.833 264.96 80.8333 265.047Z" fill="#E49311"/>
<path d="M67.4833 273.846L80.5833 281.118C80.6618 281.162 80.7244 281.215 80.7673 281.273C80.8103 281.332 80.8327 281.395 80.8333 281.458V293.533C80.8357 293.629 80.7891 293.722 80.6995 293.802C80.61 293.881 80.4816 293.943 80.3309 293.98C80.1802 294.017 80.0141 294.026 79.8541 294.007C79.6941 293.988 79.5476 293.942 79.4333 293.874L66.8333 286.553C66.6849 286.464 66.6013 286.346 66.6 286.222L66.1 274.206C66.0942 274.111 66.1372 274.017 66.2233 273.936C66.3095 273.856 66.435 273.792 66.5836 273.753C66.7323 273.715 66.8974 273.703 67.0577 273.719C67.218 273.736 67.3662 273.78 67.4833 273.846Z" fill="#E49311"/>
<path d="M209.5 305.258L209.35 304.967C209.239 304.766 209.006 304.672 208.65 304.685C198.306 305.119 189.594 305.236 182.517 305.035C180.75 304.989 179.761 305.375 179.55 306.192C179.461 306.542 179.205 306.846 178.783 307.106L167.25 314.125C166.828 314.384 166.311 314.514 165.7 314.514H146.183C145.989 314.513 145.799 314.479 145.638 314.415C145.477 314.351 145.353 314.261 145.279 314.156C145.206 314.051 145.188 313.936 145.227 313.825C145.267 313.713 145.362 313.612 145.5 313.532L157.55 306.658C157.983 306.412 158.506 306.269 159.117 306.231C161.15 306.124 178.1 306.133 177.917 305.258C177.85 304.934 177.544 304.792 177 304.831C170.322 305.284 162.85 305.33 154.583 304.967C151.867 304.85 151.517 306.318 150.417 307.086C146.75 309.601 142.867 311.976 138.767 314.213C138.4 314.413 137.961 314.514 137.45 314.514H118.367C118.133 314.516 117.905 314.477 117.71 314.402C117.515 314.328 117.362 314.221 117.273 314.095C117.183 313.97 117.16 313.831 117.206 313.698C117.253 313.565 117.367 313.442 117.533 313.347L130.2 306.075C130.622 305.835 130.683 305.569 130.383 305.278C129.067 303.965 139.717 299.026 141.983 298.035C142.428 297.84 142.933 297.743 143.5 297.743C175.589 297.743 207.65 297.75 239.683 297.763C243.533 297.763 257.733 288.478 261.283 286.456C261.683 286.229 262.161 286.112 262.717 286.106L292.517 286.008C292.606 286.007 292.694 286.021 292.771 286.049C292.847 286.076 292.908 286.116 292.947 286.163C292.986 286.21 293 286.263 292.989 286.315C292.978 286.367 292.941 286.416 292.883 286.456L282.833 293.699C282.444 293.977 281.939 294.117 281.317 294.117C276.461 294.084 271.722 294.078 267.1 294.097C261.9 294.117 252.133 304.082 243.967 305.074C243.444 305.138 243.006 305.281 242.65 305.501L228.783 314.057C228.283 314.362 227.672 314.514 226.95 314.514H207.067C206.022 314.514 205.839 314.284 206.517 313.824C208.5 312.463 218.55 305.939 222.067 305.978C227.811 306.049 233.539 306.023 239.25 305.9C239.939 305.887 240.139 305.699 239.85 305.336L239.633 305.074C239.456 304.86 239.161 304.756 238.75 304.763L213.667 305.103C213.178 305.109 212.767 305.219 212.433 305.433L198.7 314.106C198.278 314.378 197.75 314.514 197.117 314.514H177.683C177.44 314.515 177.202 314.473 177 314.393C176.799 314.313 176.643 314.2 176.554 314.067C176.464 313.934 176.444 313.788 176.497 313.647C176.55 313.507 176.673 313.379 176.85 313.279L189.033 306.522C189.544 306.237 190.155 306.088 190.867 306.075L209.017 305.657C209.097 305.654 209.175 305.641 209.246 305.619C209.316 305.596 209.377 305.564 209.424 305.526C209.47 305.488 209.501 305.444 209.514 305.397C209.528 305.351 209.523 305.303 209.5 305.258ZM149.475 305.316C149.473 305.274 149.456 305.232 149.426 305.194C149.397 305.155 149.354 305.121 149.301 305.092C149.249 305.063 149.187 305.041 149.119 305.026C149.051 305.011 148.979 305.004 148.907 305.006L132.816 305.317C132.67 305.32 132.532 305.356 132.433 305.419C132.333 305.481 132.28 305.563 132.285 305.648L132.291 305.765C132.294 305.807 132.31 305.848 132.34 305.887C132.37 305.925 132.412 305.96 132.465 305.989C132.518 306.017 132.58 306.04 132.647 306.055C132.715 306.069 132.787 306.076 132.859 306.075L148.95 305.764C149.096 305.761 149.234 305.724 149.334 305.662C149.433 305.6 149.487 305.517 149.482 305.432L149.475 305.316Z" fill="#E49311"/>
<path d="M286.783 309.206C284.061 310.884 281.2 312.459 278.2 313.931C275.3 315.36 273.817 314.514 271.017 314.514C260.45 314.52 249.867 314.517 239.267 314.504C239.13 314.503 238.997 314.479 238.884 314.435C238.77 314.391 238.681 314.328 238.628 314.255C238.575 314.181 238.56 314.101 238.584 314.022C238.609 313.944 238.672 313.872 238.767 313.814L265.667 297.374C266.067 297.134 266.55 297.014 267.117 297.014H372.817C373.511 297.014 374.176 297.175 374.667 297.461L386.3 304.15C386.744 304.409 387.278 304.542 387.9 304.549C410.011 304.724 427.928 304.753 441.65 304.636C446.961 304.591 450.744 305.861 453 308.447C453.278 308.765 453.111 308.924 452.5 308.924H287.917C287.472 308.924 287.094 309.018 286.783 309.206Z" fill="#E49311"/>
</svg>
