<svg width="471" height="446" viewBox="0 0 471 446" fill="none" xmlns="http://www.w3.org/2000/svg">
<path d="M28.1048 313.14C13.2276 303.278 15.5987 298.41 22.0616 283.658C22.3554 282.987 22.1945 282.462 21.579 282.085C5.29592 271.677 -8.78389 265.151 6.68082 243.874C16.487 230.375 25.7267 216.47 34.3998 202.159C39.5197 193.724 36.1624 183.379 34.6516 175.091C27.3074 134.719 48.039 71.0553 78.15 42.8537C110.485 12.5957 160.468 0.761151 203.358 0.215585C214.877 0.0687014 224.551 -0.665712 224.593 13.2672C225.222 152.848 225.159 292.429 224.404 432.01C224.383 438.578 221.256 444.789 214.374 444.831C196.902 444.957 179.43 444.971 161.957 444.873C154.655 444.831 149.221 441.915 148.612 434.298C147.451 419.637 143.926 405.578 138.036 392.121C137.757 391.464 137.26 391.142 136.547 391.156C118.109 391.548 99.7559 392.184 81.4864 393.065C70.5751 393.583 62.8252 392.953 58.2369 391.177C40.2961 384.21 37.4634 363.164 39.4778 345.706C39.5617 344.965 39.3169 344.363 38.7433 343.901C33.3087 339.411 25.1462 335.844 24.9363 327.891C24.8524 323.925 27.5383 319.183 28.7343 314.819C28.9301 314.105 28.7203 313.546 28.1048 313.14ZM49.8855 324.723C53.9143 327.912 63.7135 333.913 62.3706 339.978C60.7129 347.427 58.2369 371.998 68.6656 371.495C88.0402 370.599 107.436 369.851 126.852 369.249C144.604 368.704 154.257 370.928 160.111 388.155C164.867 402.102 168.022 413.405 169.574 422.064C169.672 422.61 169.994 422.883 170.54 422.883H201.952C202.247 422.883 202.529 422.768 202.738 422.563C202.947 422.359 203.064 422.081 203.064 421.792L202.728 23.591C202.728 22.7237 202.294 22.297 201.427 22.311C165.818 22.7936 123.054 32.6558 95.2305 56.9755C67.9102 80.8755 49.3399 140.027 57.2297 175.091C60.545 189.905 59.7057 203.502 51.711 216.029C41.4152 232.172 32.3364 245.748 24.4747 256.758C24.055 257.345 24.1529 257.828 24.7685 258.206C30.1961 261.675 35.6728 265.06 41.1984 268.362C50.8717 274.132 44.4088 286.701 41.4502 294.36C41.3348 294.653 41.3153 294.974 41.3947 295.276C41.474 295.578 41.6479 295.845 41.8908 296.039C55.2992 306.719 54.8585 306.278 49.4029 323.044C49.1791 323.716 49.3399 324.275 49.8855 324.723Z" fill="#E49311"/>
<path d="M423.955 277.489L411.491 307.495C411.253 308.069 411.295 308.621 411.617 309.153C418.122 319.924 424.57 330.605 430.963 341.194C434.111 346.398 433.586 351.182 429.39 355.547C414.114 371.396 398.628 387.036 382.933 402.466C376.323 408.971 371.853 408.089 364.131 403.326C354.521 397.409 344.883 391.547 335.216 385.742C334.643 385.392 334.041 385.35 333.412 385.616L303.909 397.807C303.252 398.073 302.832 398.556 302.65 399.255C299.363 412.069 296.187 424.834 293.124 437.55C291.739 443.278 285.36 444.768 279.632 444.852C263.53 445.118 253.06 445.097 248.22 444.789C240.015 444.264 237.602 438.473 237.581 430.772C237.567 404.683 237.567 378.587 237.581 352.483C237.581 344.657 240.708 339.474 248.828 339.327C345.435 337.669 399.593 228.43 340.945 151.694C318.968 122.947 288.633 107.573 249.94 105.573C242.218 105.195 237.623 102.194 237.602 94.2206C237.574 67.4739 237.567 40.7271 237.581 13.9804C237.581 4.62181 241.043 0.236289 250.36 0.131372C266.181 -0.0364946 276.778 -0.0434855 282.15 0.110392C289.997 0.320225 292.515 4.99951 294.299 12.3227C296.985 23.4019 299.713 34.4811 302.482 45.5603C302.678 46.3017 303.126 46.8193 303.825 47.113L333.391 59.4093C333.992 59.6471 334.573 59.5981 335.133 59.2624C346.715 52.254 358.277 45.2875 369.818 38.363C373.637 36.0758 378.652 38.7617 381.862 41.9092C397.754 57.3529 413.519 72.9225 429.159 88.6181C434.866 94.3465 433.754 99.5294 429.662 106.181C423.605 116.043 417.597 125.919 411.638 135.81C411.316 136.341 411.274 136.894 411.512 137.467L423.976 167.536C424.074 167.776 424.228 167.989 424.425 168.157C424.622 168.325 424.857 168.443 425.109 168.502C435.797 170.908 446.4 173.503 456.92 176.286C467.726 179.119 471.042 180.399 471 192.905C470.916 213.791 470.825 234.676 470.727 255.561C470.706 260.891 468.251 265.717 463.194 267.165C455.724 269.305 443.078 272.376 425.256 276.377C424.626 276.517 424.193 276.887 423.955 277.489ZM407.882 185.582C406.422 184.662 405.347 183.237 404.86 181.574C400.929 167.907 395.446 154.632 388.409 141.748C387.192 139.503 386.584 134.614 387.654 132.893C394.41 121.982 401.027 111.035 407.504 100.054C407.924 99.3545 407.847 98.711 407.273 98.1235L372.504 63.3961C372.302 63.1921 372.038 63.0622 371.756 63.0279C371.474 62.9935 371.19 63.0568 370.951 63.2072L338.595 82.8896C337.963 83.2737 337.238 83.4769 336.496 83.4771H331.943C331.297 83.4773 330.669 83.3185 330.118 83.0155C317.528 76.0351 304.343 70.5025 290.564 66.4177C287.081 65.3895 284.017 62.5568 283.22 59.3253C280.212 47.2809 277.233 35.1735 274.281 23.0032C274.216 22.7461 274.067 22.518 273.858 22.3547C273.649 22.1914 273.392 22.1021 273.127 22.1009H260.663C259.963 22.1009 259.614 22.4506 259.614 23.1501V82.9106C259.614 83.5401 259.928 83.8968 260.558 83.9807C306.791 89.8561 341.7 111.238 365.286 148.127C421.29 235.69 364.362 350.742 260.327 360.814C260.13 360.835 259.948 360.928 259.817 361.075C259.685 361.222 259.612 361.413 259.614 361.611V421.833C259.614 422.533 259.963 422.882 260.663 422.882H273.106C273.352 422.881 273.59 422.797 273.784 422.645C273.978 422.494 274.116 422.282 274.176 422.043C276.002 414.573 281.961 380.916 289.095 378.88C302.916 374.95 316.129 369.557 328.733 362.702C331.314 361.296 336.748 360.898 338.721 362.136C349.282 368.697 359.97 375.18 370.783 381.587C371.511 382.021 372.168 381.937 372.756 381.335L407.42 346.692C407.952 346.16 408.022 345.573 407.63 344.929C403.454 338.11 384.087 310.748 387.843 304.117C394.683 292.002 400.09 279.301 404.063 266.011C405.112 262.486 407.378 258.352 410.672 257.534C422.857 254.54 435.048 251.54 447.246 248.532C448.044 248.322 448.449 247.805 448.463 246.979L449.072 197.92C449.072 197.179 448.708 196.717 447.981 196.535C435.866 193.57 423.787 190.632 411.743 187.722C410.19 187.345 409.099 186.316 407.882 185.582Z" fill="#E49311"/>
<path d="M237.561 138.412C237.561 137.012 237.836 135.626 238.372 134.333C238.908 133.039 239.693 131.864 240.683 130.875C241.672 129.885 242.848 129.1 244.141 128.564C245.434 128.028 246.82 127.752 248.22 127.752H248.85C273.926 127.752 297.975 137.729 315.707 155.489C333.439 173.248 343.4 197.335 343.4 222.45V222.618C343.4 247.733 333.439 271.82 315.707 289.579C297.975 307.339 273.926 317.316 248.85 317.316H248.22C245.393 317.316 242.682 316.193 240.683 314.194C238.684 312.195 237.561 309.483 237.561 306.656V138.412ZM313.772 254.471C334.545 210.888 309.303 158.682 260.747 150.708C259.992 150.582 259.614 150.904 259.614 151.673V293.814C259.614 294.514 259.957 294.787 260.642 294.633C286.046 288.897 303.756 275.51 313.772 254.471Z" fill="#E49311"/>
</svg>
