<svg width="55" height="244" viewBox="0 0 55 244" fill="none" xmlns="http://www.w3.org/2000/svg">
<path d="M32.6479 141.694C32.6515 141.917 32.5219 142.596 32.9234 142.394C32.9533 142.379 32.9784 142.356 32.9959 142.328C33.0133 142.299 33.0225 142.267 33.0225 142.234V134.277C33.0224 134.233 33.0064 134.191 32.9774 134.158L30.7753 131.626C30.7463 131.594 30.7303 131.552 30.7303 131.508C30.7255 125.041 30.7249 118.575 30.7285 112.111C30.7285 111.94 30.6492 111.791 30.462 111.857C30.4341 111.867 30.41 111.886 30.3929 111.91C30.3759 111.934 30.3666 111.963 30.3665 111.992L30.3665 131.697C30.3666 131.74 30.3826 131.782 30.4115 131.815L32.5831 134.281C32.6122 134.314 32.6281 134.357 32.6281 134.401C32.5993 136.836 32.6059 139.266 32.6479 141.694Z" fill="#E49311"/>
<path d="M30.0819 101.399L32.8099 99.7681C32.8363 99.7522 32.8581 99.7297 32.8733 99.7029C32.8884 99.6761 32.8964 99.6458 32.8963 99.615L32.9017 88.5033C32.9019 88.4725 32.8942 88.4421 32.8793 88.4151C32.8644 88.3881 32.8428 88.3653 32.8166 88.3491C32.7904 88.3328 32.7605 88.3235 32.7297 88.3222C32.6988 88.3208 32.6682 88.3274 32.6406 88.3412L30.2224 89.5513C30.195 89.5651 30.1645 89.5717 30.1338 89.5704C30.1032 89.5691 30.0733 89.56 30.0472 89.5439C30.021 89.5279 29.9994 89.5054 29.9844 89.4786C29.9693 89.4519 29.9614 89.4217 29.9613 89.391V80.3086C29.9613 80.2788 29.9687 80.2495 29.9828 80.2234C29.997 80.1973 30.0175 80.1752 30.0423 80.1592L30.9156 79.5866C30.9405 79.5705 30.961 79.5483 30.9751 79.5219C30.9893 79.4954 30.9967 79.4657 30.9967 79.4353L30.9967 46.0084C30.9967 45.7335 30.8958 45.6891 30.6942 45.8752L30.0207 46.4964C30.0026 46.5134 29.9881 46.534 29.9782 46.5569C29.9683 46.5798 29.9631 46.6046 29.9631 46.6296L29.9613 69.9676C29.9613 70.2029 29.8659 70.2515 29.675 70.1135L27.5917 68.6027C27.4008 68.4635 27.3054 68.5115 27.3054 68.7468V94.7515C27.3053 94.7759 27.3103 94.8002 27.3199 94.8228C27.3294 94.8454 27.3435 94.8658 27.3612 94.8829L29.0502 96.5107C29.0678 96.5273 29.0819 96.5473 29.0915 96.5696C29.1011 96.5919 29.106 96.616 29.106 96.6404L29.106 131.506C29.106 131.554 29.125 131.6 29.1587 131.633C29.1925 131.667 29.2383 131.686 29.2861 131.686H29.7902C29.838 131.686 29.8838 131.667 29.9176 131.633C29.9513 131.599 29.9703 131.552 29.9703 131.504C29.9439 122.005 29.9541 112.507 30.0009 103.009C30.0027 102.672 29.9109 102.024 29.9973 101.524C30.0019 101.498 30.0117 101.474 30.0263 101.452C30.0409 101.431 30.0599 101.413 30.0819 101.399Z" fill="#E49311"/>
<path d="M29.6481 132.431L27.3289 134.264C27.3214 134.27 27.3154 134.278 27.3113 134.287C27.3073 134.295 27.3053 134.305 27.3055 134.315V142.335C27.3057 142.346 27.309 142.357 27.3151 142.367C27.3211 142.376 27.3297 142.384 27.3399 142.389C27.3501 142.395 27.3614 142.397 27.3728 142.396C27.3842 142.395 27.3951 142.392 27.4045 142.385L29.4356 140.964C29.4462 140.957 29.4588 140.953 29.4716 140.953C29.4845 140.953 29.4971 140.957 29.5076 140.964L31.573 142.389C31.5824 142.395 31.5936 142.399 31.6051 142.4C31.6166 142.4 31.6281 142.398 31.6384 142.393C31.6486 142.387 31.6571 142.379 31.6631 142.369C31.669 142.359 31.6721 142.348 31.672 142.336V134.97C31.672 134.956 31.6676 134.943 31.6594 134.932L29.7381 132.442C29.733 132.435 29.7266 132.43 29.7192 132.425C29.7119 132.421 29.7038 132.418 29.6954 132.417C29.687 132.416 29.6785 132.417 29.6703 132.419C29.6622 132.422 29.6546 132.426 29.6481 132.431Z" fill="#E49311"/>
<path d="M29.3014 69.5577C29.081 69.3641 28.9439 69.1599 28.995 69.1016C29.0462 69.0433 29.2664 69.1531 29.4868 69.3467C29.7072 69.5403 29.8444 69.7445 29.7932 69.8028C29.742 69.8611 29.5218 69.7513 29.3014 69.5577Z" fill="#E49311"/>
<path d="M29.2917 68.9557C29.0734 68.7612 28.9382 68.5566 28.9898 68.4987C29.0414 68.4408 29.2602 68.5515 29.4785 68.746C29.6968 68.9405 29.8319 69.1451 29.7803 69.203C29.7287 69.2609 29.51 69.1502 29.2917 68.9557Z" fill="#E49311"/>
<path d="M29.2978 68.3508C29.0756 68.1577 28.9363 67.9543 28.9865 67.8965C29.0367 67.8387 29.2576 67.9484 29.4797 68.1415C29.7019 68.3347 29.8412 68.5381 29.791 68.5959C29.7408 68.6536 29.5199 68.5439 29.2978 68.3508Z" fill="#E49311"/>
<path d="M29.2852 67.7544C29.0603 67.5629 28.9219 67.3562 28.976 67.2926C29.0301 67.229 29.2564 67.3326 29.4813 67.524C29.7062 67.7154 29.8447 67.9222 29.7905 67.9858C29.7364 68.0494 29.5102 67.9458 29.2852 67.7544Z" fill="#E49311"/>
<path d="M29.3061 67.1621C29.0935 66.9792 28.9622 66.7833 29.0128 66.7245C29.0633 66.6657 29.2767 66.7663 29.4893 66.9492C29.7019 67.132 29.8333 67.3279 29.7827 67.3868C29.7321 67.4456 29.5187 67.345 29.3061 67.1621Z" fill="#E49311"/>
<path d="M29.2889 66.5692C29.0682 66.3774 28.9333 66.1714 28.9874 66.1091C29.0416 66.0468 29.2643 66.1518 29.485 66.3436C29.7056 66.5354 29.8406 66.7414 29.7865 66.8037C29.7323 66.866 29.5095 66.761 29.2889 66.5692Z" fill="#E49311"/>
<path d="M29.3002 65.9758C29.0737 65.7816 28.9289 65.579 28.9768 65.5231C29.0247 65.4672 29.2471 65.5793 29.4736 65.7735C29.7002 65.9676 29.845 66.1703 29.7971 66.2262C29.7492 66.282 29.5267 66.17 29.3002 65.9758Z" fill="#E49311"/>
<path d="M29.2928 65.3812C29.0714 65.2026 28.931 65.0095 28.979 64.9499C29.0271 64.8903 29.2456 64.9868 29.4669 65.1654C29.6882 65.344 29.8287 65.5371 29.7806 65.5967C29.7325 65.6563 29.5141 65.5598 29.2928 65.3812Z" fill="#E49311"/>
<path d="M29.2975 64.7608C29.0813 64.5669 28.947 64.364 28.9975 64.3078C29.048 64.2515 29.2641 64.3631 29.4802 64.5571C29.6964 64.751 29.8307 64.9538 29.7802 65.0101C29.7297 65.0663 29.5136 64.9547 29.2975 64.7608Z" fill="#E49311"/>
<path d="M29.3049 64.1724C29.079 63.976 28.9334 63.7736 28.9798 63.7203C29.0261 63.667 29.2468 63.783 29.4727 63.9794C29.6986 64.1758 29.8442 64.3782 29.7978 64.4314C29.7515 64.4847 29.5308 64.3687 29.3049 64.1724Z" fill="#E49311"/>
<path d="M29.2969 63.5979C29.0742 63.413 28.9349 63.2136 28.9857 63.1524C29.0365 63.0912 29.2582 63.1914 29.4809 63.3762C29.7035 63.5611 29.8428 63.7606 29.792 63.8218C29.7412 63.883 29.5195 63.7828 29.2969 63.5979Z" fill="#E49311"/>
<path d="M29.2854 62.9957C29.0619 62.7966 28.9247 62.5858 28.9789 62.5249C29.0332 62.464 29.2583 62.5761 29.4818 62.7752C29.7053 62.9743 29.8425 63.1851 29.7883 63.246C29.734 63.3069 29.5089 63.1948 29.2854 62.9957Z" fill="#E49311"/>
<path d="M29.2938 62.4172C29.0683 62.2233 28.9313 62.013 28.9878 61.9474C29.0442 61.8818 29.2727 61.9858 29.4981 62.1797C29.7235 62.3736 29.8605 62.5839 29.8041 62.6495C29.7477 62.7151 29.5192 62.6111 29.2938 62.4172Z" fill="#E49311"/>
<path d="M29.2894 61.8224C29.0665 61.6425 28.9303 61.4415 28.9853 61.3734C29.0403 61.3053 29.2655 61.3959 29.4884 61.5757C29.7113 61.7556 29.8474 61.9566 29.7925 62.0247C29.7375 62.0928 29.5123 62.0022 29.2894 61.8224Z" fill="#E49311"/>
<path d="M29.2914 61.1847C29.0648 60.9905 28.9216 60.786 28.9714 60.7279C29.0213 60.6697 29.2453 60.78 29.4718 60.9741C29.6983 61.1683 29.8416 61.3728 29.7917 61.431C29.7419 61.4891 29.5179 61.3788 29.2914 61.1847Z" fill="#E49311"/>
<path d="M29.2967 60.6015C29.07 60.4044 28.9259 60.1991 28.9749 60.1428C29.0238 60.0865 29.2472 60.2006 29.4739 60.3976C29.7005 60.5947 29.8446 60.8 29.7957 60.8563C29.7467 60.9126 29.5233 60.7985 29.2967 60.6015Z" fill="#E49311"/>
<path d="M29.6355 60.2746C29.7736 60.3166 29.7988 60.2055 29.7112 59.9414C29.6972 59.8985 29.6683 59.8625 29.6301 59.8406C29.4633 59.7446 29.3276 59.6767 29.2232 59.6371C28.8955 59.5147 28.8547 59.5777 29.1007 59.8262C29.372 60.0999 29.5503 60.2493 29.6355 60.2746Z" fill="#E49311"/>
<path d="M26.1171 142.464L26.1729 142.463C26.2199 142.463 26.265 142.444 26.2983 142.411C26.3317 142.378 26.3507 142.333 26.3512 142.286C26.3716 140.272 26.3926 138.257 26.4142 136.243C26.4196 135.782 26.326 134.994 26.4088 134.365C26.4136 134.33 26.4286 134.297 26.452 134.27L28.611 131.814C28.64 131.781 28.656 131.739 28.656 131.695L28.656 111.987C28.6561 111.959 28.6457 111.932 28.6268 111.911C28.6078 111.89 28.5817 111.877 28.5534 111.873L28.503 111.868C28.4779 111.865 28.4524 111.868 28.4284 111.875C28.4043 111.883 28.3821 111.896 28.3633 111.913C28.3444 111.929 28.3293 111.95 28.319 111.973C28.3086 111.996 28.3032 112.021 28.3031 112.046L28.2671 131.522C28.266 131.565 28.2501 131.606 28.2221 131.639L26.0433 134.169C26.0154 134.201 26 134.244 26.0001 134.288V142.349C26.0001 142.38 26.0124 142.409 26.0344 142.431C26.0563 142.452 26.0861 142.464 26.1171 142.464Z" fill="#E49311"/>
<path d="M21.1366 159.07L33.6567 153.626C33.6874 153.612 33.7212 153.606 33.7548 153.609C33.7884 153.611 33.8209 153.622 33.8491 153.641C33.8773 153.659 33.9004 153.684 33.9162 153.714C33.932 153.744 33.94 153.777 33.9394 153.811L33.8809 162.627C33.8806 162.665 33.8695 162.703 33.8487 162.735C33.828 162.767 33.7986 162.792 33.7639 162.808L21.2877 168.446C21.257 168.46 21.2233 168.466 21.1896 168.464C21.156 168.461 21.1235 168.45 21.0953 168.432C21.0671 168.413 21.044 168.388 21.0282 168.358C21.0124 168.328 21.0045 168.295 21.005 168.261L21.0148 159.255C21.0145 159.215 21.026 159.177 21.0477 159.144C21.0693 159.111 21.1003 159.085 21.1366 159.07Z" fill="#E49311"/>
<path d="M21.1267 147.851L33.6225 142.431C33.651 142.42 33.6819 142.415 33.7127 142.418C33.7435 142.42 33.7731 142.431 33.799 142.447C33.8249 142.464 33.8463 142.487 33.8614 142.514C33.8765 142.541 33.8848 142.571 33.8856 142.602L33.9295 151.355C33.929 151.391 33.9181 151.426 33.8983 151.456C33.8784 151.487 33.8504 151.511 33.8174 151.525L21.2681 157.247C21.2389 157.26 21.207 157.266 21.1752 157.263C21.1434 157.261 21.1127 157.25 21.086 157.233C21.0593 157.215 21.0374 157.191 21.0224 157.163C21.0073 157.135 20.9997 157.103 21 157.071L21.0146 148.026C21.0142 147.989 21.0246 147.953 21.0445 147.922C21.0644 147.891 21.093 147.866 21.1267 147.851ZM21.9211 155.371C21.9125 155.455 21.9261 155.54 21.9606 155.618C21.995 155.695 22.0492 155.763 22.1176 155.813C22.1861 155.863 22.2664 155.895 22.3508 155.904C22.4351 155.914 22.5205 155.901 22.5985 155.868C24.4115 155.078 26.3528 154.112 28.4224 152.968C29.6895 152.266 31.5999 151.828 32.945 150.526C33.024 150.45 33.0755 150.349 33.0912 150.239C33.3707 148.202 33.3122 146.155 32.9158 144.098C32.9019 144.025 32.8712 143.955 32.8259 143.896C32.7806 143.836 32.7221 143.788 32.655 143.755C32.5879 143.722 32.514 143.705 32.4391 143.705C32.3643 143.705 32.2905 143.723 32.2238 143.757C29.0218 145.351 25.9272 147.276 22.3987 148.172C22.2878 148.2 22.19 148.265 22.1223 148.358C22.0546 148.45 22.0214 148.564 22.0283 148.679C22.1875 150.928 22.1518 153.158 21.9211 155.371Z" fill="#E49311"/>
<path d="M33.7247 140.365L21.2387 146.009C21.2142 146.02 21.1871 146.025 21.1601 146.024C21.133 146.022 21.1068 146.013 21.084 145.999C21.0611 145.984 21.0423 145.964 21.0293 145.94C21.0163 145.916 21.0096 145.89 21.0097 145.863L21.0048 136.803C21.0041 136.771 21.0131 136.739 21.0304 136.712C21.0478 136.685 21.0728 136.664 21.1023 136.652L33.6711 131.183C33.696 131.172 33.7236 131.167 33.751 131.169C33.7785 131.171 33.805 131.18 33.828 131.195C33.851 131.21 33.8697 131.231 33.8823 131.255C33.895 131.28 33.9011 131.307 33.9002 131.335L33.8173 140.219C33.8174 140.25 33.8088 140.28 33.7924 140.306C33.776 140.331 33.7525 140.352 33.7247 140.365ZM22.077 137.714L22.0331 143.898C22.0325 143.981 22.0529 144.062 22.0924 144.135C22.1319 144.208 22.1891 144.269 22.2588 144.313C22.3285 144.357 22.4083 144.383 22.4907 144.388C22.5731 144.393 22.6555 144.377 22.73 144.342C25.0368 143.257 27.355 142.16 29.6846 141.052C30.6788 140.58 32.1408 140.316 33.1935 139.254C33.2452 139.202 33.2846 139.14 33.3091 139.072C33.3335 139.003 33.3423 138.931 33.3348 138.859L32.8085 133.835C32.7175 132.941 32.2724 132.704 31.4731 133.123C28.5328 134.67 25.5047 136.049 22.3889 137.261C22.2982 137.296 22.2201 137.359 22.1646 137.439C22.109 137.52 22.0785 137.616 22.077 137.714Z" fill="#E49311"/>
<path d="M21.9211 155.37C22.1518 153.158 22.1875 150.927 22.0283 148.679C22.0213 148.564 22.0546 148.45 22.1223 148.358C22.19 148.265 22.2878 148.199 22.3987 148.172C25.9271 147.276 29.0218 145.35 32.2237 143.757C32.2905 143.723 32.3642 143.705 32.4391 143.705C32.5139 143.704 32.5878 143.721 32.655 143.755C32.7221 143.788 32.7806 143.836 32.8259 143.896C32.8711 143.955 32.9019 144.024 32.9158 144.098C33.3122 146.155 33.3706 148.201 33.0912 150.239C33.0755 150.349 33.024 150.45 32.945 150.526C31.5999 151.827 29.6895 152.266 28.4224 152.968C26.3528 154.111 24.4115 155.078 22.5985 155.868C22.5205 155.901 22.4351 155.914 22.3508 155.904C22.2664 155.894 22.186 155.863 22.1176 155.813C22.0492 155.763 21.995 155.695 21.9606 155.618C21.9261 155.54 21.9125 155.455 21.9211 155.37Z" fill="#E49311"/>
<path d="M22.0771 137.714C22.0787 137.615 22.1091 137.52 22.1647 137.439C22.2202 137.358 22.2983 137.296 22.389 137.261C25.5048 136.049 28.5329 134.669 31.4732 133.123C32.2725 132.704 32.7176 132.941 32.8086 133.834L33.3349 138.859C33.3424 138.931 33.3337 139.003 33.3092 139.072C33.2848 139.14 33.2453 139.202 33.1936 139.254C32.1409 140.316 30.6789 140.579 29.6847 141.052C27.3551 142.16 25.0369 143.257 22.7301 144.342C22.6556 144.377 22.5732 144.393 22.4908 144.388C22.4084 144.383 22.3286 144.357 22.2589 144.313C22.1892 144.269 22.132 144.207 22.0925 144.135C22.053 144.062 22.0326 143.981 22.0332 143.898L22.0771 137.714Z" fill="#E49311"/>
<path d="M41.7563 168.369L35.3087 162.798C35.2929 162.784 35.2804 162.767 35.272 162.747C35.2636 162.728 35.2595 162.707 35.2599 162.686L35.2599 131.461C35.2593 131.433 35.267 131.405 35.2821 131.381C35.2973 131.356 35.3191 131.337 35.345 131.325C35.3709 131.313 35.3997 131.309 35.4279 131.314C35.456 131.318 35.4824 131.33 35.5036 131.349L41.7856 136.827C41.8013 136.841 41.8138 136.858 41.8222 136.878C41.8306 136.897 41.8348 136.918 41.8343 136.939L42 168.256C42.0006 168.285 41.9929 168.313 41.9778 168.337C41.9627 168.361 41.9408 168.38 41.9149 168.392C41.8891 168.404 41.8603 168.408 41.8321 168.404C41.8039 168.4 41.7776 168.388 41.7563 168.369Z" fill="#E49311"/>
<path d="M41.8634 24.5626L29.3433 30.0064C29.3126 30.0204 29.2788 30.0264 29.2452 30.0238C29.2116 30.0212 29.1791 30.0102 29.1509 29.9917C29.1227 29.9732 29.0996 29.9479 29.0838 29.9181C29.068 29.8882 29.06 29.8549 29.0606 29.8212L29.1191 21.005C29.1194 20.9669 29.1305 20.9297 29.1513 20.8977C29.172 20.8658 29.2014 20.8404 29.2361 20.8246L41.7123 15.186C41.743 15.172 41.7767 15.166 41.8104 15.1685C41.844 15.1711 41.8765 15.1822 41.9047 15.2006C41.9329 15.2191 41.956 15.2445 41.9718 15.2743C41.9876 15.3041 41.9955 15.3374 41.995 15.3712L41.9852 24.3775C41.9855 24.4169 41.974 24.4555 41.9523 24.4885C41.9307 24.5214 41.8997 24.5472 41.8634 24.5626Z" fill="#E49311"/>
<path d="M41.8733 35.7816L29.3775 41.2009C29.349 41.2128 29.3181 41.2176 29.2873 41.2148C29.2565 41.212 29.2269 41.2018 29.201 41.185C29.1751 41.1682 29.1537 41.1453 29.1386 41.1184C29.1235 41.0914 29.1152 41.0612 29.1144 41.0304L29.0705 32.2775C29.071 32.2413 29.0819 32.2061 29.1017 32.1759C29.1216 32.1457 29.1496 32.1217 29.1826 32.1069L41.7319 26.3854C41.7611 26.3723 41.793 26.3667 41.8248 26.3692C41.8566 26.3717 41.8873 26.3822 41.914 26.3997C41.9407 26.4172 41.9626 26.4411 41.9776 26.4693C41.9927 26.4974 42.0003 26.5289 42 26.5608L41.9854 35.6061C41.9858 35.6431 41.9754 35.6794 41.9555 35.7105C41.9356 35.7417 41.907 35.7664 41.8733 35.7816ZM41.0789 28.2617C41.0875 28.1772 41.0739 28.092 41.0394 28.0144C41.005 27.9368 40.9508 27.8696 40.8824 27.8194C40.8139 27.7691 40.7336 27.7377 40.6492 27.7281C40.5649 27.7185 40.4795 27.7311 40.4015 27.7646C38.5885 28.5541 36.6472 29.5207 34.5776 30.6643C33.3105 31.3661 31.4001 31.8048 30.055 33.106C29.976 33.1819 29.9245 33.2831 29.9088 33.3935C29.6293 35.4307 29.6878 37.4776 30.0842 39.5342C30.0981 39.6077 30.1288 39.6771 30.1741 39.7367C30.2194 39.7963 30.2779 39.8445 30.345 39.8776C30.4121 39.9107 30.486 39.9277 30.5609 39.9273C30.6357 39.9269 30.7095 39.9091 30.7762 39.8753C33.9782 38.2817 37.0728 36.3566 40.6013 35.4599C40.7122 35.4328 40.81 35.3672 40.8777 35.2745C40.9454 35.1819 40.9786 35.0681 40.9717 34.9531C40.8125 32.7047 40.8482 30.4743 41.0789 28.2617Z" fill="#E49311"/>
<path d="M29.2753 43.2671L41.7613 37.6236C41.7858 37.6121 41.8129 37.607 41.8399 37.6087C41.867 37.6105 41.8932 37.6191 41.916 37.6337C41.9389 37.6482 41.9577 37.6684 41.9707 37.6922C41.9837 37.716 41.9904 37.7427 41.9903 37.7698L41.9952 46.8297C41.9959 46.8617 41.9869 46.8932 41.9696 46.9201C41.9522 46.947 41.9272 46.9682 41.8977 46.9808L29.3289 52.4489C29.304 52.4606 29.2764 52.4657 29.249 52.4637C29.2215 52.4617 29.195 52.4527 29.172 52.4375C29.149 52.4224 29.1303 52.4016 29.1177 52.3771C29.105 52.3526 29.0989 52.3253 29.0998 52.2978L29.1827 43.4133C29.1826 43.3827 29.1912 43.3526 29.2076 43.3267C29.224 43.3008 29.2475 43.2801 29.2753 43.2671ZM40.923 45.9183L40.9669 39.7338C40.9675 39.6513 40.9471 39.5699 40.9076 39.4973C40.8681 39.4248 40.8109 39.3635 40.7412 39.3192C40.6715 39.2748 40.5917 39.2489 40.5093 39.2439C40.4269 39.2388 40.3445 39.2548 40.27 39.2903C37.9632 40.3755 35.645 41.4721 33.3154 42.58C32.3212 43.0527 30.8592 43.3159 29.8065 44.3783C29.7548 44.43 29.7154 44.4923 29.6909 44.5606C29.6665 44.6289 29.6577 44.7015 29.6652 44.7731L30.1915 49.7977C30.2825 50.6912 30.7276 50.9283 31.5269 50.5092C34.4672 48.9627 37.4953 47.5835 40.6111 46.3716C40.7018 46.3358 40.7799 46.2737 40.8354 46.193C40.891 46.1123 40.9215 46.0167 40.923 45.9183Z" fill="#E49311"/>
<path d="M41.0789 28.2619C40.8482 30.4744 40.8125 32.7049 40.9717 34.9532C40.9787 35.0683 40.9454 35.1821 40.8777 35.2747C40.81 35.3673 40.7122 35.4329 40.6013 35.4601C37.0729 36.3568 33.9782 38.2818 30.7763 39.8755C30.7095 39.9093 30.6358 39.9271 30.5609 39.9275C30.4861 39.9279 30.4122 39.9109 30.345 39.8778C30.2779 39.8447 30.2194 39.7964 30.1741 39.7368C30.1289 39.6772 30.0981 39.6079 30.0842 39.5343C29.6878 37.4777 29.6294 35.4308 29.9088 33.3937C29.9245 33.2833 29.976 33.182 30.055 33.1062C31.4001 31.8049 33.3105 31.3663 34.5776 30.6645C36.6472 29.5209 38.5885 28.5543 40.4015 27.7648C40.4795 27.7312 40.5649 27.7186 40.6492 27.7282C40.7336 27.7378 40.814 27.7693 40.8824 27.8195C40.9508 27.8698 41.005 27.937 41.0394 28.0146C41.0739 28.0922 41.0875 28.1774 41.0789 28.2619Z" fill="#E49311"/>
<path d="M40.9229 45.9185C40.9213 46.0169 40.8909 46.1125 40.8353 46.1932C40.7798 46.2739 40.7017 46.336 40.611 46.3718C37.4952 47.5837 34.4671 48.9629 31.5268 50.5094C30.7275 50.9285 30.2824 50.6913 30.1914 49.7979L29.6651 44.7733C29.6576 44.7017 29.6663 44.6291 29.6908 44.5608C29.7152 44.4925 29.7547 44.4302 29.8064 44.3785C30.8591 43.3161 32.3211 43.0529 33.3153 42.5802C35.6449 41.4722 37.9631 40.3757 40.2699 39.2905C40.3444 39.255 40.4268 39.239 40.5092 39.2441C40.5916 39.2491 40.6714 39.275 40.7411 39.3194C40.8108 39.3637 40.868 39.425 40.9075 39.4975C40.947 39.5701 40.9674 39.6514 40.9668 39.734L40.9229 45.9185Z" fill="#E49311"/>
<path d="M21.2437 15.2638L27.6913 20.8343C27.7071 20.8483 27.7196 20.8656 27.728 20.885C27.7364 20.9043 27.7405 20.9253 27.7401 20.9464V52.1711C27.7407 52.1996 27.733 52.2276 27.7179 52.2518C27.7027 52.2759 27.6809 52.2952 27.655 52.3071C27.6291 52.319 27.6003 52.3231 27.5721 52.3188C27.544 52.3146 27.5176 52.3022 27.4964 52.2832L21.2144 46.8053C21.1987 46.7913 21.1862 46.774 21.1778 46.7546C21.1694 46.7353 21.1652 46.7143 21.1657 46.6932L21 15.3759C20.9994 15.3474 21.0071 15.3194 21.0222 15.2952C21.0373 15.2711 21.0592 15.2519 21.0851 15.2399C21.1109 15.228 21.1397 15.2239 21.1679 15.2282C21.1961 15.2324 21.2224 15.2448 21.2437 15.2638Z" fill="#E49311"/>
<path d="M8.5506 1.00018H38.9642L54.472 16.5333L54.472 239.43L50.2954 243.464H12.7272L9.14726 239.43L8.96245 136.024L1.46993 128.158L1 35.2919L5.17131 30.6518H8.5506L8.5506 1.00018ZM38.3676 3.62029H11.8296L11.8296 184.665H17.6483L21.8196 181.182H42.0953L45.6753 184.665H51.4887L52.286 18.1461L38.3676 3.62029Z" fill="#E49311"/>
<path d="M54.472 239.43L54.472 16.5333L38.9642 1.00019H8.5506L8.5506 30.6518H5.17131L1 35.2919L1.46993 128.158L8.96245 136.024L9.14726 239.43L12.7272 243.464H50.2954L54.472 239.43Z" stroke="#E49311"/>
<path d="M11.8296 184.665H17.6483L21.8196 181.182H42.0954L45.6753 184.665H51.4887L52.286 18.1459L38.3676 3.62011H11.8296L11.8296 184.665Z" stroke="#E49311"/>
</svg>
