<svg width="75" height="75" viewBox="0 0 75 75" fill="none" xmlns="http://www.w3.org/2000/svg">
<path fill-rule="evenodd" clip-rule="evenodd" d="M37.5 75C16.7893 75 0 58.2107 0 37.5C0 16.7893 16.7893 0 37.5 0C58.2107 0 75 16.7893 75 37.5C75 58.2107 58.2107 75 37.5 75ZM39.1215 28.1423C35.7629 29.5392 29.0505 32.4306 18.9842 36.8163C17.3496 37.4663 16.4933 38.1023 16.4153 38.7241C16.2836 39.7749 17.5996 40.1887 19.3916 40.7522C19.6353 40.8289 19.8879 40.9083 20.1468 40.9924C21.9099 41.5655 24.2815 42.236 25.5144 42.2627C26.6328 42.2868 27.881 41.8257 29.2591 40.8794C38.6644 34.5306 43.5194 31.3216 43.8242 31.2524C44.0393 31.2036 44.3373 31.1423 44.5392 31.3217C44.7411 31.5012 44.7212 31.841 44.6998 31.9322C44.5695 32.488 39.4038 37.2904 36.7306 39.7757C35.8972 40.5505 35.3061 41.1001 35.1852 41.2256C34.9145 41.5068 34.6386 41.7727 34.3735 42.0283C32.7355 43.6073 31.5072 44.7914 34.4415 46.725C35.8515 47.6542 36.9799 48.4226 38.1056 49.1892C39.3349 50.0264 40.5611 50.8614 42.1475 51.9013C42.5517 52.1663 42.9377 52.4415 43.3137 52.7095C44.7444 53.7295 46.0297 54.6458 47.6176 54.4997C48.5403 54.4148 49.4934 53.5471 49.9774 50.9595C51.1214 44.8441 53.3699 31.594 53.8896 26.1339C53.9351 25.6555 53.8778 25.0433 53.8318 24.7746C53.7858 24.5058 53.6897 24.1229 53.3404 23.8394C52.9267 23.5037 52.288 23.4329 52.0023 23.4377C50.7036 23.4608 48.711 24.1537 39.1215 28.1423Z" fill="#E49311"/>
</svg>
