<svg width="38" height="38" viewBox="0 0 38 38" fill="none" xmlns="http://www.w3.org/2000/svg">
<path d="M6.85 19V19C6.85005 21.9595 7.93011 24.8172 9.8875 27.0368C11.8449 29.2565 14.545 30.6856 17.4812 31.0558L17.65 31.0771V30.907V22V21.85H17.5H14.5C14.142 21.85 13.7986 21.7078 13.5454 21.4546C13.2922 21.2014 13.15 20.858 13.15 20.5C13.15 20.142 13.2922 19.7986 13.5454 19.5454C13.7986 19.2922 14.142 19.15 14.5 19.15H17.5H17.65V19V16C17.65 14.8463 18.1083 13.7399 18.9241 12.9241C19.7399 12.1083 20.8463 11.65 22 11.65H22.75C23.108 11.65 23.4514 11.7922 23.7046 12.0454C23.9578 12.2986 24.1 12.642 24.1 13C24.1 13.358 23.9578 13.7014 23.7046 13.9546C23.4514 14.2078 23.108 14.35 22.75 14.35H22C21.5624 14.35 21.1427 14.5238 20.8333 14.8333C20.5238 15.1427 20.35 15.5624 20.35 16V19V19.15H20.5H23.5C23.858 19.15 24.2014 19.2922 24.4546 19.5454C24.7078 19.7986 24.85 20.142 24.85 20.5C24.85 20.858 24.7078 21.2014 24.4546 21.4546C24.2014 21.7078 23.858 21.85 23.5 21.85H20.5H20.35V22V30.907V31.0771L20.5187 31.0558C22.8386 30.7635 25.0248 29.8081 26.8151 28.3041C28.6054 26.8002 29.9238 24.8115 30.6119 22.5769C31.3 20.3423 31.3288 17.9565 30.6946 15.706C30.0605 13.4554 28.7905 11.4356 27.0369 9.88899C25.2833 8.34235 23.1207 7.33453 20.8086 6.98648C18.4964 6.63843 16.133 6.96493 14.0018 7.9268C11.8706 8.88867 10.0623 10.4451 8.79368 12.4092C7.5251 14.3733 6.85022 16.6618 6.85 19ZM33.85 19C33.85 27.2017 27.2017 33.85 19 33.85C10.7983 33.85 4.15 27.2017 4.15 19C4.15 10.7983 10.7983 4.15 19 4.15C27.2017 4.15 33.85 10.7983 33.85 19Z" fill="white" stroke="#040504" stroke-width="0.3"/>
</svg>
