<svg width="38" height="38" viewBox="0 0 38 38" fill="none" xmlns="http://www.w3.org/2000/svg">
<path d="M5 17.4444C5 11.5784 5 8.64467 6.82311 6.82311C8.64467 5 11.5784 5 17.4444 5H20.5556C26.4216 5 29.3553 5 31.1769 6.82311C33 8.64467 33 11.5784 33 17.4444V20.5556C33 26.4216 33 29.3553 31.1769 31.1769C29.3553 33 26.4216 33 20.5556 33H17.4444C11.5784 33 8.64467 33 6.82311 31.1769C5 29.3553 5 26.4216 5 20.5556V17.4444Z" stroke="white" stroke-width="2"/>
<path d="M26.0013 14.3337C27.29 14.3337 28.3346 13.289 28.3346 12.0003C28.3346 10.7117 27.29 9.66699 26.0013 9.66699C24.7126 9.66699 23.668 10.7117 23.668 12.0003C23.668 13.289 24.7126 14.3337 26.0013 14.3337Z" fill="white"/>
<path d="M18.9987 23.6663C21.576 23.6663 23.6654 21.577 23.6654 18.9997C23.6654 16.4223 21.576 14.333 18.9987 14.333C16.4214 14.333 14.332 16.4223 14.332 18.9997C14.332 21.577 16.4214 23.6663 18.9987 23.6663Z" stroke="white" stroke-width="3"/>
</svg>
