<svg width="42" height="42" viewBox="0 0 42 42" fill="none" xmlns="http://www.w3.org/2000/svg">
<path d="M7.34146 14.5573H7.19146V14.7073V32.6585V32.8085H7.34146H11.2439H11.3939V32.6585V14.7073V14.5573H11.2439H7.34146ZM24.3622 14.214V14.4418L24.5714 14.3519L25.2502 14.0601C26.4065 13.5659 27.6332 13.2564 28.8856 13.1428C33.1309 12.7572 36.85 16.0926 36.85 20.3737V33.8293C36.85 34.1 36.7425 34.3596 36.551 34.551C36.3596 34.7425 36.1 34.85 35.8293 34.85H29.5854C29.3146 34.85 29.055 34.7425 28.8636 34.551C28.6722 34.3596 28.5646 34.1 28.5646 33.8293V22.9024C28.5646 22.3452 28.3433 21.8107 27.9492 21.4167C27.5551 21.0226 27.0207 20.8012 26.4634 20.8012C25.9061 20.8012 25.3717 21.0226 24.9776 21.4167C24.5836 21.8107 24.3622 22.3452 24.3622 22.9024V33.8293C24.3622 34.1 24.2547 34.3596 24.0632 34.551C23.8718 34.7425 23.6122 34.85 23.3415 34.85H17.0976C16.8268 34.85 16.5672 34.7425 16.3758 34.551C16.1844 34.3596 16.0768 34.1 16.0768 33.8293V13.5366C16.0768 13.2659 16.1844 13.0062 16.3758 12.8148C16.5672 12.6234 16.8268 12.5159 17.0976 12.5159H23.3415C23.6122 12.5159 23.8718 12.6234 24.0632 12.8148C24.2547 13.0062 24.3622 13.2659 24.3622 13.5366V14.214ZM18.2683 14.5573H18.1183V14.7073V32.6585V32.8085H18.2683H22.1707H22.3207V32.6585V22.9024C22.3207 21.8037 22.7572 20.75 23.5341 19.9731C24.311 19.1962 25.3647 18.7598 26.4634 18.7598C27.5621 18.7598 28.6158 19.1962 29.3927 19.9731C30.1696 20.75 30.6061 21.8037 30.6061 22.9024V32.6585V32.8085H30.7561H34.6585H34.8085V32.6585V20.3737C34.8085 17.3122 32.1388 14.8966 29.0722 15.1761C28.0329 15.2706 27.0148 15.5273 26.0549 15.9368L26.0546 15.9369L23.7444 16.9281L23.7443 16.9281C23.589 16.9949 23.4194 17.022 23.251 17.007C23.0826 16.992 22.9205 16.9354 22.7794 16.8423C22.6383 16.7492 22.5225 16.6225 22.4424 16.4736C22.3623 16.3246 22.3205 16.1581 22.3207 15.9891V15.9889V14.7073V14.5573H22.1707H18.2683ZM6.36336 4.36336C7.14027 3.58646 8.19397 3.15 9.29268 3.15C10.3914 3.15 11.4451 3.58646 12.222 4.36336C12.9989 5.14027 13.4354 6.19397 13.4354 7.29268C13.4354 8.39139 12.9989 9.4451 12.222 10.222C11.4451 10.9989 10.3914 11.4354 9.29268 11.4354C8.19397 11.4354 7.14027 10.9989 6.36336 10.222C5.58646 9.4451 5.15 8.39139 5.15 7.29268C5.15 6.19397 5.58646 5.14027 6.36336 4.36336ZM7.8069 5.8069C7.41284 6.20095 7.19146 6.7354 7.19146 7.29268C7.19146 7.84996 7.41284 8.38441 7.8069 8.77847C8.20095 9.17252 8.7354 9.3939 9.29268 9.3939C9.84996 9.3939 10.3844 9.17252 10.7785 8.77847C11.1725 8.38441 11.3939 7.84996 11.3939 7.29268C11.3939 6.7354 11.1725 6.20095 10.7785 5.8069C10.3844 5.41284 9.84996 5.19146 9.29268 5.19146C8.7354 5.19146 8.20095 5.41284 7.8069 5.8069ZM5.15 13.5366C5.15 13.2659 5.25754 13.0062 5.44897 12.8148C5.64039 12.6234 5.90002 12.5159 6.17073 12.5159H12.4146C12.6853 12.5159 12.945 12.6234 13.1364 12.8148C13.3278 13.0062 13.4354 13.2659 13.4354 13.5366V33.8293C13.4354 34.1 13.3278 34.3596 13.1364 34.551C12.945 34.7425 12.6853 34.85 12.4146 34.85H6.17073C5.90002 34.85 5.64039 34.7425 5.44897 34.551C5.25754 34.3596 5.15 34.1 5.15 33.8293V13.5366Z" fill="white" stroke="#040504" stroke-width="0.3"/>
</svg>
