<svg width="41" height="42" viewBox="0 0 41 42" fill="none" xmlns="http://www.w3.org/2000/svg">
<path d="M7.67402 20.2377C7.68472 20.2336 7.69536 20.2293 7.70594 20.2248L7.7074 20.2242L7.70741 20.2242L34.0291 9.51691C34.0293 9.51682 34.0295 9.51674 34.0297 9.51666C34.0415 9.51172 34.0532 9.50656 34.0649 9.50119L34.0948 9.48742H34.1C34.2358 9.43139 34.3754 9.38545 34.5177 9.34998L34.7454 9.29318L34.7013 9.5237L30.1553 33.2929L30.1416 33.3645L30.1103 33.3807C30.0631 33.4529 30.0063 33.5183 29.9416 33.575C29.9416 33.575 29.9416 33.575 29.9416 33.575L29.8428 33.4621L7.67402 20.2377ZM7.67402 20.2377L7.66277 20.2412L7.6626 20.2406L7.65069 20.2455C7.59844 20.2668 7.54714 20.2904 7.49691 20.3163L7.25653 20.4405L7.48913 20.5786C7.53786 20.6075 7.58816 20.6336 7.63978 20.6567L7.63956 20.6572L7.65156 20.6614L12.5939 22.387C12.6707 22.4139 12.7443 22.4501 12.8131 22.495L12.8922 22.5466L12.9729 22.4976L29.2918 12.5916L29.3031 12.5858L29.3033 12.5862L29.314 12.5795C29.3736 12.542 29.4347 12.5072 29.4972 12.4753L29.4972 12.4753L29.4996 12.4741C29.6085 12.416 29.7806 12.3324 29.9733 12.2709L29.9738 12.2708C30.1108 12.2266 30.4904 12.1121 30.8947 12.2474L30.8957 12.2478C31.1084 12.3173 31.2987 12.4477 31.4445 12.6248C31.5903 12.802 31.6856 13.0187 31.7188 13.2503L31.7199 13.2585L31.722 13.2666C31.7744 13.4688 31.7759 13.6817 31.7263 13.8848C31.6267 14.2906 31.3508 14.615 31.0801 14.878C30.8421 15.1084 27.78 18.1692 24.7628 21.1884C24.7628 21.1885 24.7628 21.1885 24.7628 21.1885L7.67402 20.2377ZM12.238 24.5585L12.2055 24.4792L12.1208 24.4669C12.0596 24.458 11.9992 24.4433 11.9405 24.423L6.95603 22.6844L6.95606 22.6844L6.95119 22.6828L6.94389 22.6806C6.92218 22.6709 6.89613 22.6598 6.86885 22.6481C6.80851 22.6223 6.74216 22.5939 6.70354 22.5738L6.70355 22.5738L6.70109 22.5726C6.56492 22.5051 6.38106 22.4035 6.18868 22.2617L6.18831 22.2614C5.83217 22.0006 5.26759 21.4704 5.16479 20.6176L5.16477 20.6174C5.0356 19.558 5.79268 18.9097 6.14205 18.6623C6.32409 18.5345 6.51637 18.4233 6.71676 18.3299L6.71796 18.3293C6.80043 18.2899 6.88435 18.254 6.96952 18.2215L6.97751 18.2185L6.98212 18.2161L33.2671 7.52552L33.2672 7.52572L33.2746 7.52226L33.2891 7.51542C33.4187 7.46074 33.5503 7.41143 33.6837 7.3676L33.6839 7.36753C33.9249 7.28797 34.2804 7.19061 34.6604 7.15931C35.0165 7.13106 35.5591 7.14903 36.0431 7.47505C36.6026 7.85239 36.85 8.48167 36.85 9.16442V9.16472C36.8501 9.23514 36.8436 9.3054 36.8306 9.37448C36.8306 9.37457 36.8306 9.37465 36.8306 9.37473L32.1432 33.8802C32.1431 33.8804 32.1431 33.8806 32.1431 33.8808C32.1322 33.9365 32.1171 33.9911 32.0979 34.0442L32.0759 34.067V34.102L32.0654 34.1286C31.8723 34.5688 31.583 34.9556 31.2208 35.2584C30.9064 35.5195 30.4864 35.7484 29.9586 35.8254C29.4282 35.8991 28.8593 35.808 28.2645 35.5407C28.1875 35.505 28.1162 35.4609 28.0504 35.4082L28.05 35.408L22.9142 31.3271L22.8298 31.2601L22.7394 31.3186L18.3055 34.1851L18.2954 34.1892L18.2824 34.1983C18.1448 34.2933 17.9961 34.3694 17.84 34.4247C17.5731 34.5169 17.1526 34.5905 16.6932 34.4119L16.6933 34.4118L16.6883 34.41C16.5971 34.3782 16.5097 34.3354 16.4279 34.2823L16.4279 34.2823C16.2697 34.1797 16.1324 34.043 16.0094 33.8833C15.7729 33.5705 15.5497 33.1034 15.3337 32.3976C15.1563 31.808 14.3553 29.7805 13.5659 27.8245L13.5659 27.8245C13.1257 26.7347 12.6831 25.6461 12.238 24.5585ZM20.9029 29.9786L21.0785 29.8652L20.9148 29.7352L19.0713 28.2705L18.8685 28.1094L18.8297 28.3654L18.3829 31.3095L18.333 31.6386L18.6126 31.458L20.9029 29.9786ZM17.3908 25.5896L17.3908 25.5897L17.3931 25.5874L19.2256 23.7525L19.2257 23.7525L23.3359 19.6391L23.3359 19.639L24.8664 18.1091L24.6825 17.8748L14.4265 24.1005L14.3167 24.1672L14.3656 24.2859L14.4205 24.4192C15.0671 26.0032 15.7067 27.5904 16.3391 29.1806L16.5437 29.6952L16.6267 29.1477L17.0719 26.2118L17.072 26.2112C17.1075 25.9715 17.2201 25.7535 17.3908 25.5896Z" fill="white" stroke="#040504" stroke-width="0.3"/>
</svg>
