<svg width="228" height="224" viewBox="0 0 228 224" fill="none" xmlns="http://www.w3.org/2000/svg">
<path d="M61.3517 79.7407C60.0019 45.91 93.5368 23.4693 124.102 38.2547C124.499 38.447 124.817 38.7697 125.004 39.1689C125.191 39.568 125.234 40.0192 125.128 40.4468C124.184 44.1896 118.287 41.1172 115.731 40.445C87.948 33.1227 64.0766 53.2834 66.4638 81.7259C66.6177 83.4693 65.3121 84.3413 63.6733 84.7747C47.4622 89.0848 41.9248 105.877 50.2388 119.993C50.405 120.274 50.4653 120.606 50.4086 120.928C50.3519 121.25 50.182 121.54 49.9297 121.748C48.3065 123.073 46.8209 124.505 45.4729 126.046C31.7482 141.715 47.3306 166.102 67.2626 160.082C74.1898 157.988 83.1468 150.812 90.144 146.111C91.7918 144.995 93.1532 144.544 94.6364 146.003C94.8358 146.202 94.99 146.441 95.0886 146.705C95.1871 146.968 95.2275 147.25 95.2071 147.53C95.1867 147.81 95.106 148.082 94.9704 148.327C94.8349 148.572 94.6478 148.785 94.4219 148.951C86.741 154.622 76.2096 163.093 67.3298 165.193C41.0559 171.389 23.8042 137.795 44.293 120.094C44.5594 119.857 44.6128 119.579 44.4534 119.261C36.5719 103.197 44.3141 85.9872 60.9509 80.326C61.0722 80.2851 61.1768 80.2059 61.2491 80.1003C61.3214 79.9947 61.3574 79.8685 61.3517 79.7407Z" fill="#FBFBFB"/>
<path d="M104.884 68.6941C106.234 70.6882 106.737 73.1369 106.282 75.5017C105.826 77.8664 104.45 79.9534 102.456 81.3036C101.469 81.9721 100.359 82.4397 99.1914 82.6795C98.0233 82.9193 96.8195 82.9266 95.6486 82.7012C94.4777 82.4758 93.3627 82.0219 92.3672 81.3655C91.3717 80.7092 90.5152 79.8632 89.8467 78.8758C88.4965 76.8817 87.9938 74.433 88.4491 72.0683C88.9044 69.7035 90.2804 67.6165 92.2745 66.2663C94.2686 64.9162 96.7173 64.4134 99.082 64.8687C101.447 65.324 103.534 66.7001 104.884 68.6941ZM100.719 71.4782C100.113 70.5844 99.178 69.9676 98.118 69.7635C97.058 69.5594 95.9604 69.7848 95.0666 70.39C94.1728 70.9952 93.556 71.9307 93.3519 72.9906C93.1478 74.0506 93.3732 75.1482 93.9784 76.042C94.278 76.4846 94.6619 76.8638 95.1082 77.158C95.5544 77.4522 96.0542 77.6557 96.579 77.7567C97.1039 77.8578 97.6435 77.8545 98.167 77.747C98.6906 77.6395 99.1878 77.4299 99.6304 77.1303C100.073 76.8306 100.452 76.4467 100.746 76.0005C101.041 75.5543 101.244 75.0545 101.345 74.5296C101.446 74.0048 101.443 73.4652 101.335 72.9416C101.228 72.418 101.018 71.9208 100.719 71.4782Z" fill="#FBFBFB"/>
<path d="M142.266 53.3096C172.977 33.832 201.081 75.8022 172.561 96.0185C162.598 103.087 152.625 109.904 142.643 116.469C142.194 116.762 141.653 116.875 141.126 116.786C140.6 116.696 140.128 116.411 139.805 115.988C138.391 114.131 139.407 112.743 141.129 111.577C147.862 107.026 154.589 102.455 161.311 97.8633C168.482 92.9599 172.638 89.8957 173.781 88.6708C189.12 72.1383 170.744 46.1045 149.684 54.9537C147.068 56.0487 144.02 58.3782 140.909 59.7596C140.736 59.8354 140.543 59.8524 140.36 59.8081C140.177 59.7638 140.015 59.6606 139.898 59.5145C137.737 56.7749 135.642 53.9785 133.614 51.1252C131.053 47.5213 134.849 45.1199 137.122 48.0491C138.487 49.8143 139.918 51.5301 141.417 53.1965C141.667 53.4702 141.95 53.5079 142.266 53.3096Z" fill="#FBFBFB"/>
<path d="M111.561 154.108C106.329 146.347 101.037 138.513 95.6849 130.608C93.1339 126.841 86.2977 124.61 82.113 123.156C81.7979 123.047 81.5079 123.095 81.2431 123.298C75.8292 127.556 67.1089 125.985 65.7949 118.747C63.4465 105.736 83.3586 102.736 83.8808 117.901C83.8962 118.245 84.0634 118.486 84.3825 118.624C89.5543 120.823 96.2011 122.542 99.5031 127.383C104.995 135.435 110.441 143.519 115.839 151.634C117.716 154.453 117.244 156.83 114.423 158.764C99.0243 169.327 83.5752 179.84 68.0759 190.303C67.7206 190.544 67.2861 190.639 66.8626 190.568C66.4391 190.497 66.0591 190.266 65.8016 189.922L64.732 188.521C64.4874 188.195 64.4638 187.857 64.6609 187.506C65.2215 186.515 65.6673 185.907 65.9985 185.683C81.0946 175.445 96.2266 165.195 111.395 154.933C111.724 154.718 111.779 154.443 111.561 154.108ZM78.1398 114.47C77.5287 113.567 76.584 112.945 75.5136 112.738C74.4432 112.532 73.3348 112.76 72.4322 113.371C71.5296 113.982 70.9068 114.927 70.7007 115.997C70.4946 117.068 70.7222 118.176 71.3333 119.079C71.9445 119.981 72.8891 120.604 73.9595 120.81C75.0299 121.016 76.1383 120.789 77.0409 120.178C77.9435 119.566 78.5664 118.622 78.7724 117.551C78.9785 116.481 78.751 115.373 78.1398 114.47Z" fill="#FBFBFB"/>
<path d="M130.514 159.342L98.3825 111.886C98.2068 111.627 97.9657 111.521 97.6591 111.567C93.618 112.21 90.5415 111.097 88.4296 108.227C82.206 99.7851 91.9526 89.4057 101.078 95.1951C101.229 95.2903 101.403 95.3401 101.58 95.3383C101.757 95.3365 101.928 95.2833 102.073 95.1852L116.117 85.6763C116.338 85.5268 116.42 85.3219 116.365 85.0615C114.018 74.2116 128.16 68.7541 133.187 78.5864C137.699 87.3906 127.578 95.0768 119.489 89.854C119.246 89.6967 119.003 89.7003 118.76 89.8648L104.691 99.3905C104.36 99.6148 104.241 99.9207 104.335 100.308C105.068 103.282 104.513 105.988 102.671 108.427C102.445 108.725 102.437 109.028 102.647 109.337C113.309 124.894 123.85 140.51 134.269 156.183C137.631 161.237 135.415 162.46 131.462 165.342C124.51 170.403 117.386 175.179 110.089 179.669C109.697 179.91 109.351 179.858 109.053 179.513L107.758 177.974C107.59 177.777 107.466 177.547 107.394 177.299C107.322 177.051 107.302 176.79 107.337 176.534C107.372 176.278 107.461 176.032 107.597 175.812C107.734 175.592 107.915 175.404 108.129 175.259L130.354 160.211C130.696 159.979 130.75 159.689 130.514 159.342ZM99.0233 100.33C98.72 99.8819 98.3314 99.498 97.8797 99.2002C97.428 98.9023 96.922 98.6964 96.3907 98.5941C95.8595 98.4918 95.3132 98.4952 94.7832 98.604C94.2532 98.7128 93.7499 98.9249 93.3019 99.2283C92.3971 99.8409 91.7727 100.788 91.5661 101.861C91.3595 102.934 91.5876 104.045 92.2003 104.95C92.5036 105.398 92.8922 105.782 93.3439 106.079C93.7956 106.377 94.3016 106.583 94.8329 106.686C95.3641 106.788 95.9104 106.784 96.4404 106.676C96.9704 106.567 97.4737 106.355 97.9217 106.051C98.3697 105.748 98.7536 105.359 99.0514 104.908C99.3493 104.456 99.5552 103.95 99.6575 103.419C99.7598 102.887 99.7564 102.341 99.6476 101.811C99.5388 101.281 99.3267 100.778 99.0233 100.33ZM128.557 80.3088C127.947 79.4084 127.005 78.787 125.937 78.5815C124.869 78.3759 123.763 78.6029 122.863 79.2125C121.963 79.8222 121.341 80.7646 121.136 81.8323C120.93 82.9001 121.157 84.0058 121.767 84.9062C122.376 85.8066 123.319 86.428 124.387 86.6336C125.454 86.8392 126.56 86.6121 127.46 86.0025C128.361 85.3928 128.982 84.4504 129.188 83.3827C129.393 82.3149 129.166 81.2092 128.557 80.3088Z" fill="#FBFBFB"/>
<path d="M142.195 134.091C147.2 130.686 152.204 127.273 157.207 123.854C159.801 122.085 163.149 125.494 160.26 127.595C155.085 131.357 149.817 134.984 144.454 138.479C140.824 140.84 138.765 138.889 136.601 135.728C132.382 129.544 128.18 123.356 123.995 117.164C123.797 116.871 123.526 116.761 123.18 116.834C117.703 118.055 113.997 116.137 112.061 111.078C108.647 102.147 120.538 94.953 127.11 101.734C130.474 105.205 130.798 109.096 128.082 113.407C127.893 113.711 127.9 114.013 128.102 114.311L141.395 133.944C141.608 134.258 141.875 134.307 142.195 134.091ZM124.055 105.856C123.447 104.957 122.507 104.338 121.442 104.133C120.377 103.927 119.274 104.154 118.376 104.762C117.477 105.37 116.858 106.31 116.653 107.375C116.447 108.441 116.674 109.544 117.282 110.442C117.583 110.887 117.969 111.268 118.417 111.563C118.866 111.859 119.368 112.063 119.896 112.165C120.423 112.267 120.965 112.263 121.491 112.155C122.017 112.047 122.517 111.837 122.962 111.535C123.407 111.234 123.788 110.849 124.083 110.4C124.379 109.952 124.583 109.449 124.685 108.922C124.787 108.395 124.783 107.852 124.675 107.326C124.567 106.8 124.357 106.3 124.055 105.856Z" fill="#FBFBFB"/>
<path d="M201.574 93.885L170.854 114.686C169.733 115.444 169.44 116.968 170.199 118.088L170.244 118.154C171.002 119.275 172.526 119.568 173.646 118.809L204.366 98.0087C205.487 97.2501 205.78 95.7268 205.021 94.6063L204.977 94.5401C204.218 93.4197 202.695 93.1264 201.574 93.885Z" fill="#FBFBFB"/>
<path d="M158.133 148.104C159.017 153.013 157.371 156.474 153.196 158.488C142.742 163.525 135.009 148.484 144.516 142.53C147.784 140.495 151.157 140.715 154.636 143.19C154.92 143.384 155.203 143.385 155.485 143.195L186.917 121.912C187.171 121.74 187.277 121.503 187.234 121.202C185.977 112.586 193.675 106.298 201.605 111.375C201.901 111.561 202.195 111.556 202.487 111.358C204.886 109.746 212.463 102.441 213.836 108.516C213.95 109.042 213.792 109.463 213.362 109.779L205.084 115.746C204.856 115.909 204.768 116.129 204.82 116.408C205.136 117.981 205.552 119.861 204.836 121.373C201.727 127.994 196.924 129.568 190.425 126.094C190.138 125.943 189.861 125.957 189.596 126.136L158.52 147.178C158.189 147.402 158.06 147.711 158.133 148.104ZM152.625 148.138C152.027 147.256 151.103 146.646 150.056 146.445C149.009 146.243 147.925 146.466 147.042 147.064C146.159 147.661 145.55 148.585 145.348 149.632C145.147 150.679 145.369 151.763 145.967 152.646C146.565 153.529 147.489 154.138 148.536 154.34C149.583 154.541 150.667 154.319 151.55 153.721C152.433 153.123 153.042 152.199 153.243 151.152C153.445 150.105 153.222 149.021 152.625 148.138ZM199.439 116.416C198.839 115.529 197.91 114.917 196.858 114.714C195.806 114.512 194.716 114.735 193.829 115.336C192.942 115.937 192.329 116.865 192.127 117.918C191.924 118.97 192.148 120.059 192.749 120.946C193.349 121.834 194.278 122.446 195.33 122.648C196.382 122.851 197.472 122.627 198.359 122.027C199.246 121.426 199.859 120.497 200.061 119.445C200.264 118.393 200.04 117.303 199.439 116.416Z" fill="#FBFBFB"/>
<path d="M89.7847 194.504C91.3297 200.317 86.6791 205.809 80.893 205.754C66.4418 205.635 70.7885 181.003 86.5714 189.277C86.8943 189.444 87.2048 189.427 87.5029 189.225C89.3329 187.986 94.6442 183.738 96.5613 183.805C98.09 183.868 99.058 185.423 98.8157 186.831C98.7608 187.166 98.5936 187.436 98.314 187.642L90.0947 193.642C89.9609 193.736 89.8595 193.87 89.8041 194.024C89.7486 194.178 89.7418 194.346 89.7847 194.504ZM84.2951 194.405C83.6973 193.522 82.7733 192.913 81.7264 192.711C80.6794 192.509 79.5953 192.732 78.7124 193.33C77.8296 193.927 77.2204 194.851 77.0188 195.898C76.8172 196.945 77.0398 198.03 77.6376 198.912C78.2354 199.795 79.1593 200.404 80.2063 200.606C81.2532 200.808 82.3374 200.585 83.2202 199.987C84.103 199.389 84.7122 198.465 84.9138 197.418C85.1154 196.372 84.8928 195.287 84.2951 194.405Z" fill="#FBFBFB"/>
<path d="M125.858 182.252L219.361 119.013C219.698 118.785 220.06 118.737 220.447 118.87C221.413 119.19 222.137 119.891 222.62 120.973C222.797 121.36 222.83 121.796 222.714 122.206C222.598 122.616 222.341 122.973 221.987 123.213L128.78 186.335C128.46 186.552 128.337 186.853 128.412 187.237C130.1 195.936 121.528 201.825 114.09 196.994C113.801 196.804 113.51 196.804 113.219 196.992C104.301 202.87 95.4685 208.814 86.7213 214.825C84.5382 216.328 82.6206 216.563 81.9817 213.337C81.9221 213.023 81.9866 212.738 82.1753 212.481C82.6862 211.797 83.3318 211.187 84.1119 210.651C92.7834 204.658 101.493 198.729 110.241 192.862C110.543 192.665 110.671 192.39 110.624 192.035C109.481 183.16 116.836 177.612 124.938 182.283C125.253 182.464 125.56 182.453 125.858 182.252ZM122.908 187.401C122.312 186.52 121.39 185.913 120.346 185.712C119.301 185.511 118.22 185.733 117.339 186.329C116.459 186.925 115.851 187.847 115.65 188.891C115.449 189.936 115.671 191.017 116.267 191.898C116.863 192.778 117.785 193.386 118.829 193.587C119.874 193.788 120.955 193.566 121.836 192.97C122.716 192.374 123.324 191.452 123.525 190.407C123.726 189.363 123.504 188.282 122.908 187.401Z" fill="#FBFBFB"/>
</svg>
