<svg width="222" height="222" viewBox="0 0 222 222" fill="none" xmlns="http://www.w3.org/2000/svg">
<path d="M182.312 96.116C172.911 94.3691 169.556 86.4059 175.432 78.8027C175.622 78.5609 175.64 78.3096 175.484 78.0487C157.629 47.3338 124.6 33.9343 90.0553 41.6033C89.6927 41.6845 89.4815 41.9097 89.4216 42.2787L88.9545 45.4309C88.9068 45.7232 88.8027 45.9914 88.6423 46.2356C84.2301 52.8974 78.7918 53.8927 72.3275 49.2214C72.0932 49.0498 71.84 49.0187 71.5679 49.1282C69.6716 49.8804 67.2408 51.6885 65.733 49.8698C63.6481 47.3672 67.8406 45.303 69.4672 44.3359C69.7664 44.1509 69.8865 43.887 69.8276 43.5442C68.5775 36.0167 76.106 30.7778 82.816 32.9609C84.8748 33.6308 86.1961 35.0394 87.7833 36.5997C88.0438 36.8542 88.351 36.939 88.7049 36.8541C119.838 29.4149 152.064 39.3435 172.281 64.4623C174.882 67.6844 177.614 72.1151 180.225 75.9797C180.42 76.2677 180.687 76.3971 181.028 76.368C191.351 75.5559 196.041 87.0781 188.296 93.9237C188.101 94.0994 187.956 94.325 187.879 94.5764C187.802 94.8278 187.794 95.0954 187.857 95.3508C197.515 135.454 177.874 174.617 139.696 190.83C137.611 191.719 135.837 192.311 134.374 192.604C134.049 192.671 133.766 192.583 133.525 192.343C131.171 190.002 132.502 188.54 134.973 187.556C171.746 172.889 193.068 135.465 182.876 96.6329C182.801 96.3397 182.613 96.1674 182.312 96.116ZM83.9825 40.4142C83.5063 39.2307 82.5795 38.2849 81.4059 37.7848C80.2323 37.2846 78.9082 37.2712 77.7247 37.7474C76.5412 38.2236 75.5954 39.1504 75.0952 40.3239C74.5951 41.4975 74.5816 42.8217 75.0578 44.0052C75.534 45.1886 76.4608 46.1345 77.6344 46.6346C78.808 47.1348 80.1321 47.1482 81.3156 46.672C82.4991 46.1958 83.445 45.269 83.9451 44.0954C84.4452 42.9219 84.4587 41.5977 83.9825 40.4142ZM186.823 84.2873C186.348 83.1062 185.423 82.1624 184.252 81.6633C183.08 81.1642 181.759 81.1508 180.578 81.626C179.397 82.1012 178.453 83.0261 177.954 84.1972C177.455 85.3683 177.441 86.6897 177.917 87.8707C178.392 89.0518 179.317 89.9956 180.488 90.4947C181.659 90.9938 182.98 91.0072 184.161 90.532C185.342 90.0568 186.286 89.132 186.785 87.9608C187.285 86.7897 187.298 85.4683 186.823 84.2873Z" fill="#FBFBFB"/>
<path d="M58.3536 58.4034C60.15 56.7505 60.8181 54.5539 59.8458 53.4973C58.8735 52.4406 56.6291 52.9239 54.8327 54.5768C53.0363 56.2297 52.3683 58.4262 53.3406 59.4829C54.3128 60.5396 56.5573 60.0563 58.3536 58.4034Z" fill="#FBFBFB"/>
<path d="M48.1162 69.5032C49.5907 67.6416 49.8736 65.4097 48.748 64.5182C47.6224 63.6266 45.5145 64.4129 44.04 66.2745C42.5655 68.1361 42.2826 70.368 43.4082 71.2596C44.5338 72.1512 46.6417 71.3648 48.1162 69.5032Z" fill="#FBFBFB"/>
<path d="M168.387 91.673C171.525 99.4713 173.096 107.811 173.01 116.217C172.925 124.622 171.185 132.929 167.889 140.662C164.594 148.395 159.807 155.403 153.803 161.286C147.799 167.169 140.695 171.812 132.897 174.95C117.148 181.287 99.5259 181.108 83.9085 174.452C68.291 167.797 55.9571 155.21 49.6202 139.46C43.2832 123.711 43.4622 106.089 50.1178 90.4716C56.7734 74.8542 69.3604 62.5203 85.1099 56.1833C92.9082 53.0455 101.248 51.4745 109.654 51.5599C118.059 51.6453 126.366 53.3854 134.098 56.6809C141.831 59.9765 148.84 64.7628 154.723 70.7668C160.606 76.7707 165.249 83.8747 168.387 91.673ZM97.9431 81.6216L101.751 90.4697C101.874 90.7579 102.073 90.8324 102.348 90.6932L114.909 84.4858C115.226 84.3292 115.29 84.1025 115.098 83.8058C108.874 73.828 101.358 64.2299 90.5665 60.2612C90.4708 60.2248 90.3668 60.2167 90.2667 60.2381C90.1666 60.2596 90.0749 60.3095 90.0026 60.3819C89.9303 60.4543 89.8805 60.5461 89.8592 60.6462C89.8379 60.7463 89.8461 60.8504 89.8827 60.946L92.9451 69.3072C93.0646 69.64 93.0201 69.9489 92.8114 70.2341C92.0238 71.3127 90.9718 71.7791 89.6556 71.6332C89.2643 71.5894 88.9594 71.4031 88.7408 71.0743C87.1489 68.6895 86.0047 66.0958 85.3082 63.2932C85.2752 63.1652 85.2049 63.0498 85.1064 62.9616C85.0079 62.8734 84.8856 62.8163 84.7547 62.7975C84.6238 62.7787 84.4903 62.7991 84.371 62.856C84.2516 62.9129 84.1519 63.0039 84.0841 63.1174C79.6315 70.5896 80.0083 81.465 81.5313 89.8312C81.5951 90.1864 81.7992 90.4169 82.1436 90.5226C84.6694 91.2813 86.6341 92.7975 88.0376 95.0713C88.1788 95.3007 88.3942 95.4748 88.6481 95.5649C88.902 95.6549 89.179 95.6553 89.4332 95.5662L96.5402 93.0299C96.8544 92.9179 96.9493 92.7072 96.8249 92.398C96.0913 90.5481 93.3214 84.4945 93.7746 82.7276C94.0878 81.5236 95.2628 80.997 97.2996 81.1476C97.6054 81.1754 97.82 81.3334 97.9431 81.6216ZM71.3663 94.3847C72.5724 92.7209 74.1389 91.4259 76.0657 90.4997C76.3465 90.358 76.4618 90.1356 76.4116 89.8324C75.256 82.8525 75.2443 75.876 76.3765 68.9027C76.3888 68.8259 76.3748 68.7479 76.337 68.6807C76.2992 68.6135 76.2395 68.5608 76.1673 68.5309C76.095 68.501 76.0142 68.4955 75.9375 68.5153C75.8607 68.535 75.7923 68.579 75.7428 68.6402C68.8015 77.7856 65.3407 88.1069 65.3604 99.6039C65.3598 99.9059 65.5062 100.073 65.7996 100.106C71.0246 100.796 69.3701 97.139 71.3663 94.3847ZM100.532 59.6579C108.238 65.3635 114.451 73.1686 119.503 81.2788C119.684 81.5657 119.913 81.6097 120.193 81.4111L129.445 74.6163C129.795 74.3605 129.818 74.0782 129.514 73.7693C122.791 67.0534 110.634 58.8592 100.694 59.1506C100.146 59.1628 100.091 59.3319 100.532 59.6579ZM64.3281 76.9195C58.6615 83.7052 54.4506 91.3496 52.196 99.4357C52.0805 99.863 52.2419 100.086 52.6802 100.103L59.5812 100.377C60.0405 100.393 60.271 100.171 60.2725 99.7108C60.2492 91.9017 61.8105 84.4323 64.9566 77.3026C64.9958 77.22 65.0031 77.1257 64.977 77.0381C64.9508 76.9504 64.8931 76.8756 64.815 76.828C64.7369 76.7803 64.6439 76.7633 64.554 76.7802C64.4641 76.7971 64.3836 76.8468 64.3281 76.9195ZM114.35 57.1377C121.451 60.8557 127.412 64.5798 133.219 70.1983C133.307 70.2823 133.411 70.3478 133.525 70.3912C133.639 70.4347 133.76 70.455 133.882 70.4512C134.004 70.4473 134.124 70.4192 134.234 70.3687C134.345 70.3181 134.445 70.246 134.528 70.1566L138.923 65.3809C139.212 65.0634 139.17 64.7998 138.799 64.5901C131.259 60.2292 123.157 57.5964 114.494 56.6917C114.439 56.6866 114.385 56.7002 114.339 56.7302C114.293 56.7603 114.259 56.805 114.243 56.857C114.226 56.9089 114.227 56.9651 114.247 57.0161C114.266 57.0672 114.303 57.1101 114.35 57.1377ZM65.3901 129.709C62.9172 121.822 61.0472 114.468 60.3376 106.141C60.3059 105.759 60.0981 105.555 59.7143 105.53L51.3253 105.014C50.9948 104.996 50.8014 105.149 50.7451 105.474C49.1719 115.37 49.9357 125.09 53.0365 134.636C53.1785 135.061 53.4567 135.189 53.871 135.023L64.9944 130.547C65.384 130.39 65.5159 130.111 65.3901 129.709ZM137.505 74.9842C143.097 81.864 146.589 88.3173 150.341 95.5276C150.535 95.9023 150.83 96.01 151.226 95.8508L162.386 91.3602C162.658 91.2507 162.732 91.0593 162.608 90.786C158.344 81.5643 152.138 73.9542 143.99 67.9555C143.714 67.7505 143.46 67.7733 143.231 68.0239L137.533 74.2507C137.313 74.49 137.304 74.7345 137.505 74.9842ZM84.0086 98.1045C83.5334 96.9235 82.6085 95.9796 81.4374 95.4805C80.2663 94.9814 78.9448 94.968 77.7638 95.4432C77.179 95.6785 76.6463 96.0266 76.1961 96.4678C75.7458 96.909 75.3869 97.4345 75.1398 98.0144C74.8927 98.5943 74.7622 99.2172 74.7558 99.8475C74.7494 100.478 74.8672 101.103 75.1025 101.688C75.3378 102.273 75.686 102.805 76.1271 103.256C76.5683 103.706 77.0938 104.065 77.6737 104.312C78.2536 104.559 78.8765 104.69 79.5068 104.696C80.1371 104.702 80.7625 104.585 81.3473 104.349C82.5283 103.874 83.4722 102.949 83.9713 101.778C84.4704 100.607 84.4838 99.2855 84.0086 98.1045ZM122.606 86.3903L130.956 103.5C131.108 103.805 131.341 103.895 131.657 103.768L145.467 98.1466C145.739 98.0371 145.811 97.85 145.683 97.5853C142.408 90.7683 138.467 84.3667 133.859 78.3806C133.632 78.0839 133.366 78.0474 133.061 78.2708L122.801 85.6434C122.522 85.842 122.457 86.091 122.606 86.3903ZM74.6556 108.4C71.3949 106.618 70.8383 103.199 65.8126 105.577C65.5269 105.706 65.3998 105.926 65.4314 106.237C66.1299 113.652 67.6902 120.879 70.1124 127.917C70.2257 128.252 70.4463 128.353 70.774 128.222L84.4579 122.716C84.761 122.594 84.8608 122.378 84.7574 122.067L80.946 110.666C80.8696 110.436 80.7262 110.235 80.5347 110.089C80.3432 109.943 80.1125 109.859 79.8729 109.847C77.9786 109.747 76.2395 109.265 74.6556 108.4ZM108.192 105.674C111.803 105.914 114.097 106.284 116.651 109.256C116.896 109.545 117.194 109.616 117.544 109.468L125.99 105.972C126.293 105.85 126.374 105.642 126.234 105.346L118.335 89.1435C118.142 88.754 117.854 88.6543 117.471 88.8445L104.186 95.3968C103.909 95.5299 103.828 95.7386 103.943 96.0231L107.523 105.189C107.645 105.492 107.868 105.654 108.192 105.674ZM99.1295 116.209C98.913 112.911 100.447 110.16 102.65 107.84C102.862 107.618 102.91 107.361 102.793 107.071L98.9996 97.9904C98.8926 97.7245 98.7036 97.6388 98.4327 97.7335C96.0353 98.5975 93.6117 99.3966 91.162 100.131C88.7067 100.86 89.0295 103.403 87.8833 105.029C87.271 105.9 86.5652 106.745 85.7659 107.562C85.5176 107.82 85.4483 108.121 85.558 108.465L89.3643 120.149C89.4765 120.499 89.7026 120.605 90.0428 120.469L98.6242 117.016C98.9891 116.869 99.1576 116.6 99.1295 116.209ZM113.496 113.791C113.018 112.606 112.09 111.658 110.914 111.157C109.738 110.655 108.411 110.642 107.225 111.119C106.039 111.596 105.091 112.525 104.59 113.701C104.089 114.877 104.075 116.204 104.552 117.39C105.03 118.576 105.958 119.524 107.134 120.025C108.31 120.526 109.637 120.539 110.823 120.062C112.009 119.585 112.957 118.656 113.458 117.48C113.959 116.304 113.973 114.977 113.496 113.791ZM75.6989 161.143C74.1057 157.558 73.9342 154.48 75.7732 151.121C75.8903 150.894 75.8892 150.668 75.7699 150.443L67.4391 135.578C67.285 135.302 67.0614 135.22 66.7682 135.331L55.7225 139.624C55.3675 139.76 55.2701 140 55.4305 140.345C59.6671 149.607 65.893 157.23 74.108 163.217C74.501 163.497 74.8245 163.435 75.0787 163.031L75.6137 162.19C75.8297 161.852 75.8581 161.503 75.6989 161.143ZM80.1966 146.657C84.1583 145.224 87.3518 145.901 90.738 148.182C91.0157 148.372 91.2924 148.372 91.568 148.182L95.2452 145.614C95.5653 145.392 95.6378 145.108 95.4625 144.761L87.0754 127.774C86.9113 127.438 86.6517 127.338 86.2967 127.473L72.594 132.825C72.0683 133.036 71.9439 133.388 72.221 133.881L79.1689 146.273C79.4038 146.696 79.7463 146.824 80.1966 146.657ZM109.824 125.563C106.061 125.266 103.808 124.674 101.336 121.853C101.1 121.589 100.818 121.522 100.491 121.654L91.9278 125.1C91.6433 125.214 91.5706 125.409 91.7098 125.683L99.7989 142.197C99.9655 142.54 100.22 142.628 100.563 142.461L113.678 135.998C114.064 135.814 114.177 135.525 114.018 135.129L110.488 126.061C110.366 125.758 110.145 125.592 109.824 125.563ZM119.011 114.666C118.688 118.364 118.21 120.151 115.273 123.327C115.057 123.558 115.009 123.822 115.128 124.118L118.948 133.317C118.993 133.423 119.076 133.509 119.181 133.558C119.286 133.607 119.406 133.616 119.519 133.584L133.775 129.152C134.088 129.055 134.193 128.851 134.09 128.54L128.542 111.057C128.414 110.649 128.149 110.526 127.747 110.687L119.509 114.002C119.206 114.124 119.04 114.345 119.011 114.666ZM133.261 109.04L139.073 127.451C139.151 127.715 139.33 127.83 139.611 127.796L152.166 126.075C152.492 126.029 152.641 125.844 152.61 125.518C151.93 117.952 150.39 110.57 147.99 103.372C147.84 102.93 147.552 102.794 147.125 102.966L133.617 108.293C133.265 108.435 133.146 108.684 133.261 109.04ZM152.639 101.157C155.011 109.063 157.006 116.539 157.554 124.92C157.57 125.157 157.672 125.381 157.84 125.55C158.009 125.718 158.234 125.819 158.471 125.833L166.517 126.326C166.865 126.351 167.069 126.19 167.13 125.842C168.955 115.874 168.214 106.075 164.907 96.4469C164.768 96.0287 164.494 95.9018 164.086 96.066L152.925 100.557C152.647 100.669 152.551 100.869 152.639 101.157ZM88.6198 153.982C88.1446 152.801 87.2197 151.857 86.0486 151.358C84.8775 150.859 83.5561 150.846 82.3751 151.321C81.194 151.796 80.2502 152.721 79.7511 153.892C79.252 155.063 79.2386 156.385 79.7138 157.566C80.189 158.747 81.1138 159.69 82.285 160.19C83.4561 160.689 84.7775 160.702 85.9585 160.227C87.1396 159.752 88.0834 158.827 88.5825 157.656C89.0816 156.485 89.095 155.163 88.6198 153.982ZM128.159 170.033L116.332 140.827C116.2 140.499 115.976 140.413 115.658 140.57L103.474 146.669C103.388 146.712 103.312 146.773 103.25 146.848C103.189 146.922 103.144 147.008 103.117 147.101C103.091 147.193 103.084 147.29 103.097 147.386C103.109 147.481 103.142 147.573 103.192 147.656C109.35 157.951 116.534 166.217 127.335 170.85C127.449 170.897 127.575 170.909 127.697 170.885C127.818 170.861 127.93 170.802 128.018 170.715C128.106 170.628 128.166 170.517 128.191 170.395C128.217 170.274 128.205 170.148 128.159 170.033ZM141.736 145.858C136.504 151.445 135.857 136.657 135.561 134.556C135.5 134.135 135.268 133.987 134.866 134.113L121.829 138.173C121.259 138.345 121.086 138.709 121.309 139.266L132.948 168.192C133.145 168.681 133.409 168.722 133.742 168.315C136.24 165.229 136.45 160.715 137.915 157.042C138.035 156.744 138.234 156.484 138.49 156.29C138.746 156.095 139.05 155.974 139.369 155.938C139.688 155.902 140.012 155.954 140.304 156.087C140.597 156.22 140.848 156.43 141.031 156.694C142.225 158.413 142.386 160.18 141.515 161.997C141.122 162.823 141.254 162.921 141.913 162.289C149.345 155.095 152.582 141.602 152.699 131.605C152.7 131.253 152.527 131.099 152.18 131.146L141.371 132.574C141.244 132.59 141.122 132.631 141.01 132.695C140.899 132.759 140.802 132.845 140.724 132.948C140.646 133.05 140.589 133.167 140.556 133.293C140.523 133.418 140.515 133.548 140.532 133.676L142.072 144.817C142.124 145.213 142.012 145.56 141.736 145.858ZM93.8453 153.065C94.2166 156.667 93.5783 157.84 92.8804 160.74C92.7957 161.083 92.8892 161.369 93.1607 161.598C100.316 167.593 108.507 171.207 117.734 172.439C117.797 172.446 117.86 172.433 117.915 172.401C117.969 172.369 118.012 172.319 118.036 172.261C118.06 172.202 118.064 172.137 118.048 172.076C118.032 172.015 117.996 171.961 117.946 171.922C110.256 165.883 103.894 158.652 98.8589 150.229C98.8092 150.147 98.7437 150.076 98.6663 150.02C98.5889 149.964 98.5012 149.924 98.4081 149.902C98.3151 149.881 98.2186 149.878 98.1244 149.894C98.0302 149.909 97.9401 149.944 97.8594 149.995L94.1911 152.344C93.9265 152.508 93.8112 152.748 93.8453 153.065ZM153.742 154.048C159.113 148.136 163.79 139.614 165.672 131.7C165.751 131.38 165.625 131.208 165.292 131.184L158.493 130.762C158.103 130.739 157.902 130.92 157.892 131.305C157.71 139.068 156.168 146.551 153.267 153.754C152.877 154.73 153.035 154.828 153.742 154.048ZM84.9107 165.445C83.0914 165.692 81.9166 165.13 80.0929 165.045C79.7859 165.032 79.5317 165.141 79.3304 165.373C76.3403 168.818 100.59 174.087 103.417 174.362C104.022 174.42 104.064 174.292 103.542 173.977C98.5594 170.97 94.1238 168.572 89.4204 165.054C89.1439 164.849 88.8368 164.782 88.499 164.853C87.2924 165.087 86.0964 165.284 84.9107 165.445Z" fill="#FBFBFB"/>
<path d="M40.2246 82.3629C41.2562 80.2177 41.0474 77.9761 39.7583 77.3562C38.4692 76.7363 36.5879 77.9728 35.5563 80.118C34.5247 82.2632 34.7335 84.5047 36.0226 85.1246C37.3117 85.7445 39.193 84.5081 40.2246 82.3629Z" fill="#FBFBFB"/>
<path d="M30.0087 95.3284C29.4174 97.6683 30.0449 99.8449 31.4103 100.19C32.7757 100.535 34.362 98.9178 34.9533 96.5779C35.5446 94.238 34.917 92.0614 33.5516 91.7163C32.1862 91.3713 30.6 92.9884 30.0087 95.3284Z" fill="#FBFBFB"/>
<path d="M27.5075 111.311C27.4018 113.75 28.4836 115.778 29.9237 115.84C31.3638 115.903 32.6169 113.976 32.7227 111.537C32.8284 109.099 31.7466 107.071 30.3065 107.009C28.8664 106.946 27.6133 108.873 27.5075 111.311Z" fill="#FBFBFB"/>
<path d="M28.2633 127.384C28.6096 129.812 30.0338 131.616 31.4444 131.415C32.8551 131.214 33.7179 129.083 33.3716 126.655C33.0253 124.228 31.6011 122.423 30.1905 122.624C28.7799 122.825 27.917 124.956 28.2633 127.384Z" fill="#FBFBFB"/>
<path d="M32.0715 143.046C32.9054 145.323 34.7039 146.757 36.0885 146.25C37.4731 145.743 37.9196 143.486 37.0856 141.209C36.2517 138.933 34.4532 137.498 33.0686 138.006C31.684 138.513 31.2375 140.769 32.0715 143.046Z" fill="#FBFBFB"/>
<path d="M39.032 157.626C40.3045 159.71 42.3332 160.789 43.5634 160.038C44.7935 159.286 44.7592 156.988 43.4867 154.905C42.2142 152.822 40.1854 151.742 38.9553 152.494C37.7252 153.245 37.7595 155.543 39.032 157.626Z" fill="#FBFBFB"/>
<path d="M48.6999 170.614C50.3646 172.429 52.5753 173.112 53.6378 172.137C54.7002 171.163 54.212 168.902 52.5474 167.086C50.8827 165.271 48.6719 164.589 47.6095 165.563C46.547 166.537 47.0352 168.798 48.6999 170.614Z" fill="#FBFBFB"/>
<path d="M60.7654 181.353C62.7616 182.729 65.0405 182.886 65.8555 181.704C66.6705 180.522 65.713 178.448 63.7169 177.072C61.7207 175.695 59.4418 175.538 58.6268 176.72C57.8118 177.903 58.7693 179.977 60.7654 181.353Z" fill="#FBFBFB"/>
<path d="M74.6146 189.498C76.8314 190.494 79.0943 190.263 79.669 188.983C80.2436 187.704 78.9123 185.859 76.6955 184.864C74.4787 183.868 72.2158 184.099 71.6412 185.379C71.0665 186.658 72.3978 188.503 74.6146 189.498Z" fill="#FBFBFB"/>
<path d="M105.685 192.108C107.801 191.616 109.324 192.339 110.256 194.278C110.385 194.546 110.445 194.841 110.43 195.137C110.416 195.434 110.328 195.722 110.174 195.975C110.02 196.229 109.805 196.44 109.549 196.59C109.293 196.739 109.003 196.822 108.707 196.831L103.591 197.003C103.252 197.017 103.013 197.175 102.875 197.474L102.121 199.136C101.996 199.416 101.814 199.659 101.573 199.863C89.9683 209.76 77.6484 192.911 88.9261 184.881C95.0748 180.499 101.904 184.909 104.395 191.42C104.49 191.671 104.673 191.879 104.911 192.006C105.148 192.133 105.423 192.169 105.685 192.108ZM98.8144 191.293C98.3353 190.103 97.4027 189.151 96.2218 188.648C95.0409 188.144 93.7085 188.131 92.5176 188.61C91.3267 189.089 90.375 190.022 89.8718 191.203C89.3685 192.384 89.355 193.716 89.8341 194.907C90.3133 196.098 91.2459 197.049 92.4268 197.553C93.6077 198.056 94.9401 198.069 96.1309 197.59C97.3218 197.111 98.2736 196.179 98.7768 194.998C99.2801 193.817 99.2936 192.484 98.8144 191.293Z" fill="#FBFBFB"/>
<path d="M123.168 190.814L119.021 191.479C117.881 191.662 117.105 192.734 117.288 193.874L117.39 194.506C117.573 195.645 118.645 196.421 119.784 196.238L123.931 195.573C125.071 195.39 125.847 194.318 125.664 193.178L125.562 192.546C125.379 191.406 124.307 190.631 123.168 190.814Z" fill="#FBFBFB"/>
</svg>
