<svg width="215" height="217" viewBox="0 0 215 217" fill="none" xmlns="http://www.w3.org/2000/svg">
<path d="M137.973 172.922L134.613 173.917C134.227 174.027 133.89 173.945 133.602 173.672C129.809 170.087 135.241 168.588 137.563 167.835C137.923 167.714 138.042 167.473 137.921 167.113L132.412 150.901C132.297 150.581 132.075 150.462 131.743 150.545C124.759 152.396 118.45 154.888 119.989 162.726C120.78 166.764 115.862 166.935 115.272 163.43C113.43 152.568 120.722 148.303 130.022 145.861C130.307 145.788 130.4 145.613 130.302 145.337L119.115 113.813C118.994 113.474 118.767 113.364 118.434 113.482C106.499 117.705 94.6081 121.941 82.7602 126.19C81.6392 126.589 80.4458 126.696 79.2671 126.904C78.8531 126.973 78.5777 126.806 78.4408 126.402L77.6321 123.983C77.4773 123.529 77.6106 123.187 78.0319 122.959C79.5066 122.172 81.3241 121.394 83.4844 120.624C94.5684 116.655 105.664 112.709 116.773 108.787C117.093 108.673 117.195 108.453 117.078 108.126L103.283 69.6976C103.144 69.3082 102.882 69.1786 102.497 69.3088C91.7521 72.8497 74.6563 83.3558 67.2898 67.7424C67.1772 67.5006 67.1202 67.2371 67.1229 66.9714C67.1257 66.7058 67.1882 66.4449 67.3058 66.2081C68.6177 63.5434 71.2308 64.6507 72.3619 66.753C74.6442 71.0142 78.8951 72.2493 83.484 70.6784C89.2926 68.687 95.0871 66.6264 100.868 64.4965C101.169 64.3891 101.268 64.1805 101.165 63.8705L96.3187 49.1639C96.1952 48.7975 95.9455 48.6528 95.5696 48.7301C93.305 49.1971 90.1642 51.8234 88.6741 48.7131C87.1678 45.5873 91.8329 44.6473 93.7532 44.0482C94.1094 43.9355 94.1977 43.7165 94.0181 43.3912C86.8535 30.0732 68.5274 30.6886 65.2533 45.8143C65.1723 46.1829 65.3217 46.3738 65.7015 46.3871C74.1347 46.7375 80.331 50.5528 84.2902 57.833C85.4737 60.0228 86.4485 61.597 84.0457 63.196C83.7946 63.3629 83.5094 63.4714 83.2108 63.5137C82.9121 63.5561 82.6075 63.5311 82.3191 63.4407C82.0308 63.3503 81.7658 63.1967 81.5436 62.991C81.3213 62.7854 81.1474 62.5329 81.0343 62.2518C72.5387 41.234 42.2868 53.3693 51.3136 75.4612C51.4086 75.6935 51.4537 75.9432 51.446 76.1943C51.4383 76.4454 51.3779 76.6922 51.2688 76.9191C51.1596 77.1459 51.0042 77.3476 50.8123 77.5114C50.6204 77.6751 50.3964 77.7971 50.1546 77.8697C46.3067 79.0175 41.9847 79.8777 38.7843 82.9923C32.7187 88.9109 32.0005 96.9373 36.5566 104.274C36.7725 104.622 37.0402 104.668 37.3597 104.412C39.908 102.408 42.6884 100.816 45.7007 99.6365C46.0705 99.4918 46.4698 99.4408 46.8627 99.4879C47.2557 99.5351 47.6299 99.679 47.9519 99.9067C50.1436 101.44 48.7272 103.484 46.835 104.37C33.0998 110.781 27.2313 126.64 35.8612 139.691C39.3731 145 44.1933 148.29 50.3217 149.561C50.6754 149.64 50.911 149.506 51.0283 149.16C51.6952 147.129 56.4921 136.397 59.5641 142.309C59.7114 142.603 59.7142 142.899 59.5727 143.197C58.2561 145.938 56.2366 148.643 55.604 151.426C53.9842 158.62 56.3042 164.467 62.564 168.968C66.6219 171.896 63.1212 175.33 59.8894 173.201C54.8215 169.861 51.6561 165.256 50.3931 159.386C50.194 158.47 50.2231 156.644 49.943 155.322C49.868 154.952 49.6502 154.718 49.2897 154.62C28.498 148.97 20.0651 126.072 33.0658 108.808C33.2835 108.525 33.2871 108.237 33.0766 107.944C23.56 94.9972 29.4788 78.5047 44.8099 74.1899C45.1118 74.1036 45.2321 73.905 45.1709 73.5942C42.6866 60.7993 47.5169 51.9096 59.6618 46.9251C59.9525 46.8074 60.1199 46.592 60.1642 46.279C62.6818 29.1192 82.9579 22.8623 94.858 35.4382C96.5066 37.1757 97.7451 39.5795 99.0039 41.7425C99.205 42.0884 99.4939 42.1943 99.8707 42.06L103.752 40.6775C104.078 40.5612 104.28 40.3335 104.358 39.9945C108.817 20.4765 131.06 39.2299 117.117 47.1157C113.524 49.1461 110.04 48.6249 106.667 45.552C106.364 45.2778 106.02 45.2057 105.634 45.3359L101.334 46.7935C100.926 46.9389 100.796 47.2114 100.946 47.6111L106.203 62.012C106.337 62.3888 106.593 62.51 106.97 62.3758L125.897 55.5804C126.192 55.4753 126.406 55.2822 126.54 55.0011L131.945 43.7127C132.113 43.3697 132.075 43.0542 131.831 42.7661C128.6 38.9703 127.601 34.0818 131.249 30.5533C142.098 20.0327 153.996 42.2588 137.29 44.6217C136.954 44.6708 136.717 44.8507 136.58 45.1613C133.534 51.9575 131.366 59.1312 125.929 61.0042C120.118 63.0103 114.311 65.0438 108.506 67.1046C108.185 67.2187 108.081 67.4328 108.193 67.7468L111.254 76.5182C111.355 76.8008 111.543 76.8929 111.819 76.7945C120.049 73.8912 128.247 70.9886 136.413 68.0866C139.563 66.9752 147.768 69.5938 149.626 72.3076C151.07 74.4256 148.179 76.411 145.919 75.2522C143.878 74.2101 141.773 73.318 139.605 72.5759C139.274 72.4603 138.942 72.4619 138.609 72.5805L113.834 81.4059C113.363 81.5737 113.211 81.8931 113.379 82.3641L117.782 94.7234C117.923 95.119 118.191 95.2464 118.586 95.1054L123.344 93.4108C123.664 93.2967 123.839 93.0717 123.868 92.7359C124.829 82.3829 138.504 81.6729 140.469 91.3018C142.204 99.7493 131.797 104.476 125.857 98.2904C125.654 98.0795 125.417 98.019 125.145 98.1089L120.153 99.7704C119.811 99.8849 119.701 100.112 119.822 100.451L125.51 116.418C125.655 116.826 125.932 116.958 126.34 116.812L149.68 108.668C150.009 108.558 150.192 108.326 150.229 107.973C150.661 103.842 152.6 101.258 156.045 100.222C167.686 96.6912 171.829 113.867 159.704 116.243C156.944 116.781 154.602 115.927 152.677 113.683C152.448 113.418 152.161 113.307 151.816 113.352C150.847 113.493 149.93 113.709 149.065 114.003C142.009 116.425 134.991 118.957 128.013 121.598C127.601 121.752 127.472 122.035 127.626 122.448L132.928 137.034C133.038 137.342 133.245 137.438 133.551 137.322L153.106 130.292C153.501 130.151 153.702 129.871 153.708 129.451C153.828 121.829 163.443 119.2 168.096 124.156C174.624 131.13 166.374 141.255 157.618 137.177C157.313 137.038 157.069 136.828 156.884 136.547C156.12 135.397 155.071 135.034 153.736 135.46C148.51 137.138 142.36 139.375 135.288 142.17C134.935 142.31 134.821 142.556 134.946 142.907L139.047 154.419C139.161 154.739 139.378 154.842 139.698 154.728C143.843 153.252 147.983 151.791 152.118 150.346C154.834 149.389 160.034 152.006 163.541 154.133C163.848 154.32 164.165 154.335 164.491 154.177C169.294 151.807 174.305 150.914 177.506 156.175C185.145 168.708 160.91 175.027 162.104 159.337C162.127 159.003 161.988 158.762 161.687 158.615L154.447 155.185C154.13 155.03 153.804 155.011 153.472 155.13L141.178 159.509C140.82 159.636 140.726 159.868 140.895 160.204C149.563 177.413 135.951 196.36 116.689 190.175C114.161 189.366 112.143 187.516 109.8 186.005C109.499 185.815 109.174 185.768 108.826 185.863C96.56 189.454 87.3438 185.675 81.1777 174.524C81.0156 174.228 80.7807 174.134 80.473 174.244C78.2835 174.982 73.5451 177.593 73.627 172.787C73.6327 172.445 73.7749 172.179 74.0535 171.987C76.6791 170.15 79.768 169.315 81.9317 167.164C83.337 165.765 84.6476 164.279 85.8638 162.706C86.1574 162.318 86.5294 162.211 86.98 162.383L88.3989 162.939C88.7054 163.058 88.9792 163.248 89.1977 163.493C89.4162 163.739 89.573 164.033 89.6552 164.351C89.7375 164.669 89.7428 165.003 89.6706 165.323C89.5985 165.644 89.451 165.943 89.2404 166.195L85.6563 170.497C85.4031 170.8 85.3614 171.13 85.531 171.487C88.9789 179.02 94.5058 182.536 102.112 182.034C109.671 181.529 111.923 177.51 116.275 172.445C116.517 172.169 116.818 172.033 117.181 172.038C118.677 172.064 119.577 172.862 119.881 174.431C119.945 174.769 119.901 175.092 119.749 175.401C118.443 178.032 116.681 180.309 114.464 182.231C114.382 182.3 114.317 182.387 114.274 182.484C114.23 182.582 114.209 182.689 114.213 182.796C114.216 182.903 114.244 183.007 114.293 183.102C114.343 183.197 114.413 183.28 114.5 183.343C123.808 190.314 136.501 184.731 138.537 173.432C138.629 172.954 138.441 172.784 137.973 172.922ZM116.104 38.8781C115.815 38.0661 115.215 37.4023 114.436 37.0326C113.658 36.663 112.764 36.6179 111.952 36.9071C111.14 37.1964 110.476 37.7963 110.107 38.575C109.737 39.3537 109.692 40.2473 109.981 41.0593C110.27 41.8712 110.87 42.535 111.649 42.9047C112.428 43.2743 113.321 43.3195 114.133 43.0302C114.945 42.741 115.609 42.141 115.979 41.3623C116.348 40.5836 116.394 39.69 116.104 38.8781ZM140.31 35.1597C140.02 34.3452 139.418 33.6794 138.637 33.3086C137.856 32.9378 136.96 32.8925 136.145 33.1827C135.331 33.4728 134.665 34.0746 134.294 34.8557C133.923 35.6368 133.878 36.5331 134.168 37.3476C134.458 38.1621 135.06 38.8279 135.841 39.1987C136.622 39.5695 137.519 39.6147 138.333 39.3246C139.148 39.0345 139.813 38.4327 140.184 37.6516C140.555 36.8705 140.6 35.9742 140.31 35.1597ZM135.339 91.7705C135.049 90.956 134.447 90.2902 133.666 89.9194C132.885 89.5486 131.988 89.5033 131.174 89.7935C130.359 90.0836 129.693 90.6854 129.323 91.4665C128.952 92.2476 128.907 93.1439 129.197 93.9584C129.487 94.7729 130.089 95.4387 130.87 95.8095C131.651 96.1802 132.547 96.2255 133.362 95.9354C134.176 95.6453 134.842 95.0435 135.213 94.2624C135.584 93.4813 135.629 92.585 135.339 91.7705ZM161.806 106.917C161.517 106.105 160.917 105.441 160.138 105.072C159.36 104.702 158.466 104.657 157.654 104.946C156.842 105.235 156.178 105.835 155.809 106.614C155.439 107.393 155.394 108.286 155.683 109.098C155.972 109.91 156.572 110.574 157.351 110.944C158.13 111.313 159.023 111.358 159.835 111.069C160.647 110.78 161.311 110.18 161.681 109.401C162.05 108.623 162.095 107.729 161.806 106.917ZM165.01 128.843C164.721 128.034 164.123 127.372 163.347 127.004C162.571 126.635 161.68 126.59 160.87 126.879C160.061 127.167 159.399 127.765 159.031 128.541C158.662 129.318 158.617 130.208 158.905 131.018C159.194 131.827 159.792 132.489 160.568 132.858C161.345 133.226 162.235 133.271 163.045 132.983C163.854 132.694 164.516 132.096 164.885 131.32C165.253 130.544 165.298 129.653 165.01 128.843ZM173.465 159.462C173.176 158.652 172.578 157.99 171.802 157.622C171.026 157.253 170.135 157.208 169.325 157.497C168.516 157.785 167.854 158.383 167.485 159.159C167.117 159.936 167.072 160.827 167.36 161.636C167.649 162.446 168.247 163.107 169.023 163.476C169.799 163.844 170.69 163.889 171.5 163.601C172.309 163.313 172.971 162.715 173.339 161.938C173.708 161.162 173.753 160.271 173.465 159.462Z" fill="#FBFBFB"/>
<path d="M61.6305 62.614C60.5724 64.5903 60.2067 66.7128 60.5336 68.9813C60.5701 69.2271 60.5503 69.4781 60.4756 69.7152C60.4009 69.9522 60.2733 70.1692 60.1024 70.3497C59.9315 70.5302 59.7218 70.6696 59.4892 70.7571C59.2566 70.8447 59.0071 70.8782 58.7596 70.8552C56.7155 70.6598 55.808 69.9003 55.6376 67.753C55.1999 62.2331 57.573 58.4154 62.757 56.2998C64.3787 55.6372 65.758 56.1119 66.3789 57.706C66.506 58.0429 66.4746 58.3619 66.2846 58.6631C65.3497 60.1709 64.053 61.2592 62.3946 61.9278C62.0599 62.0612 61.8053 62.2899 61.6305 62.614Z" fill="#FBFBFB"/>
<path d="M54.3802 110.323C65.8076 104.437 61.0184 88.4899 48.1624 90.7234C46.1832 91.0676 43.9777 90.7173 44.0423 88.3059C44.0509 87.8813 44.1959 87.4704 44.4559 87.1333C44.7159 86.7962 45.0773 86.5505 45.4873 86.4323C65.5033 80.7564 73.8742 107.891 55.6236 114.827C55.1559 115.005 54.6409 115.014 54.1684 114.853C53.6959 114.692 53.2956 114.37 53.0372 113.944C51.9839 112.239 52.7402 111.173 54.3802 110.323Z" fill="#FBFBFB"/>
<path d="M166.917 51.8911C167.284 52.9204 167.444 54.0118 167.389 55.103C167.334 56.1942 167.064 57.2638 166.596 58.2509C166.127 59.2379 165.469 60.123 164.658 60.8556C163.848 61.5882 162.901 62.154 161.872 62.5206C159.793 63.2611 157.505 63.1455 155.512 62.1993C153.519 61.253 151.983 59.5537 151.242 57.475C150.502 55.3964 150.617 53.1087 151.564 51.1153C152.51 49.1218 154.209 47.586 156.288 46.8455C157.317 46.4789 158.408 46.3185 159.5 46.3737C160.591 46.4288 161.66 46.6983 162.647 47.1669C163.635 47.6354 164.52 48.2938 165.252 49.1043C165.985 49.9149 166.551 50.8619 166.917 51.8911ZM162.154 53.5985C161.867 52.7915 161.27 52.1318 160.496 51.7645C159.723 51.3971 158.834 51.3523 158.027 51.6397C157.22 51.9272 156.561 52.5234 156.193 53.2973C155.826 54.0712 155.781 54.9593 156.069 55.7663C156.211 56.1659 156.431 56.5335 156.715 56.8482C156.999 57.1629 157.343 57.4185 157.726 57.6004C158.109 57.7823 158.525 57.8869 158.948 57.9083C159.372 57.9297 159.796 57.8675 160.195 57.7251C160.595 57.5828 160.962 57.3631 161.277 57.0787C161.592 56.7943 161.847 56.4507 162.029 56.0675C162.211 55.6843 162.316 55.2691 162.337 54.8454C162.359 54.4218 162.296 53.9981 162.154 53.5985Z" fill="#FBFBFB"/>
<path d="M70.5604 109.793C77.5951 106.565 80.6044 100.292 78.9167 92.7828C78.0722 89.071 83.1776 89.248 83.8119 92.5782C85.6698 102.482 82.0728 109.659 73.0208 114.108C72.7008 114.265 72.3484 114.346 71.9907 114.344C71.6331 114.343 71.2799 114.259 70.9585 114.099C69.2331 113.249 68.8695 112.02 69.8677 110.412C70.037 110.132 70.2679 109.926 70.5604 109.793Z" fill="#FBFBFB"/>
<path d="M101.609 98.5523C102.651 95.3997 101.53 92.9471 98.2445 91.1946C97.9397 91.0343 97.6164 90.9513 97.2747 90.9456L92.1968 90.8756C91.8255 90.8663 91.5594 90.6957 91.3987 90.3637C90.4156 88.2794 90.8857 86.9867 92.8091 86.4855C104.317 83.4477 111.777 96.8197 103.188 104.922C101.701 106.322 96.1948 108.655 96.4849 104.284C96.5054 103.944 96.6516 103.669 96.9235 103.459C98.7981 102.016 100.849 100.829 101.609 98.5523Z" fill="#FBFBFB"/>
<path d="M164.339 84.1679C161.796 82.9611 157.615 81.8922 157.657 78.3742C157.66 78.1016 157.73 77.8339 157.861 77.5948C157.991 77.3557 158.179 77.1525 158.407 77.0031C158.635 76.8536 158.896 76.7627 159.168 76.7382C159.439 76.7137 159.713 76.7564 159.964 76.8625L166.989 79.8058C167.288 79.9325 167.555 79.887 167.789 79.6692C174.305 73.792 183.586 79.8805 181.428 88.0376C179.322 95.9533 167.975 96.0147 165.455 87.8679C165.245 87.189 165.278 85.8504 164.974 84.9077C164.868 84.5704 164.656 84.3238 164.339 84.1679ZM176.549 84.5317C176.257 83.7122 175.651 83.0423 174.866 82.6693C174.08 82.2962 173.178 82.2506 172.358 82.5426C171.539 82.8345 170.869 83.44 170.496 84.2258C170.123 85.0117 170.077 85.9136 170.369 86.733C170.661 87.5525 171.267 88.2224 172.052 88.5955C172.838 88.9685 173.74 89.0141 174.56 88.7222C175.379 88.4303 176.049 87.8248 176.422 87.0389C176.795 86.253 176.841 85.3512 176.549 84.5317Z" fill="#FBFBFB"/>
<path d="M50.6528 127.723C55.5653 131.918 61.2437 128.101 66.295 127.024C67.3679 126.797 68.0889 127.202 68.458 128.238C69.0996 130.069 68.7263 130.839 66.9377 131.688C57.7407 136.058 47.3778 136.469 43.483 124.97C43.3573 124.597 43.4577 124.303 43.7844 124.087L45.5161 122.929C45.8387 122.722 46.1674 122.711 46.5023 122.896C48.5335 124.009 48.895 126.216 50.6528 127.723Z" fill="#FBFBFB"/>
<path d="M77.0934 147.89C70.5181 150.232 70.1678 153.361 70.6952 159.967C70.7423 160.517 70.4949 160.846 69.9531 160.954L67.6003 161.441C67.1635 161.526 66.8681 161.363 66.7142 160.95C63.5722 152.547 67.1092 146.712 74.8784 143.52C80.9112 141.045 87.0332 138.812 93.2445 136.818C96.9115 135.639 98.6588 139.412 95.1931 141.156C92.0747 142.713 88.385 143.56 85.6336 144.657C82.8016 145.786 79.9548 146.864 77.0934 147.89Z" fill="#FBFBFB"/>
<path d="M112.936 129.802L103.491 133.148C102.268 133.581 101.628 134.924 102.061 136.148L102.135 136.355C102.568 137.578 103.911 138.219 105.134 137.785L114.579 134.44C115.803 134.006 116.443 132.663 116.01 131.44L115.936 131.232C115.503 130.009 114.16 129.369 112.936 129.802Z" fill="#FBFBFB"/>
<path d="M196.267 109.28C197.008 111.361 196.893 113.652 195.945 115.647C194.998 117.643 193.297 119.181 191.215 119.922C189.134 120.664 186.844 120.548 184.848 119.601C182.852 118.653 181.314 116.952 180.573 114.871C179.832 112.79 179.948 110.499 180.895 108.503C181.842 106.507 183.544 104.97 185.625 104.228C187.706 103.487 189.996 103.603 191.992 104.55C193.988 105.498 195.526 107.199 196.267 109.28ZM191.463 110.991C191.173 110.177 190.571 109.511 189.79 109.14C189.009 108.77 188.112 108.724 187.298 109.014C186.483 109.305 185.818 109.906 185.447 110.687C185.076 111.469 185.031 112.365 185.321 113.179C185.611 113.994 186.213 114.66 186.994 115.03C187.775 115.401 188.671 115.447 189.486 115.156C190.3 114.866 190.966 114.264 191.337 113.483C191.708 112.702 191.753 111.806 191.463 110.991Z" fill="#FBFBFB"/>
<path d="M93.9503 169.613C102.075 166.018 100.992 154.514 91.7849 154.832C90.6512 154.868 89.5253 154.926 88.4073 155.006C88.1188 155.022 87.8315 154.956 87.5797 154.814C87.3279 154.672 87.122 154.461 86.9866 154.206C86.4582 153.22 86.4628 152.259 87.0003 151.324C87.1795 151.013 87.442 150.806 87.7879 150.704C105.31 145.418 110.681 170.479 95.3543 173.614C95.0645 173.674 94.7957 173.625 94.5479 173.466C93.3968 172.757 92.9723 171.744 93.2743 170.427C93.3656 170.047 93.591 169.776 93.9503 169.613Z" fill="#FBFBFB"/>
<path d="M194.751 137.505C195.492 139.586 195.377 141.877 194.429 143.873C193.482 145.868 191.78 147.406 189.699 148.147C187.618 148.889 185.328 148.773 183.332 147.826C181.336 146.878 179.798 145.177 179.057 143.096C178.316 141.015 178.431 138.724 179.379 136.728C180.326 134.733 182.028 133.195 184.109 132.453C186.19 131.712 188.48 131.828 190.476 132.775C192.472 133.723 194.01 135.424 194.751 137.505ZM189.959 139.223C189.675 138.423 189.084 137.77 188.317 137.406C187.551 137.042 186.671 136.997 185.871 137.282C185.072 137.567 184.418 138.158 184.054 138.924C183.69 139.691 183.646 140.571 183.931 141.37C184.215 142.17 184.806 142.823 185.573 143.187C186.34 143.551 187.219 143.596 188.019 143.311C188.818 143.026 189.472 142.435 189.836 141.669C190.2 140.902 190.244 140.022 189.959 139.223Z" fill="#FBFBFB"/>
</svg>
