<svg width="258" height="278" viewBox="0 0 258 278" fill="none" xmlns="http://www.w3.org/2000/svg">
<g clip-path="url(#clip0_537_435)">
<path d="M84.7186 62.5353L148.01 43.4252C152.452 42.4064 153.257 46.06 154.239 49.2973C155.874 54.6767 157.533 60.1807 159.216 65.8095C159.281 66.0239 159.419 66.0991 159.631 66.0351C164.838 64.4519 170.122 62.8594 175.481 61.2574C177.674 60.5995 179.274 61.8587 180.43 63.7824C183.028 68.1232 185.627 72.4632 188.23 76.8025C190.129 79.9708 190.028 82.935 186.112 84.1418C176.995 86.9465 167.879 89.703 158.765 92.4113C158.648 92.4467 158.607 92.5217 158.641 92.6364L170.498 131.946C170.533 132.063 170.614 132.161 170.722 132.219C170.829 132.277 170.956 132.289 171.073 132.254C179.659 129.653 188.227 127.066 196.778 124.492C201.241 123.153 203.65 124.049 203.961 129.093C204.267 134.06 204.504 139.032 204.674 144.008C204.759 146.492 204.272 148.312 201.815 149.082C196.632 150.707 191.507 152.244 186.441 153.692C186.36 153.714 186.285 153.753 186.22 153.805C186.155 153.857 186.1 153.922 186.06 153.996C186.02 154.069 185.995 154.15 185.987 154.234C185.978 154.317 185.986 154.402 186.01 154.482C191.176 171.592 196.321 188.64 201.445 205.626C201.704 206.486 201.759 207.218 201.609 207.821C200.746 211.285 197.586 211.145 194.927 212.258C194.784 212.317 194.737 212.422 194.785 212.57C196.82 218.996 198.758 225.428 200.599 231.866C201.251 234.15 200.638 235.902 198.577 237.075L197.268 237.47C194.884 237.602 193.339 236.505 192.634 234.177C190.681 227.737 188.732 221.292 186.788 214.842C186.749 214.715 186.666 214.671 186.539 214.709C181.879 216.088 178.937 217.519 177.112 211.623C170.019 188.674 163.261 165.615 156.292 142.629C154.619 137.116 157.668 135.889 162.442 134.954C162.586 134.926 162.637 134.843 162.595 134.703C158.269 120.376 153.939 106.047 149.607 91.7164C148.751 88.8818 149.4 86.5721 152.455 85.6497C161.214 82.9996 169.986 80.3482 178.772 77.6955C178.904 77.6556 178.935 77.5754 178.866 77.4548L174.664 70.3627C174.592 70.2404 174.488 70.2012 174.351 70.2451C169.101 71.9391 163.818 73.537 158.502 75.0388C155.39 75.9214 153.341 75.2179 152.325 71.9054C150.384 65.5683 148.461 59.223 146.557 52.8695C146.52 52.7474 146.44 52.7035 146.317 52.7379C143.733 53.4526 141.16 54.1985 138.595 54.9756C122.604 59.8176 106.607 64.6368 90.6043 69.4332C89.0214 69.9071 87.2451 70.4434 85.8432 71.287C72.7516 79.138 59.583 87.0041 46.3373 94.8854C46.2627 94.9302 46.2054 94.9988 46.175 95.0799C46.1446 95.1611 46.1429 95.2499 46.1701 95.3317L47.5908 99.7666C47.5991 99.7904 47.6162 99.8101 47.6387 99.8216C47.6612 99.8331 47.6872 99.8354 47.7114 99.8281C64.7189 94.6847 81.7216 89.5523 98.7194 84.4308C102.388 83.3232 103.995 84.931 105.064 88.4439C110.954 107.835 116.792 127.179 122.578 146.476C122.595 146.531 122.622 146.582 122.659 146.626C122.696 146.671 122.742 146.707 122.793 146.733C122.845 146.759 122.901 146.774 122.958 146.778C123.016 146.782 123.073 146.774 123.128 146.755C126.599 145.523 130.632 144.093 132.12 149.009C139.269 172.65 146.407 196.295 153.535 219.945C153.958 221.349 153.789 222.649 153.027 223.844C152.011 225.441 149.078 226.077 147.287 226.524C147.225 226.54 147.167 226.567 147.116 226.606C147.066 226.645 147.024 226.693 146.992 226.749C146.961 226.804 146.941 226.866 146.934 226.93C146.928 226.993 146.934 227.058 146.952 227.119C148.89 233.484 150.829 239.913 152.767 246.406C153.428 248.622 152.697 250.389 150.711 251.528L149.402 251.923C146.464 252.124 145.301 250.476 144.47 247.752C142.64 241.735 140.791 235.595 138.925 229.331C138.911 229.285 138.888 229.243 138.858 229.208C138.827 229.172 138.789 229.143 138.746 229.122C138.704 229.102 138.657 229.091 138.61 229.09C138.563 229.089 138.516 229.098 138.472 229.116C135.954 230.154 132.607 231.409 130.573 229.025C130.051 228.412 129.461 227.017 128.803 224.838C125.85 215.066 122.908 205.291 119.977 195.512C119.386 193.54 120.75 188.599 121.149 186.434C121.397 185.066 120.84 183.814 120.413 182.564C120.36 182.414 120.259 182.366 120.112 182.418C117.007 183.499 113.245 184.986 109.954 184.992C95.8075 185.017 81.6607 185.039 67.513 185.059C65.6494 185.063 64.1491 183.594 63.5797 181.762C61.7142 175.764 60.5619 171.93 60.1227 170.259C59.1285 166.466 61.6568 165.299 64.924 164.308C81.4596 159.305 98.0066 154.307 114.565 149.316C114.61 149.302 114.647 149.271 114.669 149.229C114.69 149.188 114.695 149.138 114.681 149.093L97.8934 93.547C97.8625 93.4448 97.7972 93.4087 97.6975 93.4389C80.6926 98.6223 63.6921 103.821 46.6367 108.823C43.8179 109.65 41.6721 109.017 40.6971 105.896C39.3836 101.69 38.3146 98.1266 37.49 95.2064C36.3495 91.1725 37.8074 90.2712 40.9167 88.4061C54.8186 80.0765 68.7355 71.7695 82.6673 63.4852C83.2896 63.1137 84.0488 62.8845 84.7186 62.5353ZM124.053 173.145C127.612 173.837 128.471 180.074 129.518 184.148C130.351 187.381 128.108 191.184 128.595 194.742C128.894 196.908 129.86 199.298 130.347 200.897C132.361 207.547 134.363 214.191 136.353 220.828C136.376 220.904 136.428 220.967 136.498 221.004C136.568 221.041 136.651 221.048 136.727 221.025L144.194 218.701C144.316 218.665 144.359 218.585 144.322 218.463L125.183 155.074C125.143 154.942 125.058 154.896 124.928 154.935L69.5505 171.684C69.4133 171.726 69.3642 171.815 69.4031 171.953L70.6107 176.452C70.6315 176.53 70.6776 176.599 70.7418 176.648C70.8061 176.697 70.8849 176.724 70.9662 176.725C83.6758 176.69 96.4157 176.665 109.186 176.651C110.78 176.647 112.932 176.03 114.437 175.542C116.876 174.753 121.643 172.677 124.053 173.145ZM176.683 152.619C175.87 149.914 177.341 147.797 179.915 147.024C184.905 145.523 189.894 144.013 194.882 142.496C195.259 142.382 195.608 142.159 196.049 142.05C196.2 142.013 196.272 141.916 196.263 141.761L195.815 133.613C195.814 133.6 195.811 133.586 195.804 133.574C195.797 133.562 195.788 133.552 195.777 133.544C195.765 133.536 195.752 133.531 195.738 133.528C195.724 133.526 195.71 133.527 195.696 133.531L165.279 142.796C165.132 142.841 165.075 142.918 165.108 143.028L184.084 205.89C184.14 206.074 184.266 206.23 184.435 206.322C184.604 206.415 184.803 206.437 184.989 206.384L192.092 204.382C192.117 204.375 192.141 204.363 192.162 204.346C192.183 204.329 192.2 204.309 192.212 204.285C192.225 204.261 192.233 204.235 192.236 204.209C192.238 204.182 192.236 204.155 192.228 204.129C187.03 186.95 181.848 169.78 176.683 152.619Z" fill="#FBFBFB"/>
<line x1="104.464" y1="87.4703" x2="118.301" y2="83.2926" stroke="#FBFBFB"/>
<line x1="105.254" y1="90.088" x2="110.864" y2="88.3943" stroke="#FBFBFB"/>
<line x1="109.997" y1="105.794" x2="115.606" y2="104.1" stroke="#FBFBFB"/>
<line x1="114.739" y1="121.5" x2="120.349" y2="119.806" stroke="#FBFBFB"/>
<line x1="119.481" y1="137.206" x2="125.091" y2="135.512" stroke="#FBFBFB"/>
<line x1="106.835" y1="95.3233" x2="112.445" y2="93.6297" stroke="#FBFBFB"/>
<line x1="111.578" y1="111.029" x2="117.187" y2="109.336" stroke="#FBFBFB"/>
<line x1="116.32" y1="126.735" x2="121.929" y2="125.042" stroke="#FBFBFB"/>
<line x1="121.062" y1="142.441" x2="126.671" y2="140.748" stroke="#FBFBFB"/>
<line x1="106.045" y1="92.7057" x2="111.654" y2="91.012" stroke="#FBFBFB"/>
<line x1="110.787" y1="108.412" x2="116.396" y2="106.718" stroke="#FBFBFB"/>
<line x1="115.529" y1="124.118" x2="121.139" y2="122.424" stroke="#FBFBFB"/>
<line x1="120.271" y1="139.824" x2="125.881" y2="138.13" stroke="#FBFBFB"/>
<line x1="107.625" y1="97.941" x2="113.235" y2="96.2474" stroke="#FBFBFB"/>
<line x1="112.368" y1="113.647" x2="117.977" y2="111.953" stroke="#FBFBFB"/>
<line x1="117.11" y1="129.353" x2="122.72" y2="127.659" stroke="#FBFBFB"/>
<line x1="121.853" y1="145.059" x2="127.462" y2="143.365" stroke="#FBFBFB"/>
<line x1="108.416" y1="100.559" x2="114.025" y2="98.865" stroke="#FBFBFB"/>
<line x1="113.158" y1="116.265" x2="118.767" y2="114.571" stroke="#FBFBFB"/>
<line x1="117.9" y1="131.971" x2="123.51" y2="130.277" stroke="#FBFBFB"/>
<line x1="108.459" y1="103.402" x2="122.295" y2="99.2245" stroke="#FBFBFB"/>
<line x1="113.201" y1="119.108" x2="127.037" y2="114.93" stroke="#FBFBFB"/>
<line x1="117.943" y1="134.814" x2="131.779" y2="130.636" stroke="#FBFBFB"/>
</g>
<ellipse cx="113.452" cy="40.8023" rx="44.5" ry="15.5" transform="rotate(-16.8011 113.452 40.8023)" stroke="#FBFBFB" stroke-width="10" stroke-miterlimit="16"/>
<defs>
<clipPath id="clip0_537_435">
<rect width="200" height="200" fill="white" transform="translate(8.41016 85.5759) rotate(-16.8011)"/>
</clipPath>
</defs>
</svg>
