<svg width="218" height="221" viewBox="0 0 218 221" fill="none" xmlns="http://www.w3.org/2000/svg">
<path d="M65.5412 81.6719L54.2035 86.4159C53.7375 86.6149 53.5294 86.9674 53.579 87.4732L53.8656 90.6645C53.8964 91.0195 53.7637 91.3012 53.4674 91.5097C50.7157 93.3889 42.3238 98.5637 39.8077 93.6085C38.1689 90.39 34.2772 84.5628 38.8544 81.9428C42.7485 79.7122 48.7426 76.3574 51.1004 81.6373C51.2538 81.9924 51.5124 82.095 51.8761 81.9453L77.7303 71.3C78.094 71.1502 78.3228 70.883 78.4168 70.4983C79.0663 67.8733 80.3957 65.6388 82.405 63.795C82.7545 63.4708 82.8503 63.0817 82.6922 62.6277L81.7403 59.9483C81.5619 59.445 81.2262 59.2948 80.733 59.4978C74.1841 62.2232 67.6516 64.9273 61.1357 67.6102C55.6338 69.8756 53.1541 65.9543 52.2409 61.215C52.1702 60.8332 51.9387 60.6474 51.5463 60.6575C45.3118 60.8021 40.6809 56.0688 41.8586 50.209C44.7112 36.0463 67.0263 44.9617 56.7186 58.4846C56.501 58.7617 56.4607 59.0666 56.5978 59.3995L57.9684 62.7284C58.1461 63.1599 58.4507 63.2868 58.8822 63.1091C65.7717 60.2652 72.6477 57.4413 79.5103 54.6373C83.7068 52.9311 85.5055 56.1702 86.9028 59.3799C87.0384 59.6918 87.2692 59.8059 87.5952 59.7221L92.6336 58.4586C92.9658 58.3723 93.2307 58.184 93.4283 57.8935C94.7604 55.9284 96.0871 53.6085 97.9615 52.1987C105.796 46.3269 113.497 46.6635 121.066 53.2081C121.346 53.4493 121.683 53.6147 122.045 53.6885C122.407 53.7624 122.781 53.7421 123.133 53.6298C123.485 53.5175 123.802 53.3167 124.055 53.0468C124.307 52.7769 124.486 52.4469 124.574 52.0882C125.237 49.3387 128.305 48.6485 130.917 49.1087C147.986 52.0948 161.004 60.9307 169.971 75.6162C172.529 79.8077 175.109 89.2786 178.889 92.2861C183.805 96.1883 188.713 100.105 193.611 104.036C202.527 111.19 195.562 114.815 188.835 118.071C188.519 118.23 188.431 118.472 188.572 118.796C193.179 129.408 195.926 136.316 196.812 139.52C200.471 152.764 188.895 155.616 179.383 159.49C179.035 159.626 178.92 159.871 179.037 160.227C182.408 170.41 185.278 171.391 173.198 175.749C172.596 175.968 172.09 175.834 171.68 175.347C170.903 174.405 170.616 173.376 170.821 172.261C170.899 171.84 171.135 171.544 171.527 171.376L176.572 169.288C176.972 169.123 177.09 168.84 176.925 168.439L174.42 162.355C174.255 161.954 173.971 161.833 173.568 161.992C161.048 166.833 144.814 178.308 138.31 157.811C138.195 157.462 137.96 157.328 137.604 157.409L129.191 159.327C128.81 159.419 128.695 159.646 128.845 160.01L138.759 184.089C138.929 184.502 139.222 184.627 139.637 184.463C144.999 182.356 150.264 180.199 155.433 177.991C157.863 176.958 158.648 177.684 159.156 180.125C159.347 181.027 159.014 181.654 158.157 182.007C152.561 184.332 146.711 186.741 140.607 189.233C137.747 190.396 135.681 189.448 134.407 186.389C130.751 177.65 127.104 168.906 123.466 160.159C123.34 159.851 123.113 159.685 122.785 159.661C117.32 159.229 111.771 158.151 106.331 159.017C92.8112 161.166 83.0032 150.584 85.2972 137.192C85.3316 136.99 85.3182 136.783 85.258 136.587C85.1979 136.391 85.0927 136.212 84.9509 136.065C84.8091 135.917 84.6347 135.804 84.4416 135.736C84.2485 135.668 84.0421 135.646 83.839 135.672C82.861 135.801 81.6877 136.147 80.3192 136.711C74.3258 139.157 68.3446 141.641 62.3754 144.164C62.0574 144.302 61.8977 144.544 61.8962 144.891C62.0771 158.594 41.1136 155.903 44.6108 142.675C46.3014 136.302 54.8286 134.424 59.5601 139.375C59.7966 139.617 60.0689 139.674 60.3771 139.547L79.8418 131.532C80.1178 131.421 80.3529 131.228 80.5163 130.98C80.6796 130.731 80.7634 130.439 80.7566 130.141C80.7498 129.842 80.6526 129.553 80.478 129.309C80.3035 129.066 80.0596 128.881 79.7787 128.779C74.5708 126.864 70.7242 123.423 68.2389 118.455C68.0961 118.161 67.8736 118.076 67.5715 118.2L62.2176 120.404C61.8724 120.547 61.7375 120.797 61.8129 121.155L62.4373 124.326C62.5181 124.733 62.3871 125.053 62.044 125.288C59.3347 127.139 51.0407 132.447 48.2048 127.45C47.4411 126.121 44.6019 120.25 45.2617 118.096C46.1136 115.28 52.6773 113.15 54.7806 112.717C56.997 112.251 58.5117 113.181 59.3251 115.507C59.4665 115.903 59.7314 116.021 60.1198 115.861L66.5463 113.215C66.9224 113.06 67.1102 112.781 67.1098 112.377C67.1135 109.304 67.8613 106.419 69.3531 103.721C69.5113 103.44 69.4888 103.175 69.2857 102.927L67.1781 100.356C66.9173 100.038 66.5959 99.9575 66.2137 100.115C63.3619 101.278 58.3468 104.122 55.3796 103.429C54.9416 103.329 54.6789 103.058 54.5915 102.618L54.1657 100.533C54.0732 100.081 54.2384 99.7646 54.6612 99.5833L64.4536 95.3675C64.7408 95.242 64.8445 95.0299 64.7647 94.7311C63.7038 90.4384 64.2168 86.37 66.3038 82.5259C66.8593 81.5113 66.6051 81.2267 65.5412 81.6719ZM53.8941 50.3904C53.7111 49.946 53.4424 49.5419 53.1033 49.2013C52.7641 48.8607 52.3612 48.5903 51.9175 48.4054C51.4739 48.2206 50.9981 48.1249 50.5175 48.1239C50.0368 48.1229 49.5607 48.2165 49.1163 48.3995C48.6719 48.5825 48.2678 48.8513 47.9272 49.1904C47.5867 49.5295 47.3162 49.9324 47.1314 50.3761C46.9465 50.8198 46.8508 51.2955 46.8498 51.7761C46.8488 52.2568 46.9424 52.7329 47.1254 53.1774C47.495 54.0749 48.206 54.7889 49.102 55.1623C49.998 55.5357 51.0057 55.5378 51.9033 55.1682C52.8008 54.7986 53.5149 54.0876 53.8882 53.1916C54.2616 52.2956 54.2637 51.288 53.8941 50.3904ZM85.1716 111.829C84.846 111.766 84.5413 111.625 84.2843 111.418C84.0273 111.211 83.826 110.944 83.6981 110.641L80.477 103.002C80.316 102.628 80.0475 102.519 79.6715 102.674L75.1313 104.543C74.8108 104.675 74.5578 104.884 74.3725 105.169C70.8354 110.569 71.394 115.743 76.0481 120.69C78.685 123.505 81.6514 123.881 84.9473 121.817C86.7651 120.69 90.1951 120.511 90.1874 123.434C90.17 125.571 87.0881 126.386 84.9651 127.271C84.6322 127.408 84.5749 127.619 84.7932 127.904L87.5285 131.396C87.7193 131.649 87.9037 131.641 88.0817 131.373C89.3829 129.403 91.0397 127.78 93.0522 126.504C93.3278 126.333 93.5316 126.101 93.6636 125.809C94.145 124.746 100.571 105.683 103.412 114.658C103.523 115.015 103.503 115.37 103.352 115.72L99.9493 123.372C99.8075 123.676 99.9049 123.816 100.241 123.793C105.934 123.33 110.904 124.99 115.15 128.772C115.411 129.003 115.708 129.068 116.041 128.967C121.628 127.179 127.312 126.749 133.095 127.677C133.434 127.732 133.721 127.632 133.955 127.377C140.967 119.612 152.806 124.071 152.15 134.928C152.132 135.243 152.183 135.559 152.302 135.851C152.42 136.142 152.602 136.404 152.834 136.615C159.539 142.743 163.744 150.302 165.447 159.29C165.51 159.618 165.696 159.718 166.004 159.591L176.379 155.319C176.718 155.18 176.818 154.94 176.678 154.601C174.165 148.779 171.781 142.908 169.523 136.989C166.214 128.348 177.4 125.992 184.215 123.553C184.58 123.425 184.695 123.179 184.56 122.816L182.675 117.634C182.477 117.089 182.49 116.49 182.712 115.954C182.934 115.418 183.348 114.985 183.873 114.74L192.623 110.618C192.71 110.576 192.784 110.514 192.84 110.436C192.896 110.358 192.932 110.267 192.943 110.172C192.955 110.076 192.942 109.98 192.906 109.89C192.87 109.801 192.812 109.723 192.738 109.662C186.821 104.889 180.857 100.2 174.844 95.5953C170.705 92.4225 168.231 82.1074 165.366 77.566C157.23 64.6871 145.438 56.7959 129.989 53.8925C129.759 53.8499 129.522 53.8866 129.317 53.9965C129.113 54.1064 128.952 54.2828 128.864 54.4963C122.554 69.675 116.177 84.9609 109.732 100.354C108.195 104.026 103.726 102.103 105.024 98.9511C106.51 95.3112 108.049 91.5555 109.642 87.6842C110.101 86.5579 109.766 86.2271 108.638 86.6916L101.851 89.4861C101.436 89.6579 100.977 89.692 100.541 89.5834C100.105 89.4749 99.715 89.2293 99.4289 88.8829C97.925 87.0689 98.9536 85.5747 100.849 84.7942C104.788 83.1723 108.719 81.4421 112.641 79.6037C112.979 79.443 113.218 79.193 113.36 78.8536L121.723 58.7448C121.897 58.3271 121.757 58.1075 121.301 58.0861L119.714 58.0148C119.303 57.9966 118.93 57.8618 118.596 57.6101C115.192 55.0427 112.214 52.1163 107.321 53.2873C107.053 53.3543 106.969 53.5186 107.07 53.78L110.479 62.5852C110.684 63.1183 110.67 63.7112 110.439 64.2338C110.208 64.7564 109.78 65.1664 109.248 65.374C105.361 66.8876 103.178 58.3022 102.116 55.7762C101.921 55.3015 101.64 55.248 101.272 55.6157C99.4899 57.4165 98.0983 59.4999 97.097 61.8659C96.9144 62.2995 96.6148 62.6741 96.2315 62.9484C95.8481 63.2226 95.396 63.3858 94.9251 63.4199C88.523 63.893 84.5351 67.0598 82.9612 72.9204C82.5267 74.5268 82.7318 76.0754 83.5763 77.5661C83.7402 77.8591 83.975 77.9391 84.2807 77.806C86.7143 76.7824 98.3903 70.4176 99.3378 74.8724C99.4551 75.4217 99.3761 75.9948 99.1144 76.4918C98.8526 76.9889 98.4249 77.3784 97.9056 77.5925L86.0881 82.4583C85.7675 82.5903 85.6732 82.8166 85.8052 83.1371C86.3654 84.5503 86.4539 85.9558 86.0706 87.3537C85.9737 87.6963 85.7594 87.9287 85.4276 88.0509C81.6843 89.3867 79.7323 81.9931 78.5847 79.416C78.5334 79.2984 78.4381 79.2056 78.3192 79.1575C78.2004 79.1094 78.0673 79.1098 77.9488 79.1586C69.6598 82.5608 65.6998 92.7996 73.0857 99.47C73.3381 99.6977 73.6184 99.7481 73.9266 99.6211L89.5783 93.22C89.7982 93.1291 90.0344 93.084 90.2726 93.0874C90.5108 93.0909 90.746 93.1429 90.964 93.2401C91.1819 93.3374 91.3782 93.478 91.5408 93.6534C91.7034 93.8288 91.829 94.0353 91.9101 94.2605L92.5959 96.1627C92.7489 96.6044 92.6147 96.9264 92.1934 97.1287L85.33 100.474C85.07 100.595 84.9977 100.787 85.113 101.05C85.8913 102.914 91.2891 112.977 85.1716 111.829ZM47.11 84.8444C47.0722 84.7478 47.0157 84.6596 46.9438 84.5848C46.8719 84.51 46.786 84.4501 46.6909 84.4085C46.5959 84.3669 46.4935 84.3446 46.3898 84.3425C46.2861 84.3405 46.183 84.3589 46.0864 84.3967L42.6597 85.7382C42.563 85.776 42.4748 85.8325 42.4001 85.9044C42.3253 85.9763 42.2654 86.0623 42.2238 86.1573C42.1822 86.2524 42.1597 86.3547 42.1577 86.4584C42.1557 86.5621 42.1742 86.6652 42.212 86.7619L43.444 89.9092C43.4819 90.0058 43.5384 90.094 43.6103 90.1688C43.6822 90.2436 43.7681 90.3034 43.8632 90.345C43.9582 90.3866 44.0605 90.4091 44.1642 90.4111C44.2679 90.4131 44.3711 90.3947 44.4677 90.3569L47.8944 89.0154C47.991 88.9776 48.0793 88.9211 48.154 88.8492C48.2288 88.7773 48.2887 88.6913 48.3303 88.5963C48.3719 88.5012 48.3943 88.3989 48.3963 88.2952C48.3983 88.1914 48.3799 88.0883 48.3421 87.9917L47.11 84.8444ZM55.2868 118.556C55.2512 118.474 55.1998 118.4 55.1356 118.338C55.0714 118.276 54.9956 118.227 54.9125 118.194C54.8294 118.161 54.7407 118.145 54.6514 118.147C54.5621 118.148 54.474 118.167 54.3921 118.203L50.9984 119.677C50.833 119.749 50.7029 119.884 50.6368 120.051C50.5706 120.219 50.5738 120.406 50.6456 120.572L52.08 123.874C52.1155 123.956 52.1669 124.03 52.2311 124.092C52.2953 124.154 52.3711 124.203 52.4542 124.235C52.5373 124.268 52.626 124.284 52.7153 124.283C52.8046 124.281 52.8927 124.262 52.9747 124.226L56.3682 122.752C56.5337 122.68 56.6638 122.546 56.7299 122.378C56.7961 122.21 56.7929 122.023 56.721 121.858L55.2868 118.556ZM56.5021 143.846C56.1325 142.948 55.4215 142.234 54.5255 141.861C53.6295 141.488 52.6218 141.486 51.7243 141.855C50.8267 142.225 50.1127 142.936 49.7393 143.832C49.3659 144.728 49.3638 145.735 49.7334 146.633C50.103 147.531 50.814 148.245 51.71 148.618C52.606 148.991 53.6136 148.993 54.5112 148.624C55.4088 148.254 56.1228 147.543 56.4962 146.647C56.8695 145.751 56.8717 144.744 56.5021 143.846ZM114.415 136.731C113.128 133.606 110.653 131.121 107.535 129.822C104.416 128.522 100.908 128.514 97.7838 129.801C94.6594 131.087 92.1741 133.562 90.8745 136.681C89.5748 139.8 89.5674 143.308 90.8538 146.432C92.1402 149.556 94.6152 152.042 97.7341 153.341C100.853 154.641 104.361 154.648 107.485 153.362C110.609 152.075 113.095 149.601 114.394 146.482C115.694 143.363 115.701 139.855 114.415 136.731ZM140.908 152.405C144.548 155.783 143.854 164.893 151.161 164.805C154.189 164.769 157.261 163.807 160.376 161.919C160.63 161.764 160.733 161.541 160.685 161.251C159.409 153.161 155.82 146.319 149.919 140.724C149.654 140.465 149.377 140.457 149.087 140.699C142.173 146.39 132.201 142.526 132.402 133.164C132.405 132.752 132.202 132.514 131.794 132.452C127.53 131.814 123.315 132.064 119.148 133.203C118.791 133.3 118.681 133.522 118.817 133.869C121.633 141.095 120.667 147.704 115.917 153.697C115.651 154.03 115.73 154.221 116.153 154.27C123.795 155.038 131.28 154.246 138.609 151.891C139.003 151.765 139.424 151.746 139.828 151.836C140.232 151.926 140.605 152.123 140.908 152.405ZM146.844 131.522C146.337 130.291 145.362 129.311 144.133 128.799C142.904 128.287 141.522 128.284 140.291 128.791C139.06 129.298 138.08 130.273 137.568 131.502C137.056 132.731 137.053 134.113 137.56 135.344C138.067 136.575 139.042 137.555 140.271 138.067C141.5 138.579 142.882 138.582 144.113 138.075C145.344 137.568 146.324 136.593 146.836 135.364C147.348 134.135 147.351 132.753 146.844 131.522ZM186.177 128.109C182.086 129.967 177.823 131.17 173.948 133.577C173.632 133.772 173.543 134.039 173.683 134.378L181.433 152.86C181.576 153.19 181.806 153.276 182.123 153.116C185.026 151.683 188.834 150.688 190.772 148.463C195.153 143.447 189.139 133.595 186.884 128.381C186.74 128.05 186.505 127.96 186.177 128.109Z" fill="#FBFBFB"/>
<path d="M93.2452 40.7457C93.6772 41.7695 93.6848 42.923 93.2664 43.9524C92.8479 44.9819 92.0377 45.8029 91.0139 46.235L84.8225 48.8477C83.7987 49.2797 82.6452 49.2874 81.6157 48.8689C80.5863 48.4505 79.7652 47.6402 79.3331 46.6164L76.7205 40.425C76.2885 39.4012 76.2808 38.2477 76.6993 37.2182C77.1177 36.1888 77.928 35.3677 78.9518 34.9357L85.1432 32.323C86.167 31.891 87.3205 31.8833 88.35 32.3018C89.3794 32.7202 90.2005 33.5305 90.6326 34.5543L93.2452 40.7457ZM86.8452 38.3881C86.7798 38.2332 86.6846 38.0928 86.5649 37.9747C86.4453 37.8566 86.3036 37.7633 86.1478 37.7C85.9921 37.6367 85.8254 37.6047 85.6573 37.6058C85.4892 37.6069 85.323 37.6411 85.1681 37.7065L82.7174 38.7406C82.4046 38.8726 82.1571 39.1235 82.0293 39.4379C81.9015 39.7524 81.9038 40.1048 82.0358 40.4176L83.0466 42.813C83.1119 42.9679 83.2071 43.1084 83.3268 43.2265C83.4464 43.3445 83.5882 43.4379 83.7439 43.5012C83.8996 43.5645 84.0663 43.5965 84.2344 43.5953C84.4025 43.5942 84.5687 43.56 84.7236 43.4946L87.1743 42.4605C87.487 42.3285 87.7345 42.0777 87.8624 41.7632C87.9902 41.4487 87.9879 41.0964 87.8559 40.7836L86.8452 38.3881Z" fill="#FBFBFB"/>
<path d="M29.3506 75.28C29.5506 75.7586 29.6543 76.272 29.656 76.7907C29.6576 77.3094 29.5571 77.8234 29.3601 78.3033C29.1631 78.7831 28.8734 79.2195 28.5078 79.5874C28.1421 79.9554 27.7076 80.2477 27.229 80.4477L20.6964 83.1774C19.7298 83.5813 18.6423 83.5847 17.6732 83.1869C16.7041 82.789 15.9328 82.0225 15.5289 81.0559L12.8067 74.5418C12.6067 74.0632 12.5029 73.5499 12.5013 73.0311C12.4997 72.5124 12.6002 71.9985 12.7972 71.5186C12.9942 71.0387 13.2839 70.6024 13.6495 70.2344C14.0152 69.8665 14.4497 69.5742 14.9283 69.3741L21.4609 66.6444C22.4275 66.2405 23.515 66.2371 24.4841 66.6349C25.4532 67.0328 26.2245 67.7994 26.6284 68.7659L29.3506 75.28ZM22.7051 72.4148C22.6602 72.3069 22.5945 72.2088 22.5118 72.1263C22.429 72.0438 22.3308 71.9784 22.2227 71.9338C22.1147 71.8892 21.999 71.8663 21.8821 71.8665C21.7652 71.8666 21.6495 71.8898 21.5416 71.9347L18.4575 73.2171C18.3496 73.262 18.2516 73.3276 18.1691 73.4104C18.0865 73.4932 18.0211 73.5914 17.9765 73.6994C17.932 73.8075 17.9091 73.9232 17.9093 74.0401C17.9094 74.157 17.9326 74.2727 17.9774 74.3806L19.2292 77.3907C19.2741 77.4986 19.3398 77.5967 19.4225 77.6792C19.5053 77.7618 19.6035 77.8271 19.7115 77.8717C19.8196 77.9163 19.9353 77.9392 20.0522 77.939C20.1691 77.9389 20.2848 77.9157 20.3927 77.8708L23.4767 76.5884C23.5846 76.5436 23.6827 76.4779 23.7652 76.3951C23.8477 76.3124 23.9132 76.2141 23.9577 76.1061C24.0023 75.998 24.0252 75.8823 24.0251 75.7654C24.0249 75.6486 24.0017 75.5329 23.9568 75.4249L22.7051 72.4148Z" fill="#FBFBFB"/>
<path d="M37.2229 106.688C38.5896 105.822 40.0461 105.446 41.5923 105.559C41.9429 105.588 42.2391 105.729 42.4806 105.983C45.1517 108.819 41.3545 110.34 39.3224 111.209C38.9772 111.351 38.7897 111.605 38.7599 111.97C38.2681 117.587 35.5408 120.603 30.578 121.017C19.6602 121.922 17.3527 106.336 28.0654 103.699C31.1157 102.948 33.8763 103.909 36.3472 106.583C36.6075 106.865 36.8994 106.9 37.2229 106.688ZM33.1972 110.962C33.0142 110.518 32.7455 110.114 32.4063 109.773C32.0672 109.433 31.6643 109.162 31.2206 108.977C30.777 108.792 30.3012 108.697 29.8206 108.696C29.34 108.695 28.8638 108.788 28.4194 108.971C27.9749 109.154 27.5709 109.423 27.2303 109.762C26.8897 110.101 26.6193 110.504 26.4344 110.948C26.2496 111.392 26.1539 111.867 26.1529 112.348C26.1519 112.829 26.2455 113.305 26.4285 113.749C26.798 114.647 27.5091 115.361 28.4051 115.734C29.3011 116.108 30.3088 116.11 31.2063 115.74C32.1039 115.371 32.8179 114.659 33.1913 113.763C33.5646 112.867 33.5667 111.86 33.1972 110.962Z" fill="#FBFBFB"/>
<path d="M167.242 93.4157C167.476 93.984 167.596 94.5928 167.595 95.2074C167.593 95.822 167.471 96.4303 167.235 96.9976C166.998 97.5649 166.652 98.0801 166.217 98.5138C165.781 98.9474 165.265 99.2911 164.696 99.5251L147.109 106.767C145.961 107.239 144.673 107.236 143.527 106.759C142.381 106.282 141.472 105.369 141 104.221L138.875 99.0612C138.403 97.9134 138.405 96.625 138.883 95.4792C139.36 94.3335 140.273 93.4244 141.421 92.9518L159.008 85.7103C159.577 85.4763 160.185 85.3565 160.8 85.3578C161.415 85.3591 162.023 85.4814 162.59 85.7178C163.158 85.9542 163.673 86.3 164.106 86.7355C164.54 87.171 164.884 87.6877 165.118 88.256L167.242 93.4157ZM160.769 91.1169C160.7 90.9477 160.566 90.8131 160.397 90.7427C160.228 90.6723 160.038 90.6719 159.869 90.7416L144.131 97.2217C143.961 97.2914 143.827 97.4254 143.756 97.5943C143.686 97.7632 143.686 97.9532 143.755 98.1224L145.133 101.47C145.203 101.639 145.337 101.774 145.506 101.844C145.675 101.914 145.865 101.915 146.034 101.845L161.772 95.365C161.942 95.2954 162.076 95.1613 162.147 94.9924C162.217 94.8235 162.217 94.6335 162.148 94.4643L160.769 91.1169Z" fill="#FBFBFB"/>
<path d="M111.71 137.855C112.2 139.045 112.451 140.32 112.448 141.607C112.445 142.894 112.189 144.168 111.694 145.356C111.199 146.544 110.475 147.623 109.563 148.531C108.651 149.439 107.569 150.159 106.379 150.649C103.976 151.638 101.278 151.632 98.8784 150.633C96.4793 149.633 94.5755 147.721 93.5859 145.318C92.5963 142.914 92.602 140.216 93.6018 137.817C94.6015 135.418 96.5133 133.514 98.9166 132.525C100.107 132.035 101.382 131.784 102.669 131.787C103.955 131.789 105.229 132.046 106.417 132.541C107.605 133.036 108.684 133.76 109.592 134.672C110.5 135.584 111.22 136.665 111.71 137.855ZM107.105 139.805C106.616 138.616 105.673 137.67 104.486 137.175C103.299 136.68 101.964 136.677 100.774 137.167C99.5847 137.657 98.6385 138.599 98.1438 139.786C97.649 140.974 97.6462 142.309 98.1359 143.498C98.6257 144.688 99.5678 145.634 100.755 146.129C101.943 146.624 103.278 146.626 104.467 146.137C105.657 145.647 106.603 144.705 107.098 143.517C107.592 142.33 107.595 140.995 107.105 139.805Z" fill="#FBFBFB"/>
<path d="M83.9047 158.55C84.3207 159.561 84.3183 160.695 83.898 161.704C83.4777 162.712 82.674 163.513 81.6636 163.929L75.4497 166.487C74.4393 166.903 73.305 166.901 72.2964 166.481C71.2877 166.06 70.4874 165.257 70.0714 164.246L67.4519 157.884C67.0359 156.874 67.0383 155.74 67.4586 154.731C67.8788 153.722 68.6826 152.922 69.693 152.506L75.9069 149.948C76.9173 149.532 78.0516 149.534 79.0602 149.954C80.0688 150.374 80.8692 151.178 81.2852 152.189L83.9047 158.55ZM77.2192 155.645C77.1735 155.545 77.1084 155.454 77.0278 155.379C76.9471 155.304 76.8525 155.245 76.7492 155.206C76.6459 155.168 76.5359 155.15 76.4257 155.154C76.3154 155.157 76.207 155.183 76.1066 155.229L73.0122 156.638C72.9118 156.683 72.8213 156.748 72.7461 156.829C72.6708 156.91 72.6122 157.004 72.5736 157.108C72.5349 157.211 72.517 157.321 72.5208 157.431C72.5246 157.541 72.5501 157.65 72.5958 157.75L74.046 160.935C74.0917 161.036 74.1567 161.126 74.2374 161.202C74.318 161.277 74.4127 161.335 74.516 161.374C74.6193 161.413 74.7292 161.431 74.8395 161.427C74.9497 161.423 75.0582 161.398 75.1586 161.352L78.253 159.943C78.3534 159.897 78.4438 159.832 78.5191 159.752C78.5943 159.671 78.653 159.576 78.6917 159.473C78.7303 159.37 78.7482 159.26 78.7444 159.15C78.7406 159.039 78.7151 158.931 78.6694 158.83L77.2192 155.645Z" fill="#FBFBFB"/>
</svg>
