<svg width="231" height="229" viewBox="0 0 231 229" fill="none" xmlns="http://www.w3.org/2000/svg">
<path d="M167.778 148.703C174.908 142.407 182.228 136.352 189.738 130.537C195.678 125.935 197.952 128.401 202.197 133.313C207.952 139.972 199.372 145.163 194.002 148.839C193.709 149.038 193.41 149.048 193.105 148.867C191.999 148.242 191.304 147.333 191.019 146.142C190.934 145.788 191.028 145.489 191.302 145.245L198.967 138.477C199.251 138.224 199.272 137.951 199.03 137.659L195.288 133.136C195.059 132.858 194.805 132.834 194.528 133.064L119.226 195.422C118.794 195.779 118.754 196.18 119.105 196.625L122.441 200.783C122.791 201.228 123.185 201.27 123.622 200.909L180.543 153.873C180.768 153.688 181.049 153.585 181.338 153.583C181.627 153.581 181.906 153.678 182.128 153.86C184.091 155.437 184.378 156.809 182.989 157.975C165.252 172.847 147.477 187.669 129.664 202.439C122.581 208.311 119.774 206.376 115.044 199.608C112.863 196.489 113.512 193.478 116.992 190.573C124.386 184.387 131.803 178.229 139.244 172.1C139.515 171.884 139.54 171.643 139.32 171.376L130.957 161.267C130.799 161.076 130.623 161.062 130.428 161.224L115.762 173.24C115.464 173.477 115.132 173.592 114.763 173.586C112.069 173.53 111.05 170.713 113.26 168.898C143.064 144.39 172.596 119.903 201.857 95.4381C202.186 95.1627 202.393 94.7689 202.433 94.342C202.473 93.915 202.344 93.4893 202.072 93.1572L192.29 81.2375C192.061 80.9507 191.806 80.9242 191.523 81.1579L141.439 122.59C140.812 123.108 140.824 123.613 141.473 124.106C146.177 127.69 144.503 130.827 140.695 133.912C136.449 137.355 132.233 140.835 128.046 144.35C124.273 147.523 121.92 143.941 119.6 141.279C119.391 141.036 119.163 141.017 118.917 141.221L68.4087 183.003C68.3591 183.044 68.3181 183.095 68.288 183.152C68.2579 183.208 68.2393 183.271 68.2332 183.335C68.2272 183.399 68.2338 183.463 68.2527 183.525C68.2716 183.586 68.3025 183.644 68.3435 183.693L78.8183 196.105C79.0827 196.414 79.3732 196.446 79.6899 196.201C88.2987 189.685 94.7363 184.524 99.0026 180.718C100.935 178.99 103.542 179.13 103.995 181.78C104.052 182.121 103.969 182.428 103.744 182.701C98.9466 188.447 90.8908 194.021 84.9241 198.685C80.6985 201.986 77.6351 202.534 74.022 198.229C47.8191 166.993 29.3419 143.214 6.25127 116.321C2.51548 111.962 0.589949 108.364 5.56754 104.246C45.4979 71.1967 85.4321 38.1572 125.37 5.12748C128.959 2.17123 132.488 1.13403 135.701 5.01747C158.511 32.592 181.325 60.1644 204.141 87.7346C209.865 94.6539 208.096 96.8306 201.985 101.899C187.594 113.83 173.22 125.781 158.863 137.753C158.626 137.949 158.604 138.167 158.794 138.407L167.179 148.654C167.366 148.88 167.566 148.896 167.778 148.703ZM106.429 35.8382C106.331 36.2219 106.136 36.5349 105.843 36.7771C76.3521 61.225 46.8893 85.6282 17.4543 109.987C17.4058 110.027 17.3658 110.076 17.3366 110.132C17.3074 110.189 17.2896 110.25 17.2843 110.314C17.279 110.377 17.2862 110.441 17.3055 110.502C17.3248 110.564 17.3558 110.621 17.3968 110.67L70.1425 174.431C70.355 174.688 70.5897 174.71 70.8465 174.498L182.765 81.9138C183.022 81.7013 183.044 81.4667 182.832 81.2098L130.118 17.4093C130.035 17.3092 129.915 17.2467 129.785 17.2357C129.654 17.2246 129.523 17.2659 129.421 17.3505L116.699 27.8741C116.458 28.0738 116.185 28.1522 115.882 28.1093C112.753 27.6998 112.771 24.8037 114.841 23.0391C120.639 18.1041 125.151 14.4064 128.376 11.9461C129.857 10.8076 131.084 10.8265 132.057 12.0029C150.229 33.9492 168.396 55.9045 186.557 77.8687C186.854 78.2282 187.183 78.2593 187.542 77.9618L188.251 77.3754C188.575 77.1077 188.603 76.812 188.335 76.4884L131.351 7.60351C131.219 7.44412 131.029 7.34363 130.823 7.32415C130.617 7.30468 130.412 7.36784 130.253 7.4997L7.80049 108.875C7.50255 109.121 7.47125 109.403 7.70655 109.718C24.846 132.696 44.3426 154.633 62.6581 176.742C63.2381 177.443 64.0586 177.855 64.6365 178.804C64.8817 179.216 65.1892 179.268 65.5591 178.962L66.2063 178.427C66.5043 178.181 66.53 177.908 66.2835 177.61C48.487 156.097 30.6969 134.592 12.9132 113.094C11.1985 111.022 10.4811 109.37 12.7927 107.458C42.144 83.0819 71.5276 58.7399 100.944 34.4317C102.932 32.7872 104.93 31.7829 106.321 34.7981C106.474 35.1255 106.512 35.4923 106.429 35.8382ZM137.44 126.815C137.386 126.749 137.319 126.695 137.244 126.654C137.169 126.614 137.086 126.589 137.001 126.58C136.917 126.572 136.831 126.58 136.749 126.605C136.667 126.629 136.591 126.67 136.525 126.724L123.633 137.276C123.567 137.33 123.512 137.397 123.472 137.472C123.431 137.547 123.406 137.63 123.398 137.714C123.389 137.799 123.398 137.885 123.422 137.967C123.447 138.049 123.487 138.125 123.542 138.191L124.77 139.692C124.824 139.758 124.891 139.813 124.966 139.853C125.041 139.894 125.124 139.919 125.209 139.927C125.294 139.936 125.379 139.927 125.461 139.903C125.543 139.878 125.619 139.837 125.685 139.783L138.577 129.231C138.643 129.177 138.698 129.111 138.738 129.036C138.779 128.96 138.804 128.878 138.812 128.793C138.821 128.708 138.813 128.622 138.788 128.541C138.763 128.459 138.723 128.383 138.669 128.317L137.44 126.815ZM154.773 141.451C154.751 141.424 154.723 141.401 154.692 141.385C154.66 141.368 154.626 141.358 154.591 141.354C154.555 141.351 154.52 141.354 154.486 141.365C154.452 141.375 154.421 141.392 154.393 141.415L134.732 157.622C134.705 157.644 134.682 157.672 134.665 157.703C134.649 157.734 134.638 157.769 134.635 157.804C134.632 157.839 134.635 157.875 134.645 157.909C134.656 157.943 134.673 157.974 134.695 158.002L143.269 168.403C143.292 168.431 143.32 168.453 143.351 168.47C143.382 168.487 143.417 168.497 143.452 168.5C143.487 168.504 143.523 168.5 143.557 168.49C143.591 168.479 143.622 168.462 143.65 168.44L163.311 152.233C163.338 152.21 163.361 152.183 163.377 152.151C163.394 152.12 163.404 152.086 163.408 152.051C163.411 152.015 163.408 151.98 163.397 151.946C163.387 151.912 163.37 151.88 163.347 151.853L154.773 141.451Z" fill="#FBFBFB"/>
<path d="M129.444 48.8034L130.168 48.2042C130.394 48.0172 130.424 47.8069 130.256 47.5733C127.034 42.9715 122.81 39.1843 120.107 34.2694C119.889 33.8794 119.939 33.5266 120.257 33.2111L121.403 32.0552C121.58 31.8786 121.791 31.7409 122.024 31.6508C122.257 31.5607 122.507 31.5202 122.757 31.5318C123.007 31.5434 123.252 31.6069 123.477 31.7183C123.702 31.8297 123.901 31.9865 124.062 32.1788L134.069 44.212C134.243 44.4226 134.446 44.4536 134.678 44.3051L138.569 41.7609C139.018 41.4672 139.403 41.5343 139.722 41.9622L141.25 44.0599C141.518 44.4262 141.49 44.7692 141.166 45.089C131.332 54.6001 121.829 61.6565 116.043 66.3653C115.201 67.0529 114.141 67.6226 112.863 68.0747C112.481 68.209 112.155 68.1238 111.885 67.819L110.508 66.2327C110.137 65.8046 110.145 65.391 110.533 64.9921L113.725 61.6644C113.877 61.5036 113.886 61.3364 113.751 61.1626L110.228 56.6532C109.994 56.3526 109.863 55.9848 109.853 55.6033C109.843 55.2217 109.955 54.8462 110.173 54.5314C112.686 50.9336 115.637 55.4103 117.332 57.9144C117.635 58.3645 117.975 58.399 118.352 58.0179L119.106 57.2512C119.405 56.9432 119.414 56.6292 119.132 56.3089C117.158 54.0483 109.466 47.0566 112.858 44.0817C113.037 43.9233 113.246 43.8024 113.473 43.7259C113.699 43.6494 113.939 43.6189 114.178 43.6362C114.417 43.6535 114.651 43.7183 114.865 43.8267C115.079 43.9351 115.27 44.085 115.426 44.2677L123.044 53.163C123.266 53.4207 123.539 53.4939 123.862 53.3824L124.559 53.1429C125.059 52.9629 125.139 52.6674 124.799 52.2564C123.188 50.2929 120.363 47.5683 121.498 44.7991C121.587 44.584 121.721 44.3903 121.891 44.2311C122.06 44.0718 122.262 43.9507 122.482 43.876C122.701 43.8012 122.934 43.7744 123.165 43.7975C123.395 43.8206 123.618 43.893 123.817 44.0098C125.778 45.1564 127.353 46.7046 128.542 48.6542C128.586 48.7279 128.646 48.7911 128.717 48.8394C128.789 48.8877 128.87 48.92 128.955 48.9342C129.041 48.9483 129.129 48.944 129.213 48.9214C129.297 48.8989 129.376 48.8586 129.444 48.8034Z" fill="#FBFBFB"/>
<path d="M46.1707 123.842C44.6993 125.055 42.7279 125.538 40.6902 125.186C38.6526 124.834 36.7155 123.675 35.3052 121.964C34.6069 121.117 34.0589 120.16 33.6926 119.148C33.3262 118.135 33.1487 117.087 33.1701 116.063C33.1915 115.04 33.4115 114.06 33.8174 113.181C34.2233 112.302 34.8072 111.541 35.5358 110.94C37.0072 109.727 38.9786 109.244 41.0162 109.596C43.0539 109.948 44.991 111.107 46.4013 112.818C47.0996 113.665 47.6476 114.622 48.0139 115.634C48.3802 116.647 48.5578 117.695 48.5363 118.719C48.5149 119.742 48.295 120.722 47.8891 121.601C47.4832 122.48 46.8993 123.241 46.1707 123.842ZM41.3685 115.035C41.2431 114.88 41.0884 114.751 40.9131 114.655C40.7379 114.56 40.5455 114.5 40.347 114.478C40.1485 114.457 39.9478 114.475 39.7563 114.532C39.5648 114.588 39.3863 114.681 39.2309 114.807L38.6551 115.271C38.4998 115.397 38.3706 115.552 38.275 115.727C38.1795 115.902 38.1194 116.094 38.0981 116.293C38.0769 116.491 38.095 116.692 38.1514 116.884C38.2077 117.075 38.3012 117.254 38.4266 117.409L40.3481 119.79C40.4734 119.946 40.6282 120.075 40.8034 120.171C40.9787 120.266 41.1711 120.326 41.3696 120.347C41.5681 120.369 41.7688 120.351 41.9603 120.294C42.1518 120.238 42.3303 120.144 42.4856 120.019L43.0615 119.554C43.2168 119.429 43.346 119.274 43.4415 119.099C43.5371 118.924 43.5972 118.731 43.6184 118.533C43.6396 118.334 43.6215 118.134 43.5652 117.942C43.5088 117.751 43.4153 117.572 43.29 117.417L41.3685 115.035Z" fill="#FBFBFB"/>
<path d="M46.5362 108.368C44.4907 108.217 41.7241 107.43 43.4536 104.689C45.8527 100.874 47.9456 101.725 50.4227 104.673C52.5926 107.264 58.2634 112.943 56.5958 114.881C53.7016 118.222 49.3793 110.675 47.4285 108.772C47.1818 108.526 46.8844 108.392 46.5362 108.368Z" fill="#FBFBFB"/>
<path d="M65.0513 92.4545C63.6586 92.8106 62.5848 92.4486 61.8299 91.3687C61.6082 91.0589 61.5663 90.7258 61.7042 90.3695C65.5006 80.4155 72.9675 93.6149 75.1718 96.5934C76.2208 98.0184 75.9879 99.1801 74.4729 100.079C74.0815 100.312 73.6209 100.4 73.1709 100.329C72.721 100.258 72.3101 100.032 72.0096 99.6894L65.9273 92.7291C65.6927 92.456 65.4007 92.3644 65.0513 92.4545Z" fill="#FBFBFB"/>
<path d="M72.1349 86.5688C69.4816 87.7385 68.1159 85.1305 69.6486 82.9671C74.2442 76.505 80.0261 86.8674 83.0095 91.4465C83.1793 91.7041 83.2291 91.9787 83.1589 92.2703C82.887 93.3432 82.1897 94.0325 81.067 94.3383C80.7218 94.4335 80.3951 94.3837 80.0868 94.1888C77.1894 92.3807 75.4559 89.1556 73.0767 86.7501C72.8045 86.4734 72.4906 86.413 72.1349 86.5688Z" fill="#FBFBFB"/>
<path d="M103.375 76.5325C101.912 77.7599 99.9433 78.2623 97.9012 77.9292C95.859 77.5961 93.9111 76.4548 92.486 74.7563C91.0608 73.0578 90.2751 70.9412 90.3017 68.8723C90.3284 66.8034 91.1651 64.9515 92.6279 63.7241C94.0907 62.4967 96.0598 61.9942 98.1019 62.3273C100.144 62.6604 102.092 63.8018 103.517 65.5003C104.942 67.1988 105.728 69.3153 105.701 71.3843C105.675 73.4532 104.838 75.3051 103.375 76.5325ZM100.172 72.7064C100.602 72.3442 100.789 71.7293 100.692 70.997C100.595 70.2647 100.222 69.4749 99.655 68.8013C99.3742 68.4678 99.0542 68.1729 98.7133 67.9334C98.3723 67.6939 98.0171 67.5145 97.668 67.4055C97.3188 67.2965 96.9825 67.2599 96.6783 67.298C96.3741 67.336 96.1079 67.4479 95.8949 67.6272C95.4649 67.9894 95.2777 68.6043 95.3746 69.3366C95.4715 70.069 95.8446 70.8588 96.4118 71.5323C96.6926 71.8658 97.0126 72.1607 97.3536 72.4002C97.6945 72.6397 98.0497 72.8191 98.3989 72.9281C98.748 73.0372 99.0843 73.0737 99.3885 73.0356C99.6927 72.9976 99.9589 72.8857 100.172 72.7064Z" fill="#FBFBFB"/>
<path d="M65.2235 108.068C64.4949 108.666 63.636 109.092 62.6959 109.319C61.7558 109.547 60.7528 109.573 59.7442 109.396C58.7357 109.218 57.7414 108.841 56.818 108.285C55.8946 107.73 55.0603 107.007 54.3626 106.157C52.9536 104.442 52.1869 102.317 52.2311 100.249C52.2754 98.1813 53.1269 96.3407 54.5984 95.1321C55.327 94.5336 56.1859 94.1083 57.126 93.8804C58.0662 93.6525 59.0692 93.6265 60.0777 93.8039C61.0862 93.9813 62.0806 94.3587 63.0039 94.9144C63.9273 95.4701 64.7616 96.1933 65.4593 97.0426C66.8683 98.758 67.635 100.883 67.5908 102.951C67.5466 105.018 66.695 106.859 65.2235 108.068ZM62.0001 104.154C62.4344 103.801 62.6336 103.196 62.5539 102.47C62.4742 101.745 62.1222 100.959 61.5753 100.286C61.3044 99.9527 60.9939 99.6571 60.6614 99.4161C60.3289 99.1751 59.9809 98.9933 59.6374 98.8813C59.2938 98.7692 58.9614 98.7289 58.6591 98.7628C58.3568 98.7968 58.0905 98.9042 57.8755 99.0789C57.4412 99.4319 57.242 100.038 57.3217 100.763C57.4014 101.489 57.7534 102.274 58.3004 102.947C58.5712 103.281 58.8817 103.576 59.2142 103.817C59.5467 104.058 59.8946 104.24 60.2382 104.352C60.5818 104.464 60.9142 104.504 61.2165 104.47C61.5188 104.436 61.7851 104.329 62.0001 104.154Z" fill="#FBFBFB"/>
<path d="M91.2576 86.5184C89.784 87.7244 87.8142 88.2012 85.7816 87.8436C83.749 87.4861 81.82 86.3236 80.4191 84.612C79.7254 83.7644 79.1822 82.8075 78.8206 81.796C78.4589 80.7844 78.2859 79.7379 78.3113 78.7164C78.3368 77.6948 78.5602 76.718 78.9689 75.842C79.3775 74.9659 79.9634 74.2076 80.6931 73.6104C82.1667 72.4044 84.1364 71.9276 86.1691 72.2852C88.2017 72.6427 90.1307 73.8051 91.5316 75.5168C92.2253 76.3644 92.7685 77.3212 93.1301 78.3328C93.4918 79.3443 93.6648 80.3908 93.6393 81.4124C93.6139 82.434 93.3905 83.4107 92.9818 84.2868C92.5731 85.1629 91.9872 85.9212 91.2576 86.5184ZM88.1184 82.5743C88.3394 82.3903 88.504 82.143 88.6029 81.8467C88.7019 81.5504 88.7332 81.2108 88.6951 80.8473C88.657 80.4839 88.5502 80.1036 88.3808 79.7284C88.2114 79.3531 87.9828 78.9901 87.7079 78.6602C87.433 78.3303 87.1173 78.0399 86.7788 77.8055C86.4403 77.5711 86.0856 77.3974 85.735 77.2943C85.3844 77.1911 85.0447 77.1606 84.7354 77.2045C84.426 77.2483 84.1531 77.3656 83.9322 77.5497C83.7112 77.7337 83.5465 77.981 83.4476 78.2773C83.3486 78.5737 83.3173 78.9133 83.3554 79.2767C83.3936 79.6402 83.5004 80.0204 83.6698 80.3956C83.8392 80.7709 84.0678 81.1339 84.3427 81.4638C84.6176 81.7937 84.9332 82.0842 85.2717 82.3185C85.6102 82.5529 85.9649 82.7266 86.3156 82.8297C86.6662 82.9329 87.0058 82.9634 87.3152 82.9196C87.6245 82.8758 87.8975 82.7584 88.1184 82.5743Z" fill="#FBFBFB"/>
<path d="M59.6232 140.188C58.8915 140.785 58.0306 141.209 57.0897 141.435C56.1487 141.662 55.1463 141.686 54.1394 141.508C53.1325 141.33 52.141 140.952 51.2215 140.397C50.302 139.841 49.4724 139.118 48.7802 138.269C47.3823 136.555 46.6286 134.432 46.685 132.368C46.7415 130.304 47.6034 128.467 49.0811 127.262C49.8128 126.665 50.6737 126.241 51.6147 126.015C52.5556 125.788 53.5581 125.763 54.5649 125.942C55.5718 126.12 56.5633 126.498 57.4828 127.053C58.4023 127.609 59.2319 128.332 59.9241 129.181C61.322 130.895 62.0757 133.018 62.0193 135.082C61.9628 137.146 61.1009 138.983 59.6232 140.188ZM54.8781 131.34C54.7405 131.181 54.573 131.051 54.3851 130.957C54.1972 130.863 53.9927 130.807 53.7831 130.792C53.5735 130.777 53.363 130.803 53.1637 130.87C52.9643 130.936 52.7799 131.041 52.6211 131.178L52.1979 131.545C51.8771 131.823 51.6799 132.217 51.6495 132.64C51.6192 133.063 51.7582 133.481 52.036 133.802L54.0133 136.085C54.1508 136.244 54.3183 136.374 54.5062 136.468C54.6941 136.562 54.8986 136.618 55.1082 136.633C55.3178 136.648 55.5283 136.622 55.7277 136.555C55.9271 136.489 56.1114 136.384 56.2702 136.247L56.6935 135.88C57.0142 135.602 57.2115 135.208 57.2418 134.785C57.2722 134.362 57.1332 133.944 56.8554 133.623L54.8781 131.34Z" fill="#FBFBFB"/>
<path d="M71.6486 130.175C70.1814 131.389 68.2154 131.878 66.1834 131.534C64.1513 131.19 62.2195 130.041 60.813 128.341C59.4065 126.641 58.6405 124.528 58.6834 122.468C58.7264 120.407 59.5749 118.568 61.0421 117.354C61.7686 116.753 62.6252 116.324 63.563 116.09C64.5007 115.857 65.5012 115.825 66.5074 115.995C67.5136 116.166 68.5057 116.535 69.4272 117.083C70.3486 117.631 71.1813 118.346 71.8777 119.188C73.2843 120.888 74.0503 123.001 74.0073 125.062C73.9643 127.122 73.1159 128.962 71.6486 130.175ZM68.4011 126.473C68.861 126.123 69.0914 125.51 69.0416 124.77C68.9918 124.03 68.6659 123.223 68.1356 122.527C67.6052 121.831 66.9138 121.302 66.2136 121.058C65.5134 120.813 64.8616 120.873 64.4017 121.223C63.9418 121.573 63.7115 122.186 63.7613 122.926C63.8111 123.666 64.137 124.473 64.6673 125.169C65.1977 125.865 65.889 126.394 66.5892 126.638C67.2894 126.883 67.9412 126.823 68.4011 126.473Z" fill="#FBFBFB"/>
<path d="M71.5699 114.784C70.2882 114.918 69.2543 114.51 68.4682 113.56C68.1962 113.231 68.1429 112.869 68.3082 112.472C72.3207 102.937 79.2329 115.167 81.7307 118.422C82.8318 119.847 82.6605 121.084 81.2167 122.131C80.8274 122.415 80.346 122.544 79.8656 122.493C79.3851 122.443 78.9395 122.216 78.6147 121.856L72.5775 115.17C72.308 114.865 71.9721 114.737 71.5699 114.784Z" fill="#FBFBFB"/>
<path d="M78.7168 108.754C77.2296 109.059 76.1505 108.528 75.4794 107.163C75.3523 106.905 75.3442 106.639 75.4553 106.365C76.4862 103.825 78.2129 102.691 80.6352 102.963C81.0056 103.002 81.3118 103.169 81.554 103.461C83.9139 106.398 86.2756 109.263 88.6394 112.058C90.3516 114.081 89.5694 115.818 87.0958 116.514C86.7164 116.621 86.3937 116.528 86.1275 116.238L79.6875 109.081C79.4213 108.79 79.0978 108.682 78.7168 108.754Z" fill="#FBFBFB"/>
<path d="M97.8039 108.603C97.0806 109.208 96.2259 109.641 95.2888 109.879C94.3516 110.116 93.3504 110.152 92.3421 109.986C91.3339 109.819 90.3384 109.453 89.4125 108.908C88.4866 108.364 87.6485 107.651 86.946 106.811C85.5272 105.114 84.7468 103.001 84.7766 100.937C84.8064 98.8738 85.6438 97.0282 87.1047 95.8068C87.8281 95.202 88.6827 94.7686 89.6199 94.5313C90.557 94.2941 91.5583 94.2577 92.5666 94.4242C93.5748 94.5906 94.5703 94.9567 95.4962 95.5015C96.422 96.0464 97.2601 96.7593 97.9627 97.5995C99.3815 99.2964 100.162 101.409 100.132 103.473C100.102 105.536 99.2648 107.382 97.8039 108.603ZM94.6528 104.928C95.0945 104.572 95.2919 103.95 95.2015 103.198C95.1111 102.447 94.7403 101.629 94.1707 100.923C93.6012 100.217 92.8795 99.6816 92.1644 99.4345C91.4493 99.1873 90.7995 99.2487 90.3578 99.6051C89.9161 99.9615 89.7187 100.584 89.8091 101.335C89.8996 102.086 90.2704 102.905 90.8399 103.61C91.4095 104.316 92.1312 104.852 92.8462 105.099C93.5613 105.346 94.2111 105.285 94.6528 104.928Z" fill="#FBFBFB"/>
<path d="M98.1252 93.309C96.5897 93.2727 95.4333 92.633 94.6558 91.39C94.4708 91.0931 94.4502 90.7858 94.5939 90.4679C95.6153 88.178 97.2587 87.0478 99.524 87.0773C99.8928 87.0837 100.199 87.2287 100.442 87.5121L108.352 97.0743C108.673 97.4629 108.836 97.9567 108.81 98.4573C108.784 98.9578 108.569 99.428 108.21 99.7741C105.145 102.751 100.793 95.6706 98.9701 93.6872C98.738 93.4379 98.4563 93.3119 98.1252 93.309Z" fill="#FBFBFB"/>
<path d="M116.874 92.8274C116.155 93.4331 115.303 93.8675 114.369 94.1061C113.434 94.3446 112.434 94.3826 111.426 94.2177C110.418 94.0529 109.422 93.6885 108.494 93.1453C107.566 92.6021 106.725 91.8908 106.019 91.0521C104.592 89.3581 103.801 87.2476 103.82 85.1849C103.838 83.1222 104.665 81.2762 106.117 80.0531C106.836 79.4474 107.688 79.0129 108.623 78.7744C109.557 78.5358 110.557 78.4979 111.565 78.6628C112.573 78.8276 113.57 79.192 114.497 79.7352C115.425 80.2784 116.266 80.9896 116.972 81.8284C118.399 83.5224 119.19 85.6329 119.171 87.6956C119.153 89.7583 118.327 91.6043 116.874 92.8274ZM113.704 89.0907C113.919 88.9152 114.076 88.6738 114.166 88.3802C114.257 88.0866 114.279 87.7466 114.232 87.3796C114.185 87.0126 114.069 86.6258 113.891 86.2413C113.713 85.8568 113.477 85.4821 113.196 85.1386C112.915 84.7951 112.594 84.4895 112.253 84.2394C111.911 83.9892 111.555 83.7993 111.204 83.6805C110.854 83.5617 110.516 83.5163 110.21 83.547C109.905 83.5777 109.637 83.6839 109.423 83.8594C109.208 84.0349 109.051 84.2763 108.961 84.5699C108.87 84.8635 108.848 85.2035 108.895 85.5705C108.942 85.9375 109.058 86.3243 109.236 86.7088C109.413 87.0933 109.649 87.468 109.931 87.8115C110.212 88.155 110.532 88.4605 110.874 88.7107C111.216 88.9609 111.572 89.1508 111.923 89.2696C112.273 89.3884 112.611 89.4337 112.916 89.403C113.222 89.3723 113.49 89.2662 113.704 89.0907Z" fill="#FBFBFB"/>
<path d="M128.271 63.4284L117.839 72.028C117.021 72.7025 116.904 73.9126 117.579 74.7308L118.227 75.5179C118.902 76.3361 120.112 76.4526 120.93 75.7782L131.363 67.1786C132.181 66.5041 132.298 65.294 131.623 64.4758L130.974 63.6887C130.3 62.8705 129.09 62.754 128.271 63.4284Z" fill="#FBFBFB"/>
<path d="M143.943 50.3614L133.815 58.8895C132.978 59.5938 132.871 60.8429 133.576 61.6794L134.142 62.3525C134.847 63.189 136.096 63.2961 136.932 62.5917L147.06 54.0637C147.897 53.3594 148.004 52.1103 147.299 51.2738L146.732 50.6007C146.028 49.7642 144.779 49.6571 143.943 50.3614Z" fill="#FBFBFB"/>
<path d="M132.924 69.3281L122.724 77.7064C121.815 78.4531 121.683 79.7953 122.43 80.7043L122.798 81.1525C123.544 82.0615 124.887 82.1931 125.796 81.4465L135.996 73.0682C136.905 72.3216 137.037 70.9794 136.29 70.0703L135.922 69.6221C135.175 68.7131 133.833 68.5815 132.924 69.3281Z" fill="#FBFBFB"/>
<path d="M148.711 56.2642L138.71 64.5377C137.714 65.3615 137.575 66.8365 138.398 67.8323L138.513 67.971C139.337 68.9668 140.812 69.1062 141.808 68.2825L151.809 60.0089C152.805 59.1852 152.944 57.7101 152.121 56.7143L152.006 56.5756C151.182 55.5799 149.707 55.4404 148.711 56.2642Z" fill="#FBFBFB"/>
<path d="M137.677 75.1274L127.584 83.4471C126.659 84.2094 126.528 85.5771 127.29 86.5018L127.646 86.934C128.408 87.8587 129.776 87.9904 130.701 87.2281L140.794 78.9084C141.719 78.1461 141.85 76.7785 141.088 75.8537L140.732 75.4216C139.97 74.4968 138.602 74.3651 137.677 75.1274Z" fill="#FBFBFB"/>
<path d="M153.514 62.0209L143.465 70.3934C142.498 71.1994 142.367 72.6371 143.173 73.6045L143.262 73.7121C144.068 74.6795 145.506 74.8104 146.474 74.0044L156.523 65.6319C157.49 64.8259 157.621 63.3882 156.815 62.4208L156.726 62.3132C155.92 61.3458 154.482 61.2149 153.514 62.0209Z" fill="#FBFBFB"/>
<path d="M73.1488 156.539C71.667 157.747 69.6891 158.224 67.6504 157.863C65.6117 157.503 63.6791 156.335 62.2778 154.617C61.5839 153.766 61.0414 152.806 60.6812 151.791C60.3209 150.776 60.15 149.726 60.1782 148.701C60.2064 147.676 60.4332 146.697 60.8456 145.818C61.2579 144.94 61.8478 144.18 62.5816 143.581C64.0634 142.373 66.0413 141.896 68.08 142.257C70.1187 142.617 72.0513 143.785 73.4526 145.503C74.1465 146.354 74.689 147.314 75.0492 148.329C75.4095 149.344 75.5804 150.394 75.5522 151.419C75.524 152.444 75.2972 153.423 74.8848 154.302C74.4725 155.18 73.8826 155.94 73.1488 156.539ZM69.9616 152.57C70.1678 152.398 70.3178 152.164 70.4033 151.879C70.4887 151.595 70.5079 151.266 70.4597 150.911C70.4115 150.557 70.2969 150.183 70.1223 149.812C69.9478 149.442 69.7168 149.081 69.4425 148.75C68.8885 148.083 68.1919 147.581 67.5058 147.353C66.8197 147.126 66.2005 147.192 65.7842 147.538C65.578 147.709 65.4279 147.943 65.3425 148.228C65.257 148.512 65.2379 148.841 65.2861 149.196C65.3343 149.551 65.4489 149.924 65.6235 150.295C65.798 150.665 66.029 151.026 66.3033 151.357C66.8573 152.024 67.5539 152.527 68.24 152.754C68.9261 152.981 69.5454 152.915 69.9616 152.57Z" fill="#FBFBFB"/>
<path d="M73.9134 141.228L71.2763 140.723C70.9844 140.667 70.7108 140.54 70.4789 140.354C70.2471 140.167 70.0641 139.928 69.9458 139.655C69.8275 139.382 69.7774 139.084 69.8 138.788C69.8225 138.492 69.9169 138.205 70.0751 137.953C72.3801 134.307 74.6491 133.897 77.3974 137.282C79.5866 139.97 81.7805 142.633 83.9792 145.269C84.1194 145.438 84.2208 145.636 84.2764 145.849C84.3319 146.061 84.3403 146.284 84.3009 146.5C84.2615 146.717 84.1752 146.923 84.0481 147.103C83.9211 147.284 83.7562 147.435 83.5651 147.546L81.5765 148.672C81.2258 148.875 80.9135 148.822 80.6398 148.512L74.7886 141.737C74.554 141.464 74.2622 141.294 73.9134 141.228Z" fill="#FBFBFB"/>
<path d="M92.2145 140.78C90.7367 141.98 88.7639 142.449 86.7302 142.081C84.6965 141.714 82.7684 140.54 81.3701 138.82C79.9718 137.099 79.2178 134.972 79.2741 132.906C79.3303 130.84 80.1921 129.005 81.6699 127.804C83.1477 126.603 85.1205 126.135 87.1542 126.502C89.1879 126.87 91.116 128.043 92.5143 129.764C93.9126 131.484 94.6666 133.612 94.6103 135.677C94.5541 137.743 93.6923 139.579 92.2145 140.78ZM88.9544 136.908C89.1751 136.736 89.3415 136.499 89.4442 136.21C89.5469 135.922 89.5838 135.587 89.5528 135.225C89.5218 134.863 89.4235 134.481 89.2635 134.101C89.1035 133.722 88.8849 133.351 88.6203 133.011C88.3558 132.671 88.0503 132.369 87.7214 132.12C87.3924 131.872 87.0465 131.683 86.7033 131.564C86.3601 131.446 86.0265 131.399 85.7213 131.428C85.4161 131.456 85.1454 131.56 84.9247 131.732C84.704 131.903 84.5375 132.14 84.4348 132.429C84.3321 132.718 84.2953 133.053 84.3263 133.415C84.3573 133.777 84.4556 134.158 84.6156 134.538C84.7756 134.918 84.9941 135.288 85.2587 135.628C85.5233 135.968 85.8288 136.271 86.1577 136.519C86.4867 136.767 86.8325 136.956 87.1757 137.075C87.5189 137.194 87.8526 137.24 88.1578 137.212C88.463 137.183 88.7337 137.08 88.9544 136.908Z" fill="#FBFBFB"/>
<path d="M91.9264 125.224L90.183 125.109C88.1835 124.972 87.7429 124.073 88.8611 122.413C89.6978 121.176 90.814 120.187 92.2097 119.448C92.6362 119.225 93.1255 119.153 93.5971 119.244C94.0687 119.335 94.4945 119.584 94.8045 119.949C97.3612 122.956 99.8445 125.989 102.254 129.049C104.149 131.465 101.033 134.757 98.6429 131.712C96.9147 129.507 94.9972 127.477 92.8904 125.621C92.6147 125.381 92.2934 125.249 91.9264 125.224Z" fill="#FBFBFB"/>
<path d="M99.0414 119.156C98.6023 119.494 98.0852 119.58 97.49 119.415C97.2171 119.346 96.976 119.217 96.7667 119.027C94.0023 116.563 99.7147 111.059 102.785 114.567C104.222 116.194 114.647 126.506 107.367 127.103C106.986 127.133 106.669 127.002 106.417 126.708L100.033 119.257C99.7342 118.917 99.4035 118.883 99.0414 119.156Z" fill="#FBFBFB"/>
<path d="M118.308 119.195C117.581 119.792 116.724 120.215 115.786 120.442C114.848 120.668 113.846 120.692 112.839 120.514C111.832 120.335 110.839 119.957 109.916 119.401C108.994 118.844 108.16 118.121 107.462 117.271C106.053 115.556 105.285 113.432 105.326 111.367C105.368 109.302 106.215 107.464 107.683 106.259C108.409 105.662 109.266 105.239 110.204 105.012C111.143 104.786 112.144 104.761 113.151 104.94C114.158 105.119 115.151 105.497 116.074 106.053C116.996 106.609 117.83 107.333 118.528 108.182C119.937 109.898 120.705 112.022 120.664 114.087C120.623 116.152 119.775 117.989 118.308 119.195ZM113.679 110.277C113.56 110.123 113.412 109.994 113.243 109.897C113.075 109.801 112.889 109.738 112.696 109.714C112.503 109.689 112.307 109.702 112.12 109.753C111.932 109.804 111.757 109.892 111.603 110.011L110.748 110.671C110.594 110.79 110.466 110.938 110.369 111.107C110.272 111.275 110.21 111.461 110.185 111.654C110.161 111.847 110.174 112.043 110.225 112.23C110.276 112.418 110.363 112.593 110.482 112.747L112.317 115.121C112.436 115.275 112.584 115.403 112.752 115.5C112.921 115.597 113.107 115.659 113.3 115.684C113.493 115.709 113.688 115.695 113.876 115.644C114.063 115.593 114.239 115.506 114.393 115.387L115.247 114.726C115.401 114.608 115.53 114.46 115.627 114.291C115.723 114.122 115.786 113.936 115.81 113.743C115.835 113.551 115.822 113.355 115.771 113.167C115.72 112.98 115.632 112.804 115.513 112.65L113.679 110.277Z" fill="#FBFBFB"/>
<path d="M130.429 109.153C128.977 110.393 127.012 110.913 124.967 110.598C122.922 110.282 120.965 109.158 119.525 107.472C118.812 106.637 118.247 105.69 117.864 104.683C117.48 103.677 117.285 102.632 117.289 101.607C117.293 100.583 117.497 99.5992 117.888 98.7124C118.28 97.8256 118.851 97.0531 119.57 96.4391C121.022 95.1989 122.987 94.6794 125.032 94.9947C127.077 95.31 129.035 96.4343 130.475 98.1203C131.188 98.9551 131.752 99.9027 132.136 100.909C132.519 101.915 132.714 102.96 132.71 103.985C132.706 105.009 132.502 105.993 132.111 106.88C131.719 107.767 131.148 108.539 130.429 109.153ZM127.151 105.338C127.366 105.159 127.523 104.916 127.616 104.623C127.708 104.331 127.733 103.994 127.688 103.633C127.644 103.272 127.532 102.893 127.358 102.518C127.184 102.143 126.952 101.779 126.675 101.448C126.398 101.116 126.081 100.824 125.743 100.586C125.404 100.348 125.052 100.171 124.704 100.063C124.356 99.9559 124.021 99.9206 123.716 99.9595C123.412 99.9984 123.145 100.111 122.93 100.29C122.716 100.47 122.558 100.713 122.465 101.005C122.373 101.298 122.349 101.634 122.393 101.996C122.437 102.357 122.549 102.736 122.723 103.111C122.897 103.486 123.129 103.849 123.406 104.181C123.684 104.512 124 104.805 124.338 105.042C124.677 105.28 125.03 105.458 125.377 105.565C125.725 105.673 126.061 105.708 126.365 105.669C126.669 105.63 126.936 105.518 127.151 105.338Z" fill="#FBFBFB"/>
<path d="M134.462 91.1802L134.245 91.3568C133.268 92.1509 133.119 93.5869 133.913 94.5641L137.609 99.1118C138.403 100.089 139.839 100.237 140.816 99.4433L141.034 99.2667C142.011 98.4726 142.159 97.0366 141.365 96.0594L137.67 91.5117C136.875 90.5345 135.44 90.386 134.462 91.1802Z" fill="#FBFBFB"/>
<path d="M139.564 86.9966L139.334 87.189C138.33 88.0286 138.196 89.5233 139.036 90.5274L142.641 94.839C143.48 95.8431 144.975 95.9766 145.979 95.137L146.209 94.9445C147.213 94.105 147.347 92.6103 146.507 91.6061L142.902 87.2946C142.063 86.2904 140.568 86.157 139.564 86.9966Z" fill="#FBFBFB"/>
<path d="M145.994 88.4517C147.924 90.7685 150.411 91.8786 151.548 90.9312C152.685 89.9837 152.042 87.3376 150.112 85.0208C148.182 82.704 145.695 81.594 144.558 82.5414C143.421 83.4888 144.064 86.135 145.994 88.4517Z" fill="#FBFBFB"/>
<path d="M155.276 73.9363L155.059 74.1125C154.063 74.9188 153.91 76.3797 154.716 77.3755L158.366 81.883C159.172 82.8788 160.633 83.0324 161.629 82.226L161.846 82.0498C162.842 81.2435 162.996 79.7826 162.189 78.7868L158.539 74.2793C157.733 73.2836 156.272 73.13 155.276 73.9363Z" fill="#FBFBFB"/>
<path d="M150.306 78.2831L149.825 78.6741C148.908 79.4194 148.769 80.7672 149.514 81.6844L153.248 86.2787C153.993 87.1959 155.341 87.3352 156.258 86.5899L156.739 86.1988C157.656 85.4535 157.796 84.1057 157.05 83.1885L153.317 78.5942C152.571 77.677 151.224 77.5377 150.306 78.2831Z" fill="#FBFBFB"/>
<path d="M160.716 69.6746L160.109 70.1644C159.271 70.8407 159.14 72.0684 159.816 72.9065L163.797 77.8406C164.473 78.6788 165.701 78.81 166.539 78.1337L167.146 77.6439C167.984 76.9677 168.116 75.74 167.439 74.9018L163.458 69.9677C162.782 69.1296 161.554 68.9983 160.716 69.6746Z" fill="#FBFBFB"/>
<path d="M180.243 104.454C181.243 103.626 181.383 102.145 180.556 101.145C179.729 100.145 178.247 100.005 177.247 100.832C176.247 101.659 176.107 103.141 176.934 104.141C177.762 105.141 179.243 105.281 180.243 104.454Z" fill="#FBFBFB"/>
<path d="M192.208 94.4265C193.191 93.6133 193.328 92.1572 192.515 91.1742C191.702 90.1912 190.246 90.0535 189.263 90.8667C188.28 91.6799 188.142 93.136 188.955 94.119C189.769 95.1021 191.225 95.2397 192.208 94.4265Z" fill="#FBFBFB"/>
<path d="M186.233 99.4727C187.216 98.6595 187.354 97.2034 186.541 96.2203C185.727 95.2373 184.271 95.0996 183.288 95.9128C182.305 96.726 182.168 98.1821 182.981 99.1652C183.794 100.148 185.25 100.286 186.233 99.4727Z" fill="#FBFBFB"/>
</svg>
