<svg width="188" height="204" viewBox="0 0 188 204" fill="none" xmlns="http://www.w3.org/2000/svg">
<path d="M115.901 27.4622C115.54 27.9791 115.081 28.4198 114.55 28.7593C114.018 29.0987 113.426 29.3302 112.805 29.4406C112.184 29.551 111.548 29.538 110.933 29.4025C110.317 29.2669 109.734 29.0114 109.217 28.6506L103.625 24.7469C103.108 24.3861 102.667 23.927 102.328 23.3959C101.988 22.8647 101.757 22.2719 101.647 21.6513C101.536 21.0307 101.549 20.3944 101.685 19.7788C101.82 19.1632 102.076 18.5803 102.437 18.0635L106.34 12.4713C106.701 11.9544 107.16 11.5136 107.691 11.1742C108.222 10.8347 108.815 10.6032 109.436 10.4929C110.056 10.3825 110.693 10.3955 111.308 10.531C111.924 10.6666 112.507 10.9221 113.024 11.2829L118.616 15.1866C119.133 15.5474 119.574 16.0065 119.913 16.5376C120.252 17.0688 120.484 17.6616 120.594 18.2822C120.705 18.9028 120.692 19.539 120.556 20.1547C120.421 20.7703 120.165 21.3531 119.804 21.87L115.901 27.4622ZM115.197 20.0245C115.266 19.9253 115.315 19.8135 115.341 19.6955C115.367 19.5775 115.369 19.4555 115.348 19.3366C115.326 19.2176 115.282 19.1041 115.216 19.0024C115.151 18.9007 115.066 18.8129 114.967 18.7439L111.027 16.0033C110.826 15.864 110.579 15.81 110.339 15.8531C110.099 15.8962 109.885 16.033 109.746 16.2333L107.142 19.977C107.073 20.0761 107.025 20.188 106.999 20.306C106.973 20.424 106.971 20.546 106.992 20.6649C107.014 20.7838 107.058 20.8974 107.123 20.999C107.189 21.1007 107.273 21.1886 107.372 21.2576L111.313 23.9982C111.513 24.1375 111.761 24.1915 112.001 24.1484C112.241 24.1052 112.454 23.9685 112.594 23.7682L115.197 20.0245Z" fill="#FBFBFB"/>
<path d="M163.636 66.1657C163.28 66.6925 162.825 67.1442 162.294 67.4948C161.764 67.8455 161.17 68.0883 160.546 68.2094C159.922 68.3305 159.281 68.3275 158.658 68.2006C158.035 68.0736 157.443 67.8253 156.917 67.4697L151.181 63.5984C150.654 63.2428 150.202 62.7869 149.852 62.2568C149.501 61.7267 149.258 61.1327 149.137 60.5087C149.016 59.8848 149.019 59.243 149.146 58.6202C149.273 57.9974 149.521 57.4057 149.877 56.8789L153.636 51.309C153.992 50.7821 154.448 50.3305 154.978 49.9799C155.508 49.6292 156.102 49.3864 156.726 49.2653C157.35 49.1442 157.992 49.1472 158.614 49.2741C159.237 49.401 159.829 49.6494 160.356 50.005L166.092 53.8763C166.618 54.2319 167.07 54.6877 167.421 55.2179C167.771 55.748 168.014 56.342 168.135 56.966C168.256 57.5899 168.253 58.2316 168.126 58.8545C167.999 59.4773 167.751 60.069 167.396 60.5958L163.636 66.1657ZM162.698 58.6337C162.764 58.5359 162.811 58.4261 162.835 58.3103C162.859 58.1946 162.86 58.0753 162.838 57.9592C162.815 57.8431 162.771 57.7324 162.706 57.6336C162.641 57.5348 162.557 57.4498 162.46 57.3833L158.606 54.7628C158.508 54.6964 158.399 54.6498 158.283 54.6258C158.167 54.6018 158.048 54.6008 157.932 54.6229C157.816 54.645 157.705 54.6898 157.606 54.7547C157.507 54.8195 157.422 54.9032 157.356 55.0009L154.724 58.8709C154.658 58.9687 154.611 59.0785 154.587 59.1943C154.563 59.31 154.562 59.4293 154.584 59.5454C154.606 59.6615 154.651 59.7721 154.716 59.8709C154.781 59.9697 154.864 60.0548 154.962 60.1213L158.816 62.7417C158.913 62.8082 159.023 62.8548 159.139 62.8788C159.255 62.9028 159.374 62.9038 159.49 62.8817C159.606 62.8595 159.717 62.8148 159.816 62.7499C159.914 62.6851 159.999 62.6014 160.066 62.5036L162.698 58.6337Z" fill="#FBFBFB"/>
<path d="M113.501 52.9647C112.533 55.0902 110.982 56.5444 108.85 57.3272C108.545 57.4412 108.24 57.4377 107.935 57.3168C104.761 56.0967 101.807 54.1383 99.0742 51.4415C95.363 47.7848 101.542 40.9174 103.996 38.7088C106.138 36.7592 108.972 38.6725 111.179 40.3354C111.435 40.5277 111.671 40.508 111.887 40.2763C114.34 37.7154 116.19 34.2305 120.443 36.658C123.208 38.2272 125.673 40.1536 127.841 42.4372C128.072 42.6773 128.201 42.9602 128.228 43.2861C128.608 47.1638 123.446 54.9862 119.256 55.2724C118.953 55.2902 118.675 55.2242 118.422 55.0745L114.329 52.6965C113.953 52.4784 113.677 52.5678 113.501 52.9647ZM117.49 41.4473C115.077 46.2083 110.984 47.2892 107.086 43.3219C106.767 42.9973 106.482 43.0237 106.23 43.401L103.202 47.9452C102.938 48.3297 103.004 48.6505 103.402 48.9078L107.772 51.6587C108.001 51.8081 108.208 51.7843 108.392 51.5872C111.703 47.9903 114.392 45.0695 118.888 49.7028C119.232 50.061 119.546 50.0341 119.829 49.6221L122.815 45.2799C123.099 44.8679 123.034 44.5203 122.622 44.2369L118.272 41.245C117.931 41.0108 117.671 41.0782 117.49 41.4473Z" fill="#FBFBFB"/>
<path d="M124.104 92.7832C125.505 90.0934 128.189 85.5194 130.754 83.6786C134.471 80.9918 142.772 86.834 137.388 89.4912C137.059 89.6528 136.726 89.6545 136.39 89.4962L133.734 88.2401C133.376 88.0667 133.083 88.1447 132.857 88.4743L128.114 95.3708C127.902 95.6784 127.939 95.9545 128.224 96.199C131.594 99.0991 137.043 100.529 134.045 106.283C132.073 110.049 128.93 115.448 124.297 115.162C114.913 114.583 105.531 113.948 96.1509 113.258C95.8148 113.229 95.5413 113.344 95.3304 113.604C92.9134 116.553 89.7255 122.565 86.6433 124.135C86.3322 124.293 86.1724 124.543 86.1637 124.885C86.0642 126.913 86.8483 128.508 88.5161 129.671C93.4866 133.138 104.039 140.412 120.174 151.492C124.292 154.311 121.924 157.489 119.618 161.001C117.588 164.095 109.764 177.041 107.025 178.13C103.856 179.385 103.766 175.404 104.976 173.626C108.993 167.739 113.025 161.859 117.072 155.985C117.269 155.699 117.225 155.451 116.942 155.24C105.393 146.849 94.7272 140.581 85.0443 133.06C81.5745 130.358 80.8484 126.473 80.6801 122.376C80.6728 122.203 80.6244 122.034 80.5391 121.882C80.4537 121.731 80.3338 121.602 80.1891 121.506C80.0444 121.41 79.879 121.35 79.7064 121.33C79.5339 121.31 79.3592 121.332 79.1965 121.392C75.0019 122.974 71.0345 123.413 67.0564 120.762C56.4771 113.721 45.9862 106.587 35.5834 99.36C35.2978 99.1635 35.0567 99.2082 34.8603 99.4938L7.82501 138.805C7.70779 138.975 7.66307 139.185 7.70071 139.388C7.73835 139.592 7.85525 139.772 8.0257 139.889L88.5423 195.263C89.229 195.735 89.8084 195.628 90.2806 194.942L94.9128 188.224C95.1872 187.823 95.5936 187.532 96.0609 187.401C96.5282 187.27 97.0268 187.307 97.4695 187.506C99.4125 188.369 99.6137 189.612 98.6004 191.403C95.8932 196.204 91.9978 203.756 86.2549 199.807C59.3518 181.313 32.4676 162.791 5.60233 144.242C1.33169 141.293 1.64776 138.998 4.42181 134.947C13.1322 122.223 21.8708 109.534 30.6375 96.8809C33.5666 92.6571 36.002 93.616 39.7922 96.2226C49.8245 103.106 59.8513 109.986 69.8726 116.861C71.4584 117.944 73.1248 118.05 74.872 117.18C75.1625 117.04 75.3378 116.809 75.3979 116.486C76.1835 112.22 79.524 108.899 82.2713 104.586C82.4529 104.298 82.4702 104.003 82.3229 103.699C78.0238 94.8442 73.8259 85.9657 69.7291 77.0637C68.4275 74.2267 73.4526 67.9612 75.2046 65.7314C78.6209 61.3815 82.2889 64.7658 85.5059 66.9176C85.7734 67.0935 85.9977 67.0495 86.1791 66.7859L92.2537 57.9531C92.4501 57.6675 92.4055 57.4264 92.1199 57.23C84.9271 52.3237 80.0175 48.9271 77.3912 47.0399C72.4362 43.4623 78.275 37.1253 80.6107 33.8527C80.8521 33.5252 80.795 33.2553 80.4393 33.043C74.5567 29.5435 81.6283 21.3964 84.3727 19.2059C87.1789 16.9608 93.9856 22.5402 95.5609 23.9027C99.6398 27.4482 94.1137 33.6483 91.9723 36.1443C90.191 38.2285 88.107 38.4175 85.7203 36.7114C85.6316 36.6488 85.5314 36.6044 85.4255 36.5809C85.3195 36.5573 85.21 36.555 85.1032 36.5741C84.9963 36.5932 84.8943 36.6333 84.8031 36.6921C84.7119 36.7509 84.6333 36.8272 84.5718 36.9167L80.6278 42.6514C80.4352 42.9315 80.4789 43.1679 80.759 43.3606C85.1775 46.3831 89.5698 49.4201 93.9361 52.4714C96.6345 54.3596 97.8306 56.6264 97.5242 59.2719C97.4861 59.6097 97.6165 59.8613 97.9155 60.0265C101.896 62.2383 105.557 64.7922 108.897 67.6882C113.42 71.6119 107.738 76.7334 105.557 80.1858C105.395 80.446 105.442 80.6649 105.7 80.8425L113.989 86.5431C114.319 86.7697 114.602 86.7174 114.838 86.3861L125.534 71.0102C125.773 70.6734 125.724 70.3805 125.385 70.1315C120.22 66.3123 125.004 61.3858 127.487 57.8989C131.411 52.3692 136.547 57.6609 140.084 60.2999C144.84 63.8497 140.522 68.0285 138.362 71.434C136.227 74.7964 133.536 75.4741 130.288 73.4671C130.039 73.3118 129.831 73.3551 129.665 73.5968L119.007 89.2534C118.776 89.5885 118.829 89.8712 119.164 90.1017L123.333 92.969C123.663 93.1956 123.92 93.1337 124.104 92.7832ZM91.614 28.2352C91.7428 28.0534 91.7941 27.8279 91.7566 27.6083C91.7191 27.3887 91.596 27.193 91.4142 27.0642L87.3997 24.2199C87.2179 24.0911 86.9924 24.0398 86.7728 24.0773C86.5532 24.1148 86.3575 24.2379 86.2287 24.4197L83.4654 28.32C83.3366 28.5018 83.2853 28.7272 83.3228 28.9468C83.3602 29.1664 83.4834 29.3621 83.6651 29.4909L87.6797 32.3353C87.8615 32.464 88.087 32.5153 88.3066 32.4779C88.5262 32.4404 88.7219 32.3172 88.8507 32.1354L91.614 28.2352ZM136.729 64.8251C136.781 64.7521 136.817 64.6697 136.837 64.5826C136.857 64.4955 136.859 64.4054 136.844 64.3174C136.829 64.2294 136.796 64.1452 136.748 64.0697C136.701 63.9942 136.639 63.9288 136.566 63.8773L132.383 60.9248C132.235 60.8208 132.053 60.7796 131.875 60.8102C131.697 60.8409 131.539 60.9408 131.435 61.0882L128.609 65.0913C128.558 65.1642 128.521 65.2466 128.502 65.3337C128.482 65.4208 128.48 65.511 128.495 65.599C128.51 65.687 128.542 65.7712 128.59 65.8467C128.638 65.9222 128.7 65.9875 128.773 66.039L132.956 68.9916C133.103 69.0955 133.286 69.1368 133.463 69.1061C133.641 69.0755 133.799 68.9755 133.903 68.8282L136.729 64.8251ZM105.31 71.7411C105.341 71.6985 105.363 71.6502 105.375 71.599C105.387 71.5479 105.389 71.4949 105.38 71.443C105.372 71.3912 105.353 71.3415 105.325 71.2969C105.298 71.2522 105.261 71.2135 105.219 71.1828L94.9076 63.7687C94.8215 63.7068 94.7143 63.6816 94.6096 63.6987C94.5049 63.7158 94.4113 63.7738 94.3494 63.8599L90.3095 69.4783C90.2789 69.521 90.2569 69.5693 90.2449 69.6204C90.2329 69.6715 90.2311 69.7246 90.2395 69.7764C90.248 69.8282 90.2666 69.8779 90.2943 69.9226C90.322 69.9672 90.3582 70.006 90.4008 70.0367L100.712 77.4507C100.798 77.5127 100.905 77.5378 101.01 77.5207C101.115 77.5036 101.208 77.4456 101.27 77.3595L105.31 71.7411ZM95.26 86.5999L97.9677 82.151C98.1136 81.9034 98.0704 81.6957 97.838 81.5278L87.5618 74.3755C87.2634 74.1623 87.0085 74.2094 86.7969 74.517C85.5977 76.3138 83.2339 81.1449 80.5449 78.3489C80.1634 77.9523 79.9303 77.4362 79.8852 76.8878C79.8401 76.3393 79.9856 75.7921 80.2972 75.3385L82.6998 71.8449C82.934 71.5044 82.8781 71.2151 82.532 70.9771L79.7553 69.0675C79.3433 68.7841 78.9957 68.8485 78.7124 69.2604L74.7514 75.0198C74.5134 75.3659 74.4842 75.7261 74.6637 76.1004L78.3604 83.8372C78.5255 84.1853 78.77 84.4709 79.0941 84.6938C83.6094 87.7991 90.4901 91.5238 94.0354 95.5276C94.3193 95.8442 94.3431 96.1802 94.1068 96.5356L92.72 98.6402C92.48 99.0011 92.1596 99.0963 91.759 98.9259C88.8118 97.6111 86.14 95.8667 83.7434 93.6925C83.0479 93.0685 82.8872 93.1846 83.2613 94.0406C84.4717 96.8513 87.1461 100.851 87.3696 103.808C87.6313 107.204 83.0477 112.281 81.1782 115.158C80.9437 115.523 81.0106 115.819 81.379 116.048L85.1064 118.393C85.471 118.628 85.7568 118.554 85.9639 118.17C91.1028 108.633 93.1564 107.606 103.63 108.947C104.313 109.037 104.441 108.809 104.015 108.265L102.323 106.118C102.152 105.9 102.032 105.646 101.972 105.376C101.913 105.105 101.914 104.824 101.978 104.554C102.041 104.285 102.164 104.032 102.338 103.816C102.512 103.6 102.732 103.426 102.982 103.307C105.895 101.912 110.95 106.651 113.33 108.202C116.633 110.353 120.995 110.258 124.791 110.49C125.141 110.512 125.415 110.377 125.616 110.086L129.622 104.066C129.841 103.748 129.791 103.479 129.473 103.26L125.237 100.347C125.034 100.207 124.857 100.235 124.706 100.431L121.499 104.706C121.329 104.934 121.11 105.121 120.859 105.254C120.607 105.387 120.33 105.463 120.046 105.476C119.762 105.49 119.478 105.44 119.216 105.331C118.953 105.222 118.718 105.057 118.526 104.846C116.334 102.44 118.94 99.6569 120.633 97.884C120.907 97.6031 120.879 97.3494 120.549 97.1227L116.355 94.2384C116.227 94.1501 116.069 94.1152 115.916 94.1409C115.762 94.1666 115.625 94.251 115.532 94.3763L112.532 98.3689C112.279 98.7129 111.936 98.8818 111.504 98.8755C110.141 98.8688 109.145 98.2524 108.515 97.0266C108.306 96.6241 108.322 96.2305 108.563 95.8456L111.365 91.3648C111.528 91.1046 111.483 90.8876 111.23 90.7138L102.851 84.9509C102.593 84.7734 102.372 84.8118 102.189 85.0662L98.9826 89.4635C98.7299 89.8075 98.396 89.946 97.9809 89.8789C96.7005 89.67 95.7726 88.9428 95.197 87.6974C95.0175 87.3231 95.0385 86.9572 95.26 86.5999Z" fill="#FBFBFB"/>
<path d="M152.647 94.1107L156.392 88.6644C156.503 88.5041 156.578 88.3217 156.613 88.1298C156.647 87.9379 156.639 87.7409 156.591 87.5521C156.542 87.3633 156.454 87.1872 156.331 87.0357C156.209 86.8841 156.055 86.7607 155.88 86.6737C150.89 84.1885 158.475 75.2777 160.402 73.5691C163.448 70.8698 170.462 76.6768 172.366 78.8845C175.4 82.415 170.291 88.1495 168.033 90.4802C165.775 92.8108 164.547 92.3548 161.876 91.1734C161.141 90.854 160.544 91.022 160.085 91.6774C156.558 96.7884 154.05 103.365 146.688 97.0398C145.616 96.1163 145.399 94.9316 146.038 93.4855C146.147 93.2403 146.307 93.0215 146.508 92.8435C146.709 92.6656 146.946 92.5328 147.203 92.454C147.459 92.3752 147.73 92.3522 147.996 92.3867C148.262 92.4211 148.518 92.5121 148.746 92.6536L151.47 94.3572C151.941 94.6488 152.333 94.5666 152.647 94.1107ZM168.162 82.0934C168.186 82.0604 168.203 82.023 168.213 81.9834C168.222 81.9438 168.223 81.9027 168.217 81.8625C168.21 81.8223 168.196 81.7838 168.175 81.7491C168.153 81.7145 168.125 81.6844 168.092 81.6606L163.195 78.1259C163.128 78.0778 163.045 78.0582 162.964 78.0713C162.883 78.0844 162.81 78.1292 162.762 78.1959L159.403 82.8503C159.379 82.8833 159.362 82.9207 159.352 82.9603C159.343 83 159.341 83.041 159.348 83.0812C159.354 83.1214 159.369 83.1599 159.39 83.1946C159.412 83.2292 159.44 83.2593 159.473 83.2832L164.37 86.8178C164.437 86.8659 164.52 86.8856 164.601 86.8724C164.682 86.8593 164.755 86.8145 164.803 86.7478L168.162 82.0934Z" fill="#FBFBFB"/>
<path d="M49.2802 118.392L38.3711 110.889C37.4291 110.241 36.1404 110.48 35.4925 111.422L35.1072 111.982C34.4594 112.924 34.6978 114.213 35.6398 114.861L46.5489 122.363C47.4909 123.011 48.7797 122.772 49.4275 121.83L49.8128 121.27C50.4607 120.328 50.2222 119.039 49.2802 118.392Z" fill="#FBFBFB"/>
<path d="M79.851 139.271L57.8515 124.141C56.864 123.462 55.513 123.712 54.8338 124.699L54.4825 125.21C53.8034 126.198 54.0534 127.549 55.0408 128.228L77.0404 143.358C78.0278 144.037 79.3789 143.787 80.058 142.799L80.4093 142.288C81.0884 141.301 80.8385 139.95 79.851 139.271Z" fill="#FBFBFB"/>
<path d="M104.95 156.614L87.4424 144.483C86.4347 143.785 85.0516 144.036 84.3533 145.044L84.0685 145.455C83.3703 146.462 83.6212 147.845 84.629 148.544L102.137 160.675C103.145 161.373 104.528 161.122 105.226 160.114L105.511 159.703C106.209 158.695 105.958 157.312 104.95 156.614Z" fill="#FBFBFB"/>
<path d="M43.791 126.268L32.9973 118.845C31.9961 118.156 30.6264 118.409 29.9379 119.411L29.7453 119.691C29.0568 120.692 29.3102 122.062 30.3113 122.75L41.1051 130.173C42.1062 130.862 43.4759 130.608 44.1644 129.607L44.3571 129.327C45.0456 128.326 44.7922 126.956 43.791 126.268Z" fill="#FBFBFB"/>
<path d="M99.183 164.351L52.2341 132.062C51.3104 131.427 50.0465 131.661 49.4112 132.585L49.0259 133.145C48.3906 134.069 48.6244 135.333 49.5482 135.968L96.497 168.256C97.4208 168.891 98.6846 168.658 99.3199 167.734L99.7053 167.174C100.341 166.25 100.107 164.986 99.183 164.351Z" fill="#FBFBFB"/>
<path d="M38.5201 134.197L27.4627 126.592C26.5389 125.957 25.275 126.191 24.6397 127.115L24.2657 127.658C23.6304 128.582 23.8643 129.846 24.788 130.481L35.8455 138.086C36.7692 138.721 38.0331 138.487 38.6684 137.564L39.0424 137.02C39.6777 136.096 39.4439 134.832 38.5201 134.197Z" fill="#FBFBFB"/>
<path d="M60.3107 149.171L46.9957 140.014C45.9126 139.269 44.4309 139.543 43.686 140.626L43.6067 140.742C42.8618 141.825 43.136 143.306 44.219 144.051L57.5341 153.209C58.6171 153.953 60.0989 153.679 60.8438 152.596L60.9231 152.481C61.6679 151.398 61.3938 149.916 60.3107 149.171Z" fill="#FBFBFB"/>
<path d="M81.445 163.706L67.5037 154.118C66.5799 153.483 65.316 153.716 64.6807 154.64L64.3067 155.184C63.6714 156.108 63.9053 157.372 64.829 158.007L78.7703 167.595C79.6941 168.23 80.958 167.996 81.5933 167.072L81.9673 166.529C82.6026 165.605 82.3687 164.341 81.445 163.706Z" fill="#FBFBFB"/>
<path d="M93.7012 172.159L88.8515 168.799C87.8392 168.098 86.4499 168.35 85.7485 169.362L85.5321 169.674C84.8306 170.687 85.0827 172.076 86.095 172.777L90.9446 176.138C91.957 176.839 93.3462 176.587 94.0477 175.575L94.2641 175.262C94.9655 174.25 94.7135 172.861 93.7012 172.159Z" fill="#FBFBFB"/>
<path d="M32.9489 141.949L22.2598 134.515C21.2669 133.824 19.9021 134.07 19.2115 135.063L18.926 135.473C18.2354 136.466 18.4806 137.831 19.4735 138.521L30.1626 145.955C31.1556 146.646 32.5204 146.401 33.211 145.408L33.4964 144.997C34.187 144.004 33.9419 142.64 32.9489 141.949Z" fill="#FBFBFB"/>
<path d="M88.2619 179.912L41.6921 147.884C40.6182 147.146 39.1488 147.417 38.4103 148.491L38.2629 148.706C37.5243 149.78 37.7962 151.249 38.8701 151.987L85.4399 184.015C86.5139 184.754 87.9832 184.482 88.7218 183.408L88.8691 183.194C89.6077 182.12 89.3358 180.65 88.2619 179.912Z" fill="#FBFBFB"/>
</svg>
