<svg width="192" height="206" viewBox="0 0 192 206" fill="none" xmlns="http://www.w3.org/2000/svg">
<path d="M56.0311 48.6571C51.5455 47.2756 47.0765 45.8504 42.624 44.3813C39.5289 43.3525 39.8027 39.9902 40.6259 37.199C43.4392 27.6167 46.295 18.0436 49.1933 8.47973C49.9349 6.0434 50.8061 4.10497 51.8069 2.66447C52.0128 2.37112 52.2964 2.2019 52.6578 2.15677C54.1831 1.96527 55.2395 1.95729 55.8272 2.13282C73.8459 7.47292 91.8523 12.8545 109.846 18.2777C112.452 19.0561 113.319 20.9777 112.445 24.0425C107.682 40.7586 104.393 51.9104 102.578 57.498C101.653 60.3387 99.6524 61.2824 96.5766 60.3289C92.3996 59.0326 88.1879 57.8755 83.9416 56.8577C83.6101 56.7796 83.2972 56.8253 83.003 56.9949C78.7334 59.3863 74.4492 61.6169 70.1504 63.6865C66.4324 65.4774 64.6243 63.3197 62.8436 60.1265C60.817 56.5224 58.8114 52.9176 56.8268 49.3122C56.6521 48.9887 56.3869 48.7703 56.0311 48.6571ZM68.5491 59.0545C71.6807 57.1302 81.7152 51.0684 85.1934 52.1073C89.2286 53.3195 93.2283 54.5106 97.1926 55.6808C97.3781 55.7362 97.5781 55.7156 97.7484 55.6236C97.9188 55.5317 98.0456 55.3758 98.101 55.1903L107.62 23.3214C107.715 23.002 107.603 22.7946 107.284 22.6992L55.3027 7.17352C54.9833 7.07813 54.7759 7.19013 54.6805 7.50952L45.159 39.388C45.0407 39.784 45.1815 40.0348 45.5814 40.1403C50.9297 41.5916 59.5759 43.8819 60.8756 46.1695C63.2228 50.3077 65.5456 54.5394 67.8439 58.8647C68.0077 59.178 68.2428 59.2413 68.5491 59.0545Z" fill="#FBFBFB"/>
<path d="M70.9746 17.5635L70.1314 17.3116C69.0731 16.9955 67.9588 17.5972 67.6427 18.6556L62.1479 37.0525C61.8318 38.1109 62.4335 39.2252 63.4919 39.5413L64.3351 39.7931C65.3934 40.1092 66.5077 39.5075 66.8238 38.4491L72.3186 20.0522C72.6347 18.9938 72.033 17.8796 70.9746 17.5635Z" fill="#FBFBFB"/>
<path d="M61.0317 16.7854L60.6292 16.6652C59.4439 16.3112 58.1959 16.9851 57.8419 18.1705L53.7036 32.0257C53.3495 33.2111 54.0235 34.459 55.2088 34.813L55.6113 34.9332C56.7966 35.2873 58.0446 34.6134 58.3986 33.428L62.5369 19.5728C62.891 18.3874 62.217 17.1395 61.0317 16.7854Z" fill="#FBFBFB"/>
<path d="M128.008 87.8769C134.183 86.1415 141.905 82.3008 148.54 84.3348C156.056 86.6354 163.594 88.873 171.155 91.0477C171.468 91.1412 171.671 91.0314 171.765 90.7184L181.283 58.8496C181.417 58.4024 181.263 58.113 180.822 57.9814C178.661 57.3218 175.641 56.4024 171.763 55.2233C168.757 54.3151 169.162 49.99 173.002 50.6884C176.487 51.3221 188.1 53.2878 186.446 58.9305C183.158 70.1033 179.827 81.267 176.453 92.4215C175.116 96.8646 172.332 96.5758 168.411 95.4465C160.549 93.1885 152.714 90.8484 144.907 88.4263C144.571 88.3188 144.234 88.3157 143.898 88.417C140.428 89.4122 134.453 91.2004 125.973 93.7814C118.636 96.0154 122.667 85.1755 123.733 82.864C123.895 82.5087 123.796 82.2598 123.435 82.1172C118.684 80.2705 111.884 80.3267 114.135 72.7542C118.998 56.4506 122.195 45.9461 123.725 41.2406C124.798 37.9291 127.056 36.7738 130.5 37.7747C139.209 40.2992 147.898 42.877 156.568 45.5082C157.658 45.8409 158.695 46.2933 159.679 46.8655C160.025 47.0592 160.194 47.3534 160.188 47.748L160.166 49.3591C160.162 49.6433 160.092 49.9227 159.961 50.1753C159.831 50.4279 159.644 50.6468 159.415 50.815C159.185 50.9831 158.92 51.0959 158.64 51.1444C158.36 51.1929 158.073 51.1759 157.8 51.0947L129.026 42.5005C128.707 42.4051 128.5 42.5171 128.404 42.8365L118.874 74.7436C118.75 75.1588 118.894 75.4348 119.305 75.5716C127.312 78.2553 130.536 77.7678 127.393 87.2445C127.194 87.8392 127.399 88.05 128.008 87.8769Z" fill="#FBFBFB"/>
<path d="M88.3339 25.3993L88.1233 25.336C86.8645 24.9576 85.5373 25.6713 85.1589 26.9301L81.3476 39.6097C80.9693 40.8685 81.683 42.1957 82.9418 42.5741L83.1525 42.6374C84.4113 43.0158 85.7385 42.3021 86.1168 41.0433L89.9281 28.3637C90.3065 27.1049 89.5927 25.7777 88.3339 25.3993Z" fill="#FBFBFB"/>
<path d="M96.4202 31.7076L95.9797 31.5752C94.8637 31.2397 93.687 31.8725 93.3516 32.9885L91.492 39.175C91.1566 40.291 91.7893 41.4677 92.9053 41.8031L93.3459 41.9355C94.4619 42.271 95.6385 41.6382 95.9739 40.5222L97.8335 34.3356C98.169 33.2197 97.5362 32.043 96.4202 31.7076Z" fill="#FBFBFB"/>
<path d="M73.9465 30.5016C73.1488 33.1222 73.6157 35.5856 74.9894 36.0037C76.3632 36.4219 78.1234 34.6364 78.9211 32.0158C79.7188 29.3952 79.2519 26.9318 77.8782 26.5136C76.5044 26.0955 74.7442 27.8809 73.9465 30.5016Z" fill="#FBFBFB"/>
<path d="M144.592 52.9306L143.978 52.7485C142.877 52.4217 141.719 53.0495 141.393 54.1508L135.981 72.3847C135.654 73.486 136.282 74.6437 137.383 74.9705L137.997 75.1526C139.098 75.4795 140.256 74.8517 140.583 73.7504L145.994 55.5164C146.321 54.4152 145.693 53.2575 144.592 52.9306Z" fill="#FBFBFB"/>
<path d="M134.812 52.3276L134.257 52.1606C133.114 51.8172 131.91 52.4649 131.566 53.6074L127.421 67.3979C127.078 68.5403 127.725 69.7448 128.868 70.0882L129.423 70.2552C130.566 70.5986 131.77 69.9508 132.114 68.8084L136.259 55.0179C136.602 53.8755 135.954 52.671 134.812 52.3276Z" fill="#FBFBFB"/>
<path d="M161.99 60.9454L161.703 60.86C160.475 60.4955 159.183 61.1957 158.819 62.4241L155.029 75.1936C154.664 76.4219 155.365 77.7132 156.593 78.0778L156.881 78.1631C158.109 78.5277 159.4 77.8274 159.765 76.5991L163.555 63.8296C163.919 62.6012 163.219 61.3099 161.99 60.9454Z" fill="#FBFBFB"/>
<path d="M170.108 67.0954L169.839 67.0167C168.636 66.6642 167.375 67.3537 167.022 68.5568L165.307 74.4108C164.955 75.6139 165.644 76.8749 166.847 77.2274L167.116 77.3062C168.319 77.6587 169.58 76.9691 169.933 75.766L171.648 69.9121C172 68.709 171.311 67.4479 170.108 67.0954Z" fill="#FBFBFB"/>
<path d="M147.621 66.0273C146.825 68.6254 147.31 71.0777 148.704 71.5047C150.098 71.9318 151.874 70.1718 152.669 67.5737C153.465 64.9756 152.98 62.5232 151.586 62.0962C150.192 61.6692 148.417 63.4292 147.621 66.0273Z" fill="#FBFBFB"/>
<path d="M54.8922 164.914L57.7598 155.313C57.8819 154.904 57.7755 154.574 57.4406 154.32C43.4203 143.537 43.7051 129.585 49.6049 114.2C50.4159 112.09 51.8737 111.065 53.9785 111.123C54.3309 111.131 54.5577 110.965 54.6588 110.627C58.0303 99.4439 61.6006 82.4238 66.9395 74.542C79.4255 56.1146 110.387 64.6526 110.979 87.7585C111.05 90.5489 110.164 95.0431 108.319 101.241C106.003 109.045 103.726 116.853 101.49 124.666C101.399 124.994 101.497 125.246 101.786 125.423C106.124 128.159 102.283 137.104 100.797 140.751C96.2269 151.931 87.5428 158.782 75.1898 159.643C74.8782 159.661 74.6776 159.82 74.5879 160.12L71.6574 169.932C71.5467 170.303 71.6747 170.55 72.0414 170.673C76.7603 172.298 81.5139 173.749 86.302 175.026C91.7069 176.463 89.0215 186.223 85.3241 187.665C83.058 188.543 79.3935 187.115 77.2553 186.027C76.9065 185.85 76.6148 185.578 76.4136 185.243C76.2124 184.908 76.1098 184.522 76.1176 184.131C76.1255 183.74 76.2434 183.359 76.4579 183.032C76.6723 182.705 76.9747 182.445 77.3302 182.282C79.0227 181.507 80.7244 181.692 82.4351 182.836C82.9585 183.18 83.3418 183.062 83.5851 182.481L84.3519 180.612C84.569 180.071 84.3997 179.718 83.844 179.552L39.378 166.261C38.95 166.133 38.6498 166.276 38.4772 166.691L37.8345 168.283C37.641 168.768 37.7914 169.092 38.2859 169.253C47.1723 172.207 56.0998 174.988 65.0682 177.597C66.9328 178.133 67.9205 179.054 67.2361 181.031C67.0555 181.563 66.6756 182.004 66.1762 182.262C65.6769 182.52 65.097 182.574 64.5587 182.413C55.1348 179.605 45.636 176.733 36.0625 173.797C29.6762 171.837 33.3598 159.015 40.5378 161.399C45.0139 162.882 49.5428 164.2 54.1246 165.353C54.5199 165.45 54.7758 165.304 54.8922 164.914ZM83.5782 115.1C83.5089 113.772 83.9434 112.701 84.8817 111.889C85.2039 111.603 85.5725 111.521 85.9877 111.645L98.2043 115.19C98.6214 115.307 98.9016 115.162 99.0448 114.752L99.7214 112.731C99.8525 112.339 99.721 112.08 99.3268 111.956L86.8205 108.053C86.4264 107.929 86.1933 107.661 86.1213 107.25C85.8789 105.848 86.3033 104.66 87.3947 103.685C87.6511 103.455 87.9454 103.39 88.2776 103.49L100.767 107.063C101.15 107.178 101.399 107.043 101.514 106.66L102.149 104.533C102.269 104.131 102.131 103.87 101.735 103.752L90.0074 100.249C89.6079 100.127 89.2536 99.8901 88.9894 99.5678C88.7253 99.2455 88.5631 98.8525 88.5234 98.4386C87.9379 92.7115 100.744 98.1959 102.92 98.9815C103.341 99.1349 103.631 99.0024 103.79 98.5839L104.56 96.6013C104.689 96.285 104.592 96.075 104.268 95.9713L91.8804 92.021C91.0602 91.7621 90.7074 91.2079 90.822 90.3585C91.0992 88.3122 91.6983 87.1448 93.9987 87.6545C97.7582 88.4852 101.501 89.5579 105.227 90.8726C105.586 91.0005 105.783 90.8752 105.82 90.4964C107.649 69.5226 80.4526 61.9006 69.6487 79.6929C69.5283 79.8865 69.5798 80.0167 69.8034 80.0835L81.89 83.8187C82.2905 83.9453 82.5695 84.1991 82.7271 84.5801C83.2624 85.8394 83.0946 86.972 82.2236 87.9781C81.9516 88.2928 81.5955 88.5229 81.1976 88.6409C80.7997 88.7589 80.3767 88.7598 79.9792 88.6437L68.1074 85.0978C67.6667 84.9662 67.406 85.1284 67.3255 85.5844L66.9725 87.5349C66.8932 87.9635 67.0663 88.2343 67.4917 88.3475C71.3102 89.3767 75.0969 90.5356 78.8519 91.8241C82.1817 92.9752 80.7763 97.471 76.9407 96.3358C73.3022 95.263 69.6602 94.1787 66.0147 93.0829C65.6205 92.9582 65.3442 93.0914 65.1857 93.4823L64.331 95.5753C64.1801 95.9407 64.2921 96.1829 64.6671 96.3018C68.3236 97.4774 72.0096 98.5541 75.7253 99.5317C77.9392 100.109 78.6566 101.388 77.8774 103.368C77.6751 103.887 77.284 104.311 76.7818 104.556C76.2795 104.8 75.7029 104.847 75.1664 104.687L63.3809 101.167C62.9976 101.053 62.7583 101.19 62.663 101.579L62.1206 103.744C62.0158 104.165 62.1677 104.437 62.5766 104.559C66.3818 105.702 70.1644 106.898 73.9244 108.147C75.6275 108.711 76.1378 109.844 75.4553 111.547C75.2747 111.995 74.9335 112.36 74.4983 112.569C74.0631 112.779 73.5654 112.819 73.1024 112.681L61.1252 109.104C60.6461 108.961 60.335 109.129 60.1919 109.608L59.5108 111.888C59.3925 112.284 59.5346 112.542 59.937 112.662L78.4681 118.197C78.9759 118.348 79.414 118.675 79.7052 119.119C79.9964 119.563 80.1221 120.096 80.0601 120.624C79.7993 122.79 78.1032 122.983 76.2857 122.534C69.0615 120.724 61.8928 118.601 54.7795 116.163C54.464 116.055 54.2425 116.156 54.1152 116.465C51.8417 122.027 50.6664 127.803 50.5893 133.791C50.5839 134.265 50.7323 134.727 51.012 135.108C51.2918 135.489 51.6876 135.768 52.1397 135.903L90.1888 147.268C90.4893 147.358 90.8104 147.351 91.1057 147.248C91.401 147.145 91.6553 146.951 91.8317 146.694C95.404 141.582 97.7531 135.942 98.879 129.773C98.9437 129.416 98.7969 129.209 98.4386 129.151C95.8203 128.692 86.2882 127.202 89.3907 122.545C89.7432 122.017 90.2257 121.834 90.8383 121.996L96.0074 123.384C96.337 123.468 96.5569 123.35 96.6669 123.028L97.3971 120.898C97.5193 120.558 97.4066 120.33 97.0591 120.212L84.2708 115.996C83.8403 115.853 83.6094 115.555 83.5782 115.1ZM54.8667 144.628C63.1793 154.605 73.287 157.022 85.1897 151.88C85.2811 151.841 85.3582 151.775 85.4105 151.691C85.4628 151.607 85.4877 151.508 85.4818 151.409C85.4759 151.31 85.4395 151.216 85.3776 151.138C85.3156 151.061 85.2312 151.004 85.136 150.977L53.8037 141.618C53.7251 141.596 53.6417 141.597 53.5634 141.62C53.4851 141.644 53.4151 141.689 53.3616 141.751C53.3081 141.812 53.2733 141.888 53.2613 141.969C53.2493 142.05 53.2606 142.132 53.2939 142.207C53.6806 143.032 54.2048 143.839 54.8667 144.628ZM69.5295 159.729C69.5396 159.697 69.5431 159.662 69.5399 159.628C69.5367 159.594 69.5269 159.561 69.5109 159.531C69.4949 159.501 69.4732 159.474 69.4469 159.452C69.4206 159.431 69.3903 159.414 69.3577 159.404L62.6873 157.348C62.6547 157.338 62.6204 157.335 62.5864 157.338C62.5524 157.341 62.5193 157.351 62.4891 157.367C62.4589 157.383 62.4322 157.405 62.4104 157.431C62.3886 157.457 62.3723 157.488 62.3622 157.52L59.57 166.58C59.56 166.612 59.5564 166.647 59.5596 166.681C59.5628 166.715 59.5727 166.748 59.5886 166.778C59.6046 166.808 59.6263 166.835 59.6526 166.857C59.6789 166.878 59.7092 166.895 59.7419 166.905L66.4122 168.961C66.4449 168.971 66.4791 168.974 66.5131 168.971C66.5471 168.968 66.5802 168.958 66.6104 168.942C66.6406 168.926 66.6673 168.904 66.6891 168.878C66.7109 168.852 66.7273 168.821 66.7373 168.789L69.5295 159.729Z" fill="#FBFBFB"/>
<path d="M123.345 157.473C127.984 151.585 130.023 144.794 129.461 137.31C129.265 134.684 129.571 133.273 132.512 133.421C133.192 133.45 133.599 133.801 133.732 134.474C135.713 144.403 133.258 153.379 126.367 161.402C123.727 164.475 120.759 160.75 123.345 157.473Z" fill="#FBFBFB"/>
<path d="M25.5378 104.068C20.3358 111.177 17.4129 118.622 18.4801 127.488C18.5473 128.058 18.3969 128.632 18.0592 129.095C17.7216 129.557 17.2218 129.874 16.6604 129.981C15.0357 130.296 14.1029 129.645 13.8622 128.029C12.3807 118.033 15.0415 109.265 21.8444 101.723C22.6109 100.88 23.6619 100.833 24.9974 101.579C25.2075 101.697 25.3902 101.858 25.5334 102.051C25.6767 102.245 25.7771 102.467 25.8282 102.702C25.8793 102.937 25.8798 103.181 25.8298 103.416C25.7797 103.652 25.6802 103.874 25.5378 104.068Z" fill="#FBFBFB"/>
<path d="M28.5938 121.126C28.2737 123.316 29.6593 128.531 26.1882 128.621C25.6349 128.637 25.0952 128.448 24.6725 128.091C24.2497 127.733 23.9735 127.233 23.8967 126.684C22.9205 119.936 24.6086 114.005 28.9612 108.89C30.371 107.244 32.0466 107.505 33.265 109.121C33.4401 109.356 33.5369 109.639 33.5415 109.931C33.5462 110.223 33.4585 110.508 33.2909 110.746C31.0457 113.895 29.1495 117.274 28.5938 121.126Z" fill="#FBFBFB"/>
<path d="M115.276 151.223C118.629 146.881 119.591 142.263 119.19 136.758C119.163 136.45 119.248 136.177 119.445 135.936C120.358 134.79 121.512 134.526 122.907 135.144C123.221 135.28 123.432 135.506 123.539 135.823C125.795 142.143 122.593 150.59 118.295 155.057C116.448 156.979 112.968 154.197 115.276 151.223Z" fill="#FBFBFB"/>
<path d="M109.406 136.841C109.501 136.524 109.719 136.257 110.01 136.099C110.302 135.942 110.644 135.906 110.962 136.001L112.134 136.341C112.915 136.572 113.475 137.436 113.691 138.743C113.907 140.05 113.762 141.694 113.287 143.312L113.207 143.581C112.971 144.382 112.662 145.153 112.297 145.85C111.932 146.547 111.517 147.156 111.078 147.642C110.638 148.128 110.181 148.481 109.734 148.683C109.287 148.884 108.857 148.929 108.471 148.814L107.299 148.475C106.981 148.38 106.714 148.163 106.557 147.871C106.399 147.579 106.364 147.237 106.459 146.919L109.406 136.841Z" fill="#FBFBFB"/>
<path d="M38.354 126.536C38.2614 126.855 38.0464 127.125 37.7557 127.286C37.4651 127.448 37.1224 127.488 36.8024 127.398L35.6469 127.074C35.2471 126.96 34.8955 126.693 34.6123 126.288C34.329 125.883 34.1197 125.347 33.9963 124.712C33.8728 124.077 33.8376 123.355 33.8928 122.587C33.948 121.819 34.0924 121.021 34.3177 120.237L34.4265 119.873C34.8803 118.295 35.6347 116.873 36.524 115.92C37.4134 114.966 38.3651 114.559 39.1702 114.788L40.3257 115.112C40.4858 115.157 40.6354 115.234 40.7659 115.337C40.8963 115.44 41.0051 115.568 41.0859 115.713C41.1667 115.859 41.2178 116.019 41.2364 116.184C41.2551 116.349 41.2408 116.517 41.1945 116.676L38.354 126.536Z" fill="#FBFBFB"/>
<path d="M73.566 132.617C74.7567 132.973 76.0102 132.296 76.3659 131.105C76.7215 129.915 76.0446 128.661 74.8539 128.306C73.6632 127.95 72.4097 128.627 72.0541 129.818C71.6984 131.008 72.3754 132.262 73.566 132.617Z" fill="#FBFBFB"/>
<path d="M83.4651 135.605C84.6716 135.966 85.9418 135.28 86.3022 134.073C86.6626 132.867 85.9766 131.596 84.7701 131.236C83.5635 130.876 82.2933 131.562 81.933 132.768C81.5726 133.975 82.2585 135.245 83.4651 135.605Z" fill="#FBFBFB"/>
<path d="M65.8725 125.976L64.1879 125.341C63.4643 125.069 62.6568 125.435 62.3844 126.158L61.9616 127.281C61.6892 128.005 62.055 128.812 62.7786 129.085L64.4632 129.719C65.1868 129.992 65.9942 129.626 66.2667 128.902L66.6895 127.779C66.9619 127.055 66.5961 126.248 65.8725 125.976Z" fill="#FBFBFB"/>
</svg>
