<svg width="191" height="205" viewBox="0 0 191 205" fill="none" xmlns="http://www.w3.org/2000/svg">
<path d="M75.6328 18.97L75.4206 19.028C74.2218 19.3553 73.5153 20.5924 73.8426 21.7912L75.6758 28.5054C76.0031 29.7042 77.2402 30.4106 78.439 30.0833L78.6512 30.0254C79.85 29.6981 80.5564 28.461 80.2291 27.2622L78.396 20.548C78.0687 19.3492 76.8315 18.6427 75.6328 18.97Z" fill="#FBFBFB"/>
<path d="M54.7716 28.3601L54.3648 28.6149C53.3259 29.266 53.0114 30.6359 53.6624 31.6749L57.358 37.5727C58.009 38.6117 59.379 38.9262 60.4179 38.2752L60.8247 38.0203C61.8636 37.3693 62.1781 35.9993 61.5271 34.9604L57.8316 29.0625C57.1805 28.0236 55.8106 27.7091 54.7716 28.3601Z" fill="#FBFBFB"/>
<path d="M39.7079 49.3117C42.1834 51.4811 44.9752 52.3441 45.9434 51.2392C46.9116 50.1343 45.6897 47.48 43.2141 45.3106C40.7385 43.1412 37.9468 42.2782 36.9786 43.3831C36.0103 44.488 37.2323 47.1423 39.7079 49.3117Z" fill="#FBFBFB"/>
<path d="M129.189 133.27C138.888 124.184 142.634 115.273 146.186 102.507C146.282 102.149 146.509 101.918 146.868 101.813C149.327 101.1 150.963 102.27 150.408 104.982C147.661 118.489 141.127 129.586 130.803 138.271C130.5 138.527 130.401 138.848 130.506 139.234L132.732 147.385C132.832 147.752 133.061 147.997 133.42 148.12C140.21 150.475 142.815 163.623 132.665 165.098C131.92 165.205 131.663 165.617 131.893 166.335C132.872 169.312 135.026 175.037 133.484 177.894C131.434 181.699 110.067 186.247 107.44 186.684C101.977 187.595 100.262 178.05 99.4698 174.389C99.3925 174.03 99.1867 173.935 98.8523 174.102C88.7149 179.192 84.8758 165.852 89.2611 159.627C89.4651 159.336 89.5206 159.021 89.4275 158.68L87.4073 151.281C87.3108 150.927 87.0797 150.714 86.7143 150.641C68.6272 147.141 55.1682 137.875 46.3373 122.844C22.8622 82.917 54.508 34.8445 99.6396 37.8744C99.9846 37.8977 100.279 37.7863 100.523 37.54C103.352 34.6528 106.152 36.4798 109.164 38.1349C109.474 38.3061 109.802 38.3443 110.149 38.2495L111.143 37.9782C111.445 37.8957 111.595 37.696 111.591 37.3791C111.563 32.7219 108.501 29.1733 114.955 27.2244C117.667 26.4115 123.25 23.8507 125.721 25.9541C127.352 27.3332 127.98 30.2817 128.834 32.3812C128.956 32.6793 129.178 32.833 129.498 32.8423C130.908 32.8928 131.8 32.4385 132.174 31.4795C135.508 22.8466 142.585 28.948 146.962 31.92C150.399 34.2573 148.007 38.6319 146.522 41.2038C146.405 41.4055 146.347 41.6356 146.353 41.8685C146.36 42.1014 146.431 42.3279 146.558 42.523C146.685 42.718 146.864 42.874 147.075 42.9735C147.285 43.0729 147.52 43.1121 147.751 43.0865C151.336 42.6987 155.427 40.8663 157.214 45.437C158.248 48.0849 159.061 50.7965 159.653 53.5719C161.179 60.795 150.664 58.4623 152.079 62.5437C152.199 62.884 152.417 63.1356 152.731 63.2987C155.186 64.546 159.046 67.027 157.797 69.9699C155.92 74.411 154.458 77.9407 150.677 80.7974C149.937 81.3519 149.74 82.0621 150.087 82.928C150.804 84.6673 150.98 86.4506 150.615 88.2779C150.553 88.6059 150.369 88.8428 150.063 88.9885C148.031 89.9234 146.781 89.3317 146.313 87.2135C145.727 84.5608 144.973 81.8123 144.051 78.968C143.719 77.953 143.188 77.8319 142.459 78.6045L141.8 79.3028C141.558 79.5554 141.487 79.8513 141.586 80.1904C142.458 83.1555 143.544 86.1451 141.345 88.1551C139.478 89.8571 131.184 92.0178 128.839 91.2484C124.446 89.8148 126.707 84.315 123.085 83.8424C122.747 83.7963 122.473 83.9057 122.262 84.1706C120.649 86.1971 119.452 89.5197 116.536 89.7354C113.784 89.9476 106.42 85.1477 105.573 84.0937C102.078 79.7612 108.451 76.7151 106.258 73.582C106.043 73.2745 105.75 73.1644 105.38 73.2516C102.947 73.8329 99.4236 74.7846 97.6577 73.6704C95.806 72.507 93.4591 63.5696 93.5331 61.4865C93.6567 58.2186 97.3839 57.3668 99.971 56.4013C102.096 55.6035 101.554 53.6574 99.9148 53.0062C95.1367 51.0973 94.1444 47.868 96.938 43.3182C96.9871 43.2383 97.0141 43.1466 97.0162 43.0528C97.0182 42.959 96.9953 42.8666 96.9497 42.7855C96.9042 42.7044 96.8378 42.6375 96.7575 42.592C96.6773 42.5466 96.5862 42.5242 96.494 42.5272C61.1066 42.9528 35.8403 74.3358 45.7861 108.751C51.7312 129.311 68.4106 142.981 89.723 145.942C90.0702 145.989 90.3967 146.134 90.6641 146.361C90.9316 146.587 91.1289 146.885 91.2328 147.22L94.3492 157.419C94.4411 157.705 94.6317 157.808 94.9211 157.729L97.0435 157.15C97.365 157.062 97.4819 156.857 97.3941 156.536L92.9877 140.396C92.8893 140.036 92.6536 139.869 92.2806 139.895C86.4141 140.315 85.226 132.015 85.7924 128.128C85.849 127.754 86.0284 127.449 86.3306 127.214C88.7674 125.357 96.653 122.043 98.8749 126.08C101.008 129.945 103.215 136.091 98.1678 138.298C97.7738 138.475 97.6362 138.768 97.755 139.178L102.427 155.151C102.523 155.477 102.735 155.596 103.063 155.506L109.044 153.873C109.372 153.784 109.495 153.574 109.412 153.244L104.217 133.422C104.102 132.976 104.128 132.504 104.294 132.074C104.459 131.644 104.754 131.277 105.138 131.025C107.09 129.746 108.412 130.753 108.988 132.711C110.854 139.036 112.699 145.367 114.526 151.703C114.647 152.119 114.916 152.27 115.334 152.156L118.749 151.224C119.231 151.092 119.407 150.785 119.275 150.303L114.508 132.842C114.422 132.527 114.275 132.233 114.075 131.976C113.875 131.719 113.626 131.505 113.343 131.346L91.0011 118.579C90.7973 118.465 90.558 118.432 90.3309 118.487C90.1037 118.541 89.9053 118.679 89.7751 118.873C87.2196 122.649 80.2421 118.013 78.2725 115.887C75.595 112.99 80.103 106.493 82.1969 104.709C85.4035 101.988 91.7145 106.992 93.6806 109.296C93.9163 109.577 94.0009 109.899 93.9344 110.263L93.3144 113.687C93.2612 113.999 93.3698 114.232 93.6399 114.386C101.198 118.708 108.752 123.024 116.301 127.335C120.061 129.491 122.823 144.389 124.164 148.885C124.241 149.14 124.409 149.302 124.67 149.369C127.467 150.046 127.927 148.77 127.295 146.454C125.092 138.362 122.885 130.292 120.674 122.243C120.584 121.915 120.374 121.779 120.044 121.835C117.139 122.331 115.254 121.121 114.389 118.206C111.935 109.941 113.06 107.342 122.025 106.273C124.713 105.944 125.953 106.839 127.031 109.344C128.341 112.396 130.466 118.585 125.951 120.004C125.525 120.141 125.37 120.422 125.486 120.847L128.852 133.175C128.86 133.21 128.878 133.242 128.902 133.268C128.927 133.293 128.958 133.312 128.993 133.322C129.027 133.331 129.063 133.332 129.098 133.323C129.132 133.314 129.164 133.295 129.189 133.27ZM152.543 68.8751C144.88 65.2971 145.092 56.2414 154.203 54.7592C154.627 54.6919 154.782 54.4492 154.668 54.0311L153.085 48.2334C152.976 47.8346 152.718 47.6599 152.31 47.7091C150.241 47.9526 148.039 48.7715 146.112 47.981C143.139 46.7609 141.558 44.4111 141.368 40.9316C141.353 40.5972 141.423 40.2843 141.578 39.9931L143.566 36.1852C143.769 35.7911 143.678 35.4841 143.294 35.2644L138.673 32.6179C137.905 32.1848 137.305 32.3522 136.872 33.12C132.861 40.3727 123.791 39.0859 123.113 30.6778C123.07 30.1919 122.812 30.0066 122.339 30.1219L116.306 31.6032C115.84 31.7168 115.688 31.9966 115.851 32.4427C117.716 37.4759 116.472 40.9807 112.119 42.957C109.214 44.2787 106.83 42.8357 104.469 41.2103C104.155 40.9987 103.909 41.059 103.73 41.3912L100.85 46.635C100.573 47.1391 100.677 47.5355 101.164 47.8242C106.083 50.7797 107.425 54.342 105.191 58.5109C103.901 60.9258 101.345 61.3958 98.9044 62.1762C98.5542 62.2856 98.4297 62.5131 98.5309 62.8586L100.109 68.3363C100.316 69.0677 100.781 69.314 101.503 69.0753C106.979 67.2348 110.503 69.1473 112.078 74.8126C112.18 75.1857 112.154 75.5485 112.002 75.9011L109.942 80.7343C109.799 81.0705 109.887 81.3298 110.206 81.5121L115.364 84.4576C115.723 84.6569 116.002 84.5773 116.201 84.2188C118.031 80.8995 118.965 78.8513 123.127 79.0624C128.237 79.3259 129.147 81.3683 130.472 85.8786C130.601 86.3271 130.894 86.4889 131.351 86.3643L137.158 84.7787C137.615 84.654 137.755 84.3704 137.579 83.9278C134.426 75.9878 142.113 69.7428 148.592 75.5515C148.893 75.8215 149.152 75.782 149.368 75.4328L152.804 69.7573C153.043 69.3672 152.956 69.0732 152.543 68.8751ZM88.2699 112.173C88.4131 111.889 88.4374 111.559 88.3377 111.257C88.2379 110.955 88.0222 110.705 87.7379 110.561L85.6836 109.527C85.3994 109.384 85.0699 109.359 84.7677 109.459C84.4655 109.559 84.2153 109.775 84.0722 110.059L83.0287 112.131C82.8855 112.415 82.8612 112.745 82.9609 113.047C83.0607 113.349 83.2765 113.599 83.5607 113.743L85.615 114.777C85.8992 114.92 86.2287 114.945 86.5309 114.845C86.8331 114.745 87.0833 114.529 87.2265 114.245L88.2699 112.173ZM122.844 112.143C122.809 112.003 122.747 111.871 122.662 111.755C122.576 111.638 122.468 111.54 122.345 111.465C122.221 111.391 122.084 111.341 121.941 111.319C121.798 111.298 121.652 111.304 121.512 111.339L119.066 111.943C118.925 111.978 118.793 112.04 118.677 112.125C118.561 112.211 118.462 112.319 118.388 112.442C118.313 112.566 118.264 112.703 118.242 112.846C118.22 112.989 118.227 113.135 118.261 113.275L118.933 115.993C118.967 116.133 119.029 116.265 119.115 116.382C119.201 116.498 119.308 116.596 119.432 116.671C119.556 116.746 119.693 116.795 119.836 116.817C119.978 116.839 120.124 116.832 120.264 116.797L122.711 116.193C122.851 116.159 122.983 116.097 123.099 116.011C123.216 115.925 123.314 115.818 123.389 115.694C123.463 115.57 123.513 115.433 123.535 115.29C123.556 115.147 123.55 115.002 123.515 114.862L122.844 112.143ZM95.2627 130.049C95.1937 129.81 95.0324 129.607 94.8142 129.487C94.596 129.366 94.3388 129.337 94.0993 129.406L91.3702 130.192C91.1306 130.261 90.9283 130.423 90.8077 130.641C90.6871 130.859 90.6581 131.116 90.7271 131.356L91.5078 134.066C91.5768 134.305 91.7381 134.507 91.9563 134.628C92.1745 134.749 92.4317 134.778 92.6713 134.709L95.4003 133.922C95.6399 133.853 95.8422 133.692 95.9628 133.474C96.0834 133.256 96.1124 132.998 96.0434 132.759L95.2627 130.049ZM133.276 154.275C133.153 153.827 132.858 153.447 132.455 153.216C132.052 152.986 131.574 152.926 131.127 153.048L93.5615 163.304C93.1138 163.426 92.7329 163.722 92.5028 164.125C92.2726 164.528 92.212 165.006 92.3342 165.453L93.3087 169.023C93.431 169.47 93.7261 169.851 94.1291 170.081C94.5322 170.312 95.0101 170.372 95.4579 170.25L133.023 159.994C133.471 159.871 133.852 159.576 134.082 159.173C134.312 158.77 134.372 158.292 134.25 157.845L133.276 154.275ZM127.303 167.557C127.274 167.451 127.225 167.353 127.158 167.267C127.091 167.181 127.008 167.109 126.913 167.055C126.818 167.001 126.714 166.967 126.605 166.953C126.497 166.939 126.388 166.947 126.282 166.976L104.934 172.845C104.829 172.874 104.731 172.923 104.645 172.99C104.559 173.057 104.487 173.14 104.433 173.235C104.379 173.33 104.344 173.434 104.331 173.542C104.317 173.65 104.325 173.76 104.354 173.865L104.391 174C104.42 174.105 104.469 174.204 104.536 174.29C104.603 174.376 104.686 174.448 104.781 174.502C104.876 174.556 104.98 174.59 105.089 174.604C105.197 174.617 105.306 174.609 105.412 174.581L126.76 168.712C126.865 168.683 126.963 168.634 127.049 168.567C127.135 168.5 127.207 168.417 127.261 168.322C127.315 168.227 127.35 168.123 127.363 168.015C127.377 167.906 127.369 167.797 127.34 167.692L127.303 167.557ZM128.94 174.273C128.875 174.035 128.718 173.833 128.504 173.711C128.29 173.588 128.036 173.556 127.798 173.621L106.922 179.321C106.684 179.386 106.481 179.543 106.359 179.757C106.237 179.971 106.205 180.225 106.27 180.463L106.375 180.849C106.44 181.087 106.597 181.289 106.811 181.411C107.025 181.534 107.279 181.566 107.517 181.501L128.393 175.801C128.631 175.736 128.833 175.58 128.956 175.365C129.078 175.151 129.11 174.897 129.045 174.659L128.94 174.273Z" fill="#FBFBFB"/>
<path d="M34.1854 64.6257L28.0159 61.7188C26.8718 61.1797 25.5073 61.6701 24.9683 62.8142L24.8489 63.0675C24.3098 64.2116 24.8003 65.5761 25.9444 66.1152L32.1139 69.0221C33.2579 69.5612 34.6224 69.0707 35.1615 67.9266L35.2808 67.6733C35.8199 66.5292 35.3294 65.1648 34.1854 64.6257Z" fill="#FBFBFB"/>
<path d="M134.207 67.7031C138.986 63.8965 140.003 58.7122 137.258 52.1503C136.524 50.4121 136.281 49.1413 138.019 48.0656C138.477 47.7827 139.029 47.6926 139.556 47.8148C140.082 47.9369 140.539 48.2614 140.83 48.7182C144.028 53.7744 144.598 58.9504 142.54 64.246C134.44 85.0749 104.81 74.0498 110.201 54.0435C111.728 48.3606 116.068 43.4856 121.834 41.7869C124.358 41.0459 130.973 39.7995 129.754 44.6C129.671 44.9272 129.487 45.2198 129.227 45.4358C128.968 45.6519 128.647 45.7804 128.31 45.8029C103.039 47.4781 117.781 80.7811 134.207 67.7031Z" fill="#FBFBFB"/>
<path d="M85.2083 70.5086C85.3744 71.1344 85.4157 71.7867 85.3298 72.4284C85.2438 73.0701 85.0324 73.6885 84.7074 74.2485C84.3824 74.8084 83.9503 75.2989 83.4358 75.6919C82.9213 76.0848 82.3344 76.3726 81.7087 76.5388L77.0887 77.7655C75.825 78.1011 74.4798 77.9209 73.3489 77.2646C72.2181 76.6083 71.3942 75.5296 71.0587 74.2659L69.8165 69.5881C69.6504 68.9624 69.6091 68.31 69.695 67.6683C69.781 67.0266 69.9925 66.4082 70.3174 65.8482C70.6424 65.2883 71.0745 64.7978 71.589 64.4048C72.1035 64.0119 72.6904 63.7241 73.3162 63.5579L77.9361 62.3312C79.1998 61.9956 80.545 62.1758 81.6759 62.8321C82.8067 63.4884 83.6306 64.5671 83.9661 65.8308L85.2083 70.5086ZM79.4202 68.2888C79.3459 67.9712 79.1484 67.6961 78.8713 67.5241C78.5941 67.3521 78.26 67.2972 77.9423 67.3715L75.8586 67.8591C75.541 67.9335 75.2659 68.131 75.0939 68.4081C74.9218 68.6853 74.867 69.0194 74.9413 69.337L75.5063 71.7518C75.5807 72.0694 75.7781 72.3445 76.0553 72.5165C76.3324 72.6885 76.6666 72.7434 76.9842 72.6691L79.068 72.1815C79.3856 72.1071 79.6607 71.9096 79.8327 71.6325C80.0048 71.3553 80.0596 71.0212 79.9853 70.7036L79.4202 68.2888Z" fill="#FBFBFB"/>
<path d="M134.938 56.0696C135.538 58.2673 135.241 60.6134 134.111 62.5918C132.981 64.5702 131.112 66.0187 128.914 66.6187C126.716 67.2188 124.37 66.9212 122.392 65.7915C120.414 64.6617 118.965 62.7923 118.365 60.5946C117.765 58.3968 118.063 56.0507 119.192 54.0723C120.322 52.094 122.191 50.6454 124.389 50.0454C126.587 49.4453 128.933 49.7429 130.911 50.8727C132.89 52.0024 134.338 53.8718 134.938 56.0696ZM130.038 57.4076C129.795 56.5172 129.208 55.7599 128.406 55.3022C127.605 54.8445 126.654 54.7239 125.764 54.967C124.874 55.2101 124.116 55.797 123.659 56.5984C123.201 57.3999 123.08 58.3504 123.324 59.2407C123.444 59.6816 123.65 60.0944 123.93 60.4557C124.21 60.8169 124.558 61.1195 124.955 61.3461C125.352 61.5728 125.789 61.719 126.243 61.7765C126.696 61.834 127.156 61.8016 127.597 61.6813C128.038 61.5609 128.451 61.3549 128.812 61.075C129.173 60.7951 129.476 60.4467 129.703 60.0499C129.929 59.653 130.076 59.2154 130.133 58.7621C130.191 58.3087 130.158 57.8484 130.038 57.4076Z" fill="#FBFBFB"/>
<path d="M23.8269 88.4869C27.0597 88.9371 29.8428 88.1359 30.0432 86.6973C30.2435 85.2586 27.7853 83.7274 24.5525 83.2772C21.3197 82.8269 18.5365 83.6281 18.3362 85.0668C18.1358 86.5054 20.5941 88.0366 23.8269 88.4869Z" fill="#FBFBFB"/>
<path d="M79.2179 91.8553C79.3913 92.4695 79.4421 93.1119 79.3674 93.7458C79.2926 94.3796 79.0937 94.9925 78.782 95.5495C78.4704 96.1064 78.0521 96.5966 77.551 96.9919C77.0499 97.3872 76.4759 97.6799 75.8617 97.8534L71.1269 99.1906C69.8865 99.5409 68.5577 99.3841 67.4329 98.7547C66.308 98.1253 65.4793 97.0749 65.129 95.8345L63.7754 91.042C63.6019 90.4277 63.5511 89.7854 63.6259 89.1515C63.7006 88.5177 63.8995 87.9048 64.2112 87.3478C64.5228 86.7908 64.9412 86.3007 65.4422 85.9054C65.9433 85.5101 66.5173 85.2174 67.1316 85.0439L71.8663 83.7067C73.1068 83.3564 74.4356 83.5132 75.5604 84.1425C76.6852 84.7719 77.514 85.8224 77.8643 87.0628L79.2179 91.8553ZM73.27 89.1663C73.247 89.0854 73.2083 89.0099 73.1562 88.944C73.104 88.8781 73.0393 88.8231 72.9659 88.7822C72.8925 88.7413 72.8117 88.7152 72.7282 88.7055C72.6447 88.6958 72.5602 88.7027 72.4793 88.7257L69.1512 89.6719C69.0704 89.6948 68.9949 89.7335 68.929 89.7857C68.8631 89.8379 68.8081 89.9025 68.7671 89.9759C68.7262 90.0494 68.7002 90.1301 68.6905 90.2136C68.6808 90.2971 68.6876 90.3817 68.7106 90.4625L69.6513 93.7714C69.6743 93.8522 69.713 93.9278 69.7652 93.9937C69.8174 94.0596 69.882 94.1145 69.9554 94.1555C70.0288 94.1964 70.1096 94.2224 70.1931 94.2321C70.2766 94.2418 70.3612 94.235 70.442 94.212L73.7701 93.2658C73.851 93.2428 73.9265 93.2041 73.9924 93.152C74.0583 93.0998 74.1133 93.0351 74.1542 92.9617C74.1951 92.8883 74.2212 92.8075 74.2309 92.724C74.2406 92.6406 74.2337 92.556 74.2107 92.4751L73.27 89.1663Z" fill="#FBFBFB"/>
<path d="M99.5639 97.3959C100.419 101.402 103.946 110.484 103.311 113.891C103.241 114.242 103.05 114.505 102.738 114.68C100.617 115.871 99.246 114.721 98.6499 112.614C97.4916 108.549 96.372 104.473 95.2909 100.387C94.6087 97.7744 92.4357 99.1555 90.8584 98.1246C88.5777 96.643 87.6949 92.043 87.46 89.3602C86.9822 83.8515 95.0184 82.7977 98.7697 83.1729C99.1246 83.2073 99.4126 83.3636 99.6337 83.6419C101.909 86.4312 105.712 95.3129 99.784 97.0249C99.7063 97.046 99.6399 97.0966 99.5988 97.1658C99.5577 97.2351 99.5452 97.3176 99.5639 97.3959ZM96.7455 88.5433C96.7142 88.4226 96.6362 88.3194 96.5287 88.2562C96.4212 88.1931 96.2931 88.1753 96.1724 88.2066L92.7269 89.1023C92.6671 89.1178 92.611 89.1449 92.5618 89.1821C92.5125 89.2194 92.4711 89.2659 92.4398 89.3191C92.4086 89.3724 92.3881 89.4312 92.3796 89.4924C92.3711 89.5535 92.3747 89.6157 92.3903 89.6755L93.3362 93.3145C93.3676 93.4351 93.4456 93.5384 93.5531 93.6015C93.6605 93.6646 93.7887 93.6825 93.9093 93.6511L97.3549 92.7555C97.4146 92.74 97.4707 92.7128 97.52 92.6756C97.5692 92.6384 97.6107 92.5918 97.6419 92.5386C97.6732 92.4854 97.6936 92.4265 97.7022 92.3654C97.7107 92.3042 97.7071 92.242 97.6915 92.1823L96.7455 88.5433Z" fill="#FBFBFB"/>
<path d="M27.5299 104.367L20.7595 105.472C19.5658 105.667 18.7561 106.792 18.951 107.986L19.0219 108.42C19.2167 109.614 20.3424 110.424 21.5361 110.229L28.3065 109.124C29.5002 108.929 30.3099 107.803 30.115 106.61L30.0441 106.175C29.8493 104.982 28.7236 104.172 27.5299 104.367Z" fill="#FBFBFB"/>
<path d="M32.1039 130.111C35.1379 128.699 37.0984 126.482 36.4829 125.16C35.8674 123.838 32.9088 123.912 29.8749 125.325C26.8409 126.738 24.8803 128.955 25.4959 130.277C26.1114 131.598 29.0699 131.524 32.1039 130.111Z" fill="#FBFBFB"/>
<path d="M43.8537 141.337L38.8653 145.84C37.9101 146.702 37.8347 148.175 38.697 149.13L38.831 149.279C39.6932 150.234 41.1666 150.31 42.1218 149.447L47.1101 144.945C48.0654 144.082 48.1407 142.609 47.2785 141.654L47.1445 141.505C46.2823 140.55 44.8089 140.475 43.8537 141.337Z" fill="#FBFBFB"/>
<path d="M59.358 154.677L55.8225 160.673C55.1857 161.753 55.5449 163.144 56.6248 163.781L56.7626 163.862C57.8425 164.499 59.2341 164.14 59.871 163.06L63.4065 157.065C64.0433 155.985 63.6841 154.593 62.6043 153.957L62.4664 153.875C61.3865 153.238 59.9949 153.598 59.358 154.677Z" fill="#FBFBFB"/>
</svg>
