<svg width="200" height="168" viewBox="0 0 200 168" fill="none" xmlns="http://www.w3.org/2000/svg">
<path d="M128.967 51.3611L132.097 40.5449C132.222 40.13 132.487 39.8484 132.889 39.7C134.368 39.1586 135.624 39.4478 136.656 40.5676C136.9 40.8312 136.973 41.133 136.876 41.4727L133.783 52.778C133.694 53.1132 133.817 53.3251 134.153 53.4139C147.072 56.7182 146.766 57.8267 142.991 69.3326C142.768 70.0176 143.006 70.4599 143.704 70.6594L151.166 72.7901C151.487 72.8816 151.693 72.7671 151.784 72.4466L156.046 57.5231C156.289 56.6705 156.001 56.0753 155.183 55.7376C151.491 54.2189 149.957 52.0787 150.579 49.3167C151.521 45.0932 152.856 41.0128 154.584 37.0758C154.726 36.7489 154.965 36.519 155.301 36.3862C158.706 35.0601 166.637 37.8762 169.592 39.1464C174.76 41.3708 170.948 48.8204 169.975 52.484C168.784 56.98 166.499 59.2289 161.886 57.3189C161.538 57.178 161.313 57.287 161.21 57.646C159.647 63.169 158.063 68.6307 156.459 74.031C154.395 81.0024 146.468 76.6795 141.897 75.3121C141.831 75.2918 141.762 75.285 141.693 75.2919C141.624 75.2988 141.558 75.3194 141.497 75.3524C141.436 75.3854 141.383 75.4302 141.339 75.4842C141.296 75.5381 141.264 75.6001 141.245 75.6666L138.771 84.3303C138.68 84.6508 138.794 84.8569 139.115 84.9484L171.654 94.24C171.821 94.2876 171.999 94.2677 172.152 94.1847C172.304 94.1016 172.417 93.9621 172.467 93.7961L175.655 82.6324C175.785 82.1772 175.616 81.9177 175.149 81.8536C171.59 81.378 170.018 79.4904 170.433 76.191C170.994 71.6992 172.279 67.4935 174.285 63.5738C174.439 63.278 174.668 63.0486 174.971 62.8855C177.878 61.3343 185.515 64.3468 188.664 65.2982C194.971 67.2135 190.181 77.8679 188.641 81.6606C187.157 85.2927 183.735 84.1284 180.861 83.7758C180.534 83.731 180.335 83.8716 180.262 84.1976C179.454 87.8666 177.888 94.6264 176.604 96.8285C175.358 98.9825 173.019 99.6078 169.589 98.7045C158.954 95.9104 148.398 92.8997 137.922 89.6724C137.509 89.5406 137.243 89.683 137.124 90.0997L134.996 97.5518C134.871 97.9878 135.031 98.2551 135.474 98.354C137.062 98.693 150.118 101.08 145.609 104.815C145.218 105.141 144.753 105.367 144.255 105.477C143.757 105.586 143.24 105.575 142.747 105.443L134.009 103.084C133.642 102.986 133.406 103.119 133.302 103.485L130.745 112.437C130.656 112.751 130.767 112.956 131.079 113.052C138.694 115.341 145.491 114.443 141.893 125.261C141.208 127.318 139.977 131.716 138.198 138.453C138.111 138.809 138.25 139.012 138.617 139.062C147.218 140.228 142.02 151.182 140.557 155.215C138.247 161.554 126.982 156.611 123.575 154.848C119.426 152.696 124.435 140.836 125.821 137.768C125.952 137.48 126.165 137.281 126.459 137.171C128.539 136.419 130.629 136.434 132.729 137.214C133.066 137.345 133.284 137.234 133.385 136.881L137.946 120.91C138.065 120.493 137.913 120.224 137.49 120.103L129.951 117.951C129.541 117.834 129.264 117.976 129.121 118.379C124.736 131.042 126.621 131.289 112.858 127.661C112.574 127.586 112.389 127.689 112.302 127.97L109.062 138.952C108.956 139.296 108.739 139.536 108.409 139.671C106.839 140.338 105.575 139.933 104.618 138.453C104.43 138.163 104.383 137.855 104.476 137.528L107.484 126.594C107.585 126.241 107.458 126.018 107.104 125.924L98.7283 123.751C98.3611 123.653 98.1253 123.786 98.021 124.152C97.3758 126.412 95.5769 138.794 91.3456 135.256C91.0033 134.969 90.7514 134.589 90.6205 134.163C90.4895 133.736 90.485 133.28 90.6076 132.851L93.5167 122.626C93.6082 122.306 93.4937 122.1 93.1732 122.008L84.7884 119.614C84.6701 119.58 84.5431 119.595 84.4345 119.656C84.3259 119.716 84.2444 119.817 84.2074 119.937L80.8629 130.921C80.7849 131.178 80.6519 131.415 80.4729 131.616C80.294 131.816 80.0734 131.976 79.8263 132.083C79.5792 132.19 79.3115 132.243 79.0416 132.237C78.7717 132.232 78.5061 132.168 78.2629 132.05C74.7077 130.297 78.2778 121.873 79.4518 118.673C79.5781 118.327 79.4617 118.104 79.1028 118.001L70.5764 115.556C70.2559 115.464 70.0499 115.579 69.9583 115.899L66.8639 126.736C66.7797 127.03 66.6284 127.3 66.4219 127.525C66.2154 127.751 65.9593 127.925 65.6739 128.034C65.3885 128.143 65.0817 128.184 64.7776 128.154C64.4735 128.124 64.1805 128.024 63.9218 127.862C62.4482 126.928 61.9929 125.73 62.5559 124.269C63.7189 121.252 64.5109 117.786 65.3483 114.635C65.4481 114.261 65.3102 114.028 64.9348 113.935C61.0349 112.915 52.1297 111.869 53.887 105.861C54.7098 103.052 55.4868 100.234 56.2181 97.4059C56.3014 97.09 56.186 96.8872 55.8718 96.7975L47.9774 94.5432C47.6569 94.4517 47.4508 94.5662 47.3593 94.8867L42.7629 110.983C42.6751 111.291 42.7832 111.495 43.0872 111.596C45.781 112.469 49.0105 113.506 48.4918 116.852C47.9662 120.258 46.1408 129.856 42.9776 131.137C40.0794 132.327 32.0365 129.281 29.2245 128.021C24.3273 125.832 28.6953 116.326 29.7771 112.756C30.9675 108.842 33.9208 109.28 37.2903 109.899C37.6475 109.959 37.8746 109.82 37.9716 109.48C39.5806 103.991 41.1553 98.5126 42.6956 93.0454C44.5655 86.4244 53.1155 90.7897 57.3024 92.0061C57.589 92.0949 57.7703 91.9941 57.8463 91.7038L60.2267 82.5662C60.3173 82.2247 60.1987 81.9967 59.8709 81.8822C56.3419 80.6562 52.6345 80.2735 49.8265 78.5253C49.5619 78.3596 49.3934 78.1243 49.321 77.8193C49.0305 76.5786 49.3421 75.5479 50.2559 74.7272C50.5526 74.4653 50.8918 74.3819 51.2737 74.4771L61.5844 77.0469C61.8893 77.1201 62.0839 77.0093 62.1681 76.7144L64.2796 69.32C64.3858 68.9482 64.2498 68.7082 63.8715 68.6002C53.9262 65.8436 44.0166 63.0347 34.1427 60.1736C30.4942 59.111 25.9748 57.7477 27.3052 53.2709C28.4996 49.2579 29.6198 45.2135 30.6659 41.1373C30.7629 40.7491 30.6118 40.5256 30.2125 40.4671C21.0531 39.11 26.3014 28.597 28.1605 23.616C28.9935 21.3787 30.611 20.5337 33.0131 21.0809C39.102 22.4591 42.8869 23.4809 44.3678 24.1465C48.6743 26.073 45.1359 34.9319 44.2065 38.3688C43.0917 42.4669 40.4496 43.7439 36.28 42.1996C36.1959 42.1684 36.1062 42.155 36.0166 42.1602C35.927 42.1653 35.8395 42.189 35.7595 42.2296C35.6795 42.2703 35.6088 42.3271 35.5518 42.3964C35.4948 42.4657 35.4528 42.5461 35.4284 42.6325L32.3011 53.9487C32.2196 54.2582 32.3328 54.4569 32.6405 54.5448L65.3337 63.8803C65.667 63.9755 65.8781 63.8555 65.9669 63.5203L68.3062 54.891C68.3876 54.5814 68.2786 54.3804 67.9792 54.288C63.3884 52.8107 54.0917 52.444 56.2815 45.1759C57.9006 39.8214 59.4515 34.4508 60.9342 29.0642C61.0477 28.6667 60.9016 28.4378 60.4959 28.3775C51.7211 26.9846 57.1604 16.8589 58.5635 12.0181C60.3469 5.88193 71.309 10.5409 74.7034 12.0926C76.7159 13.0208 77.5636 14.386 77.1766 16.6883C76.2068 22.3669 75.0686 26.3162 73.7622 28.5362C72.5263 30.6306 70.2732 31.2491 67.003 30.3916C66.2411 30.1948 65.7521 30.4746 65.5361 31.231L61.1567 46.568C61.0651 46.8885 61.1796 47.0946 61.5002 47.1861L69.385 49.4376C69.6991 49.5273 69.9042 49.416 70.0003 49.1037C70.8763 46.3275 72.0729 39.1502 74.6414 37.8037C77.0986 36.519 83.5837 38.8284 86.0715 39.6948C86.4185 39.8147 86.6424 39.6984 86.7431 39.3458L89.7483 28.8579C90.0613 27.7617 90.7842 27.2575 91.917 27.3452C93.9078 27.5116 94.6699 28.4849 94.2031 30.2651C93.2852 33.7469 92.3906 37.2319 91.5193 40.72C91.4415 41.0167 91.5501 41.2072 91.845 41.2914L100.143 43.661C100.47 43.7544 100.679 43.6408 100.771 43.3203L104.125 32.1935C104.243 31.8043 104.499 31.5653 104.891 31.4764C106.17 31.1758 107.323 31.4705 108.352 32.3605C108.676 32.6333 108.783 32.9726 108.675 33.3783L105.726 44.6519C105.626 45.0255 105.762 45.2654 106.134 45.3716L114.24 47.6863C114.618 47.7943 114.865 47.6569 114.982 47.2741L118.389 35.9234C118.531 35.4509 118.845 35.2599 119.333 35.3505L122.232 35.8665C122.775 35.9589 122.979 36.2739 122.847 36.8115L119.85 48.7994C119.777 49.1044 119.891 49.2998 120.192 49.3859L128.336 51.7115C128.657 51.803 128.867 51.6862 128.967 51.3611ZM72.1476 16.8104C72.1739 16.7186 72.1628 16.6201 72.1166 16.5366C72.0703 16.4531 71.9928 16.3914 71.9011 16.365L63.5397 13.9615C63.4942 13.9484 63.4466 13.9445 63.3997 13.9498C63.3527 13.9552 63.3072 13.9697 63.2659 13.9926C63.2245 14.0155 63.1881 14.0463 63.1586 14.0832C63.1292 14.1202 63.1073 14.1627 63.0942 14.2081L60.608 22.8579C60.5816 22.9496 60.5928 23.0481 60.639 23.1316C60.6852 23.2152 60.7627 23.2769 60.8544 23.3033L69.2159 25.7067C69.2613 25.7197 69.3089 25.7237 69.3559 25.7184C69.4028 25.7131 69.4483 25.6985 69.4897 25.6756C69.531 25.6527 69.5675 25.6219 69.5969 25.585C69.6264 25.548 69.6483 25.5056 69.6613 25.4601L72.1476 16.8104ZM167.256 43.8664C167.276 43.7976 167.267 43.7237 167.233 43.6611C167.198 43.5985 167.14 43.5523 167.071 43.5326L158.397 41.056C158.363 41.0462 158.328 41.0433 158.292 41.0474C158.257 41.0514 158.223 41.0624 158.192 41.0796C158.161 41.0968 158.134 41.12 158.112 41.1478C158.09 41.1755 158.073 41.2074 158.064 41.2415L155.538 50.0878C155.528 50.1219 155.525 50.1576 155.529 50.1929C155.533 50.2281 155.544 50.2621 155.561 50.2931C155.579 50.3241 155.602 50.3514 155.629 50.3735C155.657 50.3955 155.689 50.4119 155.723 50.4216L164.396 52.8983C164.465 52.9179 164.539 52.9094 164.602 52.8746C164.664 52.8399 164.711 52.7816 164.73 52.7128L167.256 43.8664ZM41.5236 28.8548C41.5363 28.8106 41.5402 28.7644 41.535 28.7187C41.5298 28.673 41.5157 28.6288 41.4934 28.5886C41.4712 28.5484 41.4412 28.5129 41.4053 28.4843C41.3693 28.4557 41.3281 28.4344 41.2839 28.4217L32.8263 25.9907C32.7821 25.978 32.7359 25.9741 32.6902 25.9793C32.6446 25.9845 32.6004 25.9985 32.5602 26.0208C32.5199 26.0431 32.4845 26.0731 32.4559 26.109C32.4272 26.145 32.406 26.1862 32.3933 26.2304L29.8959 34.9186C29.8832 34.9628 29.8794 35.009 29.8845 35.0547C29.8897 35.1004 29.9038 35.1445 29.9261 35.1847C29.9483 35.225 29.9783 35.2604 30.0143 35.2891C30.0502 35.3177 30.0914 35.339 30.1356 35.3517L38.5932 37.7827C38.6374 37.7954 38.6836 37.7993 38.7293 37.7941C38.7749 37.789 38.8191 37.7748 38.8593 37.7526C38.8996 37.7303 38.935 37.7003 38.9636 37.6644C38.9923 37.6284 39.0135 37.5872 39.0262 37.543L41.5236 28.8548ZM186.801 70.2723C186.82 70.2061 186.813 70.1349 186.779 70.0745C186.746 70.0141 186.69 69.9693 186.624 69.95L178.156 67.4839C178.123 67.4743 178.089 67.4713 178.055 67.475C178.021 67.4787 177.988 67.4891 177.958 67.5055C177.928 67.522 177.902 67.5441 177.88 67.5707C177.859 67.5974 177.843 67.628 177.834 67.6608L175.261 76.4939C175.242 76.5601 175.25 76.6312 175.283 76.6916C175.316 76.7521 175.372 76.7968 175.438 76.8161L183.906 79.2823C183.939 79.2918 183.974 79.2948 184.008 79.2911C184.041 79.2874 184.074 79.277 184.104 79.2606C184.134 79.2442 184.161 79.222 184.182 79.1954C184.203 79.1688 184.219 79.1381 184.229 79.1054L186.801 70.2723ZM140.332 60.6175C140.342 60.5834 140.345 60.5478 140.341 60.5125C140.337 60.4773 140.326 60.4432 140.308 60.4122C140.291 60.3812 140.268 60.3539 140.24 60.3319C140.213 60.3099 140.181 60.2935 140.147 60.2838L77.4525 42.3815C77.3836 42.3619 77.3098 42.3704 77.2472 42.4052C77.1846 42.4399 77.1384 42.4982 77.1187 42.567L58.8046 106.703C58.785 106.772 58.7935 106.846 58.8283 106.909C58.863 106.971 58.9213 107.018 58.9901 107.037L121.684 124.939C121.718 124.949 121.754 124.952 121.789 124.948C121.824 124.944 121.859 124.933 121.89 124.916C121.921 124.899 121.948 124.875 121.97 124.848C121.992 124.82 122.008 124.788 122.018 124.754L140.332 60.6175ZM43.4498 117.601C43.4745 117.513 43.4816 117.42 43.4707 117.329C43.4597 117.238 43.4308 117.15 43.3857 117.07C43.3406 116.989 43.2802 116.919 43.2079 116.862C43.1356 116.805 43.0528 116.763 42.9643 116.739L35.1641 114.555C34.9853 114.505 34.794 114.528 34.6322 114.62C34.4704 114.711 34.3514 114.862 34.3013 115.041L31.9995 123.265C31.9747 123.353 31.9676 123.446 31.9786 123.537C31.9896 123.628 32.0185 123.717 32.0635 123.797C32.1086 123.877 32.169 123.947 32.2413 124.004C32.3137 124.061 32.3964 124.103 32.485 124.128L40.2852 126.311C40.464 126.361 40.6553 126.338 40.8171 126.247C40.9789 126.156 41.0979 126.004 41.1479 125.825L43.4498 117.601ZM138.459 144.511C138.476 144.453 138.481 144.392 138.473 144.332C138.466 144.272 138.447 144.214 138.418 144.161C138.388 144.109 138.349 144.062 138.301 144.025C138.254 143.988 138.2 143.96 138.141 143.944L129.864 141.611C129.806 141.595 129.745 141.59 129.685 141.597C129.625 141.604 129.567 141.623 129.514 141.653C129.461 141.682 129.415 141.722 129.378 141.769C129.34 141.817 129.313 141.871 129.296 141.929L126.866 150.553C126.85 150.611 126.845 150.672 126.852 150.732C126.859 150.792 126.878 150.85 126.908 150.903C126.937 150.956 126.977 151.002 127.024 151.039C127.072 151.077 127.126 151.104 127.184 151.121L135.462 153.453C135.52 153.47 135.581 153.474 135.641 153.467C135.701 153.46 135.759 153.441 135.811 153.412C135.864 153.382 135.91 153.343 135.948 153.295C135.985 153.248 136.013 153.193 136.029 153.135L138.459 144.511Z" fill="#FBFBFB"/>
<path d="M82.2327 81.3622L94.81 85.2448C95.1423 85.3477 95.4217 85.5758 95.5902 85.8816C95.7586 86.1874 95.803 86.5473 95.7141 86.8862L92.2121 100.207C92.1361 100.497 92.2424 100.683 92.5308 100.766L110.608 105.928C110.89 106.008 111.191 105.974 111.448 105.833C111.704 105.692 111.895 105.455 111.978 105.175L116.177 90.9406C116.276 90.5945 116.502 90.3852 116.856 90.3128C118.263 90.0214 119.459 90.4113 120.442 91.4825C120.713 91.7746 120.8 92.1116 120.705 92.4935C119.987 95.4432 118.625 100.178 116.618 106.697C115.456 110.498 113.022 111.872 109.315 110.821C99.1463 107.924 88.9931 104.997 78.8554 102.04C76.7116 101.414 74.8658 100.606 73.318 99.616C73.036 99.4384 72.8509 99.188 72.763 98.8647C72.3424 97.3511 72.2351 96.2216 72.441 95.4761C75.7688 83.6278 79.1521 71.7918 82.5907 59.9682C84.0349 54.9832 88.5914 56.1803 92.1876 57.28C102.229 60.3554 112.307 63.3162 122.421 66.1626C129.612 68.1848 125.722 76.0905 123.941 80.2515C123.753 80.6901 123.429 80.8403 122.97 80.7021L120.204 79.8605C119.77 79.7296 119.609 79.4444 119.721 79.0048L121.533 71.5665C121.644 71.1269 121.479 70.844 121.037 70.7177L87.9218 61.2201C87.6013 61.1286 87.3953 61.2431 87.3038 61.5636L81.8301 80.6233C81.7221 81.0015 81.8563 81.2478 82.2327 81.3622ZM89.9461 89.4752C89.9599 89.4259 89.9639 89.3744 89.9578 89.3235C89.9517 89.2727 89.9356 89.2235 89.9105 89.1789C89.8854 89.1342 89.8517 89.0949 89.8114 89.0633C89.7712 89.0317 89.7251 89.0083 89.6757 88.9945L80.5658 86.4446C80.5165 86.4308 80.4649 86.4269 80.4141 86.433C80.3632 86.4392 80.3141 86.4552 80.2695 86.4803C80.2248 86.5055 80.1856 86.5392 80.154 86.5795C80.1223 86.6197 80.099 86.6659 80.0852 86.7152L77.4815 96.0176C77.4677 96.0669 77.4637 96.1185 77.4698 96.1694C77.4759 96.2202 77.492 96.2693 77.5171 96.3139C77.5422 96.3586 77.5759 96.3979 77.6162 96.4295C77.6564 96.4611 77.7026 96.4845 77.7519 96.4983L86.8618 99.0482C86.9111 99.062 86.9627 99.0659 87.0135 99.0598C87.0644 99.0536 87.1135 99.0376 87.1581 99.0125C87.2028 98.9873 87.242 98.9537 87.2736 98.9134C87.3053 98.8731 87.3286 98.827 87.3424 98.7777L89.9461 89.4752Z" fill="#FBFBFB"/>
<path d="M26.7946 73.1237L23.626 84.2202C23.5253 84.5728 23.6526 84.7825 24.0079 84.8493C25.8742 85.2089 27.4691 86.0698 28.7926 87.4323C29.0225 87.6712 29.1214 87.956 29.0894 88.2866C28.8115 91.4935 28.1705 94.6003 27.1664 97.6068C25.7001 102.014 25.1265 105.625 19.7362 104.179C15.2755 102.975 12.106 102.032 10.2277 101.35C4.27689 99.1721 9.32459 88.269 11.2607 83.7468C11.4062 83.4071 11.6525 83.1758 11.9996 83.0531C14.0425 82.333 16.0988 82.3794 18.1685 83.1922C18.467 83.3121 18.6634 83.2192 18.7577 82.9133C19.9951 78.871 21.1562 74.8416 22.2407 70.825C23.9004 64.6847 35.2554 69.3519 39.5028 71.1576C39.7931 71.282 39.9942 71.4885 40.1059 71.7769C40.5301 72.8895 40.3343 73.9394 39.5185 74.9267C39.2878 75.2006 38.9962 75.3357 38.6436 75.3321C35.0173 75.2845 31.1159 73.4322 27.5348 72.68C27.1493 72.5976 26.9025 72.7455 26.7946 73.1237ZM23.9647 90.2294C23.9743 90.1952 23.977 90.1595 23.9728 90.1243C23.9685 90.0891 23.9574 90.0551 23.94 90.0242C23.9226 89.9933 23.8994 89.9661 23.8715 89.9442C23.8436 89.9223 23.8116 89.9061 23.7775 89.8965L15.1491 87.4815C15.1149 87.472 15.0793 87.4692 15.044 87.4734C15.0088 87.4777 14.9748 87.4888 14.9439 87.5062C14.913 87.5236 14.8858 87.5469 14.8639 87.5748C14.842 87.6027 14.8259 87.6346 14.8163 87.6687L12.3204 96.5861C12.3108 96.6202 12.3081 96.6559 12.3123 96.6911C12.3166 96.7263 12.3277 96.7603 12.3451 96.7912C12.3625 96.8221 12.3858 96.8493 12.4137 96.8712C12.4415 96.8931 12.4735 96.9093 12.5076 96.9188L21.136 99.3339C21.1702 99.3435 21.2059 99.3462 21.2411 99.3419C21.2763 99.3377 21.3103 99.3266 21.3412 99.3092C21.3721 99.2918 21.3993 99.2685 21.4212 99.2407C21.4431 99.2128 21.4593 99.1808 21.4688 99.1467L23.9647 90.2294Z" fill="#FBFBFB"/>
<path d="M163.867 123.912L166.943 113.143C167.04 112.803 166.919 112.581 166.581 112.478L156.331 109.187C155.937 109.061 155.675 108.802 155.544 108.411C155.178 107.288 155.388 106.224 156.174 105.221C156.402 104.933 156.693 104.812 157.047 104.857C161.546 105.456 173.634 107.046 171.888 113.744C170.856 117.72 169.747 121.678 168.56 125.616C168.449 125.98 168.582 126.195 168.958 126.26C171.037 126.604 172.716 127.597 173.995 129.238C174.218 129.523 174.316 129.846 174.29 130.206C173.856 135.732 172.671 140.32 170.734 143.969C168.503 148.178 158.57 143.813 155.431 142.75C152.189 141.647 152.292 139.358 153.058 136.384C154.185 131.963 155.183 126.684 157.553 124.356C157.841 124.077 158.184 123.953 158.585 123.985L163.256 124.341C163.576 124.363 163.78 124.22 163.867 123.912ZM169.115 131.854C169.128 131.806 169.132 131.756 169.126 131.706C169.12 131.656 169.105 131.609 169.08 131.565C169.056 131.522 169.023 131.483 168.984 131.453C168.944 131.422 168.9 131.399 168.852 131.386L160.551 129.062C160.503 129.049 160.452 129.045 160.403 129.051C160.353 129.057 160.305 129.072 160.262 129.097C160.218 129.121 160.18 129.154 160.149 129.193C160.118 129.233 160.096 129.278 160.082 129.326L157.662 137.973C157.648 138.021 157.644 138.072 157.65 138.121C157.656 138.171 157.672 138.219 157.697 138.262C157.721 138.306 157.754 138.344 157.793 138.375C157.832 138.405 157.877 138.428 157.925 138.442L166.226 140.765C166.274 140.779 166.325 140.782 166.374 140.776C166.424 140.77 166.471 140.755 166.515 140.73C166.558 140.706 166.597 140.673 166.628 140.634C166.658 140.595 166.681 140.55 166.695 140.502L169.115 131.854Z" fill="#FBFBFB"/>
</svg>
