<svg width="332" height="332" viewBox="0 0 332 332" fill="none" xmlns="http://www.w3.org/2000/svg">
<path d="M193.605 97.0727C189.64 101.777 186.698 107.057 184.779 112.912C184.652 113.315 184.387 113.593 183.986 113.746L169.753 119.067C169.431 119.191 169.199 119.407 169.057 119.715L162.624 133.641C162.473 133.968 162.461 134.296 162.587 134.627L167.985 149.292C168.212 149.911 168.456 149.917 168.714 149.31L171.137 143.731C171.295 143.357 171.305 142.979 171.165 142.599L169.762 138.767C169.638 138.431 169.651 138.103 169.799 137.782L174.739 127.088C174.854 126.84 174.868 126.586 174.782 126.326L174.093 124.289C173.959 123.896 174.041 123.56 174.339 123.279C175.783 121.919 177.181 121.882 178.533 123.167C178.772 123.396 178.906 123.678 178.935 124.014C179.087 125.751 178.298 126.735 176.57 126.964C176.201 127.014 175.943 127.207 175.795 127.543L173.184 133.243C173.156 133.305 173.146 133.375 173.158 133.442C173.169 133.509 173.201 133.572 173.248 133.621C173.296 133.67 173.357 133.704 173.424 133.718C173.491 133.732 173.56 133.726 173.623 133.699L178.458 131.747C178.838 131.592 179.113 131.33 179.284 130.961L182.223 124.597C182.372 124.276 182.384 123.948 182.26 123.611L181.723 122.151C181.596 121.806 181.606 121.466 181.754 121.13C182.278 119.933 183.23 119.341 184.612 119.355C184.955 119.36 185.245 119.486 185.483 119.735C186.534 120.86 186.66 122.042 185.861 123.281C185.676 123.57 185.421 123.772 185.096 123.886L183.889 124.331C183.532 124.467 183.274 124.708 183.114 125.052L179.776 132.279C179.625 132.606 179.379 132.829 179.036 132.95L172.927 135.041C172.543 135.172 172.267 135.419 172.099 135.782L171.076 137.997C170.9 138.379 170.885 138.761 171.031 139.144L172.35 142.728C172.464 143.037 172.452 143.34 172.315 143.637L168.831 151.346C168.669 151.712 168.698 152.063 168.917 152.4C169.631 153.493 169.781 154.488 169.367 155.383C161.604 172.22 153.83 189.058 146.043 205.899C145.803 206.419 145.504 206.454 145.147 206.002C145.088 205.924 145.026 205.851 144.961 205.784C144.73 205.538 144.685 205.26 144.828 204.952L167.998 154.795C168.113 154.547 168.123 154.294 168.028 154.038L160.906 134.665C160.788 134.332 160.804 134.005 160.952 133.684L162.189 131.006C162.357 130.643 162.369 130.274 162.226 129.899L158.058 118.82C157.928 118.481 157.939 118.148 158.09 117.822L160.124 113.419C160.239 113.17 160.247 112.921 160.15 112.671L156.531 102.836C156.406 102.485 156.16 102.272 155.791 102.197C152.756 101.588 153.026 97.7141 156.143 97.5461C157.159 97.4939 157.869 97.9357 158.274 98.8718C158.708 99.8725 158.526 100.766 157.73 101.551C157.464 101.81 157.396 102.116 157.526 102.47L161.39 112.968C161.484 113.224 161.475 113.474 161.364 113.716L159.367 118.037C159.191 118.418 159.179 118.802 159.331 119.188L162.748 128.103C162.778 128.179 162.83 128.245 162.897 128.292C162.964 128.339 163.043 128.366 163.125 128.368C163.207 128.371 163.287 128.35 163.357 128.307C163.427 128.264 163.483 128.202 163.518 128.128L170.9 112.173C171.04 111.87 171.049 111.563 170.929 111.25L166.912 100.846C166.789 100.54 166.566 100.363 166.242 100.317C163.698 99.9271 162.526 98.3541 162.727 95.5976C166.954 91.9323 169.366 92.6572 169.962 97.7722C170.007 98.1527 169.879 98.4608 169.579 98.6968L168.618 99.4424C168.327 99.6751 168.247 99.9684 168.377 100.322L172.499 111.358C172.623 111.694 172.609 112.026 172.458 112.353L170.298 117.028C170.066 117.53 170.211 117.685 170.733 117.493L175.334 115.808C175.724 115.664 176.006 115.402 176.182 115.021L178.644 109.692C178.812 109.329 178.824 108.96 178.682 108.585L176.248 102.075C176.121 101.744 176.132 101.419 176.28 101.098L178.184 96.9767C178.329 96.662 178.32 96.3491 178.155 96.038C177.189 94.2185 177.625 92.8374 179.463 91.8947C179.708 91.7674 179.977 91.6951 180.252 91.6828C180.527 91.6706 180.802 91.7187 181.057 91.8238C181.312 91.9289 181.54 92.0884 181.727 92.2912C181.913 92.494 182.053 92.7351 182.137 92.9977C182.886 95.334 182.136 96.5697 179.885 96.7049C179.557 96.7299 179.325 96.8907 179.188 97.1873L177.532 100.773C177.356 101.154 177.341 101.537 177.487 101.92L179.905 108.49C180.048 108.894 180.028 109.288 179.843 109.673L177.594 114.351C177.327 114.896 177.478 115.061 178.047 114.847L183.054 112.974C183.384 112.847 183.625 112.621 183.776 112.294L189.89 99.0578C190.033 98.7491 189.994 98.467 189.775 98.2113C188.627 96.8806 188.787 95.6437 190.255 94.5007C190.642 94.1987 191.119 94.036 191.609 94.0387C192.1 94.0414 192.575 94.2094 192.958 94.5156C193.878 95.2418 194.094 96.0942 193.605 97.0727ZM192.734 97.122C192.806 96.967 192.846 96.7995 192.853 96.6289C192.86 96.4583 192.833 96.2881 192.774 96.1278C192.715 95.9676 192.625 95.8206 192.509 95.6952C192.394 95.5697 192.254 95.4683 192.099 95.3967C191.944 95.3251 191.777 95.2847 191.606 95.2779C191.436 95.2711 191.265 95.2979 191.105 95.3569C190.945 95.4158 190.798 95.5058 190.672 95.6215C190.547 95.7373 190.446 95.8767 190.374 96.0317C190.229 96.3447 190.215 96.7023 190.334 97.0259C190.453 97.3494 190.696 97.6124 191.009 97.757C191.322 97.9016 191.68 97.9159 192.003 97.7968C192.327 97.6778 192.59 97.435 192.734 97.122ZM181.136 94.9257C181.281 94.6127 181.295 94.2551 181.176 93.9315C181.057 93.608 180.814 93.345 180.501 93.2004C180.188 93.0558 179.831 93.0415 179.507 93.1605C179.184 93.2796 178.921 93.5224 178.776 93.8354C178.631 94.1484 178.617 94.506 178.736 94.8295C178.855 95.1531 179.098 95.4161 179.411 95.5607C179.724 95.7053 180.082 95.7196 180.405 95.6005C180.729 95.4815 180.992 95.2387 181.136 94.9257ZM168.248 97.7402C168.48 97.237 168.503 96.6621 168.312 96.1419C168.12 95.6217 167.73 95.1989 167.227 94.9664C166.724 94.7339 166.149 94.7109 165.629 94.9024C165.108 95.0938 164.686 95.4841 164.453 95.9873C164.338 96.2364 164.273 96.5058 164.262 96.7801C164.251 97.0543 164.294 97.328 164.389 97.5856C164.484 97.8432 164.629 98.0795 164.815 98.2812C165.001 98.4829 165.225 98.646 165.474 98.7611C165.723 98.8762 165.993 98.9411 166.267 98.9521C166.541 98.9631 166.815 98.9199 167.072 98.8251C167.33 98.7303 167.566 98.5857 167.768 98.3996C167.97 98.2134 168.133 97.9894 168.248 97.7402ZM157.247 100.546C157.393 100.23 157.407 99.8698 157.287 99.5437C157.167 99.2177 156.923 98.9527 156.607 98.807C156.451 98.7348 156.282 98.6941 156.111 98.6872C155.939 98.6804 155.767 98.7074 155.606 98.7668C155.444 98.8262 155.296 98.9169 155.17 99.0335C155.043 99.1502 154.941 99.2907 154.869 99.4468C154.797 99.603 154.756 99.7719 154.749 99.9438C154.742 100.116 154.769 100.287 154.829 100.449C154.888 100.61 154.979 100.758 155.095 100.885C155.212 101.011 155.353 101.113 155.509 101.185C155.824 101.331 156.184 101.346 156.511 101.226C156.837 101.106 157.102 100.861 157.247 100.546ZM184.073 123.133C184.401 123.115 184.709 122.958 184.928 122.695C185.147 122.432 185.259 122.085 185.241 121.73C185.232 121.554 185.19 121.382 185.12 121.222C185.049 121.063 184.95 120.921 184.828 120.802C184.707 120.684 184.565 120.593 184.412 120.533C184.258 120.474 184.095 120.448 183.932 120.456C183.604 120.474 183.296 120.631 183.077 120.894C182.858 121.158 182.746 121.505 182.764 121.86C182.773 122.035 182.815 122.208 182.885 122.367C182.956 122.526 183.055 122.669 183.177 122.787C183.298 122.905 183.44 122.996 183.594 123.056C183.747 123.115 183.91 123.141 184.073 123.133ZM177.241 123.341C175.768 123.08 175.117 123.623 175.286 124.972C175.31 125.139 175.37 125.298 175.462 125.438C175.554 125.578 175.676 125.695 175.819 125.781C175.963 125.867 176.123 125.92 176.289 125.936C176.455 125.951 176.622 125.929 176.777 125.87C177.32 125.666 177.719 125.318 177.975 124.827C178.403 123.996 178.158 123.501 177.241 123.341Z" fill="#FBFBFB"/>
<path d="M212.731 107.439C212.6 110.011 210.693 110.992 208.538 109.578C208.315 109.424 208.077 109.391 207.823 109.479L202.665 111.227C202.34 111.341 202.099 111.553 201.942 111.862L199.282 117.143C199.096 117.513 199.06 117.9 199.174 118.306L199.665 119.986C199.762 120.332 199.735 120.669 199.584 120.995L192.887 135.493C192.59 136.135 192.774 136.333 193.438 136.089L198.016 134.382C198.29 134.281 198.489 134.097 198.612 133.831L205.326 119.297C205.477 118.97 205.719 118.748 206.052 118.63L211.246 116.711C211.573 116.59 211.761 116.358 211.81 116.013C212.054 114.246 212.989 113.04 214.616 112.397C217.844 112.434 219.235 113.994 218.787 117.077C217.616 119.709 214.68 120.269 212.732 118.191C212.48 117.927 212.184 117.86 211.845 117.99L206.962 119.832C206.555 119.982 206.261 120.254 206.079 120.647L199.411 135.081C199.299 135.323 199.115 135.492 198.858 135.586L179.769 142.619C179.451 142.736 179.222 142.946 179.082 143.249C169.267 164.638 159.403 186 149.488 207.336C149.189 207.983 148.793 207.958 148.3 207.261C148.137 207.024 148.115 206.779 148.232 206.525L177.957 142.178C178.108 141.852 178.35 141.629 178.684 141.512L185.536 138.982C185.855 138.865 186.082 138.651 186.219 138.339L188.592 132.749C188.739 132.398 188.743 132.048 188.604 131.697L187.157 128.01C187.018 127.66 187.026 127.315 187.183 126.976L189.8 121.311C189.965 120.954 189.945 120.607 189.741 120.271C188.917 118.921 189.039 117.887 190.106 117.168C193.545 114.824 196.152 120.699 191.516 121.553C191.187 121.614 190.953 121.796 190.813 122.099L188.481 127.146C188.344 127.443 188.33 127.744 188.438 128.051L189.894 132.172C190.008 132.496 189.993 132.816 189.847 133.131L187.969 137.198C187.826 137.506 187.924 137.669 188.261 137.685C189.931 137.774 191.017 137.259 191.52 136.14C193.817 131.054 196.167 125.953 198.568 120.834C198.717 120.529 198.729 120.215 198.606 119.894L196.082 113.363C195.959 113.042 195.97 112.724 196.115 112.409L199.957 104.094C200.082 103.821 200.118 103.537 200.064 103.24L199.514 100.188C201.868 97.1664 205.744 99.9594 203.828 102.819C203.614 103.139 203.316 103.339 202.933 103.42L201.884 103.64C201.517 103.72 201.27 103.937 201.144 104.289C200.013 107.38 195.85 112.672 198.128 115.586C198.183 115.655 198.256 115.707 198.338 115.738C198.421 115.768 198.51 115.775 198.596 115.758C198.683 115.741 198.763 115.701 198.827 115.641C198.892 115.582 198.94 115.506 198.964 115.422C200.506 109.866 202.872 110.111 207.402 108.315C207.727 108.186 207.913 107.949 207.962 107.604C208.375 104.755 211.839 104.648 212.731 107.439ZM202.732 102.282C202.945 102.175 203.107 101.987 203.182 101.76C203.257 101.534 203.239 101.287 203.131 101.073L202.826 100.466C202.718 100.253 202.531 100.091 202.304 100.016C202.078 99.9409 201.831 99.9591 201.617 100.066L201.046 100.354C200.832 100.461 200.67 100.649 200.595 100.875C200.521 101.102 200.539 101.349 200.646 101.562L200.952 102.17C201.059 102.383 201.246 102.545 201.473 102.62C201.7 102.695 201.947 102.677 202.16 102.569L202.732 102.282ZM211.5 108.291C211.645 107.978 211.659 107.621 211.54 107.297C211.421 106.974 211.178 106.711 210.865 106.566C210.71 106.495 210.543 106.454 210.372 106.447C210.201 106.441 210.031 106.467 209.871 106.526C209.711 106.585 209.564 106.675 209.438 106.791C209.313 106.907 209.211 107.046 209.14 107.201C209.068 107.356 209.028 107.524 209.021 107.694C209.014 107.865 209.041 108.035 209.1 108.195C209.159 108.356 209.249 108.503 209.365 108.628C209.48 108.753 209.62 108.855 209.775 108.926C210.088 109.071 210.445 109.085 210.769 108.966C211.093 108.847 211.356 108.604 211.5 108.291ZM217.324 116.765C217.438 116.517 217.503 116.249 217.514 115.976C217.525 115.703 217.482 115.43 217.387 115.174C217.293 114.918 217.149 114.682 216.964 114.482C216.779 114.281 216.556 114.119 216.308 114.004C215.807 113.773 215.235 113.75 214.717 113.94C214.199 114.131 213.778 114.519 213.547 115.02C213.316 115.521 213.293 116.093 213.483 116.611C213.674 117.129 214.062 117.549 214.563 117.781C214.811 117.895 215.079 117.96 215.352 117.971C215.625 117.982 215.897 117.939 216.154 117.844C216.41 117.75 216.645 117.606 216.846 117.421C217.047 117.236 217.209 117.013 217.324 116.765ZM192.792 119.554C192.939 119.237 192.954 118.873 192.833 118.545C192.712 118.216 192.465 117.949 192.148 117.802C191.83 117.656 191.467 117.641 191.138 117.762C190.81 117.883 190.543 118.129 190.396 118.447C190.249 118.765 190.234 119.128 190.355 119.457C190.476 119.785 190.723 120.052 191.04 120.199C191.358 120.346 191.721 120.36 192.05 120.24C192.378 120.119 192.646 119.872 192.792 119.554Z" fill="#FBFBFB"/>
<path d="M194.472 163.467L200.383 166.098C200.7 166.238 201.026 166.248 201.359 166.131L215.166 161.042C215.511 160.915 215.743 160.676 215.86 160.327C216.541 158.218 217.875 157.634 219.864 158.574C220.108 158.691 220.325 158.858 220.499 159.064C220.674 159.27 220.803 159.512 220.879 159.772C220.954 160.033 220.973 160.306 220.936 160.575C220.898 160.844 220.804 161.102 220.661 161.333C219.555 163.106 218.227 163.374 216.677 162.136C216.38 161.904 216.052 161.851 215.692 161.979L200.947 167.405C200.628 167.522 200.318 167.511 200.015 167.371L192.764 163.945C192.491 163.819 192.211 163.807 191.922 163.908L174.761 170.08C174.26 170.26 174.241 170.475 174.705 170.726L179.905 173.514C180.281 173.717 180.67 173.743 181.071 173.59L187.504 171.23C187.825 171.107 188.141 171.114 188.453 171.25L199.811 176.255C200.122 176.391 200.439 176.405 200.761 176.297L204.874 174.904C205.17 174.805 205.31 174.605 205.294 174.304C205.252 173.514 205.411 172.86 206.159 172.457C211.871 169.367 210.846 179.788 205.974 176.028C205.69 175.816 205.385 175.778 205.058 175.914L200.936 177.611C200.68 177.721 200.424 177.717 200.17 177.599L188.75 172.324C188.429 172.175 188.105 172.162 187.778 172.282L180.835 174.792C180.499 174.916 180.167 174.902 179.841 174.751L172.378 171.282C171.923 171.071 171.403 171.05 170.933 171.221C170.464 171.392 170.083 171.743 169.873 172.196L152.733 209.276C152.706 209.338 152.662 209.392 152.606 209.432C152.551 209.472 152.486 209.496 152.418 209.501C152.349 209.507 152.281 209.495 152.22 209.465C152.158 209.435 152.106 209.389 152.068 209.332L151.759 208.881C151.565 208.601 151.541 208.303 151.687 207.988L168.528 171.53C168.657 171.252 168.861 171.049 169.141 170.921C171.906 169.632 178.603 168.011 180.103 165.575C181.398 163.471 181.351 161.291 179.963 159.034C179.797 158.758 179.552 158.612 179.229 158.596C177.67 158.536 176.876 156.44 177.418 155.148C178.793 151.862 184.018 154.859 181.314 157.73C181.078 157.988 181.015 158.282 181.127 158.613L181.677 160.189C181.867 160.747 182.117 160.778 182.427 160.282C184.233 157.349 185.452 153.638 182.213 151.635C180.361 150.493 179.514 149.276 181.199 147.488C181.586 147.075 182.12 146.831 182.687 146.809C183.253 146.786 183.807 146.987 184.229 147.367C185.589 148.605 185.627 149.842 184.344 151.077C184.074 151.342 184.043 151.632 184.25 151.948C187.248 156.451 182.835 161.187 181.144 165.539C181.003 165.907 181.127 166.078 181.513 166.051C183.312 165.941 184.515 165.109 185.123 163.554C187.548 157.327 190.932 151.147 193.709 145.016C193.846 144.719 194.066 144.513 194.37 144.396L208.478 139.204C208.732 139.115 208.916 138.947 209.03 138.699L212.515 131.155C212.666 130.828 212.909 130.606 213.242 130.488L218.285 128.632C218.613 128.512 218.798 128.278 218.841 127.93C219.199 125.177 222.639 124.596 223.613 127.304C224.534 129.866 221.321 131.312 219.608 129.728C219.371 129.508 219.103 129.454 218.802 129.565L213.971 131.343C213.599 131.479 213.337 131.729 213.184 132.092L209.969 139.386C209.832 139.697 209.603 139.915 209.282 140.038L195.113 145.268C194.785 145.388 194.55 145.603 194.408 145.912C192.512 150 190.64 154.059 188.793 158.09C188.098 159.619 186.702 161.64 186.268 163.841C186.194 164.24 186.347 164.37 186.728 164.23L198.767 159.701C199.05 159.597 199.254 159.408 199.38 159.136L203.7 149.665C203.865 149.293 204.141 149.046 204.528 148.923C206.91 148.129 217.812 145.179 218.049 142.854C218.075 142.543 218.174 142.251 218.344 141.977C219.341 140.359 220.546 139.73 221.959 140.089C228.287 141.701 223.098 150.738 218.606 145.965C218.4 145.744 218.158 145.688 217.881 145.795L205.447 150.438C205.137 150.552 204.917 150.759 204.786 151.058L200.664 160.269C200.535 160.547 200.328 160.741 200.042 160.852L194.479 162.974C194.084 163.13 194.081 163.294 194.472 163.467ZM222.678 128.106C222.687 127.941 222.658 127.776 222.595 127.619C222.531 127.463 222.434 127.319 222.308 127.196C222.182 127.072 222.03 126.971 221.862 126.899C221.693 126.827 221.51 126.786 221.324 126.776C220.948 126.757 220.58 126.872 220.302 127.094C220.024 127.317 219.859 127.629 219.842 127.963C219.834 128.128 219.862 128.294 219.925 128.45C219.989 128.606 220.086 128.75 220.212 128.874C220.338 128.997 220.49 129.098 220.659 129.17C220.827 129.242 221.01 129.284 221.196 129.293C221.573 129.312 221.94 129.198 222.218 128.975C222.496 128.753 222.661 128.44 222.678 128.106ZM223.221 144.56C223.447 144.069 223.47 143.508 223.283 143C223.096 142.492 222.715 142.08 222.224 141.853C221.733 141.626 221.172 141.603 220.664 141.79C220.156 141.977 219.744 142.358 219.517 142.849C219.29 143.34 219.267 143.901 219.454 144.409C219.641 144.917 220.022 145.33 220.513 145.557C221.004 145.783 221.565 145.806 222.073 145.619C222.581 145.432 222.994 145.051 223.221 144.56ZM219.66 160.439C219.643 160.278 219.593 160.122 219.512 159.981C219.431 159.839 219.32 159.714 219.187 159.612C219.053 159.511 218.9 159.436 218.734 159.39C218.568 159.345 218.394 159.331 218.222 159.348C217.874 159.384 217.553 159.547 217.33 159.801C217.107 160.056 217 160.381 217.033 160.706C217.049 160.866 217.1 161.022 217.181 161.164C217.262 161.305 217.372 161.431 217.506 161.532C217.639 161.633 217.793 161.708 217.959 161.754C218.124 161.799 218.298 161.813 218.471 161.796C218.819 161.76 219.14 161.598 219.363 161.343C219.586 161.088 219.693 160.763 219.66 160.439ZM182.921 147.886L181.656 148.646C181.604 148.675 181.559 148.715 181.523 148.762C181.486 148.809 181.46 148.863 181.444 148.921C181.429 148.978 181.425 149.038 181.434 149.097C181.442 149.156 181.461 149.213 181.491 149.264L181.75 149.681C181.971 150.049 182.281 150.343 182.612 150.498C182.944 150.653 183.269 150.656 183.516 150.508L183.683 150.409C183.931 150.26 184.081 149.972 184.1 149.608C184.12 149.243 184.008 148.832 183.789 148.464L183.534 148.037C183.472 147.937 183.373 147.865 183.258 147.836C183.143 147.808 183.022 147.826 182.921 147.886ZM180.783 156.735C180.929 156.418 180.944 156.055 180.823 155.726C180.702 155.397 180.456 155.13 180.138 154.984C179.82 154.837 179.457 154.822 179.128 154.943C178.8 155.064 178.533 155.311 178.386 155.628C178.239 155.946 178.225 156.309 178.346 156.638C178.466 156.966 178.713 157.233 179.031 157.38C179.349 157.527 179.712 157.542 180.04 157.421C180.369 157.3 180.636 157.053 180.783 156.735ZM206.292 174.171L206.917 175.561C206.942 175.616 206.978 175.665 207.022 175.707C207.067 175.748 207.119 175.78 207.175 175.801C207.232 175.822 207.293 175.832 207.353 175.83C207.414 175.827 207.473 175.813 207.528 175.788L208.044 175.553C208.389 175.397 208.671 175.14 208.828 174.839C208.986 174.538 209.006 174.218 208.885 173.947L208.803 173.766C208.682 173.496 208.429 173.298 208.099 173.216C207.77 173.134 207.39 173.175 207.045 173.329L206.52 173.56C206.464 173.585 206.415 173.62 206.374 173.665C206.332 173.709 206.3 173.761 206.279 173.818C206.258 173.875 206.248 173.935 206.251 173.996C206.253 174.056 206.267 174.116 206.292 174.171Z" fill="#FBFBFB"/>
<path d="M150.269 175.576L141.044 150.859C140.917 150.528 140.93 150.2 141.081 149.873L142.427 146.959C142.564 146.663 142.575 146.359 142.461 146.05L139.334 137.511C139.226 137.204 139.019 136.984 138.714 136.85L135.143 135.256C134.765 135.089 134.408 135.122 134.073 135.356C133.398 135.83 132.601 135.95 131.681 135.716C131.465 135.66 131.292 135.54 131.164 135.356L130.313 134.148C130.066 133.806 130.027 133.439 130.194 133.046C130.883 131.411 132.041 130.797 133.667 131.203C134.007 131.294 134.281 131.479 134.489 131.759C134.822 132.199 134.995 132.683 135.009 133.211C135.021 133.613 135.212 133.899 135.581 134.07L139.426 135.857C139.801 136.031 140.056 136.306 140.19 136.684L142.893 144.233C142.923 144.311 142.974 144.378 143.042 144.427C143.109 144.475 143.189 144.503 143.271 144.507C143.353 144.511 143.433 144.49 143.502 144.447C143.572 144.405 143.626 144.342 143.659 144.268L145.534 140.232C145.675 139.944 145.689 139.65 145.579 139.349L139.53 123.16C139.423 122.883 139.227 122.719 138.942 122.669C135.616 122.079 134.555 120.315 135.758 117.375C137.248 113.746 145.326 116.122 141.043 122.031C140.84 122.312 140.8 122.613 140.924 122.934L144.484 132.3C144.503 132.354 144.537 132.401 144.583 132.434C144.629 132.468 144.685 132.487 144.742 132.489C144.8 132.491 144.858 132.476 144.908 132.446C144.958 132.416 144.999 132.372 145.026 132.319L150.149 121.468C150.308 121.123 150.321 120.769 150.188 120.406L146.782 111.133C146.649 110.785 146.408 110.56 146.059 110.458C140.017 108.658 147.452 101.815 148.717 107.852C148.787 108.193 148.719 108.507 148.513 108.793L147.861 109.704C147.653 109.997 147.61 110.311 147.734 110.647L151.408 120.65C151.534 120.98 151.522 121.309 151.371 121.636L145.492 134.363C145.349 134.672 145.342 134.981 145.471 135.29L147.166 139.323C147.308 139.652 147.303 139.981 147.152 140.307L142.832 149.658C142.679 149.991 142.665 150.33 142.792 150.675L148.915 167.372C149.062 167.785 149.284 167.828 149.581 167.503C153.021 163.728 150.451 160.205 149.11 156.336C149.002 156.015 149.037 155.708 149.216 155.416C151.485 151.816 149.232 148.825 147.969 145.334C147.855 145.024 147.867 144.721 148.004 144.424L151.38 137.116C151.542 136.765 151.508 136.434 151.277 136.122C150.413 134.973 150.461 133.835 151.422 132.708C151.628 132.467 151.884 132.274 152.172 132.142C152.46 132.011 152.774 131.945 153.09 131.949C153.406 131.953 153.717 132.027 154 132.165C154.284 132.303 154.533 132.503 154.73 132.749C155.415 133.587 155.638 134.519 155.398 135.547C155.317 135.898 155.116 136.158 154.796 136.326L152.621 137.481C152.349 137.626 152.146 137.841 152.015 138.126L149.184 144.254C149.047 144.55 149.031 144.855 149.136 145.168L150.75 149.879C150.785 149.986 150.852 150.081 150.942 150.149C151.032 150.218 151.141 150.258 151.254 150.264C151.367 150.269 151.479 150.241 151.575 150.181C151.672 150.122 151.748 150.035 151.794 149.931L154.167 144.793C154.302 144.503 154.283 144.226 154.11 143.963C152.691 141.765 153.794 139.807 156.315 139.715C156.572 139.705 156.828 139.747 157.069 139.838C157.309 139.928 157.529 140.067 157.716 140.244C157.902 140.422 158.05 140.635 158.153 140.871C158.255 141.107 158.309 141.361 158.311 141.618C158.321 143.378 157.517 144.369 155.902 144.592C155.512 144.64 155.235 144.842 155.07 145.199L150.356 155.381C150.174 155.759 150.157 156.144 150.307 156.537L152.011 161.168C152.204 161.69 152.416 161.7 152.648 161.198L156.862 152.074C157.01 151.754 156.996 151.442 156.82 151.141L156.181 150.019C156.02 149.732 156.013 149.438 156.159 149.139C159.004 143.337 164.397 151.501 158.755 151.935C158.443 151.96 158.222 152.111 158.094 152.39L152.319 164.89C152.173 165.205 152.272 165.35 152.614 165.324C157.935 164.918 160.117 162.016 159.159 156.616C159.094 156.248 159.201 155.945 159.48 155.707C160.274 155.038 161.193 154.758 162.237 154.866C162.547 154.899 162.845 155.002 163.108 155.168C163.372 155.333 163.594 155.557 163.758 155.822C163.921 156.087 164.022 156.386 164.053 156.696C164.083 157.005 164.042 157.318 163.933 157.61C163.52 158.726 162.765 159.406 161.669 159.648C161.275 159.738 160.988 159.962 160.808 160.319L159.026 163.891C158.835 164.273 158.539 164.54 158.138 164.693L151.673 167.148C151.351 167.271 151.118 167.49 150.973 167.805L150.151 169.584C150.008 169.893 149.995 170.206 150.113 170.525L153.55 179.823C153.67 180.151 153.657 180.475 153.508 180.795L142.55 204.517C142.528 204.566 142.495 204.611 142.454 204.646C142.413 204.682 142.364 204.708 142.311 204.723C142.258 204.739 142.202 204.742 142.147 204.734C142.092 204.726 142.039 204.707 141.992 204.677L141.622 204.429C141.271 204.201 141.184 203.897 141.361 203.516L152.013 180.457C152.51 179.38 152.22 178.592 151.143 178.095L144.983 175.238C144.662 175.09 144.443 174.849 144.326 174.516L139.261 160.489C139.141 160.161 138.913 159.946 138.579 159.843C134.492 158.627 134.111 154.397 132.768 150.913C132.648 150.586 132.418 150.399 132.08 150.353C129.95 150.052 129.309 147.575 130.766 146.067C131.109 145.708 131.57 145.483 132.065 145.434C132.561 145.384 133.058 145.512 133.469 145.795C135.063 146.891 135.228 148.212 133.963 149.758C133.753 150.021 133.709 150.308 133.829 150.621L136.373 157.084C136.499 157.414 136.726 157.654 137.053 157.805L139.413 158.896C139.77 159.061 140.016 159.324 140.149 159.687C141.674 163.762 143.175 167.841 144.653 171.924C145.627 174.632 147.322 175.349 149.875 176.022C150.294 176.134 150.425 175.986 150.269 175.576ZM147.328 108.378C147.469 108.072 147.483 107.723 147.367 107.407C147.251 107.091 147.014 106.834 146.708 106.693C146.402 106.551 146.053 106.537 145.737 106.654C145.42 106.77 145.164 107.007 145.022 107.313C144.952 107.464 144.913 107.628 144.906 107.795C144.9 107.961 144.926 108.128 144.983 108.284C145.041 108.441 145.129 108.584 145.242 108.707C145.355 108.829 145.491 108.928 145.643 108.998C145.794 109.068 145.958 109.108 146.124 109.114C146.291 109.121 146.457 109.095 146.614 109.037C146.77 108.98 146.914 108.892 147.037 108.779C147.159 108.666 147.258 108.529 147.328 108.378ZM140.735 120.005C140.966 119.504 140.989 118.932 140.798 118.414C140.608 117.896 140.219 117.475 139.719 117.244C139.218 117.013 138.646 116.99 138.128 117.18C137.61 117.371 137.189 117.759 136.958 118.26C136.727 118.761 136.704 119.333 136.894 119.851C137.085 120.368 137.473 120.789 137.974 121.021C138.475 121.252 139.047 121.275 139.565 121.084C140.082 120.894 140.503 120.505 140.735 120.005ZM154.381 133.623L152.433 133.263C152.398 133.256 152.361 133.255 152.326 133.262C152.291 133.269 152.257 133.283 152.228 133.303C152.198 133.323 152.172 133.349 152.153 133.379C152.133 133.409 152.119 133.443 152.113 133.478L152.014 134.05C151.971 134.286 151.958 134.526 151.976 134.756C151.994 134.985 152.043 135.2 152.121 135.387C152.198 135.574 152.302 135.73 152.426 135.846C152.551 135.963 152.693 136.037 152.846 136.064L152.999 136.091C153.152 136.12 153.312 136.101 153.47 136.037C153.628 135.972 153.78 135.863 153.919 135.715C154.058 135.568 154.18 135.384 154.279 135.176C154.377 134.967 154.45 134.738 154.494 134.501L154.592 133.93C154.603 133.861 154.587 133.791 154.548 133.734C154.509 133.677 154.449 133.637 154.381 133.623ZM155.494 143.35C155.797 143.436 156.127 143.382 156.411 143.2C156.695 143.018 156.91 142.722 157.008 142.377C157.057 142.207 157.075 142.03 157.062 141.856C157.05 141.682 157.006 141.515 156.934 141.364C156.862 141.213 156.763 141.082 156.643 140.977C156.523 140.872 156.383 140.796 156.233 140.753C155.93 140.667 155.6 140.721 155.316 140.903C155.032 141.085 154.817 141.381 154.719 141.726C154.67 141.896 154.652 142.073 154.665 142.247C154.677 142.421 154.721 142.588 154.793 142.739C154.865 142.89 154.964 143.022 155.084 143.126C155.204 143.231 155.343 143.307 155.494 143.35ZM133.962 134.093C134.109 133.775 134.123 133.412 134.002 133.084C133.881 132.755 133.635 132.488 133.317 132.341C132.999 132.195 132.636 132.18 132.308 132.301C131.979 132.422 131.712 132.668 131.565 132.986C131.419 133.304 131.404 133.667 131.525 133.996C131.646 134.324 131.892 134.591 132.21 134.738C132.528 134.885 132.891 134.899 133.22 134.778C133.548 134.657 133.815 134.411 133.962 134.093ZM159.559 150.606C159.66 150.555 159.749 150.485 159.823 150.399C159.896 150.313 159.952 150.213 159.987 150.106C160.022 149.998 160.035 149.885 160.026 149.773C160.017 149.66 159.986 149.55 159.935 149.45L159.572 148.737C159.52 148.636 159.45 148.547 159.364 148.473C159.278 148.4 159.179 148.344 159.071 148.309C158.964 148.275 158.851 148.261 158.738 148.27C158.625 148.279 158.516 148.31 158.415 148.361L157.774 148.688C157.673 148.739 157.583 148.81 157.51 148.896C157.437 148.982 157.381 149.081 157.346 149.189C157.311 149.296 157.298 149.409 157.307 149.522C157.316 149.634 157.347 149.744 157.398 149.845L157.761 150.558C157.812 150.658 157.883 150.748 157.969 150.821C158.055 150.894 158.154 150.95 158.262 150.985C158.369 151.02 158.482 151.033 158.595 151.024C158.708 151.016 158.817 150.985 158.918 150.933L159.559 150.606ZM160.072 157.049L160.727 158.42C160.753 158.474 160.788 158.523 160.833 158.563C160.877 158.604 160.929 158.635 160.985 158.655C161.042 158.674 161.102 158.683 161.162 158.679C161.221 158.676 161.28 158.661 161.333 158.634L161.999 158.314C162.165 158.235 162.316 158.13 162.444 158.006C162.572 157.882 162.675 157.741 162.747 157.59C162.818 157.44 162.857 157.284 162.86 157.131C162.864 156.977 162.833 156.83 162.768 156.697L162.687 156.539C162.623 156.406 162.528 156.29 162.406 156.198C162.284 156.106 162.138 156.039 161.976 156.001C161.815 155.963 161.641 155.955 161.464 155.978C161.288 156 161.112 156.052 160.947 156.132L160.282 156.452C160.175 156.504 160.093 156.596 160.054 156.707C160.015 156.819 160.021 156.942 160.072 157.049ZM133.525 148.344C133.666 148.04 133.68 147.694 133.564 147.38C133.449 147.067 133.213 146.812 132.91 146.672C132.607 146.531 132.26 146.518 131.946 146.633C131.633 146.748 131.378 146.984 131.238 147.287C131.098 147.59 131.084 147.937 131.199 148.251C131.315 148.564 131.55 148.819 131.853 148.959C132.157 149.099 132.503 149.113 132.817 148.998C133.13 148.882 133.385 148.647 133.525 148.344Z" fill="#FBFBFB"/>
<path d="M179.064 190.001L190.901 185.599C191.213 185.479 191.397 185.256 191.453 184.929C191.993 181.709 196.707 182.377 196.194 186.04C196.156 186.345 196.021 186.598 195.788 186.799C194.563 187.878 193.234 187.925 191.801 186.941C191.524 186.746 191.226 186.708 190.907 186.825L177.851 191.578C177.523 191.698 177.287 191.916 177.142 192.23L175.963 194.781C175.79 195.157 175.507 195.419 175.115 195.568L166.25 198.831C165.913 198.955 165.671 199.177 165.523 199.498L159.719 212.062C159.576 212.371 159.352 212.451 159.046 212.302C158.937 212.252 158.834 212.204 158.738 212.159C158.583 212.081 158.542 211.963 158.615 211.805L164.573 198.717C164.729 198.378 164.981 198.142 165.329 198.009L174.2 194.617C174.468 194.513 174.677 194.338 174.828 194.092C176.343 191.48 177.431 189.188 178.092 187.217C179.935 181.723 185.691 184.382 185.628 179.319C185.627 178.988 185.534 178.688 185.35 178.42C182.918 174.862 191.61 173.38 189.668 178.872C189.543 179.24 189.29 179.469 188.911 179.558C187.104 179.972 185.993 181.169 185.577 183.151C185.501 183.505 185.284 183.698 184.924 183.73C181.385 183.983 179.251 185.916 178.521 189.53C178.423 190.013 178.604 190.17 179.064 190.001ZM188.692 178.102C188.842 177.777 188.857 177.405 188.733 177.069C188.609 176.733 188.357 176.46 188.032 176.31C187.707 176.16 187.336 176.145 187 176.269C186.664 176.392 186.391 176.644 186.24 176.969C186.166 177.13 186.124 177.304 186.117 177.481C186.11 177.659 186.138 177.835 186.199 178.002C186.26 178.168 186.354 178.321 186.474 178.451C186.594 178.581 186.739 178.687 186.9 178.761C187.061 178.835 187.235 178.877 187.412 178.884C187.589 178.891 187.766 178.864 187.932 178.802C188.099 178.741 188.251 178.648 188.382 178.528C188.512 178.407 188.617 178.263 188.692 178.102ZM195.158 185.128C195.146 184.966 195.101 184.807 195.024 184.662C194.948 184.516 194.842 184.387 194.712 184.281C194.583 184.175 194.432 184.094 194.269 184.043C194.106 183.992 193.934 183.973 193.762 183.985C193.591 183.997 193.423 184.041 193.269 184.115C193.115 184.188 192.978 184.29 192.864 184.413C192.751 184.537 192.665 184.68 192.61 184.835C192.555 184.99 192.533 185.153 192.545 185.316C192.556 185.478 192.602 185.636 192.678 185.782C192.754 185.927 192.86 186.057 192.99 186.163C193.12 186.269 193.27 186.35 193.433 186.4C193.596 186.451 193.768 186.471 193.94 186.459C194.112 186.446 194.279 186.402 194.433 186.329C194.587 186.255 194.725 186.154 194.838 186.03C194.951 185.906 195.037 185.763 195.092 185.608C195.147 185.454 195.17 185.29 195.158 185.128Z" fill="#FBFBFB"/>
<path d="M133.489 165.544C130.629 164.917 130.272 161.612 133.247 160.751C133.675 160.625 134.132 160.644 134.547 160.805C134.963 160.965 135.314 161.257 135.547 161.637C136.263 162.79 136.224 163.925 135.429 165.041C135.195 165.373 135.153 165.725 135.305 166.096L137.831 172.242C137.985 172.622 137.984 172.999 137.825 173.374L135.76 178.06C135.666 178.278 135.659 178.524 135.741 178.745L140.068 190.482C140.198 190.821 140.186 191.157 140.032 191.489L135.569 201.126C135.528 201.213 135.466 201.288 135.39 201.346C135.313 201.403 135.223 201.441 135.129 201.455C135.036 201.469 134.94 201.46 134.851 201.428C134.762 201.396 134.683 201.343 134.62 201.272C134.084 200.693 138.197 192.481 138.74 191.256C138.891 190.915 138.904 190.568 138.78 190.217L134.609 178.883C134.504 178.6 134.512 178.321 134.632 178.046L136.644 173.523C136.761 173.253 136.769 172.982 136.668 172.708L134.252 166.205C134.119 165.842 133.865 165.622 133.489 165.544ZM134.827 163.65C134.971 163.337 134.986 162.98 134.867 162.656C134.747 162.333 134.505 162.07 134.192 161.925C133.879 161.78 133.521 161.766 133.198 161.885C132.874 162.004 132.611 162.247 132.466 162.56C132.322 162.873 132.307 163.231 132.427 163.554C132.546 163.878 132.788 164.141 133.101 164.285C133.414 164.43 133.772 164.444 134.096 164.325C134.419 164.206 134.682 163.963 134.827 163.65Z" fill="#FBFBFB"/>
<path d="M172.18 184.563C171.355 187.905 169.365 189.813 166.209 190.287C165.805 190.35 165.518 190.566 165.347 190.935L156.314 210.49C156.175 210.792 155.953 210.874 155.651 210.734L155.197 210.524C155.046 210.454 155.005 210.344 155.075 210.192L164.309 190.202C164.485 189.821 164.77 189.563 165.162 189.429L168.947 188.104C169.245 187.999 169.467 187.804 169.613 187.519L171.477 183.985C171.623 183.7 171.61 183.419 171.438 183.141C169.565 180.183 172.486 177.533 175.193 179.996C175.423 180.212 175.555 180.475 175.589 180.784C175.774 182.735 174.895 183.78 172.952 183.917C172.535 183.945 172.278 184.16 172.18 184.563ZM174.511 181.972C174.657 181.656 174.671 181.296 174.551 180.97C174.431 180.644 174.187 180.379 173.871 180.233C173.556 180.088 173.195 180.073 172.869 180.193C172.543 180.313 172.278 180.558 172.133 180.873C171.987 181.189 171.973 181.549 172.093 181.875C172.213 182.201 172.457 182.466 172.773 182.612C173.088 182.757 173.448 182.772 173.774 182.652C174.1 182.532 174.365 182.287 174.511 181.972Z" fill="#FBFBFB"/>
<path d="M142.475 182.242C141.043 181.955 140.323 181.13 140.313 179.767C140.28 175.5 147.508 177.451 144.414 181.717C144.205 182.009 144.161 182.327 144.282 182.669L145.835 186.89C145.962 187.22 145.951 187.545 145.803 187.866L138.961 202.892C138.929 202.96 138.879 203.018 138.816 203.06C138.753 203.101 138.68 203.125 138.605 203.127C138.53 203.13 138.455 203.112 138.389 203.075C138.324 203.039 138.269 202.984 138.232 202.919L138.047 202.58C137.906 202.331 137.895 202.076 138.015 201.816L144.448 187.89C144.585 187.593 144.603 187.293 144.501 186.989L143.146 182.839C143.044 182.505 142.82 182.306 142.475 182.242ZM143.104 178.424L141.617 178.805C141.558 178.82 141.502 178.846 141.453 178.882C141.404 178.918 141.363 178.963 141.332 179.016C141.301 179.068 141.28 179.126 141.271 179.186C141.262 179.246 141.266 179.307 141.281 179.366L141.387 179.779C141.445 180.003 141.531 180.217 141.639 180.409C141.747 180.602 141.875 180.769 142.017 180.901C142.158 181.033 142.31 181.127 142.464 181.178C142.618 181.229 142.77 181.237 142.912 181.199L143.125 181.143C143.413 181.071 143.643 180.821 143.765 180.45C143.887 180.078 143.891 179.616 143.776 179.164L143.665 178.76C143.65 178.701 143.624 178.645 143.588 178.596C143.552 178.547 143.507 178.506 143.454 178.475C143.402 178.444 143.344 178.423 143.284 178.414C143.224 178.405 143.163 178.409 143.104 178.424Z" fill="#FBFBFB"/>
<path d="M171.503 202.337L171.468 201.77C171.451 201.425 171.575 201.141 171.84 200.918C173.811 199.273 175.999 200.284 176.3 202.78C176.337 203.098 176.259 203.385 176.067 203.642C174.923 205.213 173.619 205.364 172.157 204.094C171.943 203.906 171.707 203.867 171.451 203.977L167.222 205.669C166.903 205.801 166.661 206.016 166.494 206.313C165.583 207.952 163.66 213.475 162.348 214.025C162.261 214.062 162.165 214.069 162.074 214.047C161.982 214.025 161.9 213.974 161.84 213.902C161.78 213.829 161.744 213.74 161.739 213.646C161.733 213.552 161.758 213.459 161.809 213.38C164.75 208.944 164.205 204.187 170.879 203.117C171.321 203.05 171.529 202.79 171.503 202.337ZM174.993 203.057C175.137 202.747 175.151 202.392 175.033 202.071C174.915 201.75 174.674 201.489 174.363 201.345C174.052 201.202 173.698 201.188 173.377 201.306C173.055 201.424 172.794 201.665 172.651 201.975C172.507 202.286 172.493 202.641 172.611 202.962C172.73 203.283 172.97 203.544 173.281 203.687C173.592 203.831 173.947 203.845 174.268 203.727C174.589 203.609 174.85 203.368 174.993 203.057Z" fill="#FBFBFB"/>
<path d="M132.479 189.477L134.13 193.963C134.251 194.29 134.231 194.611 134.071 194.926C133.716 195.622 132.272 200.132 131.208 199.453C130.913 199.266 130.868 199.028 131.074 198.742C133.129 195.916 133.286 193.048 131.547 190.136C131.061 189.328 131.038 189.329 130.089 189.143C129.792 189.087 129.543 188.943 129.341 188.71C128.521 187.736 128.411 186.654 129.013 185.463C129.154 185.186 129.353 184.943 129.596 184.751C129.839 184.558 130.121 184.42 130.421 184.347C130.722 184.273 131.035 184.266 131.339 184.325C131.642 184.384 131.929 184.508 132.179 184.69C133.745 185.831 133.893 187.148 132.623 188.64C132.527 188.756 132.463 188.894 132.437 189.042C132.412 189.189 132.427 189.339 132.479 189.477ZM132.234 187.48C132.379 187.167 132.393 186.809 132.274 186.486C132.155 186.162 131.912 185.899 131.599 185.754C131.286 185.61 130.929 185.596 130.605 185.715C130.281 185.834 130.018 186.076 129.874 186.389C129.729 186.702 129.715 187.06 129.834 187.384C129.953 187.707 130.196 187.97 130.509 188.115C130.822 188.259 131.179 188.274 131.503 188.155C131.827 188.036 132.09 187.793 132.234 187.48Z" fill="#FBFBFB"/>
<path d="M131.995 202.329C130.973 203.318 130.327 204.51 130.057 205.905C130.001 206.217 130.114 206.442 130.395 206.579L157.153 219.095C157.747 219.369 158.256 219.259 158.682 218.765C159.37 217.96 159.849 216.796 160.118 215.276C160.7 215.192 161.173 215.33 161.536 215.688C161.751 215.891 161.794 216.123 161.665 216.387L159.401 221.025C159.261 221.313 159.045 221.39 158.755 221.255L128.361 207.215C127.907 207.005 127.785 206.673 127.995 206.22L130.004 201.871C130.18 201.49 130.47 201.363 130.873 201.491C131.344 201.649 131.718 201.929 131.995 202.329Z" fill="#FBFBFB"/>
<path d="M157.525 225.181C157.449 225.345 157.311 225.472 157.142 225.534C156.973 225.596 156.786 225.589 156.622 225.513L126.319 211.515C126.156 211.439 126.029 211.302 125.966 211.132C125.904 210.963 125.911 210.776 125.987 210.612L126.574 209.341C126.65 209.178 126.787 209.051 126.957 208.988C127.126 208.926 127.313 208.934 127.477 209.009L157.78 223.008C157.943 223.083 158.07 223.221 158.133 223.39C158.195 223.559 158.187 223.746 158.112 223.91L157.525 225.181ZM156.014 223.562C156.003 223.587 155.986 223.61 155.966 223.628C155.946 223.647 155.922 223.661 155.896 223.671C155.87 223.68 155.842 223.685 155.815 223.683C155.787 223.682 155.76 223.676 155.735 223.664L133.403 213.253C133.352 213.229 133.313 213.186 133.294 213.134C133.275 213.082 133.278 213.024 133.301 212.974C133.313 212.949 133.329 212.926 133.35 212.908C133.37 212.889 133.394 212.874 133.42 212.865C133.446 212.856 133.473 212.851 133.501 212.853C133.528 212.854 133.555 212.86 133.58 212.872L155.913 223.283C155.963 223.307 156.002 223.349 156.021 223.402C156.04 223.454 156.038 223.512 156.014 223.562Z" fill="#FBFBFB"/>
<path d="M155.521 229.4C155.438 229.58 155.286 229.72 155.099 229.789C154.912 229.858 154.706 229.85 154.526 229.766L124.44 215.868C124.26 215.785 124.12 215.633 124.051 215.447C123.982 215.26 123.991 215.054 124.074 214.873L124.594 213.747C124.678 213.567 124.829 213.427 125.016 213.358C125.203 213.289 125.409 213.298 125.59 213.381L155.675 227.279C155.855 227.362 155.995 227.514 156.064 227.701C156.133 227.887 156.124 228.094 156.041 228.274L155.521 229.4ZM126.877 215.672C126.824 215.676 126.773 215.698 126.734 215.734C126.694 215.77 126.667 215.818 126.658 215.87C126.649 215.923 126.658 215.978 126.683 216.025C126.708 216.072 126.749 216.109 126.798 216.131L127.914 216.647C128.368 216.857 128.466 216.748 128.208 216.32C127.91 215.822 127.466 215.606 126.877 215.672ZM154.07 228.177C154.084 228.146 154.092 228.113 154.093 228.079C154.095 228.045 154.089 228.011 154.077 227.978C154.066 227.946 154.048 227.917 154.024 227.892C154.001 227.867 153.973 227.847 153.942 227.832L132.301 217.881C132.238 217.852 132.166 217.849 132.102 217.873C132.037 217.897 131.985 217.946 131.956 218.008L131.939 218.045C131.925 218.076 131.917 218.109 131.915 218.144C131.914 218.178 131.92 218.212 131.931 218.244C131.943 218.276 131.961 218.305 131.984 218.33C132.008 218.355 132.036 218.375 132.067 218.39L153.708 228.341C153.771 228.37 153.842 228.373 153.907 228.349C153.972 228.325 154.024 228.276 154.053 228.214L154.07 228.177Z" fill="#FBFBFB"/>
<path d="M148.872 232.42C149.492 231.362 150.293 231.53 151.272 232.923C151.36 233.051 151.479 233.088 151.629 233.032L151.939 232.911C152.319 232.771 152.328 232.617 151.965 232.449L130.609 222.617C128.588 221.683 128.438 221.706 130.159 222.685C131.07 223.194 131.685 223.779 132.003 224.44L122.271 220.065C121.826 219.867 121.739 219.57 122.011 219.174L122.846 217.962C123.065 217.645 123.351 217.568 123.702 217.73L153.932 231.695C154.259 231.846 154.344 232.083 154.187 232.407L153.526 233.766C153.324 234.172 153.016 234.283 152.602 234.099L148.872 232.42Z" fill="#FBFBFB"/>
<path d="M150.513 238.906C148.159 239.486 145.756 240.197 143.303 241.039C137.066 243.192 131.689 242.074 126.78 237.725C123.573 234.866 122.085 229.123 120.31 225.119C120.099 223.986 120.284 223.102 120.864 222.467C121.097 222.215 121.369 222.16 121.677 222.303L151.499 236.079C151.899 236.264 151.982 236.544 151.749 236.922L150.513 238.906ZM133.812 240.268C139.126 242.69 145.393 240.022 149.935 237.582C150.481 237.29 150.472 237.015 149.909 236.755L122.383 223.995C122.244 223.929 122.088 223.907 121.937 223.932C121.785 223.957 121.644 224.027 121.533 224.133C121.422 224.239 121.346 224.376 121.315 224.527C121.283 224.677 121.298 224.833 121.357 224.975L125.905 236.186C126.063 236.575 126.333 236.857 126.714 237.033C129.12 238.137 131.486 239.215 133.812 240.268Z" fill="#FBFBFB"/>
</svg>
