<svg width="324" height="582" viewBox="0 0 324 582" fill="none" xmlns="http://www.w3.org/2000/svg">
<path d="M41.9977 0C41.798 27.7715 41.7356 55.5471 41.8105 83.3269C41.823 86.0833 22.0975 104.268 18.8661 107.398C18.5666 107.689 18.4169 108.043 18.4169 108.458C18.4336 141.759 18.4377 175.056 18.4294 208.348C18.4294 211.803 19.4899 213.275 21.7855 215.545C25.8279 219.528 29.8663 223.577 33.9004 227.693C34.3805 228.18 34.6494 228.834 34.6489 229.514V247.199C34.6489 247.565 34.4992 247.86 34.1998 248.085C33.0603 248.925 31.9623 249.781 30.906 250.654C26.1399 254.571 30.0826 261.156 35.1855 261.455C43.3202 261.917 44.5928 251.477 37.1817 248.447C36.7658 248.28 36.5579 247.977 36.5579 247.536C36.483 242.107 36.4789 236.669 36.5454 231.223C36.5953 226.72 27.3003 218.925 22.3845 214.123C19.228 211.03 19.9016 208.91 19.9515 204.856C20.1262 192.068 20.1013 160.318 19.8767 109.606C19.8767 109.215 20.0139 108.883 20.2884 108.608L42.1848 86.8191C42.8248 86.1798 43.1877 85.3197 43.1954 84.4245C43.553 56.5283 43.4325 28.3868 42.8336 0" stroke="#FBFBFB" stroke-width="2"/>
<path d="M115.921 0C115.73 17.7438 115.659 35.4835 115.709 53.219C115.709 55.6635 116.208 59.268 117.68 60.7397C122.384 65.4043 143.145 83.514 143.157 88.9394C143.22 105.478 143.669 122.228 142.883 138.716C142.658 143.431 142.633 149.105 146.289 152.672C149.62 155.94 166.302 171.044 166.289 174.611C166.247 227.942 166.26 281.278 166.327 334.617C166.327 341.602 166.214 347.588 170.469 351.542C179.593 359.99 188.219 368.575 196.345 377.297C196.866 377.849 197.156 378.586 197.156 379.355C197.173 413.596 197.152 447.803 197.094 481.977C197.094 484.014 196.437 485.752 195.122 487.19C188.867 494.033 182.384 500.652 175.671 507.046C172.34 510.226 173.75 531.566 173.763 537.041C173.763 537.457 173.617 537.815 173.326 538.114L162.222 549.352" stroke="#FBFBFB" stroke-width="2"/>
<path d="M162.222 549.352L157.531 553.679C157.206 553.987 156.828 554.066 156.395 553.916C146.397 550.416 139.41 552.835 135.435 561.175C130.868 570.741 139.864 581.979 150.057 580.407C158.017 579.173 160.475 573.909 164.143 567.461C164.334 567.137 164.355 566.8 164.205 566.451L161.311 559.516C161.145 559.134 161.203 558.789 161.486 558.481L166.015 553.455" stroke="#FBFBFB" stroke-width="2"/>
<path d="M166.015 553.455L180.238 539.935C180.546 539.644 180.696 539.286 180.687 538.862C180.562 533.013 179.24 511.573 182.796 507.607C186.031 504.007 191.949 498.265 200.55 490.383C203.095 488.051 203.968 485.955 203.956 482.675C203.881 447.478 203.923 412.278 204.081 377.073C204.081 376.64 203.943 376.258 203.669 375.925C199.676 371.211 173.451 347.663 173.451 344.159C173.451 287.992 173.447 231.821 173.438 175.646C173.438 172.204 172.989 169.647 170.718 167.365C166.102 162.725 158.541 155.541 150.456 147.06C150.149 146.736 149.995 146.353 149.995 145.913C150.153 127.079 150.12 108.246 149.895 89.4134C149.845 85.1853 148.236 82.5412 145.379 79.8222C141.448 76.093 122.035 58.8439 122.022 54.7156C121.939 36.4729 121.744 18.2344 121.436 0" stroke="#FBFBFB" stroke-width="2"/>
<path d="M212.827 0L200.412 11.462C200.105 11.7364 199.76 11.7987 199.377 11.6491C195.983 10.3436 193.347 11.3456 191.467 14.6549C188.522 19.8558 197.768 24.9569 201.436 18.8705C202.326 17.3904 202.396 15.7399 201.648 13.919C201.481 13.5199 201.54 13.1582 201.822 12.8339C205.449 8.62662 209.292 4.67293 213.351 0.972833C213.787 0.586194 213.725 0.498889 213.451 0" stroke="#FBFBFB" stroke-width="2"/>
<path d="M276.769 0C276.42 6.99692 274.336 53.4435 277.493 56.2871C282.633 60.9102 287.644 65.7286 292.527 70.7424C292.835 71.0584 293.009 71.4367 293.051 71.8774C293.463 76.6044 292.764 82.379 292.864 86.0957C293.363 105.029 292.627 125.882 292.589 142.807C292.577 148.893 293.912 184.527 291.242 187.283C286.784 191.873 282.367 196.496 277.992 201.152C272.09 207.413 263.382 205.617 255.484 205.842" stroke="#FBFBFB" stroke-width="2"/>
<path d="M255.484 205.842L214.149 205.38C213.717 205.372 213.388 205.185 213.164 204.819C209.271 198.549 204.443 196.388 198.678 198.333C182.683 203.746 191.317 225.186 204.992 221.419C209.284 220.239 212.232 217.345 213.837 212.739C213.987 212.315 214.282 212.103 214.723 212.103L255.796 211.666" stroke="#FBFBFB" stroke-width="2"/>
<path d="M255.796 211.666C264.517 212.427 273.276 213.125 277.393 209.608C285.112 203.006 292.473 195.997 299.477 188.58C300.015 188.01 300.322 187.258 300.338 186.472C301.149 148.931 300.363 111.202 300.4 73.6485C300.4 71.4035 299.564 69.5701 298.029 68.1357C292.606 63.0637 287.836 58.0956 283.719 53.2314C283.436 52.8989 283.29 52.5164 283.282 52.084L282.721 0" stroke="#FBFBFB" stroke-width="2"/>
<path d="M318.927 103.644C318.63 103.506 318.378 103.286 318.201 103.01C318.024 102.734 317.93 102.413 317.929 102.085L317.73 57.1851C317.73 56.7278 317.567 56.3329 317.243 56.0003C312.227 50.8784 307.125 45.8354 301.934 40.8715C300.346 39.3499 299.614 37.2628 299.738 34.6104C300.138 26.3787 300.163 15.1537 299.813 0.935415C299.805 0.361693 299.456 0.162138 298.765 0.336749C298.608 0.375804 298.468 0.464651 298.369 0.58904C298.269 0.713429 298.216 0.866154 298.216 1.02272C298.208 12.4889 298.212 23.9841 298.229 35.5084C298.229 39.2875 299.813 40.3102 302.359 42.6425C305.087 45.1453 309.711 49.9097 316.232 56.9357C316.499 57.2267 316.632 57.5718 316.632 57.9709L316.42 101.611C316.42 102.027 316.291 102.401 316.033 102.734L312.252 107.535C311.961 107.91 311.87 108.33 311.978 108.795C314.848 121.629 329.433 108.483 318.927 103.644Z" stroke="#FBFBFB" stroke-width="2"/>
<path d="M263.12 91.7332C267.699 83.2147 256.17 77.6022 251.641 85.6592C249.658 89.1639 251.953 92.494 255.185 93.9158C257.181 94.7889 259.664 94.502 261.922 94.4646C262.338 94.4563 262.691 94.6018 262.983 94.9011L274.224 106.351C274.573 106.7 274.744 107.12 274.736 107.61L274.536 163.848C274.536 164.263 274.419 164.642 274.187 164.983C270.884 169.722 266.855 173.738 262.097 177.031C261.689 177.313 261.244 177.451 260.762 177.442L211.08 177.168C210.556 177.168 210.103 176.985 209.72 176.619C206.476 173.551 187.212 156.015 187.774 152.772C188.606 147.95 186.797 144.769 182.347 143.231C181.947 143.09 181.544 143.085 181.136 143.219C172.839 145.937 171.978 153.583 180.4 156.851C180.858 157.025 181.319 157.029 181.785 156.863L185.241 155.579C185.682 155.412 186.077 155.491 186.426 155.815C193.962 163.058 201.357 170.441 208.61 177.966C209.945 179.363 211.267 179.301 213.064 179.288C222.147 179.222 236.736 179.255 256.832 179.388C265.091 179.438 269.545 172.84 274.673 167.228C277.206 164.459 276.582 163.461 276.632 159.956C276.848 142.221 276.956 124.485 276.956 106.75C276.956 106.301 276.798 105.922 276.482 105.615L263.257 92.6437C262.983 92.3776 262.937 92.0741 263.12 91.7332Z" stroke="#FBFBFB" stroke-width="2"/>
<path d="M169.733 63.4711C168.435 60.7771 166.41 59.6837 163.657 60.1909C156.532 61.513 158.604 70.5678 165.64 70.4805C166.056 70.4722 166.414 70.3267 166.713 70.044C169.196 67.6992 170.581 66.3896 174.299 66.3896C195.077 66.4229 215.854 66.4271 236.632 66.4021C238.653 66.4021 240.325 65.7536 241.685 64.4564C250.077 56.4659 258.271 48.3091 266.264 39.9859C266.752 39.4732 267.024 38.79 267.025 38.0777V1.24721C267.025 0.623604 266.713 0.311798 266.089 0.311798L265.528 0.311798C265.187 0.311798 265.008 0.482252 264.991 0.823159C264.492 12.7799 264.409 24.7366 264.742 36.6933C264.767 37.9405 264.405 39.4496 263.606 40.2354C255.996 47.6439 248.456 55.1231 240.986 62.6729C239.988 63.6707 238.716 64.0947 237.393 64.1072C215.176 64.3899 192.96 64.3899 170.743 64.1072C170.277 64.0989 169.941 63.8869 169.733 63.4711Z" stroke="#FBFBFB" stroke-width="2"/>
<path d="M252.278 139.24L250.868 140.001C250.452 140.217 250.128 140.529 249.895 140.936C244.268 150.465 262.334 153.284 259.639 141.971C259.539 141.522 259.298 141.165 258.915 140.899L256.145 138.966C255.788 138.708 255.596 138.359 255.571 137.918C255.122 129.861 256.046 114.42 254 112.175C251.288 109.198 244.609 102.7 233.962 92.6811C233.654 92.3984 233.297 92.2238 232.889 92.1573C222.546 90.461 209.645 91.6833 199.028 91.6584C198.479 91.6584 197.863 91.5628 197.181 91.3715C196.757 91.2468 196.387 91.0306 196.071 90.723L191.068 85.8588C190.743 85.5428 190.361 85.4472 189.92 85.5719C178.579 88.7773 186.688 102.634 194.337 95.1256C194.628 94.8346 194.973 94.6309 195.372 94.5145C196.836 94.0821 197.951 93.8618 198.716 93.8535C210.036 93.8452 221.203 93.8493 232.215 93.866C233.07 93.8663 233.887 94.2027 234.486 94.8014C237.418 97.7323 252.964 112.038 253.026 114.944C253.193 122.71 253.151 130.48 252.902 138.255C252.885 138.704 252.677 139.032 252.278 139.24Z" stroke="#FBFBFB" stroke-width="2"/>
<path d="M228.41 33.1886L241.66 19.544C241.968 19.2197 242.118 18.8372 242.109 18.3965L241.673 0.972826C241.656 0.532141 241.427 0.311798 240.986 0.311798C240.845 0.311798 240.699 0.311798 240.55 0.311798C240.462 0.311782 240.375 0.329285 240.294 0.363282C240.213 0.397279 240.139 0.447088 240.078 0.509797C240.016 0.572506 239.968 0.646857 239.935 0.728502C239.903 0.810147 239.887 0.897447 239.888 0.985298C239.897 6.13217 239.893 11.3081 239.876 16.5132C239.863 21.315 232.353 26.9774 227.686 31.8166C227.404 32.1076 227.058 32.2241 226.651 32.1659C222.717 31.5755 219.913 33.0888 218.242 36.7057C218.084 37.0633 218.042 37.4333 218.117 37.8158C220.088 47.2572 232.452 43.1414 228.198 34.5106C227.957 34.0201 228.027 33.5794 228.41 33.1886Z" stroke="#FBFBFB" stroke-width="2"/>
<path d="M183.033 114.882C186.626 107.535 178.504 100.451 172.228 105.902C165.615 111.639 173.538 120.195 181.174 117.226C181.564 117.077 181.914 117.143 182.222 117.426C186.705 121.592 191.08 125.878 195.347 130.285C197.069 132.043 201.61 130.871 203.582 130.908C212.182 131.066 220.82 131.212 229.495 131.345C229.823 131.349 230.143 131.447 230.417 131.628C230.692 131.81 230.909 132.066 231.042 132.368C232.802 136.271 238.466 136.484 240.25 133.153C244.255 125.633 233.687 121.529 230.78 128.314C230.622 128.68 230.344 128.863 229.945 128.863L197.131 128.875C196.765 128.875 196.453 128.751 196.195 128.501C193.426 125.882 186.052 116.752 183.345 115.692C182.954 115.534 182.85 115.264 183.033 114.882Z" stroke="#FBFBFB" stroke-width="2"/>
<path d="M171.005 34.0866L152.091 16.0517C151.717 15.7025 151.525 15.2701 151.517 14.7546L151.305 0.823152C151.297 0.291004 151.047 0.116393 150.556 0.299318L149.882 0.548763C149.342 0.748319 149.084 1.13496 149.109 1.70868L149.571 15.2785C149.587 15.7441 149.766 16.1432 150.107 16.4758L169.471 35.3837C169.787 35.6913 169.874 36.053 169.733 36.4688C165.066 50.263 187.749 48.1053 182.122 37.0425C180.051 32.9765 176.158 31.4549 172.166 34.1863C171.758 34.4691 171.371 34.4358 171.005 34.0866Z" stroke="#FBFBFB" stroke-width="2"/>
<path d="M166.739 0.659044C166.741 0.751627 166.907 0.836684 167.201 0.895508C167.495 0.954332 167.892 0.982106 168.306 0.972721C168.511 0.968075 168.713 0.954444 168.902 0.932605C169.091 0.910767 169.262 0.881149 169.406 0.845443C169.55 0.809737 169.664 0.768642 169.741 0.724505C169.819 0.680367 169.858 0.634051 169.857 0.588202C169.855 0.49562 169.689 0.410563 169.395 0.351739C169.101 0.292915 168.703 0.265141 168.29 0.274526C168.085 0.279172 167.883 0.292803 167.694 0.314641C167.505 0.33648 167.334 0.366097 167.19 0.401803C167.046 0.437509 166.932 0.478604 166.854 0.522742C166.777 0.566879 166.738 0.613195 166.739 0.659044Z" stroke="#FBFBFB" stroke-width="2"/>
<path d="M142.908 280.899L142.871 195.851C142.871 195.485 142.767 195.153 142.559 194.854C141.735 193.673 141.091 192.875 140.625 192.459C134.711 187.071 129.059 181.417 123.669 175.497C120.899 172.441 121.436 170.084 121.411 166.192C121.27 149.787 121.311 133.382 121.536 116.977C121.548 115.618 121.087 114.62 120.176 113.747C111.509 105.557 103.087 97.1129 94.9108 88.4156C94.6197 88.1079 94.4575 87.7462 94.4242 87.3305C92.952 71.0418 93.9126 53.7927 93.8752 37.3668C93.8752 36.9427 93.7213 36.5852 93.4135 36.2942C87.3 30.4073 80.3755 24.8447 75.2975 17.8727C75.0397 17.5152 74.9025 17.1161 74.8859 16.6754L74.4742 0.773286C74.4659 0.59036 74.3784 0.465638 74.2121 0.39912C74.1123 0.36586 74.0041 0.320129 73.8877 0.261925C73.7669 0.203327 73.6333 0.176643 73.4992 0.18434C73.365 0.192037 73.2346 0.233866 73.1202 0.305962C73.0058 0.378058 72.9111 0.478096 72.8446 0.596834C72.7781 0.715572 72.7421 0.84918 72.7399 0.985314L72.6275 17.8478C72.6239 18.162 72.6865 18.474 72.8111 18.7639C72.9357 19.0538 73.1197 19.3153 73.3513 19.5315C79.1737 25.0359 84.9295 30.5653 90.6188 36.1196C92.2657 37.7285 92.5901 39.4122 92.615 41.545C92.7148 51.2317 92.719 64.9553 92.6275 82.7158C92.6275 83.9006 91.8789 87.2682 92.9394 88.2909C100.151 95.2587 107.279 102.322 114.324 109.481C118.279 113.497 119.989 114.545 120.038 119.721C120.23 137.074 120.168 154.427 119.851 171.78C119.826 173.264 120.375 175.31 121.299 176.233C127.662 182.627 134.058 189.029 140.488 195.44C140.743 195.703 140.886 196.056 140.887 196.425L140.812 280.625C140.812 281.049 140.621 281.353 140.238 281.535C119.677 291.488 139.265 309.985 149.521 297.587C154.474 291.601 150.057 284.08 143.644 281.922C143.153 281.756 142.908 281.415 142.908 280.899Z" stroke="#FBFBFB" stroke-width="2"/>
<path d="M126.689 342.362L113.788 329.479C113.464 329.163 113.301 328.78 113.301 328.331L112.89 297.088C112.882 296.612 113.014 296.144 113.269 295.742C113.524 295.341 113.891 295.024 114.325 294.831C116.87 293.696 118.417 290.69 117.182 287.984C113.975 280.987 105.678 286.387 107.562 292.349C107.704 292.79 107.97 293.13 108.361 293.372L111.056 295.043C111.447 295.292 111.646 295.646 111.655 296.103C111.667 300.107 111.33 328.369 112.578 329.628C116.811 333.919 121.058 338.197 125.316 342.462C125.599 342.753 125.745 343.107 125.753 343.522C125.766 345.443 124.917 347.114 125.192 348.811C127.076 360.622 144.356 353.089 137.094 344.246C134.857 341.519 131.767 340.966 127.824 342.587C127.4 342.762 127.022 342.687 126.689 342.362Z" stroke="#FBFBFB" stroke-width="2"/>
<path d="M105.428 256.903C106.759 256.903 108.034 256.375 108.975 255.434C109.916 254.494 110.444 253.219 110.444 251.889C110.444 251.231 110.314 250.579 110.062 249.97C109.81 249.362 109.441 248.809 108.975 248.344C108.509 247.878 107.956 247.509 107.348 247.257C106.739 247.005 106.087 246.875 105.428 246.875C104.77 246.875 104.118 247.005 103.509 247.257C102.901 247.509 102.348 247.878 101.882 248.344C101.416 248.809 101.047 249.362 100.795 249.97C100.543 250.579 100.413 251.231 100.413 251.889C100.413 253.219 100.941 254.494 101.882 255.434C102.823 256.375 104.098 256.903 105.428 256.903Z" stroke="#FBFBFB" stroke-width="2"/>
<path d="M50.0576 104.068C50.124 104.001 50.2088 103.956 50.3012 103.937C50.3936 103.919 50.4894 103.928 50.5764 103.964C50.6634 104 50.7377 104.061 50.7898 104.14C50.8418 104.219 50.8693 104.311 50.8687 104.405L50.8687 186.846C50.8687 187.312 51.035 187.707 51.3677 188.031C54.1126 190.675 68.3358 203.322 68.3358 206.103C68.3442 242.506 68.34 278.908 68.3234 315.31C68.3234 316.208 67.999 317.094 68.0114 318.154C68.0198 318.603 67.841 318.948 67.475 319.189C65.2542 320.661 62.4469 322.906 62.6964 325.812C63.5199 335.478 79.0782 332.248 74.7488 323.08C73.4388 320.312 70.4818 320.075 70.4818 315.784C70.4735 291.422 70.4943 266.993 70.5442 242.497C70.5467 242.365 70.5876 242.236 70.6618 242.127C70.736 242.017 70.8403 241.931 70.9615 241.881C71.0827 241.83 71.2155 241.817 71.3432 241.842C71.4709 241.867 71.588 241.931 71.6796 242.024L77.2192 247.574C77.5352 247.89 77.6933 248.268 77.6933 248.709L77.6933 311.743C77.6933 312.117 77.8263 312.433 78.0925 312.691C81.9228 316.433 90.7437 322.881 90.2821 328.656C89.7913 334.692 89.704 340.749 90.0201 346.828C90.0451 347.243 89.8995 347.593 89.5835 347.875C86.8761 350.345 83.5946 352.278 84.8048 356.419C87.9115 367.157 104.044 358.826 95.4849 350.395C94.6531 349.571 93.7798 348.732 92.8648 347.875C92.5903 347.618 92.453 347.297 92.453 346.915L92.1162 323.742C92.1079 323.209 91.9207 322.76 91.5547 322.394L81.4113 312.242C81.0869 311.918 80.9123 311.531 80.8873 311.082C79.752 293.471 80.6378 275.212 80.8873 257.551C80.9206 255.148 80.7334 252.479 80.3258 249.544C79.4649 243.246 69.808 239.504 69.858 236.349C70.016 226.055 69.9245 215.728 69.5835 205.368C69.5719 205.024 69.492 204.686 69.3485 204.373C69.205 204.061 69.0007 203.78 68.7475 203.547C65.6658 200.728 52.7276 189.466 52.7027 185.824C52.5363 158.144 52.424 130.439 52.3658 102.709C52.3658 102.268 52.5115 101.881 52.8026 101.549C55.0858 98.8923 62.372 93.1301 62.3845 89.7252C62.4261 74.7918 62.4012 59.0102 62.3097 42.3806C62.3069 42.2898 62.3317 42.2003 62.3808 42.1239C62.43 42.0475 62.5011 41.9877 62.5849 41.9526C62.6687 41.9175 62.7613 41.9086 62.8502 41.9271C62.9392 41.9456 63.0204 41.9907 63.0833 42.0563L77.2441 56.1001C77.5436 56.3994 77.6933 56.7569 77.6933 57.1727V107.199C77.6933 107.656 77.8555 108.047 78.1799 108.371L87.8617 118.224C88.1528 118.515 88.2983 118.864 88.2983 119.272V130.884C88.2983 131.299 88.1528 131.657 87.8617 131.956L77.1942 142.857C76.9141 143.145 76.7575 143.53 76.7575 143.929V199.556C76.7575 199.963 76.9072 200.3 77.2067 200.566C80.6086 203.642 83.9273 206.802 87.1629 210.045C90.3195 213.213 89.1842 219.174 89.0969 222.579C89.0802 223.037 88.8723 223.369 88.473 223.577C83.0707 226.408 81.2741 230.1 87.1131 234.141C87.4458 234.374 87.8158 234.49 88.2234 234.49C94.7986 234.378 95.0731 228.865 91.5048 224.737C91.2303 224.421 91.0599 224.059 90.9933 223.652C90.2323 219.112 92.0912 212.577 88.5478 209.596C86.876 208.199 83.5906 204.869 78.6915 199.605C78.3587 199.248 78.1924 198.828 78.1924 198.346L78.3546 143.842C78.3546 143.401 78.5126 143.027 78.8287 142.72L86.3644 135.324C86.5245 135.17 86.7261 135.067 86.9442 135.026C87.1624 134.986 87.3876 135.011 87.592 135.097C87.7964 135.183 87.9711 135.327 88.0944 135.512C88.2177 135.696 88.2842 135.913 88.2859 136.134C88.3025 150.236 88.3067 164.484 88.2983 178.877C88.2859 181.384 89.0719 181.87 90.7687 183.379C94.3536 186.555 99.0282 191.253 104.792 197.473C105.025 197.73 105.142 198.03 105.142 198.371V246.326C105.14 246.424 105.167 246.52 105.22 246.602C105.273 246.684 105.35 246.748 105.441 246.786C105.531 246.824 105.63 246.833 105.726 246.814C105.822 246.794 105.91 246.746 105.978 246.676C107.101 245.541 106.377 203.409 106.389 198.234C106.389 197.809 106.244 197.444 105.953 197.136C103.395 194.517 89.8454 182.157 89.8454 179.6C89.8704 159.362 89.8704 139.356 89.8454 119.584C89.845 119.053 89.722 118.529 89.4861 118.053C89.2503 117.577 88.9079 117.162 88.4855 116.84C85.0669 114.246 79.8642 110.354 79.8767 105.702C79.8767 89.6129 80.8249 72.6258 79.5648 56.6613C79.5232 56.1791 79.3319 55.7675 78.9909 55.4266L62.7838 39.275C62.4844 38.9674 62.3305 38.6015 62.3222 38.1775L62.0103 3.00581C62.002 2.67322 62.0768 2.36141 62.2348 2.07039C62.6507 1.2888 62.4594 0.648558 61.6609 0.149669C61.5138 0.0588061 61.345 0.00876489 61.1722 0.00469482C60.9993 0.000624748 60.8286 0.0426728 60.6773 0.126512C60.5261 0.210351 60.3999 0.332954 60.3118 0.481704C60.2237 0.630454 60.1769 0.79998 60.1761 0.972836L60.1013 90.8976C60.1013 91.2634 59.9723 91.5752 59.7145 91.833C51.3053 100.248 42.8047 108.571 34.2125 116.802C32.9399 118.025 32.3618 119.837 32.4782 122.24C32.9274 131.711 32.89 144.703 32.366 161.216C32.3493 161.64 32.1538 161.948 31.7795 162.139C25.0795 165.656 26.7141 174.399 34.0753 174.561C42.0603 174.723 43.0708 164.446 36.0715 161.927C35.7466 161.809 35.4658 161.595 35.2672 161.314C35.0685 161.033 34.9617 160.698 34.961 160.355V120.07C34.961 119.613 35.1233 119.218 35.4476 118.885L50.0576 104.068Z" stroke="#FBFBFB" stroke-width="2"/>
<path d="M19.2156 279.315L18.9785 229.826C18.9785 229.385 18.8246 229.007 18.5169 228.691L3.90685 214.036C3.6186 213.74 3.45741 213.346 3.45772 212.938L3.45772 106.288C3.45772 105.856 3.61159 105.486 3.91934 105.178L28.2486 80.7202C28.7516 80.2167 29.0343 79.5305 29.0347 78.812L29.0347 1.09755C29.0347 0.573715 28.7727 0.311798 28.2486 0.311798L27.5001 0.311798C27.4052 0.312736 27.3116 0.333688 27.2256 0.37323C27.1396 0.412773 27.0633 0.46998 27.0017 0.540967C26.9402 0.611954 26.8949 0.69506 26.8689 0.78464C26.843 0.87422 26.8369 0.968177 26.8513 1.06013C27.4751 5.18844 26.8887 10.0526 26.8638 13.0834C26.7307 36.5311 26.8555 57.3223 27.2381 75.4569C27.288 77.889 27.4002 79.1362 25.5786 80.9572C17.9097 88.5985 10.2492 96.2481 2.59691 103.906C0.949999 105.565 2.23499 200.591 2.03537 211.654C1.98546 214.659 2.87126 215.021 4.80513 216.954C8.93903 221.078 13.1354 225.261 17.3941 229.501C17.6935 229.792 17.8432 230.15 17.8432 230.574L17.7185 278.717C17.7185 279.216 17.4772 279.536 16.9948 279.677C6.95112 282.483 12.2537 295.866 20.6629 291.476C25.3791 289.019 24.7552 282.421 19.8769 280.326C19.4361 280.134 19.2156 279.798 19.2156 279.315Z" stroke="#FBFBFB" stroke-width="2"/>
<path d="M255.796 211.666C255.733 210.02 257.53 206.577 255.484 205.842" stroke="#FBFBFB" stroke-width="2"/>
<path d="M253.389 88.1248C253.401 88.6357 253.522 89.1391 253.745 89.6063C253.968 90.0735 254.289 90.4953 254.69 90.8476C255.091 91.2 255.564 91.476 256.081 91.6598C256.599 91.8437 257.151 91.9319 257.706 91.9193C258.828 91.8938 259.894 91.4595 260.67 90.712C261.447 89.9644 261.87 88.9648 261.846 87.933C261.835 87.4221 261.714 86.9187 261.491 86.4516C261.267 85.9844 260.946 85.5626 260.545 85.2102C260.144 84.8579 259.672 84.5819 259.154 84.398C258.637 84.2142 258.085 84.126 257.529 84.1386C256.408 84.1641 255.342 84.5983 254.565 85.3459C253.789 86.0935 253.366 87.0931 253.389 88.1248Z" stroke="#FBFBFB" stroke-width="2"/>
<path d="M181.174 153.932C181.703 153.932 182.227 153.828 182.716 153.626C183.205 153.423 183.649 153.126 184.024 152.752C184.398 152.378 184.694 151.934 184.897 151.445C185.099 150.957 185.204 150.433 185.204 149.904C185.204 148.835 184.779 147.811 184.024 147.055C183.268 146.3 182.243 145.875 181.174 145.875C180.645 145.875 180.121 145.979 179.632 146.182C179.143 146.384 178.698 146.681 178.324 147.055C177.95 147.429 177.653 147.873 177.451 148.362C177.248 148.851 177.144 149.375 177.144 149.904C177.144 150.433 177.248 150.957 177.451 151.445C177.653 151.934 177.95 152.378 178.324 152.752C178.698 153.126 179.143 153.423 179.632 153.626C180.121 153.828 180.645 153.932 181.174 153.932Z" stroke="#FBFBFB" stroke-width="2"/>
<path d="M202.035 215.271C203.497 215.271 204.9 214.69 205.934 213.656C206.968 212.622 207.549 211.22 207.549 209.758C207.549 208.296 206.968 206.894 205.934 205.86C204.9 204.826 203.497 204.245 202.035 204.245C201.311 204.245 200.593 204.388 199.924 204.665C199.255 204.942 198.647 205.348 198.135 205.86C197.623 206.372 197.217 206.979 196.94 207.648C196.663 208.317 196.52 209.034 196.52 209.758C196.52 211.22 197.101 212.622 198.135 213.656C199.169 214.69 200.572 215.271 202.035 215.271Z" stroke="#FBFBFB" stroke-width="2"/>
<path d="M166.015 553.455C165.191 551.725 163.927 550.358 162.222 549.352" stroke="#FBFBFB" stroke-width="2"/>
<path d="M175.996 43.3659C176.493 43.3659 176.984 43.2682 177.443 43.0782C177.901 42.8883 178.318 42.61 178.669 42.259C179.02 41.9081 179.299 41.4915 179.489 41.033C179.679 40.5745 179.776 40.0831 179.776 39.5868C179.776 38.5845 179.378 37.6233 178.669 36.9146C177.96 36.2059 176.999 35.8077 175.996 35.8077C174.993 35.8077 174.032 36.2059 173.323 36.9146C172.614 37.6233 172.216 38.5845 172.216 39.5868C172.216 40.0831 172.313 40.5745 172.503 41.033C172.693 41.4915 172.972 41.9081 173.323 42.259C173.674 42.61 174.091 42.8883 174.549 43.0782C175.008 43.2682 175.5 43.3659 175.996 43.3659Z" stroke="#FBFBFB" stroke-width="2"/>
<path d="M148.672 574.683C150.833 574.683 152.905 573.825 154.433 572.297C155.961 570.77 156.82 568.698 156.82 566.538C156.82 564.378 155.961 562.307 154.433 560.779C152.905 559.252 150.833 558.394 148.672 558.394C146.512 558.394 144.439 559.252 142.911 560.779C141.383 562.307 140.525 564.378 140.525 566.538C140.525 568.698 141.383 570.77 142.911 572.297C144.439 573.825 146.512 574.683 148.672 574.683Z" stroke="#FBFBFB" stroke-width="2"/>
<path d="M141.224 298.997C143.156 298.997 145.01 298.229 146.376 296.863C147.743 295.497 148.51 293.645 148.51 291.713C148.51 289.781 147.743 287.928 146.376 286.562C145.01 285.196 143.156 284.429 141.224 284.429C139.292 284.429 137.438 285.196 136.072 286.562C134.705 287.928 133.938 289.781 133.938 291.713C133.938 293.645 134.705 295.497 136.072 296.863C137.438 298.229 139.292 298.997 141.224 298.997Z" stroke="#FBFBFB" stroke-width="2"/>
<path d="M131.966 352.852C133.227 352.852 134.436 352.351 135.327 351.46C136.219 350.569 136.72 349.36 136.72 348.1C136.72 346.839 136.219 345.631 135.327 344.74C134.436 343.848 133.227 343.348 131.966 343.348C130.705 343.348 129.496 343.848 128.605 344.74C127.713 345.631 127.212 346.839 127.212 348.1C127.212 349.36 127.713 350.569 128.605 351.46C129.496 352.351 130.705 352.852 131.966 352.852Z" stroke="#FBFBFB" stroke-width="2"/>
<path d="M91.2802 359.512C92.5377 359.512 93.7436 359.012 94.6327 358.124C95.5218 357.235 96.0212 356.029 96.0212 354.772C96.0212 353.515 95.5218 352.31 94.6327 351.421C93.7436 350.532 92.5377 350.033 91.2802 350.033C90.0228 350.033 88.8169 350.532 87.9278 351.421C87.0386 352.31 86.5391 353.515 86.5391 354.772C86.5391 356.029 87.0386 357.235 87.9278 358.124C88.8169 359.012 90.0228 359.512 91.2802 359.512Z" stroke="#FBFBFB" stroke-width="2"/>
<path d="M34.1625 173.077C34.7982 173.077 35.4278 172.952 36.0151 172.709C36.6024 172.465 37.136 172.109 37.5855 171.66C38.035 171.21 38.3917 170.677 38.635 170.09C38.8783 169.503 39.0034 168.873 39.0034 168.238C39.0034 166.954 38.4933 165.723 37.5855 164.816C36.6776 163.908 35.4464 163.399 34.1625 163.399C32.8786 163.399 31.6474 163.908 30.7395 164.816C29.8317 165.723 29.3216 166.954 29.3216 168.238C29.3216 168.873 29.4469 169.503 29.6902 170.09C29.9334 170.677 30.29 171.21 30.7395 171.66C31.189 172.109 31.7227 172.465 32.3101 172.709C32.8974 172.952 33.5268 173.077 34.1625 173.077Z" stroke="#FBFBFB" stroke-width="2"/>
<path d="M35.3976 259.709C36.7146 259.709 37.9777 259.186 38.909 258.255C39.8402 257.324 40.3633 256.062 40.3633 254.745C40.3633 253.429 39.8402 252.166 38.909 251.235C37.9777 250.304 36.7146 249.781 35.3976 249.781C34.0807 249.781 32.8177 250.304 31.8865 251.235C30.9552 252.166 30.432 253.429 30.432 254.745C30.432 256.062 30.9552 257.324 31.8865 258.255C32.8177 259.186 34.0807 259.709 35.3976 259.709Z" stroke="#FBFBFB" stroke-width="2"/>
<path d="M318.928 103.644C329.433 108.483 314.848 121.629 311.978 108.795C311.87 108.33 311.962 107.91 312.253 107.535L316.033 102.734C316.291 102.401 316.42 102.027 316.42 101.611L316.632 57.9709C316.632 57.5718 316.499 57.2267 316.233 56.9357C309.712 49.9097 305.087 45.1453 302.359 42.6425C299.814 40.3102 298.229 39.2875 298.229 35.5084C298.213 23.9841 298.208 12.4889 298.217 1.02272C298.216 0.866154 298.27 0.713429 298.369 0.58904C298.469 0.464651 298.608 0.375804 298.766 0.336749C299.456 0.162138 299.805 0.361693 299.814 0.935415C300.163 15.1537 300.138 26.3787 299.739 34.6104C299.614 37.2628 300.346 39.3499 301.935 40.8715C307.125 45.8354 312.228 50.8784 317.244 56.0003C317.568 56.3329 317.73 56.7278 317.73 57.1851L317.93 102.085C317.93 102.413 318.024 102.734 318.201 103.01C318.378 103.286 318.63 103.506 318.928 103.644Z" fill="#FBFBFB"/>
<path d="M255.796 211.666C255.734 210.02 257.53 206.577 255.484 205.842C263.382 205.617 272.091 207.413 277.992 201.152C282.367 196.496 286.784 191.873 291.242 187.283C293.912 184.527 292.577 148.893 292.59 142.807C292.627 125.882 293.363 105.029 292.864 86.0957C292.764 82.379 293.463 76.6044 293.051 71.8774C293.01 71.4367 292.835 71.0584 292.527 70.7424C287.645 65.7286 282.633 60.9102 277.493 56.2871C274.336 53.4435 276.42 6.99692 276.769 0L282.721 0L283.282 52.084C283.29 52.5164 283.436 52.8989 283.719 53.2314C287.836 58.0956 292.606 63.0637 298.029 68.1357C299.564 69.5701 300.4 71.4035 300.4 73.6485C300.363 111.202 301.149 148.931 300.338 186.472C300.322 187.258 300.015 188.01 299.477 188.58C292.473 195.997 285.112 203.006 277.393 209.608C273.276 213.125 264.517 212.427 255.796 211.666Z" fill="#FBFBFB"/>
<path d="M263.257 92.6437L276.482 105.615C276.799 105.922 276.957 106.301 276.957 106.75C276.957 124.485 276.848 142.221 276.632 159.956C276.582 163.461 277.206 164.459 274.673 167.228C269.546 172.84 265.091 179.438 256.832 179.388C236.736 179.255 222.147 179.222 213.064 179.288C211.267 179.301 209.945 179.363 208.61 177.966C201.357 170.441 193.963 163.058 186.427 155.815C186.077 155.491 185.682 155.412 185.241 155.579L181.785 156.863C181.32 157.029 180.858 157.025 180.4 156.851C171.979 153.583 172.84 145.937 181.137 143.219C181.544 143.085 181.948 143.09 182.347 143.231C186.797 144.769 188.606 147.95 187.774 152.772C187.213 156.015 206.476 173.551 209.72 176.619C210.103 176.985 210.556 177.168 211.08 177.168L260.762 177.442C261.244 177.451 261.689 177.313 262.097 177.031C266.855 173.738 270.885 169.722 274.187 164.983C274.42 164.642 274.536 164.263 274.536 163.848L274.736 107.61C274.744 107.12 274.574 106.7 274.224 106.351L262.983 94.9011C262.692 94.6018 262.338 94.4563 261.922 94.4646C259.664 94.502 257.181 94.7889 255.185 93.9158C251.954 92.494 249.658 89.1639 251.642 85.6592C256.171 77.6022 267.699 83.2147 263.12 91.7332C262.937 92.0741 262.983 92.3776 263.257 92.6437ZM253.39 88.1249C253.401 88.6357 253.522 89.1391 253.745 89.6063C253.968 90.0735 254.29 90.4953 254.69 90.8476C255.091 91.2 255.564 91.476 256.081 91.6599C256.599 91.8437 257.151 91.9319 257.706 91.9193C258.828 91.8938 259.894 91.4596 260.67 90.712C261.447 89.9644 261.87 88.9648 261.846 87.933C261.835 87.4221 261.714 86.9187 261.491 86.4516C261.268 85.9844 260.946 85.5626 260.545 85.2102C260.145 84.8579 259.672 84.5819 259.154 84.398C258.637 84.2142 258.085 84.126 257.53 84.1386C256.408 84.1641 255.342 84.5983 254.565 85.3459C253.789 86.0935 253.366 87.0931 253.39 88.1249ZM181.174 153.932C181.703 153.932 182.227 153.828 182.716 153.626C183.205 153.423 183.649 153.126 184.024 152.752C184.398 152.378 184.695 151.934 184.897 151.445C185.1 150.957 185.204 150.433 185.204 149.904C185.204 148.835 184.779 147.811 184.024 147.055C183.268 146.3 182.243 145.875 181.174 145.875C180.645 145.875 180.121 145.979 179.632 146.182C179.143 146.384 178.699 146.681 178.324 147.055C177.95 147.429 177.653 147.873 177.451 148.362C177.248 148.851 177.144 149.375 177.144 149.904C177.144 150.433 177.248 150.957 177.451 151.445C177.653 151.934 177.95 152.378 178.324 152.752C178.699 153.126 179.143 153.423 179.632 153.626C180.121 153.828 180.645 153.932 181.174 153.932Z" fill="#FBFBFB"/>
<path d="M170.743 64.1072C192.96 64.3899 215.177 64.3899 237.393 64.1072C238.716 64.0947 239.988 63.6707 240.987 62.6729C248.456 55.1231 255.996 47.6439 263.607 40.2354C264.405 39.4496 264.767 37.9405 264.742 36.6933C264.409 24.7366 264.492 12.7799 264.991 0.823159C265.008 0.482252 265.187 0.311798 265.528 0.311798L266.089 0.311798C266.713 0.311798 267.025 0.623604 267.025 1.24721V38.0777C267.025 38.79 266.752 39.4732 266.264 39.9859C258.271 48.3091 250.078 56.4659 241.685 64.4564C240.325 65.7536 238.653 66.4021 236.632 66.4021C215.855 66.4271 195.077 66.4229 174.299 66.3896C170.581 66.3896 169.196 67.6992 166.714 70.044C166.414 70.3267 166.056 70.4722 165.641 70.4805C158.604 70.5678 156.533 61.513 163.657 60.1909C166.41 59.6837 168.435 60.7771 169.733 63.4711C169.941 63.8869 170.278 64.0989 170.743 64.1072Z" fill="#FBFBFB"/>
<path d="M252.902 138.255C253.151 130.48 253.193 122.71 253.027 114.944C252.964 112.038 237.418 97.7323 234.486 94.8014C233.887 94.2027 233.07 93.8663 232.216 93.866C221.203 93.8493 210.036 93.8452 198.716 93.8535C197.951 93.8618 196.836 94.0821 195.372 94.5145C194.973 94.6309 194.628 94.8346 194.337 95.1256C186.689 102.634 178.579 88.7773 189.92 85.5719C190.361 85.4472 190.744 85.5428 191.068 85.8588L196.071 90.723C196.387 91.0306 196.757 91.2468 197.181 91.3715C197.864 91.5628 198.479 91.6584 199.028 91.6584C209.646 91.6833 222.546 90.461 232.889 92.1573C233.297 92.2238 233.655 92.3984 233.962 92.6811C244.609 102.7 251.288 109.198 254 112.175C256.046 114.42 255.123 129.861 255.572 137.918C255.597 138.359 255.788 138.708 256.146 138.966L258.915 140.899C259.298 141.165 259.539 141.522 259.639 141.971C262.334 153.284 244.268 150.465 249.895 140.936C250.128 140.529 250.452 140.217 250.868 140.001L252.278 139.24C252.677 139.032 252.885 138.704 252.902 138.255Z" fill="#FBFBFB"/>
<path d="M255.796 211.666L214.723 212.103C214.283 212.103 213.987 212.315 213.838 212.739C212.232 217.345 209.284 220.239 204.992 221.419C191.317 225.186 182.684 203.746 198.679 198.333C204.443 196.388 209.271 198.549 213.164 204.819C213.388 205.185 213.717 205.372 214.15 205.38L255.484 205.842C257.531 206.577 255.734 210.02 255.796 211.666ZM202.035 215.271C203.497 215.271 204.9 214.69 205.934 213.656C206.968 212.622 207.549 211.22 207.549 209.758C207.549 208.296 206.968 206.894 205.934 205.86C204.9 204.826 203.497 204.245 202.035 204.245C201.311 204.245 200.593 204.388 199.924 204.665C199.255 204.942 198.647 205.348 198.135 205.86C197.623 206.372 197.217 206.979 196.94 207.648C196.663 208.317 196.52 209.034 196.52 209.758C196.52 211.22 197.101 212.622 198.135 213.656C199.169 214.69 200.572 215.271 202.035 215.271Z" fill="#FBFBFB"/>
<path d="M228.198 34.5106C232.453 43.1414 220.088 47.2572 218.117 37.8158C218.042 37.4333 218.084 37.0633 218.242 36.7057C219.914 33.0888 222.717 31.5755 226.651 32.1659C227.059 32.2241 227.404 32.1076 227.687 31.8166C232.353 26.9774 239.864 21.315 239.876 16.5132C239.893 11.3081 239.897 6.13217 239.889 0.985298C239.887 0.897447 239.903 0.810147 239.935 0.728502C239.968 0.646857 240.016 0.572506 240.078 0.509797C240.139 0.447088 240.213 0.397279 240.294 0.363282C240.375 0.329285 240.462 0.311782 240.55 0.311798C240.7 0.311798 240.845 0.311798 240.987 0.311798C241.427 0.311798 241.656 0.532141 241.673 0.972826L242.11 18.3965C242.118 18.8372 241.968 19.2197 241.66 19.544L228.41 33.1886C228.028 33.5794 227.957 34.0201 228.198 34.5106Z" fill="#FBFBFB"/>
<path d="M183.345 115.692C186.053 116.752 193.426 125.882 196.196 128.501C196.454 128.751 196.766 128.875 197.132 128.875L229.945 128.863C230.344 128.863 230.623 128.68 230.781 128.314C233.688 121.529 244.256 125.633 240.251 133.153C238.467 136.484 232.802 136.271 231.043 132.368C230.909 132.066 230.692 131.81 230.418 131.628C230.144 131.447 229.824 131.349 229.496 131.345C220.821 131.212 212.183 131.066 203.582 130.908C201.611 130.871 197.069 132.043 195.348 130.285C191.081 125.878 186.705 121.592 182.222 117.426C181.914 117.143 181.565 117.077 181.174 117.226C173.538 120.195 165.616 111.639 172.228 105.902C178.504 100.451 186.626 107.535 183.033 114.882C182.85 115.264 182.954 115.534 183.345 115.692Z" fill="#FBFBFB"/>
<path d="M212.827 0L213.451 0C213.726 0.498889 213.788 0.586194 213.351 0.972833C209.292 4.67293 205.449 8.62662 201.823 12.8339C201.54 13.1582 201.482 13.5199 201.648 13.919C202.397 15.7399 202.326 17.3904 201.436 18.8705C197.768 24.9569 188.523 19.8558 191.467 14.6549C193.347 11.3456 195.984 10.3436 199.377 11.6491C199.76 11.7987 200.105 11.7364 200.413 11.462L212.827 0Z" fill="#FBFBFB"/>
<path d="M166.015 553.455C165.192 551.725 163.927 550.358 162.222 549.352L173.326 538.114C173.617 537.815 173.763 537.457 173.763 537.041C173.75 531.566 172.341 510.226 175.672 507.046C182.384 500.652 188.868 494.033 195.123 487.19C196.437 485.752 197.094 484.014 197.094 481.977C197.152 447.803 197.173 413.596 197.157 379.355C197.156 378.586 196.866 377.849 196.345 377.297C188.219 368.575 179.594 359.99 170.469 351.542C166.215 347.588 166.327 341.602 166.327 334.617C166.26 281.278 166.248 227.942 166.289 174.611C166.302 171.044 149.621 155.94 146.29 152.672C142.634 149.105 142.659 143.431 142.883 138.716C143.669 122.228 143.22 105.478 143.158 88.9394C143.145 83.514 122.385 65.4043 117.681 60.7397C116.209 59.268 115.709 55.6635 115.709 53.219C115.66 35.4835 115.73 17.7438 115.922 0L121.436 0C121.744 18.2344 121.94 36.4729 122.023 54.7156C122.035 58.8439 141.449 76.093 145.379 79.8222C148.236 82.5412 149.845 85.1853 149.895 89.4134C150.12 108.246 150.153 127.079 149.995 145.913C149.995 146.353 150.149 146.736 150.457 147.06C158.541 155.541 166.102 162.725 170.719 167.365C172.989 169.647 173.439 172.204 173.439 175.646C173.447 231.821 173.451 287.992 173.451 344.159C173.451 347.663 199.677 371.211 203.669 375.925C203.944 376.258 204.081 376.64 204.081 377.073C203.923 412.278 203.881 447.478 203.956 482.675C203.969 485.955 203.095 488.051 200.55 490.383C191.95 498.265 186.032 504.007 182.796 507.607C179.24 511.573 180.563 533.013 180.688 538.862C180.696 539.286 180.546 539.644 180.238 539.935L166.015 553.455Z" fill="#FBFBFB"/>
<path d="M172.166 34.1863C176.158 31.4549 180.051 32.9765 182.122 37.0425C187.749 48.1053 165.067 50.263 169.733 36.4688C169.874 36.053 169.787 35.6913 169.471 35.3837L150.107 16.4758C149.766 16.1432 149.587 15.7441 149.571 15.2785L149.109 1.70868C149.084 1.13496 149.342 0.748319 149.883 0.548763L150.557 0.299318C151.047 0.116393 151.297 0.291004 151.305 0.823152L151.517 14.7546C151.526 15.2701 151.717 15.7025 152.091 16.0517L171.006 34.0866C171.372 34.4358 171.758 34.4691 172.166 34.1863ZM175.996 43.3659C176.493 43.3659 176.984 43.2682 177.443 43.0782C177.902 42.8883 178.318 42.61 178.669 42.259C179.02 41.9081 179.299 41.4915 179.489 41.033C179.679 40.5745 179.777 40.0831 179.777 39.5868C179.777 38.5845 179.378 37.6233 178.669 36.9146C177.96 36.2059 176.999 35.8077 175.996 35.8077C174.994 35.8077 174.032 36.2059 173.323 36.9146C172.614 37.6233 172.216 38.5845 172.216 39.5868C172.216 40.0831 172.314 40.5745 172.503 41.033C172.693 41.4915 172.972 41.9081 173.323 42.259C173.674 42.61 174.091 42.8883 174.55 43.0782C175.008 43.2682 175.5 43.3659 175.996 43.3659Z" fill="#FBFBFB"/>
<path d="M168.29 0.274483C167.429 0.294018 166.735 0.466165 166.739 0.658986C166.743 0.851806 167.445 0.992283 168.306 0.972748C169.167 0.953214 169.862 0.781066 169.857 0.588246C169.853 0.395425 169.151 0.254949 168.29 0.274483Z" fill="#FBFBFB"/>
<path d="M166.015 553.455L161.486 558.481C161.203 558.789 161.145 559.134 161.311 559.516L164.206 566.451C164.356 566.8 164.335 567.137 164.144 567.461C160.476 573.909 158.018 579.173 150.058 580.407C139.864 581.979 130.869 570.741 135.435 561.175C139.411 552.835 146.398 550.416 156.396 553.916C156.828 554.066 157.207 553.987 157.531 553.679L162.222 549.352C163.927 550.358 165.192 551.725 166.015 553.455ZM148.673 574.683C150.833 574.683 152.906 573.825 154.434 572.297C155.962 570.77 156.82 568.698 156.82 566.538C156.82 564.378 155.962 562.307 154.434 560.779C152.906 559.252 150.833 558.394 148.673 558.394C146.512 558.394 144.44 559.252 142.912 560.779C141.384 562.307 140.525 564.378 140.525 566.538C140.525 568.698 141.384 570.77 142.912 572.297C144.44 573.825 146.512 574.683 148.673 574.683Z" fill="#FBFBFB"/>
<path d="M143.644 281.922C150.057 284.08 154.474 291.601 149.521 297.587C139.265 309.985 119.677 291.488 140.238 281.535C140.621 281.353 140.812 281.049 140.812 280.625L140.887 196.425C140.887 196.056 140.743 195.703 140.488 195.44C134.058 189.029 127.662 182.627 121.299 176.233C120.376 175.31 119.827 173.264 119.852 171.78C120.168 154.427 120.23 137.074 120.039 119.721C119.989 114.545 118.28 113.497 114.325 109.481C107.279 102.322 100.151 95.2587 92.9397 88.2909C91.8792 87.2682 92.6278 83.9006 92.6278 82.7158C92.7192 64.9553 92.7151 51.2317 92.6153 41.545C92.5903 39.4122 92.2659 37.7285 90.619 36.1196C84.9297 30.5653 79.1739 25.0359 73.3515 19.5315C73.1199 19.3153 72.9359 19.0538 72.8113 18.7639C72.6867 18.474 72.6242 18.162 72.6278 17.8478L72.7402 0.985314C72.7424 0.84918 72.7783 0.715572 72.8448 0.596834C72.9113 0.478096 73.0061 0.378058 73.1205 0.305962C73.2349 0.233866 73.3653 0.192037 73.4994 0.18434C73.6335 0.176643 73.7671 0.203327 73.8879 0.261925C74.0044 0.320129 74.1125 0.36586 74.2123 0.39912C74.3787 0.465638 74.4661 0.59036 74.4744 0.773286L74.8861 16.6754C74.9028 17.1161 75.0399 17.5152 75.2978 17.8727C80.3757 24.8447 87.3003 30.4073 93.4138 36.2942C93.7215 36.5852 93.8754 36.9427 93.8754 37.3668C93.9128 53.7927 92.9522 71.0418 94.4245 87.3305C94.4577 87.7462 94.6199 88.1079 94.9111 88.4156C103.087 97.1129 111.509 105.557 120.176 113.747C121.087 114.62 121.548 115.618 121.536 116.977C121.311 133.382 121.27 149.787 121.411 166.192C121.436 170.084 120.9 172.441 123.669 175.497C129.059 181.417 134.711 187.071 140.625 192.459C141.091 192.875 141.736 193.673 142.559 194.854C142.767 195.153 142.871 195.485 142.871 195.851L142.908 280.899C142.908 281.415 143.154 281.756 143.644 281.922ZM141.224 298.997C143.157 298.997 145.01 298.229 146.376 296.863C147.743 295.497 148.51 293.645 148.51 291.713C148.51 289.781 147.743 287.928 146.376 286.562C145.01 285.196 143.157 284.429 141.224 284.429C139.292 284.429 137.438 285.196 136.072 286.562C134.705 287.928 133.938 289.781 133.938 291.713C133.938 293.645 134.705 295.497 136.072 296.863C137.438 298.229 139.292 298.997 141.224 298.997Z" fill="#FBFBFB"/>
<path d="M127.824 342.587C131.767 340.966 134.857 341.519 137.094 344.246C144.356 353.089 127.076 360.622 125.192 348.811C124.917 347.114 125.766 345.443 125.753 343.522C125.745 343.107 125.599 342.753 125.316 342.462C121.058 338.197 116.811 333.919 112.578 329.628C111.33 328.369 111.667 300.107 111.655 296.103C111.646 295.646 111.447 295.292 111.056 295.043L108.361 293.372C107.97 293.13 107.704 292.79 107.562 292.349C105.678 286.387 113.975 280.987 117.182 287.984C118.417 290.69 116.87 293.696 114.325 294.831C113.891 295.024 113.524 295.341 113.269 295.742C113.014 296.144 112.882 296.612 112.89 297.088L113.301 328.331C113.301 328.78 113.464 329.163 113.788 329.479L126.689 342.362C127.022 342.687 127.4 342.762 127.824 342.587ZM131.966 352.852C133.227 352.852 134.436 352.351 135.328 351.46C136.219 350.569 136.72 349.36 136.72 348.1C136.72 346.839 136.219 345.631 135.328 344.74C134.436 343.848 133.227 343.348 131.966 343.348C130.706 343.348 129.497 343.848 128.605 344.74C127.714 345.631 127.213 346.839 127.213 348.1C127.213 349.36 127.714 350.569 128.605 351.46C129.497 352.351 130.706 352.852 131.966 352.852Z" fill="#FBFBFB"/>
<path d="M100.413 251.889C100.413 254.658 102.659 256.903 105.429 256.903C108.199 256.903 110.444 254.658 110.444 251.889C110.444 249.12 108.199 246.875 105.429 246.875C102.659 246.875 100.413 249.12 100.413 251.889Z" fill="#FBFBFB"/>
<path d="M50.0576 104.068L35.4476 118.885C35.1233 119.218 34.961 119.613 34.961 120.07V160.355C34.9617 160.698 35.0685 161.033 35.2672 161.314C35.4658 161.595 35.7466 161.809 36.0715 161.927C43.0708 164.446 42.0603 174.723 34.0753 174.561C26.7141 174.399 25.0795 165.656 31.7795 162.139C32.1538 161.948 32.3493 161.64 32.366 161.216C32.89 144.703 32.9274 131.711 32.4782 122.24C32.3618 119.837 32.9399 118.025 34.2125 116.802C42.8047 108.571 51.3053 100.248 59.7145 91.833C59.9723 91.5752 60.1013 91.2634 60.1013 90.8976L60.1761 0.972836C60.1769 0.79998 60.2237 0.630454 60.3118 0.481704C60.3999 0.332954 60.5261 0.210351 60.6773 0.126512C60.8286 0.0426728 60.9993 0.000624748 61.1722 0.00469482C61.345 0.00876489 61.5138 0.0588061 61.6609 0.149669C62.4594 0.648558 62.6507 1.2888 62.2348 2.07039C62.0768 2.36141 62.002 2.67322 62.0103 3.00581L62.3222 38.1775C62.3305 38.6015 62.4844 38.9674 62.7838 39.275L78.9909 55.4266C79.3319 55.7675 79.5232 56.1791 79.5648 56.6613C80.8249 72.6258 79.8767 89.6129 79.8767 105.702C79.8642 110.354 85.0669 114.246 88.4855 116.84C88.9079 117.162 89.2503 117.577 89.4861 118.053C89.722 118.529 89.845 119.053 89.8454 119.584C89.8704 139.356 89.8704 159.362 89.8454 179.6C89.8454 182.157 103.395 194.517 105.953 197.136C106.244 197.444 106.389 197.809 106.389 198.234C106.377 203.409 107.101 245.541 105.978 246.676C105.91 246.746 105.822 246.794 105.726 246.814C105.63 246.833 105.531 246.824 105.441 246.786C105.35 246.748 105.273 246.684 105.22 246.602C105.167 246.52 105.14 246.424 105.142 246.326V198.371C105.142 198.03 105.025 197.73 104.792 197.473C99.0282 191.253 94.3536 186.555 90.7687 183.379C89.0719 181.87 88.2859 181.384 88.2983 178.877C88.3067 164.484 88.3025 150.236 88.2859 136.134C88.2842 135.913 88.2177 135.696 88.0944 135.512C87.9711 135.327 87.7964 135.183 87.592 135.097C87.3876 135.011 87.1624 134.986 86.9442 135.026C86.7261 135.067 86.5245 135.17 86.3644 135.324L78.8287 142.72C78.5126 143.027 78.3546 143.401 78.3546 143.842L78.1924 198.346C78.1924 198.828 78.3587 199.248 78.6915 199.605C83.5906 204.869 86.876 208.199 88.5478 209.596C92.0912 212.577 90.2323 219.112 90.9933 223.652C91.0599 224.059 91.2303 224.421 91.5048 224.737C95.0731 228.865 94.7986 234.378 88.2234 234.49C87.8158 234.49 87.4458 234.374 87.1131 234.141C81.2741 230.1 83.0707 226.408 88.473 223.577C88.8723 223.369 89.0802 223.037 89.0969 222.579C89.1842 219.174 90.3195 213.213 87.1629 210.045C83.9273 206.802 80.6086 203.642 77.2067 200.566C76.9072 200.3 76.7575 199.963 76.7575 199.556V143.929C76.7575 143.53 76.9141 143.145 77.1942 142.857L87.8617 131.956C88.1528 131.657 88.2983 131.299 88.2983 130.884V119.272C88.2983 118.864 88.1528 118.515 87.8617 118.224L78.1799 108.371C77.8555 108.047 77.6933 107.656 77.6933 107.199V57.1727C77.6933 56.7569 77.5436 56.3994 77.2441 56.1001L63.0833 42.0563C63.0204 41.9907 62.9392 41.9456 62.8502 41.9271C62.7613 41.9086 62.6687 41.9175 62.5849 41.9526C62.5011 41.9877 62.43 42.0475 62.3808 42.1239C62.3317 42.2003 62.3069 42.2898 62.3097 42.3806C62.4012 59.0102 62.4261 74.7918 62.3845 89.7252C62.372 93.1301 55.0858 98.8923 52.8026 101.549C52.5115 101.881 52.3658 102.268 52.3658 102.709C52.424 130.439 52.5363 158.144 52.7027 185.824C52.7276 189.466 65.6658 200.728 68.7475 203.547C69.0007 203.78 69.205 204.061 69.3485 204.373C69.492 204.686 69.5719 205.024 69.5835 205.368C69.9245 215.728 70.016 226.055 69.858 236.349C69.808 239.504 79.4649 243.246 80.3258 249.544C80.7334 252.479 80.9206 255.148 80.8873 257.551C80.6378 275.212 79.752 293.471 80.8873 311.082C80.9123 311.531 81.0869 311.918 81.4113 312.242L91.5547 322.394C91.9207 322.76 92.1079 323.209 92.1162 323.742L92.453 346.915C92.453 347.297 92.5903 347.618 92.8648 347.875C93.7798 348.732 94.6531 349.571 95.4849 350.395C104.044 358.826 87.9115 367.157 84.8048 356.419C83.5946 352.278 86.8761 350.345 89.5835 347.875C89.8995 347.593 90.0451 347.243 90.0201 346.828C89.704 340.749 89.7913 334.692 90.2821 328.656C90.7437 322.881 81.9228 316.433 78.0925 312.691C77.8263 312.433 77.6933 312.117 77.6933 311.743L77.6933 248.709C77.6933 248.268 77.5352 247.89 77.2192 247.574L71.6796 242.024C71.588 241.931 71.4709 241.867 71.3432 241.842C71.2155 241.817 71.0827 241.83 70.9615 241.881C70.8403 241.931 70.736 242.017 70.6618 242.127C70.5876 242.236 70.5467 242.365 70.5442 242.497C70.4943 266.993 70.4735 291.422 70.4818 315.784C70.4818 320.075 73.4388 320.312 74.7488 323.08C79.0782 332.248 63.5199 335.478 62.6964 325.812C62.4469 322.906 65.2542 320.661 67.475 319.189C67.841 318.948 68.0198 318.603 68.0114 318.154C67.999 317.094 68.3234 316.208 68.3234 315.31C68.34 278.908 68.3442 242.506 68.3358 206.103C68.3358 203.322 54.1126 190.675 51.3677 188.031C51.035 187.707 50.8687 187.312 50.8687 186.846L50.8687 104.405C50.8693 104.311 50.8418 104.219 50.7898 104.14C50.7377 104.061 50.6634 104 50.5764 103.964C50.4894 103.928 50.3936 103.919 50.3012 103.937C50.2088 103.956 50.124 104.001 50.0576 104.068ZM91.2803 359.512C92.5377 359.512 93.7436 359.012 94.6327 358.124C95.5219 357.235 96.0213 356.029 96.0213 354.772C96.0213 353.515 95.5219 352.31 94.6327 351.421C93.7436 350.532 92.5377 350.033 91.2803 350.033C90.0228 350.033 88.8169 350.532 87.9278 351.421C87.0387 352.31 86.5391 353.515 86.5391 354.772C86.5391 356.029 87.0387 357.235 87.9278 358.124C88.8169 359.012 90.0228 359.512 91.2803 359.512ZM34.1625 173.077C34.7982 173.077 35.4278 172.952 36.0151 172.709C36.6024 172.465 37.136 172.109 37.5855 171.66C38.035 171.21 38.3917 170.677 38.635 170.09C38.8783 169.503 39.0034 168.873 39.0034 168.238C39.0034 166.954 38.4934 165.724 37.5855 164.816C36.6777 163.908 35.4464 163.399 34.1625 163.399C32.8786 163.399 31.6474 163.908 30.7395 164.816C29.8317 165.724 29.3216 166.954 29.3216 168.238C29.3216 168.873 29.4469 169.503 29.6902 170.09C29.9335 170.677 30.29 171.21 30.7395 171.66C31.1891 172.109 31.7227 172.465 32.3101 172.709C32.8974 172.952 33.5268 173.077 34.1625 173.077Z" fill="#FBFBFB"/>
<path d="M41.9979 0L42.8339 0C43.4328 28.3868 43.5533 56.5283 43.1956 84.4245C43.1879 85.3197 42.8251 86.1798 42.1851 86.8191L20.2887 108.608C20.0142 108.883 19.877 109.215 19.877 109.606C20.1016 160.318 20.1264 192.068 19.9518 204.856C19.9019 208.91 19.2282 211.03 22.3848 214.123C27.3006 218.925 36.5956 226.72 36.5457 231.223C36.4791 236.669 36.4833 242.107 36.5581 247.536C36.5581 247.977 36.7661 248.28 37.182 248.447C44.593 251.477 43.3205 261.917 35.1858 261.455C30.0828 261.156 26.1402 254.571 30.9062 250.654C31.9626 249.781 33.0605 248.925 34.2001 248.085C34.4995 247.86 34.6492 247.565 34.6492 247.199V229.514C34.6496 228.834 34.3807 228.18 33.9006 227.693C29.8665 223.577 25.8282 219.528 21.7858 215.545C19.4901 213.275 18.4297 211.803 18.4297 208.348C18.438 175.056 18.4338 141.759 18.4172 108.458C18.4172 108.043 18.5669 107.689 18.8663 107.398C22.0977 104.268 41.8232 86.0833 41.8107 83.3269C41.7359 55.5471 41.7983 27.7715 41.9979 0ZM35.3978 259.709C36.7147 259.709 37.9778 259.186 38.9091 258.255C39.8403 257.324 40.3634 256.062 40.3634 254.745C40.3634 253.429 39.8403 252.166 38.9091 251.235C37.9778 250.304 36.7147 249.781 35.3978 249.781C34.0808 249.781 32.8178 250.304 31.8866 251.235C30.9553 252.166 30.4321 253.429 30.4321 254.745C30.4321 256.062 30.9553 257.324 31.8866 258.255C32.8178 259.186 34.0808 259.709 35.3978 259.709Z" fill="#FBFBFB"/>
<path d="M19.8769 280.326C24.7552 282.421 25.3791 289.019 20.6629 291.476C12.2537 295.866 6.95112 282.483 16.9948 279.677C17.4772 279.536 17.7185 279.216 17.7185 278.717L17.8432 230.574C17.8432 230.15 17.6935 229.792 17.3941 229.501C13.1354 225.261 8.93903 221.078 4.80513 216.954C2.87126 215.021 1.98546 214.659 2.03537 211.654C2.23499 200.591 0.949999 105.565 2.59691 103.906C10.2492 96.2481 17.9097 88.5985 25.5786 80.9572C27.4002 79.1362 27.288 77.889 27.2381 75.4569C26.8555 57.3223 26.7307 36.5311 26.8638 13.0834C26.8887 10.0526 27.4751 5.18844 26.8513 1.06013C26.8369 0.968177 26.843 0.87422 26.8689 0.78464C26.8949 0.69506 26.9402 0.611954 27.0017 0.540967C27.0633 0.46998 27.1396 0.412773 27.2256 0.37323C27.3116 0.333688 27.4052 0.312736 27.5001 0.311798L28.2486 0.311798C28.7727 0.311798 29.0347 0.573715 29.0347 1.09755L29.0347 78.812C29.0343 79.5305 28.7516 80.2167 28.2486 80.7202L3.91934 105.178C3.61159 105.486 3.45772 105.856 3.45772 106.288L3.45772 212.938C3.45741 213.346 3.6186 213.74 3.90685 214.036L18.5169 228.691C18.8246 229.007 18.9785 229.385 18.9785 229.826L19.2156 279.315C19.2156 279.798 19.4361 280.134 19.8769 280.326Z" fill="#FBFBFB"/>
</svg>
