<svg width="920" height="543" viewBox="0 0 920 543" fill="none" xmlns="http://www.w3.org/2000/svg">
<path d="M766.85 302.875L761.236 303.498" stroke="#FBFBFB" stroke-width="2"/>
<path d="M761.235 303.499L660.836 303.249C660.412 303.249 660.046 303.39 659.739 303.673C651.196 311.398 642.812 319.288 634.586 327.345C633.962 327.957 632.065 328.418 631.242 328.406C593.771 327.982 556.299 327.99 518.828 328.431C515.36 328.468 501.099 313.576 498.005 310.471C497.697 310.155 497.319 309.997 496.869 309.997L475.098 310.046C474.715 310.046 474.42 309.888 474.212 309.572C473.426 308.388 472.777 307.053 471.891 306.23C465.778 300.617 456.807 308.026 461.573 314.686C465.678 320.423 471.317 317.405 474.175 312.304C474.399 311.905 474.74 311.701 475.198 311.693L496.894 311.506C497.319 311.506 497.685 311.651 497.992 311.942L515.235 328.218C515.772 328.731 516.487 329.017 517.231 329.017H634.199C634.615 329.017 634.973 328.871 635.272 328.58L660.949 304.147C661.248 303.864 661.602 303.723 662.009 303.723L755.309 303.81" stroke="#FBFBFB" stroke-width="2"/>
<path d="M755.309 303.81C759.194 304.334 763.057 304.214 766.9 303.449" stroke="#FBFBFB" stroke-width="2"/>
<path d="M766.9 303.449C770.83 303.112 782.87 289.979 786.451 286.661C788.01 285.214 789.47 284.603 791.491 284.616C832.872 284.882 874.252 285.164 915.633 285.464C916.356 285.464 917.558 285.239 919.239 284.79C919.688 284.674 919.821 284.404 919.638 283.979C919.076 282.657 913.786 282.994 912.514 283.007C871.582 283.09 830.655 283.293 789.732 283.618C783.93 283.668 772.739 302.226 766.85 302.875" stroke="#FBFBFB" stroke-width="2"/>
<path d="M766.9 303.449L766.85 302.875" stroke="#FBFBFB" stroke-width="2"/>
<path d="M755.309 303.81L761.235 303.498" stroke="#FBFBFB" stroke-width="2"/>
<path d="M821.123 479.045L821.485 478.683" stroke="#FBFBFB" stroke-width="2"/>
<path d="M685.291 166.815C685.071 166.777 684.871 166.664 684.728 166.495C684.584 166.326 684.505 166.113 684.505 165.892C684.496 141.497 684.501 117.201 684.517 93.0048C684.517 89.2756 708.809 68.0105 712.914 64.2563C713.222 63.9736 713.583 63.8032 713.999 63.745C715.796 63.4872 717.921 63.3583 720.375 63.3583C742.558 63.3708 765.041 64.0942 787.187 63.4831C800.587 63.1089 815.596 64.0069 825.727 63.6327C834.885 63.296 844.267 51.5222 850.53 45.3859C850.83 45.0948 851.187 44.9286 851.603 44.887C853.392 44.6791 855.188 44.5835 856.993 44.6001C877.604 44.7664 898.224 44.7581 918.852 44.5752C921.572 44.5502 921.576 44.4421 918.864 44.2509C914.073 43.91 908.422 43.7312 901.909 43.7146C885.19 43.6896 868.438 43.8352 851.653 44.1511C850.767 44.1676 849.923 44.5355 849.308 45.1739C844.117 50.487 834.198 62.1236 826.114 62.0238C821.081 61.9656 811.312 62.0155 796.806 62.1735C769.146 62.4603 741.448 61.9739 713.825 62.1735C713.297 62.1737 712.792 62.3747 712.415 62.7347C704.08 70.6089 695.742 78.4331 687.399 86.2075C685.852 87.6542 684.471 89.2756 683.257 91.0716C683.049 91.3793 682.945 91.716 682.945 92.0819V164.758C682.946 165.045 682.87 165.328 682.725 165.577C682.581 165.827 682.372 166.035 682.122 166.179C680.259 167.235 678.882 168.744 677.992 170.707C677.826 171.081 677.796 171.472 677.905 171.879C679.227 176.456 685.129 179.674 688.023 175.06C689.882 172.079 689.545 167.501 685.291 166.815Z" stroke="#FBFBFB" stroke-width="2"/>
<path d="M629.608 258.811L622.496 252.836C622.197 252.587 621.856 252.462 621.473 252.462L552.528 252.599C551.942 252.599 551.38 252.376 550.956 251.976L533.364 235.113C533.056 234.831 532.694 234.689 532.278 234.689L477.843 234.914C477.361 234.914 476.999 234.702 476.758 234.278C475.285 231.646 472.728 229.501 469.534 230.461C458.38 233.829 472.041 248.371 476.496 236.398C476.645 235.999 476.936 235.799 477.369 235.799C495.676 235.774 513.983 235.774 532.291 235.799C533.451 235.799 547.961 250.292 549.858 252.288C553.201 255.792 557.681 253.547 561.099 253.572C572.91 253.655 584.726 253.547 596.545 253.248C599.115 253.19 601.245 253.368 602.933 253.784C604.422 254.15 604.676 254.923 603.694 256.104C600.488 259.983 595.996 265.121 590.768 265.109C571.047 265.067 551.28 265.072 531.467 265.121C531.043 265.121 530.673 264.976 530.357 264.685C526.331 260.952 522.318 257.21 518.317 253.46C515.248 250.566 506.689 251.726 502.522 251.651C502.097 251.643 501.756 251.469 501.499 251.128C495.784 243.557 486.676 251.839 492.615 257.276C496.757 261.068 500.975 258.162 502.422 253.597C502.58 253.115 502.908 252.874 503.407 252.874L515.173 252.799C515.689 252.799 516.134 252.978 516.508 253.335L529.558 265.795C529.858 266.069 530.207 266.207 530.606 266.207L593.201 266.057C593.642 266.057 594.041 265.928 594.399 265.67C598.383 262.81 602.076 259.596 605.478 256.029C608.735 252.599 613.064 252.674 617.306 253.635C617.722 253.734 618.129 253.714 618.529 253.572C622.758 252.1 626.065 256.566 628.984 258.91" stroke="#FBFBFB" stroke-width="2"/>
<path d="M628.984 258.91L635.435 265.545C635.717 265.836 636.058 265.936 636.458 265.845C638.541 265.358 640.438 264.86 642.634 264.835C659.402 264.668 676.183 264.76 692.976 265.109C693.384 265.117 693.738 265.263 694.037 265.545L710.007 280.924C711.205 282.071 710.976 282.641 709.321 282.632L653.289 282.383C652.889 282.383 652.552 282.528 652.278 282.82C648.585 286.786 644.892 291.6 639.851 293.783" stroke="#FBFBFB" stroke-width="2"/>
<path d="M639.851 293.783L639.427 293.471C639.161 293.263 638.857 293.163 638.516 293.172C609.662 293.645 580.804 293.637 551.941 293.147C550.078 293.113 547.317 292.789 543.657 292.174C543.249 292.099 542.892 291.92 542.584 291.637L526.102 276.322" stroke="#FBFBFB" stroke-width="2"/>
<path d="M526.102 276.322C525.744 275.59 525.279 274.979 524.705 274.488C524.364 274.197 523.969 274.052 523.519 274.052L488.223 274.176C487.766 274.176 487.366 274.018 487.025 273.702C483.266 270.177 479.639 266.523 476.146 262.739C474.898 261.392 474.1 261.28 472.603 262.315C472.245 262.565 471.846 262.689 471.405 262.689L404.218 262.415C403.786 262.415 403.408 262.274 403.083 261.991C399.174 258.524 395.185 255.094 391.118 251.701C386.227 247.623 372.815 248.384 366.028 248.683C362.518 248.833 359.756 247.378 357.743 244.318C357.51 243.96 357.198 243.703 356.808 243.545C353.397 242.223 350.469 242.451 348.024 244.231C338.979 250.803 348.66 263.276 357.519 257.202C358.567 256.478 359.831 255.323 361.312 253.734C361.594 253.427 361.944 253.273 362.36 253.273C369.829 253.348 377.294 253.061 384.755 252.412C390.257 251.938 397.319 261.791 400.975 265.034C401.291 265.317 401.661 265.454 402.085 265.446C423.719 264.806 445.362 264.589 467.013 264.797C474.262 264.872 478.579 266.681 482.609 272.306C482.85 272.638 482.763 272.821 482.347 272.854C465.516 274.089 449.496 273.565 426.714 273.49C419.253 273.465 405.316 272.58 394.462 273.453C394.038 273.486 393.697 273.337 393.439 273.004C390.544 269.399 386.215 265.022 381.411 269.262C375.66 274.326 382.634 285.152 388.822 281.759C391.492 280.288 393.139 275.636 396.583 275.399C404.177 274.866 416.533 274.663 433.651 274.787C463.557 274.999 498.017 274.588 518.566 274.775C520.662 274.792 523.054 275.428 525.74 276.683" stroke="#FBFBFB" stroke-width="2"/>
<path d="M525.74 276.683L543.657 293.446C543.981 293.754 544.364 293.907 544.804 293.907L639.589 294.144" stroke="#FBFBFB" stroke-width="2"/>
<path d="M639.589 294.144C639.914 296.29 624.418 309.672 622.035 311.581C621.702 311.838 621.328 311.967 620.912 311.967L574.674 311.768C574.216 311.768 573.867 311.572 573.626 311.181C564.979 297.425 553.189 312.653 562.172 318.54C567.238 321.858 570.743 318.403 573.276 314.038C573.509 313.63 573.863 313.426 574.337 313.426L618.691 313.439C619.057 313.439 619.402 313.522 619.726 313.688C621.016 314.345 622.105 314.237 622.995 313.364C631.912 304.717 640.957 296.186 650.132 287.771C652.702 285.41 655.397 284.212 658.217 284.179C672.548 284.004 704.596 283.996 754.361 284.154C757.218 284.154 760.437 283.68 763.731 284.566C764.122 284.674 764.463 284.586 764.754 284.304C770.044 279.074 775.426 273.927 780.899 268.863C784.804 265.246 788.659 264.71 793.675 264.772C814.261 264.997 834.847 265.026 855.434 264.86C869.919 264.747 889.008 265.433 905.839 264.86C909.258 264.747 914.385 265.546 918.802 264.648C919.426 264.523 919.426 264.415 918.802 264.323C916.174 263.949 914.078 263.762 912.514 263.762C869.586 263.953 826.659 264.107 783.731 264.223C783.307 264.223 782.953 264.381 782.67 264.697C780.624 266.918 778.79 269.287 775.509 269.237C763.29 269.071 751.076 268.913 738.865 268.763C735.347 268.714 719.314 251.627 716.195 248.184C715.896 247.868 715.53 247.694 715.097 247.66C710.718 247.398 705.578 248.484 702.159 248.533C687.886 248.758 673.579 248.642 659.24 248.184C658.824 248.168 658.458 248.022 658.142 247.748C647.736 238.718 637.676 229.314 627.961 219.536C626.376 217.939 625.491 218.226 623.37 218.263C605.279 218.671 585.108 218.779 562.858 218.588C557.918 218.55 540.039 199.917 535.747 195.664C535.456 195.373 535.106 195.227 534.699 195.227L437.207 195.302C436.683 195.302 436.35 195.048 436.209 194.541C431.006 175.833 404.818 188.068 414.474 202.947C420.675 212.489 433.876 207.724 436.57 197.896C436.687 197.472 436.966 197.256 437.406 197.248C466.984 196.898 496.558 196.861 526.127 197.135C528.024 197.148 535.734 197.647 536.845 198.782C543.898 206.016 551.263 212.875 558.941 219.361C559.265 219.635 559.639 219.768 560.064 219.76C581.848 219.423 605.291 218.176 626.913 220.521C627.321 220.562 627.678 220.725 627.986 221.007L657.131 248.035C657.456 248.342 657.838 248.542 658.279 248.633C659.539 248.895 660.612 249.194 661.86 249.194C678.687 249.194 695.509 249.194 712.328 249.194C715.272 249.194 715.546 249.98 717.455 251.801C723.586 257.671 729.682 263.579 735.746 269.524C736.906 270.659 737.867 270.834 739.402 270.771C749.275 270.331 759.148 270.268 769.021 270.584C770.581 270.634 773.088 269.961 775.135 270.871C775.667 271.104 775.725 271.424 775.309 271.832L765.228 281.685C764.887 282.017 764.48 282.192 764.005 282.208C747.412 282.857 731.105 282.595 714.598 282.508C714.024 282.499 713.529 282.3 713.114 281.909C709.757 278.716 695.609 263.538 692.303 263.538C673.38 263.546 654.449 263.546 635.509 263.538C635.085 263.538 634.719 263.396 634.411 263.113L629.608 258.811" stroke="#FBFBFB" stroke-width="2"/>
<path d="M639.589 294.144L639.851 293.783" stroke="#FBFBFB" stroke-width="2"/>
<path d="M628.984 258.91L629.608 258.811" stroke="#FBFBFB" stroke-width="2"/>
<path d="M525.74 276.683L526.102 276.322" stroke="#FBFBFB" stroke-width="2"/>
<path d="M439.403 330.501C457.668 328.717 476.62 329.69 495.06 329.615C495.485 329.615 495.851 329.757 496.158 330.039C501.54 334.987 506.859 340.009 512.116 345.106C513.925 346.864 515.572 346.877 517.942 346.864C557.901 346.623 597.884 346.544 637.892 346.627C638.485 346.627 639.052 346.404 639.477 346.004L666.925 320.174C667.233 319.883 667.599 319.733 668.023 319.725C699.651 319.014 730.343 320.261 772.252 319.55C776.295 319.488 791.94 303.037 795.708 299.495C796.013 299.206 796.419 299.045 796.844 299.046L918.702 299.245C919.168 299.245 919.393 299.013 919.376 298.547C919.376 298.331 919.376 298.131 919.376 297.948C919.393 297.582 919.218 297.4 918.852 297.4L796.769 297.724C796.286 297.724 795.87 297.89 795.521 298.223C792.065 301.503 775.583 318.49 772.065 318.453C724.887 317.862 690.086 317.879 667.661 318.503C665.079 318.577 641.772 341.813 638.004 345.318C637.635 345.654 637.155 345.841 636.657 345.842C597.123 345.858 557.472 345.862 517.705 345.854C512.253 345.854 501.074 333.469 497.032 329.428C496.724 329.112 496.35 328.954 495.909 328.954L439.677 328.53C439.17 328.522 438.791 328.297 438.542 327.857C435.859 323.03 429.696 321.246 425.766 325.624C417.743 334.592 436.096 343.709 438.617 331.212C438.7 330.779 438.962 330.542 439.403 330.501Z" stroke="#FBFBFB" stroke-width="2"/>
<path d="M72.9286 439.346C69.8843 431.53 64.1326 428.603 55.6735 430.565C55.2909 430.649 54.9706 430.84 54.7128 431.139L48.8489 437.949C48.5744 438.273 48.4122 438.643 48.3623 439.059C47.8882 443 48.0129 447.054 51.3442 449.81C58.7303 455.921 70.3585 454.562 73.0908 444.497C73.1817 444.161 73.3776 443.863 73.6495 443.647C73.9214 443.431 74.2548 443.31 74.6004 443.3C99.6035 442.543 124.607 442.439 149.61 442.988C150.025 442.996 150.391 443.133 150.707 443.399C156.43 448.147 161.716 453.377 166.565 459.089C169.996 463.143 173.515 461.197 177.632 461.197C203.458 461.222 229.959 460.1 255.66 462.045C258.081 462.22 258.717 460.025 259.94 458.865C269.584 449.785 279.653 440.83 288.923 431.351C294.6 425.564 299.403 426.362 308.848 426.337C359.112 426.238 409.38 426.138 459.652 426.038C460.068 426.038 460.455 425.922 460.812 425.689C467.188 421.486 472.341 414.663 478.704 409.911C479.037 409.662 479.411 409.537 479.827 409.537L636.096 409.288C636.503 409.288 636.848 409.138 637.131 408.839C644.65 400.782 652.565 393.095 660.874 385.778C662.529 384.323 664.763 383.616 667.574 383.657C677.668 383.82 695.06 383.358 708.884 383.583C741.173 384.094 781.685 383.495 837.792 383.583C840.699 383.583 842.994 384.643 845.415 381.961C852.427 374.216 857.031 368.005 868.222 367.992C884.808 367.984 901.389 367.984 917.966 367.992C918.465 367.992 918.831 367.772 919.064 367.331L919.438 366.658C919.486 366.57 919.51 366.471 919.508 366.371C919.506 366.271 919.478 366.173 919.426 366.087C919.374 366.001 919.301 365.931 919.213 365.882C919.126 365.833 919.027 365.808 918.927 365.81C901.784 365.818 884.679 365.814 867.611 365.797C865.377 365.797 862.158 364.849 859.264 365.46C858.815 365.56 858.445 365.785 858.154 366.134C853.629 371.555 848.646 376.519 843.207 381.026C842.874 381.3 842.495 381.466 842.071 381.525C838.952 381.957 835.816 382.165 832.664 382.148C778.89 381.861 722.995 382.273 671.479 382.011C666.588 381.986 663.507 379.691 659.414 383.969C651.92 391.81 644.031 399.285 635.746 406.394C635.422 406.677 635.043 406.823 634.611 406.831C574.711 408.078 518.13 407.193 478.816 406.631C478.42 406.627 478.029 406.706 477.667 406.863C477.306 407.02 476.983 407.252 476.72 407.542C472.915 411.72 462.397 424.142 456.733 424.13C413.505 423.997 370.278 423.889 327.051 423.806C319.44 423.781 305.329 424.429 294.4 423.743C293.951 423.71 293.56 423.847 293.227 424.155C282.909 433.684 272.179 444.672 259.74 456.208C257.619 458.166 255.872 458.977 253.128 458.977C227.551 459.019 201.974 459.035 176.397 459.027C161.288 459.027 159.079 440.481 147.052 440.381C124.702 440.206 102.357 439.965 80.0153 439.658C77.9691 439.633 75.9313 439.728 73.9018 439.945C73.4276 439.994 73.1033 439.795 72.9286 439.346Z" stroke="#FBFBFB" stroke-width="2"/>
<path d="M660.438 403.538C655.647 405.725 651.962 409.196 649.383 413.952" stroke="#FBFBFB" stroke-width="2"/>
<path d="M649.383 413.953L643.444 419.016C643.12 419.299 642.742 419.44 642.309 419.44L535.41 419.478" stroke="#FBFBFB" stroke-width="2"/>
<path d="M535.41 419.478C533.605 418.929 531.317 418.837 528.548 419.203C524.131 419.789 518.491 418.38 513.476 418.842C511.513 419.025 509.554 419.224 507.599 419.44" stroke="#FBFBFB" stroke-width="2"/>
<path d="M507.6 419.44C499.049 419.432 490.503 419.436 481.96 419.453C479.303 419.465 477.756 420.351 475.947 422.059C472.665 425.177 458.43 439.994 454.836 439.994C403.716 440.044 352.545 440.044 301.325 439.994C300.892 439.994 300.518 440.136 300.202 440.419C288.49 450.746 277.191 461.509 266.303 472.709C264.12 474.954 262.123 477.149 258.979 477.062C228.437 476.276 198.131 477.473 162.036 476.862C156.646 476.763 154.65 478.247 150.945 481.652C145.954 486.25 140.988 490.885 136.048 495.558C133.939 497.554 132.654 497.442 129.897 497.429C108.811 497.354 87.6552 497.171 66.4284 496.88C65.9958 496.88 65.6216 496.731 65.3055 496.431L54.1764 485.855" stroke="#FBFBFB" stroke-width="2"/>
<path d="M54.1763 485.855L41.2256 472.834C40.9012 472.51 40.8263 472.135 41.001 471.711C46.1039 459.314 45.0434 451.668 33.2157 444.085C22.5607 437.251 9.43531 441.179 3.7959 452.317C-3.82728 467.408 8.99864 479.481 23.2219 480.766C23.6378 480.799 24.0287 480.712 24.3947 480.504C27.1728 478.924 29.926 479.336 32.6542 481.739C37.0293 485.605 41.3795 489.488 45.7047 493.388" stroke="#FBFBFB" stroke-width="2"/>
<path d="M45.705 493.388C50.9534 497.87 55.8068 502.722 60.2651 507.943C60.5229 508.251 60.8515 508.413 61.2508 508.43C85.0311 509.565 108.824 508.055 132.654 508.168C141.363 508.205 153.278 495.633 159.953 489.035C160.252 488.736 160.614 488.586 161.038 488.586C194.434 488.678 227.834 488.753 261.238 488.811C263.933 488.819 266.078 488.112 267.675 486.691C277.574 477.902 289.414 466.702 303.196 453.09C304.182 452.118 306.303 450.958 307.401 450.958C358.921 450.692 410.432 450.579 461.936 450.621C462.351 450.621 462.709 450.479 463.009 450.197C466.664 446.742 482.247 430.416 486.128 430.391C524.905 430.117 563.682 430.516 602.434 430.229" stroke="#FBFBFB" stroke-width="2"/>
<path d="M602.434 430.229C607.425 431.576 612.469 431.996 617.568 431.488C622.758 430.956 626.073 430.69 627.512 430.69C632.677 430.69 644.655 431.838 648.996 429.767C650.352 429.119 651.5 428.429 652.44 427.697" stroke="#FBFBFB" stroke-width="2"/>
<path d="M652.44 427.697L667.462 413.616C667.761 413.341 668.111 413.175 668.51 413.117C673.983 412.369 677.967 412.082 680.462 412.256C687.325 412.743 695.297 411.957 700.824 411.957C754.357 411.957 807.898 411.957 861.447 411.957C861.88 411.957 862.263 411.824 862.595 411.558C865.328 409.325 877.667 396.641 879.776 396.654C892.685 396.72 905.635 396.716 918.628 396.641C919.143 396.641 919.393 396.379 919.376 395.855L919.152 387.05C919.143 386.626 918.927 386.41 918.503 386.401C903.668 386.364 888.784 386.065 873.986 386.801C873.596 386.817 873.259 386.963 872.976 387.237L859.326 400.32C859.019 400.611 858.657 400.757 858.241 400.757C783.199 400.316 719.177 400.229 666.177 400.495C663.856 400.503 661.943 401.518 660.438 403.538" stroke="#FBFBFB" stroke-width="2"/>
<path d="M652.44 427.697C635.829 429.318 619.161 430.162 602.434 430.229" stroke="#FBFBFB" stroke-width="2"/>
<path d="M45.7047 493.388L47.1395 492.103C47.439 491.837 47.6302 491.505 47.7134 491.106C48.5743 487.065 52.18 488.524 54.1763 485.855" stroke="#FBFBFB" stroke-width="2"/>
<path d="M507.599 419.44C516.845 420.475 526.102 419.877 535.41 419.478" stroke="#FBFBFB" stroke-width="2"/>
<path d="M649.383 413.952C653.517 410.951 657.202 407.479 660.438 403.538" stroke="#FBFBFB" stroke-width="2"/>
<path d="M616.195 441.84C606.721 440.809 597.256 440.897 587.799 442.102" stroke="#FBFBFB" stroke-width="2"/>
<path d="M587.799 442.102C555.243 442.219 522.675 442.248 490.095 442.19C488.136 442.19 485.217 441.304 483.295 443.112C475.818 450.188 468.327 457.219 460.825 464.203C460.512 464.491 460.102 464.652 459.677 464.652C411.185 464.66 362.713 464.656 314.263 464.64C312.054 464.64 310.719 463.617 308.698 465.55C295.065 478.538 281.391 491.476 267.675 504.364C267.376 504.655 267.018 504.8 266.602 504.8C234.895 504.592 203.188 504.522 171.481 504.588C168.012 504.596 165.205 505.731 163.059 507.993C156.409 514.965 148.736 521.401 141.55 527.886C141.242 528.161 140.888 528.231 140.489 528.098C137.095 526.918 134.164 527.47 131.693 529.757C125.343 535.619 135.736 545.285 142.747 539.735C145.434 537.615 145.812 534.63 143.883 530.78C143.708 530.422 143.762 530.106 144.045 529.832L165.542 508.467C165.817 508.201 166.133 508.014 166.49 507.906C166.898 507.789 167.272 507.615 167.613 507.382C167.929 507.166 168.274 507.058 168.649 507.058L267.176 507.033C267.575 507.033 267.921 506.9 268.212 506.634C280.497 495.4 292.445 483.826 304.057 471.911C306.003 469.915 308.116 468.136 310.395 466.573C310.719 466.357 311.077 466.249 311.468 466.249L460.812 465.874C461.253 465.866 461.636 465.716 461.96 465.425C469.596 458.391 476.807 450.583 484.942 444.16C485.266 443.902 485.632 443.774 486.04 443.774L615.26 443.823" stroke="#FBFBFB" stroke-width="2"/>
<path d="M615.26 443.823C624.468 443.674 633.68 443.794 642.896 444.185C646.551 444.335 648.36 442.95 650.793 440.618C656.058 435.579 661.195 430.391 666.202 425.053C666.344 424.899 666.517 424.776 666.71 424.69C666.903 424.604 667.112 424.558 667.325 424.554C720.762 423.631 774.249 424.728 827.698 424.117C838.087 424.001 848.48 424.084 858.877 424.367C860.757 424.417 862.728 423.49 864.791 421.585C869.665 417.104 874.477 412.493 879.227 407.754C879.501 407.479 879.838 407.342 880.237 407.342L918.989 407.155C919.247 407.155 919.376 407.026 919.376 406.769C919.376 406.627 919.376 406.49 919.376 406.357C919.385 405.933 919.177 405.721 918.752 405.721H879.464C879.081 405.721 878.753 405.854 878.478 406.12C875.846 408.677 862.483 422.745 859.788 422.571C846.089 421.698 832.277 422.571 818.553 422.471C781.348 422.18 744.143 422.168 706.938 422.434C696.707 422.508 680.65 421.947 667.487 422.409C667.104 422.425 666.772 422.563 666.489 422.82L646.065 441.404C645.715 441.711 645.308 441.865 644.842 441.865L616.196 441.84" stroke="#FBFBFB" stroke-width="2"/>
<path d="M615.26 443.823L615.172 442.801C615.139 442.418 614.927 442.219 614.536 442.202L612.453 442.152" stroke="#FBFBFB" stroke-width="2"/>
<path d="M612.452 442.152L616.195 441.84" stroke="#FBFBFB" stroke-width="2"/>
<path d="M612.453 442.152C604.243 442.56 596.025 442.543 587.799 442.102" stroke="#FBFBFB" stroke-width="2"/>
<path d="M886.201 416.509C895.259 415.162 906.026 416.534 919.151 415.923C919.268 415.923 919.339 415.877 919.364 415.786C919.372 415.744 919.376 415.703 919.376 415.661C919.359 415.528 919.255 415.457 919.064 415.449C907.802 415.258 896.544 415.237 885.29 415.387C881.959 415.437 872.24 426.437 869.22 429.468C869.18 429.502 869.153 429.549 869.146 429.601C869.138 429.653 869.151 429.706 869.18 429.75C869.21 429.794 869.255 429.825 869.306 429.837C869.357 429.849 869.411 429.842 869.457 429.817C875.683 426.998 878.141 417.719 886.201 416.509Z" stroke="#FBFBFB" stroke-width="2"/>
<path d="M516.308 118.623C514.287 119.483 512.091 120.045 510.357 121.279C502.858 126.63 502.546 135.847 509.571 141.696C523.881 153.62 543.619 132.953 527.225 121.479C525.936 120.573 524.775 119.604 523.744 118.573" stroke="#FBFBFB" stroke-width="2"/>
<path d="M523.744 118.573C523.644 110.017 523.578 101.444 523.544 92.8551C523.507 83.476 522.659 68.4844 523.245 56.2242C523.445 52.1707 540.238 38.1769 543.956 34.8843C545.665 33.3751 547.649 32.4522 549.758 32.527C576.844 33.5123 596.532 32.2027 616.383 32.7266C636.595 33.2753 656.794 33.0633 677.031 33.4873C677.447 33.4957 677.801 33.6453 678.092 33.9364C683.232 39.025 688.431 44.0555 693.687 49.0278C695.696 50.9235 697.143 51.1854 699.788 51.1854C723.469 51.2187 747.149 51.2104 770.83 51.1605C775.92 51.148 780.811 50.4121 786.026 50.6741C797.821 51.2894 809.653 51.3102 821.522 50.7364C821.971 50.7115 822.362 50.5452 822.695 50.2376L846.076 28.1118C846.409 27.7959 846.646 27.4259 846.787 27.0018C847.095 26.0456 847.69 25.5758 848.571 25.5924C855.167 25.7088 861.759 25.6756 868.347 25.4927C885.215 25.0063 901.634 25.8169 918.328 25.3929C918.819 25.3846 919.064 25.1351 919.064 24.6445V22.2499C919.064 21.7676 918.827 21.5307 918.353 21.539C896.718 21.6554 875.084 21.5473 853.45 21.2147C848.247 21.1274 844.654 21.963 841.123 25.3555C834.444 31.7579 827.736 38.152 820.998 44.5377C820.69 44.8288 820.324 44.9618 819.9 44.9369C808.938 44.2966 797.979 44.2301 787.025 44.7373C780.187 45.0491 773.188 44.3257 766.226 44.3257C744.625 44.334 723.024 44.3424 701.423 44.3507C697.393 44.3507 696.095 43.3404 693.388 40.7462C690.418 37.9025 680.45 26.6152 677.118 26.1287C670.905 25.2432 662.733 25.9541 658.391 25.9417C648.135 25.9167 637.876 25.9292 627.611 25.9791C622.197 26.004 614.898 26.69 608.46 26.4405C588.46 25.6548 568.522 25.8918 548.51 26.3158C545.79 26.374 543.915 26.8646 542.883 27.7876C534.008 35.6617 525.549 44.0056 517.506 52.8193C517.048 53.3173 516.79 53.9658 516.782 54.6403L516.308 118.623" stroke="#FBFBFB" stroke-width="2"/>
<path d="M523.744 118.573C521.307 117.982 518.828 117.999 516.308 118.623" stroke="#FBFBFB" stroke-width="2"/>
<path d="M876.332 59.9784C872.789 59.5128 869.254 59.5128 865.727 59.9784" stroke="#FBFBFB" stroke-width="2"/>
<path d="M865.727 59.9784C862.857 59.8287 837.779 84.7731 833.861 88.415C833.525 88.72 833.089 88.889 832.639 88.889L736.257 88.9389C735.908 88.9389 735.608 89.0553 735.359 89.2881L719.913 103.506C719.605 103.797 719.252 103.876 718.852 103.743L715.733 102.733C715.384 102.617 715.026 102.583 714.66 102.633C703.369 104.205 712.639 120.244 720.15 110.665C720.433 110.308 720.574 109.905 720.574 109.456L720.562 105.178C720.553 104.712 720.72 104.321 721.061 104.005L735.384 90.6476C735.725 90.3316 736.128 90.1736 736.594 90.1736L832.926 90.1736C833.486 90.174 834.022 89.9594 834.423 89.5749L863.344 61.924C863.61 61.6663 863.905 61.4542 864.229 61.2879L865.727 60.5022" stroke="#FBFBFB" stroke-width="2"/>
<path d="M865.727 60.5022H876.644" stroke="#FBFBFB" stroke-width="2"/>
<path d="M876.644 60.5022L918.977 60.5271C918.985 60.5271 918.989 60.523 918.989 60.5147C919.089 60.2777 919.176 60.0906 918.84 60.0781C904.666 59.4545 890.497 59.4213 876.332 59.9784" stroke="#FBFBFB" stroke-width="2"/>
<path d="M876.644 60.5022L876.332 59.9784" stroke="#FBFBFB" stroke-width="2"/>
<path d="M865.727 60.5022V59.9784" stroke="#FBFBFB" stroke-width="2"/>
<path d="M135.798 160.642L120.477 174.423C120.152 174.714 119.795 174.76 119.404 174.561C112.658 171.127 106.378 171.983 100.564 177.13C83.5461 192.196 105.517 214.721 122.835 201.239C130.446 195.327 129.647 188.53 126.765 179.974C126.624 179.558 126.711 179.196 127.027 178.889L140.888 165.319" stroke="#FBFBFB" stroke-width="2"/>
<path d="M140.888 165.319L144.244 162.537C144.569 162.271 144.943 162.134 145.367 162.126C150.707 161.976 176.297 163.024 179.166 160.604C184.548 156.098 192.404 148.381 202.735 137.456C203.026 137.148 203.379 136.957 203.795 136.882C205.575 136.55 207.359 136.375 209.148 136.358C247.492 135.992 285.837 136.017 324.181 136.433C329.135 136.495 349.746 157.948 361.112 168.886C361.412 169.177 361.769 169.326 362.185 169.335C416.982 170.507 471.367 169.135 530.432 169.659C534.998 169.697 559.589 167.988 562.509 170.657C570.868 178.315 578.716 186.422 587.05 194.117C587.366 194.408 587.741 194.554 588.173 194.554C610.506 194.828 632.939 193.893 655.247 194.928C658.478 195.077 660.088 193.743 662.895 196.549C671.221 204.872 679.664 213.071 688.223 221.144C693.899 226.507 712.14 223.938 718.466 223.938C745.723 223.897 772.98 224.013 800.237 224.287C800.653 224.296 801.011 224.441 801.31 224.724C808.197 231.226 815.043 237.795 821.847 244.43C826.538 249.007 829.52 247.324 835.271 247.324C862.986 247.332 890.705 247.332 918.428 247.324C918.852 247.324 919.064 247.112 919.064 246.688V241.711C919.064 241.254 918.839 241.009 918.39 240.975C914.905 240.717 911.432 240.772 907.972 241.137C903.269 241.649 898.49 240.688 893.899 240.726C871.649 240.9 849.411 240.938 827.187 240.838C826.804 240.838 826.471 240.705 826.188 240.439L803.793 219.174C803.452 218.85 803.049 218.687 802.583 218.687L694.598 218.513C694.182 218.513 693.825 218.371 693.525 218.089L661.473 188.442C661.256 188.25 660.977 188.143 660.687 188.143C638.603 188.334 616.495 188.288 594.361 188.006C590.993 187.956 589.121 186.871 586.826 184.701C580.005 178.273 573.239 171.784 566.526 165.231C564.28 163.036 561.71 162.562 558.803 162.799C550.506 163.473 540.251 162.774 534.561 162.799C478.076 163.107 421.59 163.149 365.105 162.924C362.272 162.912 337.544 138.092 329.01 130.16C328.694 129.869 328.324 129.723 327.899 129.723L202.834 129.823C202.427 129.823 202.077 129.964 201.786 130.247C194.816 136.882 187.788 143.463 180.701 149.99C178.696 151.836 176.854 153.316 175.174 154.43C174.816 154.672 174.425 154.788 174.001 154.78C165.026 154.655 156.051 154.505 147.077 154.331C140.452 154.206 139.965 156.289 135.798 160.642" stroke="#FBFBFB" stroke-width="2"/>
<path d="M140.888 165.319C139.558 163.323 137.861 161.764 135.798 160.642" stroke="#FBFBFB" stroke-width="2"/>
<path d="M717.368 165.955C723.282 171.642 729.241 177.275 735.247 182.855C737.929 185.337 738.092 187.781 742.546 187.806C769.437 187.956 796.336 188.039 823.244 188.056C828.31 188.056 837.542 187.582 844.891 188.268C845.257 188.301 845.577 188.442 845.852 188.692L879.139 220.172C879.455 220.471 879.825 220.662 880.249 220.745C883.456 221.394 918.602 220.72 918.715 220.334C918.848 219.86 918.669 219.623 918.178 219.623L880.898 219.548C880.289 219.548 879.701 219.317 879.251 218.899C867.823 208.331 856.552 197.643 845.44 186.833C843.855 185.287 762.633 186.634 753.725 186.896C749.674 187.02 745.598 186.887 741.498 186.497C741.057 186.455 740.678 186.28 740.362 185.973L718.803 164.932C718.445 164.583 718.387 164.192 718.628 163.76C723.032 155.802 713.363 148.269 707.1 156.014C702.184 162.101 710.319 167.439 716.27 165.693C716.686 165.568 717.052 165.656 717.368 165.955Z" stroke="#FBFBFB" stroke-width="2"/>
<path d="M899.214 147.259C900.262 148.182 900.324 148.918 899.626 150.065C899.409 150.423 899.305 150.814 899.314 151.238C899.38 155.412 901.214 157.856 904.816 158.571C916.481 160.904 914.984 141.035 901.896 146.461C901.505 146.619 901.152 146.56 900.836 146.286C895.579 141.796 890.451 137.165 885.452 132.392C882.82 129.873 862.371 131.02 857.654 131.008C857.214 130.999 856.906 130.796 856.731 130.397C853.412 122.826 843.643 127.49 846.114 133.128C847.727 136.828 850.418 137.726 854.186 135.822C854.535 135.639 854.822 135.385 855.047 135.061C856.22 133.382 857.625 132.554 859.264 132.579C866.883 132.696 874.56 132.587 882.296 132.255C882.72 132.238 883.086 132.375 883.394 132.666C888.567 137.672 893.841 142.536 899.214 147.259Z" stroke="#FBFBFB" stroke-width="2"/>
<path d="M893.125 95.1625L880.499 107.111C880.183 107.402 879.813 107.547 879.388 107.547C844.329 107.722 809.266 107.789 774.199 107.747C772.302 107.747 770.206 107.061 768.522 108.682C760.42 116.532 752.231 124.289 743.955 131.956C743.614 132.272 743.219 132.384 742.77 132.292L740.013 131.744C739.613 131.669 739.218 131.689 738.827 131.806C731.554 134.051 732.664 144.303 740 142.532C743.993 141.568 745.448 138.794 744.367 134.213C744.259 133.772 744.371 133.394 744.704 133.078L768.983 110.092C769.308 109.784 769.694 109.622 770.144 109.605C795.783 108.595 821.909 109.443 847.037 109.294C854.697 109.244 868.496 109.78 879.363 109.032C879.788 109.007 880.149 108.845 880.449 108.545L893.799 95.5242" stroke="#FBFBFB" stroke-width="2"/>
<path d="M893.799 95.5242L894.535 94.9006C894.818 94.6595 895.138 94.6096 895.496 94.751C897.704 95.624 900.075 96.7964 902.408 95.9608C914.473 91.5955 901.647 76.2796 894.735 85.9081C892.339 89.2507 894.523 91.7077 893.125 95.1625" stroke="#FBFBFB" stroke-width="2"/>
<path d="M893.799 95.5242L893.125 95.1625" stroke="#FBFBFB" stroke-width="2"/>
<path d="M773.4 158.509C772.119 159.415 770.967 160.459 769.944 161.639C769.254 162.429 769.353 162.546 770.243 161.989C771.508 161.19 772.664 160.238 773.712 159.133" stroke="#FBFBFB" stroke-width="2"/>
<path d="M773.712 159.133L782.208 151.4C782.516 151.117 782.878 150.976 783.294 150.976H861.472C862.004 150.976 862.462 151.159 862.844 151.524L893.075 180.685C893.35 180.951 893.429 181.262 893.312 181.62C890.642 190.301 899.476 195.539 904.828 188.642C907.822 184.775 905.365 180.323 901.222 178.726C900.166 178.319 898.353 178.498 895.783 179.263C895.367 179.387 894.997 179.3 894.672 179.001C884.874 170.129 875.23 161.095 865.739 151.899C864.749 150.951 863.443 150.144 861.821 149.479C861.439 149.321 861.048 149.275 860.649 149.342C855.621 150.128 850.006 149.342 845.789 149.454C825.777 149.99 805.315 149.267 782.982 149.691C782.566 149.699 782.213 149.849 781.921 150.14L773.4 158.509" stroke="#FBFBFB" stroke-width="2"/>
<path d="M773.712 159.133L773.4 158.509" stroke="#FBFBFB" stroke-width="2"/>
<path d="M667.299 437.525C664.043 440.431 648.11 456.52 645.203 456.495C600.437 456.109 555.185 455.136 510.456 456.907" stroke="#FBFBFB" stroke-width="2"/>
<path d="M510.457 456.907L490.332 457.007C489.908 457.015 489.546 457.169 489.246 457.468C485.653 461.085 465.441 482.113 462.035 482.038C451.338 481.772 440.6 481.71 429.821 481.851C429.123 481.859 428.455 482.126 427.949 482.6L411.655 498.065C411.473 498.243 411.258 498.382 411.022 498.474C410.786 498.566 410.535 498.609 410.282 498.601L369.808 497.878C369.309 497.87 368.935 497.649 368.685 497.217C366.897 494.132 364.364 491.92 361.087 490.582C360.688 490.424 360.289 490.42 359.889 490.569C340.426 497.791 361.723 517.534 367.999 501.058C368.141 500.676 368.419 500.481 368.835 500.472L410.544 499.948C411.01 499.94 411.413 499.778 411.754 499.462L428.997 483.173C429.313 482.874 429.687 482.724 430.12 482.724C440.164 482.737 450.831 482.101 460.812 482.986C465.516 483.41 484.081 463.629 488.435 459.489C491.53 456.558 505.84 457.792 510.457 457.742" stroke="#FBFBFB" stroke-width="2"/>
<path d="M510.457 457.743C514.424 457.967 523.47 458.088 537.593 458.104C573.201 458.137 608.81 458.117 644.418 458.042C649.009 458.029 666.189 439.284 667.35 438.099" stroke="#FBFBFB" stroke-width="2"/>
<path d="M667.349 438.099C667.99 437.924 668.614 437.833 669.221 437.824C732.851 437.276 796.482 437.088 860.112 437.263C861.335 437.263 862.412 436.577 863.344 435.205C863.61 434.806 863.543 434.74 863.144 435.006C861.464 436.103 859.701 436.648 857.854 436.639C796.977 436.265 736.099 436.174 675.222 436.365C672.011 436.382 669.371 436.768 667.3 437.525" stroke="#FBFBFB" stroke-width="2"/>
<path d="M667.35 438.099L667.3 437.525" stroke="#FBFBFB" stroke-width="2"/>
<path d="M510.457 457.742V456.907" stroke="#FBFBFB" stroke-width="2"/>
<path d="M640.338 6.60974C627.337 -9.61662 622.87 22.9359 640.5 8.53047C640.824 8.27271 641.194 8.14384 641.61 8.14384L692.926 8.25608C693.367 8.25608 693.746 8.40573 694.062 8.70506L713.313 27.0143C713.637 27.3302 714.028 27.4882 714.486 27.4882L805.116 27.4134C805.548 27.4134 805.918 27.2679 806.226 26.9769L816.893 16.9367C817.251 16.6041 817.667 16.4711 818.141 16.5376C821.61 17.0365 824.379 15.914 826.45 13.1701C826.733 12.8043 826.866 12.3885 826.85 11.9229C826.675 6.80931 820.886 3.89081 817.58 8.49306C816.195 10.4263 816.868 12.796 817.093 15.0659C817.143 15.49 817.014 15.8516 816.706 16.151C813.604 19.1194 810.426 21.9921 807.174 24.7693C804.729 26.8646 803.119 25.9292 800.524 25.9417C773.334 26.1329 746.139 26.1038 718.94 25.8544C717.942 25.8419 714.311 26.266 713.238 25.2807C707.125 19.6682 701.082 14.0058 695.11 8.2935C694.653 7.86076 694.054 7.61969 693.438 7.61999L641.473 7.15852C641.007 7.15021 640.629 6.96728 640.338 6.60974Z" stroke="#FBFBFB" stroke-width="2"/>
<path d="M758.114 169.499C758.648 170.72 759.69 171.66 761.011 172.112C762.332 172.564 763.823 172.49 765.158 171.908C766.492 171.325 767.559 170.281 768.125 169.005C768.691 167.729 768.709 166.326 768.175 165.105C767.641 163.883 766.599 162.943 765.278 162.491C763.958 162.04 762.466 162.113 761.132 162.696C759.798 163.279 758.73 164.323 758.164 165.598C757.598 166.874 757.58 168.277 758.114 169.499Z" stroke="#FBFBFB" stroke-width="2"/>
<path d="M579.976 149.13C579.414 151.599 578.379 153.695 579.202 156.077C581.261 162.039 588.385 165.157 592.951 159.532C596.719 154.892 595.559 147.895 589.633 146.299C588.244 145.924 585.657 145.97 581.872 146.436C581.39 146.494 580.974 146.357 580.625 146.024L556.008 123.262C555.667 122.946 555.497 122.556 555.497 122.09L555.397 67.3744C555.389 66.8589 555.555 66.4099 555.896 66.0274C560.097 61.2381 564.763 56.9559 569.895 53.181C570.269 52.9066 570.689 52.7694 571.155 52.7694C592.506 52.5948 613.862 52.6073 635.222 52.8068C637.867 52.8318 647.449 63.5579 649.732 65.9401C650.032 66.256 650.14 66.626 650.057 67.0501C648.984 72.2884 652.564 82.2662 659.614 79.3851C671.442 74.5459 665.216 60.2153 653.113 64.8924C652.893 64.9787 652.652 65.0023 652.419 64.9605C652.185 64.9187 651.968 64.8131 651.791 64.6554L637.318 51.6344C636.822 51.186 636.173 50.9489 635.509 50.9734C616.603 51.6053 597.614 51.6178 578.541 51.0108C575.763 50.9277 572.952 51.0274 570.107 51.3102C569.716 51.3517 569.371 51.5097 569.071 51.7841L554.748 65.0171C554.391 65.3414 554.187 65.7447 554.137 66.2269C553.679 70.692 553.492 75.1529 553.575 79.6096C553.812 92.7179 553.65 105.751 553.451 118.847C553.413 121.342 553.912 122.913 555.634 124.522C562.621 131.058 570.618 138.861 579.626 147.932C579.959 148.273 580.076 148.672 579.976 149.13Z" stroke="#FBFBFB" stroke-width="2"/>
<path d="M600.163 76.292C604.355 76.1299 627.325 75.1446 629.57 77.1027C636.973 83.5633 644.085 90.315 650.905 97.3576C651.188 97.657 651.338 98.0145 651.355 98.4302C651.737 110.836 651.77 123.258 651.454 135.697C651.367 139.177 649.857 140.474 647.649 142.794C647.333 143.127 647.212 143.521 647.287 143.979C647.886 147.488 649.862 149.716 653.214 150.664C653.605 150.772 653.983 150.743 654.349 150.577C657.36 149.18 659.132 146.881 659.664 143.679C659.747 143.164 659.572 142.752 659.14 142.445L654.274 139.04C653.925 138.79 653.692 138.462 653.575 138.055C651.529 130.933 655.385 99.8022 651.779 96.3973C644.517 89.5542 637.252 82.7194 629.982 75.8929C627.574 73.6354 604.929 74.2965 600.238 74.1718C599.789 74.1552 599.489 73.9389 599.34 73.5232C596.932 67.1125 590.619 69.1704 587.911 74.1344C587.712 74.5002 587.658 74.8827 587.749 75.2818C589.047 81.256 596.108 82.84 599.153 76.9406C599.369 76.5332 599.706 76.317 600.163 76.292Z" stroke="#FBFBFB" stroke-width="2"/>
<path d="M608.797 101.212C609.171 113.01 609.213 124.821 608.921 136.645C608.872 138.853 622.271 150.427 624.617 152.622C624.807 152.796 624.937 153.024 624.991 153.275C625.045 153.525 625.019 153.785 624.916 154.019C621.323 162.562 631.504 169.896 637.118 162.824C641.797 156.95 635.185 149.304 628.385 152.148C627.951 152.33 627.474 152.381 627.011 152.297C626.548 152.213 626.12 151.997 625.777 151.674L610.905 137.78C610.489 137.389 610.286 136.911 610.294 136.346L610.481 101.935C610.481 101.411 610.681 100.987 611.08 100.663L613.812 98.3928C614.187 98.0852 614.449 97.7068 614.598 97.2578C616.021 92.9923 613.276 89.6248 609.109 89.4752C603.681 89.2756 601.485 98.1434 608.16 100.351C608.576 100.492 608.788 100.779 608.797 101.212Z" stroke="#FBFBFB" stroke-width="2"/>
<path d="M586.613 383.271C585.457 380.743 585.669 378.307 587.25 375.962C588.023 374.798 587.874 374.665 586.801 375.563C585.819 376.378 584.962 377.338 584.23 378.444C584.031 378.752 583.748 378.906 583.382 378.906L482.122 378.918C481.756 378.918 481.44 379.047 481.174 379.305C477.144 383.246 452.004 408.814 448.698 408.814C423.054 408.864 397.411 408.86 371.767 408.801C364.057 408.776 355.123 408.078 346.752 408.066C346.344 408.066 345.995 407.924 345.704 407.641C342.984 404.997 340.763 401.992 336.396 403.887C324.231 409.163 340.276 423.319 345.042 411.82C345.209 411.429 345.504 411.217 345.928 411.184C353.481 410.651 358.729 410.385 361.674 410.385C390.802 410.402 419.922 410.406 449.034 410.398C449.684 410.398 450.309 410.148 450.781 409.699L481.449 380.826C481.706 380.585 482.01 380.465 482.359 380.465H583.157C583.582 380.465 583.919 380.631 584.168 380.963L585.94 383.321" stroke="#FBFBFB" stroke-width="2"/>
<path d="M585.94 383.321C588.323 387.985 594.848 387.611 597.506 383.845C602.883 376.237 591.317 370.075 588.385 374.603C587.978 375.235 588.123 375.417 588.822 375.151C591.301 374.204 593.667 374.42 595.921 375.8C596.304 376.033 596.578 376.357 596.745 376.773C599.639 383.882 591.38 388.821 586.614 383.271" stroke="#FBFBFB" stroke-width="2"/>
<path d="M585.94 383.321L586.614 383.271" stroke="#FBFBFB" stroke-width="2"/>
<path d="M420.97 228.693C421.065 229.37 421.311 230.018 421.695 230.601C422.078 231.185 422.591 231.692 423.205 232.093C423.818 232.495 424.52 232.783 425.27 232.941C426.019 233.1 426.803 233.126 427.575 233.017C428.348 232.909 429.094 232.668 429.771 232.309C430.448 231.95 431.043 231.479 431.522 230.924C432.001 230.37 432.354 229.741 432.562 229.075C432.769 228.408 432.827 227.717 432.732 227.041C432.637 226.364 432.391 225.716 432.007 225.133C431.624 224.549 431.111 224.042 430.498 223.641C429.884 223.239 429.183 222.951 428.433 222.793C427.683 222.634 426.899 222.608 426.127 222.717C425.355 222.825 424.609 223.066 423.932 223.425C423.254 223.784 422.659 224.254 422.181 224.809C421.702 225.364 421.348 225.993 421.141 226.659C420.933 227.326 420.875 228.017 420.97 228.693Z" stroke="#FBFBFB" stroke-width="2"/>
<path d="M366.939 211.454C370.931 202.511 360.925 193.693 354.075 201.688C349.372 207.188 353.202 214.16 360.189 214.285C361.961 214.322 363.607 213.387 365.429 213C365.862 212.909 366.24 213.008 366.564 213.299C369.284 215.732 381.324 228.191 383.857 228.291C395.543 228.723 407.242 228.786 418.953 228.478C419.245 228.47 419.386 228.316 419.378 228.017C419.378 227.917 419.382 227.813 419.39 227.705C419.398 227.572 419.336 227.505 419.203 227.505L383.632 227.593C383.167 227.593 382.759 227.43 382.41 227.106L367.151 212.564C366.818 212.248 366.747 211.878 366.939 211.454Z" stroke="#FBFBFB" stroke-width="2"/>
<path d="M83.2717 472.273C68.0004 465.6 63.2094 489.16 79.4289 488.96C86.9897 488.861 89.8593 482.151 86.9523 475.466C86.7776 475.041 86.865 474.688 87.2143 474.405C92.2798 470.348 96.9003 465.849 101.076 460.91C101.384 460.536 101.783 460.353 102.274 460.362L125.767 460.698C126.249 460.698 126.653 460.877 126.977 461.235C129.148 463.617 131.094 467.172 134.95 465.987C149.772 461.384 133.714 444.759 127.264 456.383C127.064 456.749 126.753 456.936 126.328 456.944C118.127 457.177 109.917 457.248 101.7 457.156C99.5786 457.131 85.6547 469.691 84.3072 471.948C84.0577 472.364 83.7125 472.472 83.2717 472.273Z" stroke="#FBFBFB" stroke-width="2"/>
<path d="M566.052 317.742C567.548 317.742 568.982 317.148 570.04 316.091C571.097 315.033 571.691 313.599 571.691 312.104C571.691 311.364 571.546 310.631 571.262 309.947C570.979 309.263 570.563 308.642 570.04 308.118C569.516 307.595 568.894 307.179 568.21 306.896C567.526 306.613 566.793 306.467 566.052 306.467C565.311 306.467 564.578 306.613 563.894 306.896C563.21 307.179 562.588 307.595 562.064 308.118C561.541 308.642 561.125 309.263 560.842 309.947C560.558 310.631 560.413 311.364 560.413 312.104C560.413 313.599 561.007 315.033 562.064 316.091C563.122 317.148 564.556 317.742 566.052 317.742Z" stroke="#FBFBFB" stroke-width="2"/>
<path d="M425.616 204.681C427.611 204.681 429.525 203.889 430.936 202.478C432.347 201.068 433.139 199.155 433.139 197.16C433.139 195.166 432.347 193.253 430.936 191.842C429.525 190.432 427.611 189.64 425.616 189.64C423.621 189.64 421.707 190.432 420.296 191.842C418.885 193.253 418.093 195.166 418.093 197.16C418.093 199.155 418.885 201.068 420.296 202.478C421.707 203.889 423.621 204.681 425.616 204.681Z" stroke="#FBFBFB" stroke-width="2"/>
<path d="M61.4751 449.735C63.6789 449.735 65.7923 448.86 67.3506 447.302C68.909 445.745 69.7844 443.632 69.7844 441.429C69.7844 439.226 68.909 437.113 67.3506 435.555C65.7923 433.997 63.6789 433.122 61.4751 433.122C59.2713 433.122 57.1577 433.997 55.5994 435.555C54.0411 437.113 53.1656 439.226 53.1656 441.429C53.1656 443.632 54.0411 445.745 55.5994 447.302C57.1577 448.86 59.2713 449.735 61.4751 449.735Z" stroke="#FBFBFB" stroke-width="2"/>
<path d="M712.902 164.383C714.212 164.383 715.469 163.863 716.395 162.937C717.322 162.01 717.842 160.754 717.842 159.444C717.842 158.134 717.322 156.878 716.395 155.952C715.469 155.026 714.212 154.505 712.902 154.505C711.591 154.505 710.335 155.026 709.408 155.952C708.481 156.878 707.961 158.134 707.961 159.444C707.961 160.754 708.481 162.01 709.408 162.937C710.335 163.863 711.591 164.383 712.902 164.383Z" stroke="#FBFBFB" stroke-width="2"/>
<path d="M906.138 156.987C907.415 156.987 908.64 156.48 909.544 155.577C910.447 154.674 910.954 153.45 910.954 152.173C910.954 150.896 910.447 149.672 909.544 148.769C908.64 147.866 907.415 147.359 906.138 147.359C905.506 147.359 904.879 147.483 904.295 147.725C903.711 147.967 903.18 148.322 902.733 148.769C901.83 149.672 901.322 150.896 901.322 152.173C901.322 152.805 901.447 153.431 901.689 154.015C901.931 154.599 902.286 155.13 902.733 155.577C903.18 156.024 903.711 156.379 904.295 156.621C904.879 156.863 905.506 156.987 906.138 156.987Z" stroke="#FBFBFB" stroke-width="2"/>
<path d="M900.1 94.4765C901.404 94.4765 902.654 93.9588 903.576 93.0372C904.498 92.1156 905.016 90.8658 905.016 89.5625C905.016 88.2592 904.498 87.0093 903.576 86.0877C902.654 85.1661 901.404 84.6484 900.1 84.6484C898.796 84.6484 897.546 85.1661 896.624 86.0877C895.702 87.0093 895.184 88.2592 895.184 89.5625C895.184 90.8658 895.702 92.1156 896.624 93.0372C897.546 93.9588 898.796 94.4765 900.1 94.4765Z" stroke="#FBFBFB" stroke-width="2"/>
<path d="M899.301 189.827C900.592 189.827 901.829 189.314 902.742 188.402C903.654 187.49 904.167 186.253 904.167 184.962C904.167 183.672 903.654 182.435 902.742 181.523C901.829 180.611 900.592 180.098 899.301 180.098C898.011 180.098 896.773 180.611 895.86 181.523C894.948 182.435 894.435 183.672 894.435 184.962C894.435 186.253 894.948 187.49 895.86 188.402C896.773 189.314 898.011 189.827 899.301 189.827Z" stroke="#FBFBFB" stroke-width="2"/>
<path d="M765.852 166.03C765.02 166.396 764.359 166.944 763.868 167.676C763.511 168.225 763.627 168.354 764.218 168.063C764.991 167.68 765.636 167.131 766.152 166.416C766.518 165.917 766.418 165.789 765.852 166.03Z" stroke="#FBFBFB" stroke-width="2"/>
<path d="M467.225 316.694C468.754 316.694 470.22 316.087 471.301 315.006C472.382 313.926 472.99 312.46 472.99 310.932C472.99 309.404 472.382 307.938 471.301 306.857C470.22 305.777 468.754 305.17 467.225 305.17C465.697 305.17 464.23 305.777 463.149 306.857C462.068 307.938 461.461 309.404 461.461 310.932C461.461 312.46 462.068 313.926 463.149 315.006C464.23 316.087 465.697 316.694 467.225 316.694Z" stroke="#FBFBFB" stroke-width="2"/>
<path d="M657.38 75.2444C658.423 75.2444 659.422 74.8304 660.159 74.0937C660.896 73.3569 661.311 72.3576 661.311 71.3156C661.311 70.2736 660.896 69.2744 660.159 68.5376C659.422 67.8008 658.423 67.3869 657.38 67.3869C656.338 67.3869 655.338 67.8008 654.601 68.5376C653.864 69.2744 653.45 70.2736 653.45 71.3156C653.45 72.3576 653.864 73.3569 654.601 74.0937C655.338 74.8304 656.338 75.2444 657.38 75.2444Z" stroke="#FBFBFB" stroke-width="2"/>
<path d="M586.713 157.499C587.679 157.499 588.606 157.115 589.289 156.432C589.973 155.749 590.356 154.823 590.356 153.857C590.356 152.891 589.973 151.965 589.289 151.282C588.606 150.599 587.679 150.215 586.713 150.215C585.747 150.215 584.82 150.599 584.137 151.282C583.454 151.965 583.07 152.891 583.07 153.857C583.07 154.823 583.454 155.749 584.137 156.432C584.82 157.115 585.747 157.499 586.713 157.499Z" stroke="#FBFBFB" stroke-width="2"/>
<path d="M513.191 133.478C513.456 134.156 513.859 134.772 514.378 135.29C514.897 135.809 515.522 136.221 516.218 136.502C516.913 136.783 517.665 136.927 518.43 136.928C519.196 136.928 519.96 136.784 520.679 136.504C521.398 136.224 522.057 135.813 522.621 135.294C523.184 134.776 523.639 134.161 523.961 133.484C524.282 132.807 524.464 132.081 524.495 131.347C524.526 130.614 524.406 129.888 524.141 129.211C523.877 128.533 523.474 127.917 522.955 127.399C522.435 126.88 521.81 126.468 521.115 126.187C520.42 125.906 519.668 125.762 518.903 125.761C518.137 125.761 517.373 125.905 516.654 126.185C515.935 126.465 515.275 126.876 514.712 127.394C514.149 127.913 513.694 128.528 513.372 129.205C513.05 129.882 512.869 130.608 512.838 131.341C512.807 132.075 512.927 132.801 513.191 133.478Z" stroke="#FBFBFB" stroke-width="2"/>
<path d="M353.215 255.194C354.393 255.194 355.522 254.726 356.355 253.893C357.188 253.06 357.656 251.931 357.656 250.753C357.656 249.576 357.188 248.447 356.355 247.614C355.522 246.781 354.393 246.313 353.215 246.313C352.037 246.313 350.907 246.781 350.074 247.614C349.241 248.447 348.773 249.576 348.773 250.753C348.773 251.931 349.241 253.06 350.074 253.893C350.907 254.726 352.037 255.194 353.215 255.194Z" stroke="#FBFBFB" stroke-width="2"/>
<path d="M356.308 500.429C356.595 501.547 357.354 502.495 358.419 503.065C359.483 503.634 360.765 503.779 361.983 503.466C362.586 503.311 363.155 503.049 363.658 502.694C364.161 502.339 364.587 501.899 364.913 501.398C365.239 500.897 365.458 500.345 365.557 499.775C365.656 499.204 365.634 498.625 365.492 498.071C365.205 496.953 364.446 496.005 363.382 495.435C362.317 494.866 361.035 494.721 359.817 495.034C359.214 495.189 358.645 495.451 358.142 495.806C357.64 496.161 357.213 496.601 356.887 497.102C356.561 497.603 356.343 498.155 356.243 498.726C356.144 499.296 356.166 499.875 356.308 500.429Z" stroke="#FBFBFB" stroke-width="2"/>
<path d="M361.137 211.94C362.428 211.94 363.665 211.427 364.578 210.515C365.49 209.603 366.003 208.366 366.003 207.076C366.003 205.786 365.49 204.548 364.578 203.636C363.665 202.724 362.428 202.212 361.137 202.212C359.847 202.212 358.609 202.724 357.696 203.636C356.784 204.548 356.271 205.786 356.271 207.076C356.271 208.366 356.784 209.603 357.696 210.515C358.609 211.427 359.847 211.94 361.137 211.94Z" stroke="#FBFBFB" stroke-width="2"/>
<path d="M103.197 188.333C103.116 189.375 103.254 190.423 103.602 191.418C103.95 192.413 104.501 193.335 105.224 194.132C105.947 194.929 106.828 195.584 107.816 196.061C108.804 196.538 109.88 196.828 110.983 196.912C113.21 197.084 115.41 196.412 117.099 195.045C118.788 193.679 119.828 191.729 119.99 189.625C120.07 188.583 119.933 187.534 119.585 186.539C119.237 185.544 118.686 184.622 117.963 183.825C117.24 183.029 116.359 182.373 115.371 181.896C114.383 181.419 113.307 181.13 112.204 181.045C109.977 180.873 107.777 181.545 106.088 182.912C104.399 184.279 103.359 186.228 103.197 188.333Z" stroke="#FBFBFB" stroke-width="2"/>
<path d="M74.3456 477.128C74.0904 477.677 73.9591 478.278 73.9593 478.895C73.9595 479.513 74.0911 480.135 74.3468 480.726C74.6024 481.317 74.977 481.865 75.4491 482.34C75.9212 482.815 76.4816 483.207 77.0984 483.493C78.344 484.071 79.7433 484.184 80.9886 483.808C82.2338 483.431 83.223 482.596 83.7384 481.486C83.9937 480.937 84.125 480.336 84.1248 479.718C84.1246 479.101 83.9929 478.479 83.7373 477.888C83.4817 477.297 83.1071 476.749 82.6349 476.274C82.1628 475.799 81.6023 475.407 80.9856 475.121C79.74 474.543 78.3407 474.43 77.0955 474.806C75.8503 475.182 74.8611 476.018 74.3456 477.128Z" stroke="#FBFBFB" stroke-width="2"/>
<path d="M22.3486 468.531C24.463 468.531 26.4908 467.691 27.986 466.197C29.4811 464.702 30.321 462.675 30.321 460.561C30.321 458.447 29.4811 456.42 27.986 454.926C26.4908 453.431 24.463 452.591 22.3486 452.591C20.2341 452.591 18.2063 453.431 16.7111 454.926C15.216 456.42 14.376 458.447 14.376 460.561C14.376 462.675 15.216 464.702 16.7111 466.197C18.2063 467.691 20.2341 468.531 22.3486 468.531Z" stroke="#FBFBFB" stroke-width="2"/>
<path d="M766.9 303.449L766.85 302.875C772.739 302.226 783.931 283.668 789.732 283.618C830.655 283.293 871.583 283.09 912.514 283.007C913.787 282.994 919.077 282.657 919.638 283.979C919.821 284.404 919.688 284.674 919.239 284.79C917.559 285.239 916.357 285.464 915.633 285.464C874.253 285.164 832.872 284.882 791.492 284.616C789.47 284.603 788.011 285.214 786.451 286.661C782.87 289.979 770.83 303.112 766.9 303.449Z" fill="#FBFBFB"/>
<path d="M685.291 166.815C689.545 167.501 689.882 172.079 688.023 175.06C685.129 179.674 679.227 176.456 677.905 171.879C677.796 171.472 677.826 171.081 677.992 170.707C678.882 168.744 680.259 167.235 682.122 166.179C682.372 166.035 682.581 165.827 682.725 165.577C682.87 165.328 682.946 165.045 682.945 164.758V92.0819C682.945 91.716 683.049 91.3793 683.257 91.0716C684.471 89.2756 685.852 87.6542 687.399 86.2075C695.742 78.4331 704.08 70.6089 712.415 62.7347C712.792 62.3747 713.297 62.1737 713.825 62.1735C741.448 61.9739 769.146 62.4603 796.806 62.1735C811.312 62.0155 821.081 61.9656 826.114 62.0238C834.198 62.1236 844.117 50.487 849.308 45.1739C849.923 44.5355 850.767 44.1676 851.653 44.1511C868.438 43.8352 885.19 43.6896 901.909 43.7146C908.422 43.7312 914.073 43.91 918.864 44.2509C921.576 44.4421 921.572 44.5502 918.852 44.5752C898.224 44.7581 877.604 44.7664 856.993 44.6001C855.188 44.5835 853.392 44.6791 851.603 44.887C851.187 44.9286 850.83 45.0948 850.53 45.3859C844.267 51.5222 834.885 63.296 825.727 63.6327C815.596 64.0069 800.587 63.1089 787.187 63.4831C765.041 64.0942 742.558 63.3708 720.375 63.3583C717.921 63.3583 715.796 63.4872 713.999 63.745C713.583 63.8032 713.222 63.9736 712.914 64.2563C708.809 68.0105 684.517 89.2756 684.517 93.0048C684.501 117.201 684.496 141.497 684.505 165.892C684.505 166.113 684.584 166.326 684.728 166.495C684.871 166.664 685.071 166.777 685.291 166.815Z" fill="#FBFBFB"/>
<path d="M639.589 294.144L639.851 293.783C644.892 291.6 648.585 286.786 652.278 282.82C652.552 282.529 652.889 282.383 653.288 282.383L709.321 282.633C710.976 282.641 711.205 282.071 710.007 280.924L694.037 265.546C693.737 265.263 693.384 265.117 692.976 265.109C676.183 264.76 659.402 264.668 642.633 264.835C640.438 264.86 638.541 265.358 636.458 265.845C636.058 265.936 635.717 265.837 635.434 265.546L628.984 258.91L629.608 258.811L634.411 263.113C634.719 263.396 635.085 263.538 635.509 263.538C654.449 263.546 673.38 263.546 692.303 263.538C695.609 263.538 709.757 278.716 713.114 281.909C713.529 282.3 714.024 282.499 714.598 282.508C731.105 282.595 747.412 282.857 764.005 282.208C764.48 282.192 764.887 282.017 765.228 281.685L775.309 271.832C775.725 271.424 775.667 271.104 775.135 270.871C773.088 269.961 770.581 270.634 769.021 270.584C759.148 270.268 749.275 270.331 739.402 270.771C737.867 270.834 736.906 270.659 735.746 269.524C729.682 263.579 723.586 257.671 717.455 251.801C715.546 249.98 715.272 249.194 712.328 249.194C695.509 249.194 678.687 249.194 661.86 249.194C660.612 249.194 659.539 248.895 658.279 248.633C657.838 248.542 657.456 248.342 657.131 248.035L627.986 221.007C627.678 220.725 627.321 220.562 626.913 220.521C605.291 218.176 581.848 219.423 560.064 219.76C559.639 219.768 559.265 219.635 558.941 219.361C551.263 212.875 543.898 206.016 536.845 198.782C535.734 197.647 528.024 197.148 526.127 197.135C496.558 196.861 466.984 196.898 437.406 197.248C436.966 197.256 436.687 197.472 436.57 197.896C433.876 207.724 420.675 212.489 414.474 202.947C404.818 188.068 431.006 175.833 436.209 194.541C436.35 195.048 436.683 195.302 437.207 195.302L534.699 195.227C535.106 195.227 535.456 195.373 535.747 195.664C540.039 199.917 557.918 218.55 562.858 218.588C585.108 218.779 605.279 218.671 623.37 218.263C625.491 218.226 626.376 217.939 627.961 219.536C637.676 229.314 647.736 238.718 658.142 247.748C658.458 248.022 658.824 248.168 659.24 248.184C673.579 248.642 687.886 248.758 702.159 248.533C705.578 248.484 710.718 247.398 715.097 247.66C715.53 247.694 715.896 247.868 716.195 248.184C719.314 251.627 735.347 268.714 738.865 268.763C751.076 268.913 763.29 269.071 775.509 269.237C778.79 269.287 780.624 266.918 782.67 264.697C782.953 264.381 783.307 264.223 783.731 264.223C826.659 264.107 869.586 263.953 912.514 263.762C914.078 263.762 916.174 263.949 918.802 264.323C919.426 264.415 919.426 264.523 918.802 264.648C914.385 265.546 909.258 264.747 905.839 264.86C889.008 265.433 869.919 264.747 855.434 264.86C834.847 265.026 814.261 264.997 793.675 264.772C788.659 264.71 784.804 265.246 780.899 268.863C775.426 273.927 770.044 279.074 764.754 284.304C764.463 284.586 764.122 284.674 763.731 284.566C760.437 283.68 757.218 284.154 754.361 284.154C704.596 283.996 672.548 284.004 658.217 284.179C655.397 284.212 652.702 285.41 650.132 287.771C640.957 296.186 631.912 304.717 622.995 313.364C622.105 314.237 621.016 314.345 619.726 313.688C619.402 313.522 619.057 313.439 618.691 313.439L574.337 313.426C573.863 313.426 573.509 313.63 573.276 314.038C570.743 318.403 567.238 321.858 562.172 318.54C553.189 312.653 564.979 297.425 573.626 311.181C573.867 311.572 574.216 311.768 574.674 311.768L620.912 311.967C621.328 311.967 621.702 311.838 622.035 311.581C624.418 309.672 639.914 296.29 639.589 294.144ZM566.052 317.742C567.548 317.742 568.982 317.148 570.04 316.091C571.098 315.033 571.692 313.6 571.692 312.104C571.692 311.364 571.546 310.631 571.262 309.947C570.979 309.263 570.564 308.642 570.04 308.118C569.516 307.595 568.895 307.179 568.21 306.896C567.526 306.613 566.793 306.467 566.052 306.467C565.312 306.467 564.578 306.613 563.894 306.896C563.21 307.179 562.588 307.595 562.065 308.118C561.541 308.642 561.126 309.263 560.842 309.947C560.559 310.631 560.413 311.364 560.413 312.104C560.413 313.6 561.007 315.033 562.065 316.091C563.122 317.148 564.557 317.742 566.052 317.742ZM425.616 204.681C427.611 204.681 429.525 203.889 430.936 202.478C432.347 201.068 433.139 199.155 433.139 197.16C433.139 195.166 432.347 193.253 430.936 191.842C429.525 190.432 427.611 189.64 425.616 189.64C423.621 189.64 421.707 190.432 420.296 191.842C418.885 193.253 418.093 195.166 418.093 197.16C418.093 199.155 418.885 201.068 420.296 202.478C421.707 203.889 423.621 204.681 425.616 204.681Z" fill="#FBFBFB"/>
<path d="M438.617 331.212C436.097 343.709 417.744 334.592 425.766 325.624C429.696 321.246 435.86 323.03 438.542 327.857C438.792 328.297 439.17 328.522 439.677 328.53L495.909 328.954C496.35 328.954 496.724 329.112 497.032 329.428C501.075 333.469 512.254 345.854 517.706 345.854C557.473 345.862 597.123 345.858 636.657 345.842C637.155 345.841 637.636 345.654 638.005 345.318C641.773 341.813 665.079 318.577 667.662 318.503C690.086 317.879 724.888 317.862 772.066 318.453C775.584 318.49 792.066 301.503 795.522 298.223C795.871 297.89 796.287 297.724 796.769 297.724L918.852 297.4C919.218 297.4 919.393 297.582 919.376 297.948C919.376 298.131 919.376 298.331 919.376 298.547C919.393 299.013 919.168 299.245 918.703 299.245L796.844 299.046C796.42 299.045 796.013 299.206 795.709 299.495C791.941 303.037 776.295 319.488 772.253 319.55C730.344 320.261 699.652 319.014 668.024 319.725C667.599 319.733 667.233 319.883 666.926 320.174L639.477 346.004C639.052 346.404 638.485 346.627 637.893 346.627C597.884 346.544 557.901 346.623 517.943 346.864C515.572 346.877 513.926 346.864 512.116 345.106C506.86 340.009 501.54 334.987 496.159 330.039C495.851 329.757 495.485 329.615 495.061 329.615C476.621 329.69 457.669 328.717 439.403 330.501C438.962 330.542 438.7 330.779 438.617 331.212Z" fill="#FBFBFB"/>
<path d="M73.9018 439.945C75.9313 439.728 77.9691 439.633 80.0153 439.658C102.357 439.965 124.702 440.206 147.052 440.381C159.079 440.481 161.288 459.027 176.397 459.027C201.974 459.035 227.551 459.019 253.128 458.977C255.872 458.977 257.619 458.166 259.74 456.208C272.179 444.672 282.909 433.684 293.227 424.155C293.56 423.847 293.951 423.71 294.4 423.743C305.329 424.429 319.44 423.781 327.051 423.806C370.278 423.889 413.505 423.997 456.733 424.13C462.397 424.142 472.915 411.72 476.72 407.542C476.983 407.252 477.306 407.02 477.667 406.863C478.029 406.706 478.42 406.627 478.816 406.631C518.13 407.193 574.711 408.078 634.611 406.831C635.043 406.823 635.422 406.677 635.746 406.394C644.031 399.285 651.92 391.81 659.414 383.969C663.507 379.691 666.588 381.986 671.479 382.011C722.995 382.273 778.89 381.861 832.664 382.148C835.816 382.165 838.952 381.957 842.071 381.525C842.495 381.466 842.874 381.3 843.207 381.026C848.646 376.519 853.629 371.555 858.154 366.134C858.445 365.785 858.815 365.56 859.264 365.46C862.158 364.849 865.377 365.797 867.611 365.797C884.679 365.814 901.784 365.818 918.927 365.81C919.027 365.808 919.126 365.833 919.213 365.882C919.301 365.931 919.374 366.001 919.426 366.087C919.478 366.173 919.506 366.271 919.508 366.371C919.51 366.471 919.486 366.57 919.438 366.658L919.064 367.331C918.831 367.772 918.465 367.992 917.966 367.992C901.389 367.984 884.808 367.984 868.222 367.992C857.031 368.005 852.427 374.216 845.415 381.961C842.994 384.643 840.699 383.583 837.792 383.583C781.685 383.495 741.173 384.094 708.884 383.583C695.06 383.358 677.668 383.82 667.574 383.657C664.763 383.616 662.529 384.323 660.874 385.778C652.565 393.095 644.65 400.782 637.131 408.839C636.848 409.138 636.503 409.288 636.096 409.288L479.827 409.537C479.411 409.537 479.037 409.662 478.704 409.911C472.341 414.663 467.188 421.486 460.812 425.689C460.455 425.922 460.068 426.038 459.652 426.038C409.38 426.138 359.112 426.238 308.848 426.337C299.403 426.362 294.6 425.564 288.923 431.351C279.653 440.83 269.584 449.785 259.94 458.865C258.717 460.025 258.081 462.22 255.66 462.045C229.959 460.1 203.458 461.222 177.632 461.197C173.515 461.197 169.996 463.143 166.565 459.089C161.716 453.377 156.43 448.147 150.707 443.399C150.391 443.133 150.025 442.996 149.61 442.988C124.607 442.439 99.6035 442.543 74.6004 443.3C74.2548 443.31 73.9214 443.431 73.6495 443.647C73.3776 443.863 73.1817 444.161 73.0908 444.497C70.3585 454.562 58.7303 455.921 51.3442 449.81C48.0129 447.054 47.8882 443 48.3623 439.059C48.4122 438.643 48.5744 438.273 48.8489 437.949L54.7128 431.139C54.9706 430.84 55.2909 430.649 55.6735 430.565C64.1326 428.603 69.8843 431.53 72.9286 439.346C73.1033 439.795 73.4276 439.994 73.9018 439.945ZM61.4751 449.735C63.6789 449.735 65.7924 448.86 67.3507 447.302C68.909 445.745 69.7845 443.632 69.7845 441.429C69.7845 439.226 68.909 437.113 67.3507 435.555C65.7924 433.997 63.6789 433.122 61.4751 433.122C59.2714 433.122 57.1578 433.997 55.5995 435.555C54.0412 437.113 53.1657 439.226 53.1657 441.429C53.1657 443.632 54.0412 445.745 55.5995 447.302C57.1578 448.86 59.2714 449.735 61.4751 449.735Z" fill="#FBFBFB"/>
<path d="M652.44 427.697C635.83 429.318 619.161 430.162 602.434 430.229C563.682 430.516 524.905 430.117 486.128 430.391C482.247 430.416 466.664 446.742 463.008 450.197C462.709 450.48 462.351 450.621 461.935 450.621C410.432 450.579 358.921 450.692 307.401 450.958C306.303 450.958 304.182 452.118 303.196 453.09C289.414 466.702 277.573 477.902 267.675 486.691C266.078 488.112 263.932 488.819 261.238 488.811C227.834 488.753 194.434 488.678 161.038 488.586C160.614 488.586 160.252 488.736 159.953 489.035C153.278 495.633 141.363 508.205 132.654 508.168C108.824 508.055 85.0311 509.565 61.2507 508.43C60.8515 508.413 60.5229 508.251 60.265 507.943C55.8068 502.722 50.9534 497.87 45.7049 493.388L47.1398 492.104C47.4392 491.837 47.6305 491.505 47.7136 491.106C48.5745 487.065 52.1802 488.524 54.1765 485.855L65.3056 496.431C65.6217 496.731 65.996 496.88 66.4285 496.88C87.6553 497.171 108.811 497.354 129.897 497.429C132.654 497.442 133.939 497.554 136.048 495.558C140.988 490.885 145.954 486.25 150.945 481.652C154.65 478.247 156.646 476.763 162.036 476.862C198.131 477.474 228.437 476.276 258.979 477.062C262.123 477.149 264.12 474.954 266.303 472.709C277.191 461.509 288.491 450.746 300.202 440.419C300.518 440.136 300.892 439.995 301.325 439.995C352.545 440.044 403.716 440.044 454.836 439.995C458.43 439.995 472.665 425.178 475.947 422.059C477.756 420.351 479.303 419.465 481.96 419.453C490.503 419.436 499.049 419.432 507.6 419.44C516.845 420.476 526.102 419.877 535.41 419.478L642.309 419.44C642.742 419.44 643.12 419.299 643.445 419.016L649.383 413.953C653.517 410.951 657.202 407.479 660.438 403.538C661.943 401.518 663.856 400.503 666.177 400.495C719.177 400.229 783.199 400.316 858.241 400.757C858.657 400.757 859.019 400.611 859.326 400.32L872.976 387.237C873.259 386.963 873.596 386.817 873.986 386.801C888.784 386.065 903.668 386.364 918.503 386.401C918.927 386.41 919.143 386.626 919.152 387.05L919.376 395.855C919.393 396.379 919.143 396.641 918.628 396.641C905.635 396.716 892.685 396.72 879.776 396.654C877.667 396.641 865.328 409.325 862.595 411.558C862.263 411.824 861.88 411.957 861.447 411.957C807.898 411.957 754.357 411.957 700.824 411.957C695.297 411.957 687.325 412.743 680.462 412.256C677.967 412.082 673.983 412.369 668.51 413.117C668.111 413.175 667.761 413.341 667.462 413.616L652.44 427.697Z" fill="#FBFBFB"/>
<path d="M615.26 443.823L615.173 442.801C615.139 442.418 614.927 442.219 614.536 442.202L612.453 442.152L616.196 441.84L644.842 441.865C645.308 441.865 645.715 441.711 646.065 441.404L666.489 422.82C666.772 422.563 667.104 422.425 667.487 422.409C680.65 421.947 696.707 422.508 706.938 422.434C744.143 422.168 781.348 422.18 818.553 422.471C832.277 422.571 846.089 421.698 859.788 422.571C862.483 422.745 875.845 408.677 878.478 406.12C878.753 405.854 879.081 405.721 879.464 405.721H918.752C919.177 405.721 919.385 405.933 919.376 406.357C919.376 406.49 919.376 406.627 919.376 406.769C919.376 407.026 919.247 407.155 918.989 407.155L880.237 407.342C879.838 407.342 879.501 407.479 879.227 407.754C874.477 412.493 869.665 417.104 864.791 421.585C862.728 423.49 860.757 424.417 858.877 424.367C848.48 424.084 838.087 424.001 827.698 424.117C774.249 424.728 720.762 423.631 667.325 424.554C667.112 424.558 666.902 424.604 666.71 424.69C666.517 424.776 666.344 424.899 666.202 425.053C661.195 430.391 656.058 435.579 650.793 440.618C648.36 442.95 646.551 444.335 642.896 444.185C633.68 443.794 624.468 443.674 615.26 443.823Z" fill="#FBFBFB"/>
<path d="M886.201 416.509C878.141 417.719 875.683 426.998 869.457 429.817C869.411 429.842 869.357 429.849 869.306 429.837C869.255 429.825 869.21 429.794 869.18 429.75C869.151 429.706 869.138 429.653 869.146 429.601C869.153 429.549 869.18 429.502 869.22 429.468C872.24 426.437 881.959 415.437 885.29 415.387C896.544 415.237 907.802 415.258 919.064 415.449C919.255 415.457 919.359 415.528 919.376 415.661C919.376 415.703 919.372 415.744 919.364 415.786C919.339 415.877 919.268 415.923 919.151 415.923C906.026 416.534 895.259 415.162 886.201 416.509Z" fill="#FBFBFB"/>
<path d="M523.745 118.573C521.307 117.982 518.829 117.999 516.309 118.623L516.783 54.6403C516.79 53.9658 517.048 53.3173 517.506 52.8193C525.55 44.0056 534.009 35.6617 542.884 27.7876C543.915 26.8646 545.791 26.374 548.511 26.3158C568.523 25.8918 588.461 25.6548 608.46 26.4405C614.898 26.69 622.197 26.004 627.612 25.9791C637.876 25.9292 648.136 25.9167 658.392 25.9417C662.733 25.9541 670.906 25.2432 677.119 26.1287C680.45 26.6152 690.419 37.9025 693.388 40.7462C696.096 43.3404 697.393 44.3507 701.423 44.3507C723.024 44.3424 744.625 44.334 766.227 44.3257C773.188 44.3257 780.188 45.0491 787.025 44.7373C797.979 44.2301 808.938 44.2966 819.901 44.9369C820.325 44.9618 820.691 44.8288 820.999 44.5377C827.736 38.152 834.444 31.7579 841.123 25.3555C844.654 21.963 848.247 21.1274 853.45 21.2147C875.085 21.5473 896.719 21.6554 918.353 21.539C918.827 21.5307 919.064 21.7676 919.064 22.2499V24.6445C919.064 25.1351 918.819 25.3846 918.328 25.3929C901.635 25.8169 885.216 25.0063 868.347 25.4927C861.76 25.6756 855.168 25.7088 848.572 25.5924C847.69 25.5758 847.095 26.0456 846.788 27.0018C846.646 27.4259 846.409 27.7959 846.077 28.1118L822.695 50.2376C822.363 50.5452 821.972 50.7115 821.523 50.7364C809.653 51.3102 797.821 51.2894 786.027 50.6741C780.812 50.4121 775.921 51.148 770.83 51.1605C747.15 51.2104 723.469 51.2187 699.789 51.1854C697.144 51.1854 695.697 50.9235 693.688 49.0278C688.431 44.0555 683.232 39.025 678.092 33.9364C677.801 33.6453 677.448 33.4957 677.032 33.4873C656.795 33.0633 636.595 33.2753 616.383 32.7266C596.533 32.2027 576.845 33.5123 549.758 32.527C547.65 32.4522 545.666 33.3751 543.957 34.8843C540.239 38.1769 523.445 52.1707 523.246 56.2242C522.659 68.4844 523.508 83.476 523.545 92.8551C523.578 101.444 523.645 110.017 523.745 118.573Z" fill="#FBFBFB"/>
<path d="M876.644 60.5022L876.332 59.9784C890.497 59.4213 904.666 59.4545 918.84 60.0781C919.176 60.0906 919.089 60.2777 918.989 60.5147C918.989 60.523 918.985 60.5271 918.977 60.5271L876.644 60.5022Z" fill="#FBFBFB"/>
<path d="M140.889 165.319C139.558 163.323 137.861 161.764 135.798 160.642C139.966 156.289 140.452 154.206 147.077 154.331C156.052 154.505 165.027 154.655 174.002 154.78C174.426 154.788 174.817 154.672 175.174 154.43C176.855 153.316 178.697 151.836 180.702 149.99C187.788 143.463 194.817 136.882 201.787 130.247C202.078 129.964 202.427 129.823 202.835 129.823L327.9 129.723C328.324 129.723 328.694 129.869 329.01 130.16C337.544 138.092 362.273 162.912 365.105 162.924C421.591 163.149 478.076 163.107 534.562 162.799C540.251 162.774 550.507 163.473 558.804 162.799C561.711 162.562 564.281 163.036 566.527 165.231C573.239 171.784 580.006 178.273 586.826 184.701C589.122 186.871 590.993 187.956 594.362 188.006C616.495 188.288 638.604 188.334 660.687 188.143C660.977 188.143 661.257 188.25 661.473 188.442L693.526 218.089C693.825 218.371 694.183 218.513 694.599 218.513L802.583 218.687C803.049 218.687 803.452 218.85 803.793 219.174L826.189 240.439C826.472 240.705 826.804 240.838 827.187 240.838C849.412 240.938 871.649 240.9 893.899 240.726C898.491 240.688 903.269 241.649 907.973 241.137C911.433 240.772 914.906 240.717 918.391 240.975C918.84 241.009 919.064 241.254 919.064 241.711V246.688C919.064 247.112 918.852 247.324 918.428 247.324C890.705 247.332 862.986 247.332 835.272 247.324C829.52 247.324 826.538 249.007 821.847 244.43C815.043 237.795 808.198 231.226 801.311 224.724C801.011 224.441 800.654 224.296 800.238 224.287C772.981 224.013 745.723 223.897 718.466 223.938C712.141 223.938 693.9 226.507 688.223 221.144C679.664 213.071 671.222 204.872 662.896 196.549C660.088 193.743 658.479 195.077 655.248 194.928C632.939 193.893 610.507 194.828 588.174 194.554C587.741 194.554 587.367 194.408 587.051 194.117C578.716 186.422 570.869 178.315 562.509 170.657C559.59 167.988 534.998 169.697 530.432 169.659C471.368 169.135 416.983 170.507 362.186 169.335C361.77 169.326 361.412 169.177 361.113 168.886C349.746 157.948 329.135 136.495 324.182 136.433C285.837 136.017 247.493 135.992 209.148 136.358C207.36 136.375 205.576 136.55 203.796 136.882C203.38 136.957 203.026 137.148 202.735 137.456C192.404 148.381 184.548 156.098 179.167 160.604C176.297 163.024 150.708 161.976 145.368 162.126C144.944 162.134 144.569 162.271 144.245 162.537L140.889 165.319Z" fill="#FBFBFB"/>
<path d="M716.27 165.693C710.319 167.439 702.184 162.101 707.1 156.014C713.363 148.269 723.032 155.802 718.628 163.76C718.387 164.192 718.445 164.583 718.803 164.932L740.362 185.973C740.678 186.28 741.057 186.455 741.498 186.497C745.598 186.887 749.674 187.02 753.725 186.896C762.633 186.634 843.855 185.287 845.44 186.833C856.552 197.643 867.823 208.331 879.251 218.899C879.701 219.317 880.289 219.548 880.898 219.548L918.178 219.623C918.669 219.623 918.848 219.86 918.715 220.334C918.602 220.72 883.456 221.394 880.249 220.745C879.825 220.662 879.455 220.471 879.139 220.172L845.852 188.692C845.577 188.442 845.257 188.301 844.891 188.268C837.542 187.582 828.31 188.056 823.244 188.056C796.336 188.039 769.437 187.956 742.546 187.806C738.092 187.781 737.929 185.337 735.247 182.855C729.241 177.275 723.282 171.642 717.368 165.955C717.052 165.656 716.686 165.568 716.27 165.693ZM712.901 164.383C714.212 164.383 715.468 163.863 716.395 162.937C717.322 162.01 717.842 160.754 717.842 159.444C717.842 158.134 717.322 156.878 716.395 155.952C715.468 155.026 714.212 154.505 712.901 154.505C711.591 154.505 710.334 155.026 709.408 155.952C708.481 156.878 707.961 158.134 707.961 159.444C707.961 160.754 708.481 162.01 709.408 162.937C710.334 163.863 711.591 164.383 712.901 164.383Z" fill="#FBFBFB"/>
<path d="M899.214 147.259C893.841 142.536 888.567 137.672 883.394 132.666C883.086 132.375 882.72 132.238 882.296 132.255C874.56 132.587 866.883 132.696 859.264 132.579C857.625 132.554 856.22 133.382 855.047 135.061C854.822 135.385 854.535 135.639 854.186 135.822C850.418 137.726 847.727 136.828 846.114 133.128C843.643 127.49 853.412 122.826 856.731 130.397C856.906 130.796 857.214 130.999 857.654 131.008C862.371 131.02 882.82 129.873 885.452 132.392C890.451 137.165 895.579 141.796 900.836 146.286C901.152 146.56 901.505 146.619 901.896 146.461C914.984 141.035 916.481 160.904 904.816 158.571C901.214 157.856 899.38 155.412 899.314 151.238C899.305 150.814 899.409 150.423 899.626 150.065C900.324 148.918 900.262 148.182 899.214 147.259ZM906.138 156.987C907.416 156.987 908.641 156.48 909.544 155.577C910.447 154.674 910.954 153.45 910.954 152.173C910.954 150.896 910.447 149.672 909.544 148.769C908.641 147.866 907.416 147.359 906.138 147.359C905.506 147.359 904.88 147.483 904.295 147.725C903.711 147.967 903.18 148.322 902.733 148.769C901.83 149.672 901.322 150.896 901.322 152.173C901.322 152.805 901.447 153.431 901.689 154.015C901.931 154.599 902.286 155.13 902.733 155.577C903.18 156.024 903.711 156.379 904.295 156.621C904.88 156.863 905.506 156.987 906.138 156.987Z" fill="#FBFBFB"/>
<path d="M893.799 95.5242L893.125 95.1625C894.523 91.7077 892.339 89.2507 894.735 85.9081C901.647 76.2796 914.473 91.5955 902.408 95.9608C900.075 96.7964 897.704 95.624 895.496 94.751C895.138 94.6096 894.818 94.6595 894.535 94.9006L893.799 95.5242ZM900.1 94.4766C901.403 94.4766 902.654 93.9588 903.576 93.0373C904.498 92.1157 905.016 90.8658 905.016 89.5625C905.016 88.2592 904.498 87.0093 903.576 86.0877C902.654 85.1662 901.403 84.6485 900.1 84.6485C898.796 84.6485 897.546 85.1662 896.624 86.0877C895.702 87.0093 895.184 88.2592 895.184 89.5625C895.184 90.8658 895.702 92.1157 896.624 93.0373C897.546 93.9588 898.796 94.4766 900.1 94.4766Z" fill="#FBFBFB"/>
<path d="M773.712 159.133L773.4 158.509L781.922 150.14C782.213 149.849 782.567 149.699 782.982 149.691C805.316 149.267 825.777 149.99 845.789 149.454C850.007 149.342 855.621 150.128 860.649 149.342C861.048 149.275 861.439 149.321 861.822 149.479C863.444 150.144 864.75 150.951 865.74 151.899C875.23 161.095 884.874 170.129 894.673 179.001C894.997 179.3 895.367 179.387 895.783 179.263C898.353 178.498 900.166 178.319 901.223 178.726C905.365 180.323 907.823 184.775 904.829 188.642C899.476 195.539 890.643 190.301 893.313 181.62C893.429 181.262 893.35 180.951 893.076 180.685L862.845 151.524C862.462 151.159 862.005 150.976 861.473 150.976H783.294C782.879 150.976 782.517 151.117 782.209 151.4L773.712 159.133ZM899.301 189.827C900.592 189.827 901.83 189.314 902.742 188.402C903.655 187.49 904.167 186.253 904.167 184.962C904.167 183.672 903.655 182.435 902.742 181.523C901.83 180.611 900.592 180.098 899.301 180.098C898.011 180.098 896.773 180.611 895.861 181.523C894.948 182.435 894.436 183.672 894.436 184.962C894.436 186.253 894.948 187.49 895.861 188.402C896.773 189.314 898.011 189.827 899.301 189.827Z" fill="#FBFBFB"/>
<path d="M893.799 95.5242L880.449 108.545C880.15 108.845 879.788 109.007 879.364 109.032C868.497 109.78 854.698 109.244 847.037 109.294C821.909 109.443 795.783 108.595 770.144 109.605C769.695 109.622 769.308 109.784 768.984 110.092L744.704 133.078C744.372 133.394 744.259 133.772 744.368 134.213C745.449 138.794 743.993 141.568 740.001 142.532C732.665 144.303 731.554 134.051 738.828 131.806C739.219 131.689 739.614 131.669 740.013 131.744L742.771 132.292C743.22 132.384 743.615 132.272 743.956 131.956C752.232 124.289 760.421 116.532 768.522 108.682C770.206 107.061 772.303 107.747 774.199 107.747C809.266 107.789 844.33 107.722 879.389 107.547C879.813 107.547 880.183 107.402 880.499 107.111L893.126 95.1625L893.799 95.5242Z" fill="#FBFBFB"/>
<path d="M876.644 60.5022H865.727V59.9784C869.254 59.5128 872.789 59.5128 876.332 59.9784L876.644 60.5022Z" fill="#FBFBFB"/>
<path d="M865.727 59.9784V60.5022L864.23 61.2879C863.905 61.4542 863.61 61.6663 863.344 61.924L834.423 89.5749C834.023 89.9594 833.486 90.174 832.926 90.1736L736.595 90.1736C736.129 90.1736 735.725 90.3316 735.384 90.6476L721.061 104.005C720.72 104.321 720.554 104.712 720.562 105.178L720.575 109.456C720.575 109.905 720.433 110.308 720.151 110.665C712.64 120.244 703.37 104.205 714.661 102.633C715.027 102.583 715.384 102.617 715.734 102.733L718.853 103.743C719.252 103.876 719.606 103.797 719.913 103.506L735.359 89.2881C735.609 89.0553 735.908 88.9389 736.258 88.9389L832.639 88.889C833.089 88.889 833.525 88.72 833.862 88.415C837.78 84.7731 862.857 59.8287 865.727 59.9784Z" fill="#FBFBFB"/>
<path d="M667.349 438.099L667.3 437.525C669.371 436.768 672.011 436.382 675.222 436.365C736.099 436.174 796.977 436.265 857.854 436.639C859.701 436.648 861.464 436.103 863.144 435.006C863.543 434.74 863.61 434.806 863.344 435.205C862.412 436.577 861.335 437.263 860.112 437.263C796.482 437.088 732.851 437.276 669.221 437.824C668.614 437.833 667.99 437.924 667.349 438.099Z" fill="#FBFBFB"/>
<path d="M641.473 7.15852L693.438 7.61999C694.055 7.61969 694.653 7.86076 695.11 8.2935C701.082 14.0058 707.125 19.6682 713.239 25.2807C714.312 26.266 717.942 25.8419 718.94 25.8544C746.139 26.1038 773.334 26.1329 800.525 25.9417C803.12 25.9292 804.729 26.8646 807.175 24.7693C810.427 21.9921 813.604 19.1194 816.707 16.151C817.014 15.8516 817.143 15.49 817.094 15.0659C816.869 12.796 816.195 10.4263 817.58 8.49306C820.886 3.89081 826.676 6.80931 826.85 11.9229C826.867 12.3885 826.734 12.8043 826.451 13.1701C824.38 15.914 821.61 17.0365 818.142 16.5376C817.667 16.4711 817.252 16.6041 816.894 16.9367L806.226 26.9769C805.919 27.2679 805.549 27.4134 805.116 27.4134L714.486 27.4882C714.029 27.4882 713.638 27.3302 713.313 27.0143L694.062 8.70506C693.746 8.40573 693.368 8.25608 692.927 8.25608L641.611 8.14384C641.195 8.14384 640.825 8.27271 640.5 8.53047C622.871 22.9359 627.337 -9.61662 640.338 6.60974C640.629 6.96728 641.008 7.15021 641.473 7.15852Z" fill="#FBFBFB"/>
<path d="M773.712 159.133C772.664 160.238 771.508 161.19 770.244 161.989C769.354 162.546 769.254 162.429 769.944 161.639C770.968 160.459 772.12 159.415 773.4 158.509L773.712 159.133Z" fill="#FBFBFB"/>
<path d="M758.114 169.499C757.58 168.277 757.598 166.874 758.164 165.598C758.73 164.323 759.798 163.279 761.132 162.696C762.466 162.113 763.958 162.04 765.278 162.491C766.599 162.943 767.641 163.883 768.175 165.105C768.709 166.326 768.691 167.729 768.125 169.005C767.559 170.281 766.492 171.325 765.158 171.908C763.823 172.49 762.332 172.564 761.011 172.112C759.69 171.66 758.648 170.72 758.114 169.499ZM765.852 166.03C765.02 166.396 764.359 166.944 763.868 167.676C763.511 168.225 763.627 168.354 764.218 168.063C764.991 167.68 765.636 167.131 766.152 166.416C766.518 165.917 766.418 165.789 765.852 166.03Z" fill="#FBFBFB"/>
<path d="M766.85 302.875L766.9 303.449C763.057 304.214 759.194 304.334 755.309 303.81L761.236 303.498L766.85 302.875Z" fill="#FBFBFB"/>
<path d="M766.152 166.416C765.636 167.131 764.991 167.68 764.218 168.063C763.627 168.354 763.511 168.225 763.868 167.676C764.359 166.944 765.02 166.396 765.852 166.03C766.418 165.789 766.518 165.917 766.152 166.416Z" fill="#FBFBFB"/>
<path d="M761.236 303.499L755.309 303.81L662.01 303.723C661.602 303.723 661.249 303.864 660.949 304.147L635.272 328.58C634.973 328.871 634.615 329.017 634.199 329.017H517.232C516.487 329.017 515.772 328.731 515.235 328.218L497.993 311.942C497.685 311.651 497.319 311.506 496.895 311.506L475.198 311.693C474.741 311.701 474.4 311.905 474.175 312.304C471.318 317.405 465.679 320.423 461.574 314.686C456.808 308.026 465.778 300.617 471.892 306.23C472.778 307.053 473.427 308.388 474.213 309.572C474.42 309.888 474.716 310.046 475.098 310.046L496.87 309.997C497.319 309.997 497.698 310.155 498.005 310.471C501.1 313.576 515.36 328.468 518.829 328.431C556.3 327.99 593.771 327.982 631.243 328.406C632.066 328.418 633.962 327.957 634.586 327.345C642.812 319.288 651.197 311.398 659.739 303.673C660.047 303.39 660.413 303.249 660.837 303.249L761.236 303.499ZM467.226 316.694C468.754 316.694 470.221 316.087 471.302 315.006C472.383 313.926 472.99 312.46 472.99 310.932C472.99 309.404 472.383 307.938 471.302 306.858C470.221 305.777 468.754 305.17 467.226 305.17C465.697 305.17 464.231 305.777 463.15 306.858C462.069 307.938 461.461 309.404 461.461 310.932C461.461 312.46 462.069 313.926 463.15 315.006C464.231 316.087 465.697 316.694 467.226 316.694Z" fill="#FBFBFB"/>
<path d="M667.3 437.525L667.35 438.099C666.189 439.284 649.009 458.029 644.418 458.042C608.81 458.117 573.201 458.137 537.593 458.104C523.47 458.087 514.424 457.967 510.457 457.742V456.907C555.185 455.136 600.438 456.109 645.204 456.495C648.111 456.52 664.043 440.431 667.3 437.525Z" fill="#FBFBFB"/>
<path d="M579.627 147.932C570.619 138.861 562.621 131.058 555.635 124.522C553.913 122.913 553.414 121.342 553.451 118.847C553.651 105.751 553.813 92.7179 553.576 79.6096C553.493 75.1529 553.68 70.692 554.137 66.2269C554.187 65.7447 554.391 65.3414 554.749 65.0171L569.072 51.7841C569.371 51.5097 569.716 51.3517 570.107 51.3102C572.952 51.0274 575.763 50.9277 578.542 51.0108C597.614 51.6178 616.603 51.6053 635.51 50.9734C636.173 50.9489 636.822 51.186 637.319 51.6344L651.791 64.6554C651.969 64.8131 652.186 64.9187 652.419 64.9605C652.653 65.0023 652.893 64.9787 653.114 64.8924C665.216 60.2153 671.442 74.5459 659.614 79.3851C652.565 82.2662 648.984 72.2884 650.057 67.0501C650.14 66.626 650.032 66.256 649.733 65.9401C647.45 63.5579 637.868 52.8318 635.223 52.8068C613.863 52.6073 592.507 52.5948 571.155 52.7694C570.69 52.7694 570.27 52.9066 569.895 53.181C564.763 56.9559 560.097 61.2381 555.897 66.0274C555.556 66.4099 555.389 66.8589 555.397 67.3744L555.497 122.09C555.497 122.556 555.668 122.946 556.009 123.262L580.625 146.024C580.974 146.357 581.39 146.494 581.873 146.436C585.657 145.97 588.244 145.924 589.633 146.299C595.56 147.895 596.72 154.892 592.952 159.532C588.386 165.157 581.261 162.039 579.203 156.077C578.379 153.695 579.415 151.599 579.976 149.13C580.076 148.672 579.96 148.273 579.627 147.932ZM657.381 75.2443C658.423 75.2443 659.423 74.8304 660.16 74.0937C660.897 73.3569 661.311 72.3576 661.311 71.3156C661.311 70.2736 660.897 69.2743 660.16 68.5376C659.423 67.8008 658.423 67.3869 657.381 67.3869C656.339 67.3869 655.339 67.8008 654.602 68.5376C653.865 69.2743 653.451 70.2736 653.451 71.3156C653.451 72.3576 653.865 73.3569 654.602 74.0937C655.339 74.8304 656.339 75.2443 657.381 75.2443ZM586.714 157.499C587.68 157.499 588.607 157.115 589.29 156.432C589.973 155.749 590.357 154.823 590.357 153.857C590.357 152.891 589.973 151.965 589.29 151.282C588.607 150.599 587.68 150.215 586.714 150.215C585.747 150.215 584.821 150.599 584.138 151.282C583.454 151.965 583.071 152.891 583.071 153.857C583.071 154.823 583.454 155.749 584.138 156.432C584.821 157.115 585.747 157.499 586.714 157.499Z" fill="#FBFBFB"/>
<path d="M660.438 403.538C657.202 407.479 653.517 410.951 649.383 413.952C651.962 409.196 655.647 405.725 660.438 403.538Z" fill="#FBFBFB"/>
<path d="M599.153 76.9406C596.108 82.84 589.047 81.256 587.749 75.2818C587.658 74.8827 587.712 74.5002 587.911 74.1344C590.619 69.1704 596.932 67.1125 599.34 73.5232C599.489 73.9389 599.789 74.1552 600.238 74.1718C604.929 74.2965 627.574 73.6354 629.982 75.8929C637.252 82.7194 644.517 89.5542 651.779 96.3973C655.385 99.8022 651.529 130.933 653.575 138.055C653.692 138.462 653.925 138.79 654.274 139.04L659.14 142.445C659.572 142.752 659.747 143.164 659.664 143.679C659.132 146.881 657.36 149.18 654.349 150.577C653.983 150.743 653.605 150.772 653.214 150.664C649.862 149.716 647.886 147.488 647.287 143.979C647.212 143.521 647.333 143.127 647.649 142.794C649.857 140.474 651.367 139.177 651.454 135.697C651.77 123.258 651.737 110.836 651.355 98.4302C651.338 98.0145 651.188 97.657 650.905 97.3576C644.085 90.315 636.973 83.5633 629.57 77.1027C627.325 75.1446 604.355 76.1299 600.163 76.292C599.706 76.317 599.369 76.5332 599.153 76.9406Z" fill="#FBFBFB"/>
<path d="M652.44 427.697C651.5 428.429 650.352 429.119 648.996 429.767C644.655 431.838 632.677 430.69 627.512 430.69C626.073 430.69 622.758 430.956 617.568 431.488C612.469 431.996 607.425 431.576 602.434 430.229C619.161 430.162 635.829 429.318 652.44 427.697Z" fill="#FBFBFB"/>
<path d="M639.851 293.783L639.589 294.144L544.805 293.907C544.364 293.907 543.981 293.754 543.657 293.446L525.74 276.683L526.102 276.322L542.584 291.637C542.892 291.92 543.249 292.099 543.657 292.174C547.317 292.789 550.078 293.113 551.941 293.147C580.804 293.637 609.662 293.645 638.516 293.172C638.857 293.163 639.161 293.263 639.427 293.471L639.851 293.783Z" fill="#FBFBFB"/>
<path d="M608.161 100.351C601.486 98.1434 603.682 89.2756 609.109 89.4752C613.276 89.6248 616.021 92.9923 614.599 97.2578C614.449 97.7068 614.187 98.0852 613.813 98.3928L611.08 100.663C610.681 100.987 610.482 101.411 610.482 101.935L610.294 136.346C610.286 136.911 610.49 137.389 610.906 137.78L625.778 151.674C626.12 151.997 626.549 152.213 627.011 152.297C627.474 152.381 627.951 152.33 628.385 152.148C635.185 149.304 641.798 156.95 637.119 162.824C631.505 169.896 621.324 162.562 624.917 154.019C625.019 153.785 625.045 153.525 624.992 153.275C624.938 153.024 624.807 152.796 624.617 152.622C622.272 150.427 608.872 138.853 608.922 136.645C609.213 124.821 609.171 113.01 608.797 101.212C608.789 100.779 608.577 100.492 608.161 100.351Z" fill="#FBFBFB"/>
<path d="M629.608 258.811L628.984 258.91C626.065 256.566 622.758 252.1 618.529 253.572C618.129 253.714 617.722 253.734 617.306 253.635C613.064 252.674 608.735 252.599 605.478 256.029C602.076 259.596 598.383 262.81 594.399 265.67C594.041 265.928 593.642 266.057 593.201 266.057L530.606 266.207C530.207 266.207 529.858 266.069 529.558 265.795L516.508 253.335C516.134 252.978 515.689 252.799 515.173 252.799L503.407 252.874C502.908 252.874 502.58 253.115 502.422 253.597C500.975 258.162 496.757 261.068 492.615 257.276C486.676 251.839 495.784 243.557 501.499 251.128C501.756 251.469 502.097 251.643 502.522 251.651C506.689 251.726 515.248 250.566 518.317 253.46C522.318 257.21 526.331 260.952 530.357 264.685C530.673 264.976 531.043 265.121 531.467 265.121C551.28 265.072 571.047 265.067 590.768 265.109C595.996 265.121 600.488 259.983 603.694 256.104C604.676 254.923 604.422 254.15 602.933 253.784C601.245 253.368 599.115 253.19 596.545 253.248C584.726 253.547 572.91 253.655 561.099 253.572C557.681 253.547 553.201 255.792 549.858 252.288C547.961 250.292 533.451 235.799 532.291 235.799C513.983 235.774 495.676 235.774 477.369 235.799C476.936 235.799 476.645 235.999 476.496 236.398C472.041 248.371 458.38 233.829 469.534 230.461C472.728 229.501 475.285 231.646 476.758 234.278C476.999 234.702 477.361 234.914 477.843 234.914L532.278 234.689C532.694 234.689 533.056 234.831 533.364 235.113L550.956 251.976C551.38 252.376 551.942 252.599 552.528 252.599L621.473 252.462C621.856 252.462 622.197 252.587 622.496 252.836L629.608 258.811Z" fill="#FBFBFB"/>
<path d="M616.196 441.84L612.453 442.152C604.243 442.56 596.025 442.543 587.799 442.102C597.256 440.897 606.722 440.809 616.196 441.84Z" fill="#FBFBFB"/>
<path d="M615.26 443.823L486.04 443.774C485.632 443.774 485.266 443.902 484.942 444.16C476.807 450.583 469.596 458.391 461.96 465.425C461.636 465.716 461.253 465.866 460.812 465.874L311.468 466.249C311.077 466.249 310.719 466.357 310.395 466.573C308.116 468.136 306.003 469.915 304.057 471.911C292.445 483.826 280.497 495.4 268.212 506.634C267.921 506.9 267.575 507.033 267.176 507.033L168.649 507.058C168.274 507.058 167.929 507.166 167.613 507.382C167.272 507.615 166.898 507.789 166.49 507.906C166.133 508.014 165.817 508.201 165.542 508.467L144.045 529.832C143.762 530.106 143.708 530.422 143.883 530.78C145.812 534.63 145.434 537.615 142.747 539.735C135.736 545.285 125.343 535.619 131.693 529.757C134.164 527.47 137.095 526.918 140.489 528.098C140.888 528.231 141.242 528.161 141.55 527.886C148.736 521.401 156.409 514.965 163.059 507.993C165.205 505.731 168.012 504.596 171.481 504.588C203.188 504.522 234.895 504.592 266.602 504.8C267.018 504.8 267.376 504.655 267.675 504.364C281.391 491.476 295.065 478.538 308.698 465.55C310.719 463.617 312.054 464.64 314.263 464.64C362.713 464.656 411.185 464.66 459.677 464.652C460.102 464.652 460.512 464.491 460.825 464.203C468.327 457.219 475.818 450.188 483.295 443.112C485.217 441.304 488.136 442.19 490.095 442.19C522.675 442.248 555.243 442.219 587.799 442.102C596.025 442.543 604.243 442.56 612.453 442.152L614.536 442.202C614.927 442.219 615.139 442.418 615.172 442.801L615.26 443.823Z" fill="#FBFBFB"/>
<path d="M585.94 383.321L586.614 383.271C591.38 388.821 599.639 383.882 596.745 376.773C596.578 376.357 596.304 376.033 595.921 375.8C593.667 374.42 591.301 374.204 588.822 375.151C588.123 375.417 587.978 375.235 588.385 374.603C591.317 370.075 602.883 376.237 597.506 383.845C594.848 387.611 588.323 387.985 585.94 383.321Z" fill="#FBFBFB"/>
<path d="M586.614 383.271L585.94 383.321L584.169 380.963C583.919 380.631 583.582 380.465 583.158 380.465H482.36C482.01 380.465 481.707 380.585 481.449 380.826L450.782 409.699C450.309 410.148 449.684 410.398 449.035 410.398C419.923 410.406 390.803 410.402 361.674 410.385C358.73 410.385 353.481 410.651 345.929 411.184C345.504 411.217 345.209 411.429 345.043 411.82C340.277 423.319 324.232 409.163 336.396 403.887C340.763 401.992 342.984 404.997 345.704 407.641C345.995 407.924 346.344 408.066 346.752 408.066C355.124 408.078 364.057 408.776 371.768 408.801C397.411 408.86 423.055 408.864 448.698 408.814C452.004 408.814 477.145 383.246 481.175 379.305C481.441 379.047 481.757 378.918 482.123 378.918L583.383 378.906C583.749 378.906 584.031 378.752 584.231 378.444C584.963 377.338 585.82 376.378 586.801 375.563C587.874 374.665 588.024 374.798 587.25 375.962C585.67 378.307 585.458 380.743 586.614 383.271Z" fill="#FBFBFB"/>
<path d="M535.41 419.478C526.103 419.877 516.845 420.475 507.6 419.44C509.555 419.224 511.513 419.025 513.476 418.842C518.492 418.38 524.131 419.789 528.548 419.203C531.318 418.837 533.605 418.929 535.41 419.478Z" fill="#FBFBFB"/>
<path d="M516.308 118.623C518.829 117.999 521.307 117.982 523.744 118.573C524.776 119.604 525.936 120.573 527.225 121.479C543.62 132.953 523.882 153.62 509.571 141.696C502.547 135.847 502.859 126.63 510.357 121.279C512.091 120.045 514.287 119.483 516.308 118.623ZM513.191 133.478C513.456 134.156 513.859 134.772 514.378 135.29C514.898 135.809 515.523 136.221 516.218 136.502C516.913 136.782 517.665 136.927 518.43 136.928C519.196 136.928 519.96 136.784 520.679 136.504C521.398 136.224 522.058 135.813 522.621 135.294C523.184 134.776 523.639 134.161 523.961 133.484C524.282 132.807 524.464 132.081 524.495 131.347C524.526 130.614 524.406 129.888 524.142 129.211C523.877 128.533 523.474 127.917 522.955 127.399C522.436 126.88 521.81 126.468 521.115 126.187C520.42 125.906 519.668 125.762 518.903 125.761C518.137 125.761 517.373 125.905 516.654 126.185C515.935 126.465 515.275 126.876 514.712 127.394C514.149 127.912 513.694 128.528 513.372 129.205C513.051 129.882 512.869 130.608 512.838 131.341C512.807 132.075 512.927 132.801 513.191 133.478Z" fill="#FBFBFB"/>
<path d="M526.103 276.322L525.741 276.683C523.054 275.428 520.663 274.792 518.567 274.775C498.018 274.588 463.558 274.999 433.651 274.787C416.533 274.663 404.177 274.866 396.583 275.399C393.14 275.636 391.493 280.288 388.823 281.759C382.635 285.152 375.66 274.326 381.412 269.262C386.215 265.022 390.545 269.399 393.439 273.004C393.697 273.337 394.038 273.486 394.462 273.453C405.317 272.58 419.253 273.465 426.714 273.49C449.496 273.565 465.516 274.089 482.347 272.854C482.763 272.821 482.85 272.638 482.609 272.306C478.579 266.681 474.262 264.872 467.014 264.797C445.363 264.589 423.72 264.806 402.086 265.446C401.661 265.454 401.291 265.317 400.975 265.034C397.319 261.791 390.258 251.938 384.756 252.412C377.295 253.061 369.829 253.348 362.36 253.273C361.944 253.273 361.595 253.427 361.312 253.734C359.832 255.323 358.567 256.478 357.519 257.202C348.661 263.276 338.979 250.803 348.025 244.231C350.47 242.451 353.398 242.223 356.808 243.545C357.199 243.703 357.511 243.96 357.744 244.318C359.757 247.378 362.518 248.833 366.028 248.683C372.815 248.384 386.228 247.623 391.119 251.701C395.186 255.094 399.174 258.524 403.084 261.991C403.408 262.274 403.786 262.415 404.219 262.415L471.405 262.689C471.846 262.689 472.245 262.565 472.603 262.315C474.1 261.28 474.899 261.392 476.146 262.739C479.64 266.523 483.266 270.177 487.026 273.702C487.367 274.018 487.766 274.176 488.224 274.176L523.52 274.052C523.969 274.052 524.364 274.197 524.705 274.488C525.279 274.979 525.745 275.59 526.103 276.322ZM353.215 255.194C354.393 255.194 355.523 254.726 356.356 253.893C357.188 253.06 357.656 251.931 357.656 250.754C357.656 249.576 357.188 248.447 356.356 247.614C355.523 246.781 354.393 246.313 353.215 246.313C352.037 246.313 350.907 246.781 350.074 247.614C349.241 248.447 348.773 249.576 348.773 250.754C348.773 251.931 349.241 253.06 350.074 253.893C350.907 254.726 352.037 255.194 353.215 255.194Z" fill="#FBFBFB"/>
<path d="M510.457 456.907V457.742C505.841 457.792 491.53 456.558 488.436 459.489C484.082 463.629 465.516 483.41 460.813 482.986C450.832 482.101 440.164 482.737 430.12 482.724C429.688 482.724 429.314 482.874 428.998 483.173L411.755 499.462C411.414 499.778 411.011 499.94 410.545 499.948L368.836 500.472C368.42 500.481 368.141 500.676 368 501.058C361.724 517.534 340.426 497.791 359.89 490.569C360.289 490.42 360.688 490.424 361.088 490.582C364.365 491.92 366.898 494.132 368.686 497.217C368.935 497.649 369.31 497.87 369.809 497.878L410.283 498.601C410.535 498.609 410.787 498.566 411.023 498.474C411.259 498.382 411.474 498.243 411.655 498.065L427.95 482.6C428.456 482.126 429.123 481.859 429.821 481.851C440.601 481.71 451.339 481.772 462.035 482.038C465.442 482.113 485.654 461.085 489.247 457.468C489.546 457.169 489.908 457.015 490.332 457.007L510.457 456.907ZM356.308 500.429C356.596 501.547 357.355 502.495 358.419 503.065C359.483 503.634 360.765 503.779 361.983 503.466C362.586 503.311 363.156 503.049 363.658 502.694C364.161 502.339 364.587 501.899 364.913 501.398C365.239 500.897 365.458 500.345 365.557 499.775C365.657 499.204 365.635 498.625 365.493 498.071C365.205 496.953 364.446 496.005 363.382 495.435C362.318 494.866 361.036 494.721 359.818 495.034C359.215 495.189 358.645 495.451 358.143 495.806C357.64 496.161 357.214 496.601 356.888 497.102C356.562 497.603 356.343 498.155 356.244 498.726C356.144 499.296 356.166 499.875 356.308 500.429Z" fill="#FBFBFB"/>
<path d="M426.127 222.717C422.879 223.173 420.57 225.849 420.97 228.693C421.37 231.538 424.327 233.474 427.575 233.017C430.824 232.561 433.132 229.885 432.732 227.041C432.333 224.196 429.375 222.26 426.127 222.717Z" fill="#FBFBFB"/>
<path d="M367.151 212.564L382.41 227.106C382.759 227.43 383.167 227.593 383.633 227.593L419.203 227.505C419.336 227.505 419.399 227.572 419.39 227.705C419.382 227.813 419.378 227.917 419.378 228.017C419.386 228.316 419.245 228.47 418.954 228.478C407.242 228.786 395.543 228.723 383.857 228.291C381.324 228.191 369.285 215.732 366.565 213.299C366.24 213.008 365.862 212.909 365.429 213C363.608 213.387 361.961 214.322 360.189 214.285C353.202 214.16 349.372 207.188 354.076 201.688C360.925 193.693 370.931 202.511 366.939 211.454C366.748 211.878 366.818 212.248 367.151 212.564ZM361.137 211.94C362.428 211.94 363.665 211.427 364.578 210.515C365.491 209.603 366.003 208.366 366.003 207.076C366.003 205.786 365.491 204.549 364.578 203.636C363.665 202.724 362.428 202.212 361.137 202.212C359.847 202.212 358.609 202.724 357.697 203.636C356.784 204.549 356.271 205.786 356.271 207.076C356.271 208.366 356.784 209.603 357.697 210.515C358.609 211.427 359.847 211.94 361.137 211.94Z" fill="#FBFBFB"/>
<path d="M140.889 165.319L127.027 178.889C126.711 179.196 126.624 179.558 126.765 179.974C129.647 188.53 130.446 195.327 122.835 201.239C105.518 214.721 83.5464 192.196 100.564 177.13C106.378 171.983 112.658 171.127 119.404 174.561C119.795 174.76 120.153 174.714 120.477 174.423L135.798 160.642C137.861 161.764 139.558 163.323 140.889 165.319ZM103.197 188.333C103.117 189.374 103.254 190.423 103.602 191.418C103.95 192.413 104.501 193.335 105.224 194.132C105.947 194.929 106.828 195.584 107.816 196.061C108.804 196.538 109.88 196.828 110.983 196.912C113.21 197.084 115.41 196.412 117.099 195.045C118.789 193.679 119.829 191.729 119.991 189.625C120.071 188.583 119.933 187.534 119.585 186.539C119.237 185.544 118.686 184.622 117.963 183.825C117.24 183.029 116.359 182.373 115.371 181.896C114.383 181.419 113.307 181.13 112.204 181.045C109.977 180.873 107.777 181.545 106.088 182.912C104.399 184.278 103.359 186.228 103.197 188.333Z" fill="#FBFBFB"/>
<path d="M84.3072 471.948C85.6547 469.691 99.5786 457.131 101.7 457.156C109.917 457.248 118.127 457.177 126.328 456.944C126.753 456.936 127.064 456.749 127.264 456.383C133.714 444.759 149.772 461.384 134.95 465.987C131.094 467.172 129.148 463.617 126.977 461.235C126.653 460.877 126.249 460.698 125.767 460.698L102.274 460.362C101.783 460.353 101.384 460.536 101.076 460.91C96.9003 465.849 92.2798 470.348 87.2143 474.405C86.865 474.688 86.7776 475.041 86.9523 475.466C89.8593 482.151 86.9897 488.861 79.4289 488.96C63.2094 489.16 68.0004 465.6 83.2717 472.273C83.7125 472.472 84.0577 472.364 84.3072 471.948ZM74.3457 477.128C74.0905 477.677 73.9592 478.278 73.9594 478.895C73.9596 479.513 74.0912 480.135 74.3469 480.726C74.6025 481.317 74.9771 481.865 75.4492 482.34C75.9214 482.815 76.4817 483.207 77.0985 483.493C78.3441 484.071 79.7434 484.184 80.9887 483.808C82.2339 483.431 83.2231 482.596 83.7386 481.486C83.9938 480.937 84.1251 480.336 84.1249 479.718C84.1247 479.101 83.993 478.479 83.7374 477.888C83.4818 477.297 83.1072 476.749 82.6351 476.274C82.1629 475.799 81.6025 475.407 80.9857 475.121C79.7401 474.543 78.3409 474.43 77.0956 474.806C75.8504 475.182 74.8612 476.018 74.3457 477.128Z" fill="#FBFBFB"/>
<path d="M54.1765 485.855C52.1803 488.524 48.5745 487.065 47.7137 491.106C47.6305 491.505 47.4392 491.837 47.1398 492.103L45.705 493.388C41.3797 489.488 37.0296 485.605 32.6544 481.739C29.9262 479.336 27.1731 478.924 24.395 480.504C24.029 480.712 23.638 480.799 23.2222 480.766C8.99888 479.481 -3.82704 467.408 3.79614 452.317C9.43555 441.179 22.5609 437.251 33.2159 444.085C45.0437 451.668 46.1042 459.314 41.0013 471.711C40.8266 472.135 40.9014 472.51 41.2258 472.834L54.1765 485.855ZM22.3489 468.531C24.4633 468.531 26.4911 467.691 27.9862 466.197C29.4814 464.702 30.3213 462.675 30.3213 460.561C30.3213 458.447 29.4814 456.42 27.9862 454.926C26.4911 453.431 24.4633 452.591 22.3489 452.591C20.2344 452.591 18.2066 453.431 16.7114 454.926C15.2163 456.42 14.3763 458.447 14.3763 460.561C14.3763 462.675 15.2163 464.702 16.7114 466.197C18.2066 467.691 20.2344 468.531 22.3489 468.531Z" fill="#FBFBFB"/>
</svg>
