<svg width="152" height="87" viewBox="0 0 152 87" fill="none" xmlns="http://www.w3.org/2000/svg">
<path d="M143.491 4.88955L143.491 4.88938C142.391 5.4915 141.282 6.05272 140.226 6.54107C139.17 7.02916 138.185 7.43663 137.326 7.73895C136.473 8.03929 135.74 8.23763 135.18 8.30748C134.902 8.34211 134.639 8.34907 134.412 8.30585C134.192 8.26398 133.914 8.15508 133.762 7.87656L133.761 7.87549L133.413 7.23511C133.257 6.96018 133.31 6.66802 133.391 6.4598C133.474 6.24415 133.621 6.02509 133.799 5.8099C134.157 5.37558 134.718 4.86431 135.431 4.30643C136.149 3.7448 137.024 3.13272 138.006 2.50479C138.989 1.8765 140.062 1.24249 141.165 0.638728L141.173 0.634258L141.181 0.630095L141.273 0.584219C141.44 0.49623 141.634 0.476225 141.816 0.528738C142.001 0.582408 142.158 0.707448 142.251 0.876425L142.252 0.877787L143.877 3.84236C143.877 3.84237 143.877 3.84239 143.877 3.84241L143.877 3.84288L143.439 4.08324C143.468 4.13633 143.475 4.19883 143.458 4.25702C143.441 4.31522 143.402 4.36435 143.349 4.39364L143.491 4.88955ZM143.491 4.88955L143.503 4.8827L143.597 4.82766L143.491 4.88955Z" fill="#0A174C" stroke="white"/>
<path d="M64.1737 40.0801C67.6789 36.5749 69.6481 31.8208 69.6481 26.8637C69.6481 21.9066 67.6789 17.1525 64.1737 13.6473C60.6685 10.1421 55.9144 8.17285 50.9573 8.17285C46.0002 8.17285 41.2461 10.1421 37.7409 13.6473C34.2357 17.1525 32.2665 21.9066 32.2665 26.8637C32.2665 31.8208 34.2357 36.5749 37.7409 40.0801C41.2461 43.5853 46.0002 45.5545 50.9573 45.5545C55.9144 45.5545 60.6685 43.5853 64.1737 40.0801ZM59.7514 36.3307C57.4023 38.8292 54.2269 40.2229 50.9258 40.2171C49.2906 40.2143 47.6712 39.8678 46.1596 39.1964C44.648 38.5249 43.2729 37.5413 42.1139 36.2999C40.9547 35.0585 40.0346 33.5837 39.4073 31.9591C38.7801 30.3344 38.4584 28.5927 38.4615 26.8337C38.4677 23.2798 39.7967 19.8799 42.1469 17.3803C44.496 14.8819 47.6714 13.4881 50.9725 13.4939C52.6077 13.4967 54.2271 13.8433 55.7387 14.5147C57.2503 15.1861 58.6254 16.1697 59.7844 17.4111C60.9435 18.6526 61.8637 20.1273 62.491 21.752C63.1182 23.3766 63.4398 25.1183 63.4368 26.8773C63.4306 30.4312 62.1016 33.8311 59.7514 36.3307Z" fill="#0A174C" stroke="white"/>
<path d="M1.26222 8.26367V8.26367L11.1214 8.28001L11.1215 8.28001C15.8332 8.28921 20.3526 10.089 23.6845 13.29C27.0171 16.4918 28.8888 20.8339 28.8802 25.3626V27.2077V27.2087C28.8759 29.4508 28.4102 31.6695 27.5102 33.738C26.6103 35.8064 25.294 37.6834 23.6377 39.2624C21.9815 40.8413 20.0176 42.0914 17.8588 42.9423C15.7 43.7933 13.3879 44.2286 11.0542 44.224M1.26222 8.26367L1.19521 44.2077L1.19604 43.7077V44.2077L11.0542 44.224M1.26222 8.26367H1.26139C1.07677 8.26367 0.899735 8.33702 0.769212 8.46754C0.63883 8.59792 0.565512 8.77471 0.565348 8.95909L0.565349 8.95876L1.06535 8.95971H0.565348L1.26222 8.26367ZM11.0542 44.224L11.0552 43.724L11.0544 44.224H11.0542ZM6.4255 39.2642L6.42549 39.2632L6.37648 13.4359C6.37648 13.4359 6.37648 13.4358 6.37648 13.4357C6.37652 13.4199 6.37964 13.4043 6.38568 13.3897C6.39175 13.3751 6.40065 13.3617 6.41186 13.3505C6.42307 13.3393 6.43638 13.3304 6.45105 13.3244L6.45105 13.3244C6.46572 13.3183 6.48142 13.3152 6.49727 13.3152L6.49838 13.3152L10.2066 13.307C11.8842 13.3038 13.5458 13.6255 15.0964 14.2533C16.647 14.8811 18.056 15.8028 19.2432 16.9651C20.4304 18.1275 21.3725 19.5078 22.0161 21.027C22.6598 22.5462 22.9925 24.1749 22.9955 25.82V26.8156V26.8166C23.0017 30.1386 21.6649 33.3288 19.2763 35.685C16.8874 38.0415 13.6421 39.3704 10.2538 39.3768L10.2536 39.3768L6.54628 39.3849C6.54623 39.3849 6.54617 39.3849 6.54611 39.3849C6.51413 39.3849 6.48348 39.3722 6.46088 39.3496C6.43822 39.3269 6.42549 39.2962 6.4255 39.2642Z" fill="#0A174C" stroke="white"/>
<path d="M87.4593 25.9627C88.998 25.3374 90.279 24.4078 91.1974 23.1915C92.2539 21.7924 92.8083 20.0429 92.748 18.0112L92.748 18.0111C92.6798 15.7265 92.0062 13.9447 90.8853 12.5842C89.7689 11.2291 88.2392 10.3286 86.5167 9.74742C83.0882 8.59054 78.7918 8.66451 75.1114 9.02518L75.1114 9.02517L75.1104 9.02527C74.8951 9.0468 74.6606 9.12479 74.4838 9.31919C74.3068 9.51395 74.2517 9.75513 74.2517 9.97205V43.8215C74.2517 44.0122 74.3 44.2398 74.4736 44.4218C74.6459 44.6026 74.869 44.6621 75.0584 44.672C78.8457 44.9079 83.4146 45.1433 87.1538 44.1938C89.0319 43.717 90.7378 42.9329 92.036 41.6685C93.3427 40.3959 94.2031 38.6686 94.4365 36.3737C94.7301 33.4936 94.0427 31.2568 92.6319 29.5127C91.3702 27.953 89.5602 26.8246 87.4593 25.9627ZM81.31 23.4399L81.309 23.4399L79.3029 23.4474L79.2871 13.2894L81.2954 13.2819C81.2955 13.2819 81.2957 13.2819 81.2958 13.2819C82.133 13.2806 82.9601 13.4015 83.7291 13.636C84.4984 13.8707 85.1899 14.2132 85.7665 14.639C86.3431 15.0648 86.7899 15.5628 87.0906 16.0991C87.3907 16.6344 87.5411 17.1999 87.5416 17.765V18.9409V18.9412C87.5424 20.0751 86.936 21.2067 85.7739 22.0698C84.6093 22.9348 83.0047 23.437 81.31 23.4399ZM82.6178 40.2094H79.3114V28.6302H82.6178C84.2597 28.6302 85.8254 29.2202 86.9725 30.2572C88.118 31.2926 88.7505 32.6855 88.7505 34.1257V34.7139C88.7505 36.1541 88.118 37.547 86.9725 38.5824C85.8254 39.6194 84.2597 40.2094 82.6178 40.2094Z" fill="#0A174C" stroke="white"/>
<path d="M106.951 13.3708C107.897 13.3654 108.834 13.5037 109.71 13.7776C110.585 14.0514 111.381 14.4556 112.053 14.9669C112.724 15.4783 113.258 16.0867 113.623 16.7575C113.988 17.4283 114.177 18.1483 114.18 18.8762L106.951 13.3708ZM106.951 13.3708L104.672 13.3871L106.951 13.3708ZM121.929 43.2204L112.358 29.3631C114.643 28.4942 116.397 27.2624 117.581 25.6473C118.819 23.9578 119.403 21.8914 119.36 19.4801V19.48C119.312 16.7478 118.568 14.6498 117.316 13.0701C116.067 11.4943 114.345 10.4759 112.409 9.84075C108.559 8.57721 103.758 8.79716 99.7898 9.24706C99.5832 9.26937 99.3568 9.34617 99.1857 9.53539C99.0138 9.7256 98.9607 9.95986 98.9607 10.1688V44.2633C98.9607 44.4765 99.0143 44.7283 99.2092 44.9232C99.4042 45.1181 99.6559 45.1717 99.8691 45.1717H103.749C103.99 45.1717 104.221 45.076 104.391 44.9057C104.562 44.7353 104.657 44.5043 104.657 44.2633V30.2302C104.657 30.2274 104.658 30.2249 104.658 30.2226C104.66 30.2216 104.662 30.2207 104.664 30.2197C105.293 29.9692 105.77 29.9064 106.123 29.9656C106.454 30.0213 106.715 30.1904 106.924 30.5114L106.924 30.5114C110.089 35.3645 113.291 40.2175 116.532 45.0705C116.75 45.4012 117.084 45.5802 117.48 45.5802H126.22C126.448 45.5802 126.675 45.5253 126.875 45.3895C127.074 45.2541 127.209 45.0636 127.295 44.854L127.295 44.854L127.297 44.8486L129.78 38.6162L129.781 38.6142C129.817 38.5223 129.855 38.4871 129.878 38.4713C129.902 38.4555 129.95 38.4329 130.051 38.4329H143.398C143.47 38.4329 143.491 38.449 143.491 38.4495C143.492 38.4501 143.514 38.4644 143.539 38.5321C143.539 38.5329 143.54 38.5337 143.54 38.5345L145.685 44.7588C145.685 44.759 145.686 44.7593 145.686 44.7596C145.766 44.9969 145.904 45.2136 146.12 45.3672C146.336 45.5207 146.586 45.5802 146.837 45.5802H150.586C150.814 45.5802 151.163 45.5333 151.37 45.2327C151.577 44.931 151.494 44.5876 151.411 44.3755L151.411 44.3742L138.162 10.7381C138.162 10.7379 138.162 10.7377 138.162 10.7376C138.093 10.5609 138.009 10.39 137.9 10.2542C137.795 10.1234 137.606 9.95244 137.327 9.94663C137.049 9.94084 136.854 10.1026 136.743 10.2277C136.628 10.358 136.535 10.5246 136.457 10.6983L136.456 10.7L121.929 43.2204ZM112.172 29.0927C112.172 29.0927 112.173 29.0943 112.174 29.0973C112.172 29.0941 112.172 29.0926 112.172 29.0927ZM112.045 29.4788C112.042 29.48 112.041 29.4806 112.041 29.4806C112.041 29.4805 112.042 29.4799 112.045 29.4788ZM104.698 25.0649L104.633 13.9262C104.633 13.926 104.633 13.9258 104.633 13.9256C104.633 13.9155 104.637 13.9058 104.644 13.8986L104.291 13.545L104.644 13.8986C104.652 13.8912 104.662 13.8871 104.672 13.8871L104.676 13.8871L106.954 13.8708C106.954 13.8708 106.954 13.8708 106.954 13.8708C107.85 13.8658 108.736 13.9968 109.56 14.2548C110.385 14.5128 111.128 14.8915 111.75 15.3647C112.371 15.8379 112.856 16.3939 113.183 16.9965C113.511 17.598 113.677 18.2366 113.68 18.8773L113.68 20.0198L113.68 20.0218C113.685 21.3083 113.028 22.5815 111.785 23.548C110.539 24.5167 108.824 25.0804 107.014 25.0906L107.013 25.0906L104.737 25.1069C104.737 25.1069 104.737 25.1069 104.737 25.1069C104.727 25.1067 104.717 25.1026 104.71 25.0955C104.702 25.0881 104.698 25.0782 104.698 25.0678L104.698 25.0649ZM137.084 20.4249L141.83 33.8646L131.78 33.6498L137.084 20.4249Z" fill="#0A174C" stroke="white"/>
<path d="M71.977 61.2781L71.9803 61.3027L71.986 61.3269C73.4199 67.4267 72.9311 71.9671 70.6834 75.0664C68.4513 78.1442 64.3845 79.9381 58.3214 80.3269L56.3554 79.5683C50.6369 77.1709 47.6948 72.1414 48.0666 65.9309L48.0666 65.9303C48.7051 55.0296 60.6823 49.616 69.1438 57.0945L69.5332 57.4387L69.8621 57.0362L71.1988 55.4002L71.977 61.2781ZM77.734 74.1125C78.6729 71.8458 79.1561 69.4164 79.1561 66.9629C79.1561 62.008 77.1878 57.256 73.6841 53.7523C70.1804 50.2486 65.4284 48.2803 60.4734 48.2803C55.5185 48.2803 50.7665 50.2486 47.2628 53.7523C43.7591 57.256 41.7908 62.008 41.7908 66.9629C41.7908 69.4164 42.274 71.8458 43.2129 74.1125C44.1518 76.3792 45.5279 78.4387 47.2628 80.1736C48.9976 81.9084 51.0572 83.2846 53.3239 84.2235C55.5906 85.1624 58.02 85.6456 60.4734 85.6456C62.9269 85.6456 65.3563 85.1624 67.623 84.2235C69.8897 83.2846 71.9492 81.9084 73.6841 80.1736C75.4189 78.4387 76.7951 76.3792 77.734 74.1125Z" fill="#0A174C" stroke="white"/>
<path d="M38.0332 48.9181L38.0408 48.9185L42.6641 49.1227L42.6761 49.1232L42.6761 49.1234C42.7981 49.1317 42.9162 49.1696 43.0202 49.2337L42.7577 49.6593L43.0202 49.2337C43.1242 49.2979 43.2111 49.3864 43.2733 49.4917C43.3355 49.5969 43.3711 49.7157 43.3771 49.8378C43.3831 49.9599 43.3593 50.0816 43.3078 50.1925L27.2432 84.7881C27.1848 84.9198 27.0898 85.0322 26.9693 85.1117C26.8462 85.1929 26.702 85.2362 26.5545 85.2362C26.4071 85.2362 26.2629 85.1929 26.1397 85.1117C26.0179 85.0313 25.9221 84.9172 25.8638 84.7834C25.8632 84.782 25.8627 84.7807 25.8621 84.7793L10.4462 50.1425C10.4455 50.1411 10.4449 50.1397 10.4443 50.1383C10.3918 50.0231 10.3692 49.8964 10.3787 49.77C10.3883 49.6422 10.4303 49.5189 10.5009 49.4118L10.9184 49.687L10.5009 49.4118C10.5715 49.3047 10.6682 49.2175 10.7819 49.1582L11.0129 49.6017L10.7819 49.1582C10.893 49.1004 11.0168 49.0712 11.142 49.0732L16.3643 49.0732C16.3644 49.0732 16.3645 49.0732 16.3646 49.0732C16.5174 49.0732 16.6665 49.1196 16.7923 49.2063L38.0332 48.9181ZM38.0332 48.9181L38.0255 48.918C37.8754 48.916 37.7281 48.9589 37.6026 49.0411C37.4781 49.1227 37.3806 49.2393 37.3223 49.3762L38.0332 48.9181Z" fill="#0A174C" stroke="white"/>
<mask id="path-8-outside-1_502_1919" maskUnits="userSpaceOnUse" x="82.8838" y="48.7275" width="30" height="38" fill="black">
<rect fill="white" x="82.8838" y="48.7275" width="30" height="38"/>
<path d="M83.9982 49.9646C83.9981 49.9328 84.0045 49.9013 84.0169 49.872C84.0293 49.8427 84.0475 49.8162 84.0704 49.7941C84.0933 49.772 84.1204 49.7547 84.15 49.7433C84.1797 49.7319 84.2114 49.7266 84.2432 49.7277L93.7348 49.7604C98.4028 49.7785 102.873 51.5467 106.162 54.6762C109.45 57.8057 111.289 62.0402 111.272 66.4482V68.4249C111.264 70.6081 110.801 72.7682 109.908 74.7818C109.016 76.7955 107.712 78.6233 106.071 80.1608C104.431 81.6983 102.485 82.9155 100.346 83.7427C98.2069 84.5699 95.916 84.9911 93.6041 84.9821L84.1125 84.9494C84.0511 84.9473 83.9929 84.9214 83.9503 84.8772C83.9076 84.833 83.8838 84.774 83.8838 84.7126L83.9982 49.9646ZM88.7521 54.1876L88.5234 80.6039C88.5234 80.7173 88.5679 80.8262 88.6473 80.9072C88.7267 80.9881 88.8348 81.0347 88.9482 81.0368L92.6239 81.0695C94.3391 81.0845 96.0404 80.7596 97.6308 80.1134C99.2212 79.4672 100.669 78.5123 101.893 77.3032C103.116 76.0942 104.091 74.6546 104.761 73.0668C105.432 71.479 105.784 69.774 105.799 68.0492L105.816 67.0363C105.831 65.3114 105.508 63.6004 104.866 62.001C104.223 60.4016 103.274 58.9452 102.071 57.7149C100.869 56.4846 99.4377 55.5045 97.8587 54.8306C96.2798 54.1567 94.5842 53.8022 92.8689 53.7873L89.1932 53.7547C89.1357 53.7536 89.0785 53.764 89.025 53.7852C88.9715 53.8065 88.9229 53.8382 88.8818 53.8785C88.8407 53.9188 88.8081 53.9669 88.7858 54.02C88.7636 54.0731 88.7521 54.13 88.7521 54.1876Z"/>
</mask>
<path d="M83.9982 49.9646C83.9981 49.9328 84.0045 49.9013 84.0169 49.872C84.0293 49.8427 84.0475 49.8162 84.0704 49.7941C84.0933 49.772 84.1204 49.7547 84.15 49.7433C84.1797 49.7319 84.2114 49.7266 84.2432 49.7277L93.7348 49.7604C98.4028 49.7785 102.873 51.5467 106.162 54.6762C109.45 57.8057 111.289 62.0402 111.272 66.4482V68.4249C111.264 70.6081 110.801 72.7682 109.908 74.7818C109.016 76.7955 107.712 78.6233 106.071 80.1608C104.431 81.6983 102.485 82.9155 100.346 83.7427C98.2069 84.5699 95.916 84.9911 93.6041 84.9821L84.1125 84.9494C84.0511 84.9473 83.9929 84.9214 83.9503 84.8772C83.9076 84.833 83.8838 84.774 83.8838 84.7126L83.9982 49.9646ZM88.7521 54.1876L88.5234 80.6039C88.5234 80.7173 88.5679 80.8262 88.6473 80.9072C88.7267 80.9881 88.8348 81.0347 88.9482 81.0368L92.6239 81.0695C94.3391 81.0845 96.0404 80.7596 97.6308 80.1134C99.2212 79.4672 100.669 78.5123 101.893 77.3032C103.116 76.0942 104.091 74.6546 104.761 73.0668C105.432 71.479 105.784 69.774 105.799 68.0492L105.816 67.0363C105.831 65.3114 105.508 63.6004 104.866 62.001C104.223 60.4016 103.274 58.9452 102.071 57.7149C100.869 56.4846 99.4377 55.5045 97.8587 54.8306C96.2798 54.1567 94.5842 53.8022 92.8689 53.7873L89.1932 53.7547C89.1357 53.7536 89.0785 53.764 89.025 53.7852C88.9715 53.8065 88.9229 53.8382 88.8818 53.8785C88.8407 53.9188 88.8081 53.9669 88.7858 54.02C88.7636 54.0731 88.7521 54.13 88.7521 54.1876Z" fill="#0A174C"/>
<path d="M83.9982 49.9646L84.9982 49.9679L84.9982 49.964L83.9982 49.9646ZM84.2432 49.7277L84.2087 50.7271L84.2242 50.7276L84.2398 50.7277L84.2432 49.7277ZM93.7348 49.7604L93.7387 48.7604L93.7382 48.7604L93.7348 49.7604ZM111.272 66.4482L110.272 66.4445V66.4482H111.272ZM111.272 68.4249L112.272 68.4287V68.4249H111.272ZM93.6041 84.9821L93.608 83.9821H93.6075L93.6041 84.9821ZM84.1125 84.9494L84.078 85.9488L84.0935 85.9494L84.1091 85.9494L84.1125 84.9494ZM83.8838 84.7126L82.8838 84.7093L82.8838 84.712L83.8838 84.7126ZM88.7521 54.1876L89.7521 54.1962L89.7521 54.1874L88.7521 54.1876ZM88.5234 80.6039L87.5234 80.5952L87.5234 80.6037L88.5234 80.6039ZM88.9482 81.0368L88.9293 82.0367L88.9393 82.0368L88.9482 81.0368ZM92.6239 81.0695L92.615 82.0695H92.6151L92.6239 81.0695ZM105.799 68.0492L104.799 68.0331L104.799 68.0405L105.799 68.0492ZM105.816 67.0363L106.816 67.0525L106.816 67.0451L105.816 67.0363ZM92.8689 53.7873L92.86 54.7873L92.8603 54.7873L92.8689 53.7873ZM89.1932 53.7547L89.1743 54.7545L89.1843 54.7546L89.1932 53.7547ZM84.9982 49.964C84.9982 50.0662 84.9777 50.1677 84.9376 50.2622L83.0962 49.4818C83.0313 49.6349 82.9981 49.7993 82.9982 49.9652L84.9982 49.964ZM84.9376 50.2622C84.8976 50.3567 84.839 50.442 84.7654 50.5131L83.3754 49.0751C83.2561 49.1904 83.1611 49.3287 83.0962 49.4818L84.9376 50.2622ZM84.7654 50.5131C84.6918 50.5843 84.6045 50.6399 84.5088 50.6767L83.7912 48.8099C83.6362 48.8695 83.4947 48.9597 83.3754 49.0751L84.7654 50.5131ZM84.5088 50.6767C84.4132 50.7135 84.3111 50.7306 84.2087 50.7271L84.2777 48.7283C84.1117 48.7225 83.9463 48.7503 83.7912 48.8099L84.5088 50.6767ZM84.2398 50.7277L93.7313 50.7603L93.7382 48.7604L84.2466 48.7277L84.2398 50.7277ZM93.7309 50.7603C98.1516 50.7775 102.374 52.4526 105.472 55.4006L106.851 53.9518C103.371 50.6409 98.6539 48.7794 93.7387 48.7604L93.7309 50.7603ZM105.472 55.4006C108.568 58.3469 110.288 62.3207 110.272 66.4445L112.272 66.452C112.29 61.7596 110.332 57.2645 106.851 53.9518L105.472 55.4006ZM110.272 66.4482V68.4249H112.272V66.4482H110.272ZM110.272 68.4212C110.265 70.4648 109.831 72.4883 108.994 74.3767L110.822 75.187C111.77 73.0481 112.263 70.7514 112.272 68.4287L110.272 68.4212ZM108.994 74.3767C108.157 76.2652 106.933 77.9833 105.388 79.4311L106.755 80.8905C108.492 79.2633 109.875 77.3258 110.822 75.187L108.994 74.3767ZM105.388 79.4311C103.842 80.8791 102.007 82.0281 99.9854 82.81L100.707 84.6754C102.963 83.8028 105.019 82.5176 106.755 80.8905L105.388 79.4311ZM99.9854 82.81C97.9635 83.5919 95.7962 83.9906 93.608 83.9821L93.6002 85.9821C96.0357 85.9916 98.4504 85.548 100.707 84.6754L99.9854 82.81ZM93.6075 83.9821L84.116 83.9494L84.1091 85.9494L93.6006 85.9821L93.6075 83.9821ZM84.147 83.95C84.3447 83.9569 84.5322 84.0402 84.6697 84.1826L83.2309 85.5718C83.4537 85.8026 83.7575 85.9378 84.078 85.9488L84.147 83.95ZM84.6697 84.1826C84.8071 84.325 84.8839 84.5152 84.8838 84.7132L82.8838 84.712C82.8836 85.0328 83.0081 85.3411 83.2309 85.5718L84.6697 84.1826ZM84.8838 84.7159L84.9982 49.9679L82.9982 49.9613L82.8838 84.7093L84.8838 84.7159ZM87.7521 54.1789L87.5234 80.5952L89.5234 80.6126L89.7521 54.1962L87.7521 54.1789ZM87.5234 80.6037C87.5233 80.9791 87.6706 81.3396 87.9335 81.6075L89.3611 80.2068C89.4651 80.3129 89.5234 80.4555 89.5234 80.6041L87.5234 80.6037ZM87.9335 81.6075C88.1964 81.8755 88.554 82.0296 88.9293 82.0366L88.967 80.037C89.1155 80.0398 89.2571 80.1008 89.3611 80.2068L87.9335 81.6075ZM88.9393 82.0368L92.615 82.0695L92.6328 80.0695L88.957 80.0369L88.9393 82.0368ZM92.6151 82.0695C94.4624 82.0856 96.2947 81.7357 98.0072 81.0398L97.2544 79.1869C95.7862 79.7835 94.2157 80.0834 92.6326 80.0695L92.6151 82.0695ZM98.0072 81.0398C99.7198 80.344 101.279 79.3159 102.596 78.0145L101.19 76.5919C100.06 77.7087 98.7226 78.5904 97.2544 79.1869L98.0072 81.0398ZM102.596 78.0145C103.913 76.7132 104.961 75.164 105.683 73.4557L103.84 72.6779C103.221 74.1453 102.32 75.4752 101.19 76.5919L102.596 78.0145ZM105.683 73.4557C106.404 71.7475 106.783 69.9133 106.799 68.0579L104.799 68.0405C104.786 69.6348 104.459 71.2106 103.84 72.6779L105.683 73.4557ZM106.799 68.0653L106.816 67.0525L104.816 67.0202L104.8 68.0331L106.799 68.0653ZM106.816 67.0451C106.832 65.1896 106.485 63.349 105.794 61.6283L103.938 62.3737C104.531 63.8518 104.83 65.4332 104.816 67.0275L106.816 67.0451ZM105.794 61.6283C105.102 59.9075 104.081 58.3402 102.787 57.016L101.356 58.4138C102.467 59.5502 103.344 60.8957 103.938 62.3737L105.794 61.6283ZM102.787 57.016C101.493 55.6917 99.9515 54.6365 98.2513 53.9109L97.4662 55.7503C98.9239 56.3725 100.246 57.2774 101.356 58.4138L102.787 57.016ZM98.2513 53.9109C96.551 53.1852 94.725 52.8034 92.8776 52.7874L92.8603 54.7873C94.4434 54.801 96.0085 55.1282 97.4662 55.7503L98.2513 53.9109ZM92.8778 52.7874L89.2021 52.7547L89.1843 54.7546L92.86 54.7873L92.8778 52.7874ZM89.2121 52.7548C89.0216 52.7512 88.8324 52.7857 88.6554 52.8561L89.3946 54.7144C89.3246 54.7423 89.2497 54.7559 89.1743 54.7545L89.2121 52.7548ZM88.6554 52.8561C88.4785 52.9264 88.3173 53.0314 88.1813 53.1648L89.5823 54.5922C89.5284 54.645 89.4646 54.6866 89.3946 54.7144L88.6554 52.8561ZM88.1813 53.1648C88.0454 53.2982 87.9374 53.4574 87.8637 53.6331L89.7079 54.4069C89.6788 54.4765 89.636 54.5394 89.5823 54.5922L88.1813 53.1648ZM87.8637 53.6331C87.79 53.8088 87.7521 53.9973 87.7521 54.1878L89.7521 54.1874C89.7521 54.2627 89.7371 54.3374 89.7079 54.4069L87.8637 53.6331Z" fill="white" mask="url(#path-8-outside-1_502_1919)"/>
<mask id="path-10-outside-2_502_1919" maskUnits="userSpaceOnUse" x="110.077" y="50.0684" width="32" height="37" fill="black">
<rect fill="white" x="110.077" y="50.0684" width="32" height="37"/>
<path d="M132.934 78.5699H118.926C118.874 78.5698 118.824 78.5855 118.782 78.6146C118.74 78.6438 118.707 78.6852 118.689 78.7332L116.002 85.5538C115.983 85.6018 115.951 85.6432 115.909 85.6724C115.866 85.7015 115.816 85.7172 115.765 85.7171H111.337C111.294 85.7183 111.252 85.7085 111.213 85.6886C111.175 85.6687 111.143 85.6394 111.119 85.6034C111.095 85.5674 111.081 85.5259 111.078 85.4829C111.075 85.44 111.082 85.3969 111.101 85.3577L126.318 51.2142C126.339 51.1692 126.373 51.1315 126.415 51.1056C126.458 51.0797 126.507 51.0668 126.556 51.0685C126.606 51.0703 126.654 51.0865 126.694 51.1153C126.735 51.1442 126.766 51.1842 126.784 51.2305L140.237 85.2924C140.251 85.3288 140.256 85.3681 140.253 85.407C140.249 85.4459 140.236 85.4834 140.216 85.5167C140.195 85.5499 140.167 85.5779 140.134 85.5985C140.101 85.6191 140.063 85.6318 140.025 85.6354L135.916 85.9213C135.86 85.9267 135.805 85.9136 135.757 85.884C135.71 85.8545 135.674 85.8102 135.654 85.758L133.171 78.7414C133.154 78.6918 133.123 78.6487 133.08 78.618C133.038 78.5873 132.987 78.5704 132.934 78.5699ZM120.543 74.4285C120.529 74.4662 120.524 74.5068 120.528 74.5469C120.533 74.587 120.547 74.6254 120.569 74.659C120.591 74.6925 120.622 74.7203 120.657 74.7398C120.692 74.7594 120.732 74.7703 120.772 74.7716L131.391 75.0166C131.432 75.018 131.474 75.0091 131.511 74.9906C131.549 74.9721 131.581 74.9447 131.605 74.9108C131.629 74.8768 131.645 74.8374 131.65 74.796C131.655 74.7546 131.651 74.7126 131.636 74.6736L126.645 60.3219C126.628 60.273 126.597 60.2304 126.556 60.1996C126.515 60.1689 126.465 60.1514 126.414 60.1497C126.362 60.1479 126.311 60.1619 126.268 60.1897C126.225 60.2176 126.191 60.258 126.171 60.3055L120.543 74.4285Z"/>
</mask>
<path d="M132.934 78.5699H118.926C118.874 78.5698 118.824 78.5855 118.782 78.6146C118.74 78.6438 118.707 78.6852 118.689 78.7332L116.002 85.5538C115.983 85.6018 115.951 85.6432 115.909 85.6724C115.866 85.7015 115.816 85.7172 115.765 85.7171H111.337C111.294 85.7183 111.252 85.7085 111.213 85.6886C111.175 85.6687 111.143 85.6394 111.119 85.6034C111.095 85.5674 111.081 85.5259 111.078 85.4829C111.075 85.44 111.082 85.3969 111.101 85.3577L126.318 51.2142C126.339 51.1692 126.373 51.1315 126.415 51.1056C126.458 51.0797 126.507 51.0668 126.556 51.0685C126.606 51.0703 126.654 51.0865 126.694 51.1153C126.735 51.1442 126.766 51.1842 126.784 51.2305L140.237 85.2924C140.251 85.3288 140.256 85.3681 140.253 85.407C140.249 85.4459 140.236 85.4834 140.216 85.5167C140.195 85.5499 140.167 85.5779 140.134 85.5985C140.101 85.6191 140.063 85.6318 140.025 85.6354L135.916 85.9213C135.86 85.9267 135.805 85.9136 135.757 85.884C135.71 85.8545 135.674 85.8102 135.654 85.758L133.171 78.7414C133.154 78.6918 133.123 78.6487 133.08 78.618C133.038 78.5873 132.987 78.5704 132.934 78.5699ZM120.543 74.4285C120.529 74.4662 120.524 74.5068 120.528 74.5469C120.533 74.587 120.547 74.6254 120.569 74.659C120.591 74.6925 120.622 74.7203 120.657 74.7398C120.692 74.7594 120.732 74.7703 120.772 74.7716L131.391 75.0166C131.432 75.018 131.474 75.0091 131.511 74.9906C131.549 74.9721 131.581 74.9447 131.605 74.9108C131.629 74.8768 131.645 74.8374 131.65 74.796C131.655 74.7546 131.651 74.7126 131.636 74.6736L126.645 60.3219C126.628 60.273 126.597 60.2304 126.556 60.1996C126.515 60.1689 126.465 60.1514 126.414 60.1497C126.362 60.1479 126.311 60.1619 126.268 60.1897C126.225 60.2176 126.191 60.258 126.171 60.3055L120.543 74.4285Z" fill="#0A174C"/>
<path d="M132.934 78.5699L132.946 77.5699H132.934V78.5699ZM118.926 78.5699L118.925 79.5699H118.926V78.5699ZM118.689 78.7332L119.619 79.0998L119.624 79.0881L118.689 78.7332ZM116.002 85.5538L115.071 85.1872L115.067 85.1989L116.002 85.5538ZM115.765 85.7171L115.765 84.7171H115.765V85.7171ZM111.337 85.7171V84.7171H111.323L111.31 84.7175L111.337 85.7171ZM111.101 85.3577L112.008 85.7775L112.014 85.7648L111.101 85.3577ZM126.318 51.2142L125.413 50.7901L125.409 50.7985L125.405 50.8071L126.318 51.2142ZM126.784 51.2305L125.851 51.5901L125.854 51.5979L126.784 51.2305ZM140.237 85.2924L141.17 84.9331L141.167 84.925L140.237 85.2924ZM140.025 85.6354L140.094 86.633L140.107 86.6322L140.119 86.631L140.025 85.6354ZM135.916 85.9213L135.846 84.9238L135.833 84.9247L135.82 84.9259L135.916 85.9213ZM135.654 85.758L134.712 86.0916L134.715 86.0999L134.718 86.1082L135.654 85.758ZM133.171 78.7414L132.225 79.0639L132.229 79.075L133.171 78.7414ZM120.543 74.4285L119.614 74.0583L119.611 74.0657L119.608 74.0732L120.543 74.4285ZM120.772 74.7716L120.74 75.7711L120.749 75.7713L120.772 74.7716ZM131.391 75.0166L131.424 74.0171L131.414 74.0169L131.391 75.0166ZM131.636 74.6736L130.691 75.002L130.696 75.0156L130.701 75.029L131.636 74.6736ZM126.645 60.3219L125.697 60.6413L125.7 60.6503L126.645 60.3219ZM126.171 60.3055L125.248 59.9216L125.245 59.9284L125.242 59.9353L126.171 60.3055ZM132.934 77.5699H118.926V79.5699H132.934V77.5699ZM118.926 77.5699C118.672 77.5697 118.424 77.647 118.214 77.7914L119.35 79.4378C119.225 79.5239 119.077 79.5699 118.925 79.5699L118.926 77.5699ZM118.214 77.7914C118.005 77.9358 117.844 78.1405 117.754 78.3784L119.624 79.0881C119.57 79.2298 119.474 79.3518 119.35 79.4378L118.214 77.7914ZM117.759 78.3666L115.071 85.1872L116.932 85.9204L119.619 79.0998L117.759 78.3666ZM115.067 85.1989C115.12 85.0572 115.216 84.9352 115.341 84.8492L116.476 86.4956C116.686 86.3512 116.846 86.1465 116.936 85.9086L115.067 85.1989ZM115.341 84.8492C115.466 84.7631 115.614 84.7171 115.765 84.7171L115.764 86.7171C116.019 86.7173 116.267 86.64 116.476 86.4956L115.341 84.8492ZM115.765 84.7171H111.337V86.7171H115.765V84.7171ZM111.31 84.7175C111.437 84.714 111.563 84.743 111.675 84.8017L110.752 86.5756C110.941 86.6741 111.152 86.7227 111.365 86.7168L111.31 84.7175ZM111.675 84.8017C111.788 84.8604 111.884 84.947 111.954 85.0531L110.284 86.1537C110.401 86.3317 110.562 86.477 110.752 86.5756L111.675 84.8017ZM111.954 85.0531C112.024 85.1591 112.066 85.2813 112.075 85.4082L110.081 85.5577C110.097 85.7706 110.167 85.9757 110.284 86.1537L111.954 85.0531ZM112.075 85.4082C112.085 85.5351 112.062 85.6622 112.008 85.7775L110.193 84.938C110.103 85.1316 110.065 85.3448 110.081 85.5577L112.075 85.4082ZM112.014 85.7648L127.231 51.6213L125.405 50.8071L110.187 84.9506L112.014 85.7648ZM127.224 51.6383C127.162 51.7709 127.062 51.8823 126.937 51.9587L125.894 50.2524C125.684 50.3806 125.517 50.5676 125.413 50.7901L127.224 51.6383ZM126.937 51.9587C126.812 52.035 126.668 52.073 126.521 52.0679L126.591 50.0691C126.346 50.0605 126.103 50.1243 125.894 50.2524L126.937 51.9587ZM126.521 52.0679C126.375 52.0628 126.233 52.0147 126.114 51.9298L127.275 50.3009C127.075 50.1584 126.837 50.0777 126.591 50.0691L126.521 52.0679ZM126.114 51.9298C125.995 51.8449 125.903 51.7268 125.851 51.5901L127.717 50.8709C127.628 50.6416 127.475 50.4434 127.275 50.3009L126.114 51.9298ZM125.854 51.5979L139.307 85.6597L141.167 84.925L127.714 50.8632L125.854 51.5979ZM139.304 85.6517C139.262 85.5441 139.246 85.4284 139.257 85.3137L141.248 85.5002C141.266 85.3078 141.24 85.1136 141.17 84.9331L139.304 85.6517ZM139.257 85.3137C139.268 85.1991 139.305 85.0884 139.366 84.9903L141.066 86.043C141.168 85.8785 141.23 85.6927 141.248 85.5002L139.257 85.3137ZM139.366 84.9903C139.426 84.8923 139.509 84.8097 139.607 84.7489L140.662 86.4481C140.826 86.3461 140.964 86.2075 141.066 86.043L139.366 84.9903ZM139.607 84.7489C139.705 84.6881 139.815 84.6508 139.93 84.6399L140.119 86.631C140.311 86.6127 140.497 86.5502 140.662 86.4481L139.607 84.7489ZM139.955 84.6379L135.846 84.9238L135.985 86.9189L140.094 86.633L139.955 84.6379ZM135.82 84.9259C135.984 84.9102 136.148 84.9489 136.287 85.036L135.227 86.732C135.461 86.8782 135.737 86.9431 136.011 86.9168L135.82 84.9259ZM136.287 85.036C136.427 85.1231 136.534 85.2537 136.591 85.4077L134.718 86.1082C134.814 86.3666 134.994 86.5859 135.227 86.732L136.287 85.036ZM136.597 85.4244L134.114 78.4078L132.229 79.075L134.712 86.0916L136.597 85.4244ZM134.118 78.4189C134.034 78.1735 133.877 77.9601 133.667 77.808L132.494 79.4279C132.368 79.3373 132.275 79.2101 132.225 79.0639L134.118 78.4189ZM133.667 77.808C133.457 77.656 133.205 77.5728 132.946 77.5699L132.923 79.5698C132.769 79.5681 132.619 79.5185 132.494 79.4279L133.667 77.808ZM119.608 74.0732C119.537 74.2598 119.512 74.4606 119.534 74.659L121.522 74.4348C121.535 74.553 121.52 74.6727 121.478 74.7839L119.608 74.0732ZM119.534 74.659C119.557 74.8574 119.626 75.0476 119.737 75.2137L121.401 74.1043C121.467 74.2032 121.509 74.3165 121.522 74.4348L119.534 74.659ZM119.737 75.2137C119.848 75.3799 119.997 75.5171 120.171 75.614L121.143 73.8657C121.246 73.9234 121.335 74.0052 121.401 74.1043L119.737 75.2137ZM120.171 75.614C120.345 75.7108 120.541 75.7648 120.74 75.7711L120.803 73.7721C120.922 73.7759 121.039 73.808 121.143 73.8657L120.171 75.614ZM120.749 75.7713L131.368 76.0164L131.414 74.0169L120.795 73.7719L120.749 75.7713ZM131.358 76.0161C131.564 76.0229 131.769 75.9787 131.954 75.8872L131.068 74.094C131.179 74.0395 131.301 74.0131 131.424 74.0172L131.358 76.0161ZM131.954 75.8872C132.139 75.7958 132.299 75.66 132.419 75.492L130.791 74.3295C130.863 74.2294 130.958 74.1485 131.068 74.094L131.954 75.8872ZM132.419 75.492C132.539 75.324 132.615 75.1289 132.642 74.9241L130.658 74.6679C130.674 74.5459 130.72 74.4296 130.791 74.3295L132.419 75.492ZM132.642 74.9241C132.668 74.7193 132.644 74.5112 132.57 74.3182L130.701 75.029C130.657 74.914 130.643 74.79 130.658 74.6679L132.642 74.9241ZM132.58 74.3451L127.589 59.9934L125.7 60.6503L130.691 75.002L132.58 74.3451ZM127.592 60.0024C127.511 59.7608 127.358 59.5498 127.153 59.3976L125.959 61.0017C125.837 60.911 125.746 60.7853 125.697 60.6413L127.592 60.0024ZM127.153 59.3976C126.949 59.2454 126.703 59.1591 126.448 59.1503L126.379 61.1491C126.227 61.1438 126.081 61.0924 125.959 61.0017L127.153 59.3976ZM126.448 59.1503C126.193 59.1415 125.942 59.2107 125.727 59.3484L126.809 61.031C126.681 61.113 126.531 61.1543 126.379 61.1491L126.448 59.1503ZM125.727 59.3484C125.513 59.4862 125.346 59.6861 125.248 59.9216L127.094 60.6895C127.036 60.8298 126.936 60.949 126.809 61.031L125.727 59.3484ZM125.242 59.9353L119.614 74.0583L121.472 74.7987L127.1 60.6757L125.242 59.9353Z" fill="white" mask="url(#path-10-outside-2_502_1919)"/>
<path d="M134.575 52.6758L134.432 53.6574C134.43 53.6299 134.428 53.6025 134.426 53.5753C134.4 53.2057 134.431 52.9268 134.497 52.7678C134.511 52.7324 134.525 52.7095 134.535 52.6957C134.545 52.6826 134.55 52.6786 134.55 52.6785L134.55 52.6785C134.551 52.6783 134.55 52.6785 134.55 52.6786C134.55 52.6788 134.55 52.6785 134.552 52.678C134.555 52.6774 134.562 52.6759 134.575 52.6758ZM137.143 53.9495C137.118 54.1004 137.037 54.2582 136.826 54.4044C136.742 54.4617 136.663 54.5252 136.591 54.5944C136.653 54.4193 136.65 54.2398 136.619 54.0818L136.619 54.0818L136.618 54.0795L136.291 52.4815C136.581 52.6778 136.868 52.9921 137.03 53.3406C137.138 53.5744 137.171 53.7833 137.143 53.9495ZM135.851 55.5408C135.771 55.5848 135.684 55.6135 135.594 55.6258C135.659 55.5293 135.725 55.4215 135.793 55.3053C135.848 55.2115 135.91 55.1646 135.993 55.1386L135.994 55.1382C136.091 55.1075 136.19 55.0628 136.281 54.9993C136.266 55.0256 136.252 55.0525 136.238 55.0798C136.197 55.1575 136.154 55.2327 136.108 55.3055C136.043 55.4033 135.954 55.484 135.851 55.5408ZM137.975 56.2223C138.577 55.6199 138.915 54.803 138.915 53.9511C138.915 53.0993 138.577 52.2823 137.975 51.68C137.372 51.0777 136.555 50.7393 135.704 50.7393C134.852 50.7393 134.035 51.0777 133.432 51.68C132.83 52.2823 132.492 53.0993 132.492 53.9511C132.492 54.803 132.83 55.6199 133.432 56.2223C134.035 56.8246 134.852 57.163 135.704 57.163C136.555 57.163 137.372 56.8246 137.975 56.2223Z" fill="#0A174C" stroke="white"/>
<path d="M72.9802 61.2362L72.9601 61.324C72.3159 64.1409 71.6117 66.9415 70.8474 69.7256L70.8474 69.7258C69.9799 72.8805 68.5034 75.4429 66.4046 77.389C64.3063 79.3346 61.6119 80.6401 58.3457 81.3223L58.2012 81.3525L58.0635 81.2994L55.9888 80.4989L55.7276 80.3981L55.677 80.1228C55.3842 78.53 55.3558 76.9865 55.5916 75.4947C55.4162 76.213 55.3011 76.9585 55.2462 77.7316L55.246 77.7341C55.2244 78.0188 55.1061 78.2874 54.9108 78.4956L54.5493 78.1564L54.9108 78.4956C54.7155 78.7037 54.4549 78.8389 54.1722 78.8786C53.8895 78.9183 53.6018 78.8602 53.3567 78.7139C53.1116 78.5676 52.9239 78.3418 52.8247 78.0742L52.8229 78.0696L52.823 78.0695C51.0937 73.2579 51.6749 68.9515 54.6077 65.2245L72.9802 61.2362ZM72.9802 61.2362L72.9684 61.147M72.9802 61.2362L72.9684 61.147M72.9684 61.147L72.127 54.792L72.1269 54.7912M72.9684 61.147L72.1269 54.7912M72.1269 54.7912C72.109 54.6573 72.0783 54.5136 72.0185 54.3857C71.961 54.2626 71.8375 54.0745 71.5951 54.0052C71.352 53.9357 71.1473 54.031 71.0332 54.1062C70.9152 54.1839 70.8141 54.2903 70.7292 54.3947C70.729 54.3949 70.7289 54.3951 70.7287 54.3953L69.1222 56.3614M72.1269 54.7912L69.1222 56.3614M69.1222 56.3614C67.2957 57.7986 65.0589 58.8292 62.7833 59.8778C62.3873 60.0602 61.9901 60.2432 61.5937 60.429C58.9412 61.6722 56.3233 63.0415 54.6077 65.2244L69.1222 56.3614Z" fill="#079FC5" stroke="white"/>
</svg>
