<svg width="200" height="80" viewBox="0 0 200 80" fill="none" xmlns="http://www.w3.org/2000/svg">
<path d="M51.3327 13.2001C51.3338 13.2112 51.3377 13.2218 51.3441 13.2309C51.3505 13.2401 51.3591 13.2474 51.3692 13.2522C51.3792 13.2571 51.3904 13.2593 51.4015 13.2586C51.4127 13.2579 51.4234 13.2543 51.4328 13.2483C52.7339 12.3942 54.1162 11.7163 55.5796 11.2145C62.6188 8.80343 70.492 8.43123 77.6363 10.6346C80.2385 11.4366 82.5182 12.8113 84.4753 14.7587C84.4846 14.7678 84.4962 14.7741 84.5088 14.777C84.5214 14.7798 84.5346 14.7792 84.5469 14.775C84.5591 14.7709 84.57 14.7635 84.5783 14.7535C84.5866 14.7436 84.5919 14.7316 84.5938 14.7188C84.9958 11.7545 85.4078 9.65751 89.0225 9.63259C94.7662 9.5916 100.51 9.57499 106.255 9.58274C108.973 9.58717 111.211 9.68742 112.969 9.8835C115.858 10.2059 119.153 10.7907 121.431 12.7382C121.445 12.7501 121.463 12.758 121.481 12.761C121.5 12.7641 121.518 12.7622 121.536 12.7556C121.553 12.7489 121.568 12.7378 121.579 12.7233C121.591 12.7088 121.598 12.6916 121.6 12.6734C121.867 10.4468 123.618 9.66084 125.72 9.63924C129.106 9.60379 134.892 9.59714 143.078 9.6193C147.258 9.63093 151.046 9.79211 154.932 10.9802C155.414 11.1281 155.89 11.3391 156.36 11.5701C156.418 11.5977 156.464 11.5845 156.499 11.5302C157.292 10.2862 158.458 9.66139 159.998 9.65585C169.71 9.62484 175.968 9.61985 178.774 9.6409C179.093 9.64422 179.51 9.72619 180.023 9.88682C180.078 9.90344 180.132 9.90399 180.187 9.88848C180.737 9.72342 181.131 9.6409 181.369 9.6409C185.87 9.63757 190.37 9.63868 194.871 9.64422C196.294 9.64588 197.716 9.96325 198.569 11.1912C198.906 11.6764 199.288 12.8462 199.186 13.4676C198.887 15.2921 198.558 17.1121 198.2 18.9278C197.626 21.8373 194.832 22.0649 192.412 21.7957C192.256 21.778 192.111 21.8323 191.975 21.9586C189.87 23.9182 187.765 25.8739 185.66 27.8258C185.655 27.8299 185.651 27.8354 185.649 27.8415C185.648 27.8476 185.647 27.8541 185.649 27.8602C185.651 27.8663 185.654 27.8718 185.659 27.876C185.664 27.8803 185.67 27.883 185.676 27.8839C187.55 28.2296 188.796 29.971 188.465 31.8503C188.233 33.1696 188.007 34.4889 187.788 35.8083C187.633 36.7454 187.461 37.9401 186.852 38.6696C186.126 39.5403 185.174 39.9812 183.997 39.9923C181.25 40.0188 175.218 40.0211 165.902 39.9989C164.525 39.9956 163.582 39.9047 163.074 39.7264C161.239 39.0833 160.612 37.3536 160.917 35.5009C161.164 34.0054 161.43 32.5138 161.715 31.0261C161.967 29.7068 162.345 28.856 163.471 28.2329C163.967 27.9604 164.634 27.869 165.218 27.746C165.229 27.7436 165.239 27.7382 165.248 27.7304C165.256 27.7226 165.263 27.7128 165.266 27.7018C165.269 27.6908 165.27 27.6791 165.267 27.6679C165.265 27.6567 165.259 27.6464 165.251 27.638L159.957 22.03C159.949 22.0213 159.939 22.0146 159.928 22.0105C159.916 22.0065 159.904 22.0051 159.893 22.0066C159.881 22.008 159.869 22.0123 159.859 22.0189C159.849 22.0256 159.841 22.0345 159.835 22.045C159.329 22.9256 158.711 23.721 157.98 24.4311C157.935 24.4743 157.929 24.5225 157.962 24.5756C158.138 24.8531 158.415 25.1373 158.547 25.4098C159.603 27.5832 159.728 29.7533 159.012 31.9948C156.771 39.0119 146.864 39.9923 140.899 39.9989C134.119 40.0067 127.339 40.0078 120.559 40.0022C120.431 40.0011 120.193 39.9695 119.845 39.9075C118.626 39.6882 117.719 38.967 117.123 37.7441C117.118 37.7352 117.112 37.7272 117.104 37.7207C117.097 37.7142 117.088 37.7093 117.079 37.7062C117.069 37.7031 117.059 37.7019 117.049 37.7027C117.039 37.7035 117.03 37.7063 117.021 37.7108C116.325 38.0664 115.591 38.3572 114.819 38.5832C111.341 39.6018 107.898 39.9939 104.284 39.9989C93.6169 40.0133 86.8095 40.0139 83.8615 40.0006C83.0592 39.9972 81.9749 39.6018 81.4011 39.0717C80.5621 38.2974 80.2201 37.091 80.2919 35.9545C80.2923 35.9491 80.2911 35.9437 80.2886 35.939C80.286 35.9342 80.2821 35.9303 80.2774 35.9277C80.2726 35.925 80.2672 35.9238 80.2618 35.9242C80.2564 35.9245 80.2512 35.9264 80.2468 35.9296C78.5298 37.127 76.6777 38.0443 74.6905 38.6812C67.8782 40.8646 60.7789 41.0275 53.9633 39.0401C51.5813 38.3445 49.4773 37.1852 47.6513 35.5623C47.6414 35.5532 47.6291 35.5468 47.6157 35.5441C47.6024 35.5413 47.5886 35.5422 47.5758 35.5466C47.5629 35.551 47.5515 35.5589 47.5428 35.5692C47.5341 35.5796 47.5284 35.5922 47.5262 35.6055C47.3611 36.5992 47.226 37.7889 46.6388 38.5633C45.6764 39.8327 44.4653 39.9906 42.7906 39.9939C37.1826 40.0083 31.574 40.01 25.9649 39.9989C25.2527 39.9989 24.4403 39.5719 23.7948 39.733C23.286 39.8593 22.8373 40.0022 22.3052 40.0022C16.8384 40.0067 11.3717 40.0055 5.90488 39.9989C4.62047 39.9978 3.72528 39.9103 3.21931 39.7364C1.30438 39.08 0.710549 37.3071 1.03916 35.3995C1.29937 33.8885 1.56849 32.3814 1.8465 30.8782C2.26851 28.5901 3.77811 27.9355 5.89821 27.8142C5.95937 27.8108 5.99551 27.7787 6.00663 27.7178L7.02581 21.8107C7.0336 21.7675 7.0158 21.7414 6.97243 21.7326C4.77394 21.2607 3.77811 19.6173 4.12339 17.4838C4.32245 16.2564 4.586 14.7172 4.91405 12.8661C5.44449 9.8702 7.42615 9.65751 10.1851 9.64754C14.7111 9.63204 19.2382 9.62982 23.7664 9.6409C24.9307 9.64256 26.1951 9.498 27.4995 9.81869C28.467 10.058 28.9291 9.63757 29.8148 9.63757C35.5429 9.63757 41.2705 9.63924 46.9975 9.64256C49.4261 9.64422 51.1159 10.588 51.3327 13.2001ZM60.5971 13.3962C54.2118 14.6258 47.7581 18.6702 47.1976 25.7089C46.6071 33.138 53.7581 36.119 59.8448 36.7355C63.9015 37.1475 68.3052 36.9166 72.1 35.8531C77.698 34.2846 83.0992 30.5791 83.9549 24.4211C84.9241 17.4406 79.1893 14.0592 73.2243 13.1503C68.9986 12.5067 64.7895 12.5886 60.5971 13.3962ZM22.2702 22.1829C22.2612 22.183 22.2522 22.1812 22.244 22.1775C22.2358 22.1738 22.2285 22.1683 22.2226 22.1615C22.2167 22.1547 22.2124 22.1467 22.2099 22.138C22.2075 22.1294 22.207 22.1203 22.2085 22.1114L22.839 18.3711C22.8413 18.3569 22.8486 18.3439 22.8596 18.3345C22.8706 18.3251 22.8846 18.3198 22.899 18.3196H25.6997C25.7142 18.3194 25.7281 18.3141 25.7391 18.3047C25.7501 18.2953 25.7574 18.2823 25.7598 18.2681L26.6338 13.1885C26.6353 13.1796 26.6348 13.1705 26.6323 13.1619C26.6299 13.1532 26.6256 13.1452 26.6197 13.1384C26.6138 13.1316 26.6065 13.1261 26.5983 13.1225C26.5901 13.1188 26.5811 13.1169 26.5721 13.117L8.43365 13.1785C8.41917 13.1787 8.40521 13.184 8.39423 13.1934C8.38325 13.2028 8.37595 13.2158 8.3736 13.23L7.51789 18.2481C7.51642 18.257 7.51693 18.2661 7.51937 18.2747C7.52181 18.2834 7.52612 18.2914 7.53201 18.2982C7.53789 18.305 7.5452 18.3105 7.55343 18.3142C7.56165 18.3179 7.57059 18.3197 7.57961 18.3196H11.0775C11.0865 18.3195 11.0955 18.3213 11.1037 18.325C11.1119 18.3287 11.1192 18.3342 11.1251 18.341C11.131 18.3478 11.1353 18.3558 11.1378 18.3644C11.1402 18.3731 11.1407 18.3822 11.1392 18.391L8.93574 31.2936C8.93334 31.3081 8.9258 31.3213 8.91447 31.3308C8.90315 31.3402 8.88879 31.3453 8.87402 31.3451L5.3344 31.3136C5.31963 31.3134 5.30527 31.3185 5.29395 31.3279C5.28262 31.3374 5.27508 31.3505 5.27268 31.3651L4.40863 36.4397C4.40717 36.4486 4.40767 36.4576 4.41011 36.4663C4.41255 36.4749 4.41686 36.483 4.42275 36.4898C4.42863 36.4966 4.43594 36.502 4.44417 36.5057C4.45239 36.5094 4.46133 36.5113 4.47035 36.5111L22.5921 36.5161C22.6066 36.5159 22.6206 36.5107 22.6315 36.5012C22.6425 36.4918 22.6498 36.4789 22.6522 36.4646L23.5162 31.3867C23.5177 31.3778 23.5172 31.3687 23.5147 31.3601C23.5123 31.3514 23.508 31.3434 23.5021 31.3366C23.4962 31.3298 23.4889 31.3243 23.4807 31.3206C23.4725 31.317 23.4635 31.3151 23.4545 31.3152L20.6939 31.3551C20.6848 31.3552 20.6759 31.3534 20.6677 31.3497C20.6595 31.346 20.6522 31.3405 20.6463 31.3337C20.6404 31.3269 20.6361 31.3189 20.6336 31.3102C20.6312 31.3016 20.6307 31.2925 20.6322 31.2836L21.3277 27.2691C21.3301 27.2549 21.3374 27.2419 21.3484 27.2325C21.3593 27.2231 21.3733 27.2178 21.3878 27.2176L30.0183 27.1778C30.0273 27.1776 30.0363 27.1795 30.0445 27.1832C30.0527 27.1869 30.06 27.1923 30.0659 27.1991C30.0718 27.2059 30.0761 27.214 30.0785 27.2226C30.081 27.2313 30.0815 27.2403 30.08 27.2492L29.3844 31.277C29.3821 31.2912 29.3748 31.3042 29.3638 31.3136C29.3528 31.323 29.3389 31.3283 29.3244 31.3285L26.5271 31.3185C26.5126 31.3187 26.4986 31.324 26.4876 31.3334C26.4767 31.3428 26.4694 31.3558 26.467 31.3701L25.6046 36.443C25.6032 36.4519 25.6037 36.461 25.6061 36.4696C25.6085 36.4783 25.6129 36.4863 25.6187 36.4931C25.6246 36.4999 25.6319 36.5053 25.6402 36.509C25.6484 36.5127 25.6573 36.5146 25.6663 36.5145H43.7881C43.8026 36.5143 43.8166 36.509 43.8275 36.4996C43.8385 36.4902 43.8458 36.4772 43.8482 36.463L44.7055 31.4349C44.707 31.426 44.7065 31.4169 44.7041 31.4083C44.7016 31.3996 44.6973 31.3916 44.6914 31.3848C44.6855 31.378 44.6782 31.3725 44.67 31.3688C44.6618 31.3651 44.6529 31.3633 44.6438 31.3634H41.1459C41.1369 31.3635 41.128 31.3617 41.1197 31.358C41.1115 31.3543 41.1042 31.3488 41.0983 31.342C41.0924 31.3352 41.0881 31.3272 41.0857 31.3186C41.0832 31.3099 41.0827 31.3008 41.0842 31.292L43.2944 18.3711C43.2967 18.3569 43.304 18.3439 43.315 18.3345C43.326 18.3251 43.3399 18.3198 43.3544 18.3196H46.889C46.9035 18.3194 46.9175 18.3141 46.9285 18.3047C46.9394 18.2953 46.9467 18.2823 46.9491 18.2681L47.8215 13.2533C47.8229 13.2444 47.8224 13.2353 47.82 13.2267C47.8176 13.218 47.8132 13.21 47.8074 13.2032C47.8015 13.1964 47.7942 13.191 47.7859 13.1873C47.7777 13.1836 47.7688 13.1817 47.7598 13.1818L29.6397 13.122C29.6252 13.1222 29.6112 13.1275 29.6002 13.1369C29.5893 13.1463 29.582 13.1593 29.5796 13.1735L28.7206 18.2481C28.7191 18.257 28.7196 18.2661 28.722 18.2747C28.7245 18.2834 28.7288 18.2914 28.7347 18.2982C28.7406 18.305 28.7479 18.3105 28.7561 18.3142C28.7643 18.3179 28.7733 18.3197 28.7823 18.3196H31.5362C31.5453 18.3195 31.5542 18.3213 31.5624 18.325C31.5706 18.3287 31.578 18.3342 31.5838 18.341C31.5897 18.3478 31.594 18.3558 31.5965 18.3644C31.5989 18.3731 31.5994 18.3822 31.598 18.391L30.9507 22.1314C30.9484 22.1456 30.9411 22.1586 30.9301 22.168C30.9191 22.1774 30.9052 22.1827 30.8907 22.1829H22.2702ZM114.187 24.235C114.175 24.2325 114.164 24.2259 114.157 24.2164C114.149 24.2069 114.145 24.195 114.146 24.1829C114.146 24.1709 114.151 24.1593 114.159 24.1503C114.167 24.1413 114.178 24.1354 114.19 24.1336C116.158 23.7016 118.622 22.6 119.755 20.9333C121.009 19.0873 120.821 16.3855 118.814 15.1077C117.646 14.3633 116.323 13.8825 114.844 13.6654C112.425 13.312 109.993 13.1336 107.548 13.1303C101.174 13.1204 94.8034 13.1209 88.437 13.132C88.419 13.1321 88.4017 13.1385 88.388 13.15C88.3743 13.1616 88.365 13.1775 88.3619 13.1951L87.5012 18.2365C87.4923 18.2919 87.5157 18.3196 87.5713 18.3196H91.1826C91.2449 18.3196 91.271 18.3506 91.261 18.4126L89.0658 31.2288C89.0602 31.2635 89.0422 31.295 89.0149 31.3176C88.9876 31.3401 88.953 31.3523 88.9174 31.3518L84.7589 31.3102C84.7303 31.3098 84.7024 31.3197 84.6804 31.338C84.6583 31.3562 84.6436 31.3818 84.6388 31.4099L83.7848 36.4314C83.7737 36.4967 83.8015 36.5283 83.8682 36.5261C90.6855 36.345 97.4695 36.5527 104.701 36.4812C109.078 36.438 118.784 35.8265 119.294 29.7051C119.571 26.3918 116.912 24.9844 114.187 24.235ZM127.897 18.4093L125.718 31.1607C125.698 31.2748 125.63 31.3324 125.515 31.3335L121.374 31.3734C121.313 31.3745 121.278 31.4049 121.268 31.4648L120.432 36.3898C120.429 36.4045 120.43 36.4195 120.434 36.4339C120.437 36.4482 120.444 36.4616 120.454 36.473C120.463 36.4844 120.475 36.4936 120.489 36.4999C120.502 36.5062 120.517 36.5095 120.532 36.5095C127.499 36.5206 134.454 36.5189 141.398 36.5045C145.308 36.4978 152.61 35.9063 155.086 32.1892C156.125 30.6273 156.414 28.0501 155.058 26.5314C154.065 25.4231 152.312 24.6355 150.849 24.2533C150.835 24.2492 150.824 24.2409 150.815 24.2295C150.807 24.2182 150.802 24.2044 150.803 24.1903C150.803 24.1763 150.808 24.1626 150.816 24.1515C150.825 24.1404 150.837 24.1323 150.851 24.1287C153.858 23.4457 157.518 21.5398 157.138 17.851C156.635 12.9775 147.379 13.1636 143.953 13.1519C137.661 13.132 131.372 13.1231 125.086 13.1253C125.066 13.1254 125.046 13.1326 125.031 13.1456C125.015 13.1587 125.005 13.1767 125.001 13.1968L124.145 18.2299C124.134 18.2897 124.16 18.3196 124.222 18.3196H127.821C127.882 18.3196 127.907 18.3495 127.897 18.4093ZM181.493 31.2388C181.484 31.2387 181.476 31.2367 181.468 31.2331C181.461 31.2295 181.454 31.2242 181.449 31.2178C181.443 31.2113 181.439 31.2037 181.437 31.1956C181.435 31.1874 181.435 31.1789 181.436 31.1707L182.28 26.1957C182.282 26.1829 182.289 26.1712 182.299 26.1625L190.684 18.3346C190.695 18.3247 190.709 18.3194 190.724 18.3196H194.771C194.784 18.3194 194.797 18.3145 194.808 18.3057C194.818 18.2969 194.825 18.2848 194.827 18.2714L195.698 13.2367C195.7 13.2282 195.699 13.2196 195.697 13.2113C195.695 13.2031 195.69 13.1954 195.685 13.1889C195.679 13.1824 195.672 13.1772 195.665 13.1737C195.657 13.1702 195.648 13.1684 195.64 13.1685H181.196C181.182 13.1683 181.169 13.1731 181.158 13.1819C181.147 13.1907 181.14 13.2031 181.138 13.2167L180.274 18.2515C180.272 18.2598 180.272 18.2683 180.275 18.2764C180.277 18.2845 180.281 18.2921 180.286 18.2986C180.291 18.305 180.298 18.3103 180.306 18.3139C180.313 18.3175 180.322 18.3195 180.33 18.3196H183.451C183.463 18.3198 183.474 18.3233 183.483 18.3298C183.493 18.3363 183.5 18.3455 183.505 18.3561C183.509 18.3668 183.51 18.3785 183.507 18.3897C183.505 18.401 183.499 18.4113 183.491 18.4193L179.693 22.2028C179.687 22.2084 179.681 22.2128 179.673 22.2156C179.666 22.2185 179.658 22.2198 179.65 22.2195C179.642 22.2192 179.634 22.2173 179.627 22.2138C179.62 22.2104 179.613 22.2055 179.608 22.1995L176.223 18.416C176.216 18.4076 176.211 18.3973 176.21 18.3863C176.208 18.3753 176.21 18.3641 176.214 18.354C176.219 18.3438 176.226 18.3352 176.235 18.3291C176.245 18.323 176.256 18.3197 176.267 18.3196H178.155C178.169 18.3198 178.182 18.3151 178.193 18.3062C178.204 18.2974 178.211 18.285 178.213 18.2714L179.078 13.2367C179.079 13.2284 179.079 13.2199 179.076 13.2117C179.074 13.2036 179.07 13.196 179.065 13.1896C179.06 13.1831 179.053 13.1779 179.045 13.1742C179.038 13.1706 179.029 13.1687 179.021 13.1685H159.671C159.657 13.1683 159.644 13.1731 159.633 13.1819C159.623 13.1907 159.615 13.2031 159.613 13.2167L158.747 18.2515C158.746 18.2599 158.746 18.2685 158.748 18.2768C158.751 18.285 158.755 18.2927 158.76 18.2992C158.766 18.3057 158.773 18.3109 158.781 18.3144C158.789 18.318 158.797 18.3197 158.806 18.3196H161.279C161.287 18.3197 161.295 18.3214 161.302 18.3245C161.309 18.3277 161.316 18.3322 161.321 18.3379L169.414 26.9235C169.421 26.9301 169.425 26.938 169.428 26.9467C169.43 26.9553 169.431 26.9645 169.429 26.9734L168.702 31.1906C168.7 31.204 168.693 31.2161 168.683 31.2249C168.672 31.2337 168.659 31.2386 168.645 31.2388H165.233C165.219 31.2386 165.205 31.2433 165.195 31.2522C165.184 31.261 165.177 31.2733 165.174 31.287L164.292 36.4463C164.29 36.4546 164.291 36.4631 164.293 36.4713C164.295 36.4794 164.299 36.487 164.304 36.4934C164.31 36.4999 164.317 36.5051 164.324 36.5088C164.332 36.5124 164.34 36.5143 164.349 36.5145H184.077C184.091 36.5147 184.104 36.5099 184.115 36.5011C184.125 36.4923 184.133 36.4799 184.135 36.4663L185.022 31.3069C185.024 31.2985 185.024 31.2898 185.021 31.2816C185.019 31.2733 185.015 31.2657 185.009 31.2592C185.004 31.2527 184.997 31.2475 184.989 31.2439C184.981 31.2404 184.973 31.2387 184.964 31.2388H181.493ZM123.329 21.8107C122.872 22.7678 122.07 23.7249 121.308 24.456C121.294 24.4692 121.286 24.4869 121.285 24.5054C121.283 24.5239 121.289 24.5419 121.301 24.5557C122.064 25.4652 122.507 26.5148 122.63 27.7045C122.632 27.7211 122.64 27.7364 122.653 27.7478C122.665 27.7591 122.681 27.7657 122.698 27.7663C122.714 27.7669 122.731 27.7615 122.744 27.7511C122.757 27.7406 122.766 27.7259 122.769 27.7095L123.746 22.0201C123.754 21.9735 123.75 21.9257 123.735 21.8811C123.72 21.8365 123.694 21.7963 123.66 21.7642C123.518 21.6312 123.408 21.6467 123.329 21.8107Z" fill="#0174BD"/>
<path d="M61.0058 22.7648C61.9616 19.7306 64.1751 17.4559 67.5796 17.9677C72.3953 18.6938 70.9875 25.2439 69.6497 28.092C68.5621 30.4066 66.3102 32.1347 63.6213 31.6761C59.4495 30.9633 60.1067 25.6245 61.0058 22.7648ZM67.1159 21.4089C64.1434 21.0832 63.7731 25.8056 63.9099 27.6782C64.005 28.976 65.7281 27.7796 66.0484 27.2778C67.1537 25.5597 67.5724 23.6654 67.3044 21.595C67.2984 21.5472 67.2765 21.5029 67.2423 21.4691C67.2081 21.4354 67.1636 21.4142 67.1159 21.4089Z" fill="#0174BD"/>
<path d="M102.964 18.3781C102.969 18.3538 102.983 18.341 103.007 18.3399C104.285 18.2867 106.642 18.1023 107.818 18.5659C109.895 19.3851 108.959 21.7562 107.243 22.1749C105.767 22.5361 104.136 22.6496 102.35 22.5156C102.294 22.5112 102.27 22.4812 102.279 22.4259L102.964 18.3781Z" fill="#0174BD"/>
<path d="M139.585 18.4525C139.591 18.4163 139.609 18.3834 139.637 18.3596C139.665 18.3359 139.7 18.3229 139.736 18.3229C141.131 18.3129 144.587 17.9208 145.441 19.3348C146.038 20.3252 145.281 21.5963 144.315 22.0017C142.802 22.6365 140.626 22.6149 139.004 22.5401C138.933 22.5368 138.904 22.5002 138.916 22.4304L139.585 18.4525Z" fill="#0174BD"/>
<path d="M101.578 26.5032C101.583 26.475 101.597 26.4492 101.618 26.4302C101.64 26.4111 101.668 26.3999 101.696 26.3985C103.219 26.327 108.769 25.9797 107.693 29.1518C107.398 30.0214 106.804 30.5897 105.91 30.8566C104.484 31.2831 102.796 31.4216 100.844 31.272C100.792 31.2676 100.77 31.2394 100.779 31.1873L101.578 26.5032Z" fill="#0174BD"/>
<path d="M138.22 26.4665C138.229 26.4177 138.258 26.3928 138.307 26.3917C139.481 26.3474 140.664 26.3745 141.857 26.4731C143.49 26.6077 145.124 27.5731 144.213 29.4724C143.268 31.4447 139.386 31.4132 137.473 31.3101C137.421 31.3079 137.399 31.2813 137.408 31.2304L138.22 26.4665Z" fill="#0174BD"/>
<path d="M95.8716 51.5189C95.8719 51.5069 95.8687 51.495 95.8624 51.4848C95.8561 51.4745 95.8469 51.4663 95.8358 51.4611C95.8248 51.4558 95.8124 51.4538 95.8001 51.4552C95.7878 51.4566 95.7762 51.4614 95.7665 51.4691C94.2163 52.743 92.6667 53.9992 91.1176 55.2376C90.6939 55.5766 90.2619 56.017 89.9316 56.4457C88.1051 58.8118 86.2252 61.5086 83.2243 62.1201C81.0409 62.5654 78.04 62.0254 77.0792 59.7207C76.9958 59.5213 76.8785 59.0162 76.7273 58.2053C76.7189 58.1588 76.6972 58.1272 76.6539 58.1173C76.6183 58.1084 76.6049 58.1217 76.6138 58.1571C76.8674 59.2272 76.5705 60.3189 76.2819 61.3525C75.4128 64.4647 72.3703 66.0233 69.2193 65.1725C67.1243 64.6076 66.0801 63.4029 65.7448 61.2627C65.6947 60.9426 65.7064 60.6186 65.7798 60.2907C66.754 55.9472 67.9299 51.7582 70.9558 48.4316C72.6455 46.5722 75.0792 45.1632 77.3461 43.902C79.2177 42.8618 80.8974 42.704 82.9441 43.2157C84.8924 43.7026 86.3169 44.8059 87.211 46.6287C87.2388 46.6852 87.2777 46.6941 87.3278 46.6553C90.5238 44.216 95.0926 41.0191 99.3678 41.6837C101.615 42.031 103.348 42.8369 104.562 44.7893C105.114 45.6783 105.415 46.8647 105.753 47.9331C106.269 49.5632 106.582 50.4222 106.3 51.8562C106.298 51.8662 106.299 51.8767 106.303 51.886C106.308 51.8953 106.315 51.9029 106.324 51.9077C106.333 51.9124 106.344 51.914 106.354 51.9122C106.364 51.9104 106.373 51.9053 106.38 51.8978C108.577 49.7011 110.949 48.1491 114.138 47.737C115.71 47.5343 117.785 47.9049 119.084 48.8271C119.516 49.1345 119.928 49.3272 120.352 49.5997C120.766 49.8656 121.386 49.8889 121.87 49.9886C123.128 50.2494 124.047 51.1833 124.589 52.3148C124.619 52.3802 124.659 52.3868 124.709 52.3348C127.054 49.9271 131.336 50.3757 132.847 53.4182C132.875 53.4724 132.919 53.4913 132.977 53.4747C134.233 53.1047 135.045 52.9125 135.415 52.8981C138.811 52.7651 140.312 54.4766 141.748 57.2283C141.776 57.2815 141.818 57.2964 141.875 57.2731C143.258 56.6999 144.772 55.8026 146.224 55.5401C146.281 55.5301 146.322 55.4985 146.345 55.4454C146.946 54.116 147.718 53.6325 149.139 52.9047C150.069 52.4295 150.987 51.8944 151.895 51.2996C151.962 51.2553 151.983 51.1949 151.958 51.1185C151.872 50.846 151.783 50.5884 151.833 50.2926C152.34 47.3316 154.692 45.5736 157.593 45.2047C157.911 45.1637 158.211 45.1665 158.494 45.213C160.924 45.6052 163.368 47.1671 163.496 49.8257C163.497 49.8368 163.5 49.8476 163.507 49.8569C163.513 49.8662 163.521 49.8736 163.531 49.8784C163.542 49.8832 163.553 49.8851 163.564 49.884C163.575 49.883 163.586 49.8789 163.595 49.8722C166.127 48.0079 169.55 47.0741 172.631 48.1674C173.473 48.4665 174.252 49.0647 175.071 49.5383C175.327 49.6867 175.613 49.7858 175.93 49.8357C176.579 49.9365 176.997 50.0268 177.183 50.1065C179.885 51.2697 180.437 54.6611 179.56 57.1635C179.493 57.354 179.535 57.6598 179.686 58.0807C179.709 58.1416 179.712 58.2042 179.696 58.2685L179.52 58.9846C179.503 59.05 179.517 59.1092 179.561 59.1624C180.143 59.857 180.465 60.6684 180.529 61.5967C180.547 61.8615 180.419 62.4309 180.147 63.3049C179.301 66.0216 176.992 66.8574 174.357 66.3972C172.776 66.123 170.389 64.6275 169.915 63.0124C169.897 62.9537 169.861 62.9376 169.806 62.9642C168.15 63.7452 166.254 64.8585 164.656 65.2307C162.805 65.6616 160.964 65.4916 159.133 64.7206C158.795 64.5788 158.25 64.1844 157.5 63.5375C157.446 63.4921 157.401 63.4993 157.363 63.5591C155.825 66.0466 152.816 66.3074 150.24 65.5165C149.375 65.2506 148.724 64.7826 148.289 64.1124C148.26 64.0681 148.221 64.0559 148.172 64.0759C146.289 64.8325 144.351 65.3725 142.359 65.696C139.323 66.1878 136.083 66.2393 133.865 63.7219C133.825 63.6765 133.782 63.6738 133.736 63.7136C131.413 65.7707 128.565 66.5268 125.553 65.4617C125.128 65.311 124.805 65.1465 124.582 64.9682C124.539 64.9338 124.5 64.9383 124.467 64.9815C123.133 66.7378 120.192 66.7744 118.352 66.0665C117.193 65.6212 115.416 64.2454 115.064 63.0191C115.049 62.9659 115.015 62.9509 114.964 62.9742C113.368 63.6854 111.573 64.7555 110.118 65.1493C108.147 65.6854 106.177 65.5309 104.21 64.6857C104.007 64.5982 103.575 64.2891 102.914 63.7585C102.868 63.7219 102.817 63.7098 102.761 63.7219C102.17 63.8499 101.616 64.0526 101.016 64.0028C98.7606 63.8167 96.7423 63.1985 95.5563 61.183C93.95 58.4562 94.9458 55.2676 95.8015 52.5508C95.9066 52.2135 95.8682 51.8629 95.8716 51.5189ZM68.8123 60.4352C68.5938 61.3774 69.0309 62.0935 69.985 62.2963C72.0384 62.7316 73.1776 61.7529 73.608 59.8985C73.7259 59.3879 73.7648 59.0422 73.7248 58.8617C73.4968 57.8414 73.5974 56.9165 74.0267 56.0867C74.744 54.7054 75.6692 53.3279 76.8023 51.9543C77.8716 50.6599 78.7189 49.7377 80.1068 49.1179C80.1405 49.1026 80.1773 49.0952 80.2143 49.0962C80.2513 49.0971 80.2877 49.1064 80.3206 49.1234C80.3535 49.1403 80.3821 49.1645 80.4043 49.194C80.4265 49.2236 80.4417 49.2578 80.4487 49.294C80.5638 49.8789 80.5221 50.384 80.4821 50.9639C80.3531 52.8626 80.1346 54.7486 79.8265 56.6218C79.6147 57.9062 79.5146 58.9464 81.0208 59.2123C84.8023 59.8802 86.5888 55.0266 88.9992 53.0559C89.6252 52.5441 90.9925 51.4447 93.1009 49.7576C94.0267 49.0182 97.0575 46.6404 98.0651 48.076C98.814 49.1428 98.9558 50.8759 98.8991 52.1287C98.8557 53.1324 98.4487 54.2058 98.1468 55.2144C97.578 57.107 97.1459 60.2109 99.8399 60.7975C101.073 61.0667 102.442 61.2162 102.761 59.5994C102.822 59.2915 102.78 58.8301 102.634 58.2153C102.335 56.9525 101.897 55.7162 102.385 54.4284C102.976 52.8715 103.733 51.2099 103.114 49.5349C102.744 48.533 102.5 47.2402 102.02 46.4526C100.467 43.912 96.7523 44.3806 94.5204 45.5969C91.8171 47.0713 89.2205 48.8459 86.7306 50.9207C86.3692 51.2209 86.0245 51.5389 85.6964 51.8745C85.2677 52.3115 85.0192 52.9413 84.5555 53.4315C84.5065 53.4846 84.4493 53.4957 84.3836 53.4647L84.3086 53.4298C84.2408 53.3988 84.2252 53.3506 84.2619 53.2852C84.8501 52.2528 84.9953 51.175 84.6972 50.0517C84.4921 49.2824 84.6956 48.4516 84.3553 47.7537C83.593 46.1901 81.2243 45.4972 79.658 46.1718C78.1101 46.8381 76.5538 47.8733 75.2093 48.7722C71.211 51.4408 69.8315 56.0352 68.8123 60.4352ZM155.161 50.8975C156.667 51.7731 158.646 51.5339 160.08 50.6698C160.347 50.5092 160.49 50.2771 160.509 49.9736C160.564 49.0813 158.997 48.3818 158.294 48.2322C157.041 47.968 155.606 49.0481 155.006 50.0201C154.776 50.3907 154.757 50.6632 155.161 50.8975ZM117.84 58.6108L117.545 59.4698C117.522 59.5352 117.528 59.5983 117.563 59.6593C117.776 60.0414 117.873 60.4502 117.853 60.8855C117.851 60.9542 117.87 61.0168 117.912 61.0733C118.14 61.3746 118.144 61.6787 117.925 61.9855C117.884 62.0442 117.889 62.0974 117.942 62.1451C118.579 62.7183 119.379 63.3896 120.254 63.4827C121.882 63.6571 122.507 63.0822 122.664 61.5086C122.669 61.451 122.649 61.4034 122.604 61.3657C122.317 61.1231 122.005 60.9985 121.843 60.6463C121.661 60.2464 121.533 59.8271 121.461 59.3884C121.451 59.3253 121.457 59.2632 121.48 59.2023L121.823 58.2668C121.841 58.2195 121.846 58.1685 121.838 58.1186C121.831 58.0687 121.811 58.0213 121.78 57.981C121.581 57.7235 121.491 57.4543 121.631 57.1269C122.104 56.0181 122.22 54.964 121.978 53.9648C121.561 52.2367 120.013 52.9596 118.851 53.1722C118.836 53.1752 118.82 53.1745 118.806 53.1701C118.791 53.1658 118.778 53.1579 118.767 53.1473C118.756 53.1366 118.748 53.1235 118.743 53.109C118.739 53.0945 118.738 53.0792 118.741 53.0642L118.864 52.3647C118.877 52.2927 118.852 52.239 118.787 52.2035C118.02 51.7881 117.219 51.0902 116.404 50.8792C112.726 49.9271 109.922 52.6887 107.501 54.9967C107.282 55.2061 107.101 55.4609 106.957 55.7611C106.35 57.0228 105.654 58.2352 104.867 59.3984C104.629 59.7506 104.502 60.0569 104.484 60.3173C104.339 62.3943 107.635 62.5854 108.944 62.3395C109.377 62.2575 109.945 62.0359 110.649 61.6748C111.497 61.2384 112.357 60.8229 113.228 60.4286C113.955 60.0979 114.375 59.6244 114.856 59.0378C114.957 58.9132 115.221 58.7304 115.346 58.7354C116.155 58.7697 116.951 58.6905 117.736 58.4978C117.84 58.4723 117.874 58.51 117.84 58.6108ZM169.67 59.0843C169.751 58.9796 169.903 58.8883 170.008 58.7919C170.053 58.7509 170.106 58.7321 170.167 58.7354C170.966 58.7753 171.755 58.7016 172.532 58.5144C172.554 58.509 172.577 58.5097 172.598 58.5163C172.62 58.523 172.639 58.5353 172.654 58.5521C172.669 58.5689 172.679 58.5894 172.683 58.6115C172.687 58.6335 172.685 58.6563 172.677 58.6772L172.387 59.4349C172.363 59.497 172.365 59.559 172.394 59.621C172.498 59.847 172.587 60.0791 172.659 60.3173C172.762 60.6629 172.587 60.9852 172.922 61.3392C172.969 61.389 172.981 61.4455 172.957 61.5086L172.769 62.0221C172.75 62.0742 172.761 62.119 172.801 62.1567C173.426 62.7333 174.275 63.4278 175.154 63.496C176.817 63.6256 177.251 63.0839 177.515 61.5552C177.524 61.4997 177.517 61.4427 177.493 61.3919C177.469 61.341 177.43 61.2988 177.381 61.271C176.595 60.8191 176.464 60.3173 176.332 59.4682C176.234 58.8268 177.023 58.2701 176.427 57.6603C176.389 57.6215 176.364 57.5722 176.354 57.5189C176.345 57.4656 176.352 57.4107 176.374 57.3612C176.77 56.4584 176.95 55.5246 176.914 54.5597C176.831 52.3049 175.243 52.8333 173.795 53.159C173.769 53.1647 173.742 53.164 173.716 53.157C173.69 53.1499 173.667 53.1368 173.647 53.1186C173.628 53.1004 173.613 53.0778 173.605 53.0527C173.596 53.0275 173.594 53.0007 173.598 52.9745L173.701 52.3232C173.711 52.2578 173.686 52.2118 173.626 52.1852C173.225 52.0047 172.787 51.7377 172.312 51.3843C170.894 50.3275 168.502 50.6283 166.996 51.3594C165.264 52.1985 163.825 53.4979 162.385 54.9585C162.146 55.2 161.944 55.4874 161.778 55.8209C161.189 57.0062 160.53 58.1522 159.803 59.2588C159.51 59.7063 159.347 60.0353 159.314 60.2458C159.146 61.3441 160.457 62.155 161.378 62.3345C162.884 62.6286 164.052 62.4142 165.463 61.6898C167.001 60.8988 168.597 60.4618 169.67 59.0843ZM152.746 57.4858C152.093 59.0062 151.169 60.7576 150.797 62.3694C150.783 62.4314 150.801 62.4824 150.851 62.5222C151.461 63.0074 153.41 62.9975 154.057 62.6651C155.436 61.954 156.082 58.6722 156.427 57.2117C156.524 56.804 156.818 56.0131 157.309 54.8389C157.56 54.239 157.303 53.5793 156.666 53.3268C155.625 52.9147 154.272 53.4099 153.309 54.023C152.217 54.7187 151.088 55.3462 149.922 55.9056C149.463 56.1266 149.173 56.3559 149.094 56.8395C148.882 58.1571 150.806 58.1472 151.56 57.8497C151.911 57.7113 152.257 57.5457 152.597 57.3529C152.616 57.342 152.639 57.3373 152.661 57.3396C152.683 57.342 152.703 57.3512 152.72 57.3659C152.736 57.3806 152.747 57.4001 152.752 57.4217C152.757 57.4432 152.755 57.4657 152.746 57.4858ZM129.298 59.5413C130.133 58.0308 131.598 53.2753 127.898 53.8352C126.752 54.008 127.086 54.6577 126.916 55.4321C126.605 56.8395 126.11 57.8664 125.935 59.0544C125.85 59.6293 126.07 60.2109 125.862 60.8855C125.45 62.2198 126.397 62.7881 127.568 62.8944C129.436 63.0628 130.94 62.4419 132.078 61.0318C132.921 59.9883 133.349 58.6972 134.922 58.4446C134.98 58.4346 135.027 58.4535 135.063 58.5011C135.435 58.9979 135.576 60.0531 135.71 60.6695C136.594 64.7405 144.284 62.3827 146.599 61.4056C147.364 61.0833 149.279 60.1179 149.071 59.0461C148.862 57.9644 146.782 58.3466 146.107 58.7188C145.201 59.2189 140.073 61.625 139.361 59.5712C138.722 57.7351 137.82 55.4902 135.349 55.9389C134.656 56.0651 132.003 56.7049 131.53 57.3313C130.911 58.151 130.251 58.9475 129.55 59.7207C129.525 59.7513 129.489 59.7712 129.45 59.7764C129.411 59.7817 129.371 59.7718 129.339 59.749C129.307 59.7261 129.285 59.6918 129.277 59.6533C129.269 59.6147 129.277 59.5746 129.298 59.5413Z" fill="#0174BD"/>
<path d="M114.956 53.7407C115.228 54.0846 115.074 54.6163 115.284 54.9919C115.331 55.0747 115.348 55.1708 115.334 55.2648C115.319 55.3588 115.273 55.4453 115.203 55.5103C113.399 57.1852 111.402 58.576 109.213 59.6826C109.083 59.7491 108.832 59.794 108.692 59.8255C108.598 59.8466 108.564 59.8106 108.592 59.7175C109.017 58.3101 109.571 57.147 110.585 56.0104C111.288 55.2245 111.86 54.299 112.742 53.6941C113.331 53.292 114.452 53.1043 114.956 53.7407Z" fill="#0174BD"/>
<path d="M167.788 53.5731C168.46 53.2142 169.903 53.1427 169.973 54.2128C169.993 54.5307 170.061 54.8459 170.177 55.1583C170.198 55.2126 170.192 55.2641 170.16 55.3128C170.034 55.5011 169.857 55.6961 169.626 55.8977C167.981 57.3411 166.232 58.5508 164.382 59.5267C164.13 59.6607 163.837 59.7599 163.503 59.8241C163.435 59.8363 163.411 59.8097 163.43 59.7444C163.828 58.3735 164.419 57.119 165.388 56.0522C166.175 55.1865 166.894 54.05 167.788 53.5731Z" fill="#0174BD"/>
</svg>
