<svg width="175" height="86" viewBox="0 0 175 86" fill="none" xmlns="http://www.w3.org/2000/svg">
<path d="M27.986 48.9812C30.7767 50.081 33.4145 49.8008 35.8995 48.1406C41.9476 44.1019 40.5615 35.1001 33.719 32.8505C31.0765 31.9821 26.887 32.4425 23.996 32.432C23.9703 32.432 23.9448 32.4371 23.921 32.4469C23.8973 32.4567 23.8757 32.4711 23.8575 32.4892C23.8393 32.5073 23.8248 32.5289 23.815 32.5526C23.8051 32.5763 23.8 32.6017 23.8 32.6273V53.4036C23.8 53.5501 23.8724 53.6233 24.017 53.6233H27.6955C27.8565 53.6233 27.9347 53.5431 27.9301 53.3827L27.846 49.0788C27.8454 49.0619 27.849 49.0451 27.8565 49.0299C27.8641 49.0147 27.8753 49.0016 27.8893 48.9919C27.9032 48.9822 27.9194 48.9761 27.9363 48.9742C27.9532 48.9723 27.9703 48.9747 27.986 48.9812Z" stroke="#F6A291" stroke-width="2"/>
<path d="M149.779 36.1781C145.383 30.0014 134.439 31.4488 132.538 39.5298C130.949 46.289 133.389 53.6864 141.435 54.0805C144.554 54.234 147.816 53.0551 149.688 50.5196C152.46 46.7703 152.464 39.9553 149.779 36.1781Z" stroke="#F6A291" stroke-width="2"/>
<path d="M44.2996 49.7063L51.9086 49.6574C52.1279 49.6574 52.2376 49.7656 52.2376 49.9818V53.4486C52.2376 53.5648 52.2959 53.623 52.4126 53.623L56.1226 53.6195C56.1597 53.6195 56.1953 53.6048 56.2216 53.5786C56.2479 53.5525 56.2626 53.517 56.2626 53.48V33.1327C56.2626 32.9583 56.1751 32.8711 56.0001 32.8711H46.2106C46.1612 32.8712 46.1129 32.8854 46.0714 32.912C46.0298 32.9385 45.9968 32.9764 45.9761 33.0211C42.8681 39.5733 40.5184 46.3871 38.9271 53.4625C38.9223 53.4811 38.9219 53.5004 38.926 53.5192C38.9301 53.5379 38.9386 53.5555 38.9507 53.5707C38.9629 53.5858 38.9784 53.5981 38.9962 53.6065C39.0139 53.615 39.0334 53.6194 39.0531 53.6195L42.8716 53.623C42.9976 53.623 43.0758 53.5625 43.1061 53.4416L44.0196 49.9225C44.0358 49.8607 44.0721 49.806 44.1227 49.7669C44.1733 49.7278 44.2355 49.7065 44.2996 49.7063Z" stroke="#F6A291" stroke-width="2"/>
<path d="M77.315 49.4203L77.294 33.0594C77.294 33.0347 77.289 33.0102 77.2794 32.9874C77.2697 32.9645 77.2555 32.9437 77.2376 32.9263C77.2198 32.9088 77.1985 32.8949 77.1752 32.8854C77.1518 32.876 77.1268 32.8711 77.1015 32.8711H63.875C63.7514 32.8711 63.6895 32.9327 63.6895 33.0559C63.6335 39.3129 63.9905 44.255 61.6105 49.4482C61.5615 49.5575 61.4764 49.6121 61.355 49.6121H58.45C58.3334 49.6121 58.275 49.6702 58.275 49.7865V53.4486C58.275 53.5648 58.3334 53.623 58.45 53.623H79.8C79.9167 53.623 79.975 53.5648 79.975 53.4486V49.8737C79.975 49.6993 79.8875 49.6121 79.7125 49.6121H77.5075C77.3792 49.6121 77.315 49.5482 77.315 49.4203Z" stroke="#F6A291" stroke-width="2"/>
<path d="M86.1876 49.2459V33.0455C86.1876 32.9292 86.1292 32.8711 86.0126 32.8711H82.2501C82.1334 32.8711 82.0751 32.9292 82.0751 33.0455V53.4486C82.0751 53.5648 82.1334 53.623 82.2501 53.623H89.5301C89.6607 53.623 89.7541 53.5648 89.8101 53.4486C92.3184 48.1868 94.3204 42.7402 95.8161 37.1087C95.849 36.984 95.9264 36.8755 96.0337 36.8036C96.1411 36.7316 96.2711 36.7012 96.3994 36.7178C96.5277 36.7345 96.6455 36.7972 96.7307 36.8942C96.816 36.9911 96.8629 37.1158 96.8626 37.2447V53.3614C96.8626 53.5358 96.9501 53.623 97.1251 53.623L100.835 53.6195C100.872 53.6195 100.908 53.6048 100.934 53.5786C100.96 53.5525 100.975 53.517 100.975 53.48V33.1327C100.975 32.9583 100.888 32.8711 100.713 32.8711H92.9321C92.7851 32.8711 92.6941 32.9432 92.6591 33.0873C91.2964 38.7002 89.4694 44.1538 87.1781 49.4482C87.1304 49.5567 87.0466 49.6459 86.9408 49.7006C86.8351 49.7552 86.7138 49.7721 86.5974 49.7484C86.4811 49.7246 86.3768 49.6617 86.3021 49.5701C86.2275 49.4786 86.187 49.3641 86.1876 49.2459Z" stroke="#F6A291" stroke-width="2"/>
<path d="M117.215 46.0267C117.208 46.0485 117.194 46.0675 117.176 46.0809C117.157 46.0944 117.135 46.1016 117.112 46.1016C117.089 46.1016 117.066 46.0944 117.048 46.0809C117.029 46.0675 117.016 46.0485 117.009 46.0267L113.232 33.0594C113.195 32.9339 113.111 32.8711 112.98 32.8711H106.229C106.176 32.8711 106.125 32.8897 106.084 32.9235C106.044 32.9573 106.017 33.0042 106.008 33.0559C104.764 39.7826 104.132 46.5685 104.111 53.4137C104.109 53.5532 104.178 53.623 104.318 53.623H107.993C108.147 53.623 108.224 53.5462 108.224 53.3928C108.228 47.9264 108.621 42.489 109.403 37.0808C109.422 36.9482 109.498 36.882 109.631 36.882H109.837C109.993 36.882 110.094 36.9564 110.138 37.1052L114.926 53.4416C114.961 53.5625 115.042 53.623 115.168 53.623H119.039C119.172 53.623 119.257 53.559 119.294 53.4311L124.103 37.0598C124.138 36.9413 124.217 36.882 124.341 36.882H124.59C124.716 36.882 124.788 36.9447 124.807 37.0703C125.628 42.5018 126.029 47.9636 126.011 53.4556C126.011 53.5 126.028 53.5425 126.06 53.5739C126.091 53.6053 126.134 53.623 126.179 53.623H129.864C130.011 53.623 130.085 53.5497 130.085 53.4032C130.106 46.5487 129.472 39.7547 128.184 33.0211C128.165 32.9211 128.106 32.8711 128.006 32.8711H121.195C121.085 32.8711 121.015 32.9234 120.985 33.028L117.215 46.0267Z" stroke="#F6A291" stroke-width="2"/>
<path d="M34.0761 37.6248C32.5186 36.2472 30.1421 36.3623 28.0631 36.4739C27.9628 36.4785 27.9126 36.5308 27.9126 36.6308V44.0352C27.9126 44.1515 27.9569 44.2491 28.0456 44.3282C32.6936 48.3879 38.5141 41.545 34.0761 37.6248Z" stroke="#F6A291" stroke-width="2"/>
<path d="M142.475 36.516C137.162 36.1428 135.797 40.4152 136.311 44.74C136.693 47.9591 138.156 49.7588 141.488 49.9471C144.935 50.139 146.972 48.5276 147.459 45.1969C148.029 41.2976 147.322 36.8543 142.475 36.516Z" stroke="#F6A291" stroke-width="2"/>
<path d="M45.3391 45.3684C45.3323 45.3864 45.3299 45.4058 45.3323 45.4249C45.3347 45.444 45.3417 45.4622 45.3527 45.478C45.3638 45.4938 45.3785 45.5067 45.3956 45.5155C45.4127 45.5244 45.4318 45.5289 45.4511 45.5288H52.1186C52.1501 45.5288 52.1804 45.5164 52.2027 45.4941C52.225 45.4719 52.2376 45.4417 52.2376 45.4103V37.0014C52.2376 36.9699 52.225 36.9398 52.2027 36.9175C52.1804 36.8953 52.1501 36.8828 52.1186 36.8828H48.7166C48.6929 36.8834 48.6699 36.891 48.6506 36.9047C48.6312 36.9183 48.6164 36.9374 48.6081 36.9595L45.3391 45.3684Z" stroke="#F6A291" stroke-width="2"/>
<path d="M67.7216 37.0642C67.7741 41.361 67.5221 45.3161 66.1081 49.4211C66.0638 49.549 66.1093 49.613 66.2446 49.613H73.0241C73.1711 49.613 73.2446 49.5397 73.2446 49.3932L73.2341 37.0537C73.2341 36.9398 73.1758 36.8828 73.0591 36.8828H67.9001C67.8763 36.8828 67.8528 36.8875 67.831 36.8967C67.8091 36.9058 67.7892 36.9192 67.7726 36.9361C67.756 36.953 67.7429 36.973 67.7342 36.995C67.7254 37.017 67.7211 37.0405 67.7216 37.0642Z" stroke="#F6A291" stroke-width="2"/>
<path d="M88.2875 2.25656C110.818 8.3647 133.336 14.5193 155.841 20.7205C160.002 21.868 162.606 23.7095 162.648 28.3586C162.683 32.3764 162.686 40.9376 162.655 54.0421C162.645 58.5866 162.988 61.579 159.656 63.9611C158.886 64.5099 157.619 65.026 155.855 65.5097C133.525 71.6132 111.195 77.719 88.865 83.8271C88.8463 83.8318 88.5815 83.9492 88.0705 84.1794C87.402 84.4793 86.919 83.9876 86.4745 83.8655C63.6965 77.6341 40.9173 71.4074 18.137 65.1853C15.5377 64.4761 13.8203 62.9869 12.985 60.7176C12.6163 59.7108 12.4308 57.8658 12.4285 55.1826C12.4238 47.0655 12.4227 38.9461 12.425 30.8244C12.4273 28.297 12.6117 26.5473 12.978 25.5754C14.1785 22.3806 16.4815 21.4843 19.894 20.5531C42.035 14.5031 64.1737 8.44957 86.31 2.39258C86.4605 2.35073 86.5375 2.36817 86.6985 2.35422C86.7918 2.34724 86.8595 2.3019 86.9015 2.21819C87.0695 1.89384 87.843 1.57297 88.0635 2.06822C88.1078 2.16588 88.1825 2.22866 88.2875 2.25656ZM27.986 48.9814C30.7767 50.0812 33.4145 49.801 35.8995 48.1409C41.9475 44.1021 40.5615 35.1003 33.719 32.8508C31.0765 31.9823 26.887 32.4427 23.996 32.4322C23.9703 32.4322 23.9448 32.4373 23.921 32.4471C23.8972 32.4569 23.8756 32.4713 23.8574 32.4894C23.8392 32.5076 23.8248 32.5291 23.8149 32.5528C23.8051 32.5765 23.8 32.6019 23.8 32.6275V53.4038C23.8 53.5503 23.8723 53.6236 24.017 53.6236H27.6955C27.8565 53.6236 27.9347 53.5433 27.93 53.3829L27.846 49.0791C27.8453 49.0621 27.8489 49.0453 27.8565 49.0301C27.864 49.0149 27.8753 49.0018 27.8892 48.9921C27.9031 48.9824 27.9193 48.9763 27.9362 48.9744C27.9531 48.9726 27.9703 48.975 27.986 48.9814ZM149.779 36.178C145.383 30.0013 134.438 31.4487 132.538 39.5297C130.949 46.2889 133.388 53.6863 141.435 54.0804C144.553 54.2339 147.815 53.0551 149.688 50.5195C152.46 46.7702 152.463 39.9552 149.779 36.178ZM44.2995 49.7069L51.9085 49.658C52.1278 49.658 52.2375 49.7661 52.2375 49.9824V53.4492C52.2375 53.5654 52.2958 53.6236 52.4125 53.6236L56.1225 53.6201C56.1596 53.6201 56.1952 53.6054 56.2215 53.5792C56.2477 53.553 56.2625 53.5176 56.2625 53.4806V33.1333C56.2625 32.9589 56.175 32.8717 56 32.8717H46.2105C46.1611 32.8718 46.1128 32.886 46.0713 32.9126C46.0297 32.9391 45.9967 32.977 45.976 33.0217C42.868 39.5739 40.5183 46.3877 38.927 53.4631C38.9222 53.4816 38.9218 53.501 38.9259 53.5198C38.93 53.5385 38.9385 53.5561 38.9506 53.5713C38.9628 53.5864 38.9783 53.5987 38.9961 53.6071C39.0138 53.6156 39.0333 53.62 39.053 53.6201L42.8715 53.6236C42.9975 53.6236 43.0757 53.5631 43.106 53.4422L44.0195 49.9231C44.0357 49.8613 44.0719 49.8066 44.1226 49.7675C44.1732 49.7284 44.2354 49.7071 44.2995 49.7069ZM77.315 49.4209L77.294 33.06C77.294 33.0353 77.289 33.0108 77.2793 32.9879C77.2697 32.9651 77.2555 32.9443 77.2376 32.9268C77.2197 32.9094 77.1985 32.8955 77.1752 32.886C77.1518 32.8766 77.1268 32.8717 77.1015 32.8717H63.875C63.7513 32.8717 63.6895 32.9333 63.6895 33.0565C63.6335 39.3135 63.9905 44.2556 61.6105 49.4488C61.5615 49.558 61.4763 49.6127 61.355 49.6127H58.45C58.3333 49.6127 58.275 49.6708 58.275 49.7871V53.4492C58.275 53.5654 58.3333 53.6236 58.45 53.6236H79.8C79.9167 53.6236 79.975 53.5654 79.975 53.4492V49.8743C79.975 49.6999 79.8875 49.6127 79.7125 49.6127H77.5075C77.3792 49.6127 77.315 49.5487 77.315 49.4209ZM86.1875 49.2465V33.0461C86.1875 32.9298 86.1292 32.8717 86.0125 32.8717H82.25C82.1333 32.8717 82.075 32.9298 82.075 33.0461V53.4492C82.075 53.5654 82.1333 53.6236 82.25 53.6236H89.53C89.6607 53.6236 89.754 53.5654 89.81 53.4492C92.3183 48.1874 94.3203 42.7407 95.816 37.1092C95.8489 36.9846 95.9263 36.8761 96.0336 36.8042C96.141 36.7322 96.271 36.7017 96.3993 36.7184C96.5276 36.7351 96.6454 36.7978 96.7307 36.8948C96.8159 36.9917 96.8628 37.1163 96.8625 37.2453V53.362C96.8625 53.5364 96.95 53.6236 97.125 53.6236L100.835 53.6201C100.872 53.6201 100.908 53.6054 100.934 53.5792C100.96 53.553 100.975 53.5176 100.975 53.4806V33.1333C100.975 32.9589 100.887 32.8717 100.712 32.8717H92.932C92.785 32.8717 92.694 32.9438 92.659 33.0879C91.2963 38.7008 89.4693 44.1544 87.178 49.4488C87.1303 49.5573 87.0465 49.6465 86.9407 49.7012C86.835 49.7558 86.7137 49.7727 86.5974 49.749C86.481 49.7252 86.3767 49.6622 86.3021 49.5707C86.2274 49.4792 86.1869 49.3647 86.1875 49.2465ZM117.215 46.0273C117.208 46.0491 117.194 46.0681 117.176 46.0815C117.157 46.095 117.135 46.1022 117.112 46.1022C117.089 46.1022 117.066 46.095 117.048 46.0815C117.029 46.0681 117.016 46.0491 117.008 46.0273L113.232 33.06C113.195 32.9345 113.111 32.8717 112.98 32.8717H106.228C106.176 32.8717 106.125 32.8903 106.084 32.9241C106.044 32.9579 106.017 33.0048 106.008 33.0565C104.764 39.7832 104.132 46.5691 104.111 53.4143C104.109 53.5538 104.177 53.6236 104.317 53.6236H107.992C108.146 53.6236 108.223 53.5468 108.223 53.3934C108.228 47.927 108.621 42.4896 109.403 37.0813C109.422 36.9488 109.497 36.8825 109.63 36.8825H109.837C109.993 36.8825 110.094 36.957 110.138 37.1058L114.926 53.4422C114.961 53.5631 115.041 53.6236 115.167 53.6236H119.038C119.171 53.6236 119.257 53.5596 119.294 53.4317L124.103 37.0604C124.138 36.9418 124.217 36.8825 124.341 36.8825H124.589C124.715 36.8825 124.788 36.9453 124.806 37.0709C125.628 42.5024 126.029 47.9642 126.01 53.4561C126.01 53.5005 126.028 53.5431 126.06 53.5745C126.091 53.6059 126.134 53.6236 126.178 53.6236H129.864C130.011 53.6236 130.084 53.5503 130.084 53.4038C130.105 46.5493 129.472 39.7553 128.184 33.0217C128.165 32.9217 128.106 32.8717 128.005 32.8717H121.194C121.085 32.8717 121.015 32.924 120.984 33.0286L117.215 46.0273Z" fill="#EF4623"/>
<path d="M27.986 48.9812C27.9703 48.9747 27.9532 48.9723 27.9363 48.9742C27.9194 48.9761 27.9032 48.9822 27.8893 48.9919C27.8753 49.0016 27.8641 49.0147 27.8565 49.0299C27.849 49.0451 27.8454 49.0619 27.846 49.0788L27.9301 53.3827C27.9347 53.5431 27.8565 53.6233 27.6955 53.6233H24.017C23.8724 53.6233 23.8 53.5501 23.8 53.4036V32.6273C23.8 32.6017 23.8051 32.5763 23.815 32.5526C23.8248 32.5289 23.8393 32.5073 23.8575 32.4892C23.8757 32.4711 23.8973 32.4567 23.921 32.4469C23.9448 32.4371 23.9703 32.432 23.996 32.432C26.887 32.4425 31.0765 31.9821 33.719 32.8505C40.5615 35.1001 41.9475 44.1019 35.8995 48.1406C33.4145 49.8008 30.7767 50.081 27.986 48.9812ZM34.076 37.6252C32.5185 36.2476 30.142 36.3627 28.063 36.4743C27.9627 36.4789 27.9125 36.5312 27.9125 36.6312V44.0356C27.9125 44.1519 27.9569 44.2495 28.0455 44.3286C32.6935 48.3883 38.5141 41.5454 34.076 37.6252Z" fill="#FCFEFF"/>
<path d="M132.538 39.5298C134.438 31.4488 145.383 30.0014 149.779 36.1781C152.463 39.9553 152.46 46.7703 149.688 50.5196C147.815 53.0551 144.553 54.234 141.435 54.0805C133.388 53.6864 130.949 46.289 132.538 39.5298ZM142.474 36.5164C137.161 36.1432 135.796 40.4157 136.311 44.7404C136.692 47.9596 138.155 49.7593 141.487 49.9476C144.935 50.1394 146.972 48.5281 147.458 45.1973C148.029 41.2981 147.322 36.8547 142.474 36.5164Z" fill="#FCFEFF"/>
<path d="M44.2995 49.7072C44.2354 49.7075 44.1732 49.7288 44.1226 49.7679C44.0719 49.807 44.0357 49.8617 44.0195 49.9235L43.106 53.4426C43.0757 53.5635 42.9975 53.6239 42.8715 53.6239L39.053 53.6205C39.0333 53.6204 39.0138 53.616 38.9961 53.6075C38.9783 53.599 38.9628 53.5868 38.9506 53.5716C38.9385 53.5565 38.93 53.5389 38.9259 53.5201C38.9218 53.5014 38.9222 53.482 38.927 53.4635C40.5183 46.3881 42.868 39.5743 45.976 33.022C45.9967 32.9774 46.0297 32.9395 46.0713 32.913C46.1128 32.8864 46.1611 32.8722 46.2105 32.8721H56C56.175 32.8721 56.2625 32.9593 56.2625 33.1336V53.4809C56.2625 53.5179 56.2477 53.5534 56.2215 53.5796C56.1952 53.6058 56.1596 53.6205 56.1225 53.6205L52.4125 53.6239C52.2958 53.6239 52.2375 53.5658 52.2375 53.4496V49.9828C52.2375 49.7665 52.1278 49.6584 51.9085 49.6584L44.2995 49.7072ZM45.339 45.3685C45.3322 45.3865 45.3299 45.4059 45.3322 45.425C45.3346 45.4441 45.3416 45.4623 45.3526 45.4781C45.3637 45.4939 45.3784 45.5068 45.3955 45.5156C45.4126 45.5245 45.4317 45.5291 45.451 45.529H52.1185C52.15 45.529 52.1803 45.5165 52.2026 45.4942C52.2249 45.472 52.2375 45.4418 52.2375 45.4104V37.0015C52.2375 36.9701 52.2249 36.9399 52.2026 36.9177C52.1803 36.8954 52.15 36.8829 52.1185 36.8829H48.7165C48.6928 36.8835 48.6698 36.8911 48.6505 36.9048C48.6311 36.9185 48.6163 36.9376 48.608 36.9597L45.339 45.3685Z" fill="#FCFEFF"/>
<path d="M77.5075 49.6131H79.7125C79.8875 49.6131 79.975 49.7003 79.975 49.8747V53.4496C79.975 53.5658 79.9167 53.6239 79.8 53.6239H58.45C58.3334 53.6239 58.275 53.5658 58.275 53.4496V49.7875C58.275 49.6712 58.3334 49.6131 58.45 49.6131H61.355C61.4764 49.6131 61.5615 49.5584 61.6105 49.4492C63.9905 44.256 63.6335 39.3139 63.6895 33.0569C63.6895 32.9337 63.7514 32.8721 63.875 32.8721H77.1015C77.1268 32.8721 77.1518 32.8769 77.1752 32.8864C77.1985 32.8959 77.2198 32.9097 77.2376 32.9272C77.2555 32.9447 77.2697 32.9655 77.2794 32.9883C77.289 33.0112 77.294 33.0357 77.294 33.0604L77.315 49.4213C77.315 49.5491 77.3792 49.6131 77.5075 49.6131ZM67.7215 37.0643C67.774 41.3612 67.522 45.3162 66.108 49.4213C66.0637 49.5491 66.1092 49.6131 66.2445 49.6131H73.024C73.171 49.6131 73.2445 49.5398 73.2445 49.3934L73.234 37.0538C73.234 36.9399 73.1757 36.8829 73.059 36.8829H67.9C67.8763 36.8829 67.8528 36.8876 67.8309 36.8968C67.809 36.906 67.7892 36.9194 67.7725 36.9363C67.7559 36.9531 67.7429 36.9732 67.7341 36.9952C67.7253 37.0171 67.7211 37.0406 67.7215 37.0643Z" fill="#FCFEFF"/>
<path d="M86.1875 49.2469C86.1869 49.3651 86.2274 49.4796 86.302 49.5711C86.3767 49.6626 86.481 49.7256 86.5973 49.7494C86.7137 49.7731 86.8349 49.7562 86.9407 49.7015C87.0465 49.6469 87.1303 49.5577 87.178 49.4492C89.4693 44.1548 91.2963 38.7012 92.6589 33.0883C92.6939 32.9442 92.7849 32.8721 92.9319 32.8721H100.712C100.887 32.8721 100.975 32.9593 100.975 33.1336V53.4809C100.975 53.5179 100.96 53.5534 100.934 53.5796C100.908 53.6058 100.872 53.6205 100.835 53.6205L97.125 53.6239C96.95 53.6239 96.8625 53.5368 96.8625 53.3624V37.2457C96.8627 37.1167 96.8159 36.9921 96.7306 36.8951C96.6454 36.7982 96.5276 36.7355 96.3993 36.7188C96.271 36.7021 96.141 36.7326 96.0336 36.8046C95.9262 36.8765 95.8489 36.985 95.816 37.1096C94.3203 42.7411 92.3183 48.1878 89.81 53.4496C89.754 53.5658 89.6606 53.6239 89.53 53.6239H82.25C82.1333 53.6239 82.075 53.5658 82.075 53.4496V33.0465C82.075 32.9302 82.1333 32.8721 82.25 32.8721H86.0125C86.1291 32.8721 86.1875 32.9302 86.1875 33.0465V49.2469Z" fill="#FCFEFF"/>
<path d="M117.215 46.0277L120.985 33.029C121.015 32.9244 121.085 32.8721 121.195 32.8721H128.006C128.106 32.8721 128.165 32.9221 128.184 33.022C129.472 39.7556 130.106 46.5497 130.085 53.4042C130.085 53.5507 130.011 53.6239 129.864 53.6239H126.179C126.134 53.6239 126.091 53.6063 126.06 53.5749C126.028 53.5435 126.011 53.5009 126.011 53.4565C126.029 47.9646 125.628 42.5028 124.807 37.0713C124.788 36.9457 124.716 36.8829 124.59 36.8829H124.341C124.217 36.8829 124.138 36.9422 124.103 37.0608L119.294 53.4321C119.257 53.56 119.172 53.6239 119.039 53.6239H115.168C115.042 53.6239 114.961 53.5635 114.926 53.4426L110.138 37.1061C110.094 36.9573 109.993 36.8829 109.837 36.8829H109.631C109.498 36.8829 109.422 36.9492 109.403 37.0817C108.621 42.49 108.228 47.9273 108.224 53.3938C108.224 53.5472 108.147 53.6239 107.993 53.6239H104.318C104.178 53.6239 104.109 53.5542 104.111 53.4147C104.132 46.5695 104.764 39.7835 106.008 33.0569C106.017 33.0052 106.044 32.9583 106.084 32.9245C106.125 32.8907 106.176 32.8721 106.229 32.8721H112.98C113.111 32.8721 113.195 32.9348 113.232 33.0604L117.009 46.0277C117.016 46.0495 117.029 46.0684 117.048 46.0819C117.066 46.0954 117.089 46.1026 117.112 46.1026C117.135 46.1026 117.157 46.0954 117.176 46.0819C117.194 46.0684 117.208 46.0495 117.215 46.0277Z" fill="#FCFEFF"/>
<path d="M34.076 37.6258C38.514 41.546 32.6935 48.3889 28.0455 44.3292C27.9568 44.2501 27.9125 44.1524 27.9125 44.0362V36.6318C27.9125 36.5318 27.9626 36.4795 28.063 36.4748C30.142 36.3632 32.5185 36.2481 34.076 37.6258Z" fill="#EF4623"/>
<path d="M136.311 44.74C135.797 40.4152 137.162 36.1428 142.475 36.516C147.322 36.8543 148.029 41.2976 147.459 45.1969C146.972 48.5276 144.935 50.139 141.488 49.9471C138.156 49.7588 136.693 47.9591 136.311 44.74Z" fill="#EF4623"/>
<path d="M45.339 45.3684L48.608 36.9595C48.6163 36.9374 48.6311 36.9183 48.6504 36.9047C48.6698 36.891 48.6928 36.8834 48.7165 36.8828H52.1185C52.15 36.8828 52.1803 36.8953 52.2026 36.9175C52.2249 36.9398 52.2375 36.9699 52.2375 37.0014V45.4103C52.2375 45.4417 52.2249 45.4719 52.2026 45.4941C52.1803 45.5164 52.15 45.5288 52.1185 45.5288H45.451C45.4317 45.5289 45.4126 45.5244 45.3955 45.5155C45.3783 45.5067 45.3636 45.4938 45.3526 45.478C45.3416 45.4622 45.3346 45.444 45.3322 45.4249C45.3298 45.4058 45.3321 45.3864 45.339 45.3684Z" fill="#EF4623"/>
<path d="M66.108 49.4211C67.522 45.3161 67.774 41.361 67.7215 37.0642C67.721 37.0405 67.7253 37.017 67.734 36.995C67.7428 36.973 67.7559 36.953 67.7725 36.9361C67.7891 36.9192 67.8089 36.9058 67.8308 36.8967C67.8527 36.8875 67.8762 36.8828 67.9 36.8828H73.059C73.1756 36.8828 73.234 36.9398 73.234 37.0537L73.2445 49.3932C73.2445 49.5397 73.171 49.613 73.024 49.613H66.2445C66.1091 49.613 66.0636 49.549 66.108 49.4211Z" fill="#EF4623"/>
</svg>
