<svg width="215" height="76" viewBox="0 0 215 76" fill="none" xmlns="http://www.w3.org/2000/svg">
<g clip-path="url(#clip0_502_696)">
<path d="M24.209 0H25.9111C35.1883 0.684409 42.9068 4.18844 51.4101 7.47146C53.6174 8.32222 55.562 8.8082 57.2437 8.92939C59.1895 9.06841 58.6162 6.85121 58.7523 5.51804C58.7667 5.38496 58.8288 5.35645 58.9387 5.43249C59.8417 6.05036 60.3278 6.83101 60.3971 7.77445C60.7482 12.7435 53.4597 11.364 50.8152 10.7616C43.9711 9.2003 33.8947 5.78539 25.2625 4.81225C18.9522 4.10289 12.3446 6.58387 8.901 12.0556C5.246 17.8695 1.6555 30.5809 9.57467 35.0474C13.0111 36.983 15.9028 35.1294 18.9164 33.7036C19.0335 33.6465 19.1135 33.5586 19.1565 33.4398C19.6402 32.0674 20.1527 30.7271 20.5612 29.3012C22.6944 21.8702 24.9292 14.4391 27.2656 7.00806C27.2947 6.91343 27.3529 6.83025 27.4319 6.77016C27.5109 6.71007 27.6069 6.67609 27.7063 6.67298L31.0818 6.56604C31.1206 6.56505 31.159 6.57314 31.194 6.58964C31.229 6.60613 31.2595 6.63055 31.2829 6.66088C31.3064 6.69121 31.3222 6.72656 31.329 6.764C31.3358 6.80144 31.3333 6.8399 31.3219 6.87617L25.5384 25.4158C25.5269 25.4496 25.5285 25.4865 25.543 25.5191C25.5575 25.5518 25.5837 25.5779 25.6166 25.5922C25.6495 25.6066 25.6865 25.6081 25.7205 25.5966C25.7545 25.585 25.7828 25.5612 25.8 25.5299C28.1626 21.3616 30.5109 17.2385 32.8448 13.1606C33.5949 11.8536 34.1635 10.7248 34.5505 9.77421C34.5911 9.6744 34.6664 9.62449 34.7762 9.62449H38.0944C38.2688 9.62449 38.3333 9.70886 38.2879 9.87758C33.7586 26.1608 28.7061 42.2836 23.7969 58.4635C23.7815 58.514 23.7502 58.5582 23.7077 58.5897C23.6651 58.6211 23.6135 58.6381 23.5604 58.6381L20.0057 58.6346C19.9865 58.6348 19.9675 58.6306 19.9503 58.6222C19.933 58.6138 19.918 58.6014 19.9065 58.5861C19.8949 58.5708 19.8872 58.553 19.8839 58.5342C19.8806 58.5153 19.8818 58.496 19.8875 58.4777C23.7049 44.9488 27.7266 31.4792 31.9526 18.0691C31.9626 18.0376 31.9644 18.004 31.9578 17.9716C31.9513 17.9392 31.9366 17.9089 31.9151 17.8837C31.8937 17.8584 31.8661 17.839 31.8351 17.8271C31.8041 17.8153 31.7705 17.8115 31.7376 17.816C31.697 17.8208 31.6611 17.8231 31.6301 17.8231C31.5942 17.8231 31.5668 17.8386 31.5477 17.8695C29.6891 20.9351 27.8126 23.9899 25.9182 27.0341C23.2594 31.3081 21.9228 36.7442 20.5468 41.5529C19.7681 44.2786 18.0648 49.6422 15.437 57.6436C14.5555 60.3266 13.7242 62.3418 12.943 63.6892C11.395 66.3484 8.96908 69.496 6.10958 70.8577C1.77733 72.918 0.11825 68.4409 0 65.2113V64.231C0.183944 61.251 0.93525 58.4979 2.25392 55.9718C3.80192 53.0096 7.32075 49.5768 10.9471 49.5911C10.9771 49.591 11.0068 49.5979 11.0337 49.6112C11.0606 49.6245 11.084 49.6439 11.1021 49.6677C11.1201 49.6916 11.1324 49.7193 11.1378 49.7487C11.1433 49.7781 11.1418 49.8084 11.1334 49.8371L9.72158 54.742C9.68814 54.8584 9.61528 54.9369 9.503 54.9773C5.25675 56.4601 2.94908 60.4561 2.28617 64.6695C2.13925 65.6105 2.09267 67.5354 2.623 68.4373C3.87717 70.5654 6.42492 68.5692 7.3315 67.3501C9.24261 64.7788 10.7142 61.7322 11.7462 58.2104C13.9869 50.5464 16.2934 42.9157 18.6656 35.3183C18.6744 35.2922 18.6746 35.2642 18.6662 35.2381C18.6578 35.212 18.6413 35.1892 18.6188 35.1727C18.5964 35.1563 18.5692 35.1471 18.541 35.1463C18.5127 35.1456 18.4849 35.1534 18.4613 35.1686C17.2609 35.96 15.7595 36.7157 14.6343 37.1933C10.1695 39.1075 5.51117 36.9509 4.12442 32.349C3.55586 30.4597 3.34922 28.5301 3.5045 26.56C4.33942 15.8733 10.5637 3.43274 21.6756 0.324381C22.4532 0.106939 23.3741 0.128327 24.209 0Z" fill="#D61A0C"/>
<path d="M28.3406 58.3564L42.2762 12.1339C42.3144 12.0056 42.4016 11.9414 42.5377 11.9414H46.1211C46.262 11.9414 46.3134 12.0079 46.2752 12.141C41.8605 27.5937 37.0982 42.9537 32.508 58.3671C32.4854 58.4454 32.4374 58.5142 32.3715 58.5631C32.3055 58.612 32.2251 58.6383 32.1425 58.638H28.552C28.3537 58.638 28.2832 58.5442 28.3406 58.3564Z" fill="#D61A0C"/>
<path d="M131.709 38.4945C131.662 38.5217 131.628 38.5653 131.613 38.6163C131.597 38.6674 131.602 38.722 131.627 38.769C132.372 40.2055 132.741 41.225 132.659 42.879C132.41 47.6437 130.906 51.9569 128.147 55.8186C124.234 61.2938 120.529 58.5455 119.476 53.277C118.831 50.0593 118.985 46.8785 119.938 43.7345C122.475 35.3612 125.994 27.9966 132.659 21.9974C134.178 20.6286 138.295 17.7127 139.08 21.7229C140.148 27.1732 136.787 35.5537 131.709 38.4945ZM134.404 24.3429C129.391 31.7003 125.488 39.7029 123.621 48.4398C123.274 50.0688 122.647 55.1413 124.166 55.8043C124.271 55.8495 124.373 55.8435 124.471 55.7865C127.441 54.0505 128.506 46.4365 128.652 43.3067C128.727 41.7454 128.301 40.3374 127.377 39.0826C127.352 39.0492 127.335 39.011 127.325 38.9706C127.316 38.9301 127.315 38.8882 127.323 38.8474C127.331 38.8066 127.347 38.7679 127.37 38.7335C127.394 38.6992 127.424 38.67 127.459 38.6478C132.691 35.297 135.285 30.0249 137.07 24.2146C137.208 23.7607 137.268 23.2878 137.249 22.7959C137.246 22.7038 137.218 22.6142 137.169 22.5362C137.12 22.4582 137.051 22.3946 136.969 22.3518C136.887 22.3091 136.795 22.2887 136.703 22.2928C136.61 22.2969 136.52 22.3254 136.443 22.3752C135.616 22.9075 134.936 23.5634 134.404 24.3429Z" fill="white"/>
<path d="M42.2618 54.1609C42.1161 55.0282 41.9775 55.6901 41.8461 56.1463C40.2575 61.5955 38.6295 67.0315 36.962 72.4545C36.9262 72.571 36.8474 72.6292 36.7255 72.6292H32.7158C32.5796 72.6292 32.533 72.565 32.576 72.4367C36.7542 59.2072 40.7592 45.9325 44.5909 32.6127C44.7773 31.9639 44.9385 31.2973 45.0747 30.6129C45.0865 30.5539 45.0848 30.4929 45.0698 30.4346C45.0548 30.3763 45.0269 30.322 44.988 30.2759C44.9492 30.2297 44.9004 30.1928 44.8454 30.1678C44.7903 30.1429 44.7303 30.1305 44.6698 30.1317C43.971 30.1424 42.982 31.5112 42.5628 32.0174C42.4409 32.1647 42.3609 32.1445 42.3227 31.9568C42.2188 31.4577 42.1149 30.9658 42.3549 30.4846C43.3762 28.4242 44.4763 26.4922 46.5833 25.4014C47.325 25.0165 48.4645 24.799 49.1597 25.3765C50.6862 26.6419 49.2529 31.718 48.4502 33.3969C48.4401 33.4198 48.4388 33.4455 48.4463 33.4693C48.4538 33.4931 48.4697 33.5134 48.4911 33.5265C48.5126 33.5395 48.538 33.5444 48.5627 33.5402C48.5875 33.5361 48.6099 33.5231 48.6258 33.5038C51.625 29.5507 54.6279 32.5806 55.022 36.0918C55.8056 43.1022 54.3113 49.5625 50.5393 55.4726C49.6327 56.8914 48.3355 58.4847 46.7374 59.0373C44.401 59.8429 42.9892 58.0891 42.7204 56.018C42.6416 55.4168 42.5341 54.7965 42.3979 54.1573C42.3478 53.9196 42.3024 53.9208 42.2618 54.1609ZM50.4784 35.1685C50.3745 35.0962 50.2516 35.0552 50.1241 35.0501C49.9965 35.0451 49.8696 35.0762 49.7581 35.14C48.3845 35.9337 47.4875 37.0851 47.067 38.5941C46.1091 42.0209 45.0341 45.4109 43.842 48.764C43.8062 48.8662 43.842 48.9113 43.9495 48.8995C44.3222 48.8638 45.089 46.8605 46.3683 46.8498C47.4361 46.8462 47.6834 48.0725 46.9595 48.7711C45.1714 50.5107 43.6736 52.1326 43.8134 54.7989C43.8183 54.9001 43.8444 54.9992 43.8901 55.0898C43.9358 55.1803 44 55.2604 44.0786 55.3248C44.1572 55.3893 44.2485 55.4367 44.3466 55.464C44.4447 55.4913 44.5475 55.4978 44.6483 55.4833C47.325 55.0983 48.4359 50.4109 49.1418 48.1224C50.1618 44.8168 50.9179 41.5789 51.41 38.4088C51.5784 37.3322 51.4853 35.8743 50.4784 35.1685Z" fill="white"/>
<path d="M90.7479 41.8417C90.7336 41.8738 90.7328 41.9103 90.7455 41.943C90.7583 41.9758 90.7836 42.0021 90.816 42.0163C90.8483 42.0305 90.8849 42.0313 90.9178 42.0186C90.9508 42.0059 90.9773 41.9807 90.9915 41.9486C93.1463 38.0037 95.4886 34.3571 98.0185 31.0088C99.8245 28.6169 101.1 26.8595 103.838 26.6777C108.55 26.364 106.816 33.0085 105.454 35.1223C102.676 39.4308 99.023 43.1012 94.496 46.1335C94.3981 46.2 94.367 46.2891 94.4029 46.4008C95.1984 48.8711 95.8254 51.8761 97.2731 54.0434C97.3189 54.1128 97.3816 54.1694 97.4555 54.208C97.5293 54.2466 97.612 54.2659 97.6956 54.2641C97.7793 54.2623 97.8613 54.2395 97.9341 54.1978C98.0068 54.1561 98.0679 54.0969 98.1116 54.0256L98.7781 52.9348C98.845 52.8255 98.9382 52.7969 99.0576 52.8492C99.4518 53.0203 99.748 53.2972 99.9463 53.6798C100.006 53.7939 100.008 53.9079 99.9535 54.022C99.4231 55.1294 98.8844 56.0942 98.3374 56.9165C97.3734 58.3637 95.3023 59.622 93.9119 57.8112C92.0092 55.3266 91.1671 51.0812 90.4827 48.0441C90.4769 48.0178 90.4628 47.9939 90.4426 47.9759C90.4223 47.958 90.3969 47.9468 90.3699 47.9441C90.3429 47.9413 90.3158 47.9471 90.2923 47.9606C90.2688 47.974 90.2501 47.9945 90.239 48.0192L85.6237 58.6738C85.5938 58.7416 85.5443 58.7992 85.4813 58.8397C85.4184 58.8802 85.3446 58.9018 85.269 58.902L81.4993 58.9055C81.3177 58.9055 81.2532 58.82 81.3058 58.6489L88.0926 36.6124C88.1167 36.531 88.1153 36.444 88.0884 36.3634C88.0615 36.2828 88.0105 36.2123 87.9424 36.1617C87.8742 36.1111 87.7922 36.0827 87.7076 36.0804C87.6229 36.0781 87.5396 36.102 87.4691 36.149C86.6808 36.6741 86.0752 37.3526 85.6524 38.1844C85.5903 38.3032 85.5162 38.3115 85.4302 38.2093C83.9288 36.427 88.3614 32.1922 89.569 31.4579C91.0429 30.562 92.1 30.9089 92.7402 32.4988C93.3709 34.0601 91.3105 40.1984 90.7479 41.8417ZM92.1024 44.7433C96.8288 42.2944 102.473 36.0028 102.616 30.7913C102.618 30.6952 102.594 30.6002 102.547 30.5162C102.501 30.4321 102.432 30.362 102.349 30.313C102.266 30.264 102.171 30.2379 102.074 30.2374C101.978 30.2369 101.883 30.262 101.799 30.3101C100.727 30.9303 100.308 31.5506 99.3515 32.7697C96.4657 36.4508 94.0159 40.4111 92.002 44.6506C91.9423 44.7789 91.9758 44.8098 92.1024 44.7433Z" fill="white"/>
<path d="M183.879 42.1692C184.082 41.9458 184.299 41.6143 184.531 41.1746C186.241 37.9213 188.41 34.5694 191.038 31.1188C192.916 28.6556 194.245 26.7878 197.051 26.6773C201.803 26.499 199.799 33.2825 198.373 35.4071C195.542 39.6371 191.952 43.2195 187.602 46.1544C187.564 46.1804 187.536 46.2175 187.521 46.2604C187.507 46.3034 187.506 46.3499 187.519 46.3932C188.286 48.86 188.92 51.7437 190.332 53.9752C190.383 54.0563 190.454 54.1228 190.539 54.1684C190.623 54.2139 190.718 54.2369 190.814 54.2352C190.91 54.2334 191.004 54.2068 191.087 54.1581C191.169 54.1094 191.238 54.0403 191.285 53.9574L191.873 52.9343C191.933 52.8321 192.019 52.8001 192.131 52.8381C192.597 52.9949 192.922 53.3039 193.106 53.7649C193.149 53.8766 193.142 53.9835 193.084 54.0857C192.357 55.3904 191.619 57.0408 190.433 57.9997C186.143 61.4859 184.14 50.6066 183.553 47.9403C183.549 47.922 183.54 47.9054 183.526 47.8929C183.512 47.8804 183.494 47.8728 183.476 47.8712C183.457 47.8696 183.438 47.8741 183.422 47.884C183.407 47.8939 183.394 47.9086 183.388 47.926L178.719 58.7126C178.694 58.7689 178.654 58.8167 178.602 58.8503C178.55 58.8839 178.49 58.9017 178.428 58.9015L174.605 58.9051C174.421 58.9051 174.357 58.8183 174.412 58.6449L181.177 36.701C181.204 36.611 181.202 36.5147 181.172 36.4256C181.142 36.3364 181.085 36.2588 181.009 36.2035C180.933 36.1483 180.842 36.1181 180.748 36.1172C180.654 36.1162 180.562 36.1446 180.485 36.1984C179.761 36.7093 179.196 37.3462 178.79 38.109C178.69 38.2992 178.581 38.3039 178.464 38.1233L178.127 37.6064C178.065 37.5114 178.053 37.4092 178.092 37.2999C178.976 34.8498 180.491 32.9249 182.639 31.5252C184.499 30.3168 186.168 31.5786 185.907 33.6889C185.582 36.322 184.846 39.1119 183.7 42.0586C183.561 42.4175 183.621 42.4543 183.879 42.1692ZM193.439 31.4931C190.102 35.5734 187.309 39.9983 185.061 44.7678C185.056 44.7789 185.055 44.7912 185.058 44.803C185.061 44.8148 185.067 44.8254 185.076 44.8333C185.085 44.8413 185.097 44.8461 185.109 44.8471C185.121 44.8482 185.133 44.8453 185.144 44.8391C186.867 43.759 188.591 42.6931 189.981 41.2352C192.604 38.4798 195.471 34.9686 195.722 31.0154C195.724 30.9669 195.687 30.8759 195.615 30.7549C195.542 30.6338 195.438 30.4884 195.317 30.3381C194.998 29.946 193.636 31.2507 193.439 31.4931Z" fill="white"/>
<path d="M151.919 54.1792C152.575 54.1293 156.911 45.8273 157.516 44.7223C158.092 43.6671 158.559 42.5538 158.917 41.3822C159.87 38.2525 160.821 35.1263 161.77 32.0037C161.783 31.9581 161.811 31.918 161.849 31.8892C161.887 31.8604 161.933 31.8443 161.981 31.8433L165.829 31.7114C165.855 31.7104 165.88 31.7155 165.903 31.7261C165.926 31.7366 165.946 31.7525 165.962 31.7723C165.978 31.7921 165.988 31.8153 165.993 31.84C165.998 31.8647 165.997 31.8902 165.991 31.9145C163.963 39.1531 161.86 46.3727 159.684 53.5732C159.596 53.8655 159.545 54.1436 159.534 54.4073C159.532 54.448 159.543 54.4881 159.565 54.5223C159.588 54.5565 159.62 54.5831 159.658 54.5986C159.695 54.6141 159.737 54.6178 159.777 54.6091C159.817 54.6004 159.853 54.5797 159.881 54.5499L161.981 52.2793C162.005 52.2538 162.036 52.2354 162.07 52.2263C162.104 52.2172 162.14 52.2177 162.173 52.2277C162.206 52.2378 162.236 52.2571 162.258 52.2832C162.281 52.3094 162.295 52.3414 162.3 52.3755C163.031 57.1414 162.547 62.2994 159.863 66.4344C158.419 68.6623 156.097 70.4232 153.478 68.869C153.158 68.6813 152.533 68.0658 151.604 67.0226C151.51 66.918 151.488 66.8016 151.536 66.6732L153.127 62.3779C153.186 62.2115 153.296 62.1664 153.456 62.2424C154.739 62.8591 156.724 63.5684 158.086 62.9874C159.809 62.246 160.92 58.2358 161.228 56.4855C161.235 56.4455 161.228 56.4043 161.208 56.3687C161.189 56.3331 161.158 56.3051 161.12 56.2891C161.083 56.2731 161.041 56.2701 161.001 56.2805C160.962 56.2909 160.927 56.3141 160.902 56.3465C160.527 56.8574 160.078 57.3814 159.555 57.9185C157.591 59.9432 154.166 60.207 154.757 56.2396C155.029 54.4394 155.803 52.6892 155.982 50.9461C155.985 50.9134 155.976 50.8809 155.957 50.8538C155.939 50.8267 155.912 50.8066 155.88 50.7967C155.849 50.7869 155.815 50.7878 155.784 50.7994C155.753 50.8109 155.727 50.8325 155.71 50.8605C154.494 53.0968 153.14 55.2082 151.647 57.1949C150.683 58.4746 147.809 60.9413 147.092 58.0112C146.451 55.3698 147.608 52.3612 148.551 49.3741C149.903 45.0847 151.285 40.8035 152.697 36.5307C152.904 35.8998 152.797 35.1405 151.887 35.3972C151.851 35.4066 151.82 35.4251 151.797 35.4507L150.536 36.823C150.438 36.9276 150.327 36.9442 150.203 36.8729L149.923 36.7125C149.796 36.6365 149.757 36.5295 149.805 36.3917C150.557 34.3028 151.887 31.8397 153.782 30.7133C154.46 30.3069 155.968 29.9718 156.717 30.5172C158.43 31.7648 156.85 36.7731 156.158 39.0866C154.677 44.0319 153.201 48.9844 151.729 53.9439C151.72 53.9724 151.718 54.0026 151.724 54.0319C151.73 54.0612 151.742 54.0887 151.761 54.1119C151.78 54.1351 151.804 54.1534 151.832 54.1652C151.859 54.1769 151.889 54.1817 151.919 54.1792Z" fill="white"/>
<path d="M82.2339 37.022C82.2697 36.2592 82.2948 35.2825 81.6498 34.7763C80.3168 33.7212 78.9336 35.7352 78.3746 36.8723C76.4611 40.7684 72.1002 52.5852 75.576 56.1712C77.1348 57.7788 78.2241 55.4262 78.5287 54.2463C78.7867 53.2458 78.9073 51.3435 78.8906 48.5393C78.8906 48.3777 78.9694 48.2827 79.1271 48.2542L81.295 47.8478C81.4264 47.824 81.4897 47.8787 81.4849 48.0118C81.4025 50.949 81.0263 58.8981 76.8445 59.2974C72.7703 59.6859 70.7206 55.2729 70.3945 51.7831C69.7746 45.1315 71.9067 35.9918 77.855 32.003C81.5853 29.5042 83.6099 33.2292 83.7389 36.359C83.8177 38.2768 83.0544 45.0995 79.8438 44.2725C78.3065 43.8768 78.8476 40.6758 79.2095 39.3747C79.5487 38.1532 80.484 37.4474 82.0153 37.2573C82.1562 37.2406 82.2291 37.1622 82.2339 37.022Z" fill="white"/>
<path d="M53.1014 75.9262H51.8508C46.8437 74.8425 44.7498 72.1607 45.5692 67.8808C45.9395 65.9535 46.6454 64.4576 47.687 63.3929C49.9445 61.0902 56.8603 60.7409 55.6312 65.8668C54.9826 68.5759 51.557 67.5279 49.8083 68.8326C47.1745 70.7967 49.1239 74.3078 52.2306 73.1779C57.9425 71.0961 61.3681 57.3081 62.8731 52.004C62.8792 51.9871 62.882 51.9692 62.8811 51.9513C62.8803 51.9334 62.8759 51.9159 62.8683 51.8996C62.8606 51.8834 62.8498 51.8689 62.8365 51.8568C62.8232 51.8447 62.8076 51.8354 62.7907 51.8293C62.7738 51.8232 62.7558 51.8205 62.7378 51.8213C62.7198 51.8222 62.7022 51.8265 62.6859 51.8341C62.6695 51.8417 62.6549 51.8525 62.6428 51.8657C62.6306 51.8789 62.6212 51.8944 62.6151 51.9113C61.4685 54.4885 57.9174 60.2775 54.4523 59.7285C54.3233 59.7095 54.2194 59.6501 54.1405 59.5503C51.6286 56.4419 57.6845 41.9054 59.0246 38.1554C59.1429 37.8239 59.1644 37.2714 59.1106 36.9684C59.1005 36.9098 59.0744 36.855 59.0352 36.8102C58.9959 36.7654 58.9451 36.7321 58.8881 36.7141C58.8312 36.6961 58.7703 36.6939 58.7122 36.708C58.6542 36.722 58.6011 36.7517 58.5588 36.7937L56.6381 38.6972C56.5091 38.8255 56.4315 38.7994 56.4052 38.6188C56.0684 36.1057 58.8347 32.8263 60.6264 31.7212C61.6106 31.1152 62.4599 31.0986 63.1741 31.6713C64.5358 32.7692 63.88 35.5247 63.4715 37.0076C61.871 42.7894 60.194 48.5475 58.4405 54.2818C58.3928 54.441 58.4011 54.6002 58.4656 54.7594C58.4803 54.7964 58.5045 54.8288 58.5357 54.8536C58.5669 54.8784 58.604 54.8947 58.6435 54.9008C58.683 54.9069 58.7233 54.9027 58.7606 54.8885C58.798 54.8744 58.8309 54.8507 58.8562 54.82C61.1424 52.0966 62.8086 48.3859 64.5573 45.2811C65.0996 44.3186 65.5332 43.2991 65.858 42.2226C66.8829 38.841 67.9209 35.4641 68.972 32.0919C69.0102 31.966 69.0962 31.903 69.23 31.903H72.91C73.0558 31.903 73.1095 31.9731 73.0713 32.1133C70.219 42.446 67.1409 52.7086 63.837 62.901C62.2532 67.7953 59.0712 75.1954 53.1014 75.9262Z" fill="white"/>
<path d="M137.489 49.1815C137.238 50.7737 137.034 52.373 136.876 53.9795C136.769 55.1095 136.966 56.2145 138.324 56.0897C140.789 55.858 142.341 51.085 143.215 48.8785C143.258 48.7692 143.338 48.7181 143.455 48.7252L145.799 48.8535C145.944 48.863 146.002 48.9391 145.971 49.0817C145.068 52.9921 142.291 58.4638 138.041 59.4333C135.041 60.1142 133.433 55.4231 133.286 53.2238C132.805 46.1409 135.063 34.6235 142.688 31.6435C146.075 30.321 147.938 32.524 148.397 35.6216C149.418 42.5156 144.068 47.5346 137.715 48.9427C137.586 48.9712 137.51 49.0508 137.489 49.1815ZM145.258 34.1708C141.624 35.8712 139.61 42.2768 138.295 45.6097C138.279 45.6505 138.277 45.6952 138.29 45.737C138.302 45.7788 138.328 45.8154 138.364 45.8412C138.399 45.8671 138.443 45.8807 138.487 45.8801C138.532 45.8795 138.575 45.8647 138.61 45.8379C140.137 44.6473 141.936 43.5244 143.104 42.1984C144.351 40.7725 147.683 35.5503 145.594 34.1958C145.487 34.1245 145.375 34.1162 145.258 34.1708Z" fill="white"/>
<path d="M115.674 53.1843C115.928 55.0807 117.569 52.0365 117.784 51.6265C117.802 51.5911 117.831 51.5624 117.867 51.5445C117.902 51.5267 117.943 51.5208 117.982 51.5276C118.022 51.5343 118.058 51.5535 118.085 51.5822C118.113 51.611 118.13 51.6477 118.135 51.6871C118.243 52.4927 118.304 53.1166 117.902 53.8723C117.021 55.5298 114.43 59.4687 112.205 59.0944C109.851 58.6952 110.714 53.9507 111.219 52.4571C111.229 52.4209 111.224 52.3826 111.208 52.3491C111.191 52.3157 111.163 52.2893 111.128 52.2746C111.094 52.26 111.055 52.2582 111.019 52.2694C110.983 52.2806 110.953 52.3042 110.933 52.3359C109.765 54.5353 108.052 56.6883 105.887 58.0144C101.573 60.6557 100.584 53.3269 100.824 50.9706C101.429 45.0177 103.674 39.7801 107.561 35.2578C109.152 33.4077 111.467 31.522 113.921 31.4365C115.38 31.3866 116.319 32.3098 116.379 33.7072C116.382 33.75 116.399 33.7907 116.428 33.8226C116.456 33.8546 116.495 33.8758 116.538 33.8828C116.58 33.8899 116.624 33.8823 116.662 33.8614C116.699 33.8405 116.729 33.8075 116.745 33.7678L117.526 31.7537C117.581 31.6088 117.686 31.5351 117.841 31.5327L121.522 31.4329C121.775 31.4258 121.867 31.5434 121.797 31.7858L115.677 53.1415C115.672 53.1555 115.671 53.1702 115.674 53.1843ZM112.495 35.9814C108.851 41.3248 105.572 47.0389 105.296 53.6512C105.287 53.8501 105.357 54.0445 105.49 54.1931C105.623 54.3416 105.81 54.4324 106.009 54.4462C108.371 54.5959 110.109 50.6641 111.058 48.8426C112.488 46.1049 116.362 37.7316 115.24 34.9013C115.187 34.7659 115.087 34.691 114.939 34.6767C113.964 34.5864 113.15 35.0213 112.495 35.9814Z" fill="white"/>
<path d="M215 31.5684V32.014L208.826 53.4303C208.802 53.5106 208.806 53.5986 208.836 53.6834C208.866 53.7683 208.921 53.8463 208.994 53.908C209.464 54.3036 210.861 51.9866 210.997 51.6729C211.016 51.6318 211.048 51.5977 211.087 51.5758C211.127 51.5539 211.173 51.5453 211.218 51.5513C211.263 51.5573 211.305 51.5775 211.337 51.6091C211.37 51.6406 211.392 51.6818 211.399 51.7264C211.495 52.3752 211.624 52.8956 211.313 53.5265C210.443 55.2994 209.176 56.9201 207.511 58.3887C205.941 59.7718 204.443 59.2228 204.006 57.2908C203.666 55.7723 204.042 53.94 204.386 52.4857C204.394 52.4559 204.391 52.4241 204.377 52.3965C204.363 52.3689 204.339 52.3475 204.31 52.3364C204.281 52.3253 204.249 52.3253 204.22 52.3364C204.191 52.3476 204.167 52.369 204.153 52.3966C202.989 54.5425 200.681 57.6259 198.32 58.4136C194.299 59.7611 193.873 52.3966 194.123 50.3433C194.908 43.8343 199.918 31.6362 207.848 31.4116C207.984 31.4068 208.112 31.4389 208.231 31.5078C209.11 32.0306 209.594 32.8101 209.682 33.8462C209.725 34.35 209.832 34.3631 210.001 33.8854L210.754 31.7574C210.785 31.6671 210.848 31.6148 210.944 31.6005C212.298 31.4033 213.65 31.3926 215 31.5684ZM207.55 34.6376C204.78 35.1901 200.656 44.7112 199.735 47.2849C198.957 49.4522 198.603 51.4484 198.588 53.6477C198.587 53.8457 198.661 54.0368 198.794 54.1838C198.927 54.3308 199.111 54.4231 199.309 54.4426C202.831 54.7884 207.206 42.3087 208.041 39.5924C208.331 38.6514 209.535 34.2419 207.55 34.6376Z" fill="white"/>
<path d="M169.42 33.2793L167.281 33.0761C167.092 33.0594 167.044 32.9691 167.137 32.8052L167.549 32.0744C167.614 31.9604 167.712 31.9033 167.843 31.9033H174.053C174.087 31.9032 174.12 31.9112 174.15 31.9264C174.18 31.9416 174.206 31.9638 174.225 31.991C174.245 32.0182 174.258 32.0496 174.263 32.0827C174.268 32.1159 174.265 32.1497 174.254 32.1814L171.828 39.0611C171.785 39.1847 171.803 39.2999 171.882 39.4069C175.268 43.9625 175.501 50.9776 173.781 55.9396C172.881 58.5311 169.133 62.0102 166.632 58.6273C165.901 57.6411 165.377 56.4826 165.059 55.1518C163.067 46.7999 166.485 40.6901 169.535 33.4718C169.585 33.3553 169.547 33.2911 169.42 33.2793ZM170.864 42.1053C169.262 46.7144 167.449 52.1861 168.187 57.0625C168.202 57.1576 168.245 57.2464 168.309 57.3183C168.373 57.3903 168.457 57.4423 168.55 57.4682C168.644 57.4941 168.742 57.4928 168.835 57.4645C168.927 57.4362 169.01 57.382 169.072 57.3084C171.441 54.4995 172.921 45.2742 171.244 42.0768C171.096 41.7964 170.969 41.8059 170.864 42.1053Z" fill="white"/>
</g>
<defs>
<clipPath id="clip0_502_696">
<rect width="215" height="75.9266" fill="white"/>
</clipPath>
</defs>
</svg>
